G75*
%MOIN*%
%OFA0B0*%
%FSLAX25Y25*%
%IPPOS*%
%LPD*%
%AMOC8*
5,1,8,0,0,1.08239X$1,22.5*
%
%ADD10C,0.12400*%
%ADD11C,0.10400*%
%ADD12OC8,0.05324*%
%ADD13OC8,0.08000*%
%ADD14C,0.07600*%
%ADD15C,0.08000*%
%ADD16OC8,0.09100*%
%ADD17C,0.08572*%
%ADD18C,0.04143*%
%ADD19C,0.05324*%
%ADD20C,0.11939*%
D10*
X0012300Y0174170D03*
X0281000Y0156170D03*
X0290000Y0023670D03*
D11*
X0012100Y0024970D03*
D12*
X0057700Y0121070D03*
X0067700Y0121070D03*
X0077700Y0121070D03*
X0087700Y0121070D03*
X0097700Y0121070D03*
X0107700Y0121070D03*
X0117700Y0121070D03*
X0127700Y0121070D03*
X0137700Y0121070D03*
X0137700Y0131070D03*
X0127700Y0131070D03*
X0117700Y0131070D03*
X0107700Y0131070D03*
X0097700Y0131070D03*
X0087700Y0131070D03*
X0077700Y0131070D03*
X0067700Y0131070D03*
X0057700Y0131070D03*
D13*
X0057800Y0163870D03*
X0067800Y0163870D03*
X0077800Y0163870D03*
X0087800Y0163870D03*
X0097800Y0163870D03*
X0109400Y0164070D03*
X0119400Y0164070D03*
X0129400Y0164070D03*
X0139400Y0164070D03*
X0149400Y0164070D03*
X0159400Y0164070D03*
X0169400Y0164070D03*
X0179400Y0164070D03*
X0179400Y0174070D03*
X0169400Y0174070D03*
X0159400Y0174070D03*
X0149400Y0174070D03*
X0139400Y0174070D03*
X0129400Y0174070D03*
X0119400Y0174070D03*
X0109400Y0174070D03*
X0097800Y0173870D03*
X0087800Y0173870D03*
X0077800Y0173870D03*
X0067800Y0173870D03*
X0057800Y0173870D03*
X0047800Y0173870D03*
X0037800Y0173870D03*
X0027800Y0173870D03*
X0027800Y0163870D03*
X0037800Y0163870D03*
X0047800Y0163870D03*
D14*
X0157900Y0115365D03*
X0157900Y0089775D03*
X0157000Y0063365D03*
X0157000Y0037775D03*
D15*
X0136400Y0077970D03*
X0126400Y0077970D03*
X0127900Y0095970D03*
X0127900Y0105970D03*
X0064600Y0104970D03*
X0054600Y0104970D03*
X0044600Y0104970D03*
X0062900Y0086970D03*
X0061900Y0076970D03*
X0062900Y0066970D03*
X0061900Y0056970D03*
X0062900Y0046970D03*
D16*
X0048800Y0075470D03*
X0044300Y0093370D03*
X0014400Y0040070D03*
D17*
X0023330Y0045355D02*
X0023330Y0053327D01*
X0052070Y0053327D02*
X0052070Y0045355D01*
X0052070Y0032461D02*
X0052070Y0024489D01*
X0023330Y0024489D02*
X0023330Y0032461D01*
D18*
X0030810Y0041467D03*
X0044590Y0041467D03*
D19*
X0224583Y0175557D03*
X0234583Y0175557D03*
X0244583Y0175557D03*
X0254583Y0175557D03*
D20*
X0280488Y0174180D03*
X0198992Y0174180D03*
X0198992Y0082841D03*
X0280488Y0082841D03*
M02*
