%
M48
M72
T01C0.0130
T02C0.0140
T03C0.0197
T04C0.0236
T05C0.0315
T06C0.0354
T07C0.0400
T08C0.0520
T09C0.0531
T10C0.0980
T11C0.1134
T12C0.1180
%
T01
X7800Y4537
X7890Y5017
X7890Y5587
X8790Y5077
X9120Y4657
X9000Y5587
X7260Y6397
X7050Y6667
X7560Y7657
X8160Y7627
X9030Y8587
X8280Y8737
X8250Y9067
X9030Y9277
X8250Y10057
X7290Y9997
X4500Y12097
X4740Y12337
X4980Y12787
X4230Y13027
X4980Y13447
X4680Y15487
X9390Y15967
X10290Y14887
X11220Y14767
X11040Y14287
X10320Y14287
X11940Y14227
X12960Y14707
X12150Y15517
X15030Y12877
X14790Y12457
X16710Y13837
X17430Y14227
X18160Y13917
X18630Y14167
X19230Y14227
X19230Y14587
X19470Y14827
X20410Y14547
X20820Y14537
X21450Y14887
X19290Y13807
X19530Y13447
X23930Y17087
X23960Y17877
X16020Y7237
X15000Y6217
X13260Y4807
X12990Y4567
X13560Y3877
X12090Y4177
X11850Y4807
X11850Y5137
X12090Y5587
X11100Y5707
X10770Y5707
X10770Y5377
X10890Y6577
X10560Y6727
X9840Y6727
X9000Y6577
X11700Y6877
X11940Y7147
X12210Y6727
X18090Y3577
X5220Y6127
T02
X19010Y4577
X26650Y6477
T03
X24340Y6807
X23820Y6817
X23810Y6317
X23810Y3197
X23810Y2677
X23840Y2137
X24350Y2137
X23270Y2177
X18570Y2737
X17180Y2797
X16720Y2697
X16210Y2927
X16390Y3427
X16880Y3517
X17360Y3477
X15300Y2567
X14880Y2817
X14860Y2317
X15380Y2117
X16080Y1997
X16750Y2007
X14470Y4637
X14870Y5197
X15390Y5417
X16860Y6197
X17050Y6697
X17640Y6727
X17480Y6237
X17520Y5727
X17100Y5607
X18620Y6847
X18660Y7437
X17920Y8217
X17460Y8167
X18240Y8537
X19060Y8817
X19130Y9577
X20270Y9967
X19380Y10437
X20250Y11077
X19050Y11767
X19070Y12347
X19920Y12327
X20120Y12917
X19200Y12937
X18210Y13057
X18260Y12017
X18250Y11427
X17650Y10657
X16550Y11557
X16590Y12047
X16210Y12307
X14390Y13017
X14680Y13517
X15560Y13837
X15980Y13727
X15630Y15337
X16270Y15467
X16730Y15427
X17280Y15557
X18560Y14657
X20620Y13837
X15530Y10737
X14280Y10917
X14360Y10197
X13530Y8707
X12780Y8737
X12310Y8897
X11160Y8887
X11180Y9677
X11180Y10427
X9780Y10747
X9520Y11057
X9310Y9947
X9690Y9477
X9820Y7647
X10900Y7607
X7360Y4237
X6140Y3427
X6190Y2647
X4380Y3257
X3740Y3527
X3780Y4187
X3250Y2737
X3910Y2647
X1150Y5397
X1060Y5977
X1770Y6347
X2450Y6507
X3790Y5737
X4270Y5987
X4720Y5927
X4550Y6417
X3250Y7387
X2800Y7477
X3080Y11257
X3110Y11717
X4020Y11227
X3420Y12687
X3830Y12997
X4150Y13407
X3350Y13427
X3340Y14477
X3340Y14957
X1900Y15607
X10970Y15497
X11520Y15637
X29040Y6797
X11310Y3927
X9880Y3957
T04
X7160Y8097
T05
X6770Y12107
X5770Y12107
X5770Y13107
X6770Y13107
X7770Y13107
X8770Y13107
X9770Y13107
X10770Y13107
X11770Y13107
X12770Y13107
X13770Y13107
X13770Y12107
X12770Y12107
X11770Y12107
X10770Y12107
X9770Y12107
X8770Y12107
X7770Y12107
X22458Y17556
X23458Y17556
X24458Y17556
X25458Y17556
T06
X15790Y11537
X15790Y8977
X15700Y6337
X15700Y3777
X4459Y4147
X3081Y4147
T07
X6290Y4697
X6190Y5697
X6290Y6697
X6190Y7697
X6290Y8697
X6460Y10497
X5460Y10497
X4460Y10497
X12790Y10597
X12790Y9597
X12640Y7797
X13640Y7797
X13940Y16407
X12940Y16407
X11940Y16407
X10940Y16407
X9780Y16387
X8780Y16387
X7780Y16387
X6780Y16387
X5780Y16387
X4780Y16387
X3780Y16387
X2780Y16387
X2780Y17387
X3780Y17387
X4780Y17387
X5780Y17387
X6780Y17387
X7780Y17387
X8780Y17387
X9780Y17387
X10940Y17407
X11940Y17407
X12940Y17407
X13940Y17407
X14940Y17407
X15940Y17407
X16940Y17407
X17940Y17407
X17940Y16407
X16940Y16407
X15940Y16407
X14940Y16407
T08
X4430Y9337
X4880Y7547
X1440Y4007
T09
X2333Y4934
X5207Y4934
X5207Y2847
X2333Y2847
T10
X1210Y2497
T11
X19899Y8284
X28049Y8284
X28049Y17418
X19899Y17418
T12
X28100Y15617
X29000Y2367
X1230Y17417
M30
