G75*
%MOIN*%
%OFA0B0*%
%FSLAX25Y25*%
%IPPOS*%
%LPD*%
%AMOC8*
5,1,8,0,0,1.08239X$1,22.5*
%
%ADD10C,0.00000*%
D10*
X0006644Y0015400D02*
X0006644Y0175400D01*
X0256644Y0175400D01*
X0256566Y0015400D01*
X0006644Y0015400D01*
X0009744Y0024400D02*
X0009746Y0024553D01*
X0009752Y0024706D01*
X0009762Y0024859D01*
X0009776Y0025012D01*
X0009794Y0025164D01*
X0009815Y0025315D01*
X0009841Y0025466D01*
X0009871Y0025617D01*
X0009904Y0025766D01*
X0009942Y0025915D01*
X0009983Y0026062D01*
X0010028Y0026209D01*
X0010077Y0026354D01*
X0010129Y0026498D01*
X0010186Y0026640D01*
X0010246Y0026781D01*
X0010309Y0026920D01*
X0010377Y0027058D01*
X0010447Y0027194D01*
X0010522Y0027328D01*
X0010599Y0027460D01*
X0010681Y0027590D01*
X0010765Y0027718D01*
X0010853Y0027843D01*
X0010944Y0027966D01*
X0011038Y0028087D01*
X0011135Y0028205D01*
X0011236Y0028321D01*
X0011339Y0028434D01*
X0011445Y0028545D01*
X0011554Y0028652D01*
X0011666Y0028757D01*
X0011780Y0028859D01*
X0011897Y0028958D01*
X0012017Y0029053D01*
X0012139Y0029146D01*
X0012263Y0029235D01*
X0012390Y0029322D01*
X0012519Y0029404D01*
X0012650Y0029484D01*
X0012783Y0029560D01*
X0012918Y0029632D01*
X0013055Y0029701D01*
X0013193Y0029767D01*
X0013333Y0029829D01*
X0013475Y0029887D01*
X0013618Y0029941D01*
X0013763Y0029992D01*
X0013908Y0030039D01*
X0014055Y0030082D01*
X0014203Y0030121D01*
X0014352Y0030157D01*
X0014502Y0030188D01*
X0014653Y0030216D01*
X0014804Y0030240D01*
X0014956Y0030260D01*
X0015109Y0030276D01*
X0015261Y0030288D01*
X0015414Y0030296D01*
X0015567Y0030300D01*
X0015721Y0030300D01*
X0015874Y0030296D01*
X0016027Y0030288D01*
X0016179Y0030276D01*
X0016332Y0030260D01*
X0016484Y0030240D01*
X0016635Y0030216D01*
X0016786Y0030188D01*
X0016936Y0030157D01*
X0017085Y0030121D01*
X0017233Y0030082D01*
X0017380Y0030039D01*
X0017525Y0029992D01*
X0017670Y0029941D01*
X0017813Y0029887D01*
X0017955Y0029829D01*
X0018095Y0029767D01*
X0018233Y0029701D01*
X0018370Y0029632D01*
X0018505Y0029560D01*
X0018638Y0029484D01*
X0018769Y0029404D01*
X0018898Y0029322D01*
X0019025Y0029235D01*
X0019149Y0029146D01*
X0019271Y0029053D01*
X0019391Y0028958D01*
X0019508Y0028859D01*
X0019622Y0028757D01*
X0019734Y0028652D01*
X0019843Y0028545D01*
X0019949Y0028434D01*
X0020052Y0028321D01*
X0020153Y0028205D01*
X0020250Y0028087D01*
X0020344Y0027966D01*
X0020435Y0027843D01*
X0020523Y0027718D01*
X0020607Y0027590D01*
X0020689Y0027460D01*
X0020766Y0027328D01*
X0020841Y0027194D01*
X0020911Y0027058D01*
X0020979Y0026920D01*
X0021042Y0026781D01*
X0021102Y0026640D01*
X0021159Y0026498D01*
X0021211Y0026354D01*
X0021260Y0026209D01*
X0021305Y0026062D01*
X0021346Y0025915D01*
X0021384Y0025766D01*
X0021417Y0025617D01*
X0021447Y0025466D01*
X0021473Y0025315D01*
X0021494Y0025164D01*
X0021512Y0025012D01*
X0021526Y0024859D01*
X0021536Y0024706D01*
X0021542Y0024553D01*
X0021544Y0024400D01*
X0021542Y0024247D01*
X0021536Y0024094D01*
X0021526Y0023941D01*
X0021512Y0023788D01*
X0021494Y0023636D01*
X0021473Y0023485D01*
X0021447Y0023334D01*
X0021417Y0023183D01*
X0021384Y0023034D01*
X0021346Y0022885D01*
X0021305Y0022738D01*
X0021260Y0022591D01*
X0021211Y0022446D01*
X0021159Y0022302D01*
X0021102Y0022160D01*
X0021042Y0022019D01*
X0020979Y0021880D01*
X0020911Y0021742D01*
X0020841Y0021606D01*
X0020766Y0021472D01*
X0020689Y0021340D01*
X0020607Y0021210D01*
X0020523Y0021082D01*
X0020435Y0020957D01*
X0020344Y0020834D01*
X0020250Y0020713D01*
X0020153Y0020595D01*
X0020052Y0020479D01*
X0019949Y0020366D01*
X0019843Y0020255D01*
X0019734Y0020148D01*
X0019622Y0020043D01*
X0019508Y0019941D01*
X0019391Y0019842D01*
X0019271Y0019747D01*
X0019149Y0019654D01*
X0019025Y0019565D01*
X0018898Y0019478D01*
X0018769Y0019396D01*
X0018638Y0019316D01*
X0018505Y0019240D01*
X0018370Y0019168D01*
X0018233Y0019099D01*
X0018095Y0019033D01*
X0017955Y0018971D01*
X0017813Y0018913D01*
X0017670Y0018859D01*
X0017525Y0018808D01*
X0017380Y0018761D01*
X0017233Y0018718D01*
X0017085Y0018679D01*
X0016936Y0018643D01*
X0016786Y0018612D01*
X0016635Y0018584D01*
X0016484Y0018560D01*
X0016332Y0018540D01*
X0016179Y0018524D01*
X0016027Y0018512D01*
X0015874Y0018504D01*
X0015721Y0018500D01*
X0015567Y0018500D01*
X0015414Y0018504D01*
X0015261Y0018512D01*
X0015109Y0018524D01*
X0014956Y0018540D01*
X0014804Y0018560D01*
X0014653Y0018584D01*
X0014502Y0018612D01*
X0014352Y0018643D01*
X0014203Y0018679D01*
X0014055Y0018718D01*
X0013908Y0018761D01*
X0013763Y0018808D01*
X0013618Y0018859D01*
X0013475Y0018913D01*
X0013333Y0018971D01*
X0013193Y0019033D01*
X0013055Y0019099D01*
X0012918Y0019168D01*
X0012783Y0019240D01*
X0012650Y0019316D01*
X0012519Y0019396D01*
X0012390Y0019478D01*
X0012263Y0019565D01*
X0012139Y0019654D01*
X0012017Y0019747D01*
X0011897Y0019842D01*
X0011780Y0019941D01*
X0011666Y0020043D01*
X0011554Y0020148D01*
X0011445Y0020255D01*
X0011339Y0020366D01*
X0011236Y0020479D01*
X0011135Y0020595D01*
X0011038Y0020713D01*
X0010944Y0020834D01*
X0010853Y0020957D01*
X0010765Y0021082D01*
X0010681Y0021210D01*
X0010599Y0021340D01*
X0010522Y0021472D01*
X0010447Y0021606D01*
X0010377Y0021742D01*
X0010309Y0021880D01*
X0010246Y0022019D01*
X0010186Y0022160D01*
X0010129Y0022302D01*
X0010077Y0022446D01*
X0010028Y0022591D01*
X0009983Y0022738D01*
X0009942Y0022885D01*
X0009904Y0023034D01*
X0009871Y0023183D01*
X0009841Y0023334D01*
X0009815Y0023485D01*
X0009794Y0023636D01*
X0009776Y0023788D01*
X0009762Y0023941D01*
X0009752Y0024094D01*
X0009746Y0024247D01*
X0009744Y0024400D01*
X0050083Y0037297D02*
X0050085Y0037381D01*
X0050091Y0037464D01*
X0050101Y0037547D01*
X0050115Y0037630D01*
X0050132Y0037712D01*
X0050154Y0037793D01*
X0050179Y0037872D01*
X0050208Y0037951D01*
X0050241Y0038028D01*
X0050277Y0038103D01*
X0050317Y0038177D01*
X0050360Y0038249D01*
X0050407Y0038318D01*
X0050457Y0038385D01*
X0050510Y0038450D01*
X0050566Y0038512D01*
X0050624Y0038572D01*
X0050686Y0038629D01*
X0050750Y0038682D01*
X0050817Y0038733D01*
X0050886Y0038780D01*
X0050957Y0038825D01*
X0051030Y0038865D01*
X0051105Y0038902D01*
X0051182Y0038936D01*
X0051260Y0038966D01*
X0051339Y0038992D01*
X0051420Y0039015D01*
X0051502Y0039033D01*
X0051584Y0039048D01*
X0051667Y0039059D01*
X0051750Y0039066D01*
X0051834Y0039069D01*
X0051918Y0039068D01*
X0052001Y0039063D01*
X0052085Y0039054D01*
X0052167Y0039041D01*
X0052249Y0039025D01*
X0052330Y0039004D01*
X0052411Y0038980D01*
X0052489Y0038952D01*
X0052567Y0038920D01*
X0052643Y0038884D01*
X0052717Y0038845D01*
X0052789Y0038803D01*
X0052859Y0038757D01*
X0052927Y0038708D01*
X0052992Y0038656D01*
X0053055Y0038601D01*
X0053115Y0038543D01*
X0053173Y0038482D01*
X0053227Y0038418D01*
X0053279Y0038352D01*
X0053327Y0038284D01*
X0053372Y0038213D01*
X0053413Y0038140D01*
X0053452Y0038066D01*
X0053486Y0037990D01*
X0053517Y0037912D01*
X0053544Y0037833D01*
X0053568Y0037752D01*
X0053587Y0037671D01*
X0053603Y0037589D01*
X0053615Y0037506D01*
X0053623Y0037422D01*
X0053627Y0037339D01*
X0053627Y0037255D01*
X0053623Y0037172D01*
X0053615Y0037088D01*
X0053603Y0037005D01*
X0053587Y0036923D01*
X0053568Y0036842D01*
X0053544Y0036761D01*
X0053517Y0036682D01*
X0053486Y0036604D01*
X0053452Y0036528D01*
X0053413Y0036454D01*
X0053372Y0036381D01*
X0053327Y0036310D01*
X0053279Y0036242D01*
X0053227Y0036176D01*
X0053173Y0036112D01*
X0053115Y0036051D01*
X0053055Y0035993D01*
X0052992Y0035938D01*
X0052927Y0035886D01*
X0052859Y0035837D01*
X0052789Y0035791D01*
X0052717Y0035749D01*
X0052643Y0035710D01*
X0052567Y0035674D01*
X0052489Y0035642D01*
X0052411Y0035614D01*
X0052330Y0035590D01*
X0052249Y0035569D01*
X0052167Y0035553D01*
X0052085Y0035540D01*
X0052001Y0035531D01*
X0051918Y0035526D01*
X0051834Y0035525D01*
X0051750Y0035528D01*
X0051667Y0035535D01*
X0051584Y0035546D01*
X0051502Y0035561D01*
X0051420Y0035579D01*
X0051339Y0035602D01*
X0051260Y0035628D01*
X0051182Y0035658D01*
X0051105Y0035692D01*
X0051030Y0035729D01*
X0050957Y0035769D01*
X0050886Y0035814D01*
X0050817Y0035861D01*
X0050750Y0035912D01*
X0050686Y0035965D01*
X0050624Y0036022D01*
X0050566Y0036082D01*
X0050510Y0036144D01*
X0050457Y0036209D01*
X0050407Y0036276D01*
X0050360Y0036345D01*
X0050317Y0036417D01*
X0050277Y0036491D01*
X0050241Y0036566D01*
X0050208Y0036643D01*
X0050179Y0036722D01*
X0050154Y0036801D01*
X0050132Y0036882D01*
X0050115Y0036964D01*
X0050101Y0037047D01*
X0050091Y0037130D01*
X0050085Y0037213D01*
X0050083Y0037297D01*
X0063862Y0037297D02*
X0063864Y0037381D01*
X0063870Y0037464D01*
X0063880Y0037547D01*
X0063894Y0037630D01*
X0063911Y0037712D01*
X0063933Y0037793D01*
X0063958Y0037872D01*
X0063987Y0037951D01*
X0064020Y0038028D01*
X0064056Y0038103D01*
X0064096Y0038177D01*
X0064139Y0038249D01*
X0064186Y0038318D01*
X0064236Y0038385D01*
X0064289Y0038450D01*
X0064345Y0038512D01*
X0064403Y0038572D01*
X0064465Y0038629D01*
X0064529Y0038682D01*
X0064596Y0038733D01*
X0064665Y0038780D01*
X0064736Y0038825D01*
X0064809Y0038865D01*
X0064884Y0038902D01*
X0064961Y0038936D01*
X0065039Y0038966D01*
X0065118Y0038992D01*
X0065199Y0039015D01*
X0065281Y0039033D01*
X0065363Y0039048D01*
X0065446Y0039059D01*
X0065529Y0039066D01*
X0065613Y0039069D01*
X0065697Y0039068D01*
X0065780Y0039063D01*
X0065864Y0039054D01*
X0065946Y0039041D01*
X0066028Y0039025D01*
X0066109Y0039004D01*
X0066190Y0038980D01*
X0066268Y0038952D01*
X0066346Y0038920D01*
X0066422Y0038884D01*
X0066496Y0038845D01*
X0066568Y0038803D01*
X0066638Y0038757D01*
X0066706Y0038708D01*
X0066771Y0038656D01*
X0066834Y0038601D01*
X0066894Y0038543D01*
X0066952Y0038482D01*
X0067006Y0038418D01*
X0067058Y0038352D01*
X0067106Y0038284D01*
X0067151Y0038213D01*
X0067192Y0038140D01*
X0067231Y0038066D01*
X0067265Y0037990D01*
X0067296Y0037912D01*
X0067323Y0037833D01*
X0067347Y0037752D01*
X0067366Y0037671D01*
X0067382Y0037589D01*
X0067394Y0037506D01*
X0067402Y0037422D01*
X0067406Y0037339D01*
X0067406Y0037255D01*
X0067402Y0037172D01*
X0067394Y0037088D01*
X0067382Y0037005D01*
X0067366Y0036923D01*
X0067347Y0036842D01*
X0067323Y0036761D01*
X0067296Y0036682D01*
X0067265Y0036604D01*
X0067231Y0036528D01*
X0067192Y0036454D01*
X0067151Y0036381D01*
X0067106Y0036310D01*
X0067058Y0036242D01*
X0067006Y0036176D01*
X0066952Y0036112D01*
X0066894Y0036051D01*
X0066834Y0035993D01*
X0066771Y0035938D01*
X0066706Y0035886D01*
X0066638Y0035837D01*
X0066568Y0035791D01*
X0066496Y0035749D01*
X0066422Y0035710D01*
X0066346Y0035674D01*
X0066268Y0035642D01*
X0066190Y0035614D01*
X0066109Y0035590D01*
X0066028Y0035569D01*
X0065946Y0035553D01*
X0065864Y0035540D01*
X0065780Y0035531D01*
X0065697Y0035526D01*
X0065613Y0035525D01*
X0065529Y0035528D01*
X0065446Y0035535D01*
X0065363Y0035546D01*
X0065281Y0035561D01*
X0065199Y0035579D01*
X0065118Y0035602D01*
X0065039Y0035628D01*
X0064961Y0035658D01*
X0064884Y0035692D01*
X0064809Y0035729D01*
X0064736Y0035769D01*
X0064665Y0035814D01*
X0064596Y0035861D01*
X0064529Y0035912D01*
X0064465Y0035965D01*
X0064403Y0036022D01*
X0064345Y0036082D01*
X0064289Y0036144D01*
X0064236Y0036209D01*
X0064186Y0036276D01*
X0064139Y0036345D01*
X0064096Y0036417D01*
X0064056Y0036491D01*
X0064020Y0036566D01*
X0063987Y0036643D01*
X0063958Y0036722D01*
X0063933Y0036801D01*
X0063911Y0036882D01*
X0063894Y0036964D01*
X0063880Y0037047D01*
X0063870Y0037130D01*
X0063864Y0037213D01*
X0063862Y0037297D01*
X0011744Y0167400D02*
X0011746Y0167553D01*
X0011752Y0167706D01*
X0011762Y0167859D01*
X0011776Y0168012D01*
X0011794Y0168164D01*
X0011815Y0168315D01*
X0011841Y0168466D01*
X0011871Y0168617D01*
X0011904Y0168766D01*
X0011942Y0168915D01*
X0011983Y0169062D01*
X0012028Y0169209D01*
X0012077Y0169354D01*
X0012129Y0169498D01*
X0012186Y0169640D01*
X0012246Y0169781D01*
X0012309Y0169920D01*
X0012377Y0170058D01*
X0012447Y0170194D01*
X0012522Y0170328D01*
X0012599Y0170460D01*
X0012681Y0170590D01*
X0012765Y0170718D01*
X0012853Y0170843D01*
X0012944Y0170966D01*
X0013038Y0171087D01*
X0013135Y0171205D01*
X0013236Y0171321D01*
X0013339Y0171434D01*
X0013445Y0171545D01*
X0013554Y0171652D01*
X0013666Y0171757D01*
X0013780Y0171859D01*
X0013897Y0171958D01*
X0014017Y0172053D01*
X0014139Y0172146D01*
X0014263Y0172235D01*
X0014390Y0172322D01*
X0014519Y0172404D01*
X0014650Y0172484D01*
X0014783Y0172560D01*
X0014918Y0172632D01*
X0015055Y0172701D01*
X0015193Y0172767D01*
X0015333Y0172829D01*
X0015475Y0172887D01*
X0015618Y0172941D01*
X0015763Y0172992D01*
X0015908Y0173039D01*
X0016055Y0173082D01*
X0016203Y0173121D01*
X0016352Y0173157D01*
X0016502Y0173188D01*
X0016653Y0173216D01*
X0016804Y0173240D01*
X0016956Y0173260D01*
X0017109Y0173276D01*
X0017261Y0173288D01*
X0017414Y0173296D01*
X0017567Y0173300D01*
X0017721Y0173300D01*
X0017874Y0173296D01*
X0018027Y0173288D01*
X0018179Y0173276D01*
X0018332Y0173260D01*
X0018484Y0173240D01*
X0018635Y0173216D01*
X0018786Y0173188D01*
X0018936Y0173157D01*
X0019085Y0173121D01*
X0019233Y0173082D01*
X0019380Y0173039D01*
X0019525Y0172992D01*
X0019670Y0172941D01*
X0019813Y0172887D01*
X0019955Y0172829D01*
X0020095Y0172767D01*
X0020233Y0172701D01*
X0020370Y0172632D01*
X0020505Y0172560D01*
X0020638Y0172484D01*
X0020769Y0172404D01*
X0020898Y0172322D01*
X0021025Y0172235D01*
X0021149Y0172146D01*
X0021271Y0172053D01*
X0021391Y0171958D01*
X0021508Y0171859D01*
X0021622Y0171757D01*
X0021734Y0171652D01*
X0021843Y0171545D01*
X0021949Y0171434D01*
X0022052Y0171321D01*
X0022153Y0171205D01*
X0022250Y0171087D01*
X0022344Y0170966D01*
X0022435Y0170843D01*
X0022523Y0170718D01*
X0022607Y0170590D01*
X0022689Y0170460D01*
X0022766Y0170328D01*
X0022841Y0170194D01*
X0022911Y0170058D01*
X0022979Y0169920D01*
X0023042Y0169781D01*
X0023102Y0169640D01*
X0023159Y0169498D01*
X0023211Y0169354D01*
X0023260Y0169209D01*
X0023305Y0169062D01*
X0023346Y0168915D01*
X0023384Y0168766D01*
X0023417Y0168617D01*
X0023447Y0168466D01*
X0023473Y0168315D01*
X0023494Y0168164D01*
X0023512Y0168012D01*
X0023526Y0167859D01*
X0023536Y0167706D01*
X0023542Y0167553D01*
X0023544Y0167400D01*
X0023542Y0167247D01*
X0023536Y0167094D01*
X0023526Y0166941D01*
X0023512Y0166788D01*
X0023494Y0166636D01*
X0023473Y0166485D01*
X0023447Y0166334D01*
X0023417Y0166183D01*
X0023384Y0166034D01*
X0023346Y0165885D01*
X0023305Y0165738D01*
X0023260Y0165591D01*
X0023211Y0165446D01*
X0023159Y0165302D01*
X0023102Y0165160D01*
X0023042Y0165019D01*
X0022979Y0164880D01*
X0022911Y0164742D01*
X0022841Y0164606D01*
X0022766Y0164472D01*
X0022689Y0164340D01*
X0022607Y0164210D01*
X0022523Y0164082D01*
X0022435Y0163957D01*
X0022344Y0163834D01*
X0022250Y0163713D01*
X0022153Y0163595D01*
X0022052Y0163479D01*
X0021949Y0163366D01*
X0021843Y0163255D01*
X0021734Y0163148D01*
X0021622Y0163043D01*
X0021508Y0162941D01*
X0021391Y0162842D01*
X0021271Y0162747D01*
X0021149Y0162654D01*
X0021025Y0162565D01*
X0020898Y0162478D01*
X0020769Y0162396D01*
X0020638Y0162316D01*
X0020505Y0162240D01*
X0020370Y0162168D01*
X0020233Y0162099D01*
X0020095Y0162033D01*
X0019955Y0161971D01*
X0019813Y0161913D01*
X0019670Y0161859D01*
X0019525Y0161808D01*
X0019380Y0161761D01*
X0019233Y0161718D01*
X0019085Y0161679D01*
X0018936Y0161643D01*
X0018786Y0161612D01*
X0018635Y0161584D01*
X0018484Y0161560D01*
X0018332Y0161540D01*
X0018179Y0161524D01*
X0018027Y0161512D01*
X0017874Y0161504D01*
X0017721Y0161500D01*
X0017567Y0161500D01*
X0017414Y0161504D01*
X0017261Y0161512D01*
X0017109Y0161524D01*
X0016956Y0161540D01*
X0016804Y0161560D01*
X0016653Y0161584D01*
X0016502Y0161612D01*
X0016352Y0161643D01*
X0016203Y0161679D01*
X0016055Y0161718D01*
X0015908Y0161761D01*
X0015763Y0161808D01*
X0015618Y0161859D01*
X0015475Y0161913D01*
X0015333Y0161971D01*
X0015193Y0162033D01*
X0015055Y0162099D01*
X0014918Y0162168D01*
X0014783Y0162240D01*
X0014650Y0162316D01*
X0014519Y0162396D01*
X0014390Y0162478D01*
X0014263Y0162565D01*
X0014139Y0162654D01*
X0014017Y0162747D01*
X0013897Y0162842D01*
X0013780Y0162941D01*
X0013666Y0163043D01*
X0013554Y0163148D01*
X0013445Y0163255D01*
X0013339Y0163366D01*
X0013236Y0163479D01*
X0013135Y0163595D01*
X0013038Y0163713D01*
X0012944Y0163834D01*
X0012853Y0163957D01*
X0012765Y0164082D01*
X0012681Y0164210D01*
X0012599Y0164340D01*
X0012522Y0164472D01*
X0012447Y0164606D01*
X0012377Y0164742D01*
X0012309Y0164880D01*
X0012246Y0165019D01*
X0012186Y0165160D01*
X0012129Y0165302D01*
X0012077Y0165446D01*
X0012028Y0165591D01*
X0011983Y0165738D01*
X0011942Y0165885D01*
X0011904Y0166034D01*
X0011871Y0166183D01*
X0011841Y0166334D01*
X0011815Y0166485D01*
X0011794Y0166636D01*
X0011776Y0166788D01*
X0011762Y0166941D01*
X0011752Y0167094D01*
X0011746Y0167247D01*
X0011744Y0167400D01*
X0241744Y0168400D02*
X0241746Y0168553D01*
X0241752Y0168706D01*
X0241762Y0168859D01*
X0241776Y0169012D01*
X0241794Y0169164D01*
X0241815Y0169315D01*
X0241841Y0169466D01*
X0241871Y0169617D01*
X0241904Y0169766D01*
X0241942Y0169915D01*
X0241983Y0170062D01*
X0242028Y0170209D01*
X0242077Y0170354D01*
X0242129Y0170498D01*
X0242186Y0170640D01*
X0242246Y0170781D01*
X0242309Y0170920D01*
X0242377Y0171058D01*
X0242447Y0171194D01*
X0242522Y0171328D01*
X0242599Y0171460D01*
X0242681Y0171590D01*
X0242765Y0171718D01*
X0242853Y0171843D01*
X0242944Y0171966D01*
X0243038Y0172087D01*
X0243135Y0172205D01*
X0243236Y0172321D01*
X0243339Y0172434D01*
X0243445Y0172545D01*
X0243554Y0172652D01*
X0243666Y0172757D01*
X0243780Y0172859D01*
X0243897Y0172958D01*
X0244017Y0173053D01*
X0244139Y0173146D01*
X0244263Y0173235D01*
X0244390Y0173322D01*
X0244519Y0173404D01*
X0244650Y0173484D01*
X0244783Y0173560D01*
X0244918Y0173632D01*
X0245055Y0173701D01*
X0245193Y0173767D01*
X0245333Y0173829D01*
X0245475Y0173887D01*
X0245618Y0173941D01*
X0245763Y0173992D01*
X0245908Y0174039D01*
X0246055Y0174082D01*
X0246203Y0174121D01*
X0246352Y0174157D01*
X0246502Y0174188D01*
X0246653Y0174216D01*
X0246804Y0174240D01*
X0246956Y0174260D01*
X0247109Y0174276D01*
X0247261Y0174288D01*
X0247414Y0174296D01*
X0247567Y0174300D01*
X0247721Y0174300D01*
X0247874Y0174296D01*
X0248027Y0174288D01*
X0248179Y0174276D01*
X0248332Y0174260D01*
X0248484Y0174240D01*
X0248635Y0174216D01*
X0248786Y0174188D01*
X0248936Y0174157D01*
X0249085Y0174121D01*
X0249233Y0174082D01*
X0249380Y0174039D01*
X0249525Y0173992D01*
X0249670Y0173941D01*
X0249813Y0173887D01*
X0249955Y0173829D01*
X0250095Y0173767D01*
X0250233Y0173701D01*
X0250370Y0173632D01*
X0250505Y0173560D01*
X0250638Y0173484D01*
X0250769Y0173404D01*
X0250898Y0173322D01*
X0251025Y0173235D01*
X0251149Y0173146D01*
X0251271Y0173053D01*
X0251391Y0172958D01*
X0251508Y0172859D01*
X0251622Y0172757D01*
X0251734Y0172652D01*
X0251843Y0172545D01*
X0251949Y0172434D01*
X0252052Y0172321D01*
X0252153Y0172205D01*
X0252250Y0172087D01*
X0252344Y0171966D01*
X0252435Y0171843D01*
X0252523Y0171718D01*
X0252607Y0171590D01*
X0252689Y0171460D01*
X0252766Y0171328D01*
X0252841Y0171194D01*
X0252911Y0171058D01*
X0252979Y0170920D01*
X0253042Y0170781D01*
X0253102Y0170640D01*
X0253159Y0170498D01*
X0253211Y0170354D01*
X0253260Y0170209D01*
X0253305Y0170062D01*
X0253346Y0169915D01*
X0253384Y0169766D01*
X0253417Y0169617D01*
X0253447Y0169466D01*
X0253473Y0169315D01*
X0253494Y0169164D01*
X0253512Y0169012D01*
X0253526Y0168859D01*
X0253536Y0168706D01*
X0253542Y0168553D01*
X0253544Y0168400D01*
X0253542Y0168247D01*
X0253536Y0168094D01*
X0253526Y0167941D01*
X0253512Y0167788D01*
X0253494Y0167636D01*
X0253473Y0167485D01*
X0253447Y0167334D01*
X0253417Y0167183D01*
X0253384Y0167034D01*
X0253346Y0166885D01*
X0253305Y0166738D01*
X0253260Y0166591D01*
X0253211Y0166446D01*
X0253159Y0166302D01*
X0253102Y0166160D01*
X0253042Y0166019D01*
X0252979Y0165880D01*
X0252911Y0165742D01*
X0252841Y0165606D01*
X0252766Y0165472D01*
X0252689Y0165340D01*
X0252607Y0165210D01*
X0252523Y0165082D01*
X0252435Y0164957D01*
X0252344Y0164834D01*
X0252250Y0164713D01*
X0252153Y0164595D01*
X0252052Y0164479D01*
X0251949Y0164366D01*
X0251843Y0164255D01*
X0251734Y0164148D01*
X0251622Y0164043D01*
X0251508Y0163941D01*
X0251391Y0163842D01*
X0251271Y0163747D01*
X0251149Y0163654D01*
X0251025Y0163565D01*
X0250898Y0163478D01*
X0250769Y0163396D01*
X0250638Y0163316D01*
X0250505Y0163240D01*
X0250370Y0163168D01*
X0250233Y0163099D01*
X0250095Y0163033D01*
X0249955Y0162971D01*
X0249813Y0162913D01*
X0249670Y0162859D01*
X0249525Y0162808D01*
X0249380Y0162761D01*
X0249233Y0162718D01*
X0249085Y0162679D01*
X0248936Y0162643D01*
X0248786Y0162612D01*
X0248635Y0162584D01*
X0248484Y0162560D01*
X0248332Y0162540D01*
X0248179Y0162524D01*
X0248027Y0162512D01*
X0247874Y0162504D01*
X0247721Y0162500D01*
X0247567Y0162500D01*
X0247414Y0162504D01*
X0247261Y0162512D01*
X0247109Y0162524D01*
X0246956Y0162540D01*
X0246804Y0162560D01*
X0246653Y0162584D01*
X0246502Y0162612D01*
X0246352Y0162643D01*
X0246203Y0162679D01*
X0246055Y0162718D01*
X0245908Y0162761D01*
X0245763Y0162808D01*
X0245618Y0162859D01*
X0245475Y0162913D01*
X0245333Y0162971D01*
X0245193Y0163033D01*
X0245055Y0163099D01*
X0244918Y0163168D01*
X0244783Y0163240D01*
X0244650Y0163316D01*
X0244519Y0163396D01*
X0244390Y0163478D01*
X0244263Y0163565D01*
X0244139Y0163654D01*
X0244017Y0163747D01*
X0243897Y0163842D01*
X0243780Y0163941D01*
X0243666Y0164043D01*
X0243554Y0164148D01*
X0243445Y0164255D01*
X0243339Y0164366D01*
X0243236Y0164479D01*
X0243135Y0164595D01*
X0243038Y0164713D01*
X0242944Y0164834D01*
X0242853Y0164957D01*
X0242765Y0165082D01*
X0242681Y0165210D01*
X0242599Y0165340D01*
X0242522Y0165472D01*
X0242447Y0165606D01*
X0242377Y0165742D01*
X0242309Y0165880D01*
X0242246Y0166019D01*
X0242186Y0166160D01*
X0242129Y0166302D01*
X0242077Y0166446D01*
X0242028Y0166591D01*
X0241983Y0166738D01*
X0241942Y0166885D01*
X0241904Y0167034D01*
X0241871Y0167183D01*
X0241841Y0167334D01*
X0241815Y0167485D01*
X0241794Y0167636D01*
X0241776Y0167788D01*
X0241762Y0167941D01*
X0241752Y0168094D01*
X0241746Y0168247D01*
X0241744Y0168400D01*
X0241744Y0024400D02*
X0241746Y0024553D01*
X0241752Y0024706D01*
X0241762Y0024859D01*
X0241776Y0025012D01*
X0241794Y0025164D01*
X0241815Y0025315D01*
X0241841Y0025466D01*
X0241871Y0025617D01*
X0241904Y0025766D01*
X0241942Y0025915D01*
X0241983Y0026062D01*
X0242028Y0026209D01*
X0242077Y0026354D01*
X0242129Y0026498D01*
X0242186Y0026640D01*
X0242246Y0026781D01*
X0242309Y0026920D01*
X0242377Y0027058D01*
X0242447Y0027194D01*
X0242522Y0027328D01*
X0242599Y0027460D01*
X0242681Y0027590D01*
X0242765Y0027718D01*
X0242853Y0027843D01*
X0242944Y0027966D01*
X0243038Y0028087D01*
X0243135Y0028205D01*
X0243236Y0028321D01*
X0243339Y0028434D01*
X0243445Y0028545D01*
X0243554Y0028652D01*
X0243666Y0028757D01*
X0243780Y0028859D01*
X0243897Y0028958D01*
X0244017Y0029053D01*
X0244139Y0029146D01*
X0244263Y0029235D01*
X0244390Y0029322D01*
X0244519Y0029404D01*
X0244650Y0029484D01*
X0244783Y0029560D01*
X0244918Y0029632D01*
X0245055Y0029701D01*
X0245193Y0029767D01*
X0245333Y0029829D01*
X0245475Y0029887D01*
X0245618Y0029941D01*
X0245763Y0029992D01*
X0245908Y0030039D01*
X0246055Y0030082D01*
X0246203Y0030121D01*
X0246352Y0030157D01*
X0246502Y0030188D01*
X0246653Y0030216D01*
X0246804Y0030240D01*
X0246956Y0030260D01*
X0247109Y0030276D01*
X0247261Y0030288D01*
X0247414Y0030296D01*
X0247567Y0030300D01*
X0247721Y0030300D01*
X0247874Y0030296D01*
X0248027Y0030288D01*
X0248179Y0030276D01*
X0248332Y0030260D01*
X0248484Y0030240D01*
X0248635Y0030216D01*
X0248786Y0030188D01*
X0248936Y0030157D01*
X0249085Y0030121D01*
X0249233Y0030082D01*
X0249380Y0030039D01*
X0249525Y0029992D01*
X0249670Y0029941D01*
X0249813Y0029887D01*
X0249955Y0029829D01*
X0250095Y0029767D01*
X0250233Y0029701D01*
X0250370Y0029632D01*
X0250505Y0029560D01*
X0250638Y0029484D01*
X0250769Y0029404D01*
X0250898Y0029322D01*
X0251025Y0029235D01*
X0251149Y0029146D01*
X0251271Y0029053D01*
X0251391Y0028958D01*
X0251508Y0028859D01*
X0251622Y0028757D01*
X0251734Y0028652D01*
X0251843Y0028545D01*
X0251949Y0028434D01*
X0252052Y0028321D01*
X0252153Y0028205D01*
X0252250Y0028087D01*
X0252344Y0027966D01*
X0252435Y0027843D01*
X0252523Y0027718D01*
X0252607Y0027590D01*
X0252689Y0027460D01*
X0252766Y0027328D01*
X0252841Y0027194D01*
X0252911Y0027058D01*
X0252979Y0026920D01*
X0253042Y0026781D01*
X0253102Y0026640D01*
X0253159Y0026498D01*
X0253211Y0026354D01*
X0253260Y0026209D01*
X0253305Y0026062D01*
X0253346Y0025915D01*
X0253384Y0025766D01*
X0253417Y0025617D01*
X0253447Y0025466D01*
X0253473Y0025315D01*
X0253494Y0025164D01*
X0253512Y0025012D01*
X0253526Y0024859D01*
X0253536Y0024706D01*
X0253542Y0024553D01*
X0253544Y0024400D01*
X0253542Y0024247D01*
X0253536Y0024094D01*
X0253526Y0023941D01*
X0253512Y0023788D01*
X0253494Y0023636D01*
X0253473Y0023485D01*
X0253447Y0023334D01*
X0253417Y0023183D01*
X0253384Y0023034D01*
X0253346Y0022885D01*
X0253305Y0022738D01*
X0253260Y0022591D01*
X0253211Y0022446D01*
X0253159Y0022302D01*
X0253102Y0022160D01*
X0253042Y0022019D01*
X0252979Y0021880D01*
X0252911Y0021742D01*
X0252841Y0021606D01*
X0252766Y0021472D01*
X0252689Y0021340D01*
X0252607Y0021210D01*
X0252523Y0021082D01*
X0252435Y0020957D01*
X0252344Y0020834D01*
X0252250Y0020713D01*
X0252153Y0020595D01*
X0252052Y0020479D01*
X0251949Y0020366D01*
X0251843Y0020255D01*
X0251734Y0020148D01*
X0251622Y0020043D01*
X0251508Y0019941D01*
X0251391Y0019842D01*
X0251271Y0019747D01*
X0251149Y0019654D01*
X0251025Y0019565D01*
X0250898Y0019478D01*
X0250769Y0019396D01*
X0250638Y0019316D01*
X0250505Y0019240D01*
X0250370Y0019168D01*
X0250233Y0019099D01*
X0250095Y0019033D01*
X0249955Y0018971D01*
X0249813Y0018913D01*
X0249670Y0018859D01*
X0249525Y0018808D01*
X0249380Y0018761D01*
X0249233Y0018718D01*
X0249085Y0018679D01*
X0248936Y0018643D01*
X0248786Y0018612D01*
X0248635Y0018584D01*
X0248484Y0018560D01*
X0248332Y0018540D01*
X0248179Y0018524D01*
X0248027Y0018512D01*
X0247874Y0018504D01*
X0247721Y0018500D01*
X0247567Y0018500D01*
X0247414Y0018504D01*
X0247261Y0018512D01*
X0247109Y0018524D01*
X0246956Y0018540D01*
X0246804Y0018560D01*
X0246653Y0018584D01*
X0246502Y0018612D01*
X0246352Y0018643D01*
X0246203Y0018679D01*
X0246055Y0018718D01*
X0245908Y0018761D01*
X0245763Y0018808D01*
X0245618Y0018859D01*
X0245475Y0018913D01*
X0245333Y0018971D01*
X0245193Y0019033D01*
X0245055Y0019099D01*
X0244918Y0019168D01*
X0244783Y0019240D01*
X0244650Y0019316D01*
X0244519Y0019396D01*
X0244390Y0019478D01*
X0244263Y0019565D01*
X0244139Y0019654D01*
X0244017Y0019747D01*
X0243897Y0019842D01*
X0243780Y0019941D01*
X0243666Y0020043D01*
X0243554Y0020148D01*
X0243445Y0020255D01*
X0243339Y0020366D01*
X0243236Y0020479D01*
X0243135Y0020595D01*
X0243038Y0020713D01*
X0242944Y0020834D01*
X0242853Y0020957D01*
X0242765Y0021082D01*
X0242681Y0021210D01*
X0242599Y0021340D01*
X0242522Y0021472D01*
X0242447Y0021606D01*
X0242377Y0021742D01*
X0242309Y0021880D01*
X0242246Y0022019D01*
X0242186Y0022160D01*
X0242129Y0022302D01*
X0242077Y0022446D01*
X0242028Y0022591D01*
X0241983Y0022738D01*
X0241942Y0022885D01*
X0241904Y0023034D01*
X0241871Y0023183D01*
X0241841Y0023334D01*
X0241815Y0023485D01*
X0241794Y0023636D01*
X0241776Y0023788D01*
X0241762Y0023941D01*
X0241752Y0024094D01*
X0241746Y0024247D01*
X0241744Y0024400D01*
M02*
