G75*
%MOIN*%
%OFA0B0*%
%FSLAX25Y25*%
%IPPOS*%
%LPD*%
%AMOC8*
5,1,8,0,0,1.08239X$1,22.5*
%
%ADD10C,0.00600*%
%ADD11C,0.00800*%
%ADD12C,0.00500*%
%ADD13C,0.00200*%
%ADD14C,0.00236*%
%ADD15C,0.03000*%
%ADD16C,0.00700*%
%ADD17C,0.00400*%
D10*
X0068700Y0045837D02*
X0069267Y0045270D01*
X0070401Y0045270D01*
X0070969Y0045837D01*
X0070969Y0046404D01*
X0070401Y0046972D01*
X0069267Y0046972D01*
X0068700Y0047539D01*
X0068700Y0048106D01*
X0069267Y0048673D01*
X0070401Y0048673D01*
X0070969Y0048106D01*
X0072383Y0048673D02*
X0072383Y0045270D01*
X0073517Y0046404D01*
X0074652Y0045270D01*
X0074652Y0048673D01*
X0076066Y0048673D02*
X0077768Y0048673D01*
X0078335Y0048106D01*
X0078335Y0045837D01*
X0077768Y0045270D01*
X0076066Y0045270D01*
X0076066Y0048673D01*
X0075666Y0053170D02*
X0077935Y0053170D01*
X0075666Y0053170D02*
X0075666Y0056573D01*
X0074252Y0056006D02*
X0073685Y0056573D01*
X0072550Y0056573D01*
X0071983Y0056006D01*
X0071983Y0053737D01*
X0072550Y0053170D01*
X0073685Y0053170D01*
X0074252Y0053737D01*
X0070569Y0053737D02*
X0070569Y0054304D01*
X0070001Y0054872D01*
X0068867Y0054872D01*
X0068300Y0055439D01*
X0068300Y0056006D01*
X0068867Y0056573D01*
X0070001Y0056573D01*
X0070569Y0056006D01*
X0069397Y0058970D02*
X0072800Y0061239D01*
X0072800Y0062653D02*
X0069397Y0062653D01*
X0069397Y0064355D01*
X0069964Y0064922D01*
X0071099Y0064922D01*
X0071666Y0064355D01*
X0071666Y0062653D01*
X0071666Y0063788D02*
X0072800Y0064922D01*
X0072800Y0066336D02*
X0069397Y0066336D01*
X0069397Y0068605D01*
X0069964Y0070020D02*
X0070531Y0070020D01*
X0071099Y0070587D01*
X0071099Y0071721D01*
X0071666Y0072288D01*
X0072233Y0072288D01*
X0072800Y0071721D01*
X0072800Y0070587D01*
X0072233Y0070020D01*
X0072800Y0068605D02*
X0072800Y0066336D01*
X0071099Y0066336D02*
X0071099Y0067471D01*
X0074738Y0066389D02*
X0074738Y0068751D01*
X0069964Y0070020D02*
X0069397Y0070587D01*
X0069397Y0071721D01*
X0069964Y0072288D01*
X0070501Y0074370D02*
X0071069Y0074937D01*
X0071069Y0076072D01*
X0069934Y0076072D01*
X0068800Y0077206D02*
X0068800Y0074937D01*
X0069367Y0074370D01*
X0070501Y0074370D01*
X0072483Y0074370D02*
X0072483Y0077773D01*
X0074752Y0074370D01*
X0074752Y0077773D01*
X0076166Y0077773D02*
X0077868Y0077773D01*
X0078435Y0077206D01*
X0078435Y0074937D01*
X0077868Y0074370D01*
X0076166Y0074370D01*
X0076166Y0077773D01*
X0071069Y0077206D02*
X0070501Y0077773D01*
X0069367Y0077773D01*
X0068800Y0077206D01*
X0068897Y0084070D02*
X0071166Y0084070D01*
X0072300Y0085204D01*
X0071166Y0086339D01*
X0068897Y0086339D01*
X0068897Y0087753D02*
X0070599Y0087753D01*
X0070031Y0088888D01*
X0070031Y0089455D01*
X0070599Y0090022D01*
X0071733Y0090022D01*
X0072300Y0089455D01*
X0072300Y0088320D01*
X0071733Y0087753D01*
X0068897Y0087753D02*
X0068897Y0090022D01*
X0042062Y0080651D02*
X0042062Y0078289D01*
X0037338Y0078289D02*
X0037338Y0080651D01*
X0030281Y0082732D02*
X0027919Y0082732D01*
X0027919Y0078008D02*
X0030281Y0078008D01*
X0016981Y0078008D02*
X0014619Y0078008D01*
X0014619Y0074832D02*
X0016981Y0074832D01*
X0016981Y0070108D02*
X0014619Y0070108D01*
X0014619Y0082732D02*
X0016981Y0082732D01*
X0068300Y0053737D02*
X0068867Y0053170D01*
X0070001Y0053170D01*
X0070569Y0053737D01*
X0072800Y0058970D02*
X0069397Y0061239D01*
X0079462Y0066389D02*
X0079462Y0068751D01*
X0107334Y0030073D02*
X0107334Y0027237D01*
X0107901Y0026670D01*
X0109035Y0026670D01*
X0109602Y0027237D01*
X0109602Y0030073D01*
X0111017Y0028939D02*
X0112151Y0030073D01*
X0112151Y0026670D01*
X0111017Y0026670D02*
X0113285Y0026670D01*
X0144900Y0042970D02*
X0144900Y0046373D01*
X0146601Y0046373D01*
X0147169Y0045806D01*
X0147169Y0045239D01*
X0146601Y0044672D01*
X0144900Y0044672D01*
X0146601Y0044672D02*
X0147169Y0044104D01*
X0147169Y0043537D01*
X0146601Y0042970D01*
X0144900Y0042970D01*
X0148583Y0043537D02*
X0149150Y0042970D01*
X0150285Y0042970D01*
X0150852Y0043537D01*
X0150852Y0046373D01*
X0152266Y0046373D02*
X0154535Y0046373D01*
X0154535Y0045806D01*
X0152266Y0043537D01*
X0152266Y0042970D01*
X0154535Y0042970D01*
X0155949Y0042970D02*
X0158218Y0042970D01*
X0159633Y0042970D02*
X0161901Y0042970D01*
X0163316Y0042970D02*
X0163316Y0046373D01*
X0165017Y0046373D01*
X0165584Y0045806D01*
X0165584Y0044672D01*
X0165017Y0044104D01*
X0163316Y0044104D01*
X0164450Y0044104D02*
X0165584Y0042970D01*
X0170682Y0043537D02*
X0170682Y0045806D01*
X0171249Y0046373D01*
X0172383Y0046373D01*
X0172951Y0045806D01*
X0170682Y0043537D01*
X0171249Y0042970D01*
X0172383Y0042970D01*
X0172951Y0043537D01*
X0172951Y0045806D01*
X0161901Y0046373D02*
X0159633Y0046373D01*
X0159633Y0042970D01*
X0159633Y0044672D02*
X0160767Y0044672D01*
X0158218Y0045806D02*
X0158218Y0046373D01*
X0155949Y0046373D01*
X0158218Y0045806D02*
X0155949Y0043537D01*
X0155949Y0042970D01*
X0148583Y0043537D02*
X0148583Y0046373D01*
X0176238Y0027851D02*
X0176238Y0025489D01*
X0180962Y0025489D02*
X0180962Y0027851D01*
X0188900Y0039070D02*
X0190034Y0039070D01*
X0189467Y0039070D02*
X0189467Y0041339D01*
X0188900Y0041339D01*
X0189467Y0042473D02*
X0189467Y0043040D01*
X0191355Y0040772D02*
X0191355Y0039637D01*
X0191923Y0039070D01*
X0193057Y0039070D01*
X0193624Y0039637D01*
X0193624Y0040772D01*
X0193057Y0041339D01*
X0191923Y0041339D01*
X0191355Y0040772D01*
X0195039Y0041339D02*
X0196173Y0041339D01*
X0195606Y0041906D02*
X0195606Y0039637D01*
X0196173Y0039070D01*
X0197494Y0039637D02*
X0197494Y0040772D01*
X0198061Y0041339D01*
X0199195Y0041339D01*
X0199763Y0040772D01*
X0199763Y0040204D01*
X0197494Y0040204D01*
X0197494Y0039637D02*
X0198061Y0039070D01*
X0199195Y0039070D01*
X0201177Y0039070D02*
X0203446Y0041339D01*
X0204860Y0041339D02*
X0206562Y0041339D01*
X0207129Y0040772D01*
X0207129Y0039637D01*
X0206562Y0039070D01*
X0204860Y0039070D01*
X0204860Y0037936D02*
X0204860Y0041339D01*
X0203446Y0039070D02*
X0201177Y0041339D01*
X0208543Y0040772D02*
X0208543Y0039637D01*
X0209111Y0039070D01*
X0210245Y0039070D01*
X0210812Y0040204D02*
X0208543Y0040204D01*
X0208543Y0040772D02*
X0209111Y0041339D01*
X0210245Y0041339D01*
X0210812Y0040772D01*
X0210812Y0040204D01*
X0212227Y0040204D02*
X0213361Y0041339D01*
X0213928Y0041339D01*
X0215296Y0041339D02*
X0216430Y0041339D01*
X0215863Y0041906D02*
X0215863Y0039637D01*
X0216430Y0039070D01*
X0217751Y0039070D02*
X0218318Y0039070D01*
X0218318Y0039637D01*
X0217751Y0039637D01*
X0217751Y0039070D01*
X0219593Y0039637D02*
X0219593Y0040772D01*
X0220160Y0041339D01*
X0221861Y0041339D01*
X0223276Y0040772D02*
X0223276Y0039637D01*
X0223843Y0039070D01*
X0224977Y0039070D01*
X0225545Y0039637D01*
X0225545Y0040772D01*
X0224977Y0041339D01*
X0223843Y0041339D01*
X0223276Y0040772D01*
X0221861Y0039070D02*
X0220160Y0039070D01*
X0219593Y0039637D01*
X0226959Y0039070D02*
X0226959Y0041339D01*
X0227526Y0041339D01*
X0228093Y0040772D01*
X0228661Y0041339D01*
X0229228Y0040772D01*
X0229228Y0039070D01*
X0228093Y0039070D02*
X0228093Y0040772D01*
X0212227Y0041339D02*
X0212227Y0039070D01*
X0210698Y0052507D02*
X0209230Y0052507D01*
X0208496Y0053241D01*
X0211432Y0056177D01*
X0211432Y0053241D01*
X0210698Y0052507D01*
X0208496Y0053241D02*
X0208496Y0056177D01*
X0209230Y0056911D01*
X0210698Y0056911D01*
X0211432Y0056177D01*
X0206828Y0056177D02*
X0206828Y0055443D01*
X0206094Y0054709D01*
X0203892Y0054709D01*
X0203892Y0052507D02*
X0203892Y0056911D01*
X0206094Y0056911D01*
X0206828Y0056177D01*
X0206094Y0054709D02*
X0206828Y0053975D01*
X0206828Y0053241D01*
X0206094Y0052507D01*
X0203892Y0052507D01*
X0177981Y0072408D02*
X0175619Y0072408D01*
X0175619Y0077132D02*
X0177981Y0077132D01*
X0173251Y0102170D02*
X0170982Y0102170D01*
X0172116Y0102170D02*
X0172116Y0105573D01*
X0170982Y0104439D01*
X0165884Y0105006D02*
X0165884Y0103872D01*
X0165317Y0103304D01*
X0163616Y0103304D01*
X0163616Y0102170D02*
X0163616Y0105573D01*
X0165317Y0105573D01*
X0165884Y0105006D01*
X0164750Y0103304D02*
X0165884Y0102170D01*
X0162201Y0102170D02*
X0159933Y0102170D01*
X0159933Y0105573D01*
X0162201Y0105573D01*
X0161067Y0103872D02*
X0159933Y0103872D01*
X0158518Y0105006D02*
X0156249Y0102737D01*
X0156249Y0102170D01*
X0158518Y0102170D01*
X0154835Y0102170D02*
X0152566Y0102170D01*
X0152566Y0102737D01*
X0154835Y0105006D01*
X0154835Y0105573D01*
X0152566Y0105573D01*
X0151152Y0105573D02*
X0151152Y0102737D01*
X0150585Y0102170D01*
X0149450Y0102170D01*
X0148883Y0102737D01*
X0148883Y0105573D01*
X0147469Y0105006D02*
X0147469Y0104439D01*
X0146901Y0103872D01*
X0145200Y0103872D01*
X0145200Y0105573D02*
X0145200Y0102170D01*
X0146901Y0102170D01*
X0147469Y0102737D01*
X0147469Y0103304D01*
X0146901Y0103872D01*
X0147469Y0105006D02*
X0146901Y0105573D01*
X0145200Y0105573D01*
X0156249Y0105573D02*
X0158518Y0105573D01*
X0158518Y0105006D01*
X0167638Y0128489D02*
X0167638Y0130851D01*
X0172362Y0130851D02*
X0172362Y0128489D01*
X0174238Y0128389D02*
X0174238Y0130751D01*
X0178962Y0130751D02*
X0178962Y0128389D01*
X0196538Y0140889D02*
X0196538Y0143251D01*
X0201262Y0143251D02*
X0201262Y0140889D01*
X0211638Y0140589D02*
X0211638Y0142951D01*
X0216362Y0142951D02*
X0216362Y0140589D01*
X0184400Y0161570D02*
X0181900Y0159070D01*
X0176900Y0159070D01*
X0174400Y0161570D01*
X0174400Y0176570D01*
X0171900Y0179070D01*
X0166900Y0179070D01*
X0164400Y0176570D01*
X0164400Y0161570D01*
X0161900Y0159070D01*
X0156900Y0159070D01*
X0154400Y0161570D01*
X0154400Y0176570D01*
X0151900Y0179070D01*
X0146900Y0179070D01*
X0144400Y0176570D01*
X0144400Y0161570D01*
X0141900Y0159070D01*
X0136900Y0159070D01*
X0134400Y0161570D01*
X0134400Y0176570D01*
X0131900Y0179070D01*
X0126900Y0179070D01*
X0124400Y0176570D01*
X0124400Y0161570D01*
X0121900Y0159070D01*
X0116900Y0159070D01*
X0114400Y0161570D01*
X0114400Y0176570D01*
X0116900Y0179070D01*
X0121900Y0179070D01*
X0124400Y0176570D01*
X0114400Y0176570D02*
X0111900Y0179070D01*
X0106900Y0179070D01*
X0104400Y0176570D01*
X0104400Y0161570D01*
X0106900Y0159070D01*
X0111900Y0159070D01*
X0114400Y0161570D01*
X0124400Y0161570D02*
X0126900Y0159070D01*
X0131900Y0159070D01*
X0134400Y0161570D01*
X0144400Y0161570D02*
X0146900Y0159070D01*
X0151900Y0159070D01*
X0154400Y0161570D01*
X0164400Y0161570D02*
X0166900Y0159070D01*
X0171900Y0159070D01*
X0174400Y0161570D01*
X0184400Y0161570D02*
X0184400Y0176570D01*
X0181900Y0179070D01*
X0176900Y0179070D01*
X0174400Y0176570D01*
X0164400Y0176570D02*
X0161900Y0179070D01*
X0156900Y0179070D01*
X0154400Y0176570D01*
X0144400Y0176570D02*
X0141900Y0179070D01*
X0136900Y0179070D01*
X0134400Y0176570D01*
X0102800Y0176370D02*
X0102800Y0161370D01*
X0100300Y0158870D01*
X0095300Y0158870D01*
X0092800Y0161370D01*
X0092800Y0176370D01*
X0090300Y0178870D01*
X0085300Y0178870D01*
X0082800Y0176370D01*
X0082800Y0161370D01*
X0080300Y0158870D01*
X0075300Y0158870D01*
X0072800Y0161370D01*
X0072800Y0176370D01*
X0070300Y0178870D01*
X0065300Y0178870D01*
X0062800Y0176370D01*
X0062800Y0161370D01*
X0060300Y0158870D01*
X0055300Y0158870D01*
X0052800Y0161370D01*
X0052800Y0176370D01*
X0050300Y0178870D01*
X0045300Y0178870D01*
X0042800Y0176370D01*
X0042800Y0161370D01*
X0040300Y0158870D01*
X0035300Y0158870D01*
X0032800Y0161370D01*
X0032800Y0176370D01*
X0035300Y0178870D01*
X0040300Y0178870D01*
X0042800Y0176370D01*
X0052800Y0176370D02*
X0055300Y0178870D01*
X0060300Y0178870D01*
X0062800Y0176370D01*
X0072800Y0176370D02*
X0075300Y0178870D01*
X0080300Y0178870D01*
X0082800Y0176370D01*
X0092800Y0176370D02*
X0095300Y0178870D01*
X0100300Y0178870D01*
X0102800Y0176370D01*
X0092800Y0161370D02*
X0090300Y0158870D01*
X0085300Y0158870D01*
X0082800Y0161370D01*
X0072800Y0161370D02*
X0070300Y0158870D01*
X0065300Y0158870D01*
X0062800Y0161370D01*
X0052800Y0161370D02*
X0050300Y0158870D01*
X0045300Y0158870D01*
X0042800Y0161370D01*
X0032800Y0161370D02*
X0030300Y0158870D01*
X0025300Y0158870D01*
X0022800Y0161370D01*
X0022800Y0176370D01*
X0025300Y0178870D01*
X0030300Y0178870D01*
X0032800Y0176370D01*
X0038638Y0143651D02*
X0038638Y0141289D01*
X0043362Y0141289D02*
X0043362Y0143651D01*
X0047638Y0143651D02*
X0047638Y0141289D01*
X0052362Y0141289D02*
X0052362Y0143651D01*
X0057638Y0143651D02*
X0057638Y0141289D01*
X0062362Y0141289D02*
X0062362Y0143651D01*
X0068638Y0143651D02*
X0068638Y0141289D01*
X0073362Y0141289D02*
X0073362Y0143651D01*
X0158319Y0142708D02*
X0160681Y0142708D01*
X0160681Y0147432D02*
X0158319Y0147432D01*
X0263200Y0057537D02*
X0265402Y0057537D01*
X0266136Y0056803D01*
X0266136Y0056069D01*
X0265402Y0055335D01*
X0263200Y0055335D01*
X0263200Y0053133D02*
X0263200Y0057537D01*
X0265402Y0055335D02*
X0266136Y0054601D01*
X0266136Y0053867D01*
X0265402Y0053133D01*
X0263200Y0053133D01*
X0267804Y0053133D02*
X0270740Y0053133D01*
X0269272Y0053133D02*
X0269272Y0057537D01*
X0267804Y0056069D01*
X0266717Y0044806D02*
X0266717Y0042537D01*
X0267284Y0041970D01*
X0268605Y0042537D02*
X0269172Y0041970D01*
X0270306Y0041970D01*
X0270873Y0042537D01*
X0270873Y0043672D01*
X0270306Y0044239D01*
X0269172Y0044239D01*
X0268605Y0043672D01*
X0268605Y0042537D01*
X0267284Y0044239D02*
X0266149Y0044239D01*
X0264735Y0044239D02*
X0264735Y0042537D01*
X0264168Y0041970D01*
X0263601Y0042537D01*
X0263033Y0041970D01*
X0262466Y0042537D01*
X0262466Y0044239D01*
X0261052Y0043672D02*
X0261052Y0043104D01*
X0258783Y0043104D01*
X0258783Y0042537D02*
X0258783Y0043672D01*
X0259350Y0044239D01*
X0260485Y0044239D01*
X0261052Y0043672D01*
X0260485Y0041970D02*
X0259350Y0041970D01*
X0258783Y0042537D01*
X0257369Y0041970D02*
X0257369Y0045373D01*
X0255100Y0045373D02*
X0257369Y0041970D01*
X0255100Y0041970D02*
X0255100Y0045373D01*
X0262466Y0038239D02*
X0263601Y0039373D01*
X0264735Y0038239D01*
X0264735Y0035970D01*
X0264735Y0037672D02*
X0262466Y0037672D01*
X0262466Y0038239D02*
X0262466Y0035970D01*
X0266717Y0036537D02*
X0267284Y0035970D01*
X0266717Y0036537D02*
X0266717Y0038806D01*
X0267284Y0038239D02*
X0266149Y0038239D01*
X0268605Y0038239D02*
X0269739Y0038239D01*
X0269172Y0038806D02*
X0269172Y0036537D01*
X0269739Y0035970D01*
X0271060Y0035970D02*
X0272195Y0035970D01*
X0271627Y0035970D02*
X0271627Y0038239D01*
X0271060Y0038239D01*
X0271627Y0039373D02*
X0271627Y0039940D01*
X0272288Y0041970D02*
X0272288Y0044239D01*
X0273989Y0044239D01*
X0274557Y0043672D01*
X0274557Y0041970D01*
X0275971Y0044239D02*
X0276538Y0044806D01*
X0276538Y0045940D01*
X0278380Y0044239D02*
X0280081Y0044239D01*
X0279514Y0043104D02*
X0280081Y0042537D01*
X0279514Y0041970D01*
X0277813Y0041970D01*
X0278380Y0043104D02*
X0277813Y0043672D01*
X0278380Y0044239D01*
X0278380Y0043104D02*
X0279514Y0043104D01*
X0275784Y0038239D02*
X0274083Y0038239D01*
X0273516Y0037672D01*
X0273516Y0036537D01*
X0274083Y0035970D01*
X0275784Y0035970D01*
D11*
X0257984Y0094172D02*
X0258684Y0094873D01*
X0258684Y0095574D01*
X0257984Y0096274D01*
X0255882Y0096274D01*
X0255882Y0094873D01*
X0256582Y0094172D01*
X0257984Y0094172D01*
X0255882Y0096274D02*
X0257283Y0097675D01*
X0258684Y0098376D01*
X0254080Y0097675D02*
X0254080Y0094873D01*
X0253380Y0094172D01*
X0251978Y0094172D01*
X0251278Y0094873D01*
X0254080Y0097675D01*
X0253380Y0098376D01*
X0251978Y0098376D01*
X0251278Y0097675D01*
X0251278Y0094873D01*
X0249476Y0094873D02*
X0248776Y0094172D01*
X0247375Y0094172D01*
X0246674Y0094873D01*
X0244872Y0094172D02*
X0242070Y0094172D01*
X0243471Y0094172D02*
X0243471Y0098376D01*
X0242070Y0096975D01*
X0240269Y0097675D02*
X0240269Y0094873D01*
X0239568Y0094172D01*
X0237466Y0094172D01*
X0237466Y0098376D01*
X0239568Y0098376D01*
X0240269Y0097675D01*
X0235665Y0097675D02*
X0234964Y0098376D01*
X0233563Y0098376D01*
X0232862Y0097675D01*
X0232862Y0096975D01*
X0233563Y0096274D01*
X0234964Y0096274D01*
X0235665Y0095574D01*
X0235665Y0094873D01*
X0234964Y0094172D01*
X0233563Y0094172D01*
X0232862Y0094873D01*
X0231061Y0094873D02*
X0230360Y0094172D01*
X0228959Y0094172D01*
X0228258Y0094873D01*
X0228959Y0096274D02*
X0228258Y0096975D01*
X0228258Y0097675D01*
X0228959Y0098376D01*
X0230360Y0098376D01*
X0231061Y0097675D01*
X0230360Y0096274D02*
X0231061Y0095574D01*
X0231061Y0094873D01*
X0230360Y0096274D02*
X0228959Y0096274D01*
X0235859Y0104472D02*
X0237260Y0104472D01*
X0237961Y0105173D01*
X0237961Y0108676D01*
X0239762Y0107975D02*
X0240463Y0108676D01*
X0241864Y0108676D01*
X0242565Y0107975D01*
X0242565Y0107275D01*
X0241864Y0106574D01*
X0240463Y0106574D01*
X0239762Y0107275D01*
X0239762Y0107975D01*
X0240463Y0106574D02*
X0239762Y0105874D01*
X0239762Y0105173D01*
X0240463Y0104472D01*
X0241864Y0104472D01*
X0242565Y0105173D01*
X0242565Y0105874D01*
X0241864Y0106574D01*
X0244366Y0105173D02*
X0245067Y0104472D01*
X0246468Y0104472D01*
X0247169Y0105173D01*
X0247169Y0106574D01*
X0245767Y0106574D01*
X0244366Y0107975D02*
X0244366Y0105173D01*
X0244366Y0107975D02*
X0245067Y0108676D01*
X0246468Y0108676D01*
X0247169Y0107975D01*
X0235859Y0104472D02*
X0235158Y0105173D01*
X0235158Y0108676D01*
X0246674Y0097675D02*
X0247375Y0098376D01*
X0248776Y0098376D01*
X0249476Y0097675D01*
X0249476Y0096975D01*
X0248776Y0096274D01*
X0249476Y0095574D01*
X0249476Y0094873D01*
X0248776Y0096274D02*
X0248075Y0096274D01*
X0255101Y0143770D02*
X0254400Y0144471D01*
X0255101Y0143770D02*
X0256502Y0143770D01*
X0257202Y0144471D01*
X0257202Y0145171D01*
X0256502Y0145872D01*
X0255101Y0145872D01*
X0254400Y0146572D01*
X0254400Y0147273D01*
X0255101Y0147974D01*
X0256502Y0147974D01*
X0257202Y0147273D01*
X0259004Y0147974D02*
X0261106Y0147974D01*
X0261806Y0147273D01*
X0261806Y0144471D01*
X0261106Y0143770D01*
X0259004Y0143770D01*
X0259004Y0147974D01*
X0263608Y0146572D02*
X0265009Y0147974D01*
X0266410Y0146572D01*
X0266410Y0143770D01*
X0266410Y0145872D02*
X0263608Y0145872D01*
X0263608Y0146572D02*
X0263608Y0143770D01*
X0236910Y0151471D02*
X0236210Y0150770D01*
X0234808Y0150770D01*
X0234108Y0151471D01*
X0232306Y0151471D02*
X0231606Y0150770D01*
X0230205Y0150770D01*
X0229504Y0151471D01*
X0227702Y0152171D02*
X0227702Y0154974D01*
X0229504Y0154273D02*
X0230205Y0154974D01*
X0231606Y0154974D01*
X0232306Y0154273D01*
X0232306Y0153572D01*
X0231606Y0152872D01*
X0232306Y0152171D01*
X0232306Y0151471D01*
X0231606Y0152872D02*
X0230905Y0152872D01*
X0227702Y0152171D02*
X0226301Y0150770D01*
X0224900Y0152171D01*
X0224900Y0154974D01*
X0234108Y0154273D02*
X0234808Y0154974D01*
X0236210Y0154974D01*
X0236910Y0154273D01*
X0236910Y0153572D01*
X0236210Y0152872D01*
X0236910Y0152171D01*
X0236910Y0151471D01*
X0236210Y0152872D02*
X0235509Y0152872D01*
X0236010Y0163470D02*
X0233908Y0163470D01*
X0233908Y0167674D01*
X0236010Y0167674D01*
X0236710Y0166973D01*
X0236710Y0164171D01*
X0236010Y0163470D01*
X0232106Y0163470D02*
X0232106Y0167674D01*
X0229304Y0167674D02*
X0232106Y0163470D01*
X0229304Y0163470D02*
X0229304Y0167674D01*
X0227502Y0166973D02*
X0226802Y0167674D01*
X0225401Y0167674D01*
X0224700Y0166973D01*
X0224700Y0164171D01*
X0225401Y0163470D01*
X0226802Y0163470D01*
X0227502Y0164171D01*
X0227502Y0165572D01*
X0226101Y0165572D01*
X0257700Y0170771D02*
X0258401Y0170070D01*
X0259802Y0170070D01*
X0260502Y0170771D01*
X0260502Y0171471D01*
X0259802Y0172172D01*
X0258401Y0172172D01*
X0257700Y0172872D01*
X0257700Y0173573D01*
X0258401Y0174274D01*
X0259802Y0174274D01*
X0260502Y0173573D01*
X0262304Y0173573D02*
X0262304Y0170771D01*
X0263005Y0170070D01*
X0264406Y0170070D01*
X0265106Y0170771D01*
X0266908Y0170070D02*
X0269710Y0170070D01*
X0266908Y0170070D02*
X0266908Y0174274D01*
X0265106Y0173573D02*
X0264406Y0174274D01*
X0263005Y0174274D01*
X0262304Y0173573D01*
X0134672Y0102570D02*
X0134679Y0103140D01*
X0134700Y0103710D01*
X0134735Y0104279D01*
X0134784Y0104847D01*
X0134847Y0105413D01*
X0134923Y0105978D01*
X0135014Y0106541D01*
X0135118Y0107102D01*
X0135236Y0107659D01*
X0135368Y0108214D01*
X0135513Y0108765D01*
X0135672Y0109313D01*
X0135844Y0109856D01*
X0136030Y0110395D01*
X0136228Y0110930D01*
X0136440Y0111459D01*
X0136665Y0111983D01*
X0136902Y0112501D01*
X0137152Y0113014D01*
X0137415Y0113520D01*
X0137690Y0114019D01*
X0137977Y0114512D01*
X0138276Y0114997D01*
X0138587Y0115475D01*
X0138909Y0115945D01*
X0139243Y0116407D01*
X0139588Y0116861D01*
X0139945Y0117306D01*
X0140312Y0117742D01*
X0140689Y0118169D01*
X0141077Y0118587D01*
X0141475Y0118995D01*
X0141883Y0119393D01*
X0142301Y0119781D01*
X0142728Y0120158D01*
X0143164Y0120525D01*
X0143609Y0120882D01*
X0144063Y0121227D01*
X0144525Y0121561D01*
X0144995Y0121883D01*
X0145473Y0122194D01*
X0145958Y0122493D01*
X0146451Y0122780D01*
X0146950Y0123055D01*
X0147456Y0123318D01*
X0147969Y0123568D01*
X0148487Y0123805D01*
X0149011Y0124030D01*
X0149540Y0124242D01*
X0150075Y0124440D01*
X0150614Y0124626D01*
X0151157Y0124798D01*
X0151705Y0124957D01*
X0152256Y0125102D01*
X0152811Y0125234D01*
X0153368Y0125352D01*
X0153929Y0125456D01*
X0154492Y0125547D01*
X0155057Y0125623D01*
X0155623Y0125686D01*
X0156191Y0125735D01*
X0156760Y0125770D01*
X0157330Y0125791D01*
X0157900Y0125798D01*
X0158470Y0125791D01*
X0159040Y0125770D01*
X0159609Y0125735D01*
X0160177Y0125686D01*
X0160743Y0125623D01*
X0161308Y0125547D01*
X0161871Y0125456D01*
X0162432Y0125352D01*
X0162989Y0125234D01*
X0163544Y0125102D01*
X0164095Y0124957D01*
X0164643Y0124798D01*
X0165186Y0124626D01*
X0165725Y0124440D01*
X0166260Y0124242D01*
X0166789Y0124030D01*
X0167313Y0123805D01*
X0167831Y0123568D01*
X0168344Y0123318D01*
X0168850Y0123055D01*
X0169349Y0122780D01*
X0169842Y0122493D01*
X0170327Y0122194D01*
X0170805Y0121883D01*
X0171275Y0121561D01*
X0171737Y0121227D01*
X0172191Y0120882D01*
X0172636Y0120525D01*
X0173072Y0120158D01*
X0173499Y0119781D01*
X0173917Y0119393D01*
X0174325Y0118995D01*
X0174723Y0118587D01*
X0175111Y0118169D01*
X0175488Y0117742D01*
X0175855Y0117306D01*
X0176212Y0116861D01*
X0176557Y0116407D01*
X0176891Y0115945D01*
X0177213Y0115475D01*
X0177524Y0114997D01*
X0177823Y0114512D01*
X0178110Y0114019D01*
X0178385Y0113520D01*
X0178648Y0113014D01*
X0178898Y0112501D01*
X0179135Y0111983D01*
X0179360Y0111459D01*
X0179572Y0110930D01*
X0179770Y0110395D01*
X0179956Y0109856D01*
X0180128Y0109313D01*
X0180287Y0108765D01*
X0180432Y0108214D01*
X0180564Y0107659D01*
X0180682Y0107102D01*
X0180786Y0106541D01*
X0180877Y0105978D01*
X0180953Y0105413D01*
X0181016Y0104847D01*
X0181065Y0104279D01*
X0181100Y0103710D01*
X0181121Y0103140D01*
X0181128Y0102570D01*
X0181121Y0102000D01*
X0181100Y0101430D01*
X0181065Y0100861D01*
X0181016Y0100293D01*
X0180953Y0099727D01*
X0180877Y0099162D01*
X0180786Y0098599D01*
X0180682Y0098038D01*
X0180564Y0097481D01*
X0180432Y0096926D01*
X0180287Y0096375D01*
X0180128Y0095827D01*
X0179956Y0095284D01*
X0179770Y0094745D01*
X0179572Y0094210D01*
X0179360Y0093681D01*
X0179135Y0093157D01*
X0178898Y0092639D01*
X0178648Y0092126D01*
X0178385Y0091620D01*
X0178110Y0091121D01*
X0177823Y0090628D01*
X0177524Y0090143D01*
X0177213Y0089665D01*
X0176891Y0089195D01*
X0176557Y0088733D01*
X0176212Y0088279D01*
X0175855Y0087834D01*
X0175488Y0087398D01*
X0175111Y0086971D01*
X0174723Y0086553D01*
X0174325Y0086145D01*
X0173917Y0085747D01*
X0173499Y0085359D01*
X0173072Y0084982D01*
X0172636Y0084615D01*
X0172191Y0084258D01*
X0171737Y0083913D01*
X0171275Y0083579D01*
X0170805Y0083257D01*
X0170327Y0082946D01*
X0169842Y0082647D01*
X0169349Y0082360D01*
X0168850Y0082085D01*
X0168344Y0081822D01*
X0167831Y0081572D01*
X0167313Y0081335D01*
X0166789Y0081110D01*
X0166260Y0080898D01*
X0165725Y0080700D01*
X0165186Y0080514D01*
X0164643Y0080342D01*
X0164095Y0080183D01*
X0163544Y0080038D01*
X0162989Y0079906D01*
X0162432Y0079788D01*
X0161871Y0079684D01*
X0161308Y0079593D01*
X0160743Y0079517D01*
X0160177Y0079454D01*
X0159609Y0079405D01*
X0159040Y0079370D01*
X0158470Y0079349D01*
X0157900Y0079342D01*
X0157330Y0079349D01*
X0156760Y0079370D01*
X0156191Y0079405D01*
X0155623Y0079454D01*
X0155057Y0079517D01*
X0154492Y0079593D01*
X0153929Y0079684D01*
X0153368Y0079788D01*
X0152811Y0079906D01*
X0152256Y0080038D01*
X0151705Y0080183D01*
X0151157Y0080342D01*
X0150614Y0080514D01*
X0150075Y0080700D01*
X0149540Y0080898D01*
X0149011Y0081110D01*
X0148487Y0081335D01*
X0147969Y0081572D01*
X0147456Y0081822D01*
X0146950Y0082085D01*
X0146451Y0082360D01*
X0145958Y0082647D01*
X0145473Y0082946D01*
X0144995Y0083257D01*
X0144525Y0083579D01*
X0144063Y0083913D01*
X0143609Y0084258D01*
X0143164Y0084615D01*
X0142728Y0084982D01*
X0142301Y0085359D01*
X0141883Y0085747D01*
X0141475Y0086145D01*
X0141077Y0086553D01*
X0140689Y0086971D01*
X0140312Y0087398D01*
X0139945Y0087834D01*
X0139588Y0088279D01*
X0139243Y0088733D01*
X0138909Y0089195D01*
X0138587Y0089665D01*
X0138276Y0090143D01*
X0137977Y0090628D01*
X0137690Y0091121D01*
X0137415Y0091620D01*
X0137152Y0092126D01*
X0136902Y0092639D01*
X0136665Y0093157D01*
X0136440Y0093681D01*
X0136228Y0094210D01*
X0136030Y0094745D01*
X0135844Y0095284D01*
X0135672Y0095827D01*
X0135513Y0096375D01*
X0135368Y0096926D01*
X0135236Y0097481D01*
X0135118Y0098038D01*
X0135014Y0098599D01*
X0134923Y0099162D01*
X0134847Y0099727D01*
X0134784Y0100293D01*
X0134735Y0100861D01*
X0134700Y0101430D01*
X0134679Y0102000D01*
X0134672Y0102570D01*
X0132900Y0103470D02*
X0130400Y0100970D01*
X0132900Y0098470D01*
X0132900Y0093470D01*
X0130400Y0090970D01*
X0125400Y0090970D01*
X0122900Y0093470D01*
X0122900Y0098470D01*
X0125400Y0100970D01*
X0122900Y0103470D01*
X0122900Y0108470D01*
X0125400Y0110970D01*
X0130400Y0110970D01*
X0132900Y0108470D01*
X0132900Y0103470D01*
X0133900Y0082970D02*
X0138900Y0082970D01*
X0141400Y0080470D01*
X0141400Y0075470D01*
X0138900Y0072970D01*
X0133900Y0072970D01*
X0131400Y0075470D01*
X0128900Y0072970D01*
X0123900Y0072970D01*
X0121400Y0075470D01*
X0121400Y0080470D01*
X0123900Y0082970D01*
X0128900Y0082970D01*
X0131400Y0080470D01*
X0133900Y0082970D01*
X0101943Y0079838D02*
X0082257Y0079838D01*
X0082257Y0113302D01*
X0101943Y0113302D01*
X0101943Y0079838D01*
X0098222Y0082570D02*
X0098224Y0082629D01*
X0098230Y0082687D01*
X0098240Y0082745D01*
X0098253Y0082802D01*
X0098271Y0082858D01*
X0098292Y0082913D01*
X0098316Y0082966D01*
X0098345Y0083017D01*
X0098376Y0083067D01*
X0098411Y0083114D01*
X0098449Y0083159D01*
X0098490Y0083201D01*
X0098533Y0083240D01*
X0098579Y0083277D01*
X0098628Y0083310D01*
X0098678Y0083340D01*
X0098730Y0083366D01*
X0098784Y0083389D01*
X0098840Y0083409D01*
X0098896Y0083424D01*
X0098954Y0083436D01*
X0099012Y0083444D01*
X0099071Y0083448D01*
X0099129Y0083448D01*
X0099188Y0083444D01*
X0099246Y0083436D01*
X0099304Y0083424D01*
X0099360Y0083409D01*
X0099416Y0083389D01*
X0099470Y0083366D01*
X0099522Y0083340D01*
X0099572Y0083310D01*
X0099621Y0083277D01*
X0099667Y0083240D01*
X0099710Y0083201D01*
X0099751Y0083159D01*
X0099789Y0083114D01*
X0099824Y0083067D01*
X0099855Y0083017D01*
X0099884Y0082966D01*
X0099908Y0082913D01*
X0099929Y0082858D01*
X0099947Y0082802D01*
X0099960Y0082745D01*
X0099970Y0082687D01*
X0099976Y0082629D01*
X0099978Y0082570D01*
X0099976Y0082511D01*
X0099970Y0082453D01*
X0099960Y0082395D01*
X0099947Y0082338D01*
X0099929Y0082282D01*
X0099908Y0082227D01*
X0099884Y0082174D01*
X0099855Y0082123D01*
X0099824Y0082073D01*
X0099789Y0082026D01*
X0099751Y0081981D01*
X0099710Y0081939D01*
X0099667Y0081900D01*
X0099621Y0081863D01*
X0099572Y0081830D01*
X0099522Y0081800D01*
X0099470Y0081774D01*
X0099416Y0081751D01*
X0099360Y0081731D01*
X0099304Y0081716D01*
X0099246Y0081704D01*
X0099188Y0081696D01*
X0099129Y0081692D01*
X0099071Y0081692D01*
X0099012Y0081696D01*
X0098954Y0081704D01*
X0098896Y0081716D01*
X0098840Y0081731D01*
X0098784Y0081751D01*
X0098730Y0081774D01*
X0098678Y0081800D01*
X0098628Y0081830D01*
X0098579Y0081863D01*
X0098533Y0081900D01*
X0098490Y0081939D01*
X0098449Y0081981D01*
X0098411Y0082026D01*
X0098376Y0082073D01*
X0098345Y0082123D01*
X0098316Y0082174D01*
X0098292Y0082227D01*
X0098271Y0082282D01*
X0098253Y0082338D01*
X0098240Y0082395D01*
X0098230Y0082453D01*
X0098224Y0082511D01*
X0098222Y0082570D01*
X0067400Y0084470D02*
X0064900Y0081970D01*
X0067400Y0079470D01*
X0067400Y0074470D01*
X0064900Y0071970D01*
X0067400Y0069470D01*
X0067400Y0064470D01*
X0064900Y0061970D01*
X0067400Y0059470D01*
X0067400Y0054470D01*
X0064900Y0051970D01*
X0067400Y0049470D01*
X0067400Y0044470D01*
X0064900Y0041970D01*
X0059900Y0041970D01*
X0057400Y0044470D01*
X0057400Y0049470D01*
X0059900Y0051970D01*
X0057400Y0054470D01*
X0057400Y0059470D01*
X0059900Y0061970D01*
X0057400Y0064470D01*
X0057400Y0069470D01*
X0059900Y0071970D01*
X0057400Y0074470D01*
X0057400Y0079470D01*
X0059900Y0081970D01*
X0057400Y0084470D01*
X0057400Y0089470D01*
X0059900Y0091970D01*
X0064900Y0091970D01*
X0067400Y0089470D01*
X0067400Y0084470D01*
X0045210Y0071873D02*
X0042408Y0069071D01*
X0043108Y0068370D01*
X0044510Y0068370D01*
X0045210Y0069071D01*
X0045210Y0071873D01*
X0044510Y0072574D01*
X0043108Y0072574D01*
X0042408Y0071873D01*
X0042408Y0069071D01*
X0040606Y0069071D02*
X0040606Y0070472D01*
X0039906Y0071172D01*
X0039205Y0071172D01*
X0037804Y0070472D01*
X0037804Y0072574D01*
X0040606Y0072574D01*
X0040606Y0069071D02*
X0039906Y0068370D01*
X0038505Y0068370D01*
X0037804Y0069071D01*
X0036002Y0069771D02*
X0036002Y0072574D01*
X0033200Y0072574D02*
X0033200Y0069771D01*
X0034601Y0068370D01*
X0036002Y0069771D01*
X0032600Y0096270D02*
X0006800Y0096270D01*
X0006800Y0109270D01*
X0032600Y0109270D01*
X0032600Y0096270D01*
X0039600Y0102470D02*
X0039600Y0107470D01*
X0042100Y0109970D01*
X0047100Y0109970D01*
X0049600Y0107470D01*
X0052100Y0109970D01*
X0057100Y0109970D01*
X0059600Y0107470D01*
X0062100Y0109970D01*
X0067100Y0109970D01*
X0069600Y0107470D01*
X0069600Y0102470D01*
X0067100Y0099970D01*
X0062100Y0099970D01*
X0059600Y0102470D01*
X0057100Y0099970D01*
X0052100Y0099970D01*
X0049600Y0102470D01*
X0047100Y0099970D01*
X0042100Y0099970D01*
X0039600Y0102470D01*
X0023782Y0125670D02*
X0013900Y0125670D01*
X0008900Y0129607D02*
X0008900Y0141733D01*
X0014018Y0145670D02*
X0023782Y0145670D01*
X0028900Y0141733D02*
X0028900Y0129607D01*
X0013900Y0135670D02*
X0013902Y0135811D01*
X0013908Y0135952D01*
X0013918Y0136092D01*
X0013932Y0136232D01*
X0013950Y0136372D01*
X0013971Y0136511D01*
X0013997Y0136650D01*
X0014026Y0136788D01*
X0014060Y0136924D01*
X0014097Y0137060D01*
X0014138Y0137195D01*
X0014183Y0137329D01*
X0014232Y0137461D01*
X0014284Y0137592D01*
X0014340Y0137721D01*
X0014400Y0137848D01*
X0014463Y0137974D01*
X0014529Y0138098D01*
X0014600Y0138221D01*
X0014673Y0138341D01*
X0014750Y0138459D01*
X0014830Y0138575D01*
X0014914Y0138688D01*
X0015000Y0138799D01*
X0015090Y0138908D01*
X0015183Y0139014D01*
X0015278Y0139117D01*
X0015377Y0139218D01*
X0015478Y0139316D01*
X0015582Y0139411D01*
X0015689Y0139503D01*
X0015798Y0139592D01*
X0015910Y0139677D01*
X0016024Y0139760D01*
X0016140Y0139840D01*
X0016259Y0139916D01*
X0016380Y0139988D01*
X0016502Y0140058D01*
X0016627Y0140123D01*
X0016753Y0140186D01*
X0016881Y0140244D01*
X0017011Y0140299D01*
X0017142Y0140351D01*
X0017275Y0140398D01*
X0017409Y0140442D01*
X0017544Y0140483D01*
X0017680Y0140519D01*
X0017817Y0140551D01*
X0017955Y0140580D01*
X0018093Y0140605D01*
X0018233Y0140625D01*
X0018373Y0140642D01*
X0018513Y0140655D01*
X0018654Y0140664D01*
X0018794Y0140669D01*
X0018935Y0140670D01*
X0019076Y0140667D01*
X0019217Y0140660D01*
X0019357Y0140649D01*
X0019497Y0140634D01*
X0019637Y0140615D01*
X0019776Y0140593D01*
X0019914Y0140566D01*
X0020052Y0140536D01*
X0020188Y0140501D01*
X0020324Y0140463D01*
X0020458Y0140421D01*
X0020592Y0140375D01*
X0020724Y0140326D01*
X0020854Y0140272D01*
X0020983Y0140215D01*
X0021110Y0140155D01*
X0021236Y0140091D01*
X0021359Y0140023D01*
X0021481Y0139952D01*
X0021601Y0139878D01*
X0021718Y0139800D01*
X0021833Y0139719D01*
X0021946Y0139635D01*
X0022057Y0139548D01*
X0022165Y0139457D01*
X0022270Y0139364D01*
X0022373Y0139267D01*
X0022473Y0139168D01*
X0022570Y0139066D01*
X0022664Y0138961D01*
X0022755Y0138854D01*
X0022843Y0138744D01*
X0022928Y0138632D01*
X0023010Y0138517D01*
X0023089Y0138400D01*
X0023164Y0138281D01*
X0023236Y0138160D01*
X0023304Y0138037D01*
X0023369Y0137912D01*
X0023431Y0137785D01*
X0023488Y0137656D01*
X0023543Y0137526D01*
X0023593Y0137395D01*
X0023640Y0137262D01*
X0023683Y0137128D01*
X0023722Y0136992D01*
X0023757Y0136856D01*
X0023789Y0136719D01*
X0023816Y0136581D01*
X0023840Y0136442D01*
X0023860Y0136302D01*
X0023876Y0136162D01*
X0023888Y0136022D01*
X0023896Y0135881D01*
X0023900Y0135740D01*
X0023900Y0135600D01*
X0023896Y0135459D01*
X0023888Y0135318D01*
X0023876Y0135178D01*
X0023860Y0135038D01*
X0023840Y0134898D01*
X0023816Y0134759D01*
X0023789Y0134621D01*
X0023757Y0134484D01*
X0023722Y0134348D01*
X0023683Y0134212D01*
X0023640Y0134078D01*
X0023593Y0133945D01*
X0023543Y0133814D01*
X0023488Y0133684D01*
X0023431Y0133555D01*
X0023369Y0133428D01*
X0023304Y0133303D01*
X0023236Y0133180D01*
X0023164Y0133059D01*
X0023089Y0132940D01*
X0023010Y0132823D01*
X0022928Y0132708D01*
X0022843Y0132596D01*
X0022755Y0132486D01*
X0022664Y0132379D01*
X0022570Y0132274D01*
X0022473Y0132172D01*
X0022373Y0132073D01*
X0022270Y0131976D01*
X0022165Y0131883D01*
X0022057Y0131792D01*
X0021946Y0131705D01*
X0021833Y0131621D01*
X0021718Y0131540D01*
X0021601Y0131462D01*
X0021481Y0131388D01*
X0021359Y0131317D01*
X0021236Y0131249D01*
X0021110Y0131185D01*
X0020983Y0131125D01*
X0020854Y0131068D01*
X0020724Y0131014D01*
X0020592Y0130965D01*
X0020458Y0130919D01*
X0020324Y0130877D01*
X0020188Y0130839D01*
X0020052Y0130804D01*
X0019914Y0130774D01*
X0019776Y0130747D01*
X0019637Y0130725D01*
X0019497Y0130706D01*
X0019357Y0130691D01*
X0019217Y0130680D01*
X0019076Y0130673D01*
X0018935Y0130670D01*
X0018794Y0130671D01*
X0018654Y0130676D01*
X0018513Y0130685D01*
X0018373Y0130698D01*
X0018233Y0130715D01*
X0018093Y0130735D01*
X0017955Y0130760D01*
X0017817Y0130789D01*
X0017680Y0130821D01*
X0017544Y0130857D01*
X0017409Y0130898D01*
X0017275Y0130942D01*
X0017142Y0130989D01*
X0017011Y0131041D01*
X0016881Y0131096D01*
X0016753Y0131154D01*
X0016627Y0131217D01*
X0016502Y0131282D01*
X0016380Y0131352D01*
X0016259Y0131424D01*
X0016140Y0131500D01*
X0016024Y0131580D01*
X0015910Y0131663D01*
X0015798Y0131748D01*
X0015689Y0131837D01*
X0015582Y0131929D01*
X0015478Y0132024D01*
X0015377Y0132122D01*
X0015278Y0132223D01*
X0015183Y0132326D01*
X0015090Y0132432D01*
X0015000Y0132541D01*
X0014914Y0132652D01*
X0014830Y0132765D01*
X0014750Y0132881D01*
X0014673Y0132999D01*
X0014600Y0133119D01*
X0014529Y0133242D01*
X0014463Y0133366D01*
X0014400Y0133492D01*
X0014340Y0133619D01*
X0014284Y0133748D01*
X0014232Y0133879D01*
X0014183Y0134011D01*
X0014138Y0134145D01*
X0014097Y0134280D01*
X0014060Y0134416D01*
X0014026Y0134552D01*
X0013997Y0134690D01*
X0013971Y0134829D01*
X0013950Y0134968D01*
X0013932Y0135108D01*
X0013918Y0135248D01*
X0013908Y0135388D01*
X0013902Y0135529D01*
X0013900Y0135670D01*
X0082241Y0141627D02*
X0082241Y0147139D01*
X0087359Y0147139D01*
X0087359Y0141627D01*
X0089241Y0141627D02*
X0089241Y0147139D01*
X0094359Y0147139D01*
X0094359Y0141627D01*
X0096241Y0141627D02*
X0096241Y0147139D01*
X0101359Y0147139D01*
X0101359Y0141627D01*
X0104241Y0141627D02*
X0104241Y0147139D01*
X0109359Y0147139D01*
X0109359Y0141627D01*
X0113241Y0141627D02*
X0113241Y0147139D01*
X0118359Y0147139D01*
X0118359Y0141627D01*
X0121241Y0141627D02*
X0121241Y0147139D01*
X0126359Y0147139D01*
X0126359Y0141627D01*
X0130241Y0141627D02*
X0130241Y0147139D01*
X0135359Y0147139D01*
X0135359Y0141627D01*
X0138241Y0141627D02*
X0138241Y0147139D01*
X0143359Y0147139D01*
X0143359Y0141627D01*
X0146241Y0141627D02*
X0146241Y0147139D01*
X0151359Y0147139D01*
X0151359Y0141627D01*
X0151359Y0147139D02*
X0151359Y0148713D01*
X0146241Y0148713D02*
X0146241Y0147139D01*
X0143359Y0147139D02*
X0143359Y0148713D01*
X0138241Y0148713D02*
X0138241Y0147139D01*
X0135359Y0147139D02*
X0135359Y0148713D01*
X0130241Y0148713D02*
X0130241Y0147139D01*
X0126359Y0147139D02*
X0126359Y0148713D01*
X0121241Y0148713D02*
X0121241Y0147139D01*
X0118359Y0147139D02*
X0118359Y0148713D01*
X0113241Y0148713D02*
X0113241Y0147139D01*
X0109359Y0147139D02*
X0109359Y0148713D01*
X0104241Y0148713D02*
X0104241Y0147139D01*
X0101359Y0147139D02*
X0101359Y0148713D01*
X0096241Y0148713D02*
X0096241Y0147139D01*
X0094359Y0147139D02*
X0094359Y0148713D01*
X0089241Y0148713D02*
X0089241Y0147139D01*
X0087359Y0147139D02*
X0087359Y0148713D01*
X0082241Y0148713D02*
X0082241Y0147139D01*
X0133772Y0050570D02*
X0133779Y0051140D01*
X0133800Y0051710D01*
X0133835Y0052279D01*
X0133884Y0052847D01*
X0133947Y0053413D01*
X0134023Y0053978D01*
X0134114Y0054541D01*
X0134218Y0055102D01*
X0134336Y0055659D01*
X0134468Y0056214D01*
X0134613Y0056765D01*
X0134772Y0057313D01*
X0134944Y0057856D01*
X0135130Y0058395D01*
X0135328Y0058930D01*
X0135540Y0059459D01*
X0135765Y0059983D01*
X0136002Y0060501D01*
X0136252Y0061014D01*
X0136515Y0061520D01*
X0136790Y0062019D01*
X0137077Y0062512D01*
X0137376Y0062997D01*
X0137687Y0063475D01*
X0138009Y0063945D01*
X0138343Y0064407D01*
X0138688Y0064861D01*
X0139045Y0065306D01*
X0139412Y0065742D01*
X0139789Y0066169D01*
X0140177Y0066587D01*
X0140575Y0066995D01*
X0140983Y0067393D01*
X0141401Y0067781D01*
X0141828Y0068158D01*
X0142264Y0068525D01*
X0142709Y0068882D01*
X0143163Y0069227D01*
X0143625Y0069561D01*
X0144095Y0069883D01*
X0144573Y0070194D01*
X0145058Y0070493D01*
X0145551Y0070780D01*
X0146050Y0071055D01*
X0146556Y0071318D01*
X0147069Y0071568D01*
X0147587Y0071805D01*
X0148111Y0072030D01*
X0148640Y0072242D01*
X0149175Y0072440D01*
X0149714Y0072626D01*
X0150257Y0072798D01*
X0150805Y0072957D01*
X0151356Y0073102D01*
X0151911Y0073234D01*
X0152468Y0073352D01*
X0153029Y0073456D01*
X0153592Y0073547D01*
X0154157Y0073623D01*
X0154723Y0073686D01*
X0155291Y0073735D01*
X0155860Y0073770D01*
X0156430Y0073791D01*
X0157000Y0073798D01*
X0157570Y0073791D01*
X0158140Y0073770D01*
X0158709Y0073735D01*
X0159277Y0073686D01*
X0159843Y0073623D01*
X0160408Y0073547D01*
X0160971Y0073456D01*
X0161532Y0073352D01*
X0162089Y0073234D01*
X0162644Y0073102D01*
X0163195Y0072957D01*
X0163743Y0072798D01*
X0164286Y0072626D01*
X0164825Y0072440D01*
X0165360Y0072242D01*
X0165889Y0072030D01*
X0166413Y0071805D01*
X0166931Y0071568D01*
X0167444Y0071318D01*
X0167950Y0071055D01*
X0168449Y0070780D01*
X0168942Y0070493D01*
X0169427Y0070194D01*
X0169905Y0069883D01*
X0170375Y0069561D01*
X0170837Y0069227D01*
X0171291Y0068882D01*
X0171736Y0068525D01*
X0172172Y0068158D01*
X0172599Y0067781D01*
X0173017Y0067393D01*
X0173425Y0066995D01*
X0173823Y0066587D01*
X0174211Y0066169D01*
X0174588Y0065742D01*
X0174955Y0065306D01*
X0175312Y0064861D01*
X0175657Y0064407D01*
X0175991Y0063945D01*
X0176313Y0063475D01*
X0176624Y0062997D01*
X0176923Y0062512D01*
X0177210Y0062019D01*
X0177485Y0061520D01*
X0177748Y0061014D01*
X0177998Y0060501D01*
X0178235Y0059983D01*
X0178460Y0059459D01*
X0178672Y0058930D01*
X0178870Y0058395D01*
X0179056Y0057856D01*
X0179228Y0057313D01*
X0179387Y0056765D01*
X0179532Y0056214D01*
X0179664Y0055659D01*
X0179782Y0055102D01*
X0179886Y0054541D01*
X0179977Y0053978D01*
X0180053Y0053413D01*
X0180116Y0052847D01*
X0180165Y0052279D01*
X0180200Y0051710D01*
X0180221Y0051140D01*
X0180228Y0050570D01*
X0180221Y0050000D01*
X0180200Y0049430D01*
X0180165Y0048861D01*
X0180116Y0048293D01*
X0180053Y0047727D01*
X0179977Y0047162D01*
X0179886Y0046599D01*
X0179782Y0046038D01*
X0179664Y0045481D01*
X0179532Y0044926D01*
X0179387Y0044375D01*
X0179228Y0043827D01*
X0179056Y0043284D01*
X0178870Y0042745D01*
X0178672Y0042210D01*
X0178460Y0041681D01*
X0178235Y0041157D01*
X0177998Y0040639D01*
X0177748Y0040126D01*
X0177485Y0039620D01*
X0177210Y0039121D01*
X0176923Y0038628D01*
X0176624Y0038143D01*
X0176313Y0037665D01*
X0175991Y0037195D01*
X0175657Y0036733D01*
X0175312Y0036279D01*
X0174955Y0035834D01*
X0174588Y0035398D01*
X0174211Y0034971D01*
X0173823Y0034553D01*
X0173425Y0034145D01*
X0173017Y0033747D01*
X0172599Y0033359D01*
X0172172Y0032982D01*
X0171736Y0032615D01*
X0171291Y0032258D01*
X0170837Y0031913D01*
X0170375Y0031579D01*
X0169905Y0031257D01*
X0169427Y0030946D01*
X0168942Y0030647D01*
X0168449Y0030360D01*
X0167950Y0030085D01*
X0167444Y0029822D01*
X0166931Y0029572D01*
X0166413Y0029335D01*
X0165889Y0029110D01*
X0165360Y0028898D01*
X0164825Y0028700D01*
X0164286Y0028514D01*
X0163743Y0028342D01*
X0163195Y0028183D01*
X0162644Y0028038D01*
X0162089Y0027906D01*
X0161532Y0027788D01*
X0160971Y0027684D01*
X0160408Y0027593D01*
X0159843Y0027517D01*
X0159277Y0027454D01*
X0158709Y0027405D01*
X0158140Y0027370D01*
X0157570Y0027349D01*
X0157000Y0027342D01*
X0156430Y0027349D01*
X0155860Y0027370D01*
X0155291Y0027405D01*
X0154723Y0027454D01*
X0154157Y0027517D01*
X0153592Y0027593D01*
X0153029Y0027684D01*
X0152468Y0027788D01*
X0151911Y0027906D01*
X0151356Y0028038D01*
X0150805Y0028183D01*
X0150257Y0028342D01*
X0149714Y0028514D01*
X0149175Y0028700D01*
X0148640Y0028898D01*
X0148111Y0029110D01*
X0147587Y0029335D01*
X0147069Y0029572D01*
X0146556Y0029822D01*
X0146050Y0030085D01*
X0145551Y0030360D01*
X0145058Y0030647D01*
X0144573Y0030946D01*
X0144095Y0031257D01*
X0143625Y0031579D01*
X0143163Y0031913D01*
X0142709Y0032258D01*
X0142264Y0032615D01*
X0141828Y0032982D01*
X0141401Y0033359D01*
X0140983Y0033747D01*
X0140575Y0034145D01*
X0140177Y0034553D01*
X0139789Y0034971D01*
X0139412Y0035398D01*
X0139045Y0035834D01*
X0138688Y0036279D01*
X0138343Y0036733D01*
X0138009Y0037195D01*
X0137687Y0037665D01*
X0137376Y0038143D01*
X0137077Y0038628D01*
X0136790Y0039121D01*
X0136515Y0039620D01*
X0136252Y0040126D01*
X0136002Y0040639D01*
X0135765Y0041157D01*
X0135540Y0041681D01*
X0135328Y0042210D01*
X0135130Y0042745D01*
X0134944Y0043284D01*
X0134772Y0043827D01*
X0134613Y0044375D01*
X0134468Y0044926D01*
X0134336Y0045481D01*
X0134218Y0046038D01*
X0134114Y0046599D01*
X0134023Y0047162D01*
X0133947Y0047727D01*
X0133884Y0048293D01*
X0133835Y0048861D01*
X0133800Y0049430D01*
X0133779Y0050000D01*
X0133772Y0050570D01*
D12*
X0126054Y0062024D02*
X0126054Y0018717D01*
X0082746Y0018717D01*
X0082746Y0062024D01*
X0126054Y0062024D01*
X0142550Y0074820D02*
X0142550Y0079324D01*
X0144051Y0077823D01*
X0145553Y0079324D01*
X0145553Y0074820D01*
X0147154Y0075571D02*
X0150156Y0078573D01*
X0150156Y0075571D01*
X0149406Y0074820D01*
X0147905Y0074820D01*
X0147154Y0075571D01*
X0147154Y0078573D01*
X0147905Y0079324D01*
X0149406Y0079324D01*
X0150156Y0078573D01*
X0151758Y0077072D02*
X0154760Y0077072D01*
X0153259Y0078573D02*
X0153259Y0075571D01*
X0174050Y0079570D02*
X0174050Y0082072D01*
X0175301Y0082072D01*
X0175718Y0081655D01*
X0175718Y0080821D01*
X0175301Y0080404D01*
X0174050Y0080404D01*
X0174884Y0080404D02*
X0175718Y0079570D01*
X0176812Y0079570D02*
X0178480Y0079570D01*
X0177646Y0079570D02*
X0177646Y0082072D01*
X0176812Y0081238D01*
X0179575Y0081655D02*
X0179575Y0079987D01*
X0181243Y0081655D01*
X0181243Y0079987D01*
X0180826Y0079570D01*
X0179992Y0079570D01*
X0179575Y0079987D01*
X0179575Y0081655D02*
X0179992Y0082072D01*
X0180826Y0082072D01*
X0181243Y0081655D01*
X0186000Y0074770D02*
X0186000Y0182250D01*
X0293480Y0182250D01*
X0217143Y0133455D02*
X0217143Y0133038D01*
X0216726Y0132621D01*
X0217143Y0132204D01*
X0217143Y0131787D01*
X0216726Y0131370D01*
X0215892Y0131370D01*
X0215475Y0131787D01*
X0214380Y0131370D02*
X0212712Y0131370D01*
X0213546Y0131370D02*
X0213546Y0133872D01*
X0212712Y0133038D01*
X0211618Y0132621D02*
X0211201Y0132204D01*
X0209950Y0132204D01*
X0209950Y0131370D02*
X0209950Y0133872D01*
X0211201Y0133872D01*
X0211618Y0133455D01*
X0211618Y0132621D01*
X0210784Y0132204D02*
X0211618Y0131370D01*
X0215475Y0133455D02*
X0215892Y0133872D01*
X0216726Y0133872D01*
X0217143Y0133455D01*
X0216726Y0132621D02*
X0216309Y0132621D01*
X0204643Y0148670D02*
X0202975Y0148670D01*
X0204643Y0150338D01*
X0204643Y0150755D01*
X0204226Y0151172D01*
X0203392Y0151172D01*
X0202975Y0150755D01*
X0201046Y0151172D02*
X0201046Y0148670D01*
X0200212Y0148670D02*
X0201880Y0148670D01*
X0200212Y0150338D02*
X0201046Y0151172D01*
X0199118Y0150755D02*
X0199118Y0149921D01*
X0198701Y0149504D01*
X0197450Y0149504D01*
X0197450Y0148670D02*
X0197450Y0151172D01*
X0198701Y0151172D01*
X0199118Y0150755D01*
X0198284Y0149504D02*
X0199118Y0148670D01*
X0183164Y0152540D02*
X0181496Y0152540D01*
X0183164Y0154208D01*
X0183164Y0154625D01*
X0182747Y0155042D01*
X0181913Y0155042D01*
X0181496Y0154625D01*
X0180402Y0155042D02*
X0180402Y0152957D01*
X0179985Y0152540D01*
X0179151Y0152540D01*
X0178734Y0152957D01*
X0178734Y0155042D01*
X0161256Y0152172D02*
X0159588Y0152172D01*
X0159588Y0150921D01*
X0160422Y0151338D01*
X0160839Y0151338D01*
X0161256Y0150921D01*
X0161256Y0150087D01*
X0160839Y0149670D01*
X0160005Y0149670D01*
X0159588Y0150087D01*
X0158493Y0150087D02*
X0158076Y0149670D01*
X0157242Y0149670D01*
X0156825Y0150087D01*
X0156825Y0151755D01*
X0157242Y0152172D01*
X0158076Y0152172D01*
X0158493Y0151755D01*
X0171544Y0141308D02*
X0171546Y0141347D01*
X0171552Y0141386D01*
X0171562Y0141424D01*
X0171575Y0141461D01*
X0171592Y0141496D01*
X0171612Y0141530D01*
X0171636Y0141561D01*
X0171663Y0141590D01*
X0171692Y0141616D01*
X0171724Y0141639D01*
X0171758Y0141659D01*
X0171794Y0141675D01*
X0171831Y0141687D01*
X0171870Y0141696D01*
X0171909Y0141701D01*
X0171948Y0141702D01*
X0171987Y0141699D01*
X0172026Y0141692D01*
X0172063Y0141681D01*
X0172100Y0141667D01*
X0172135Y0141649D01*
X0172168Y0141628D01*
X0172199Y0141603D01*
X0172227Y0141576D01*
X0172252Y0141546D01*
X0172274Y0141513D01*
X0172293Y0141479D01*
X0172308Y0141443D01*
X0172320Y0141405D01*
X0172328Y0141367D01*
X0172332Y0141328D01*
X0172332Y0141288D01*
X0172328Y0141249D01*
X0172320Y0141211D01*
X0172308Y0141173D01*
X0172293Y0141137D01*
X0172274Y0141103D01*
X0172252Y0141070D01*
X0172227Y0141040D01*
X0172199Y0141013D01*
X0172168Y0140988D01*
X0172135Y0140967D01*
X0172100Y0140949D01*
X0172063Y0140935D01*
X0172026Y0140924D01*
X0171987Y0140917D01*
X0171948Y0140914D01*
X0171909Y0140915D01*
X0171870Y0140920D01*
X0171831Y0140929D01*
X0171794Y0140941D01*
X0171758Y0140957D01*
X0171724Y0140977D01*
X0171692Y0141000D01*
X0171663Y0141026D01*
X0171636Y0141055D01*
X0171612Y0141086D01*
X0171592Y0141120D01*
X0171575Y0141155D01*
X0171562Y0141192D01*
X0171552Y0141230D01*
X0171546Y0141269D01*
X0171544Y0141308D01*
X0166000Y0131409D02*
X0163498Y0131409D01*
X0164749Y0130158D01*
X0164749Y0131826D01*
X0165583Y0129063D02*
X0166000Y0128646D01*
X0166000Y0127812D01*
X0165583Y0127395D01*
X0163915Y0127395D01*
X0163498Y0127812D01*
X0163498Y0128646D01*
X0163915Y0129063D01*
X0149750Y0134120D02*
X0149750Y0135371D01*
X0149333Y0135788D01*
X0147665Y0135788D01*
X0147248Y0135371D01*
X0147248Y0134120D01*
X0149750Y0134120D01*
X0149750Y0136882D02*
X0149750Y0138551D01*
X0149750Y0137716D02*
X0147248Y0137716D01*
X0148082Y0136882D01*
X0142050Y0136682D02*
X0140382Y0138351D01*
X0139965Y0138351D01*
X0139548Y0137933D01*
X0139548Y0137099D01*
X0139965Y0136682D01*
X0139965Y0135588D02*
X0139548Y0135171D01*
X0139548Y0133920D01*
X0142050Y0133920D01*
X0142050Y0135171D01*
X0141633Y0135588D01*
X0139965Y0135588D01*
X0142050Y0136682D02*
X0142050Y0138351D01*
X0134450Y0137809D02*
X0134450Y0136975D01*
X0134033Y0136558D01*
X0134033Y0135463D02*
X0132365Y0135463D01*
X0131948Y0135046D01*
X0131948Y0133795D01*
X0134450Y0133795D01*
X0134450Y0135046D01*
X0134033Y0135463D01*
X0132365Y0136558D02*
X0131948Y0136975D01*
X0131948Y0137809D01*
X0132365Y0138226D01*
X0132782Y0138226D01*
X0133199Y0137809D01*
X0133616Y0138226D01*
X0134033Y0138226D01*
X0134450Y0137809D01*
X0133199Y0137809D02*
X0133199Y0137392D01*
X0125450Y0138233D02*
X0122948Y0138233D01*
X0124199Y0136982D01*
X0124199Y0138651D01*
X0125033Y0135888D02*
X0123365Y0135888D01*
X0122948Y0135471D01*
X0122948Y0134220D01*
X0125450Y0134220D01*
X0125450Y0135471D01*
X0125033Y0135888D01*
X0117350Y0135346D02*
X0117350Y0134095D01*
X0114848Y0134095D01*
X0114848Y0135346D01*
X0115265Y0135763D01*
X0116933Y0135763D01*
X0117350Y0135346D01*
X0116933Y0136858D02*
X0117350Y0137275D01*
X0117350Y0138109D01*
X0116933Y0138526D01*
X0116099Y0138526D01*
X0115682Y0138109D01*
X0115682Y0137692D01*
X0116099Y0136858D01*
X0114848Y0136858D01*
X0114848Y0138526D01*
X0107950Y0138309D02*
X0107533Y0138726D01*
X0107116Y0138726D01*
X0106699Y0138309D01*
X0106699Y0137058D01*
X0107533Y0137058D01*
X0107950Y0137475D01*
X0107950Y0138309D01*
X0106699Y0137058D02*
X0105865Y0137892D01*
X0105448Y0138726D01*
X0105865Y0135963D02*
X0105448Y0135546D01*
X0105448Y0134295D01*
X0107950Y0134295D01*
X0107950Y0135546D01*
X0107533Y0135963D01*
X0105865Y0135963D01*
X0100250Y0135371D02*
X0100250Y0134120D01*
X0097748Y0134120D01*
X0097748Y0135371D01*
X0098165Y0135788D01*
X0099833Y0135788D01*
X0100250Y0135371D01*
X0100250Y0136882D02*
X0099833Y0136882D01*
X0098165Y0138551D01*
X0097748Y0138551D01*
X0097748Y0136882D01*
X0093150Y0137099D02*
X0092733Y0136682D01*
X0092316Y0136682D01*
X0091899Y0137099D01*
X0091899Y0137933D01*
X0092316Y0138351D01*
X0092733Y0138351D01*
X0093150Y0137933D01*
X0093150Y0137099D01*
X0091899Y0137099D02*
X0091482Y0136682D01*
X0091065Y0136682D01*
X0090648Y0137099D01*
X0090648Y0137933D01*
X0091065Y0138351D01*
X0091482Y0138351D01*
X0091899Y0137933D01*
X0092733Y0135588D02*
X0091065Y0135588D01*
X0090648Y0135171D01*
X0090648Y0133920D01*
X0093150Y0133920D01*
X0093150Y0135171D01*
X0092733Y0135588D01*
X0086050Y0135471D02*
X0086050Y0134220D01*
X0083548Y0134220D01*
X0083548Y0135471D01*
X0083965Y0135888D01*
X0085633Y0135888D01*
X0086050Y0135471D01*
X0085633Y0136982D02*
X0086050Y0137399D01*
X0086050Y0138233D01*
X0085633Y0138651D01*
X0083965Y0138651D01*
X0083548Y0138233D01*
X0083548Y0137399D01*
X0083965Y0136982D01*
X0084382Y0136982D01*
X0084799Y0137399D01*
X0084799Y0138651D01*
X0077000Y0140195D02*
X0074498Y0140195D01*
X0074498Y0141446D01*
X0074915Y0141863D01*
X0075749Y0141863D01*
X0076166Y0141446D01*
X0076166Y0140195D01*
X0076166Y0141029D02*
X0077000Y0141863D01*
X0077000Y0142958D02*
X0077000Y0144626D01*
X0077000Y0143792D02*
X0074498Y0143792D01*
X0075332Y0142958D01*
X0067000Y0143626D02*
X0067000Y0141958D01*
X0065332Y0143626D01*
X0064915Y0143626D01*
X0064498Y0143209D01*
X0064498Y0142375D01*
X0064915Y0141958D01*
X0064915Y0140863D02*
X0065749Y0140863D01*
X0066166Y0140446D01*
X0066166Y0139195D01*
X0067000Y0139195D02*
X0064498Y0139195D01*
X0064498Y0140446D01*
X0064915Y0140863D01*
X0066166Y0140029D02*
X0067000Y0140863D01*
X0056000Y0140195D02*
X0053498Y0140195D01*
X0053498Y0141446D01*
X0053915Y0141863D01*
X0054749Y0141863D01*
X0055166Y0141446D01*
X0055166Y0140195D01*
X0055166Y0141029D02*
X0056000Y0141863D01*
X0055583Y0142958D02*
X0056000Y0143375D01*
X0056000Y0144209D01*
X0055583Y0144626D01*
X0055166Y0144626D01*
X0054749Y0144209D01*
X0054749Y0143792D01*
X0054749Y0144209D02*
X0054332Y0144626D01*
X0053915Y0144626D01*
X0053498Y0144209D01*
X0053498Y0143375D01*
X0053915Y0142958D01*
X0047000Y0141863D02*
X0046166Y0141029D01*
X0046166Y0141446D02*
X0046166Y0140195D01*
X0047000Y0140195D02*
X0044498Y0140195D01*
X0044498Y0141446D01*
X0044915Y0141863D01*
X0045749Y0141863D01*
X0046166Y0141446D01*
X0045749Y0142958D02*
X0044498Y0144209D01*
X0047000Y0144209D01*
X0045749Y0144626D02*
X0045749Y0142958D01*
X0044906Y0116224D02*
X0045656Y0115473D01*
X0045656Y0114723D01*
X0044906Y0113972D01*
X0045656Y0113221D01*
X0045656Y0112471D01*
X0044906Y0111720D01*
X0043405Y0111720D01*
X0042654Y0112471D01*
X0041053Y0113221D02*
X0039551Y0111720D01*
X0038050Y0113221D01*
X0038050Y0116224D01*
X0041053Y0116224D02*
X0041053Y0113221D01*
X0042654Y0115473D02*
X0043405Y0116224D01*
X0044906Y0116224D01*
X0044906Y0113972D02*
X0044155Y0113972D01*
X0047258Y0112471D02*
X0048008Y0111720D01*
X0049510Y0111720D01*
X0050260Y0112471D01*
X0050260Y0113221D01*
X0049510Y0113972D01*
X0048759Y0113972D01*
X0049510Y0113972D02*
X0050260Y0114723D01*
X0050260Y0115473D01*
X0049510Y0116224D01*
X0048008Y0116224D01*
X0047258Y0115473D01*
X0060750Y0116424D02*
X0060750Y0113421D01*
X0062251Y0111920D01*
X0063753Y0113421D01*
X0063753Y0116424D01*
X0065354Y0116424D02*
X0065354Y0114172D01*
X0066855Y0114923D01*
X0067606Y0114923D01*
X0068356Y0114172D01*
X0068356Y0112671D01*
X0067606Y0111920D01*
X0066105Y0111920D01*
X0065354Y0112671D01*
X0065354Y0116424D02*
X0068356Y0116424D01*
X0069958Y0115673D02*
X0070708Y0116424D01*
X0072210Y0116424D01*
X0072960Y0115673D01*
X0069958Y0112671D01*
X0070708Y0111920D01*
X0072210Y0111920D01*
X0072960Y0112671D01*
X0072960Y0115673D01*
X0069958Y0115673D02*
X0069958Y0112671D01*
X0084348Y0099141D02*
X0084348Y0097473D01*
X0086850Y0097473D01*
X0086850Y0099141D01*
X0085599Y0098307D02*
X0085599Y0097473D01*
X0085599Y0096379D02*
X0085599Y0095545D01*
X0085599Y0096379D02*
X0086433Y0096379D01*
X0086850Y0095962D01*
X0086850Y0095128D01*
X0086433Y0094711D01*
X0084765Y0094711D01*
X0084348Y0095128D01*
X0084348Y0095962D01*
X0084765Y0096379D01*
X0084765Y0093617D02*
X0084348Y0093200D01*
X0084348Y0091949D01*
X0086850Y0091949D01*
X0086850Y0093200D01*
X0086433Y0093617D01*
X0084765Y0093617D01*
X0084348Y0090941D02*
X0084348Y0090107D01*
X0084348Y0090524D02*
X0086850Y0090524D01*
X0086850Y0090107D02*
X0086850Y0090941D01*
X0086850Y0089013D02*
X0086016Y0088179D01*
X0086016Y0088596D02*
X0086016Y0087345D01*
X0086850Y0087345D02*
X0084348Y0087345D01*
X0084348Y0088596D01*
X0084765Y0089013D01*
X0085599Y0089013D01*
X0086016Y0088596D01*
X0086016Y0086251D02*
X0086433Y0086251D01*
X0086850Y0085833D01*
X0086850Y0084582D01*
X0084348Y0084582D01*
X0084348Y0085833D01*
X0084765Y0086251D01*
X0085182Y0086251D01*
X0085599Y0085833D01*
X0085599Y0084582D01*
X0085599Y0083488D02*
X0085599Y0081820D01*
X0086850Y0081820D02*
X0084348Y0081820D01*
X0084348Y0083488D02*
X0086850Y0083488D01*
X0085599Y0085833D02*
X0086016Y0086251D01*
X0068549Y0093020D02*
X0065546Y0093020D01*
X0067047Y0093020D02*
X0067047Y0097524D01*
X0065546Y0096023D01*
X0063945Y0096773D02*
X0063945Y0095272D01*
X0063194Y0094521D01*
X0060942Y0094521D01*
X0060942Y0093020D02*
X0060942Y0097524D01*
X0063194Y0097524D01*
X0063945Y0096773D01*
X0059341Y0097524D02*
X0057839Y0097524D01*
X0058590Y0097524D02*
X0058590Y0093771D01*
X0057839Y0093020D01*
X0057089Y0093020D01*
X0056338Y0093771D01*
X0046822Y0084472D02*
X0046822Y0081970D01*
X0045988Y0081970D02*
X0047656Y0081970D01*
X0045988Y0083638D02*
X0046822Y0084472D01*
X0044893Y0084055D02*
X0044476Y0084472D01*
X0043642Y0084472D01*
X0043225Y0084055D01*
X0043225Y0082387D01*
X0043642Y0081970D01*
X0044476Y0081970D01*
X0044893Y0082387D01*
X0036656Y0084270D02*
X0034988Y0084270D01*
X0036656Y0085938D01*
X0036656Y0086355D01*
X0036239Y0086772D01*
X0035405Y0086772D01*
X0034988Y0086355D01*
X0033893Y0086355D02*
X0033476Y0086772D01*
X0032642Y0086772D01*
X0032225Y0086355D01*
X0032225Y0084687D01*
X0032642Y0084270D01*
X0033476Y0084270D01*
X0033893Y0084687D01*
X0017880Y0068572D02*
X0016212Y0068572D01*
X0016212Y0067321D01*
X0017046Y0067738D01*
X0017463Y0067738D01*
X0017880Y0067321D01*
X0017880Y0066487D01*
X0017463Y0066070D01*
X0016629Y0066070D01*
X0016212Y0066487D01*
X0015118Y0066070D02*
X0014284Y0066904D01*
X0014701Y0066904D02*
X0013450Y0066904D01*
X0013450Y0066070D02*
X0013450Y0068572D01*
X0014701Y0068572D01*
X0015118Y0068155D01*
X0015118Y0067321D01*
X0014701Y0066904D01*
X0015199Y0060230D02*
X0012197Y0060230D01*
X0011446Y0059480D01*
X0011446Y0057228D01*
X0015950Y0057228D01*
X0015950Y0059480D01*
X0015199Y0060230D01*
X0015950Y0055627D02*
X0011446Y0055627D01*
X0011446Y0052624D02*
X0015950Y0055627D01*
X0015950Y0052624D02*
X0011446Y0052624D01*
X0012197Y0051023D02*
X0011446Y0050272D01*
X0011446Y0048771D01*
X0012197Y0048020D01*
X0015199Y0048020D01*
X0015950Y0048771D01*
X0015950Y0050272D01*
X0015199Y0051023D01*
X0013698Y0051023D01*
X0013698Y0049521D01*
X0009000Y0077220D02*
X0006498Y0077220D01*
X0006498Y0078471D01*
X0006915Y0078888D01*
X0007749Y0078888D01*
X0008166Y0078471D01*
X0008166Y0077220D01*
X0008166Y0078054D02*
X0009000Y0078888D01*
X0008583Y0079982D02*
X0009000Y0080399D01*
X0009000Y0081233D01*
X0008583Y0081651D01*
X0008166Y0081651D01*
X0007749Y0081233D01*
X0007749Y0079982D01*
X0008583Y0079982D01*
X0007749Y0079982D02*
X0006915Y0080816D01*
X0006498Y0081651D01*
X0081398Y0071092D02*
X0083900Y0071092D01*
X0083900Y0070258D02*
X0083900Y0071926D01*
X0082232Y0070258D02*
X0081398Y0071092D01*
X0081398Y0068329D02*
X0083900Y0068329D01*
X0083900Y0067495D02*
X0083900Y0069163D01*
X0082232Y0067495D02*
X0081398Y0068329D01*
X0081815Y0066401D02*
X0082649Y0066401D01*
X0083066Y0065984D01*
X0083066Y0064733D01*
X0083900Y0064733D02*
X0081398Y0064733D01*
X0081398Y0065984D01*
X0081815Y0066401D01*
X0083066Y0065567D02*
X0083900Y0066401D01*
X0113150Y0087220D02*
X0113150Y0091724D01*
X0114651Y0090223D01*
X0116153Y0091724D01*
X0116153Y0087220D01*
X0117754Y0087220D02*
X0120756Y0087220D01*
X0119255Y0087220D02*
X0119255Y0091724D01*
X0117754Y0090223D01*
X0122358Y0089472D02*
X0125360Y0089472D01*
X0123859Y0090973D02*
X0123859Y0087971D01*
X0186000Y0074770D02*
X0293480Y0074770D01*
X0183300Y0127312D02*
X0183300Y0128146D01*
X0182883Y0128563D01*
X0182883Y0129658D02*
X0183300Y0130075D01*
X0183300Y0130909D01*
X0182883Y0131326D01*
X0182466Y0131326D01*
X0182049Y0130909D01*
X0182049Y0130492D01*
X0182049Y0130909D02*
X0181632Y0131326D01*
X0181215Y0131326D01*
X0180798Y0130909D01*
X0180798Y0130075D01*
X0181215Y0129658D01*
X0181215Y0128563D02*
X0180798Y0128146D01*
X0180798Y0127312D01*
X0181215Y0126895D01*
X0182883Y0126895D01*
X0183300Y0127312D01*
X0127986Y0033370D02*
X0127988Y0033445D01*
X0127994Y0033519D01*
X0128004Y0033593D01*
X0128017Y0033666D01*
X0128035Y0033739D01*
X0128056Y0033810D01*
X0128081Y0033881D01*
X0128110Y0033950D01*
X0128143Y0034017D01*
X0128179Y0034082D01*
X0128218Y0034146D01*
X0128260Y0034207D01*
X0128306Y0034266D01*
X0128355Y0034323D01*
X0128407Y0034376D01*
X0128461Y0034427D01*
X0128518Y0034476D01*
X0128578Y0034520D01*
X0128640Y0034562D01*
X0128704Y0034601D01*
X0128770Y0034636D01*
X0128837Y0034667D01*
X0128907Y0034695D01*
X0128977Y0034719D01*
X0129049Y0034740D01*
X0129122Y0034756D01*
X0129195Y0034769D01*
X0129270Y0034778D01*
X0129344Y0034783D01*
X0129419Y0034784D01*
X0129493Y0034781D01*
X0129568Y0034774D01*
X0129641Y0034763D01*
X0129715Y0034749D01*
X0129787Y0034730D01*
X0129858Y0034708D01*
X0129928Y0034682D01*
X0129997Y0034652D01*
X0130063Y0034619D01*
X0130128Y0034582D01*
X0130191Y0034542D01*
X0130252Y0034498D01*
X0130310Y0034452D01*
X0130366Y0034402D01*
X0130419Y0034350D01*
X0130470Y0034295D01*
X0130517Y0034237D01*
X0130561Y0034177D01*
X0130602Y0034114D01*
X0130640Y0034050D01*
X0130674Y0033984D01*
X0130705Y0033915D01*
X0130732Y0033846D01*
X0130755Y0033775D01*
X0130774Y0033703D01*
X0130790Y0033630D01*
X0130802Y0033556D01*
X0130810Y0033482D01*
X0130814Y0033407D01*
X0130814Y0033333D01*
X0130810Y0033258D01*
X0130802Y0033184D01*
X0130790Y0033110D01*
X0130774Y0033037D01*
X0130755Y0032965D01*
X0130732Y0032894D01*
X0130705Y0032825D01*
X0130674Y0032756D01*
X0130640Y0032690D01*
X0130602Y0032626D01*
X0130561Y0032563D01*
X0130517Y0032503D01*
X0130470Y0032445D01*
X0130419Y0032390D01*
X0130366Y0032338D01*
X0130310Y0032288D01*
X0130252Y0032242D01*
X0130191Y0032198D01*
X0130128Y0032158D01*
X0130063Y0032121D01*
X0129997Y0032088D01*
X0129928Y0032058D01*
X0129858Y0032032D01*
X0129787Y0032010D01*
X0129715Y0031991D01*
X0129641Y0031977D01*
X0129568Y0031966D01*
X0129493Y0031959D01*
X0129419Y0031956D01*
X0129344Y0031957D01*
X0129270Y0031962D01*
X0129195Y0031971D01*
X0129122Y0031984D01*
X0129049Y0032000D01*
X0128977Y0032021D01*
X0128907Y0032045D01*
X0128837Y0032073D01*
X0128770Y0032104D01*
X0128704Y0032139D01*
X0128640Y0032178D01*
X0128578Y0032220D01*
X0128518Y0032264D01*
X0128461Y0032313D01*
X0128407Y0032364D01*
X0128355Y0032417D01*
X0128306Y0032474D01*
X0128260Y0032533D01*
X0128218Y0032594D01*
X0128179Y0032658D01*
X0128143Y0032723D01*
X0128110Y0032790D01*
X0128081Y0032859D01*
X0128056Y0032930D01*
X0128035Y0033001D01*
X0128017Y0033074D01*
X0128004Y0033147D01*
X0127994Y0033221D01*
X0127988Y0033295D01*
X0127986Y0033370D01*
X0171798Y0029133D02*
X0171798Y0028299D01*
X0172215Y0027882D01*
X0172632Y0027882D01*
X0173049Y0028299D01*
X0173049Y0029551D01*
X0173883Y0029551D02*
X0172215Y0029551D01*
X0171798Y0029133D01*
X0173883Y0029551D02*
X0174300Y0029133D01*
X0174300Y0028299D01*
X0173883Y0027882D01*
X0174300Y0026788D02*
X0173466Y0025954D01*
X0173466Y0026371D02*
X0173466Y0025120D01*
X0174300Y0025120D02*
X0171798Y0025120D01*
X0171798Y0026371D01*
X0172215Y0026788D01*
X0173049Y0026788D01*
X0173466Y0026371D01*
D13*
X0115622Y0046957D02*
X0101045Y0046957D01*
X0101045Y0047373D01*
X0100767Y0047581D01*
X0111110Y0047581D01*
X0111110Y0047304D01*
X0115622Y0047304D01*
X0115622Y0046957D01*
X0115622Y0047039D02*
X0101045Y0047039D01*
X0101045Y0047238D02*
X0115622Y0047238D01*
X0111110Y0047436D02*
X0100960Y0047436D01*
X0100559Y0047165D02*
X0100420Y0047234D01*
X0100281Y0047026D01*
X0100281Y0046887D01*
X0100420Y0046887D01*
X0100420Y0046957D01*
X0100559Y0046887D02*
X0100559Y0047165D01*
X0100004Y0047512D02*
X0099587Y0047512D01*
X0099517Y0046957D02*
X0099795Y0046957D01*
X0100698Y0046401D02*
X0100698Y0046332D01*
X0101392Y0046332D01*
X0101392Y0046193D01*
X0101669Y0046193D01*
X0101947Y0046054D01*
X0100073Y0048067D02*
X0099865Y0048345D01*
X0098502Y0049620D02*
X0095712Y0049620D01*
X0095769Y0049733D02*
X0095561Y0049317D01*
X0095561Y0048970D01*
X0098060Y0048970D01*
X0098129Y0049247D01*
X0098615Y0049733D01*
X0095769Y0049733D01*
X0095613Y0049421D02*
X0098303Y0049421D01*
X0098123Y0049223D02*
X0095561Y0049223D01*
X0095561Y0049024D02*
X0098074Y0049024D01*
X0097574Y0048622D02*
X0097296Y0048484D01*
X0096880Y0048345D02*
X0096671Y0048276D01*
X0096880Y0048067D01*
X0096949Y0048067D02*
X0096880Y0048345D01*
X0096671Y0048622D02*
X0095491Y0048622D01*
X0095352Y0048067D01*
X0095491Y0048067D01*
X0095630Y0048206D01*
X0095700Y0048414D01*
X0096394Y0048553D01*
X0096394Y0048067D02*
X0095908Y0048067D01*
X0095977Y0047512D02*
X0096394Y0047165D01*
X0096463Y0047234D01*
X0096463Y0047304D01*
X0096741Y0047304D01*
X0096880Y0047234D02*
X0096880Y0047512D01*
X0095977Y0047512D01*
X0095630Y0047512D02*
X0095352Y0047512D01*
X0095352Y0047234D01*
X0094936Y0047234D01*
X0094936Y0047304D01*
X0094589Y0047304D01*
X0094589Y0047443D01*
X0093756Y0047443D01*
X0093756Y0047512D01*
X0093270Y0047512D01*
X0093270Y0047581D01*
X0092923Y0047581D01*
X0092923Y0047512D01*
X0091812Y0047512D01*
X0091812Y0047373D01*
X0091396Y0047373D01*
X0091396Y0047234D01*
X0091187Y0047234D01*
X0091187Y0047304D01*
X0090979Y0047304D01*
X0090979Y0047443D01*
X0090493Y0047443D01*
X0090493Y0047304D01*
X0089452Y0047304D01*
X0089313Y0047165D01*
X0089313Y0047026D01*
X0089174Y0046887D01*
X0089035Y0046748D01*
X0090354Y0046748D01*
X0090493Y0046609D01*
X0090702Y0046609D01*
X0090771Y0046679D01*
X0091118Y0046679D01*
X0091743Y0046679D01*
X0091743Y0046609D01*
X0092090Y0046609D01*
X0092090Y0046887D01*
X0092229Y0047026D01*
X0092368Y0047026D01*
X0092715Y0046679D01*
X0092923Y0046748D01*
X0093270Y0046887D01*
X0093270Y0047026D01*
X0093756Y0047026D01*
X0093756Y0046957D01*
X0094450Y0046957D01*
X0094867Y0046887D01*
X0095075Y0046748D01*
X0094797Y0046679D01*
X0094172Y0046332D01*
X0093825Y0046332D01*
X0093756Y0046540D01*
X0093478Y0046540D01*
X0093339Y0046401D01*
X0092992Y0046193D01*
X0092854Y0045985D01*
X0092715Y0045985D01*
X0092645Y0046124D01*
X0092229Y0046124D01*
X0092020Y0045985D01*
X0091812Y0045637D01*
X0091604Y0045637D01*
X0091326Y0045985D01*
X0090910Y0045985D01*
X0090910Y0045915D01*
X0091118Y0045915D01*
X0091257Y0045637D01*
X0091118Y0045499D01*
X0090910Y0045499D01*
X0091048Y0045221D01*
X0091881Y0045221D01*
X0092090Y0045013D01*
X0092020Y0044874D01*
X0090632Y0044805D01*
X0090493Y0044596D01*
X0090354Y0044527D01*
X0090007Y0044527D01*
X0089869Y0044388D01*
X0089035Y0044180D01*
X0089869Y0044110D01*
X0089938Y0044041D01*
X0092020Y0044041D01*
X0092229Y0043902D01*
X0092923Y0043902D01*
X0093131Y0043694D01*
X0093131Y0043416D01*
X0094381Y0043416D01*
X0094797Y0043139D01*
X0095006Y0043139D01*
X0095561Y0043347D01*
X0096394Y0043347D01*
X0096741Y0043139D01*
X0096810Y0042861D01*
X0098546Y0042861D01*
X0098198Y0043000D01*
X0098198Y0043208D01*
X0098407Y0043278D01*
X0098337Y0043347D01*
X0097713Y0043347D01*
X0097713Y0043208D01*
X0097366Y0043208D01*
X0097366Y0043347D01*
X0096949Y0043347D01*
X0096949Y0043069D01*
X0097990Y0043069D01*
X0097990Y0043139D01*
X0097088Y0043139D01*
X0097157Y0042514D02*
X0100212Y0042514D01*
X0100212Y0042375D01*
X0100767Y0042375D01*
X0100767Y0042514D01*
X0101392Y0042514D01*
X0101392Y0041958D01*
X0101669Y0041958D01*
X0101808Y0042097D01*
X0102017Y0042097D01*
X0102294Y0042375D01*
X0102572Y0042097D01*
X0102850Y0042097D01*
X0103127Y0042375D01*
X0103127Y0042236D01*
X0103960Y0042236D01*
X0103960Y0042514D01*
X0109375Y0042514D01*
X0109167Y0042306D01*
X0109167Y0042236D01*
X0113609Y0042236D01*
X0113262Y0041889D01*
X0097713Y0041889D01*
X0097157Y0042514D01*
X0097193Y0042474D02*
X0100212Y0042474D01*
X0100767Y0042474D02*
X0101392Y0042474D01*
X0101392Y0042275D02*
X0097370Y0042275D01*
X0097546Y0042077D02*
X0101392Y0042077D01*
X0101788Y0042077D02*
X0113450Y0042077D01*
X0109335Y0042474D02*
X0103960Y0042474D01*
X0103960Y0042275D02*
X0109167Y0042275D01*
X0103127Y0042275D02*
X0103027Y0042275D01*
X0102394Y0042275D02*
X0102194Y0042275D01*
X0097990Y0047443D02*
X0097921Y0047512D01*
X0097366Y0047443D02*
X0097296Y0047443D01*
X0097366Y0047373D01*
X0097713Y0048206D02*
X0097852Y0048345D01*
X0091118Y0046748D02*
X0091118Y0046679D01*
X0089035Y0046748D02*
X0088758Y0046748D01*
D14*
X0095908Y0050080D02*
X0098615Y0050080D01*
X0098685Y0050289D01*
X0098962Y0050566D01*
X0096255Y0050566D01*
X0095908Y0050080D01*
X0096069Y0050306D02*
X0098702Y0050306D01*
X0098937Y0050541D02*
X0096237Y0050541D01*
X0096533Y0051122D02*
X0099656Y0051122D01*
X0099934Y0051469D01*
X0099934Y0051538D01*
X0100212Y0051677D01*
X0097019Y0051677D01*
X0096533Y0051122D01*
X0096641Y0051245D02*
X0099755Y0051245D01*
X0099934Y0051480D02*
X0096846Y0051480D01*
X0097296Y0052163D02*
X0100281Y0052163D01*
X0100420Y0052302D01*
X0100420Y0052649D01*
X0097852Y0052649D01*
X0097296Y0052163D01*
X0097320Y0052184D02*
X0100302Y0052184D01*
X0100420Y0052419D02*
X0097589Y0052419D01*
X0098476Y0053135D02*
X0100420Y0053135D01*
X0100559Y0053343D01*
X0100837Y0053412D01*
X0101045Y0053690D01*
X0099517Y0053690D01*
X0098476Y0053135D01*
X0098894Y0053358D02*
X0100618Y0053358D01*
X0100972Y0053592D02*
X0099334Y0053592D01*
X0100489Y0054176D02*
X0101392Y0054176D01*
X0101600Y0054384D01*
X0101461Y0054384D01*
X0100489Y0054176D01*
X0101052Y0054297D02*
X0101512Y0054297D01*
X0102641Y0053412D02*
X0102850Y0053690D01*
X0106876Y0053690D01*
X0107154Y0053412D01*
X0112013Y0053412D01*
X0112568Y0053135D01*
X0102502Y0053135D01*
X0102641Y0053274D01*
X0102641Y0053412D01*
X0102641Y0053358D02*
X0112122Y0053358D01*
X0113401Y0052371D02*
X0113609Y0052163D01*
X0102225Y0052163D01*
X0102364Y0052302D01*
X0102364Y0052649D01*
X0108611Y0052649D01*
X0108750Y0052371D01*
X0113401Y0052371D01*
X0113588Y0052184D02*
X0102246Y0052184D01*
X0102364Y0052419D02*
X0108726Y0052419D01*
X0108403Y0051677D02*
X0109444Y0051607D01*
X0109514Y0051469D01*
X0114165Y0051469D01*
X0114442Y0051122D01*
X0101461Y0051122D01*
X0101461Y0051191D01*
X0101878Y0051677D01*
X0108403Y0051677D01*
X0109508Y0051480D02*
X0101709Y0051480D01*
X0101507Y0051245D02*
X0114343Y0051245D01*
X0114859Y0050358D02*
X0114998Y0050080D01*
X0100420Y0050080D01*
X0100420Y0050219D01*
X0100767Y0050635D01*
X0110208Y0050635D01*
X0110485Y0050358D01*
X0114859Y0050358D01*
X0114885Y0050306D02*
X0100492Y0050306D01*
X0100688Y0050541D02*
X0110302Y0050541D01*
X0110555Y0049733D02*
X0110902Y0049386D01*
X0110971Y0049317D01*
X0115275Y0049317D01*
X0115344Y0048970D01*
X0100142Y0048970D01*
X0100142Y0049733D01*
X0110555Y0049733D01*
X0110686Y0049602D02*
X0100142Y0049602D01*
X0100142Y0049367D02*
X0110921Y0049367D01*
X0110971Y0048622D02*
X0110971Y0048345D01*
X0115622Y0048345D01*
X0115622Y0048067D01*
X0100489Y0048067D01*
X0100350Y0048622D01*
X0110971Y0048622D01*
X0110971Y0048428D02*
X0100399Y0048428D01*
X0100458Y0048194D02*
X0115622Y0048194D01*
X0115312Y0049133D02*
X0100142Y0049133D01*
X0102017Y0046540D02*
X0111041Y0046540D01*
X0111041Y0046401D01*
X0115622Y0046401D01*
X0115553Y0045915D01*
X0107431Y0045915D01*
X0107292Y0046401D01*
X0107015Y0046401D01*
X0106876Y0046193D01*
X0106598Y0046193D01*
X0106529Y0046332D01*
X0106043Y0046332D01*
X0105904Y0046193D01*
X0105904Y0046470D01*
X0105210Y0046470D01*
X0105071Y0046540D01*
X0104030Y0046540D01*
X0103752Y0046332D01*
X0103196Y0046332D01*
X0103196Y0046193D01*
X0102850Y0046193D01*
X0102017Y0046540D01*
X0102555Y0046316D02*
X0103196Y0046316D01*
X0105904Y0046316D02*
X0106027Y0046316D01*
X0106537Y0046316D02*
X0106958Y0046316D01*
X0107317Y0046316D02*
X0115610Y0046316D01*
X0115577Y0046081D02*
X0107384Y0046081D01*
X0107743Y0045377D02*
X0109085Y0045377D01*
X0109028Y0045291D02*
X0109167Y0045499D01*
X0109583Y0045499D01*
X0109583Y0045360D01*
X0110000Y0045360D01*
X0110000Y0045013D01*
X0115275Y0045013D01*
X0115344Y0045152D01*
X0115344Y0045291D01*
X0110971Y0045291D01*
X0110971Y0045568D01*
X0108125Y0045568D01*
X0107570Y0045291D01*
X0109028Y0045291D01*
X0109583Y0045377D02*
X0110971Y0045377D01*
X0110624Y0044527D02*
X0110624Y0044249D01*
X0114998Y0044249D01*
X0114789Y0043902D01*
X0108681Y0043902D01*
X0108542Y0044180D01*
X0109167Y0044180D01*
X0109306Y0044041D01*
X0109583Y0044041D01*
X0110069Y0044110D01*
X0110138Y0044249D01*
X0110138Y0044388D01*
X0109444Y0044388D01*
X0109444Y0044457D01*
X0110277Y0044457D01*
X0110485Y0044388D01*
X0110555Y0044527D01*
X0110624Y0044527D01*
X0110624Y0044438D02*
X0110510Y0044438D01*
X0110336Y0044438D02*
X0109444Y0044438D01*
X0110115Y0044203D02*
X0114970Y0044203D01*
X0114829Y0043968D02*
X0108647Y0043968D01*
X0109167Y0043555D02*
X0107292Y0043555D01*
X0107292Y0043416D01*
X0107223Y0043347D01*
X0106945Y0043347D01*
X0106667Y0043069D01*
X0105973Y0043069D01*
X0105973Y0043000D01*
X0105904Y0042930D01*
X0104793Y0042930D01*
X0104793Y0043069D01*
X0104516Y0043069D01*
X0104516Y0042861D01*
X0114026Y0042861D01*
X0114442Y0043278D01*
X0114442Y0043347D01*
X0110000Y0043347D01*
X0110069Y0043486D01*
X0109236Y0043486D01*
X0109167Y0043555D01*
X0109223Y0043499D02*
X0107292Y0043499D01*
X0106863Y0043264D02*
X0114429Y0043264D01*
X0114194Y0043030D02*
X0105973Y0043030D01*
X0104793Y0043030D02*
X0104516Y0043030D01*
X0107987Y0041195D02*
X0108264Y0041472D01*
X0098129Y0041472D01*
X0099101Y0040848D01*
X0111804Y0040848D01*
X0112429Y0041195D01*
X0107987Y0041195D01*
X0108178Y0041386D02*
X0098263Y0041386D01*
X0098628Y0041152D02*
X0112351Y0041152D01*
X0111929Y0040917D02*
X0098993Y0040917D01*
X0100004Y0040362D02*
X0106390Y0040362D01*
X0106043Y0040084D01*
X0110346Y0040084D01*
X0109236Y0039945D01*
X0101739Y0039945D01*
X0100004Y0040362D01*
X0100625Y0040213D02*
X0106203Y0040213D01*
X0109497Y0039978D02*
X0101603Y0039978D01*
X0110000Y0045142D02*
X0115340Y0045142D01*
X0106973Y0053592D02*
X0102776Y0053592D01*
X0103058Y0054176D02*
X0103266Y0054523D01*
X0108819Y0054523D01*
X0108958Y0054384D01*
X0109514Y0054384D01*
X0109861Y0054245D01*
X0110416Y0054176D01*
X0103058Y0054176D01*
X0103130Y0054297D02*
X0109732Y0054297D01*
D15*
X0183100Y0045770D02*
X0183108Y0046408D01*
X0183131Y0047046D01*
X0183170Y0047683D01*
X0183225Y0048318D01*
X0183296Y0048953D01*
X0183381Y0049585D01*
X0183483Y0050215D01*
X0183600Y0050842D01*
X0183732Y0051467D01*
X0183879Y0052087D01*
X0184042Y0052705D01*
X0184220Y0053317D01*
X0184412Y0053926D01*
X0184620Y0054529D01*
X0184842Y0055127D01*
X0185079Y0055720D01*
X0185331Y0056306D01*
X0185596Y0056886D01*
X0185876Y0057460D01*
X0186170Y0058026D01*
X0186478Y0058585D01*
X0186799Y0059137D01*
X0187134Y0059680D01*
X0187482Y0060215D01*
X0187843Y0060741D01*
X0188217Y0061258D01*
X0188603Y0061766D01*
X0189002Y0062264D01*
X0189413Y0062752D01*
X0189835Y0063231D01*
X0190270Y0063698D01*
X0190715Y0064155D01*
X0191172Y0064600D01*
X0191639Y0065035D01*
X0192118Y0065457D01*
X0192606Y0065868D01*
X0193104Y0066267D01*
X0193612Y0066653D01*
X0194129Y0067027D01*
X0194655Y0067388D01*
X0195190Y0067736D01*
X0195733Y0068071D01*
X0196285Y0068392D01*
X0196844Y0068700D01*
X0197410Y0068994D01*
X0197984Y0069274D01*
X0198564Y0069539D01*
X0199150Y0069791D01*
X0199743Y0070028D01*
X0200341Y0070250D01*
X0200944Y0070458D01*
X0201553Y0070650D01*
X0202165Y0070828D01*
X0202783Y0070991D01*
X0203403Y0071138D01*
X0204028Y0071270D01*
X0204655Y0071387D01*
X0205285Y0071489D01*
X0205917Y0071574D01*
X0206552Y0071645D01*
X0207187Y0071700D01*
X0207824Y0071739D01*
X0208462Y0071762D01*
X0209100Y0071770D01*
X0209738Y0071762D01*
X0210376Y0071739D01*
X0211013Y0071700D01*
X0211648Y0071645D01*
X0212283Y0071574D01*
X0212915Y0071489D01*
X0213545Y0071387D01*
X0214172Y0071270D01*
X0214797Y0071138D01*
X0215417Y0070991D01*
X0216035Y0070828D01*
X0216647Y0070650D01*
X0217256Y0070458D01*
X0217859Y0070250D01*
X0218457Y0070028D01*
X0219050Y0069791D01*
X0219636Y0069539D01*
X0220216Y0069274D01*
X0220790Y0068994D01*
X0221356Y0068700D01*
X0221915Y0068392D01*
X0222467Y0068071D01*
X0223010Y0067736D01*
X0223545Y0067388D01*
X0224071Y0067027D01*
X0224588Y0066653D01*
X0225096Y0066267D01*
X0225594Y0065868D01*
X0226082Y0065457D01*
X0226561Y0065035D01*
X0227028Y0064600D01*
X0227485Y0064155D01*
X0227930Y0063698D01*
X0228365Y0063231D01*
X0228787Y0062752D01*
X0229198Y0062264D01*
X0229597Y0061766D01*
X0229983Y0061258D01*
X0230357Y0060741D01*
X0230718Y0060215D01*
X0231066Y0059680D01*
X0231401Y0059137D01*
X0231722Y0058585D01*
X0232030Y0058026D01*
X0232324Y0057460D01*
X0232604Y0056886D01*
X0232869Y0056306D01*
X0233121Y0055720D01*
X0233358Y0055127D01*
X0233580Y0054529D01*
X0233788Y0053926D01*
X0233980Y0053317D01*
X0234158Y0052705D01*
X0234321Y0052087D01*
X0234468Y0051467D01*
X0234600Y0050842D01*
X0234717Y0050215D01*
X0234819Y0049585D01*
X0234904Y0048953D01*
X0234975Y0048318D01*
X0235030Y0047683D01*
X0235069Y0047046D01*
X0235092Y0046408D01*
X0235100Y0045770D01*
X0235092Y0045132D01*
X0235069Y0044494D01*
X0235030Y0043857D01*
X0234975Y0043222D01*
X0234904Y0042587D01*
X0234819Y0041955D01*
X0234717Y0041325D01*
X0234600Y0040698D01*
X0234468Y0040073D01*
X0234321Y0039453D01*
X0234158Y0038835D01*
X0233980Y0038223D01*
X0233788Y0037614D01*
X0233580Y0037011D01*
X0233358Y0036413D01*
X0233121Y0035820D01*
X0232869Y0035234D01*
X0232604Y0034654D01*
X0232324Y0034080D01*
X0232030Y0033514D01*
X0231722Y0032955D01*
X0231401Y0032403D01*
X0231066Y0031860D01*
X0230718Y0031325D01*
X0230357Y0030799D01*
X0229983Y0030282D01*
X0229597Y0029774D01*
X0229198Y0029276D01*
X0228787Y0028788D01*
X0228365Y0028309D01*
X0227930Y0027842D01*
X0227485Y0027385D01*
X0227028Y0026940D01*
X0226561Y0026505D01*
X0226082Y0026083D01*
X0225594Y0025672D01*
X0225096Y0025273D01*
X0224588Y0024887D01*
X0224071Y0024513D01*
X0223545Y0024152D01*
X0223010Y0023804D01*
X0222467Y0023469D01*
X0221915Y0023148D01*
X0221356Y0022840D01*
X0220790Y0022546D01*
X0220216Y0022266D01*
X0219636Y0022001D01*
X0219050Y0021749D01*
X0218457Y0021512D01*
X0217859Y0021290D01*
X0217256Y0021082D01*
X0216647Y0020890D01*
X0216035Y0020712D01*
X0215417Y0020549D01*
X0214797Y0020402D01*
X0214172Y0020270D01*
X0213545Y0020153D01*
X0212915Y0020051D01*
X0212283Y0019966D01*
X0211648Y0019895D01*
X0211013Y0019840D01*
X0210376Y0019801D01*
X0209738Y0019778D01*
X0209100Y0019770D01*
X0208462Y0019778D01*
X0207824Y0019801D01*
X0207187Y0019840D01*
X0206552Y0019895D01*
X0205917Y0019966D01*
X0205285Y0020051D01*
X0204655Y0020153D01*
X0204028Y0020270D01*
X0203403Y0020402D01*
X0202783Y0020549D01*
X0202165Y0020712D01*
X0201553Y0020890D01*
X0200944Y0021082D01*
X0200341Y0021290D01*
X0199743Y0021512D01*
X0199150Y0021749D01*
X0198564Y0022001D01*
X0197984Y0022266D01*
X0197410Y0022546D01*
X0196844Y0022840D01*
X0196285Y0023148D01*
X0195733Y0023469D01*
X0195190Y0023804D01*
X0194655Y0024152D01*
X0194129Y0024513D01*
X0193612Y0024887D01*
X0193104Y0025273D01*
X0192606Y0025672D01*
X0192118Y0026083D01*
X0191639Y0026505D01*
X0191172Y0026940D01*
X0190715Y0027385D01*
X0190270Y0027842D01*
X0189835Y0028309D01*
X0189413Y0028788D01*
X0189002Y0029276D01*
X0188603Y0029774D01*
X0188217Y0030282D01*
X0187843Y0030799D01*
X0187482Y0031325D01*
X0187134Y0031860D01*
X0186799Y0032403D01*
X0186478Y0032955D01*
X0186170Y0033514D01*
X0185876Y0034080D01*
X0185596Y0034654D01*
X0185331Y0035234D01*
X0185079Y0035820D01*
X0184842Y0036413D01*
X0184620Y0037011D01*
X0184412Y0037614D01*
X0184220Y0038223D01*
X0184042Y0038835D01*
X0183879Y0039453D01*
X0183732Y0040073D01*
X0183600Y0040698D01*
X0183483Y0041325D01*
X0183381Y0041955D01*
X0183296Y0042587D01*
X0183225Y0043222D01*
X0183170Y0043857D01*
X0183131Y0044494D01*
X0183108Y0045132D01*
X0183100Y0045770D01*
X0240500Y0045770D02*
X0240508Y0046408D01*
X0240531Y0047046D01*
X0240570Y0047683D01*
X0240625Y0048318D01*
X0240696Y0048953D01*
X0240781Y0049585D01*
X0240883Y0050215D01*
X0241000Y0050842D01*
X0241132Y0051467D01*
X0241279Y0052087D01*
X0241442Y0052705D01*
X0241620Y0053317D01*
X0241812Y0053926D01*
X0242020Y0054529D01*
X0242242Y0055127D01*
X0242479Y0055720D01*
X0242731Y0056306D01*
X0242996Y0056886D01*
X0243276Y0057460D01*
X0243570Y0058026D01*
X0243878Y0058585D01*
X0244199Y0059137D01*
X0244534Y0059680D01*
X0244882Y0060215D01*
X0245243Y0060741D01*
X0245617Y0061258D01*
X0246003Y0061766D01*
X0246402Y0062264D01*
X0246813Y0062752D01*
X0247235Y0063231D01*
X0247670Y0063698D01*
X0248115Y0064155D01*
X0248572Y0064600D01*
X0249039Y0065035D01*
X0249518Y0065457D01*
X0250006Y0065868D01*
X0250504Y0066267D01*
X0251012Y0066653D01*
X0251529Y0067027D01*
X0252055Y0067388D01*
X0252590Y0067736D01*
X0253133Y0068071D01*
X0253685Y0068392D01*
X0254244Y0068700D01*
X0254810Y0068994D01*
X0255384Y0069274D01*
X0255964Y0069539D01*
X0256550Y0069791D01*
X0257143Y0070028D01*
X0257741Y0070250D01*
X0258344Y0070458D01*
X0258953Y0070650D01*
X0259565Y0070828D01*
X0260183Y0070991D01*
X0260803Y0071138D01*
X0261428Y0071270D01*
X0262055Y0071387D01*
X0262685Y0071489D01*
X0263317Y0071574D01*
X0263952Y0071645D01*
X0264587Y0071700D01*
X0265224Y0071739D01*
X0265862Y0071762D01*
X0266500Y0071770D01*
X0267138Y0071762D01*
X0267776Y0071739D01*
X0268413Y0071700D01*
X0269048Y0071645D01*
X0269683Y0071574D01*
X0270315Y0071489D01*
X0270945Y0071387D01*
X0271572Y0071270D01*
X0272197Y0071138D01*
X0272817Y0070991D01*
X0273435Y0070828D01*
X0274047Y0070650D01*
X0274656Y0070458D01*
X0275259Y0070250D01*
X0275857Y0070028D01*
X0276450Y0069791D01*
X0277036Y0069539D01*
X0277616Y0069274D01*
X0278190Y0068994D01*
X0278756Y0068700D01*
X0279315Y0068392D01*
X0279867Y0068071D01*
X0280410Y0067736D01*
X0280945Y0067388D01*
X0281471Y0067027D01*
X0281988Y0066653D01*
X0282496Y0066267D01*
X0282994Y0065868D01*
X0283482Y0065457D01*
X0283961Y0065035D01*
X0284428Y0064600D01*
X0284885Y0064155D01*
X0285330Y0063698D01*
X0285765Y0063231D01*
X0286187Y0062752D01*
X0286598Y0062264D01*
X0286997Y0061766D01*
X0287383Y0061258D01*
X0287757Y0060741D01*
X0288118Y0060215D01*
X0288466Y0059680D01*
X0288801Y0059137D01*
X0289122Y0058585D01*
X0289430Y0058026D01*
X0289724Y0057460D01*
X0290004Y0056886D01*
X0290269Y0056306D01*
X0290521Y0055720D01*
X0290758Y0055127D01*
X0290980Y0054529D01*
X0291188Y0053926D01*
X0291380Y0053317D01*
X0291558Y0052705D01*
X0291721Y0052087D01*
X0291868Y0051467D01*
X0292000Y0050842D01*
X0292117Y0050215D01*
X0292219Y0049585D01*
X0292304Y0048953D01*
X0292375Y0048318D01*
X0292430Y0047683D01*
X0292469Y0047046D01*
X0292492Y0046408D01*
X0292500Y0045770D01*
X0292492Y0045132D01*
X0292469Y0044494D01*
X0292430Y0043857D01*
X0292375Y0043222D01*
X0292304Y0042587D01*
X0292219Y0041955D01*
X0292117Y0041325D01*
X0292000Y0040698D01*
X0291868Y0040073D01*
X0291721Y0039453D01*
X0291558Y0038835D01*
X0291380Y0038223D01*
X0291188Y0037614D01*
X0290980Y0037011D01*
X0290758Y0036413D01*
X0290521Y0035820D01*
X0290269Y0035234D01*
X0290004Y0034654D01*
X0289724Y0034080D01*
X0289430Y0033514D01*
X0289122Y0032955D01*
X0288801Y0032403D01*
X0288466Y0031860D01*
X0288118Y0031325D01*
X0287757Y0030799D01*
X0287383Y0030282D01*
X0286997Y0029774D01*
X0286598Y0029276D01*
X0286187Y0028788D01*
X0285765Y0028309D01*
X0285330Y0027842D01*
X0284885Y0027385D01*
X0284428Y0026940D01*
X0283961Y0026505D01*
X0283482Y0026083D01*
X0282994Y0025672D01*
X0282496Y0025273D01*
X0281988Y0024887D01*
X0281471Y0024513D01*
X0280945Y0024152D01*
X0280410Y0023804D01*
X0279867Y0023469D01*
X0279315Y0023148D01*
X0278756Y0022840D01*
X0278190Y0022546D01*
X0277616Y0022266D01*
X0277036Y0022001D01*
X0276450Y0021749D01*
X0275857Y0021512D01*
X0275259Y0021290D01*
X0274656Y0021082D01*
X0274047Y0020890D01*
X0273435Y0020712D01*
X0272817Y0020549D01*
X0272197Y0020402D01*
X0271572Y0020270D01*
X0270945Y0020153D01*
X0270315Y0020051D01*
X0269683Y0019966D01*
X0269048Y0019895D01*
X0268413Y0019840D01*
X0267776Y0019801D01*
X0267138Y0019778D01*
X0266500Y0019770D01*
X0265862Y0019778D01*
X0265224Y0019801D01*
X0264587Y0019840D01*
X0263952Y0019895D01*
X0263317Y0019966D01*
X0262685Y0020051D01*
X0262055Y0020153D01*
X0261428Y0020270D01*
X0260803Y0020402D01*
X0260183Y0020549D01*
X0259565Y0020712D01*
X0258953Y0020890D01*
X0258344Y0021082D01*
X0257741Y0021290D01*
X0257143Y0021512D01*
X0256550Y0021749D01*
X0255964Y0022001D01*
X0255384Y0022266D01*
X0254810Y0022546D01*
X0254244Y0022840D01*
X0253685Y0023148D01*
X0253133Y0023469D01*
X0252590Y0023804D01*
X0252055Y0024152D01*
X0251529Y0024513D01*
X0251012Y0024887D01*
X0250504Y0025273D01*
X0250006Y0025672D01*
X0249518Y0026083D01*
X0249039Y0026505D01*
X0248572Y0026940D01*
X0248115Y0027385D01*
X0247670Y0027842D01*
X0247235Y0028309D01*
X0246813Y0028788D01*
X0246402Y0029276D01*
X0246003Y0029774D01*
X0245617Y0030282D01*
X0245243Y0030799D01*
X0244882Y0031325D01*
X0244534Y0031860D01*
X0244199Y0032403D01*
X0243878Y0032955D01*
X0243570Y0033514D01*
X0243276Y0034080D01*
X0242996Y0034654D01*
X0242731Y0035234D01*
X0242479Y0035820D01*
X0242242Y0036413D01*
X0242020Y0037011D01*
X0241812Y0037614D01*
X0241620Y0038223D01*
X0241442Y0038835D01*
X0241279Y0039453D01*
X0241132Y0040073D01*
X0241000Y0040698D01*
X0240883Y0041325D01*
X0240781Y0041955D01*
X0240696Y0042587D01*
X0240625Y0043222D01*
X0240570Y0043857D01*
X0240531Y0044494D01*
X0240508Y0045132D01*
X0240500Y0045770D01*
D16*
X0180206Y0137765D02*
X0180206Y0140350D01*
X0180206Y0137765D02*
X0179588Y0137765D01*
X0169012Y0137765D02*
X0168394Y0137765D01*
X0168394Y0140350D01*
X0168394Y0146990D02*
X0168394Y0149576D01*
X0169012Y0149576D01*
X0179588Y0149576D02*
X0180206Y0149576D01*
X0180206Y0146990D01*
D17*
X0052686Y0016463D02*
X0022716Y0016463D01*
X0022716Y0051511D01*
X0027683Y0051511D01*
X0027684Y0051511D02*
X0027756Y0051509D01*
X0027829Y0051504D01*
X0027901Y0051495D01*
X0027973Y0051482D01*
X0028043Y0051465D01*
X0028113Y0051445D01*
X0028182Y0051422D01*
X0028250Y0051395D01*
X0028316Y0051364D01*
X0028380Y0051331D01*
X0028443Y0051294D01*
X0028504Y0051254D01*
X0028562Y0051211D01*
X0028619Y0051165D01*
X0028673Y0051116D01*
X0028724Y0051065D01*
X0028773Y0051011D01*
X0028819Y0050954D01*
X0028862Y0050896D01*
X0028902Y0050835D01*
X0028939Y0050772D01*
X0028972Y0050708D01*
X0029003Y0050642D01*
X0029030Y0050574D01*
X0029053Y0050505D01*
X0029073Y0050435D01*
X0029090Y0050365D01*
X0029103Y0050293D01*
X0029112Y0050221D01*
X0029117Y0050148D01*
X0029119Y0050076D01*
X0029119Y0047978D01*
X0034748Y0038927D02*
X0040544Y0038927D01*
X0040543Y0038926D02*
X0040618Y0038924D01*
X0040693Y0038918D01*
X0040768Y0038908D01*
X0040842Y0038895D01*
X0040915Y0038877D01*
X0040987Y0038856D01*
X0041057Y0038831D01*
X0041127Y0038802D01*
X0041195Y0038770D01*
X0041261Y0038734D01*
X0041325Y0038694D01*
X0041387Y0038652D01*
X0041446Y0038606D01*
X0041503Y0038557D01*
X0041558Y0038506D01*
X0041609Y0038451D01*
X0041658Y0038394D01*
X0041704Y0038335D01*
X0041746Y0038273D01*
X0041786Y0038209D01*
X0041822Y0038143D01*
X0041854Y0038075D01*
X0041883Y0038005D01*
X0041908Y0037935D01*
X0041929Y0037863D01*
X0041947Y0037790D01*
X0041960Y0037716D01*
X0041970Y0037641D01*
X0041976Y0037566D01*
X0041978Y0037491D01*
X0041979Y0037492D02*
X0042806Y0021762D01*
X0042806Y0021761D02*
X0042802Y0021715D01*
X0042794Y0021669D01*
X0042782Y0021624D01*
X0042767Y0021580D01*
X0042747Y0021537D01*
X0042724Y0021496D01*
X0042698Y0021458D01*
X0042669Y0021421D01*
X0042636Y0021388D01*
X0042601Y0021357D01*
X0042563Y0021329D01*
X0042524Y0021305D01*
X0042482Y0021284D01*
X0042438Y0021266D01*
X0042394Y0021253D01*
X0042348Y0021243D01*
X0042302Y0021237D01*
X0042255Y0021235D01*
X0042208Y0021237D01*
X0042162Y0021243D01*
X0042116Y0021253D01*
X0042072Y0021266D01*
X0042028Y0021284D01*
X0041986Y0021305D01*
X0041947Y0021329D01*
X0041909Y0021357D01*
X0041874Y0021388D01*
X0041841Y0021421D01*
X0041812Y0021458D01*
X0041786Y0021496D01*
X0041763Y0021537D01*
X0041743Y0021580D01*
X0041728Y0021624D01*
X0041716Y0021669D01*
X0041708Y0021715D01*
X0041704Y0021761D01*
X0041703Y0021762D02*
X0041151Y0033739D01*
X0041151Y0034015D01*
X0041149Y0034094D01*
X0041144Y0034172D01*
X0041134Y0034251D01*
X0041121Y0034328D01*
X0041104Y0034405D01*
X0041084Y0034482D01*
X0041060Y0034557D01*
X0041032Y0034630D01*
X0041001Y0034703D01*
X0040967Y0034774D01*
X0040929Y0034843D01*
X0040888Y0034910D01*
X0040844Y0034976D01*
X0040797Y0035039D01*
X0040747Y0035099D01*
X0040694Y0035158D01*
X0040638Y0035214D01*
X0040579Y0035267D01*
X0040519Y0035317D01*
X0040456Y0035364D01*
X0040390Y0035408D01*
X0040323Y0035449D01*
X0040254Y0035487D01*
X0040183Y0035521D01*
X0040110Y0035552D01*
X0040037Y0035580D01*
X0039962Y0035604D01*
X0039885Y0035624D01*
X0039808Y0035641D01*
X0039731Y0035654D01*
X0039652Y0035664D01*
X0039574Y0035669D01*
X0039495Y0035671D01*
X0039495Y0035670D02*
X0036018Y0035670D01*
X0035937Y0035668D01*
X0035855Y0035662D01*
X0035774Y0035653D01*
X0035694Y0035639D01*
X0035615Y0035622D01*
X0035536Y0035601D01*
X0035458Y0035576D01*
X0035382Y0035547D01*
X0035307Y0035515D01*
X0035234Y0035480D01*
X0035163Y0035441D01*
X0035093Y0035398D01*
X0035026Y0035353D01*
X0034960Y0035304D01*
X0034898Y0035252D01*
X0034837Y0035197D01*
X0034780Y0035140D01*
X0034725Y0035079D01*
X0034673Y0035017D01*
X0034624Y0034951D01*
X0034579Y0034884D01*
X0034536Y0034815D01*
X0034497Y0034743D01*
X0034462Y0034670D01*
X0034430Y0034595D01*
X0034401Y0034519D01*
X0034376Y0034441D01*
X0034355Y0034362D01*
X0034338Y0034283D01*
X0034324Y0034203D01*
X0034315Y0034122D01*
X0034309Y0034040D01*
X0034307Y0033959D01*
X0033644Y0021707D01*
X0033644Y0021706D02*
X0033640Y0021662D01*
X0033632Y0021618D01*
X0033620Y0021575D01*
X0033605Y0021533D01*
X0033586Y0021493D01*
X0033564Y0021454D01*
X0033539Y0021418D01*
X0033511Y0021383D01*
X0033479Y0021351D01*
X0033446Y0021322D01*
X0033410Y0021296D01*
X0033371Y0021273D01*
X0033331Y0021253D01*
X0033290Y0021237D01*
X0033247Y0021225D01*
X0033204Y0021216D01*
X0033159Y0021210D01*
X0033115Y0021209D01*
X0033070Y0021211D01*
X0033026Y0021217D01*
X0032983Y0021227D01*
X0032940Y0021241D01*
X0032899Y0021258D01*
X0032859Y0021278D01*
X0032822Y0021302D01*
X0032786Y0021329D01*
X0032753Y0021359D01*
X0032722Y0021391D01*
X0032695Y0021426D01*
X0032670Y0021463D01*
X0032649Y0021502D01*
X0032631Y0021543D01*
X0032616Y0021585D01*
X0032606Y0021629D01*
X0032599Y0021673D01*
X0032595Y0021717D01*
X0032596Y0021762D01*
X0033424Y0037602D01*
X0033426Y0037674D01*
X0033432Y0037746D01*
X0033442Y0037817D01*
X0033455Y0037887D01*
X0033472Y0037957D01*
X0033493Y0038025D01*
X0033518Y0038093D01*
X0033547Y0038159D01*
X0033578Y0038223D01*
X0033614Y0038285D01*
X0033652Y0038346D01*
X0033694Y0038404D01*
X0033739Y0038460D01*
X0033787Y0038513D01*
X0033838Y0038564D01*
X0033891Y0038612D01*
X0033947Y0038657D01*
X0034005Y0038699D01*
X0034066Y0038737D01*
X0034128Y0038773D01*
X0034192Y0038804D01*
X0034258Y0038833D01*
X0034326Y0038858D01*
X0034394Y0038879D01*
X0034464Y0038896D01*
X0034534Y0038909D01*
X0034605Y0038919D01*
X0034677Y0038925D01*
X0034749Y0038927D01*
X0031050Y0037161D02*
X0030388Y0022700D01*
X0030388Y0022535D01*
X0030389Y0022534D02*
X0030387Y0022462D01*
X0030381Y0022390D01*
X0030372Y0022318D01*
X0030359Y0022247D01*
X0030342Y0022177D01*
X0030322Y0022108D01*
X0030297Y0022040D01*
X0030270Y0021973D01*
X0030239Y0021908D01*
X0030204Y0021844D01*
X0030166Y0021782D01*
X0030125Y0021723D01*
X0030081Y0021666D01*
X0030035Y0021611D01*
X0029985Y0021558D01*
X0029932Y0021508D01*
X0029877Y0021462D01*
X0029820Y0021418D01*
X0029761Y0021377D01*
X0029699Y0021339D01*
X0029635Y0021304D01*
X0029570Y0021273D01*
X0029503Y0021246D01*
X0029435Y0021221D01*
X0029366Y0021201D01*
X0029296Y0021184D01*
X0029225Y0021171D01*
X0029153Y0021162D01*
X0029081Y0021156D01*
X0029009Y0021154D01*
X0029008Y0021155D02*
X0022937Y0021155D01*
X0027076Y0023914D02*
X0026193Y0037326D01*
X0026189Y0037367D01*
X0026181Y0037407D01*
X0026169Y0037446D01*
X0026155Y0037484D01*
X0026137Y0037521D01*
X0026116Y0037556D01*
X0026092Y0037589D01*
X0026065Y0037620D01*
X0026035Y0037648D01*
X0026004Y0037674D01*
X0025970Y0037697D01*
X0025934Y0037717D01*
X0025897Y0037734D01*
X0025859Y0037748D01*
X0025819Y0037758D01*
X0025779Y0037764D01*
X0025738Y0037768D01*
X0025697Y0037767D01*
X0025697Y0037768D02*
X0022937Y0037768D01*
X0029891Y0037216D02*
X0029008Y0023859D01*
X0029002Y0023798D01*
X0028992Y0023737D01*
X0028978Y0023677D01*
X0028960Y0023617D01*
X0028939Y0023559D01*
X0028914Y0023503D01*
X0028885Y0023448D01*
X0028853Y0023395D01*
X0028818Y0023345D01*
X0028780Y0023296D01*
X0028738Y0023251D01*
X0028694Y0023208D01*
X0028647Y0023168D01*
X0028597Y0023131D01*
X0028546Y0023097D01*
X0028492Y0023066D01*
X0028436Y0023040D01*
X0028379Y0023016D01*
X0028320Y0022997D01*
X0028261Y0022981D01*
X0028200Y0022969D01*
X0028139Y0022961D01*
X0028077Y0022957D01*
X0028015Y0022956D01*
X0027954Y0022960D01*
X0027892Y0022968D01*
X0027832Y0022979D01*
X0027772Y0022995D01*
X0027713Y0023014D01*
X0027656Y0023037D01*
X0027600Y0023063D01*
X0027546Y0023093D01*
X0027494Y0023127D01*
X0027444Y0023163D01*
X0027397Y0023203D01*
X0027353Y0023246D01*
X0027311Y0023291D01*
X0027272Y0023339D01*
X0027236Y0023390D01*
X0027204Y0023442D01*
X0027175Y0023497D01*
X0027149Y0023553D01*
X0027128Y0023611D01*
X0027110Y0023670D01*
X0027095Y0023730D01*
X0027085Y0023791D01*
X0027079Y0023853D01*
X0027076Y0023914D01*
X0032092Y0027370D02*
X0035161Y0031974D01*
X0036696Y0030439D02*
X0038231Y0031974D01*
X0038231Y0027370D01*
X0039765Y0027370D02*
X0036696Y0027370D01*
X0035161Y0027370D02*
X0032092Y0031974D01*
X0031050Y0037161D02*
X0031051Y0037209D01*
X0031047Y0037256D01*
X0031039Y0037303D01*
X0031028Y0037350D01*
X0031012Y0037395D01*
X0030993Y0037439D01*
X0030971Y0037481D01*
X0030945Y0037522D01*
X0030915Y0037560D01*
X0030883Y0037595D01*
X0030848Y0037628D01*
X0030811Y0037657D01*
X0030771Y0037684D01*
X0030729Y0037707D01*
X0030685Y0037726D01*
X0030640Y0037742D01*
X0030593Y0037754D01*
X0030546Y0037762D01*
X0030499Y0037766D01*
X0030451Y0037767D01*
X0030403Y0037763D01*
X0030356Y0037755D01*
X0030309Y0037744D01*
X0030264Y0037729D01*
X0030220Y0037710D01*
X0030178Y0037687D01*
X0030137Y0037661D01*
X0030099Y0037632D01*
X0030064Y0037600D01*
X0030031Y0037565D01*
X0030001Y0037528D01*
X0029975Y0037488D01*
X0029952Y0037446D01*
X0029932Y0037402D01*
X0029916Y0037357D01*
X0029904Y0037311D01*
X0029896Y0037263D01*
X0029892Y0037216D01*
X0044352Y0037161D02*
X0045014Y0022700D01*
X0045014Y0022535D01*
X0045016Y0022462D01*
X0045022Y0022390D01*
X0045031Y0022319D01*
X0045044Y0022248D01*
X0045061Y0022178D01*
X0045082Y0022108D01*
X0045106Y0022040D01*
X0045133Y0021974D01*
X0045164Y0021908D01*
X0045199Y0021845D01*
X0045237Y0021783D01*
X0045278Y0021724D01*
X0045322Y0021666D01*
X0045368Y0021612D01*
X0045418Y0021559D01*
X0045471Y0021509D01*
X0045525Y0021463D01*
X0045583Y0021419D01*
X0045642Y0021378D01*
X0045704Y0021340D01*
X0045767Y0021305D01*
X0045833Y0021274D01*
X0045899Y0021247D01*
X0045967Y0021223D01*
X0046037Y0021202D01*
X0046107Y0021185D01*
X0046178Y0021172D01*
X0046249Y0021163D01*
X0046321Y0021157D01*
X0046394Y0021155D01*
X0052465Y0021155D01*
X0052686Y0016463D02*
X0052686Y0051511D01*
X0047663Y0051511D01*
X0047591Y0051509D01*
X0047519Y0051503D01*
X0047447Y0051494D01*
X0047376Y0051481D01*
X0047306Y0051464D01*
X0047237Y0051444D01*
X0047169Y0051419D01*
X0047102Y0051392D01*
X0047037Y0051361D01*
X0046973Y0051326D01*
X0046911Y0051288D01*
X0046852Y0051247D01*
X0046795Y0051203D01*
X0046740Y0051157D01*
X0046687Y0051107D01*
X0046637Y0051054D01*
X0046591Y0050999D01*
X0046547Y0050942D01*
X0046506Y0050883D01*
X0046468Y0050821D01*
X0046433Y0050757D01*
X0046402Y0050692D01*
X0046375Y0050625D01*
X0046350Y0050557D01*
X0046330Y0050488D01*
X0046313Y0050418D01*
X0046300Y0050347D01*
X0046291Y0050275D01*
X0046285Y0050203D01*
X0046283Y0050131D01*
X0046283Y0047813D01*
X0049706Y0037768D02*
X0052465Y0037768D01*
X0049705Y0037767D02*
X0049664Y0037768D01*
X0049623Y0037764D01*
X0049583Y0037758D01*
X0049543Y0037748D01*
X0049505Y0037734D01*
X0049468Y0037717D01*
X0049432Y0037697D01*
X0049398Y0037674D01*
X0049367Y0037648D01*
X0049337Y0037620D01*
X0049310Y0037589D01*
X0049286Y0037556D01*
X0049265Y0037521D01*
X0049247Y0037484D01*
X0049233Y0037446D01*
X0049221Y0037407D01*
X0049213Y0037367D01*
X0049209Y0037326D01*
X0048326Y0023915D01*
X0048326Y0023914D02*
X0048323Y0023853D01*
X0048317Y0023791D01*
X0048307Y0023730D01*
X0048292Y0023670D01*
X0048274Y0023611D01*
X0048253Y0023553D01*
X0048227Y0023497D01*
X0048198Y0023442D01*
X0048166Y0023390D01*
X0048130Y0023339D01*
X0048091Y0023291D01*
X0048049Y0023246D01*
X0048005Y0023203D01*
X0047958Y0023163D01*
X0047908Y0023127D01*
X0047856Y0023093D01*
X0047802Y0023063D01*
X0047746Y0023037D01*
X0047689Y0023014D01*
X0047630Y0022995D01*
X0047570Y0022979D01*
X0047510Y0022968D01*
X0047448Y0022960D01*
X0047387Y0022956D01*
X0047325Y0022957D01*
X0047263Y0022961D01*
X0047202Y0022969D01*
X0047141Y0022981D01*
X0047082Y0022997D01*
X0047023Y0023016D01*
X0046966Y0023040D01*
X0046910Y0023066D01*
X0046856Y0023097D01*
X0046805Y0023131D01*
X0046755Y0023168D01*
X0046708Y0023208D01*
X0046664Y0023251D01*
X0046622Y0023296D01*
X0046584Y0023345D01*
X0046549Y0023395D01*
X0046517Y0023448D01*
X0046488Y0023503D01*
X0046463Y0023559D01*
X0046442Y0023617D01*
X0046424Y0023677D01*
X0046410Y0023737D01*
X0046400Y0023798D01*
X0046394Y0023859D01*
X0045511Y0037216D01*
X0045507Y0037263D01*
X0045499Y0037311D01*
X0045487Y0037357D01*
X0045471Y0037402D01*
X0045451Y0037446D01*
X0045428Y0037488D01*
X0045402Y0037528D01*
X0045372Y0037565D01*
X0045339Y0037600D01*
X0045304Y0037632D01*
X0045266Y0037661D01*
X0045225Y0037687D01*
X0045183Y0037710D01*
X0045139Y0037729D01*
X0045094Y0037744D01*
X0045047Y0037755D01*
X0045000Y0037763D01*
X0044952Y0037767D01*
X0044904Y0037766D01*
X0044857Y0037762D01*
X0044810Y0037754D01*
X0044763Y0037742D01*
X0044718Y0037726D01*
X0044674Y0037707D01*
X0044632Y0037684D01*
X0044592Y0037657D01*
X0044555Y0037628D01*
X0044520Y0037595D01*
X0044488Y0037560D01*
X0044458Y0037522D01*
X0044432Y0037481D01*
X0044410Y0037439D01*
X0044391Y0037395D01*
X0044375Y0037350D01*
X0044364Y0037303D01*
X0044356Y0037256D01*
X0044352Y0037209D01*
X0044353Y0037161D01*
M02*
