G75*
%MOIN*%
%OFA0B0*%
%FSLAX25Y25*%
%IPPOS*%
%LPD*%
%AMOC8*
5,1,8,0,0,1.08239X$1,22.5*
%
%ADD10C,0.12400*%
%ADD11OC8,0.05324*%
%ADD12OC8,0.08000*%
%ADD13C,0.07600*%
%ADD14C,0.06899*%
%ADD15C,0.08000*%
%ADD16OC8,0.09100*%
%ADD17C,0.05324*%
%ADD18C,0.04143*%
D10*
X0015644Y0024400D03*
X0017644Y0167400D03*
X0247644Y0168400D03*
X0247644Y0024400D03*
D11*
X0188644Y0122400D03*
X0178644Y0122400D03*
X0168644Y0122400D03*
X0158644Y0122400D03*
X0148644Y0122400D03*
X0138644Y0122400D03*
X0128644Y0122400D03*
X0118644Y0122400D03*
X0108644Y0122400D03*
X0108644Y0132400D03*
X0118644Y0132400D03*
X0128644Y0132400D03*
X0138644Y0132400D03*
X0148644Y0132400D03*
X0158644Y0132400D03*
X0168644Y0132400D03*
X0178644Y0132400D03*
X0188644Y0132400D03*
D12*
X0190644Y0156400D03*
X0180644Y0156400D03*
X0170644Y0156400D03*
X0160644Y0156400D03*
X0150644Y0156400D03*
X0140644Y0156400D03*
X0140644Y0166400D03*
X0150644Y0166400D03*
X0160644Y0166400D03*
X0170644Y0166400D03*
X0180644Y0166400D03*
X0190644Y0166400D03*
X0200644Y0166400D03*
X0210644Y0166400D03*
X0210644Y0156400D03*
X0200644Y0156400D03*
X0126644Y0156400D03*
X0116644Y0156400D03*
X0106644Y0156400D03*
X0096644Y0156400D03*
X0086644Y0156400D03*
X0076644Y0156400D03*
X0066644Y0156400D03*
X0056644Y0156400D03*
X0056644Y0166400D03*
X0066644Y0166400D03*
X0076644Y0166400D03*
X0086644Y0166400D03*
X0096644Y0166400D03*
X0106644Y0166400D03*
X0116644Y0166400D03*
X0126644Y0166400D03*
D13*
X0171644Y0109195D03*
X0171644Y0083605D03*
X0170644Y0062195D03*
X0170644Y0036605D03*
D14*
X0030644Y0127589D03*
X0030644Y0135463D03*
X0030644Y0143337D03*
X0030644Y0151211D03*
D15*
X0140944Y0111600D03*
X0140944Y0101600D03*
X0140944Y0089600D03*
X0140944Y0079600D03*
X0154944Y0021600D03*
X0164944Y0020600D03*
X0174944Y0021600D03*
X0184944Y0020600D03*
X0194944Y0021600D03*
D16*
X0036944Y0114400D03*
X0031044Y0069500D03*
X0031644Y0024400D03*
D17*
X0044374Y0026667D02*
X0044374Y0021943D01*
X0073115Y0021943D02*
X0073115Y0026667D01*
X0073115Y0042809D02*
X0073115Y0047533D01*
X0044374Y0047533D02*
X0044374Y0042809D01*
D18*
X0051855Y0037297D03*
X0065634Y0037297D03*
M02*
