G75*
%MOIN*%
%OFA0B0*%
%FSLAX25Y25*%
%IPPOS*%
%LPD*%
%AMOC8*
5,1,8,0,0,1.08239X$1,22.5*
%
%ADD10C,0.00000*%
D10*
X0004200Y0016270D02*
X0004200Y0182270D01*
X0297200Y0182270D01*
X0297200Y0016270D01*
X0004200Y0016270D01*
X0007200Y0024970D02*
X0007202Y0025110D01*
X0007208Y0025250D01*
X0007218Y0025389D01*
X0007232Y0025529D01*
X0007250Y0025667D01*
X0007272Y0025806D01*
X0007298Y0025943D01*
X0007327Y0026080D01*
X0007361Y0026216D01*
X0007398Y0026350D01*
X0007440Y0026484D01*
X0007485Y0026617D01*
X0007534Y0026748D01*
X0007586Y0026877D01*
X0007643Y0027006D01*
X0007703Y0027132D01*
X0007766Y0027257D01*
X0007833Y0027379D01*
X0007904Y0027500D01*
X0007978Y0027619D01*
X0008055Y0027736D01*
X0008136Y0027850D01*
X0008220Y0027962D01*
X0008307Y0028072D01*
X0008397Y0028179D01*
X0008490Y0028283D01*
X0008586Y0028385D01*
X0008685Y0028484D01*
X0008787Y0028580D01*
X0008891Y0028673D01*
X0008998Y0028763D01*
X0009108Y0028850D01*
X0009220Y0028934D01*
X0009334Y0029015D01*
X0009451Y0029092D01*
X0009570Y0029166D01*
X0009691Y0029237D01*
X0009813Y0029304D01*
X0009938Y0029367D01*
X0010064Y0029427D01*
X0010193Y0029484D01*
X0010322Y0029536D01*
X0010453Y0029585D01*
X0010586Y0029630D01*
X0010720Y0029672D01*
X0010854Y0029709D01*
X0010990Y0029743D01*
X0011127Y0029772D01*
X0011264Y0029798D01*
X0011403Y0029820D01*
X0011541Y0029838D01*
X0011681Y0029852D01*
X0011820Y0029862D01*
X0011960Y0029868D01*
X0012100Y0029870D01*
X0012240Y0029868D01*
X0012380Y0029862D01*
X0012519Y0029852D01*
X0012659Y0029838D01*
X0012797Y0029820D01*
X0012936Y0029798D01*
X0013073Y0029772D01*
X0013210Y0029743D01*
X0013346Y0029709D01*
X0013480Y0029672D01*
X0013614Y0029630D01*
X0013747Y0029585D01*
X0013878Y0029536D01*
X0014007Y0029484D01*
X0014136Y0029427D01*
X0014262Y0029367D01*
X0014387Y0029304D01*
X0014509Y0029237D01*
X0014630Y0029166D01*
X0014749Y0029092D01*
X0014866Y0029015D01*
X0014980Y0028934D01*
X0015092Y0028850D01*
X0015202Y0028763D01*
X0015309Y0028673D01*
X0015413Y0028580D01*
X0015515Y0028484D01*
X0015614Y0028385D01*
X0015710Y0028283D01*
X0015803Y0028179D01*
X0015893Y0028072D01*
X0015980Y0027962D01*
X0016064Y0027850D01*
X0016145Y0027736D01*
X0016222Y0027619D01*
X0016296Y0027500D01*
X0016367Y0027379D01*
X0016434Y0027257D01*
X0016497Y0027132D01*
X0016557Y0027006D01*
X0016614Y0026877D01*
X0016666Y0026748D01*
X0016715Y0026617D01*
X0016760Y0026484D01*
X0016802Y0026350D01*
X0016839Y0026216D01*
X0016873Y0026080D01*
X0016902Y0025943D01*
X0016928Y0025806D01*
X0016950Y0025667D01*
X0016968Y0025529D01*
X0016982Y0025389D01*
X0016992Y0025250D01*
X0016998Y0025110D01*
X0017000Y0024970D01*
X0016998Y0024830D01*
X0016992Y0024690D01*
X0016982Y0024551D01*
X0016968Y0024411D01*
X0016950Y0024273D01*
X0016928Y0024134D01*
X0016902Y0023997D01*
X0016873Y0023860D01*
X0016839Y0023724D01*
X0016802Y0023590D01*
X0016760Y0023456D01*
X0016715Y0023323D01*
X0016666Y0023192D01*
X0016614Y0023063D01*
X0016557Y0022934D01*
X0016497Y0022808D01*
X0016434Y0022683D01*
X0016367Y0022561D01*
X0016296Y0022440D01*
X0016222Y0022321D01*
X0016145Y0022204D01*
X0016064Y0022090D01*
X0015980Y0021978D01*
X0015893Y0021868D01*
X0015803Y0021761D01*
X0015710Y0021657D01*
X0015614Y0021555D01*
X0015515Y0021456D01*
X0015413Y0021360D01*
X0015309Y0021267D01*
X0015202Y0021177D01*
X0015092Y0021090D01*
X0014980Y0021006D01*
X0014866Y0020925D01*
X0014749Y0020848D01*
X0014630Y0020774D01*
X0014509Y0020703D01*
X0014387Y0020636D01*
X0014262Y0020573D01*
X0014136Y0020513D01*
X0014007Y0020456D01*
X0013878Y0020404D01*
X0013747Y0020355D01*
X0013614Y0020310D01*
X0013480Y0020268D01*
X0013346Y0020231D01*
X0013210Y0020197D01*
X0013073Y0020168D01*
X0012936Y0020142D01*
X0012797Y0020120D01*
X0012659Y0020102D01*
X0012519Y0020088D01*
X0012380Y0020078D01*
X0012240Y0020072D01*
X0012100Y0020070D01*
X0011960Y0020072D01*
X0011820Y0020078D01*
X0011681Y0020088D01*
X0011541Y0020102D01*
X0011403Y0020120D01*
X0011264Y0020142D01*
X0011127Y0020168D01*
X0010990Y0020197D01*
X0010854Y0020231D01*
X0010720Y0020268D01*
X0010586Y0020310D01*
X0010453Y0020355D01*
X0010322Y0020404D01*
X0010193Y0020456D01*
X0010064Y0020513D01*
X0009938Y0020573D01*
X0009813Y0020636D01*
X0009691Y0020703D01*
X0009570Y0020774D01*
X0009451Y0020848D01*
X0009334Y0020925D01*
X0009220Y0021006D01*
X0009108Y0021090D01*
X0008998Y0021177D01*
X0008891Y0021267D01*
X0008787Y0021360D01*
X0008685Y0021456D01*
X0008586Y0021555D01*
X0008490Y0021657D01*
X0008397Y0021761D01*
X0008307Y0021868D01*
X0008220Y0021978D01*
X0008136Y0022090D01*
X0008055Y0022204D01*
X0007978Y0022321D01*
X0007904Y0022440D01*
X0007833Y0022561D01*
X0007766Y0022683D01*
X0007703Y0022808D01*
X0007643Y0022934D01*
X0007586Y0023063D01*
X0007534Y0023192D01*
X0007485Y0023323D01*
X0007440Y0023456D01*
X0007398Y0023590D01*
X0007361Y0023724D01*
X0007327Y0023860D01*
X0007298Y0023997D01*
X0007272Y0024134D01*
X0007250Y0024273D01*
X0007232Y0024411D01*
X0007218Y0024551D01*
X0007208Y0024690D01*
X0007202Y0024830D01*
X0007200Y0024970D01*
X0029038Y0041467D02*
X0029040Y0041551D01*
X0029046Y0041634D01*
X0029056Y0041717D01*
X0029070Y0041800D01*
X0029087Y0041882D01*
X0029109Y0041963D01*
X0029134Y0042042D01*
X0029163Y0042121D01*
X0029196Y0042198D01*
X0029232Y0042273D01*
X0029272Y0042347D01*
X0029315Y0042419D01*
X0029362Y0042488D01*
X0029412Y0042555D01*
X0029465Y0042620D01*
X0029521Y0042682D01*
X0029579Y0042742D01*
X0029641Y0042799D01*
X0029705Y0042852D01*
X0029772Y0042903D01*
X0029841Y0042950D01*
X0029912Y0042995D01*
X0029985Y0043035D01*
X0030060Y0043072D01*
X0030137Y0043106D01*
X0030215Y0043136D01*
X0030294Y0043162D01*
X0030375Y0043185D01*
X0030457Y0043203D01*
X0030539Y0043218D01*
X0030622Y0043229D01*
X0030705Y0043236D01*
X0030789Y0043239D01*
X0030873Y0043238D01*
X0030956Y0043233D01*
X0031040Y0043224D01*
X0031122Y0043211D01*
X0031204Y0043195D01*
X0031285Y0043174D01*
X0031366Y0043150D01*
X0031444Y0043122D01*
X0031522Y0043090D01*
X0031598Y0043054D01*
X0031672Y0043015D01*
X0031744Y0042973D01*
X0031814Y0042927D01*
X0031882Y0042878D01*
X0031947Y0042826D01*
X0032010Y0042771D01*
X0032070Y0042713D01*
X0032128Y0042652D01*
X0032182Y0042588D01*
X0032234Y0042522D01*
X0032282Y0042454D01*
X0032327Y0042383D01*
X0032368Y0042310D01*
X0032407Y0042236D01*
X0032441Y0042160D01*
X0032472Y0042082D01*
X0032499Y0042003D01*
X0032523Y0041922D01*
X0032542Y0041841D01*
X0032558Y0041759D01*
X0032570Y0041676D01*
X0032578Y0041592D01*
X0032582Y0041509D01*
X0032582Y0041425D01*
X0032578Y0041342D01*
X0032570Y0041258D01*
X0032558Y0041175D01*
X0032542Y0041093D01*
X0032523Y0041012D01*
X0032499Y0040931D01*
X0032472Y0040852D01*
X0032441Y0040774D01*
X0032407Y0040698D01*
X0032368Y0040624D01*
X0032327Y0040551D01*
X0032282Y0040480D01*
X0032234Y0040412D01*
X0032182Y0040346D01*
X0032128Y0040282D01*
X0032070Y0040221D01*
X0032010Y0040163D01*
X0031947Y0040108D01*
X0031882Y0040056D01*
X0031814Y0040007D01*
X0031744Y0039961D01*
X0031672Y0039919D01*
X0031598Y0039880D01*
X0031522Y0039844D01*
X0031444Y0039812D01*
X0031366Y0039784D01*
X0031285Y0039760D01*
X0031204Y0039739D01*
X0031122Y0039723D01*
X0031040Y0039710D01*
X0030956Y0039701D01*
X0030873Y0039696D01*
X0030789Y0039695D01*
X0030705Y0039698D01*
X0030622Y0039705D01*
X0030539Y0039716D01*
X0030457Y0039731D01*
X0030375Y0039749D01*
X0030294Y0039772D01*
X0030215Y0039798D01*
X0030137Y0039828D01*
X0030060Y0039862D01*
X0029985Y0039899D01*
X0029912Y0039939D01*
X0029841Y0039984D01*
X0029772Y0040031D01*
X0029705Y0040082D01*
X0029641Y0040135D01*
X0029579Y0040192D01*
X0029521Y0040252D01*
X0029465Y0040314D01*
X0029412Y0040379D01*
X0029362Y0040446D01*
X0029315Y0040515D01*
X0029272Y0040587D01*
X0029232Y0040661D01*
X0029196Y0040736D01*
X0029163Y0040813D01*
X0029134Y0040892D01*
X0029109Y0040971D01*
X0029087Y0041052D01*
X0029070Y0041134D01*
X0029056Y0041217D01*
X0029046Y0041300D01*
X0029040Y0041383D01*
X0029038Y0041467D01*
X0042818Y0041467D02*
X0042820Y0041551D01*
X0042826Y0041634D01*
X0042836Y0041717D01*
X0042850Y0041800D01*
X0042867Y0041882D01*
X0042889Y0041963D01*
X0042914Y0042042D01*
X0042943Y0042121D01*
X0042976Y0042198D01*
X0043012Y0042273D01*
X0043052Y0042347D01*
X0043095Y0042419D01*
X0043142Y0042488D01*
X0043192Y0042555D01*
X0043245Y0042620D01*
X0043301Y0042682D01*
X0043359Y0042742D01*
X0043421Y0042799D01*
X0043485Y0042852D01*
X0043552Y0042903D01*
X0043621Y0042950D01*
X0043692Y0042995D01*
X0043765Y0043035D01*
X0043840Y0043072D01*
X0043917Y0043106D01*
X0043995Y0043136D01*
X0044074Y0043162D01*
X0044155Y0043185D01*
X0044237Y0043203D01*
X0044319Y0043218D01*
X0044402Y0043229D01*
X0044485Y0043236D01*
X0044569Y0043239D01*
X0044653Y0043238D01*
X0044736Y0043233D01*
X0044820Y0043224D01*
X0044902Y0043211D01*
X0044984Y0043195D01*
X0045065Y0043174D01*
X0045146Y0043150D01*
X0045224Y0043122D01*
X0045302Y0043090D01*
X0045378Y0043054D01*
X0045452Y0043015D01*
X0045524Y0042973D01*
X0045594Y0042927D01*
X0045662Y0042878D01*
X0045727Y0042826D01*
X0045790Y0042771D01*
X0045850Y0042713D01*
X0045908Y0042652D01*
X0045962Y0042588D01*
X0046014Y0042522D01*
X0046062Y0042454D01*
X0046107Y0042383D01*
X0046148Y0042310D01*
X0046187Y0042236D01*
X0046221Y0042160D01*
X0046252Y0042082D01*
X0046279Y0042003D01*
X0046303Y0041922D01*
X0046322Y0041841D01*
X0046338Y0041759D01*
X0046350Y0041676D01*
X0046358Y0041592D01*
X0046362Y0041509D01*
X0046362Y0041425D01*
X0046358Y0041342D01*
X0046350Y0041258D01*
X0046338Y0041175D01*
X0046322Y0041093D01*
X0046303Y0041012D01*
X0046279Y0040931D01*
X0046252Y0040852D01*
X0046221Y0040774D01*
X0046187Y0040698D01*
X0046148Y0040624D01*
X0046107Y0040551D01*
X0046062Y0040480D01*
X0046014Y0040412D01*
X0045962Y0040346D01*
X0045908Y0040282D01*
X0045850Y0040221D01*
X0045790Y0040163D01*
X0045727Y0040108D01*
X0045662Y0040056D01*
X0045594Y0040007D01*
X0045524Y0039961D01*
X0045452Y0039919D01*
X0045378Y0039880D01*
X0045302Y0039844D01*
X0045224Y0039812D01*
X0045146Y0039784D01*
X0045065Y0039760D01*
X0044984Y0039739D01*
X0044902Y0039723D01*
X0044820Y0039710D01*
X0044736Y0039701D01*
X0044653Y0039696D01*
X0044569Y0039695D01*
X0044485Y0039698D01*
X0044402Y0039705D01*
X0044319Y0039716D01*
X0044237Y0039731D01*
X0044155Y0039749D01*
X0044074Y0039772D01*
X0043995Y0039798D01*
X0043917Y0039828D01*
X0043840Y0039862D01*
X0043765Y0039899D01*
X0043692Y0039939D01*
X0043621Y0039984D01*
X0043552Y0040031D01*
X0043485Y0040082D01*
X0043421Y0040135D01*
X0043359Y0040192D01*
X0043301Y0040252D01*
X0043245Y0040314D01*
X0043192Y0040379D01*
X0043142Y0040446D01*
X0043095Y0040515D01*
X0043052Y0040587D01*
X0043012Y0040661D01*
X0042976Y0040736D01*
X0042943Y0040813D01*
X0042914Y0040892D01*
X0042889Y0040971D01*
X0042867Y0041052D01*
X0042850Y0041134D01*
X0042836Y0041217D01*
X0042826Y0041300D01*
X0042820Y0041383D01*
X0042818Y0041467D01*
X0193323Y0082841D02*
X0193325Y0082991D01*
X0193331Y0083141D01*
X0193341Y0083291D01*
X0193355Y0083441D01*
X0193373Y0083590D01*
X0193395Y0083739D01*
X0193420Y0083887D01*
X0193450Y0084034D01*
X0193484Y0084181D01*
X0193521Y0084326D01*
X0193562Y0084471D01*
X0193607Y0084614D01*
X0193656Y0084756D01*
X0193709Y0084897D01*
X0193765Y0085036D01*
X0193825Y0085174D01*
X0193889Y0085310D01*
X0193956Y0085445D01*
X0194027Y0085577D01*
X0194101Y0085708D01*
X0194179Y0085837D01*
X0194260Y0085963D01*
X0194345Y0086087D01*
X0194432Y0086210D01*
X0194523Y0086329D01*
X0194617Y0086446D01*
X0194714Y0086561D01*
X0194814Y0086673D01*
X0194918Y0086783D01*
X0195023Y0086889D01*
X0195132Y0086993D01*
X0195244Y0087094D01*
X0195358Y0087192D01*
X0195474Y0087287D01*
X0195593Y0087378D01*
X0195715Y0087467D01*
X0195839Y0087552D01*
X0195965Y0087634D01*
X0196093Y0087712D01*
X0196223Y0087788D01*
X0196355Y0087859D01*
X0196489Y0087927D01*
X0196625Y0087992D01*
X0196762Y0088053D01*
X0196901Y0088110D01*
X0197041Y0088164D01*
X0197183Y0088214D01*
X0197326Y0088260D01*
X0197470Y0088302D01*
X0197616Y0088340D01*
X0197762Y0088375D01*
X0197909Y0088406D01*
X0198057Y0088432D01*
X0198206Y0088455D01*
X0198355Y0088474D01*
X0198504Y0088489D01*
X0198654Y0088500D01*
X0198804Y0088507D01*
X0198954Y0088510D01*
X0199105Y0088509D01*
X0199255Y0088504D01*
X0199405Y0088495D01*
X0199555Y0088482D01*
X0199704Y0088465D01*
X0199853Y0088444D01*
X0200001Y0088419D01*
X0200149Y0088391D01*
X0200295Y0088358D01*
X0200441Y0088322D01*
X0200586Y0088281D01*
X0200730Y0088237D01*
X0200872Y0088189D01*
X0201013Y0088137D01*
X0201153Y0088082D01*
X0201291Y0088023D01*
X0201427Y0087960D01*
X0201562Y0087894D01*
X0201695Y0087824D01*
X0201826Y0087750D01*
X0201956Y0087674D01*
X0202083Y0087593D01*
X0202208Y0087510D01*
X0202330Y0087423D01*
X0202451Y0087333D01*
X0202568Y0087240D01*
X0202684Y0087143D01*
X0202796Y0087044D01*
X0202907Y0086941D01*
X0203014Y0086836D01*
X0203118Y0086728D01*
X0203220Y0086618D01*
X0203319Y0086504D01*
X0203414Y0086388D01*
X0203507Y0086270D01*
X0203596Y0086149D01*
X0203682Y0086026D01*
X0203765Y0085900D01*
X0203844Y0085773D01*
X0203920Y0085643D01*
X0203993Y0085511D01*
X0204062Y0085378D01*
X0204127Y0085242D01*
X0204189Y0085106D01*
X0204247Y0084967D01*
X0204302Y0084827D01*
X0204353Y0084685D01*
X0204400Y0084543D01*
X0204443Y0084399D01*
X0204482Y0084254D01*
X0204518Y0084108D01*
X0204549Y0083961D01*
X0204577Y0083813D01*
X0204601Y0083665D01*
X0204621Y0083516D01*
X0204637Y0083366D01*
X0204649Y0083216D01*
X0204657Y0083066D01*
X0204661Y0082916D01*
X0204661Y0082766D01*
X0204657Y0082616D01*
X0204649Y0082466D01*
X0204637Y0082316D01*
X0204621Y0082166D01*
X0204601Y0082017D01*
X0204577Y0081869D01*
X0204549Y0081721D01*
X0204518Y0081574D01*
X0204482Y0081428D01*
X0204443Y0081283D01*
X0204400Y0081139D01*
X0204353Y0080997D01*
X0204302Y0080855D01*
X0204247Y0080715D01*
X0204189Y0080576D01*
X0204127Y0080440D01*
X0204062Y0080304D01*
X0203993Y0080171D01*
X0203920Y0080039D01*
X0203844Y0079909D01*
X0203765Y0079782D01*
X0203682Y0079656D01*
X0203596Y0079533D01*
X0203507Y0079412D01*
X0203414Y0079294D01*
X0203319Y0079178D01*
X0203220Y0079064D01*
X0203118Y0078954D01*
X0203014Y0078846D01*
X0202907Y0078741D01*
X0202796Y0078638D01*
X0202684Y0078539D01*
X0202568Y0078442D01*
X0202451Y0078349D01*
X0202330Y0078259D01*
X0202208Y0078172D01*
X0202083Y0078089D01*
X0201956Y0078008D01*
X0201827Y0077932D01*
X0201695Y0077858D01*
X0201562Y0077788D01*
X0201427Y0077722D01*
X0201291Y0077659D01*
X0201153Y0077600D01*
X0201013Y0077545D01*
X0200872Y0077493D01*
X0200730Y0077445D01*
X0200586Y0077401D01*
X0200441Y0077360D01*
X0200295Y0077324D01*
X0200149Y0077291D01*
X0200001Y0077263D01*
X0199853Y0077238D01*
X0199704Y0077217D01*
X0199555Y0077200D01*
X0199405Y0077187D01*
X0199255Y0077178D01*
X0199105Y0077173D01*
X0198954Y0077172D01*
X0198804Y0077175D01*
X0198654Y0077182D01*
X0198504Y0077193D01*
X0198355Y0077208D01*
X0198206Y0077227D01*
X0198057Y0077250D01*
X0197909Y0077276D01*
X0197762Y0077307D01*
X0197616Y0077342D01*
X0197470Y0077380D01*
X0197326Y0077422D01*
X0197183Y0077468D01*
X0197041Y0077518D01*
X0196901Y0077572D01*
X0196762Y0077629D01*
X0196625Y0077690D01*
X0196489Y0077755D01*
X0196355Y0077823D01*
X0196223Y0077894D01*
X0196093Y0077970D01*
X0195965Y0078048D01*
X0195839Y0078130D01*
X0195715Y0078215D01*
X0195593Y0078304D01*
X0195474Y0078395D01*
X0195358Y0078490D01*
X0195244Y0078588D01*
X0195132Y0078689D01*
X0195023Y0078793D01*
X0194918Y0078899D01*
X0194814Y0079009D01*
X0194714Y0079121D01*
X0194617Y0079236D01*
X0194523Y0079353D01*
X0194432Y0079472D01*
X0194345Y0079595D01*
X0194260Y0079719D01*
X0194179Y0079845D01*
X0194101Y0079974D01*
X0194027Y0080105D01*
X0193956Y0080237D01*
X0193889Y0080372D01*
X0193825Y0080508D01*
X0193765Y0080646D01*
X0193709Y0080785D01*
X0193656Y0080926D01*
X0193607Y0081068D01*
X0193562Y0081211D01*
X0193521Y0081356D01*
X0193484Y0081501D01*
X0193450Y0081648D01*
X0193420Y0081795D01*
X0193395Y0081943D01*
X0193373Y0082092D01*
X0193355Y0082241D01*
X0193341Y0082391D01*
X0193331Y0082541D01*
X0193325Y0082691D01*
X0193323Y0082841D01*
X0274819Y0082841D02*
X0274821Y0082991D01*
X0274827Y0083141D01*
X0274837Y0083291D01*
X0274851Y0083441D01*
X0274869Y0083590D01*
X0274891Y0083739D01*
X0274916Y0083887D01*
X0274946Y0084034D01*
X0274980Y0084181D01*
X0275017Y0084326D01*
X0275058Y0084471D01*
X0275103Y0084614D01*
X0275152Y0084756D01*
X0275205Y0084897D01*
X0275261Y0085036D01*
X0275321Y0085174D01*
X0275385Y0085310D01*
X0275452Y0085445D01*
X0275523Y0085577D01*
X0275597Y0085708D01*
X0275675Y0085837D01*
X0275756Y0085963D01*
X0275841Y0086087D01*
X0275928Y0086210D01*
X0276019Y0086329D01*
X0276113Y0086446D01*
X0276210Y0086561D01*
X0276310Y0086673D01*
X0276414Y0086783D01*
X0276519Y0086889D01*
X0276628Y0086993D01*
X0276740Y0087094D01*
X0276854Y0087192D01*
X0276970Y0087287D01*
X0277089Y0087378D01*
X0277211Y0087467D01*
X0277335Y0087552D01*
X0277461Y0087634D01*
X0277589Y0087712D01*
X0277719Y0087788D01*
X0277851Y0087859D01*
X0277985Y0087927D01*
X0278121Y0087992D01*
X0278258Y0088053D01*
X0278397Y0088110D01*
X0278537Y0088164D01*
X0278679Y0088214D01*
X0278822Y0088260D01*
X0278966Y0088302D01*
X0279112Y0088340D01*
X0279258Y0088375D01*
X0279405Y0088406D01*
X0279553Y0088432D01*
X0279702Y0088455D01*
X0279851Y0088474D01*
X0280000Y0088489D01*
X0280150Y0088500D01*
X0280300Y0088507D01*
X0280450Y0088510D01*
X0280601Y0088509D01*
X0280751Y0088504D01*
X0280901Y0088495D01*
X0281051Y0088482D01*
X0281200Y0088465D01*
X0281349Y0088444D01*
X0281497Y0088419D01*
X0281645Y0088391D01*
X0281791Y0088358D01*
X0281937Y0088322D01*
X0282082Y0088281D01*
X0282226Y0088237D01*
X0282368Y0088189D01*
X0282509Y0088137D01*
X0282649Y0088082D01*
X0282787Y0088023D01*
X0282923Y0087960D01*
X0283058Y0087894D01*
X0283191Y0087824D01*
X0283322Y0087750D01*
X0283452Y0087674D01*
X0283579Y0087593D01*
X0283704Y0087510D01*
X0283826Y0087423D01*
X0283947Y0087333D01*
X0284064Y0087240D01*
X0284180Y0087143D01*
X0284292Y0087044D01*
X0284403Y0086941D01*
X0284510Y0086836D01*
X0284614Y0086728D01*
X0284716Y0086618D01*
X0284815Y0086504D01*
X0284910Y0086388D01*
X0285003Y0086270D01*
X0285092Y0086149D01*
X0285178Y0086026D01*
X0285261Y0085900D01*
X0285340Y0085773D01*
X0285416Y0085643D01*
X0285489Y0085511D01*
X0285558Y0085378D01*
X0285623Y0085242D01*
X0285685Y0085106D01*
X0285743Y0084967D01*
X0285798Y0084827D01*
X0285849Y0084685D01*
X0285896Y0084543D01*
X0285939Y0084399D01*
X0285978Y0084254D01*
X0286014Y0084108D01*
X0286045Y0083961D01*
X0286073Y0083813D01*
X0286097Y0083665D01*
X0286117Y0083516D01*
X0286133Y0083366D01*
X0286145Y0083216D01*
X0286153Y0083066D01*
X0286157Y0082916D01*
X0286157Y0082766D01*
X0286153Y0082616D01*
X0286145Y0082466D01*
X0286133Y0082316D01*
X0286117Y0082166D01*
X0286097Y0082017D01*
X0286073Y0081869D01*
X0286045Y0081721D01*
X0286014Y0081574D01*
X0285978Y0081428D01*
X0285939Y0081283D01*
X0285896Y0081139D01*
X0285849Y0080997D01*
X0285798Y0080855D01*
X0285743Y0080715D01*
X0285685Y0080576D01*
X0285623Y0080440D01*
X0285558Y0080304D01*
X0285489Y0080171D01*
X0285416Y0080039D01*
X0285340Y0079909D01*
X0285261Y0079782D01*
X0285178Y0079656D01*
X0285092Y0079533D01*
X0285003Y0079412D01*
X0284910Y0079294D01*
X0284815Y0079178D01*
X0284716Y0079064D01*
X0284614Y0078954D01*
X0284510Y0078846D01*
X0284403Y0078741D01*
X0284292Y0078638D01*
X0284180Y0078539D01*
X0284064Y0078442D01*
X0283947Y0078349D01*
X0283826Y0078259D01*
X0283704Y0078172D01*
X0283579Y0078089D01*
X0283452Y0078008D01*
X0283323Y0077932D01*
X0283191Y0077858D01*
X0283058Y0077788D01*
X0282923Y0077722D01*
X0282787Y0077659D01*
X0282649Y0077600D01*
X0282509Y0077545D01*
X0282368Y0077493D01*
X0282226Y0077445D01*
X0282082Y0077401D01*
X0281937Y0077360D01*
X0281791Y0077324D01*
X0281645Y0077291D01*
X0281497Y0077263D01*
X0281349Y0077238D01*
X0281200Y0077217D01*
X0281051Y0077200D01*
X0280901Y0077187D01*
X0280751Y0077178D01*
X0280601Y0077173D01*
X0280450Y0077172D01*
X0280300Y0077175D01*
X0280150Y0077182D01*
X0280000Y0077193D01*
X0279851Y0077208D01*
X0279702Y0077227D01*
X0279553Y0077250D01*
X0279405Y0077276D01*
X0279258Y0077307D01*
X0279112Y0077342D01*
X0278966Y0077380D01*
X0278822Y0077422D01*
X0278679Y0077468D01*
X0278537Y0077518D01*
X0278397Y0077572D01*
X0278258Y0077629D01*
X0278121Y0077690D01*
X0277985Y0077755D01*
X0277851Y0077823D01*
X0277719Y0077894D01*
X0277589Y0077970D01*
X0277461Y0078048D01*
X0277335Y0078130D01*
X0277211Y0078215D01*
X0277089Y0078304D01*
X0276970Y0078395D01*
X0276854Y0078490D01*
X0276740Y0078588D01*
X0276628Y0078689D01*
X0276519Y0078793D01*
X0276414Y0078899D01*
X0276310Y0079009D01*
X0276210Y0079121D01*
X0276113Y0079236D01*
X0276019Y0079353D01*
X0275928Y0079472D01*
X0275841Y0079595D01*
X0275756Y0079719D01*
X0275675Y0079845D01*
X0275597Y0079974D01*
X0275523Y0080105D01*
X0275452Y0080237D01*
X0275385Y0080372D01*
X0275321Y0080508D01*
X0275261Y0080646D01*
X0275205Y0080785D01*
X0275152Y0080926D01*
X0275103Y0081068D01*
X0275058Y0081211D01*
X0275017Y0081356D01*
X0274980Y0081501D01*
X0274946Y0081648D01*
X0274916Y0081795D01*
X0274891Y0081943D01*
X0274869Y0082092D01*
X0274851Y0082241D01*
X0274837Y0082391D01*
X0274827Y0082541D01*
X0274821Y0082691D01*
X0274819Y0082841D01*
X0284100Y0023670D02*
X0284102Y0023823D01*
X0284108Y0023976D01*
X0284118Y0024129D01*
X0284132Y0024282D01*
X0284150Y0024434D01*
X0284171Y0024585D01*
X0284197Y0024736D01*
X0284227Y0024887D01*
X0284260Y0025036D01*
X0284298Y0025185D01*
X0284339Y0025332D01*
X0284384Y0025479D01*
X0284433Y0025624D01*
X0284485Y0025768D01*
X0284542Y0025910D01*
X0284602Y0026051D01*
X0284665Y0026190D01*
X0284733Y0026328D01*
X0284803Y0026464D01*
X0284878Y0026598D01*
X0284955Y0026730D01*
X0285037Y0026860D01*
X0285121Y0026988D01*
X0285209Y0027113D01*
X0285300Y0027236D01*
X0285394Y0027357D01*
X0285491Y0027475D01*
X0285592Y0027591D01*
X0285695Y0027704D01*
X0285801Y0027815D01*
X0285910Y0027922D01*
X0286022Y0028027D01*
X0286136Y0028129D01*
X0286253Y0028228D01*
X0286373Y0028323D01*
X0286495Y0028416D01*
X0286619Y0028505D01*
X0286746Y0028592D01*
X0286875Y0028674D01*
X0287006Y0028754D01*
X0287139Y0028830D01*
X0287274Y0028902D01*
X0287411Y0028971D01*
X0287549Y0029037D01*
X0287689Y0029099D01*
X0287831Y0029157D01*
X0287974Y0029211D01*
X0288119Y0029262D01*
X0288264Y0029309D01*
X0288411Y0029352D01*
X0288559Y0029391D01*
X0288708Y0029427D01*
X0288858Y0029458D01*
X0289009Y0029486D01*
X0289160Y0029510D01*
X0289312Y0029530D01*
X0289465Y0029546D01*
X0289617Y0029558D01*
X0289770Y0029566D01*
X0289923Y0029570D01*
X0290077Y0029570D01*
X0290230Y0029566D01*
X0290383Y0029558D01*
X0290535Y0029546D01*
X0290688Y0029530D01*
X0290840Y0029510D01*
X0290991Y0029486D01*
X0291142Y0029458D01*
X0291292Y0029427D01*
X0291441Y0029391D01*
X0291589Y0029352D01*
X0291736Y0029309D01*
X0291881Y0029262D01*
X0292026Y0029211D01*
X0292169Y0029157D01*
X0292311Y0029099D01*
X0292451Y0029037D01*
X0292589Y0028971D01*
X0292726Y0028902D01*
X0292861Y0028830D01*
X0292994Y0028754D01*
X0293125Y0028674D01*
X0293254Y0028592D01*
X0293381Y0028505D01*
X0293505Y0028416D01*
X0293627Y0028323D01*
X0293747Y0028228D01*
X0293864Y0028129D01*
X0293978Y0028027D01*
X0294090Y0027922D01*
X0294199Y0027815D01*
X0294305Y0027704D01*
X0294408Y0027591D01*
X0294509Y0027475D01*
X0294606Y0027357D01*
X0294700Y0027236D01*
X0294791Y0027113D01*
X0294879Y0026988D01*
X0294963Y0026860D01*
X0295045Y0026730D01*
X0295122Y0026598D01*
X0295197Y0026464D01*
X0295267Y0026328D01*
X0295335Y0026190D01*
X0295398Y0026051D01*
X0295458Y0025910D01*
X0295515Y0025768D01*
X0295567Y0025624D01*
X0295616Y0025479D01*
X0295661Y0025332D01*
X0295702Y0025185D01*
X0295740Y0025036D01*
X0295773Y0024887D01*
X0295803Y0024736D01*
X0295829Y0024585D01*
X0295850Y0024434D01*
X0295868Y0024282D01*
X0295882Y0024129D01*
X0295892Y0023976D01*
X0295898Y0023823D01*
X0295900Y0023670D01*
X0295898Y0023517D01*
X0295892Y0023364D01*
X0295882Y0023211D01*
X0295868Y0023058D01*
X0295850Y0022906D01*
X0295829Y0022755D01*
X0295803Y0022604D01*
X0295773Y0022453D01*
X0295740Y0022304D01*
X0295702Y0022155D01*
X0295661Y0022008D01*
X0295616Y0021861D01*
X0295567Y0021716D01*
X0295515Y0021572D01*
X0295458Y0021430D01*
X0295398Y0021289D01*
X0295335Y0021150D01*
X0295267Y0021012D01*
X0295197Y0020876D01*
X0295122Y0020742D01*
X0295045Y0020610D01*
X0294963Y0020480D01*
X0294879Y0020352D01*
X0294791Y0020227D01*
X0294700Y0020104D01*
X0294606Y0019983D01*
X0294509Y0019865D01*
X0294408Y0019749D01*
X0294305Y0019636D01*
X0294199Y0019525D01*
X0294090Y0019418D01*
X0293978Y0019313D01*
X0293864Y0019211D01*
X0293747Y0019112D01*
X0293627Y0019017D01*
X0293505Y0018924D01*
X0293381Y0018835D01*
X0293254Y0018748D01*
X0293125Y0018666D01*
X0292994Y0018586D01*
X0292861Y0018510D01*
X0292726Y0018438D01*
X0292589Y0018369D01*
X0292451Y0018303D01*
X0292311Y0018241D01*
X0292169Y0018183D01*
X0292026Y0018129D01*
X0291881Y0018078D01*
X0291736Y0018031D01*
X0291589Y0017988D01*
X0291441Y0017949D01*
X0291292Y0017913D01*
X0291142Y0017882D01*
X0290991Y0017854D01*
X0290840Y0017830D01*
X0290688Y0017810D01*
X0290535Y0017794D01*
X0290383Y0017782D01*
X0290230Y0017774D01*
X0290077Y0017770D01*
X0289923Y0017770D01*
X0289770Y0017774D01*
X0289617Y0017782D01*
X0289465Y0017794D01*
X0289312Y0017810D01*
X0289160Y0017830D01*
X0289009Y0017854D01*
X0288858Y0017882D01*
X0288708Y0017913D01*
X0288559Y0017949D01*
X0288411Y0017988D01*
X0288264Y0018031D01*
X0288119Y0018078D01*
X0287974Y0018129D01*
X0287831Y0018183D01*
X0287689Y0018241D01*
X0287549Y0018303D01*
X0287411Y0018369D01*
X0287274Y0018438D01*
X0287139Y0018510D01*
X0287006Y0018586D01*
X0286875Y0018666D01*
X0286746Y0018748D01*
X0286619Y0018835D01*
X0286495Y0018924D01*
X0286373Y0019017D01*
X0286253Y0019112D01*
X0286136Y0019211D01*
X0286022Y0019313D01*
X0285910Y0019418D01*
X0285801Y0019525D01*
X0285695Y0019636D01*
X0285592Y0019749D01*
X0285491Y0019865D01*
X0285394Y0019983D01*
X0285300Y0020104D01*
X0285209Y0020227D01*
X0285121Y0020352D01*
X0285037Y0020480D01*
X0284955Y0020610D01*
X0284878Y0020742D01*
X0284803Y0020876D01*
X0284733Y0021012D01*
X0284665Y0021150D01*
X0284602Y0021289D01*
X0284542Y0021430D01*
X0284485Y0021572D01*
X0284433Y0021716D01*
X0284384Y0021861D01*
X0284339Y0022008D01*
X0284298Y0022155D01*
X0284260Y0022304D01*
X0284227Y0022453D01*
X0284197Y0022604D01*
X0284171Y0022755D01*
X0284150Y0022906D01*
X0284132Y0023058D01*
X0284118Y0023211D01*
X0284108Y0023364D01*
X0284102Y0023517D01*
X0284100Y0023670D01*
X0275100Y0156170D02*
X0275102Y0156323D01*
X0275108Y0156476D01*
X0275118Y0156629D01*
X0275132Y0156782D01*
X0275150Y0156934D01*
X0275171Y0157085D01*
X0275197Y0157236D01*
X0275227Y0157387D01*
X0275260Y0157536D01*
X0275298Y0157685D01*
X0275339Y0157832D01*
X0275384Y0157979D01*
X0275433Y0158124D01*
X0275485Y0158268D01*
X0275542Y0158410D01*
X0275602Y0158551D01*
X0275665Y0158690D01*
X0275733Y0158828D01*
X0275803Y0158964D01*
X0275878Y0159098D01*
X0275955Y0159230D01*
X0276037Y0159360D01*
X0276121Y0159488D01*
X0276209Y0159613D01*
X0276300Y0159736D01*
X0276394Y0159857D01*
X0276491Y0159975D01*
X0276592Y0160091D01*
X0276695Y0160204D01*
X0276801Y0160315D01*
X0276910Y0160422D01*
X0277022Y0160527D01*
X0277136Y0160629D01*
X0277253Y0160728D01*
X0277373Y0160823D01*
X0277495Y0160916D01*
X0277619Y0161005D01*
X0277746Y0161092D01*
X0277875Y0161174D01*
X0278006Y0161254D01*
X0278139Y0161330D01*
X0278274Y0161402D01*
X0278411Y0161471D01*
X0278549Y0161537D01*
X0278689Y0161599D01*
X0278831Y0161657D01*
X0278974Y0161711D01*
X0279119Y0161762D01*
X0279264Y0161809D01*
X0279411Y0161852D01*
X0279559Y0161891D01*
X0279708Y0161927D01*
X0279858Y0161958D01*
X0280009Y0161986D01*
X0280160Y0162010D01*
X0280312Y0162030D01*
X0280465Y0162046D01*
X0280617Y0162058D01*
X0280770Y0162066D01*
X0280923Y0162070D01*
X0281077Y0162070D01*
X0281230Y0162066D01*
X0281383Y0162058D01*
X0281535Y0162046D01*
X0281688Y0162030D01*
X0281840Y0162010D01*
X0281991Y0161986D01*
X0282142Y0161958D01*
X0282292Y0161927D01*
X0282441Y0161891D01*
X0282589Y0161852D01*
X0282736Y0161809D01*
X0282881Y0161762D01*
X0283026Y0161711D01*
X0283169Y0161657D01*
X0283311Y0161599D01*
X0283451Y0161537D01*
X0283589Y0161471D01*
X0283726Y0161402D01*
X0283861Y0161330D01*
X0283994Y0161254D01*
X0284125Y0161174D01*
X0284254Y0161092D01*
X0284381Y0161005D01*
X0284505Y0160916D01*
X0284627Y0160823D01*
X0284747Y0160728D01*
X0284864Y0160629D01*
X0284978Y0160527D01*
X0285090Y0160422D01*
X0285199Y0160315D01*
X0285305Y0160204D01*
X0285408Y0160091D01*
X0285509Y0159975D01*
X0285606Y0159857D01*
X0285700Y0159736D01*
X0285791Y0159613D01*
X0285879Y0159488D01*
X0285963Y0159360D01*
X0286045Y0159230D01*
X0286122Y0159098D01*
X0286197Y0158964D01*
X0286267Y0158828D01*
X0286335Y0158690D01*
X0286398Y0158551D01*
X0286458Y0158410D01*
X0286515Y0158268D01*
X0286567Y0158124D01*
X0286616Y0157979D01*
X0286661Y0157832D01*
X0286702Y0157685D01*
X0286740Y0157536D01*
X0286773Y0157387D01*
X0286803Y0157236D01*
X0286829Y0157085D01*
X0286850Y0156934D01*
X0286868Y0156782D01*
X0286882Y0156629D01*
X0286892Y0156476D01*
X0286898Y0156323D01*
X0286900Y0156170D01*
X0286898Y0156017D01*
X0286892Y0155864D01*
X0286882Y0155711D01*
X0286868Y0155558D01*
X0286850Y0155406D01*
X0286829Y0155255D01*
X0286803Y0155104D01*
X0286773Y0154953D01*
X0286740Y0154804D01*
X0286702Y0154655D01*
X0286661Y0154508D01*
X0286616Y0154361D01*
X0286567Y0154216D01*
X0286515Y0154072D01*
X0286458Y0153930D01*
X0286398Y0153789D01*
X0286335Y0153650D01*
X0286267Y0153512D01*
X0286197Y0153376D01*
X0286122Y0153242D01*
X0286045Y0153110D01*
X0285963Y0152980D01*
X0285879Y0152852D01*
X0285791Y0152727D01*
X0285700Y0152604D01*
X0285606Y0152483D01*
X0285509Y0152365D01*
X0285408Y0152249D01*
X0285305Y0152136D01*
X0285199Y0152025D01*
X0285090Y0151918D01*
X0284978Y0151813D01*
X0284864Y0151711D01*
X0284747Y0151612D01*
X0284627Y0151517D01*
X0284505Y0151424D01*
X0284381Y0151335D01*
X0284254Y0151248D01*
X0284125Y0151166D01*
X0283994Y0151086D01*
X0283861Y0151010D01*
X0283726Y0150938D01*
X0283589Y0150869D01*
X0283451Y0150803D01*
X0283311Y0150741D01*
X0283169Y0150683D01*
X0283026Y0150629D01*
X0282881Y0150578D01*
X0282736Y0150531D01*
X0282589Y0150488D01*
X0282441Y0150449D01*
X0282292Y0150413D01*
X0282142Y0150382D01*
X0281991Y0150354D01*
X0281840Y0150330D01*
X0281688Y0150310D01*
X0281535Y0150294D01*
X0281383Y0150282D01*
X0281230Y0150274D01*
X0281077Y0150270D01*
X0280923Y0150270D01*
X0280770Y0150274D01*
X0280617Y0150282D01*
X0280465Y0150294D01*
X0280312Y0150310D01*
X0280160Y0150330D01*
X0280009Y0150354D01*
X0279858Y0150382D01*
X0279708Y0150413D01*
X0279559Y0150449D01*
X0279411Y0150488D01*
X0279264Y0150531D01*
X0279119Y0150578D01*
X0278974Y0150629D01*
X0278831Y0150683D01*
X0278689Y0150741D01*
X0278549Y0150803D01*
X0278411Y0150869D01*
X0278274Y0150938D01*
X0278139Y0151010D01*
X0278006Y0151086D01*
X0277875Y0151166D01*
X0277746Y0151248D01*
X0277619Y0151335D01*
X0277495Y0151424D01*
X0277373Y0151517D01*
X0277253Y0151612D01*
X0277136Y0151711D01*
X0277022Y0151813D01*
X0276910Y0151918D01*
X0276801Y0152025D01*
X0276695Y0152136D01*
X0276592Y0152249D01*
X0276491Y0152365D01*
X0276394Y0152483D01*
X0276300Y0152604D01*
X0276209Y0152727D01*
X0276121Y0152852D01*
X0276037Y0152980D01*
X0275955Y0153110D01*
X0275878Y0153242D01*
X0275803Y0153376D01*
X0275733Y0153512D01*
X0275665Y0153650D01*
X0275602Y0153789D01*
X0275542Y0153930D01*
X0275485Y0154072D01*
X0275433Y0154216D01*
X0275384Y0154361D01*
X0275339Y0154508D01*
X0275298Y0154655D01*
X0275260Y0154804D01*
X0275227Y0154953D01*
X0275197Y0155104D01*
X0275171Y0155255D01*
X0275150Y0155406D01*
X0275132Y0155558D01*
X0275118Y0155711D01*
X0275108Y0155864D01*
X0275102Y0156017D01*
X0275100Y0156170D01*
X0274819Y0174180D02*
X0274821Y0174330D01*
X0274827Y0174480D01*
X0274837Y0174630D01*
X0274851Y0174780D01*
X0274869Y0174929D01*
X0274891Y0175078D01*
X0274916Y0175226D01*
X0274946Y0175373D01*
X0274980Y0175520D01*
X0275017Y0175665D01*
X0275058Y0175810D01*
X0275103Y0175953D01*
X0275152Y0176095D01*
X0275205Y0176236D01*
X0275261Y0176375D01*
X0275321Y0176513D01*
X0275385Y0176649D01*
X0275452Y0176784D01*
X0275523Y0176916D01*
X0275597Y0177047D01*
X0275675Y0177176D01*
X0275756Y0177302D01*
X0275841Y0177426D01*
X0275928Y0177549D01*
X0276019Y0177668D01*
X0276113Y0177785D01*
X0276210Y0177900D01*
X0276310Y0178012D01*
X0276414Y0178122D01*
X0276519Y0178228D01*
X0276628Y0178332D01*
X0276740Y0178433D01*
X0276854Y0178531D01*
X0276970Y0178626D01*
X0277089Y0178717D01*
X0277211Y0178806D01*
X0277335Y0178891D01*
X0277461Y0178973D01*
X0277589Y0179051D01*
X0277719Y0179127D01*
X0277851Y0179198D01*
X0277985Y0179266D01*
X0278121Y0179331D01*
X0278258Y0179392D01*
X0278397Y0179449D01*
X0278537Y0179503D01*
X0278679Y0179553D01*
X0278822Y0179599D01*
X0278966Y0179641D01*
X0279112Y0179679D01*
X0279258Y0179714D01*
X0279405Y0179745D01*
X0279553Y0179771D01*
X0279702Y0179794D01*
X0279851Y0179813D01*
X0280000Y0179828D01*
X0280150Y0179839D01*
X0280300Y0179846D01*
X0280450Y0179849D01*
X0280601Y0179848D01*
X0280751Y0179843D01*
X0280901Y0179834D01*
X0281051Y0179821D01*
X0281200Y0179804D01*
X0281349Y0179783D01*
X0281497Y0179758D01*
X0281645Y0179730D01*
X0281791Y0179697D01*
X0281937Y0179661D01*
X0282082Y0179620D01*
X0282226Y0179576D01*
X0282368Y0179528D01*
X0282509Y0179476D01*
X0282649Y0179421D01*
X0282787Y0179362D01*
X0282923Y0179299D01*
X0283058Y0179233D01*
X0283191Y0179163D01*
X0283322Y0179089D01*
X0283452Y0179013D01*
X0283579Y0178932D01*
X0283704Y0178849D01*
X0283826Y0178762D01*
X0283947Y0178672D01*
X0284064Y0178579D01*
X0284180Y0178482D01*
X0284292Y0178383D01*
X0284403Y0178280D01*
X0284510Y0178175D01*
X0284614Y0178067D01*
X0284716Y0177957D01*
X0284815Y0177843D01*
X0284910Y0177727D01*
X0285003Y0177609D01*
X0285092Y0177488D01*
X0285178Y0177365D01*
X0285261Y0177239D01*
X0285340Y0177112D01*
X0285416Y0176982D01*
X0285489Y0176850D01*
X0285558Y0176717D01*
X0285623Y0176581D01*
X0285685Y0176445D01*
X0285743Y0176306D01*
X0285798Y0176166D01*
X0285849Y0176024D01*
X0285896Y0175882D01*
X0285939Y0175738D01*
X0285978Y0175593D01*
X0286014Y0175447D01*
X0286045Y0175300D01*
X0286073Y0175152D01*
X0286097Y0175004D01*
X0286117Y0174855D01*
X0286133Y0174705D01*
X0286145Y0174555D01*
X0286153Y0174405D01*
X0286157Y0174255D01*
X0286157Y0174105D01*
X0286153Y0173955D01*
X0286145Y0173805D01*
X0286133Y0173655D01*
X0286117Y0173505D01*
X0286097Y0173356D01*
X0286073Y0173208D01*
X0286045Y0173060D01*
X0286014Y0172913D01*
X0285978Y0172767D01*
X0285939Y0172622D01*
X0285896Y0172478D01*
X0285849Y0172336D01*
X0285798Y0172194D01*
X0285743Y0172054D01*
X0285685Y0171915D01*
X0285623Y0171779D01*
X0285558Y0171643D01*
X0285489Y0171510D01*
X0285416Y0171378D01*
X0285340Y0171248D01*
X0285261Y0171121D01*
X0285178Y0170995D01*
X0285092Y0170872D01*
X0285003Y0170751D01*
X0284910Y0170633D01*
X0284815Y0170517D01*
X0284716Y0170403D01*
X0284614Y0170293D01*
X0284510Y0170185D01*
X0284403Y0170080D01*
X0284292Y0169977D01*
X0284180Y0169878D01*
X0284064Y0169781D01*
X0283947Y0169688D01*
X0283826Y0169598D01*
X0283704Y0169511D01*
X0283579Y0169428D01*
X0283452Y0169347D01*
X0283323Y0169271D01*
X0283191Y0169197D01*
X0283058Y0169127D01*
X0282923Y0169061D01*
X0282787Y0168998D01*
X0282649Y0168939D01*
X0282509Y0168884D01*
X0282368Y0168832D01*
X0282226Y0168784D01*
X0282082Y0168740D01*
X0281937Y0168699D01*
X0281791Y0168663D01*
X0281645Y0168630D01*
X0281497Y0168602D01*
X0281349Y0168577D01*
X0281200Y0168556D01*
X0281051Y0168539D01*
X0280901Y0168526D01*
X0280751Y0168517D01*
X0280601Y0168512D01*
X0280450Y0168511D01*
X0280300Y0168514D01*
X0280150Y0168521D01*
X0280000Y0168532D01*
X0279851Y0168547D01*
X0279702Y0168566D01*
X0279553Y0168589D01*
X0279405Y0168615D01*
X0279258Y0168646D01*
X0279112Y0168681D01*
X0278966Y0168719D01*
X0278822Y0168761D01*
X0278679Y0168807D01*
X0278537Y0168857D01*
X0278397Y0168911D01*
X0278258Y0168968D01*
X0278121Y0169029D01*
X0277985Y0169094D01*
X0277851Y0169162D01*
X0277719Y0169233D01*
X0277589Y0169309D01*
X0277461Y0169387D01*
X0277335Y0169469D01*
X0277211Y0169554D01*
X0277089Y0169643D01*
X0276970Y0169734D01*
X0276854Y0169829D01*
X0276740Y0169927D01*
X0276628Y0170028D01*
X0276519Y0170132D01*
X0276414Y0170238D01*
X0276310Y0170348D01*
X0276210Y0170460D01*
X0276113Y0170575D01*
X0276019Y0170692D01*
X0275928Y0170811D01*
X0275841Y0170934D01*
X0275756Y0171058D01*
X0275675Y0171184D01*
X0275597Y0171313D01*
X0275523Y0171444D01*
X0275452Y0171576D01*
X0275385Y0171711D01*
X0275321Y0171847D01*
X0275261Y0171985D01*
X0275205Y0172124D01*
X0275152Y0172265D01*
X0275103Y0172407D01*
X0275058Y0172550D01*
X0275017Y0172695D01*
X0274980Y0172840D01*
X0274946Y0172987D01*
X0274916Y0173134D01*
X0274891Y0173282D01*
X0274869Y0173431D01*
X0274851Y0173580D01*
X0274837Y0173730D01*
X0274827Y0173880D01*
X0274821Y0174030D01*
X0274819Y0174180D01*
X0193323Y0174180D02*
X0193325Y0174330D01*
X0193331Y0174480D01*
X0193341Y0174630D01*
X0193355Y0174780D01*
X0193373Y0174929D01*
X0193395Y0175078D01*
X0193420Y0175226D01*
X0193450Y0175373D01*
X0193484Y0175520D01*
X0193521Y0175665D01*
X0193562Y0175810D01*
X0193607Y0175953D01*
X0193656Y0176095D01*
X0193709Y0176236D01*
X0193765Y0176375D01*
X0193825Y0176513D01*
X0193889Y0176649D01*
X0193956Y0176784D01*
X0194027Y0176916D01*
X0194101Y0177047D01*
X0194179Y0177176D01*
X0194260Y0177302D01*
X0194345Y0177426D01*
X0194432Y0177549D01*
X0194523Y0177668D01*
X0194617Y0177785D01*
X0194714Y0177900D01*
X0194814Y0178012D01*
X0194918Y0178122D01*
X0195023Y0178228D01*
X0195132Y0178332D01*
X0195244Y0178433D01*
X0195358Y0178531D01*
X0195474Y0178626D01*
X0195593Y0178717D01*
X0195715Y0178806D01*
X0195839Y0178891D01*
X0195965Y0178973D01*
X0196093Y0179051D01*
X0196223Y0179127D01*
X0196355Y0179198D01*
X0196489Y0179266D01*
X0196625Y0179331D01*
X0196762Y0179392D01*
X0196901Y0179449D01*
X0197041Y0179503D01*
X0197183Y0179553D01*
X0197326Y0179599D01*
X0197470Y0179641D01*
X0197616Y0179679D01*
X0197762Y0179714D01*
X0197909Y0179745D01*
X0198057Y0179771D01*
X0198206Y0179794D01*
X0198355Y0179813D01*
X0198504Y0179828D01*
X0198654Y0179839D01*
X0198804Y0179846D01*
X0198954Y0179849D01*
X0199105Y0179848D01*
X0199255Y0179843D01*
X0199405Y0179834D01*
X0199555Y0179821D01*
X0199704Y0179804D01*
X0199853Y0179783D01*
X0200001Y0179758D01*
X0200149Y0179730D01*
X0200295Y0179697D01*
X0200441Y0179661D01*
X0200586Y0179620D01*
X0200730Y0179576D01*
X0200872Y0179528D01*
X0201013Y0179476D01*
X0201153Y0179421D01*
X0201291Y0179362D01*
X0201427Y0179299D01*
X0201562Y0179233D01*
X0201695Y0179163D01*
X0201826Y0179089D01*
X0201956Y0179013D01*
X0202083Y0178932D01*
X0202208Y0178849D01*
X0202330Y0178762D01*
X0202451Y0178672D01*
X0202568Y0178579D01*
X0202684Y0178482D01*
X0202796Y0178383D01*
X0202907Y0178280D01*
X0203014Y0178175D01*
X0203118Y0178067D01*
X0203220Y0177957D01*
X0203319Y0177843D01*
X0203414Y0177727D01*
X0203507Y0177609D01*
X0203596Y0177488D01*
X0203682Y0177365D01*
X0203765Y0177239D01*
X0203844Y0177112D01*
X0203920Y0176982D01*
X0203993Y0176850D01*
X0204062Y0176717D01*
X0204127Y0176581D01*
X0204189Y0176445D01*
X0204247Y0176306D01*
X0204302Y0176166D01*
X0204353Y0176024D01*
X0204400Y0175882D01*
X0204443Y0175738D01*
X0204482Y0175593D01*
X0204518Y0175447D01*
X0204549Y0175300D01*
X0204577Y0175152D01*
X0204601Y0175004D01*
X0204621Y0174855D01*
X0204637Y0174705D01*
X0204649Y0174555D01*
X0204657Y0174405D01*
X0204661Y0174255D01*
X0204661Y0174105D01*
X0204657Y0173955D01*
X0204649Y0173805D01*
X0204637Y0173655D01*
X0204621Y0173505D01*
X0204601Y0173356D01*
X0204577Y0173208D01*
X0204549Y0173060D01*
X0204518Y0172913D01*
X0204482Y0172767D01*
X0204443Y0172622D01*
X0204400Y0172478D01*
X0204353Y0172336D01*
X0204302Y0172194D01*
X0204247Y0172054D01*
X0204189Y0171915D01*
X0204127Y0171779D01*
X0204062Y0171643D01*
X0203993Y0171510D01*
X0203920Y0171378D01*
X0203844Y0171248D01*
X0203765Y0171121D01*
X0203682Y0170995D01*
X0203596Y0170872D01*
X0203507Y0170751D01*
X0203414Y0170633D01*
X0203319Y0170517D01*
X0203220Y0170403D01*
X0203118Y0170293D01*
X0203014Y0170185D01*
X0202907Y0170080D01*
X0202796Y0169977D01*
X0202684Y0169878D01*
X0202568Y0169781D01*
X0202451Y0169688D01*
X0202330Y0169598D01*
X0202208Y0169511D01*
X0202083Y0169428D01*
X0201956Y0169347D01*
X0201827Y0169271D01*
X0201695Y0169197D01*
X0201562Y0169127D01*
X0201427Y0169061D01*
X0201291Y0168998D01*
X0201153Y0168939D01*
X0201013Y0168884D01*
X0200872Y0168832D01*
X0200730Y0168784D01*
X0200586Y0168740D01*
X0200441Y0168699D01*
X0200295Y0168663D01*
X0200149Y0168630D01*
X0200001Y0168602D01*
X0199853Y0168577D01*
X0199704Y0168556D01*
X0199555Y0168539D01*
X0199405Y0168526D01*
X0199255Y0168517D01*
X0199105Y0168512D01*
X0198954Y0168511D01*
X0198804Y0168514D01*
X0198654Y0168521D01*
X0198504Y0168532D01*
X0198355Y0168547D01*
X0198206Y0168566D01*
X0198057Y0168589D01*
X0197909Y0168615D01*
X0197762Y0168646D01*
X0197616Y0168681D01*
X0197470Y0168719D01*
X0197326Y0168761D01*
X0197183Y0168807D01*
X0197041Y0168857D01*
X0196901Y0168911D01*
X0196762Y0168968D01*
X0196625Y0169029D01*
X0196489Y0169094D01*
X0196355Y0169162D01*
X0196223Y0169233D01*
X0196093Y0169309D01*
X0195965Y0169387D01*
X0195839Y0169469D01*
X0195715Y0169554D01*
X0195593Y0169643D01*
X0195474Y0169734D01*
X0195358Y0169829D01*
X0195244Y0169927D01*
X0195132Y0170028D01*
X0195023Y0170132D01*
X0194918Y0170238D01*
X0194814Y0170348D01*
X0194714Y0170460D01*
X0194617Y0170575D01*
X0194523Y0170692D01*
X0194432Y0170811D01*
X0194345Y0170934D01*
X0194260Y0171058D01*
X0194179Y0171184D01*
X0194101Y0171313D01*
X0194027Y0171444D01*
X0193956Y0171576D01*
X0193889Y0171711D01*
X0193825Y0171847D01*
X0193765Y0171985D01*
X0193709Y0172124D01*
X0193656Y0172265D01*
X0193607Y0172407D01*
X0193562Y0172550D01*
X0193521Y0172695D01*
X0193484Y0172840D01*
X0193450Y0172987D01*
X0193420Y0173134D01*
X0193395Y0173282D01*
X0193373Y0173431D01*
X0193355Y0173580D01*
X0193341Y0173730D01*
X0193331Y0173880D01*
X0193325Y0174030D01*
X0193323Y0174180D01*
X0006400Y0174170D02*
X0006402Y0174323D01*
X0006408Y0174476D01*
X0006418Y0174629D01*
X0006432Y0174782D01*
X0006450Y0174934D01*
X0006471Y0175085D01*
X0006497Y0175236D01*
X0006527Y0175387D01*
X0006560Y0175536D01*
X0006598Y0175685D01*
X0006639Y0175832D01*
X0006684Y0175979D01*
X0006733Y0176124D01*
X0006785Y0176268D01*
X0006842Y0176410D01*
X0006902Y0176551D01*
X0006965Y0176690D01*
X0007033Y0176828D01*
X0007103Y0176964D01*
X0007178Y0177098D01*
X0007255Y0177230D01*
X0007337Y0177360D01*
X0007421Y0177488D01*
X0007509Y0177613D01*
X0007600Y0177736D01*
X0007694Y0177857D01*
X0007791Y0177975D01*
X0007892Y0178091D01*
X0007995Y0178204D01*
X0008101Y0178315D01*
X0008210Y0178422D01*
X0008322Y0178527D01*
X0008436Y0178629D01*
X0008553Y0178728D01*
X0008673Y0178823D01*
X0008795Y0178916D01*
X0008919Y0179005D01*
X0009046Y0179092D01*
X0009175Y0179174D01*
X0009306Y0179254D01*
X0009439Y0179330D01*
X0009574Y0179402D01*
X0009711Y0179471D01*
X0009849Y0179537D01*
X0009989Y0179599D01*
X0010131Y0179657D01*
X0010274Y0179711D01*
X0010419Y0179762D01*
X0010564Y0179809D01*
X0010711Y0179852D01*
X0010859Y0179891D01*
X0011008Y0179927D01*
X0011158Y0179958D01*
X0011309Y0179986D01*
X0011460Y0180010D01*
X0011612Y0180030D01*
X0011765Y0180046D01*
X0011917Y0180058D01*
X0012070Y0180066D01*
X0012223Y0180070D01*
X0012377Y0180070D01*
X0012530Y0180066D01*
X0012683Y0180058D01*
X0012835Y0180046D01*
X0012988Y0180030D01*
X0013140Y0180010D01*
X0013291Y0179986D01*
X0013442Y0179958D01*
X0013592Y0179927D01*
X0013741Y0179891D01*
X0013889Y0179852D01*
X0014036Y0179809D01*
X0014181Y0179762D01*
X0014326Y0179711D01*
X0014469Y0179657D01*
X0014611Y0179599D01*
X0014751Y0179537D01*
X0014889Y0179471D01*
X0015026Y0179402D01*
X0015161Y0179330D01*
X0015294Y0179254D01*
X0015425Y0179174D01*
X0015554Y0179092D01*
X0015681Y0179005D01*
X0015805Y0178916D01*
X0015927Y0178823D01*
X0016047Y0178728D01*
X0016164Y0178629D01*
X0016278Y0178527D01*
X0016390Y0178422D01*
X0016499Y0178315D01*
X0016605Y0178204D01*
X0016708Y0178091D01*
X0016809Y0177975D01*
X0016906Y0177857D01*
X0017000Y0177736D01*
X0017091Y0177613D01*
X0017179Y0177488D01*
X0017263Y0177360D01*
X0017345Y0177230D01*
X0017422Y0177098D01*
X0017497Y0176964D01*
X0017567Y0176828D01*
X0017635Y0176690D01*
X0017698Y0176551D01*
X0017758Y0176410D01*
X0017815Y0176268D01*
X0017867Y0176124D01*
X0017916Y0175979D01*
X0017961Y0175832D01*
X0018002Y0175685D01*
X0018040Y0175536D01*
X0018073Y0175387D01*
X0018103Y0175236D01*
X0018129Y0175085D01*
X0018150Y0174934D01*
X0018168Y0174782D01*
X0018182Y0174629D01*
X0018192Y0174476D01*
X0018198Y0174323D01*
X0018200Y0174170D01*
X0018198Y0174017D01*
X0018192Y0173864D01*
X0018182Y0173711D01*
X0018168Y0173558D01*
X0018150Y0173406D01*
X0018129Y0173255D01*
X0018103Y0173104D01*
X0018073Y0172953D01*
X0018040Y0172804D01*
X0018002Y0172655D01*
X0017961Y0172508D01*
X0017916Y0172361D01*
X0017867Y0172216D01*
X0017815Y0172072D01*
X0017758Y0171930D01*
X0017698Y0171789D01*
X0017635Y0171650D01*
X0017567Y0171512D01*
X0017497Y0171376D01*
X0017422Y0171242D01*
X0017345Y0171110D01*
X0017263Y0170980D01*
X0017179Y0170852D01*
X0017091Y0170727D01*
X0017000Y0170604D01*
X0016906Y0170483D01*
X0016809Y0170365D01*
X0016708Y0170249D01*
X0016605Y0170136D01*
X0016499Y0170025D01*
X0016390Y0169918D01*
X0016278Y0169813D01*
X0016164Y0169711D01*
X0016047Y0169612D01*
X0015927Y0169517D01*
X0015805Y0169424D01*
X0015681Y0169335D01*
X0015554Y0169248D01*
X0015425Y0169166D01*
X0015294Y0169086D01*
X0015161Y0169010D01*
X0015026Y0168938D01*
X0014889Y0168869D01*
X0014751Y0168803D01*
X0014611Y0168741D01*
X0014469Y0168683D01*
X0014326Y0168629D01*
X0014181Y0168578D01*
X0014036Y0168531D01*
X0013889Y0168488D01*
X0013741Y0168449D01*
X0013592Y0168413D01*
X0013442Y0168382D01*
X0013291Y0168354D01*
X0013140Y0168330D01*
X0012988Y0168310D01*
X0012835Y0168294D01*
X0012683Y0168282D01*
X0012530Y0168274D01*
X0012377Y0168270D01*
X0012223Y0168270D01*
X0012070Y0168274D01*
X0011917Y0168282D01*
X0011765Y0168294D01*
X0011612Y0168310D01*
X0011460Y0168330D01*
X0011309Y0168354D01*
X0011158Y0168382D01*
X0011008Y0168413D01*
X0010859Y0168449D01*
X0010711Y0168488D01*
X0010564Y0168531D01*
X0010419Y0168578D01*
X0010274Y0168629D01*
X0010131Y0168683D01*
X0009989Y0168741D01*
X0009849Y0168803D01*
X0009711Y0168869D01*
X0009574Y0168938D01*
X0009439Y0169010D01*
X0009306Y0169086D01*
X0009175Y0169166D01*
X0009046Y0169248D01*
X0008919Y0169335D01*
X0008795Y0169424D01*
X0008673Y0169517D01*
X0008553Y0169612D01*
X0008436Y0169711D01*
X0008322Y0169813D01*
X0008210Y0169918D01*
X0008101Y0170025D01*
X0007995Y0170136D01*
X0007892Y0170249D01*
X0007791Y0170365D01*
X0007694Y0170483D01*
X0007600Y0170604D01*
X0007509Y0170727D01*
X0007421Y0170852D01*
X0007337Y0170980D01*
X0007255Y0171110D01*
X0007178Y0171242D01*
X0007103Y0171376D01*
X0007033Y0171512D01*
X0006965Y0171650D01*
X0006902Y0171789D01*
X0006842Y0171930D01*
X0006785Y0172072D01*
X0006733Y0172216D01*
X0006684Y0172361D01*
X0006639Y0172508D01*
X0006598Y0172655D01*
X0006560Y0172804D01*
X0006527Y0172953D01*
X0006497Y0173104D01*
X0006471Y0173255D01*
X0006450Y0173406D01*
X0006432Y0173558D01*
X0006418Y0173711D01*
X0006408Y0173864D01*
X0006402Y0174017D01*
X0006400Y0174170D01*
M02*
