G75*
%MOIN*%
%OFA0B0*%
%FSLAX25Y25*%
%IPPOS*%
%LPD*%
%AMOC8*
5,1,8,0,0,1.08239X$1,22.5*
%
%ADD10C,0.00000*%
%ADD11R,0.05500X0.01370*%
%ADD12OC8,0.04724*%
%ADD13R,0.04724X0.01614*%
%ADD14R,0.01614X0.04528*%
%ADD15OC8,0.07400*%
%ADD16R,0.04724X0.03150*%
%ADD17R,0.03268X0.02480*%
%ADD18C,0.07000*%
%ADD19C,0.02800*%
%ADD20C,0.02400*%
%ADD21C,0.06299*%
%ADD22R,0.03150X0.01181*%
%ADD23R,0.01181X0.03150*%
%ADD24R,0.01969X0.00984*%
%ADD25R,0.03150X0.04724*%
%ADD26R,0.04800X0.08800*%
%ADD27R,0.14173X0.08661*%
%ADD28R,0.02756X0.02756*%
%ADD29R,0.03000X0.06000*%
%ADD30C,0.07400*%
%ADD31OC8,0.08500*%
%ADD32C,0.04724*%
%ADD33R,0.01969X0.07874*%
%ADD34C,0.00600*%
%ADD35C,0.02700*%
%ADD36C,0.04000*%
%ADD37C,0.02900*%
%ADD38C,0.01000*%
%ADD39C,0.02000*%
%ADD40C,0.01500*%
%ADD41C,0.00700*%
%ADD42C,0.01100*%
%ADD43C,0.01600*%
%ADD44C,0.03000*%
%ADD45C,0.05000*%
%ADD46C,0.03762*%
%ADD47C,0.06000*%
D10*
X0006644Y0015400D02*
X0006644Y0175400D01*
X0256644Y0175400D01*
X0256566Y0015400D01*
X0006644Y0015400D01*
X0009744Y0024400D02*
X0009746Y0024553D01*
X0009752Y0024706D01*
X0009762Y0024859D01*
X0009776Y0025012D01*
X0009794Y0025164D01*
X0009815Y0025315D01*
X0009841Y0025466D01*
X0009871Y0025617D01*
X0009904Y0025766D01*
X0009942Y0025915D01*
X0009983Y0026062D01*
X0010028Y0026209D01*
X0010077Y0026354D01*
X0010129Y0026498D01*
X0010186Y0026640D01*
X0010246Y0026781D01*
X0010309Y0026920D01*
X0010377Y0027058D01*
X0010447Y0027194D01*
X0010522Y0027328D01*
X0010599Y0027460D01*
X0010681Y0027590D01*
X0010765Y0027718D01*
X0010853Y0027843D01*
X0010944Y0027966D01*
X0011038Y0028087D01*
X0011135Y0028205D01*
X0011236Y0028321D01*
X0011339Y0028434D01*
X0011445Y0028545D01*
X0011554Y0028652D01*
X0011666Y0028757D01*
X0011780Y0028859D01*
X0011897Y0028958D01*
X0012017Y0029053D01*
X0012139Y0029146D01*
X0012263Y0029235D01*
X0012390Y0029322D01*
X0012519Y0029404D01*
X0012650Y0029484D01*
X0012783Y0029560D01*
X0012918Y0029632D01*
X0013055Y0029701D01*
X0013193Y0029767D01*
X0013333Y0029829D01*
X0013475Y0029887D01*
X0013618Y0029941D01*
X0013763Y0029992D01*
X0013908Y0030039D01*
X0014055Y0030082D01*
X0014203Y0030121D01*
X0014352Y0030157D01*
X0014502Y0030188D01*
X0014653Y0030216D01*
X0014804Y0030240D01*
X0014956Y0030260D01*
X0015109Y0030276D01*
X0015261Y0030288D01*
X0015414Y0030296D01*
X0015567Y0030300D01*
X0015721Y0030300D01*
X0015874Y0030296D01*
X0016027Y0030288D01*
X0016179Y0030276D01*
X0016332Y0030260D01*
X0016484Y0030240D01*
X0016635Y0030216D01*
X0016786Y0030188D01*
X0016936Y0030157D01*
X0017085Y0030121D01*
X0017233Y0030082D01*
X0017380Y0030039D01*
X0017525Y0029992D01*
X0017670Y0029941D01*
X0017813Y0029887D01*
X0017955Y0029829D01*
X0018095Y0029767D01*
X0018233Y0029701D01*
X0018370Y0029632D01*
X0018505Y0029560D01*
X0018638Y0029484D01*
X0018769Y0029404D01*
X0018898Y0029322D01*
X0019025Y0029235D01*
X0019149Y0029146D01*
X0019271Y0029053D01*
X0019391Y0028958D01*
X0019508Y0028859D01*
X0019622Y0028757D01*
X0019734Y0028652D01*
X0019843Y0028545D01*
X0019949Y0028434D01*
X0020052Y0028321D01*
X0020153Y0028205D01*
X0020250Y0028087D01*
X0020344Y0027966D01*
X0020435Y0027843D01*
X0020523Y0027718D01*
X0020607Y0027590D01*
X0020689Y0027460D01*
X0020766Y0027328D01*
X0020841Y0027194D01*
X0020911Y0027058D01*
X0020979Y0026920D01*
X0021042Y0026781D01*
X0021102Y0026640D01*
X0021159Y0026498D01*
X0021211Y0026354D01*
X0021260Y0026209D01*
X0021305Y0026062D01*
X0021346Y0025915D01*
X0021384Y0025766D01*
X0021417Y0025617D01*
X0021447Y0025466D01*
X0021473Y0025315D01*
X0021494Y0025164D01*
X0021512Y0025012D01*
X0021526Y0024859D01*
X0021536Y0024706D01*
X0021542Y0024553D01*
X0021544Y0024400D01*
X0021542Y0024247D01*
X0021536Y0024094D01*
X0021526Y0023941D01*
X0021512Y0023788D01*
X0021494Y0023636D01*
X0021473Y0023485D01*
X0021447Y0023334D01*
X0021417Y0023183D01*
X0021384Y0023034D01*
X0021346Y0022885D01*
X0021305Y0022738D01*
X0021260Y0022591D01*
X0021211Y0022446D01*
X0021159Y0022302D01*
X0021102Y0022160D01*
X0021042Y0022019D01*
X0020979Y0021880D01*
X0020911Y0021742D01*
X0020841Y0021606D01*
X0020766Y0021472D01*
X0020689Y0021340D01*
X0020607Y0021210D01*
X0020523Y0021082D01*
X0020435Y0020957D01*
X0020344Y0020834D01*
X0020250Y0020713D01*
X0020153Y0020595D01*
X0020052Y0020479D01*
X0019949Y0020366D01*
X0019843Y0020255D01*
X0019734Y0020148D01*
X0019622Y0020043D01*
X0019508Y0019941D01*
X0019391Y0019842D01*
X0019271Y0019747D01*
X0019149Y0019654D01*
X0019025Y0019565D01*
X0018898Y0019478D01*
X0018769Y0019396D01*
X0018638Y0019316D01*
X0018505Y0019240D01*
X0018370Y0019168D01*
X0018233Y0019099D01*
X0018095Y0019033D01*
X0017955Y0018971D01*
X0017813Y0018913D01*
X0017670Y0018859D01*
X0017525Y0018808D01*
X0017380Y0018761D01*
X0017233Y0018718D01*
X0017085Y0018679D01*
X0016936Y0018643D01*
X0016786Y0018612D01*
X0016635Y0018584D01*
X0016484Y0018560D01*
X0016332Y0018540D01*
X0016179Y0018524D01*
X0016027Y0018512D01*
X0015874Y0018504D01*
X0015721Y0018500D01*
X0015567Y0018500D01*
X0015414Y0018504D01*
X0015261Y0018512D01*
X0015109Y0018524D01*
X0014956Y0018540D01*
X0014804Y0018560D01*
X0014653Y0018584D01*
X0014502Y0018612D01*
X0014352Y0018643D01*
X0014203Y0018679D01*
X0014055Y0018718D01*
X0013908Y0018761D01*
X0013763Y0018808D01*
X0013618Y0018859D01*
X0013475Y0018913D01*
X0013333Y0018971D01*
X0013193Y0019033D01*
X0013055Y0019099D01*
X0012918Y0019168D01*
X0012783Y0019240D01*
X0012650Y0019316D01*
X0012519Y0019396D01*
X0012390Y0019478D01*
X0012263Y0019565D01*
X0012139Y0019654D01*
X0012017Y0019747D01*
X0011897Y0019842D01*
X0011780Y0019941D01*
X0011666Y0020043D01*
X0011554Y0020148D01*
X0011445Y0020255D01*
X0011339Y0020366D01*
X0011236Y0020479D01*
X0011135Y0020595D01*
X0011038Y0020713D01*
X0010944Y0020834D01*
X0010853Y0020957D01*
X0010765Y0021082D01*
X0010681Y0021210D01*
X0010599Y0021340D01*
X0010522Y0021472D01*
X0010447Y0021606D01*
X0010377Y0021742D01*
X0010309Y0021880D01*
X0010246Y0022019D01*
X0010186Y0022160D01*
X0010129Y0022302D01*
X0010077Y0022446D01*
X0010028Y0022591D01*
X0009983Y0022738D01*
X0009942Y0022885D01*
X0009904Y0023034D01*
X0009871Y0023183D01*
X0009841Y0023334D01*
X0009815Y0023485D01*
X0009794Y0023636D01*
X0009776Y0023788D01*
X0009762Y0023941D01*
X0009752Y0024094D01*
X0009746Y0024247D01*
X0009744Y0024400D01*
X0050083Y0037297D02*
X0050085Y0037381D01*
X0050091Y0037464D01*
X0050101Y0037547D01*
X0050115Y0037630D01*
X0050132Y0037712D01*
X0050154Y0037793D01*
X0050179Y0037872D01*
X0050208Y0037951D01*
X0050241Y0038028D01*
X0050277Y0038103D01*
X0050317Y0038177D01*
X0050360Y0038249D01*
X0050407Y0038318D01*
X0050457Y0038385D01*
X0050510Y0038450D01*
X0050566Y0038512D01*
X0050624Y0038572D01*
X0050686Y0038629D01*
X0050750Y0038682D01*
X0050817Y0038733D01*
X0050886Y0038780D01*
X0050957Y0038825D01*
X0051030Y0038865D01*
X0051105Y0038902D01*
X0051182Y0038936D01*
X0051260Y0038966D01*
X0051339Y0038992D01*
X0051420Y0039015D01*
X0051502Y0039033D01*
X0051584Y0039048D01*
X0051667Y0039059D01*
X0051750Y0039066D01*
X0051834Y0039069D01*
X0051918Y0039068D01*
X0052001Y0039063D01*
X0052085Y0039054D01*
X0052167Y0039041D01*
X0052249Y0039025D01*
X0052330Y0039004D01*
X0052411Y0038980D01*
X0052489Y0038952D01*
X0052567Y0038920D01*
X0052643Y0038884D01*
X0052717Y0038845D01*
X0052789Y0038803D01*
X0052859Y0038757D01*
X0052927Y0038708D01*
X0052992Y0038656D01*
X0053055Y0038601D01*
X0053115Y0038543D01*
X0053173Y0038482D01*
X0053227Y0038418D01*
X0053279Y0038352D01*
X0053327Y0038284D01*
X0053372Y0038213D01*
X0053413Y0038140D01*
X0053452Y0038066D01*
X0053486Y0037990D01*
X0053517Y0037912D01*
X0053544Y0037833D01*
X0053568Y0037752D01*
X0053587Y0037671D01*
X0053603Y0037589D01*
X0053615Y0037506D01*
X0053623Y0037422D01*
X0053627Y0037339D01*
X0053627Y0037255D01*
X0053623Y0037172D01*
X0053615Y0037088D01*
X0053603Y0037005D01*
X0053587Y0036923D01*
X0053568Y0036842D01*
X0053544Y0036761D01*
X0053517Y0036682D01*
X0053486Y0036604D01*
X0053452Y0036528D01*
X0053413Y0036454D01*
X0053372Y0036381D01*
X0053327Y0036310D01*
X0053279Y0036242D01*
X0053227Y0036176D01*
X0053173Y0036112D01*
X0053115Y0036051D01*
X0053055Y0035993D01*
X0052992Y0035938D01*
X0052927Y0035886D01*
X0052859Y0035837D01*
X0052789Y0035791D01*
X0052717Y0035749D01*
X0052643Y0035710D01*
X0052567Y0035674D01*
X0052489Y0035642D01*
X0052411Y0035614D01*
X0052330Y0035590D01*
X0052249Y0035569D01*
X0052167Y0035553D01*
X0052085Y0035540D01*
X0052001Y0035531D01*
X0051918Y0035526D01*
X0051834Y0035525D01*
X0051750Y0035528D01*
X0051667Y0035535D01*
X0051584Y0035546D01*
X0051502Y0035561D01*
X0051420Y0035579D01*
X0051339Y0035602D01*
X0051260Y0035628D01*
X0051182Y0035658D01*
X0051105Y0035692D01*
X0051030Y0035729D01*
X0050957Y0035769D01*
X0050886Y0035814D01*
X0050817Y0035861D01*
X0050750Y0035912D01*
X0050686Y0035965D01*
X0050624Y0036022D01*
X0050566Y0036082D01*
X0050510Y0036144D01*
X0050457Y0036209D01*
X0050407Y0036276D01*
X0050360Y0036345D01*
X0050317Y0036417D01*
X0050277Y0036491D01*
X0050241Y0036566D01*
X0050208Y0036643D01*
X0050179Y0036722D01*
X0050154Y0036801D01*
X0050132Y0036882D01*
X0050115Y0036964D01*
X0050101Y0037047D01*
X0050091Y0037130D01*
X0050085Y0037213D01*
X0050083Y0037297D01*
X0063862Y0037297D02*
X0063864Y0037381D01*
X0063870Y0037464D01*
X0063880Y0037547D01*
X0063894Y0037630D01*
X0063911Y0037712D01*
X0063933Y0037793D01*
X0063958Y0037872D01*
X0063987Y0037951D01*
X0064020Y0038028D01*
X0064056Y0038103D01*
X0064096Y0038177D01*
X0064139Y0038249D01*
X0064186Y0038318D01*
X0064236Y0038385D01*
X0064289Y0038450D01*
X0064345Y0038512D01*
X0064403Y0038572D01*
X0064465Y0038629D01*
X0064529Y0038682D01*
X0064596Y0038733D01*
X0064665Y0038780D01*
X0064736Y0038825D01*
X0064809Y0038865D01*
X0064884Y0038902D01*
X0064961Y0038936D01*
X0065039Y0038966D01*
X0065118Y0038992D01*
X0065199Y0039015D01*
X0065281Y0039033D01*
X0065363Y0039048D01*
X0065446Y0039059D01*
X0065529Y0039066D01*
X0065613Y0039069D01*
X0065697Y0039068D01*
X0065780Y0039063D01*
X0065864Y0039054D01*
X0065946Y0039041D01*
X0066028Y0039025D01*
X0066109Y0039004D01*
X0066190Y0038980D01*
X0066268Y0038952D01*
X0066346Y0038920D01*
X0066422Y0038884D01*
X0066496Y0038845D01*
X0066568Y0038803D01*
X0066638Y0038757D01*
X0066706Y0038708D01*
X0066771Y0038656D01*
X0066834Y0038601D01*
X0066894Y0038543D01*
X0066952Y0038482D01*
X0067006Y0038418D01*
X0067058Y0038352D01*
X0067106Y0038284D01*
X0067151Y0038213D01*
X0067192Y0038140D01*
X0067231Y0038066D01*
X0067265Y0037990D01*
X0067296Y0037912D01*
X0067323Y0037833D01*
X0067347Y0037752D01*
X0067366Y0037671D01*
X0067382Y0037589D01*
X0067394Y0037506D01*
X0067402Y0037422D01*
X0067406Y0037339D01*
X0067406Y0037255D01*
X0067402Y0037172D01*
X0067394Y0037088D01*
X0067382Y0037005D01*
X0067366Y0036923D01*
X0067347Y0036842D01*
X0067323Y0036761D01*
X0067296Y0036682D01*
X0067265Y0036604D01*
X0067231Y0036528D01*
X0067192Y0036454D01*
X0067151Y0036381D01*
X0067106Y0036310D01*
X0067058Y0036242D01*
X0067006Y0036176D01*
X0066952Y0036112D01*
X0066894Y0036051D01*
X0066834Y0035993D01*
X0066771Y0035938D01*
X0066706Y0035886D01*
X0066638Y0035837D01*
X0066568Y0035791D01*
X0066496Y0035749D01*
X0066422Y0035710D01*
X0066346Y0035674D01*
X0066268Y0035642D01*
X0066190Y0035614D01*
X0066109Y0035590D01*
X0066028Y0035569D01*
X0065946Y0035553D01*
X0065864Y0035540D01*
X0065780Y0035531D01*
X0065697Y0035526D01*
X0065613Y0035525D01*
X0065529Y0035528D01*
X0065446Y0035535D01*
X0065363Y0035546D01*
X0065281Y0035561D01*
X0065199Y0035579D01*
X0065118Y0035602D01*
X0065039Y0035628D01*
X0064961Y0035658D01*
X0064884Y0035692D01*
X0064809Y0035729D01*
X0064736Y0035769D01*
X0064665Y0035814D01*
X0064596Y0035861D01*
X0064529Y0035912D01*
X0064465Y0035965D01*
X0064403Y0036022D01*
X0064345Y0036082D01*
X0064289Y0036144D01*
X0064236Y0036209D01*
X0064186Y0036276D01*
X0064139Y0036345D01*
X0064096Y0036417D01*
X0064056Y0036491D01*
X0064020Y0036566D01*
X0063987Y0036643D01*
X0063958Y0036722D01*
X0063933Y0036801D01*
X0063911Y0036882D01*
X0063894Y0036964D01*
X0063880Y0037047D01*
X0063870Y0037130D01*
X0063864Y0037213D01*
X0063862Y0037297D01*
X0011744Y0167400D02*
X0011746Y0167553D01*
X0011752Y0167706D01*
X0011762Y0167859D01*
X0011776Y0168012D01*
X0011794Y0168164D01*
X0011815Y0168315D01*
X0011841Y0168466D01*
X0011871Y0168617D01*
X0011904Y0168766D01*
X0011942Y0168915D01*
X0011983Y0169062D01*
X0012028Y0169209D01*
X0012077Y0169354D01*
X0012129Y0169498D01*
X0012186Y0169640D01*
X0012246Y0169781D01*
X0012309Y0169920D01*
X0012377Y0170058D01*
X0012447Y0170194D01*
X0012522Y0170328D01*
X0012599Y0170460D01*
X0012681Y0170590D01*
X0012765Y0170718D01*
X0012853Y0170843D01*
X0012944Y0170966D01*
X0013038Y0171087D01*
X0013135Y0171205D01*
X0013236Y0171321D01*
X0013339Y0171434D01*
X0013445Y0171545D01*
X0013554Y0171652D01*
X0013666Y0171757D01*
X0013780Y0171859D01*
X0013897Y0171958D01*
X0014017Y0172053D01*
X0014139Y0172146D01*
X0014263Y0172235D01*
X0014390Y0172322D01*
X0014519Y0172404D01*
X0014650Y0172484D01*
X0014783Y0172560D01*
X0014918Y0172632D01*
X0015055Y0172701D01*
X0015193Y0172767D01*
X0015333Y0172829D01*
X0015475Y0172887D01*
X0015618Y0172941D01*
X0015763Y0172992D01*
X0015908Y0173039D01*
X0016055Y0173082D01*
X0016203Y0173121D01*
X0016352Y0173157D01*
X0016502Y0173188D01*
X0016653Y0173216D01*
X0016804Y0173240D01*
X0016956Y0173260D01*
X0017109Y0173276D01*
X0017261Y0173288D01*
X0017414Y0173296D01*
X0017567Y0173300D01*
X0017721Y0173300D01*
X0017874Y0173296D01*
X0018027Y0173288D01*
X0018179Y0173276D01*
X0018332Y0173260D01*
X0018484Y0173240D01*
X0018635Y0173216D01*
X0018786Y0173188D01*
X0018936Y0173157D01*
X0019085Y0173121D01*
X0019233Y0173082D01*
X0019380Y0173039D01*
X0019525Y0172992D01*
X0019670Y0172941D01*
X0019813Y0172887D01*
X0019955Y0172829D01*
X0020095Y0172767D01*
X0020233Y0172701D01*
X0020370Y0172632D01*
X0020505Y0172560D01*
X0020638Y0172484D01*
X0020769Y0172404D01*
X0020898Y0172322D01*
X0021025Y0172235D01*
X0021149Y0172146D01*
X0021271Y0172053D01*
X0021391Y0171958D01*
X0021508Y0171859D01*
X0021622Y0171757D01*
X0021734Y0171652D01*
X0021843Y0171545D01*
X0021949Y0171434D01*
X0022052Y0171321D01*
X0022153Y0171205D01*
X0022250Y0171087D01*
X0022344Y0170966D01*
X0022435Y0170843D01*
X0022523Y0170718D01*
X0022607Y0170590D01*
X0022689Y0170460D01*
X0022766Y0170328D01*
X0022841Y0170194D01*
X0022911Y0170058D01*
X0022979Y0169920D01*
X0023042Y0169781D01*
X0023102Y0169640D01*
X0023159Y0169498D01*
X0023211Y0169354D01*
X0023260Y0169209D01*
X0023305Y0169062D01*
X0023346Y0168915D01*
X0023384Y0168766D01*
X0023417Y0168617D01*
X0023447Y0168466D01*
X0023473Y0168315D01*
X0023494Y0168164D01*
X0023512Y0168012D01*
X0023526Y0167859D01*
X0023536Y0167706D01*
X0023542Y0167553D01*
X0023544Y0167400D01*
X0023542Y0167247D01*
X0023536Y0167094D01*
X0023526Y0166941D01*
X0023512Y0166788D01*
X0023494Y0166636D01*
X0023473Y0166485D01*
X0023447Y0166334D01*
X0023417Y0166183D01*
X0023384Y0166034D01*
X0023346Y0165885D01*
X0023305Y0165738D01*
X0023260Y0165591D01*
X0023211Y0165446D01*
X0023159Y0165302D01*
X0023102Y0165160D01*
X0023042Y0165019D01*
X0022979Y0164880D01*
X0022911Y0164742D01*
X0022841Y0164606D01*
X0022766Y0164472D01*
X0022689Y0164340D01*
X0022607Y0164210D01*
X0022523Y0164082D01*
X0022435Y0163957D01*
X0022344Y0163834D01*
X0022250Y0163713D01*
X0022153Y0163595D01*
X0022052Y0163479D01*
X0021949Y0163366D01*
X0021843Y0163255D01*
X0021734Y0163148D01*
X0021622Y0163043D01*
X0021508Y0162941D01*
X0021391Y0162842D01*
X0021271Y0162747D01*
X0021149Y0162654D01*
X0021025Y0162565D01*
X0020898Y0162478D01*
X0020769Y0162396D01*
X0020638Y0162316D01*
X0020505Y0162240D01*
X0020370Y0162168D01*
X0020233Y0162099D01*
X0020095Y0162033D01*
X0019955Y0161971D01*
X0019813Y0161913D01*
X0019670Y0161859D01*
X0019525Y0161808D01*
X0019380Y0161761D01*
X0019233Y0161718D01*
X0019085Y0161679D01*
X0018936Y0161643D01*
X0018786Y0161612D01*
X0018635Y0161584D01*
X0018484Y0161560D01*
X0018332Y0161540D01*
X0018179Y0161524D01*
X0018027Y0161512D01*
X0017874Y0161504D01*
X0017721Y0161500D01*
X0017567Y0161500D01*
X0017414Y0161504D01*
X0017261Y0161512D01*
X0017109Y0161524D01*
X0016956Y0161540D01*
X0016804Y0161560D01*
X0016653Y0161584D01*
X0016502Y0161612D01*
X0016352Y0161643D01*
X0016203Y0161679D01*
X0016055Y0161718D01*
X0015908Y0161761D01*
X0015763Y0161808D01*
X0015618Y0161859D01*
X0015475Y0161913D01*
X0015333Y0161971D01*
X0015193Y0162033D01*
X0015055Y0162099D01*
X0014918Y0162168D01*
X0014783Y0162240D01*
X0014650Y0162316D01*
X0014519Y0162396D01*
X0014390Y0162478D01*
X0014263Y0162565D01*
X0014139Y0162654D01*
X0014017Y0162747D01*
X0013897Y0162842D01*
X0013780Y0162941D01*
X0013666Y0163043D01*
X0013554Y0163148D01*
X0013445Y0163255D01*
X0013339Y0163366D01*
X0013236Y0163479D01*
X0013135Y0163595D01*
X0013038Y0163713D01*
X0012944Y0163834D01*
X0012853Y0163957D01*
X0012765Y0164082D01*
X0012681Y0164210D01*
X0012599Y0164340D01*
X0012522Y0164472D01*
X0012447Y0164606D01*
X0012377Y0164742D01*
X0012309Y0164880D01*
X0012246Y0165019D01*
X0012186Y0165160D01*
X0012129Y0165302D01*
X0012077Y0165446D01*
X0012028Y0165591D01*
X0011983Y0165738D01*
X0011942Y0165885D01*
X0011904Y0166034D01*
X0011871Y0166183D01*
X0011841Y0166334D01*
X0011815Y0166485D01*
X0011794Y0166636D01*
X0011776Y0166788D01*
X0011762Y0166941D01*
X0011752Y0167094D01*
X0011746Y0167247D01*
X0011744Y0167400D01*
X0241744Y0168400D02*
X0241746Y0168553D01*
X0241752Y0168706D01*
X0241762Y0168859D01*
X0241776Y0169012D01*
X0241794Y0169164D01*
X0241815Y0169315D01*
X0241841Y0169466D01*
X0241871Y0169617D01*
X0241904Y0169766D01*
X0241942Y0169915D01*
X0241983Y0170062D01*
X0242028Y0170209D01*
X0242077Y0170354D01*
X0242129Y0170498D01*
X0242186Y0170640D01*
X0242246Y0170781D01*
X0242309Y0170920D01*
X0242377Y0171058D01*
X0242447Y0171194D01*
X0242522Y0171328D01*
X0242599Y0171460D01*
X0242681Y0171590D01*
X0242765Y0171718D01*
X0242853Y0171843D01*
X0242944Y0171966D01*
X0243038Y0172087D01*
X0243135Y0172205D01*
X0243236Y0172321D01*
X0243339Y0172434D01*
X0243445Y0172545D01*
X0243554Y0172652D01*
X0243666Y0172757D01*
X0243780Y0172859D01*
X0243897Y0172958D01*
X0244017Y0173053D01*
X0244139Y0173146D01*
X0244263Y0173235D01*
X0244390Y0173322D01*
X0244519Y0173404D01*
X0244650Y0173484D01*
X0244783Y0173560D01*
X0244918Y0173632D01*
X0245055Y0173701D01*
X0245193Y0173767D01*
X0245333Y0173829D01*
X0245475Y0173887D01*
X0245618Y0173941D01*
X0245763Y0173992D01*
X0245908Y0174039D01*
X0246055Y0174082D01*
X0246203Y0174121D01*
X0246352Y0174157D01*
X0246502Y0174188D01*
X0246653Y0174216D01*
X0246804Y0174240D01*
X0246956Y0174260D01*
X0247109Y0174276D01*
X0247261Y0174288D01*
X0247414Y0174296D01*
X0247567Y0174300D01*
X0247721Y0174300D01*
X0247874Y0174296D01*
X0248027Y0174288D01*
X0248179Y0174276D01*
X0248332Y0174260D01*
X0248484Y0174240D01*
X0248635Y0174216D01*
X0248786Y0174188D01*
X0248936Y0174157D01*
X0249085Y0174121D01*
X0249233Y0174082D01*
X0249380Y0174039D01*
X0249525Y0173992D01*
X0249670Y0173941D01*
X0249813Y0173887D01*
X0249955Y0173829D01*
X0250095Y0173767D01*
X0250233Y0173701D01*
X0250370Y0173632D01*
X0250505Y0173560D01*
X0250638Y0173484D01*
X0250769Y0173404D01*
X0250898Y0173322D01*
X0251025Y0173235D01*
X0251149Y0173146D01*
X0251271Y0173053D01*
X0251391Y0172958D01*
X0251508Y0172859D01*
X0251622Y0172757D01*
X0251734Y0172652D01*
X0251843Y0172545D01*
X0251949Y0172434D01*
X0252052Y0172321D01*
X0252153Y0172205D01*
X0252250Y0172087D01*
X0252344Y0171966D01*
X0252435Y0171843D01*
X0252523Y0171718D01*
X0252607Y0171590D01*
X0252689Y0171460D01*
X0252766Y0171328D01*
X0252841Y0171194D01*
X0252911Y0171058D01*
X0252979Y0170920D01*
X0253042Y0170781D01*
X0253102Y0170640D01*
X0253159Y0170498D01*
X0253211Y0170354D01*
X0253260Y0170209D01*
X0253305Y0170062D01*
X0253346Y0169915D01*
X0253384Y0169766D01*
X0253417Y0169617D01*
X0253447Y0169466D01*
X0253473Y0169315D01*
X0253494Y0169164D01*
X0253512Y0169012D01*
X0253526Y0168859D01*
X0253536Y0168706D01*
X0253542Y0168553D01*
X0253544Y0168400D01*
X0253542Y0168247D01*
X0253536Y0168094D01*
X0253526Y0167941D01*
X0253512Y0167788D01*
X0253494Y0167636D01*
X0253473Y0167485D01*
X0253447Y0167334D01*
X0253417Y0167183D01*
X0253384Y0167034D01*
X0253346Y0166885D01*
X0253305Y0166738D01*
X0253260Y0166591D01*
X0253211Y0166446D01*
X0253159Y0166302D01*
X0253102Y0166160D01*
X0253042Y0166019D01*
X0252979Y0165880D01*
X0252911Y0165742D01*
X0252841Y0165606D01*
X0252766Y0165472D01*
X0252689Y0165340D01*
X0252607Y0165210D01*
X0252523Y0165082D01*
X0252435Y0164957D01*
X0252344Y0164834D01*
X0252250Y0164713D01*
X0252153Y0164595D01*
X0252052Y0164479D01*
X0251949Y0164366D01*
X0251843Y0164255D01*
X0251734Y0164148D01*
X0251622Y0164043D01*
X0251508Y0163941D01*
X0251391Y0163842D01*
X0251271Y0163747D01*
X0251149Y0163654D01*
X0251025Y0163565D01*
X0250898Y0163478D01*
X0250769Y0163396D01*
X0250638Y0163316D01*
X0250505Y0163240D01*
X0250370Y0163168D01*
X0250233Y0163099D01*
X0250095Y0163033D01*
X0249955Y0162971D01*
X0249813Y0162913D01*
X0249670Y0162859D01*
X0249525Y0162808D01*
X0249380Y0162761D01*
X0249233Y0162718D01*
X0249085Y0162679D01*
X0248936Y0162643D01*
X0248786Y0162612D01*
X0248635Y0162584D01*
X0248484Y0162560D01*
X0248332Y0162540D01*
X0248179Y0162524D01*
X0248027Y0162512D01*
X0247874Y0162504D01*
X0247721Y0162500D01*
X0247567Y0162500D01*
X0247414Y0162504D01*
X0247261Y0162512D01*
X0247109Y0162524D01*
X0246956Y0162540D01*
X0246804Y0162560D01*
X0246653Y0162584D01*
X0246502Y0162612D01*
X0246352Y0162643D01*
X0246203Y0162679D01*
X0246055Y0162718D01*
X0245908Y0162761D01*
X0245763Y0162808D01*
X0245618Y0162859D01*
X0245475Y0162913D01*
X0245333Y0162971D01*
X0245193Y0163033D01*
X0245055Y0163099D01*
X0244918Y0163168D01*
X0244783Y0163240D01*
X0244650Y0163316D01*
X0244519Y0163396D01*
X0244390Y0163478D01*
X0244263Y0163565D01*
X0244139Y0163654D01*
X0244017Y0163747D01*
X0243897Y0163842D01*
X0243780Y0163941D01*
X0243666Y0164043D01*
X0243554Y0164148D01*
X0243445Y0164255D01*
X0243339Y0164366D01*
X0243236Y0164479D01*
X0243135Y0164595D01*
X0243038Y0164713D01*
X0242944Y0164834D01*
X0242853Y0164957D01*
X0242765Y0165082D01*
X0242681Y0165210D01*
X0242599Y0165340D01*
X0242522Y0165472D01*
X0242447Y0165606D01*
X0242377Y0165742D01*
X0242309Y0165880D01*
X0242246Y0166019D01*
X0242186Y0166160D01*
X0242129Y0166302D01*
X0242077Y0166446D01*
X0242028Y0166591D01*
X0241983Y0166738D01*
X0241942Y0166885D01*
X0241904Y0167034D01*
X0241871Y0167183D01*
X0241841Y0167334D01*
X0241815Y0167485D01*
X0241794Y0167636D01*
X0241776Y0167788D01*
X0241762Y0167941D01*
X0241752Y0168094D01*
X0241746Y0168247D01*
X0241744Y0168400D01*
X0241744Y0024400D02*
X0241746Y0024553D01*
X0241752Y0024706D01*
X0241762Y0024859D01*
X0241776Y0025012D01*
X0241794Y0025164D01*
X0241815Y0025315D01*
X0241841Y0025466D01*
X0241871Y0025617D01*
X0241904Y0025766D01*
X0241942Y0025915D01*
X0241983Y0026062D01*
X0242028Y0026209D01*
X0242077Y0026354D01*
X0242129Y0026498D01*
X0242186Y0026640D01*
X0242246Y0026781D01*
X0242309Y0026920D01*
X0242377Y0027058D01*
X0242447Y0027194D01*
X0242522Y0027328D01*
X0242599Y0027460D01*
X0242681Y0027590D01*
X0242765Y0027718D01*
X0242853Y0027843D01*
X0242944Y0027966D01*
X0243038Y0028087D01*
X0243135Y0028205D01*
X0243236Y0028321D01*
X0243339Y0028434D01*
X0243445Y0028545D01*
X0243554Y0028652D01*
X0243666Y0028757D01*
X0243780Y0028859D01*
X0243897Y0028958D01*
X0244017Y0029053D01*
X0244139Y0029146D01*
X0244263Y0029235D01*
X0244390Y0029322D01*
X0244519Y0029404D01*
X0244650Y0029484D01*
X0244783Y0029560D01*
X0244918Y0029632D01*
X0245055Y0029701D01*
X0245193Y0029767D01*
X0245333Y0029829D01*
X0245475Y0029887D01*
X0245618Y0029941D01*
X0245763Y0029992D01*
X0245908Y0030039D01*
X0246055Y0030082D01*
X0246203Y0030121D01*
X0246352Y0030157D01*
X0246502Y0030188D01*
X0246653Y0030216D01*
X0246804Y0030240D01*
X0246956Y0030260D01*
X0247109Y0030276D01*
X0247261Y0030288D01*
X0247414Y0030296D01*
X0247567Y0030300D01*
X0247721Y0030300D01*
X0247874Y0030296D01*
X0248027Y0030288D01*
X0248179Y0030276D01*
X0248332Y0030260D01*
X0248484Y0030240D01*
X0248635Y0030216D01*
X0248786Y0030188D01*
X0248936Y0030157D01*
X0249085Y0030121D01*
X0249233Y0030082D01*
X0249380Y0030039D01*
X0249525Y0029992D01*
X0249670Y0029941D01*
X0249813Y0029887D01*
X0249955Y0029829D01*
X0250095Y0029767D01*
X0250233Y0029701D01*
X0250370Y0029632D01*
X0250505Y0029560D01*
X0250638Y0029484D01*
X0250769Y0029404D01*
X0250898Y0029322D01*
X0251025Y0029235D01*
X0251149Y0029146D01*
X0251271Y0029053D01*
X0251391Y0028958D01*
X0251508Y0028859D01*
X0251622Y0028757D01*
X0251734Y0028652D01*
X0251843Y0028545D01*
X0251949Y0028434D01*
X0252052Y0028321D01*
X0252153Y0028205D01*
X0252250Y0028087D01*
X0252344Y0027966D01*
X0252435Y0027843D01*
X0252523Y0027718D01*
X0252607Y0027590D01*
X0252689Y0027460D01*
X0252766Y0027328D01*
X0252841Y0027194D01*
X0252911Y0027058D01*
X0252979Y0026920D01*
X0253042Y0026781D01*
X0253102Y0026640D01*
X0253159Y0026498D01*
X0253211Y0026354D01*
X0253260Y0026209D01*
X0253305Y0026062D01*
X0253346Y0025915D01*
X0253384Y0025766D01*
X0253417Y0025617D01*
X0253447Y0025466D01*
X0253473Y0025315D01*
X0253494Y0025164D01*
X0253512Y0025012D01*
X0253526Y0024859D01*
X0253536Y0024706D01*
X0253542Y0024553D01*
X0253544Y0024400D01*
X0253542Y0024247D01*
X0253536Y0024094D01*
X0253526Y0023941D01*
X0253512Y0023788D01*
X0253494Y0023636D01*
X0253473Y0023485D01*
X0253447Y0023334D01*
X0253417Y0023183D01*
X0253384Y0023034D01*
X0253346Y0022885D01*
X0253305Y0022738D01*
X0253260Y0022591D01*
X0253211Y0022446D01*
X0253159Y0022302D01*
X0253102Y0022160D01*
X0253042Y0022019D01*
X0252979Y0021880D01*
X0252911Y0021742D01*
X0252841Y0021606D01*
X0252766Y0021472D01*
X0252689Y0021340D01*
X0252607Y0021210D01*
X0252523Y0021082D01*
X0252435Y0020957D01*
X0252344Y0020834D01*
X0252250Y0020713D01*
X0252153Y0020595D01*
X0252052Y0020479D01*
X0251949Y0020366D01*
X0251843Y0020255D01*
X0251734Y0020148D01*
X0251622Y0020043D01*
X0251508Y0019941D01*
X0251391Y0019842D01*
X0251271Y0019747D01*
X0251149Y0019654D01*
X0251025Y0019565D01*
X0250898Y0019478D01*
X0250769Y0019396D01*
X0250638Y0019316D01*
X0250505Y0019240D01*
X0250370Y0019168D01*
X0250233Y0019099D01*
X0250095Y0019033D01*
X0249955Y0018971D01*
X0249813Y0018913D01*
X0249670Y0018859D01*
X0249525Y0018808D01*
X0249380Y0018761D01*
X0249233Y0018718D01*
X0249085Y0018679D01*
X0248936Y0018643D01*
X0248786Y0018612D01*
X0248635Y0018584D01*
X0248484Y0018560D01*
X0248332Y0018540D01*
X0248179Y0018524D01*
X0248027Y0018512D01*
X0247874Y0018504D01*
X0247721Y0018500D01*
X0247567Y0018500D01*
X0247414Y0018504D01*
X0247261Y0018512D01*
X0247109Y0018524D01*
X0246956Y0018540D01*
X0246804Y0018560D01*
X0246653Y0018584D01*
X0246502Y0018612D01*
X0246352Y0018643D01*
X0246203Y0018679D01*
X0246055Y0018718D01*
X0245908Y0018761D01*
X0245763Y0018808D01*
X0245618Y0018859D01*
X0245475Y0018913D01*
X0245333Y0018971D01*
X0245193Y0019033D01*
X0245055Y0019099D01*
X0244918Y0019168D01*
X0244783Y0019240D01*
X0244650Y0019316D01*
X0244519Y0019396D01*
X0244390Y0019478D01*
X0244263Y0019565D01*
X0244139Y0019654D01*
X0244017Y0019747D01*
X0243897Y0019842D01*
X0243780Y0019941D01*
X0243666Y0020043D01*
X0243554Y0020148D01*
X0243445Y0020255D01*
X0243339Y0020366D01*
X0243236Y0020479D01*
X0243135Y0020595D01*
X0243038Y0020713D01*
X0242944Y0020834D01*
X0242853Y0020957D01*
X0242765Y0021082D01*
X0242681Y0021210D01*
X0242599Y0021340D01*
X0242522Y0021472D01*
X0242447Y0021606D01*
X0242377Y0021742D01*
X0242309Y0021880D01*
X0242246Y0022019D01*
X0242186Y0022160D01*
X0242129Y0022302D01*
X0242077Y0022446D01*
X0242028Y0022591D01*
X0241983Y0022738D01*
X0241942Y0022885D01*
X0241904Y0023034D01*
X0241871Y0023183D01*
X0241841Y0023334D01*
X0241815Y0023485D01*
X0241794Y0023636D01*
X0241776Y0023788D01*
X0241762Y0023941D01*
X0241752Y0024094D01*
X0241746Y0024247D01*
X0241744Y0024400D01*
D11*
X0128138Y0086725D03*
X0128138Y0089284D03*
X0128138Y0091843D03*
X0128138Y0094402D03*
X0128138Y0096961D03*
X0128138Y0099520D03*
X0128138Y0102080D03*
X0128138Y0104639D03*
X0128138Y0107198D03*
X0128138Y0109757D03*
X0128138Y0112316D03*
X0128138Y0114875D03*
X0099351Y0114875D03*
X0099351Y0112316D03*
X0099351Y0109757D03*
X0099351Y0107198D03*
X0099351Y0104639D03*
X0099351Y0102080D03*
X0099351Y0099520D03*
X0099351Y0096961D03*
X0099351Y0094402D03*
X0099351Y0091843D03*
X0099351Y0089284D03*
X0099351Y0086725D03*
D12*
X0108644Y0122400D03*
X0118644Y0122400D03*
X0128644Y0122400D03*
X0138644Y0122400D03*
X0148644Y0122400D03*
X0158644Y0122400D03*
X0168644Y0122400D03*
X0178644Y0122400D03*
X0188644Y0122400D03*
X0188644Y0132400D03*
X0178644Y0132400D03*
X0168644Y0132400D03*
X0158644Y0132400D03*
X0148644Y0132400D03*
X0138644Y0132400D03*
X0128644Y0132400D03*
X0118644Y0132400D03*
X0108644Y0132400D03*
D13*
X0089739Y0058550D03*
X0089739Y0055951D03*
X0089739Y0053353D03*
X0089739Y0050754D03*
X0089739Y0048156D03*
X0089739Y0045557D03*
X0089739Y0042959D03*
X0089739Y0040361D03*
X0089739Y0037762D03*
X0131550Y0037762D03*
X0131550Y0040361D03*
X0131550Y0042959D03*
X0131550Y0045557D03*
X0131550Y0048156D03*
X0131550Y0050754D03*
X0131550Y0053353D03*
X0131550Y0055951D03*
X0131550Y0058550D03*
D14*
X0127534Y0061404D03*
X0124936Y0061404D03*
X0122337Y0061404D03*
X0119739Y0061404D03*
X0117141Y0061404D03*
X0114542Y0061404D03*
X0111944Y0061404D03*
X0109345Y0061404D03*
X0106747Y0061404D03*
X0104148Y0061404D03*
X0101550Y0061404D03*
X0098952Y0061404D03*
X0096353Y0061404D03*
X0093755Y0061404D03*
D15*
X0096644Y0156400D03*
X0086644Y0156400D03*
X0076644Y0156400D03*
X0066644Y0156400D03*
X0056644Y0156400D03*
X0056644Y0166400D03*
X0066644Y0166400D03*
X0076644Y0166400D03*
X0086644Y0166400D03*
X0096644Y0166400D03*
X0106644Y0166400D03*
X0116644Y0166400D03*
X0126644Y0166400D03*
X0126644Y0156400D03*
X0116644Y0156400D03*
X0106644Y0156400D03*
X0140644Y0156400D03*
X0150644Y0156400D03*
X0160644Y0156400D03*
X0170644Y0156400D03*
X0180644Y0156400D03*
X0190644Y0156400D03*
X0200644Y0156400D03*
X0210644Y0156400D03*
X0210644Y0166400D03*
X0200644Y0166400D03*
X0190644Y0166400D03*
X0180644Y0166400D03*
X0170644Y0166400D03*
X0160644Y0166400D03*
X0150644Y0166400D03*
X0140644Y0166400D03*
D16*
X0093644Y0145943D03*
X0093644Y0138857D03*
X0082644Y0138857D03*
X0082644Y0145943D03*
X0072644Y0145943D03*
X0063644Y0145943D03*
X0063644Y0138857D03*
X0072644Y0138857D03*
X0051644Y0139943D03*
X0042644Y0139943D03*
X0042644Y0132857D03*
X0051644Y0132857D03*
X0051144Y0092343D03*
X0056744Y0092343D03*
X0056744Y0085257D03*
X0051144Y0085257D03*
X0043044Y0078743D03*
X0043044Y0071657D03*
X0035644Y0051943D03*
X0035644Y0044857D03*
X0017644Y0044857D03*
X0017644Y0051943D03*
X0190844Y0068857D03*
X0190844Y0075943D03*
D17*
X0184644Y0138872D03*
X0176644Y0138872D03*
X0168644Y0138872D03*
X0159644Y0138872D03*
X0151644Y0138872D03*
X0142644Y0138872D03*
X0134644Y0138872D03*
X0127644Y0138872D03*
X0120644Y0138872D03*
X0120644Y0147928D03*
X0127644Y0147928D03*
X0134644Y0147928D03*
X0142644Y0147928D03*
X0151644Y0147928D03*
X0159644Y0147928D03*
X0168644Y0147928D03*
X0176644Y0147928D03*
X0184644Y0147928D03*
D18*
X0171644Y0109195D03*
X0171644Y0083605D03*
X0170644Y0062195D03*
X0170644Y0036605D03*
D19*
X0204644Y0056400D03*
X0224644Y0095400D03*
D20*
X0224644Y0092400D02*
X0221993Y0092560D01*
X0219380Y0093039D01*
X0216843Y0093830D01*
X0214421Y0094920D01*
X0212147Y0096294D01*
X0210056Y0097933D01*
X0208177Y0099811D01*
X0206539Y0101903D01*
X0205164Y0104176D01*
X0204074Y0106599D01*
X0203284Y0109135D01*
X0202805Y0111748D01*
X0202644Y0114400D01*
X0202644Y0115400D01*
X0202798Y0117931D01*
X0203255Y0120426D01*
X0204009Y0122847D01*
X0205050Y0125159D01*
X0206362Y0127329D01*
X0207926Y0129326D01*
X0209719Y0131119D01*
X0211715Y0132683D01*
X0213885Y0133995D01*
X0216198Y0135035D01*
X0218619Y0135790D01*
X0221113Y0136247D01*
X0223644Y0136400D01*
X0224644Y0136400D01*
X0227296Y0136240D01*
X0229909Y0135761D01*
X0232446Y0134970D01*
X0234868Y0133880D01*
X0237142Y0132506D01*
X0239233Y0130867D01*
X0241112Y0128989D01*
X0242750Y0126897D01*
X0244125Y0124624D01*
X0245215Y0122201D01*
X0246005Y0119665D01*
X0246484Y0117052D01*
X0246644Y0114400D01*
X0246484Y0111748D01*
X0246005Y0109135D01*
X0245215Y0106599D01*
X0244125Y0104176D01*
X0242750Y0101903D01*
X0241112Y0099811D01*
X0239233Y0097933D01*
X0237142Y0096294D01*
X0234868Y0094920D01*
X0232446Y0093830D01*
X0229909Y0093039D01*
X0227296Y0092560D01*
X0224644Y0092400D01*
X0215241Y0094551D02*
X0234048Y0094551D01*
X0237978Y0096949D02*
X0211311Y0096949D01*
X0208641Y0099348D02*
X0240648Y0099348D01*
X0242628Y0101746D02*
X0206661Y0101746D01*
X0205183Y0104145D02*
X0244106Y0104145D01*
X0245190Y0106543D02*
X0204099Y0106543D01*
X0203344Y0108942D02*
X0245945Y0108942D01*
X0246409Y0111340D02*
X0202880Y0111340D01*
X0202684Y0113739D02*
X0246605Y0113739D01*
X0246539Y0116137D02*
X0202689Y0116137D01*
X0202908Y0118536D02*
X0246212Y0118536D01*
X0245610Y0120934D02*
X0203413Y0120934D01*
X0204228Y0123333D02*
X0244705Y0123333D01*
X0243455Y0125732D02*
X0205396Y0125732D01*
X0206989Y0128130D02*
X0241784Y0128130D01*
X0239572Y0130529D02*
X0209129Y0130529D01*
X0212119Y0132927D02*
X0236445Y0132927D01*
X0231306Y0135326D02*
X0217129Y0135326D01*
X0220993Y0078240D02*
X0223644Y0078400D01*
X0224644Y0078400D01*
X0227176Y0078247D01*
X0229670Y0077790D01*
X0232091Y0077035D01*
X0234404Y0075995D01*
X0236574Y0074683D01*
X0238570Y0073119D01*
X0240363Y0071326D01*
X0241927Y0069329D01*
X0243239Y0067159D01*
X0244280Y0064847D01*
X0245034Y0062426D01*
X0245491Y0059931D01*
X0245644Y0057400D01*
X0245644Y0056400D01*
X0245484Y0053748D01*
X0245005Y0051135D01*
X0244215Y0048599D01*
X0243125Y0046176D01*
X0241750Y0043903D01*
X0240112Y0041811D01*
X0238233Y0039933D01*
X0236142Y0038294D01*
X0233868Y0036920D01*
X0231446Y0035830D01*
X0228909Y0035039D01*
X0226296Y0034560D01*
X0223644Y0034400D01*
X0220993Y0034560D01*
X0218380Y0035039D01*
X0215843Y0035830D01*
X0213421Y0036920D01*
X0211147Y0038294D01*
X0209056Y0039933D01*
X0207177Y0041811D01*
X0205539Y0043903D01*
X0204164Y0046176D01*
X0203074Y0048599D01*
X0202284Y0051135D01*
X0201805Y0053748D01*
X0201644Y0056400D01*
X0201805Y0059052D01*
X0202284Y0061665D01*
X0203074Y0064201D01*
X0204164Y0066624D01*
X0205539Y0068897D01*
X0207177Y0070989D01*
X0209056Y0072867D01*
X0211147Y0074506D01*
X0213421Y0075880D01*
X0215843Y0076970D01*
X0218380Y0077761D01*
X0220993Y0078240D01*
X0218383Y0077761D02*
X0229762Y0077761D01*
X0235449Y0075363D02*
X0212565Y0075363D01*
X0209180Y0072964D02*
X0238725Y0072964D01*
X0240958Y0070566D02*
X0206846Y0070566D01*
X0205097Y0068167D02*
X0242630Y0068167D01*
X0243865Y0065769D02*
X0203780Y0065769D01*
X0202815Y0063370D02*
X0244740Y0063370D01*
X0245301Y0060972D02*
X0202157Y0060972D01*
X0201776Y0058573D02*
X0245574Y0058573D01*
X0245631Y0056175D02*
X0201658Y0056175D01*
X0201803Y0053776D02*
X0245486Y0053776D01*
X0245050Y0051378D02*
X0202239Y0051378D01*
X0202956Y0048979D02*
X0244333Y0048979D01*
X0243307Y0046581D02*
X0203982Y0046581D01*
X0205370Y0044182D02*
X0241919Y0044182D01*
X0240084Y0041784D02*
X0207205Y0041784D01*
X0209755Y0039385D02*
X0237534Y0039385D01*
X0233979Y0036987D02*
X0213310Y0036987D01*
X0220842Y0034588D02*
X0226447Y0034588D01*
X0099351Y0096961D02*
X0099351Y0099520D01*
D21*
X0030644Y0127589D03*
X0030644Y0135463D03*
X0030644Y0143337D03*
X0030644Y0151211D03*
D22*
X0053225Y0103669D03*
X0053225Y0101700D03*
X0053225Y0099731D03*
X0063264Y0099731D03*
X0063264Y0101700D03*
X0063264Y0103669D03*
D23*
X0062181Y0106720D03*
X0060213Y0106720D03*
X0058244Y0106720D03*
X0056276Y0106720D03*
X0054307Y0106720D03*
X0054307Y0096680D03*
X0056276Y0096680D03*
X0058244Y0096680D03*
X0060213Y0096680D03*
X0062181Y0096680D03*
D24*
X0065238Y0114326D03*
X0065238Y0116294D03*
X0065238Y0118263D03*
X0065238Y0120231D03*
X0054411Y0120231D03*
X0054411Y0118263D03*
X0054411Y0116294D03*
X0054411Y0114326D03*
D25*
X0047888Y0102000D03*
X0040801Y0102000D03*
X0035088Y0079500D03*
X0028001Y0079500D03*
X0021788Y0079500D03*
X0014701Y0079500D03*
X0014401Y0071400D03*
X0021488Y0071400D03*
X0068701Y0058800D03*
X0075788Y0058800D03*
X0197001Y0087900D03*
X0204088Y0087900D03*
D26*
X0031244Y0089700D03*
X0022144Y0089700D03*
X0013044Y0089700D03*
D27*
X0022144Y0114101D03*
D28*
X0024085Y0052042D03*
X0029204Y0052042D03*
X0026644Y0044758D03*
D29*
X0222144Y0148400D03*
X0237144Y0148400D03*
X0237144Y0170400D03*
X0222144Y0170400D03*
D30*
X0140944Y0111600D03*
X0140944Y0101600D03*
X0140944Y0089600D03*
X0140944Y0079600D03*
X0154944Y0021600D03*
X0164944Y0020600D03*
X0174944Y0021600D03*
X0184944Y0020600D03*
X0194944Y0021600D03*
D31*
X0036944Y0114400D03*
X0031044Y0069500D03*
X0031644Y0024400D03*
D32*
X0044374Y0026667D02*
X0044374Y0021943D01*
X0073115Y0021943D02*
X0073115Y0026667D01*
X0073115Y0042809D02*
X0073115Y0047533D01*
X0044374Y0047533D02*
X0044374Y0042809D01*
D33*
X0052445Y0046155D03*
X0055595Y0046155D03*
X0058744Y0046155D03*
X0061894Y0046155D03*
X0065044Y0046155D03*
D34*
X0063778Y0045924D02*
X0069852Y0045924D01*
X0069852Y0045326D02*
X0063778Y0045326D01*
X0063778Y0044727D02*
X0069852Y0044727D01*
X0069852Y0044129D02*
X0063778Y0044129D01*
X0063778Y0043530D02*
X0069852Y0043530D01*
X0069852Y0042932D02*
X0063778Y0042932D01*
X0063778Y0042420D02*
X0063778Y0050465D01*
X0063251Y0050992D01*
X0060537Y0050992D01*
X0060319Y0050774D01*
X0060102Y0050992D01*
X0057387Y0050992D01*
X0057170Y0050774D01*
X0056952Y0050992D01*
X0054344Y0050992D01*
X0054344Y0053135D01*
X0054401Y0053191D01*
X0054994Y0054624D01*
X0054994Y0055849D01*
X0057944Y0058798D01*
X0058318Y0059137D01*
X0058350Y0059205D01*
X0058403Y0059257D01*
X0058596Y0059724D01*
X0058680Y0059900D01*
X0060972Y0059900D01*
X0061132Y0059870D01*
X0060794Y0059532D01*
X0060794Y0057668D01*
X0062112Y0056350D01*
X0063597Y0056350D01*
X0065847Y0054100D01*
X0069747Y0054100D01*
X0073052Y0050795D01*
X0072466Y0050795D01*
X0071267Y0050299D01*
X0070349Y0049381D01*
X0069852Y0048182D01*
X0069852Y0042160D01*
X0070349Y0040961D01*
X0071267Y0040043D01*
X0072466Y0039546D01*
X0073763Y0039546D01*
X0074962Y0040043D01*
X0075880Y0040961D01*
X0076377Y0042160D01*
X0076377Y0047471D01*
X0082047Y0041800D01*
X0086477Y0041800D01*
X0086477Y0041779D01*
X0086596Y0041660D01*
X0086477Y0041541D01*
X0086477Y0039181D01*
X0087004Y0038654D01*
X0092474Y0038654D01*
X0093001Y0039181D01*
X0093001Y0040060D01*
X0094742Y0041800D01*
X0095444Y0042503D01*
X0095444Y0050618D01*
X0096494Y0051668D01*
X0096494Y0051953D01*
X0100244Y0048203D01*
X0100947Y0047500D01*
X0112062Y0047500D01*
X0113112Y0046450D01*
X0114976Y0046450D01*
X0116294Y0047768D01*
X0116294Y0049632D01*
X0115726Y0050200D01*
X0116863Y0050200D01*
X0116594Y0049932D01*
X0116594Y0048068D01*
X0117912Y0046750D01*
X0119397Y0046750D01*
X0126747Y0039400D01*
X0128288Y0039400D01*
X0128288Y0039181D01*
X0128815Y0038654D01*
X0134285Y0038654D01*
X0134812Y0039181D01*
X0134812Y0041541D01*
X0134693Y0041660D01*
X0134812Y0041779D01*
X0134812Y0044139D01*
X0134693Y0044258D01*
X0134812Y0044378D01*
X0134812Y0046737D01*
X0134693Y0046857D01*
X0134736Y0046900D01*
X0139994Y0046900D01*
X0139994Y0045668D01*
X0141313Y0044350D01*
X0143176Y0044350D01*
X0144494Y0045668D01*
X0144494Y0045953D01*
X0148094Y0042353D01*
X0148094Y0040868D01*
X0149413Y0039550D01*
X0151276Y0039550D01*
X0151544Y0039818D01*
X0151544Y0033882D01*
X0151544Y0035097D01*
X0150842Y0035800D01*
X0147194Y0039447D01*
X0147194Y0040932D01*
X0145876Y0042250D01*
X0144013Y0042250D01*
X0142694Y0040932D01*
X0142694Y0039068D01*
X0144013Y0037750D01*
X0145497Y0037750D01*
X0146547Y0036700D01*
X0073020Y0036700D01*
X0072844Y0036524D01*
X0072844Y0035825D01*
X0068891Y0035825D01*
X0069206Y0036586D01*
X0069206Y0038007D01*
X0068662Y0039320D01*
X0067657Y0040325D01*
X0066345Y0040868D01*
X0066328Y0040868D01*
X0066328Y0042244D01*
X0066152Y0042420D01*
X0063778Y0042420D01*
X0066239Y0042333D02*
X0069852Y0042333D01*
X0070029Y0041734D02*
X0066328Y0041734D01*
X0066328Y0041136D02*
X0070276Y0041136D01*
X0070772Y0040537D02*
X0067144Y0040537D01*
X0068043Y0039939D02*
X0071518Y0039939D01*
X0068902Y0038742D02*
X0086916Y0038742D01*
X0086477Y0039340D02*
X0068642Y0039340D01*
X0069150Y0038143D02*
X0143619Y0038143D01*
X0143021Y0038742D02*
X0134373Y0038742D01*
X0134812Y0039340D02*
X0142694Y0039340D01*
X0142694Y0039939D02*
X0134812Y0039939D01*
X0134812Y0040537D02*
X0142694Y0040537D01*
X0142898Y0041136D02*
X0134812Y0041136D01*
X0134768Y0041734D02*
X0143497Y0041734D01*
X0144944Y0040000D02*
X0150344Y0034600D01*
X0150344Y0031900D01*
X0151544Y0033882D02*
X0151544Y0033882D01*
X0151544Y0033954D02*
X0151544Y0033954D01*
X0151544Y0034552D02*
X0151544Y0034552D01*
X0151544Y0035151D02*
X0151491Y0035151D01*
X0151544Y0035749D02*
X0150892Y0035749D01*
X0150294Y0036348D02*
X0151544Y0036348D01*
X0151544Y0036946D02*
X0149695Y0036946D01*
X0149097Y0037545D02*
X0151544Y0037545D01*
X0151544Y0038143D02*
X0148498Y0038143D01*
X0147900Y0038742D02*
X0151544Y0038742D01*
X0151544Y0039340D02*
X0147301Y0039340D01*
X0147194Y0039939D02*
X0149024Y0039939D01*
X0148425Y0040537D02*
X0147194Y0040537D01*
X0146990Y0041136D02*
X0148094Y0041136D01*
X0148094Y0041734D02*
X0146392Y0041734D01*
X0147516Y0042932D02*
X0134812Y0042932D01*
X0134812Y0043530D02*
X0146917Y0043530D01*
X0146319Y0044129D02*
X0134812Y0044129D01*
X0134812Y0044727D02*
X0140935Y0044727D01*
X0140337Y0045326D02*
X0134812Y0045326D01*
X0134812Y0045924D02*
X0139994Y0045924D01*
X0139994Y0046523D02*
X0134812Y0046523D01*
X0131550Y0045557D02*
X0131444Y0045700D01*
X0128144Y0045700D01*
X0126944Y0046900D01*
X0125444Y0050200D02*
X0124244Y0051400D01*
X0105044Y0051400D01*
X0099044Y0057400D01*
X0099044Y0061300D01*
X0098952Y0061404D01*
X0096353Y0061404D02*
X0096344Y0061300D01*
X0096344Y0057100D01*
X0094244Y0055900D02*
X0101444Y0048700D01*
X0114044Y0048700D01*
X0112441Y0047121D02*
X0095444Y0047121D01*
X0095444Y0046523D02*
X0113040Y0046523D01*
X0115049Y0046523D02*
X0119625Y0046523D01*
X0120223Y0045924D02*
X0095444Y0045924D01*
X0095444Y0045326D02*
X0120822Y0045326D01*
X0121420Y0044727D02*
X0095444Y0044727D01*
X0095444Y0044129D02*
X0122019Y0044129D01*
X0122617Y0043530D02*
X0095444Y0043530D01*
X0095444Y0042932D02*
X0123216Y0042932D01*
X0123814Y0042333D02*
X0095275Y0042333D01*
X0094676Y0041734D02*
X0124413Y0041734D01*
X0125011Y0041136D02*
X0094078Y0041136D01*
X0093479Y0040537D02*
X0125610Y0040537D01*
X0126208Y0039939D02*
X0093001Y0039939D01*
X0093001Y0039340D02*
X0128288Y0039340D01*
X0128727Y0038742D02*
X0092562Y0038742D01*
X0091844Y0040600D02*
X0089744Y0040600D01*
X0089739Y0040361D01*
X0091844Y0040600D02*
X0094244Y0043000D01*
X0094244Y0052600D01*
X0095539Y0050712D02*
X0097735Y0050712D01*
X0097137Y0051311D02*
X0096137Y0051311D01*
X0096494Y0051909D02*
X0096538Y0051909D01*
X0095444Y0050114D02*
X0098334Y0050114D01*
X0098932Y0049515D02*
X0095444Y0049515D01*
X0095444Y0048917D02*
X0099531Y0048917D01*
X0100129Y0048318D02*
X0095444Y0048318D01*
X0095444Y0047720D02*
X0100728Y0047720D01*
X0105944Y0053800D02*
X0112544Y0053800D01*
X0114944Y0056200D01*
X0114944Y0058000D01*
X0114644Y0058300D01*
X0114644Y0061300D01*
X0114542Y0061404D01*
X0117044Y0061300D02*
X0117141Y0061404D01*
X0117044Y0061300D02*
X0117044Y0055000D01*
X0115844Y0053800D01*
X0115813Y0050114D02*
X0116776Y0050114D01*
X0116594Y0049515D02*
X0116294Y0049515D01*
X0116294Y0048917D02*
X0116594Y0048917D01*
X0116594Y0048318D02*
X0116294Y0048318D01*
X0116246Y0047720D02*
X0116943Y0047720D01*
X0117541Y0047121D02*
X0115648Y0047121D01*
X0118844Y0049000D02*
X0127244Y0040600D01*
X0131444Y0040600D01*
X0131550Y0040361D01*
X0134812Y0042333D02*
X0148094Y0042333D01*
X0150344Y0041800D02*
X0141644Y0050500D01*
X0131744Y0050500D01*
X0131550Y0050754D01*
X0131550Y0048156D02*
X0131744Y0048100D01*
X0140744Y0048100D01*
X0142244Y0046600D01*
X0143554Y0044727D02*
X0145720Y0044727D01*
X0145122Y0045326D02*
X0144152Y0045326D01*
X0144494Y0045924D02*
X0144523Y0045924D01*
X0145703Y0037545D02*
X0069206Y0037545D01*
X0069206Y0036946D02*
X0146301Y0036946D01*
X0158344Y0036946D02*
X0166244Y0036946D01*
X0166244Y0037480D02*
X0166244Y0035730D01*
X0166914Y0034112D01*
X0168152Y0032875D01*
X0169769Y0032205D01*
X0170852Y0032205D01*
X0168344Y0029697D01*
X0168344Y0028182D01*
X0167294Y0027132D01*
X0167294Y0026500D01*
X0161626Y0026500D01*
X0160576Y0027550D01*
X0158713Y0027550D01*
X0158344Y0027182D01*
X0158344Y0068776D01*
X0157827Y0070026D01*
X0154870Y0072982D01*
X0153621Y0073500D01*
X0152268Y0073500D01*
X0151926Y0073500D01*
X0152294Y0073868D01*
X0152294Y0075732D01*
X0151244Y0076782D01*
X0151244Y0077003D01*
X0192044Y0117803D01*
X0192044Y0084297D01*
X0176847Y0069100D01*
X0176444Y0068697D01*
X0176444Y0080397D01*
X0175478Y0081363D01*
X0176044Y0082730D01*
X0176044Y0084480D01*
X0175375Y0086097D01*
X0174137Y0087335D01*
X0172520Y0088005D01*
X0170769Y0088005D01*
X0169152Y0087335D01*
X0167914Y0086097D01*
X0167244Y0084480D01*
X0167244Y0082730D01*
X0167914Y0081112D01*
X0169152Y0079875D01*
X0170769Y0079205D01*
X0172520Y0079205D01*
X0173738Y0079709D01*
X0174044Y0079403D01*
X0174044Y0039427D01*
X0173137Y0040335D01*
X0171520Y0041005D01*
X0169769Y0041005D01*
X0168615Y0040527D01*
X0163094Y0046047D01*
X0163094Y0047532D01*
X0161776Y0048850D01*
X0159913Y0048850D01*
X0158594Y0047532D01*
X0158594Y0045668D01*
X0159913Y0044350D01*
X0161397Y0044350D01*
X0166837Y0038910D01*
X0166244Y0037480D01*
X0166271Y0037545D02*
X0158344Y0037545D01*
X0158344Y0038143D02*
X0166519Y0038143D01*
X0166767Y0038742D02*
X0158344Y0038742D01*
X0158344Y0039340D02*
X0166407Y0039340D01*
X0165808Y0039939D02*
X0158344Y0039939D01*
X0158344Y0040537D02*
X0165210Y0040537D01*
X0164611Y0041136D02*
X0158344Y0041136D01*
X0158344Y0041734D02*
X0164013Y0041734D01*
X0163414Y0042333D02*
X0158344Y0042333D01*
X0158344Y0042932D02*
X0162816Y0042932D01*
X0162217Y0043530D02*
X0158344Y0043530D01*
X0158344Y0044129D02*
X0161619Y0044129D01*
X0159535Y0044727D02*
X0158344Y0044727D01*
X0158344Y0045326D02*
X0158937Y0045326D01*
X0158594Y0045924D02*
X0158344Y0045924D01*
X0158344Y0046523D02*
X0158594Y0046523D01*
X0158594Y0047121D02*
X0158344Y0047121D01*
X0158344Y0047720D02*
X0158782Y0047720D01*
X0158344Y0048318D02*
X0159381Y0048318D01*
X0158344Y0048917D02*
X0174044Y0048917D01*
X0174044Y0049515D02*
X0158344Y0049515D01*
X0158344Y0050114D02*
X0174044Y0050114D01*
X0174044Y0050712D02*
X0158344Y0050712D01*
X0158344Y0051311D02*
X0174044Y0051311D01*
X0174044Y0051909D02*
X0158344Y0051909D01*
X0158344Y0052508D02*
X0174044Y0052508D01*
X0174044Y0053106D02*
X0158344Y0053106D01*
X0158344Y0053705D02*
X0174044Y0053705D01*
X0174044Y0054303D02*
X0158344Y0054303D01*
X0158344Y0054902D02*
X0174044Y0054902D01*
X0174044Y0055500D02*
X0158344Y0055500D01*
X0158344Y0056099D02*
X0174044Y0056099D01*
X0174044Y0056697D02*
X0158344Y0056697D01*
X0158344Y0057296D02*
X0174044Y0057296D01*
X0174044Y0057894D02*
X0158344Y0057894D01*
X0158344Y0058493D02*
X0174044Y0058493D01*
X0174044Y0059091D02*
X0158344Y0059091D01*
X0158344Y0059690D02*
X0174044Y0059690D01*
X0174044Y0060288D02*
X0158344Y0060288D01*
X0158344Y0060887D02*
X0174044Y0060887D01*
X0174044Y0061485D02*
X0158344Y0061485D01*
X0158344Y0062084D02*
X0174044Y0062084D01*
X0174044Y0062682D02*
X0158344Y0062682D01*
X0158344Y0063281D02*
X0174044Y0063281D01*
X0174044Y0063879D02*
X0158344Y0063879D01*
X0158344Y0064478D02*
X0174044Y0064478D01*
X0174044Y0065076D02*
X0158344Y0065076D01*
X0158344Y0065675D02*
X0174044Y0065675D01*
X0174044Y0066273D02*
X0158344Y0066273D01*
X0158344Y0066872D02*
X0174044Y0066872D01*
X0174044Y0067470D02*
X0158344Y0067470D01*
X0158344Y0068069D02*
X0174044Y0068069D01*
X0174044Y0068668D02*
X0158344Y0068668D01*
X0158142Y0069266D02*
X0174044Y0069266D01*
X0174044Y0069865D02*
X0157894Y0069865D01*
X0157390Y0070463D02*
X0174044Y0070463D01*
X0174044Y0071062D02*
X0156791Y0071062D01*
X0156193Y0071660D02*
X0174044Y0071660D01*
X0174044Y0072259D02*
X0155594Y0072259D01*
X0154996Y0072857D02*
X0174044Y0072857D01*
X0174044Y0073456D02*
X0153728Y0073456D01*
X0152294Y0074054D02*
X0174044Y0074054D01*
X0174044Y0074653D02*
X0152294Y0074653D01*
X0152294Y0075251D02*
X0174044Y0075251D01*
X0174044Y0075850D02*
X0152177Y0075850D01*
X0151578Y0076448D02*
X0174044Y0076448D01*
X0174044Y0077047D02*
X0151288Y0077047D01*
X0151887Y0077645D02*
X0174044Y0077645D01*
X0174044Y0078244D02*
X0152485Y0078244D01*
X0153084Y0078842D02*
X0174044Y0078842D01*
X0174007Y0079441D02*
X0173089Y0079441D01*
X0175244Y0079900D02*
X0171644Y0083500D01*
X0171644Y0083605D01*
X0168440Y0086623D02*
X0160864Y0086623D01*
X0160266Y0086024D02*
X0167884Y0086024D01*
X0167636Y0085426D02*
X0159667Y0085426D01*
X0159069Y0084827D02*
X0167388Y0084827D01*
X0167244Y0084229D02*
X0158470Y0084229D01*
X0157872Y0083630D02*
X0167244Y0083630D01*
X0167244Y0083032D02*
X0157273Y0083032D01*
X0156675Y0082433D02*
X0167367Y0082433D01*
X0167615Y0081835D02*
X0156076Y0081835D01*
X0155478Y0081236D02*
X0167863Y0081236D01*
X0168389Y0080638D02*
X0154879Y0080638D01*
X0154281Y0080039D02*
X0168987Y0080039D01*
X0170200Y0079441D02*
X0153682Y0079441D01*
X0150284Y0081236D02*
X0146744Y0081236D01*
X0146744Y0080638D02*
X0149685Y0080638D01*
X0149087Y0080039D02*
X0146744Y0080039D01*
X0146744Y0079441D02*
X0148488Y0079441D01*
X0147890Y0078842D02*
X0146744Y0078842D01*
X0146744Y0078244D02*
X0147291Y0078244D01*
X0146744Y0077697D02*
X0146744Y0119687D01*
X0147293Y0119138D01*
X0149996Y0119138D01*
X0151907Y0121049D01*
X0151907Y0121300D01*
X0155382Y0121300D01*
X0155382Y0121049D01*
X0157293Y0119138D01*
X0158485Y0119138D01*
X0151244Y0111897D01*
X0151244Y0093282D01*
X0150194Y0092232D01*
X0150194Y0090368D01*
X0151513Y0089050D01*
X0153376Y0089050D01*
X0154694Y0090368D01*
X0154694Y0092232D01*
X0153644Y0093282D01*
X0153644Y0110903D01*
X0162542Y0119800D01*
X0163244Y0120503D01*
X0163244Y0124197D01*
X0159044Y0128397D01*
X0158342Y0129100D01*
X0104942Y0129100D01*
X0096907Y0137135D01*
X0096907Y0140804D01*
X0096611Y0141100D01*
X0123762Y0141100D01*
X0124812Y0140050D01*
X0125111Y0140050D01*
X0125111Y0139900D01*
X0124647Y0139900D01*
X0123178Y0138431D01*
X0123178Y0140485D01*
X0122651Y0141013D01*
X0118638Y0141013D01*
X0118111Y0140485D01*
X0118111Y0139900D01*
X0114447Y0139900D01*
X0110103Y0135555D01*
X0109996Y0135662D01*
X0107293Y0135662D01*
X0105382Y0133751D01*
X0105382Y0131049D01*
X0107293Y0129138D01*
X0109996Y0129138D01*
X0111907Y0131049D01*
X0111907Y0133751D01*
X0111800Y0133858D01*
X0115442Y0137500D01*
X0118111Y0137500D01*
X0118111Y0137259D01*
X0118638Y0136732D01*
X0121480Y0136732D01*
X0120203Y0135455D01*
X0119996Y0135662D01*
X0117293Y0135662D01*
X0115382Y0133751D01*
X0115382Y0131049D01*
X0117293Y0129138D01*
X0119996Y0129138D01*
X0121907Y0131049D01*
X0121907Y0133751D01*
X0121900Y0133758D01*
X0125256Y0137114D01*
X0125638Y0136732D01*
X0129651Y0136732D01*
X0130178Y0137259D01*
X0130178Y0140485D01*
X0129651Y0141013D01*
X0127639Y0141013D01*
X0127994Y0141368D01*
X0127994Y0143232D01*
X0126676Y0144550D01*
X0125594Y0144550D01*
X0125594Y0145632D01*
X0124276Y0146950D01*
X0123992Y0146950D01*
X0125111Y0148069D01*
X0125111Y0146315D01*
X0125638Y0145787D01*
X0129651Y0145787D01*
X0130178Y0146315D01*
X0130178Y0146369D01*
X0133544Y0143003D01*
X0134247Y0142300D01*
X0157363Y0142300D01*
X0158113Y0141550D01*
X0159976Y0141550D01*
X0160726Y0142300D01*
X0166142Y0142300D01*
X0168242Y0144400D01*
X0174842Y0144400D01*
X0176229Y0145787D01*
X0178651Y0145787D01*
X0179178Y0146315D01*
X0179178Y0148069D01*
X0180447Y0146800D01*
X0182111Y0146800D01*
X0182111Y0146315D01*
X0182638Y0145787D01*
X0186651Y0145787D01*
X0187178Y0146315D01*
X0187178Y0148484D01*
X0187212Y0148450D01*
X0189076Y0148450D01*
X0189944Y0149318D01*
X0190812Y0148450D01*
X0190844Y0148450D01*
X0190844Y0134813D01*
X0189996Y0135662D01*
X0187293Y0135662D01*
X0187086Y0135455D01*
X0186044Y0136497D01*
X0186044Y0136732D01*
X0186651Y0136732D01*
X0187178Y0137259D01*
X0187178Y0140485D01*
X0186651Y0141013D01*
X0182638Y0141013D01*
X0182111Y0140485D01*
X0182111Y0137259D01*
X0182638Y0136732D01*
X0183644Y0136732D01*
X0183644Y0135503D01*
X0185389Y0133758D01*
X0185382Y0133751D01*
X0185382Y0131049D01*
X0187293Y0129138D01*
X0189996Y0129138D01*
X0190844Y0129987D01*
X0190844Y0124813D01*
X0189996Y0125662D01*
X0187293Y0125662D01*
X0185382Y0123751D01*
X0185382Y0123700D01*
X0181907Y0123700D01*
X0181907Y0123751D01*
X0179996Y0125662D01*
X0177293Y0125662D01*
X0175382Y0123751D01*
X0175382Y0123700D01*
X0171907Y0123700D01*
X0171907Y0123751D01*
X0169996Y0125662D01*
X0167293Y0125662D01*
X0165382Y0123751D01*
X0165382Y0121049D01*
X0165944Y0120487D01*
X0165944Y0096897D01*
X0146744Y0077697D01*
X0145544Y0077500D02*
X0145544Y0122500D01*
X0148544Y0122500D01*
X0148644Y0122400D01*
X0148844Y0122500D01*
X0158444Y0122500D01*
X0158644Y0122400D01*
X0156292Y0120139D02*
X0150997Y0120139D01*
X0150399Y0119541D02*
X0156890Y0119541D01*
X0157691Y0118344D02*
X0146744Y0118344D01*
X0146744Y0118942D02*
X0158290Y0118942D01*
X0157093Y0117745D02*
X0146744Y0117745D01*
X0146744Y0117147D02*
X0156494Y0117147D01*
X0155896Y0116548D02*
X0146744Y0116548D01*
X0146744Y0115950D02*
X0155297Y0115950D01*
X0154699Y0115351D02*
X0146744Y0115351D01*
X0146744Y0114753D02*
X0154100Y0114753D01*
X0153502Y0114154D02*
X0146744Y0114154D01*
X0146744Y0113556D02*
X0152903Y0113556D01*
X0152305Y0112957D02*
X0146744Y0112957D01*
X0146744Y0112359D02*
X0151706Y0112359D01*
X0151244Y0111760D02*
X0146744Y0111760D01*
X0146744Y0111162D02*
X0151244Y0111162D01*
X0151244Y0110563D02*
X0146744Y0110563D01*
X0146744Y0109965D02*
X0151244Y0109965D01*
X0151244Y0109366D02*
X0146744Y0109366D01*
X0146744Y0108768D02*
X0151244Y0108768D01*
X0151244Y0108169D02*
X0146744Y0108169D01*
X0146744Y0107571D02*
X0151244Y0107571D01*
X0151244Y0106972D02*
X0146744Y0106972D01*
X0146744Y0106374D02*
X0151244Y0106374D01*
X0151244Y0105775D02*
X0146744Y0105775D01*
X0146744Y0105177D02*
X0151244Y0105177D01*
X0151244Y0104578D02*
X0146744Y0104578D01*
X0146744Y0103980D02*
X0151244Y0103980D01*
X0151244Y0103381D02*
X0146744Y0103381D01*
X0146744Y0102783D02*
X0151244Y0102783D01*
X0151244Y0102184D02*
X0146744Y0102184D01*
X0146744Y0101586D02*
X0151244Y0101586D01*
X0151244Y0100987D02*
X0146744Y0100987D01*
X0146744Y0100389D02*
X0151244Y0100389D01*
X0151244Y0099790D02*
X0146744Y0099790D01*
X0146744Y0099192D02*
X0151244Y0099192D01*
X0151244Y0098593D02*
X0146744Y0098593D01*
X0146744Y0097995D02*
X0151244Y0097995D01*
X0151244Y0097396D02*
X0146744Y0097396D01*
X0146744Y0096798D02*
X0151244Y0096798D01*
X0151244Y0096199D02*
X0146744Y0096199D01*
X0146744Y0095601D02*
X0151244Y0095601D01*
X0151244Y0095002D02*
X0146744Y0095002D01*
X0146744Y0094403D02*
X0151244Y0094403D01*
X0151244Y0093805D02*
X0146744Y0093805D01*
X0146744Y0093206D02*
X0151169Y0093206D01*
X0150570Y0092608D02*
X0146744Y0092608D01*
X0146744Y0092009D02*
X0150194Y0092009D01*
X0150194Y0091411D02*
X0146744Y0091411D01*
X0146744Y0090812D02*
X0150194Y0090812D01*
X0150349Y0090214D02*
X0146744Y0090214D01*
X0146744Y0089615D02*
X0150947Y0089615D01*
X0152444Y0091300D02*
X0152444Y0111400D01*
X0162044Y0121000D01*
X0162044Y0123700D01*
X0157844Y0127900D01*
X0104444Y0127900D01*
X0093644Y0138700D01*
X0093644Y0138857D01*
X0096907Y0138693D02*
X0113241Y0138693D01*
X0112642Y0138095D02*
X0096907Y0138095D01*
X0096907Y0137496D02*
X0112044Y0137496D01*
X0111445Y0136898D02*
X0097144Y0136898D01*
X0097742Y0136299D02*
X0110847Y0136299D01*
X0110248Y0135701D02*
X0098341Y0135701D01*
X0098939Y0135102D02*
X0106733Y0135102D01*
X0106135Y0134504D02*
X0099538Y0134504D01*
X0100136Y0133905D02*
X0105536Y0133905D01*
X0105382Y0133307D02*
X0100735Y0133307D01*
X0101333Y0132708D02*
X0105382Y0132708D01*
X0105382Y0132110D02*
X0101932Y0132110D01*
X0102530Y0131511D02*
X0105382Y0131511D01*
X0105518Y0130913D02*
X0103129Y0130913D01*
X0103727Y0130314D02*
X0106117Y0130314D01*
X0106715Y0129716D02*
X0104326Y0129716D01*
X0104924Y0129117D02*
X0190844Y0129117D01*
X0190844Y0128519D02*
X0158923Y0128519D01*
X0159521Y0127920D02*
X0190844Y0127920D01*
X0190844Y0127322D02*
X0160120Y0127322D01*
X0160718Y0126723D02*
X0190844Y0126723D01*
X0190844Y0126125D02*
X0161317Y0126125D01*
X0161915Y0125526D02*
X0167157Y0125526D01*
X0166559Y0124928D02*
X0162514Y0124928D01*
X0163112Y0124329D02*
X0165960Y0124329D01*
X0165382Y0123731D02*
X0163244Y0123731D01*
X0163244Y0123132D02*
X0165382Y0123132D01*
X0165382Y0122534D02*
X0163244Y0122534D01*
X0163244Y0121935D02*
X0165382Y0121935D01*
X0165382Y0121337D02*
X0163244Y0121337D01*
X0163244Y0120738D02*
X0165693Y0120738D01*
X0165944Y0120139D02*
X0162881Y0120139D01*
X0162283Y0119541D02*
X0165944Y0119541D01*
X0165944Y0118942D02*
X0161684Y0118942D01*
X0161085Y0118344D02*
X0165944Y0118344D01*
X0165944Y0117745D02*
X0160487Y0117745D01*
X0159888Y0117147D02*
X0165944Y0117147D01*
X0165944Y0116548D02*
X0159290Y0116548D01*
X0158691Y0115950D02*
X0165944Y0115950D01*
X0165944Y0115351D02*
X0158093Y0115351D01*
X0157494Y0114753D02*
X0165944Y0114753D01*
X0165944Y0114154D02*
X0156896Y0114154D01*
X0156297Y0113556D02*
X0165944Y0113556D01*
X0165944Y0112957D02*
X0155699Y0112957D01*
X0155100Y0112359D02*
X0165944Y0112359D01*
X0165944Y0111760D02*
X0154502Y0111760D01*
X0153903Y0111162D02*
X0165944Y0111162D01*
X0165944Y0110563D02*
X0153644Y0110563D01*
X0153644Y0109965D02*
X0165944Y0109965D01*
X0165944Y0109366D02*
X0153644Y0109366D01*
X0153644Y0108768D02*
X0165944Y0108768D01*
X0165944Y0108169D02*
X0153644Y0108169D01*
X0153644Y0107571D02*
X0165944Y0107571D01*
X0165944Y0106972D02*
X0153644Y0106972D01*
X0153644Y0106374D02*
X0165944Y0106374D01*
X0165944Y0105775D02*
X0153644Y0105775D01*
X0153644Y0105177D02*
X0165944Y0105177D01*
X0165944Y0104578D02*
X0153644Y0104578D01*
X0153644Y0103980D02*
X0165944Y0103980D01*
X0165944Y0103381D02*
X0153644Y0103381D01*
X0153644Y0102783D02*
X0165944Y0102783D01*
X0165944Y0102184D02*
X0153644Y0102184D01*
X0153644Y0101586D02*
X0165944Y0101586D01*
X0165944Y0100987D02*
X0153644Y0100987D01*
X0153644Y0100389D02*
X0165944Y0100389D01*
X0165944Y0099790D02*
X0153644Y0099790D01*
X0153644Y0099192D02*
X0165944Y0099192D01*
X0165944Y0098593D02*
X0153644Y0098593D01*
X0153644Y0097995D02*
X0165944Y0097995D01*
X0165944Y0097396D02*
X0153644Y0097396D01*
X0153644Y0096798D02*
X0165845Y0096798D01*
X0165246Y0096199D02*
X0153644Y0096199D01*
X0153644Y0095601D02*
X0164648Y0095601D01*
X0164049Y0095002D02*
X0153644Y0095002D01*
X0153644Y0094403D02*
X0163451Y0094403D01*
X0162852Y0093805D02*
X0153644Y0093805D01*
X0153720Y0093206D02*
X0162254Y0093206D01*
X0161655Y0092608D02*
X0154318Y0092608D01*
X0154694Y0092009D02*
X0161057Y0092009D01*
X0160458Y0091411D02*
X0154694Y0091411D01*
X0154694Y0090812D02*
X0159860Y0090812D01*
X0159261Y0090214D02*
X0154540Y0090214D01*
X0153942Y0089615D02*
X0158663Y0089615D01*
X0158064Y0089017D02*
X0146744Y0089017D01*
X0146744Y0088418D02*
X0157466Y0088418D01*
X0156867Y0087820D02*
X0146744Y0087820D01*
X0146744Y0087221D02*
X0156269Y0087221D01*
X0155670Y0086623D02*
X0146744Y0086623D01*
X0146744Y0086024D02*
X0155072Y0086024D01*
X0154473Y0085426D02*
X0146744Y0085426D01*
X0146744Y0084827D02*
X0153875Y0084827D01*
X0153276Y0084229D02*
X0146744Y0084229D01*
X0146744Y0083630D02*
X0152678Y0083630D01*
X0152079Y0083032D02*
X0146744Y0083032D01*
X0146744Y0082433D02*
X0151481Y0082433D01*
X0150882Y0081835D02*
X0146744Y0081835D01*
X0144344Y0082705D02*
X0143550Y0083500D01*
X0141859Y0084200D01*
X0140029Y0084200D01*
X0138482Y0083559D01*
X0134042Y0088000D01*
X0131571Y0088000D01*
X0131566Y0088005D01*
X0131788Y0088226D01*
X0131788Y0090342D01*
X0131261Y0090869D01*
X0125015Y0090869D01*
X0124488Y0090342D01*
X0124488Y0088226D01*
X0124710Y0088005D01*
X0124488Y0087783D01*
X0124488Y0087353D01*
X0119042Y0092800D01*
X0114842Y0092800D01*
X0113642Y0094000D01*
X0109347Y0094000D01*
X0108644Y0093297D01*
X0108194Y0092847D01*
X0108194Y0094332D01*
X0106876Y0095650D01*
X0105012Y0095650D01*
X0103962Y0094600D01*
X0103142Y0094600D01*
X0103001Y0094741D01*
X0103001Y0095460D01*
X0102951Y0095510D01*
X0103244Y0095803D01*
X0103244Y0100697D01*
X0102542Y0101400D01*
X0100441Y0101400D01*
X0100221Y0101620D01*
X0098481Y0101620D01*
X0098281Y0101420D01*
X0095144Y0101420D01*
X0095144Y0107900D01*
X0095701Y0107900D01*
X0095701Y0106140D01*
X0095922Y0105918D01*
X0095701Y0105696D01*
X0095701Y0103581D01*
X0096228Y0103054D01*
X0102474Y0103054D01*
X0103001Y0103581D01*
X0103001Y0103900D01*
X0104562Y0103900D01*
X0105612Y0102850D01*
X0107476Y0102850D01*
X0108794Y0104168D01*
X0108794Y0106032D01*
X0107476Y0107350D01*
X0105612Y0107350D01*
X0104562Y0106300D01*
X0103001Y0106300D01*
X0103001Y0106759D01*
X0104444Y0108203D01*
X0104444Y0116303D01*
X0108147Y0112600D01*
X0116862Y0112600D01*
X0117912Y0111550D01*
X0119776Y0111550D01*
X0121094Y0112868D01*
X0121094Y0114732D01*
X0119776Y0116050D01*
X0117912Y0116050D01*
X0116862Y0115000D01*
X0111526Y0115000D01*
X0111794Y0115268D01*
X0111794Y0117132D01*
X0110476Y0118450D01*
X0108612Y0118450D01*
X0108052Y0117889D01*
X0100442Y0125500D01*
X0107131Y0125500D01*
X0105382Y0123751D01*
X0105382Y0121049D01*
X0107293Y0119138D01*
X0109996Y0119138D01*
X0111907Y0121049D01*
X0111907Y0121300D01*
X0115382Y0121300D01*
X0115382Y0121049D01*
X0117293Y0119138D01*
X0119996Y0119138D01*
X0121907Y0121049D01*
X0121907Y0121300D01*
X0125382Y0121300D01*
X0125382Y0121049D01*
X0127293Y0119138D01*
X0129996Y0119138D01*
X0131907Y0121049D01*
X0131907Y0123751D01*
X0130158Y0125500D01*
X0137131Y0125500D01*
X0135382Y0123751D01*
X0135382Y0121049D01*
X0137293Y0119138D01*
X0139996Y0119138D01*
X0141907Y0121049D01*
X0141907Y0121300D01*
X0144344Y0121300D01*
X0144344Y0114705D01*
X0143550Y0115500D01*
X0141859Y0116200D01*
X0140029Y0116200D01*
X0138339Y0115500D01*
X0137045Y0114206D01*
X0136877Y0113800D01*
X0131771Y0113800D01*
X0131788Y0113817D01*
X0131788Y0115933D01*
X0131261Y0116460D01*
X0125015Y0116460D01*
X0124488Y0115933D01*
X0124488Y0113817D01*
X0124710Y0113595D01*
X0124488Y0113374D01*
X0124488Y0111258D01*
X0125015Y0110731D01*
X0131261Y0110731D01*
X0131788Y0111258D01*
X0131788Y0111400D01*
X0136344Y0111400D01*
X0136344Y0110685D01*
X0137045Y0108994D01*
X0138339Y0107700D01*
X0140029Y0107000D01*
X0141859Y0107000D01*
X0143550Y0107700D01*
X0144344Y0108495D01*
X0144344Y0104705D01*
X0143550Y0105500D01*
X0141859Y0106200D01*
X0140029Y0106200D01*
X0138339Y0105500D01*
X0137045Y0104206D01*
X0136670Y0103300D01*
X0131626Y0103300D01*
X0131566Y0103359D01*
X0131788Y0103581D01*
X0131788Y0105696D01*
X0131261Y0106224D01*
X0125015Y0106224D01*
X0124488Y0105696D01*
X0124488Y0103581D01*
X0124710Y0103359D01*
X0124488Y0103137D01*
X0124488Y0101022D01*
X0124710Y0100800D01*
X0124488Y0100578D01*
X0124488Y0098463D01*
X0124710Y0098241D01*
X0124488Y0098019D01*
X0124488Y0095904D01*
X0125015Y0095376D01*
X0131261Y0095376D01*
X0131685Y0095800D01*
X0133047Y0095800D01*
X0136927Y0091921D01*
X0136344Y0090515D01*
X0136344Y0088685D01*
X0137045Y0086994D01*
X0138339Y0085700D01*
X0140029Y0085000D01*
X0141859Y0085000D01*
X0143550Y0085700D01*
X0144344Y0086495D01*
X0144344Y0082705D01*
X0144344Y0083032D02*
X0144018Y0083032D01*
X0144344Y0083630D02*
X0143235Y0083630D01*
X0144344Y0084229D02*
X0137813Y0084229D01*
X0138411Y0083630D02*
X0138654Y0083630D01*
X0139001Y0085426D02*
X0136616Y0085426D01*
X0137214Y0084827D02*
X0144344Y0084827D01*
X0144344Y0085426D02*
X0142888Y0085426D01*
X0143874Y0086024D02*
X0144344Y0086024D01*
X0140944Y0089600D02*
X0133544Y0097000D01*
X0128444Y0097000D01*
X0128138Y0096961D01*
X0128144Y0097000D01*
X0128144Y0099400D01*
X0128138Y0099520D01*
X0128138Y0102080D02*
X0128444Y0102100D01*
X0140444Y0102100D01*
X0140944Y0101600D01*
X0136703Y0103381D02*
X0131589Y0103381D01*
X0131788Y0103980D02*
X0136951Y0103980D01*
X0137417Y0104578D02*
X0131788Y0104578D01*
X0131788Y0105177D02*
X0138016Y0105177D01*
X0139004Y0105775D02*
X0131709Y0105775D01*
X0128138Y0104639D02*
X0128144Y0104500D01*
X0128144Y0102100D01*
X0128138Y0102080D01*
X0124488Y0102184D02*
X0095144Y0102184D01*
X0095144Y0101586D02*
X0098446Y0101586D01*
X0100255Y0101586D02*
X0124488Y0101586D01*
X0124523Y0100987D02*
X0102954Y0100987D01*
X0103244Y0100389D02*
X0124488Y0100389D01*
X0124488Y0099790D02*
X0103244Y0099790D01*
X0103244Y0099192D02*
X0124488Y0099192D01*
X0124488Y0098593D02*
X0103244Y0098593D01*
X0103244Y0097995D02*
X0124488Y0097995D01*
X0124488Y0097396D02*
X0103244Y0097396D01*
X0103244Y0096798D02*
X0124488Y0096798D01*
X0124488Y0096199D02*
X0103244Y0096199D01*
X0103042Y0095601D02*
X0104963Y0095601D01*
X0104365Y0095002D02*
X0103001Y0095002D01*
X0101744Y0094300D02*
X0099644Y0094300D01*
X0099351Y0094402D01*
X0101744Y0094300D02*
X0102644Y0093400D01*
X0105944Y0093400D01*
X0107524Y0095002D02*
X0133845Y0095002D01*
X0133247Y0095601D02*
X0131485Y0095601D01*
X0134444Y0094403D02*
X0108123Y0094403D01*
X0108194Y0093805D02*
X0109152Y0093805D01*
X0108554Y0093206D02*
X0108194Y0093206D01*
X0109844Y0092800D02*
X0113144Y0092800D01*
X0114344Y0091600D01*
X0118544Y0091600D01*
X0131744Y0078400D01*
X0135344Y0078400D01*
X0138944Y0074800D01*
X0142844Y0074800D01*
X0145544Y0077500D01*
X0144344Y0073600D02*
X0167144Y0096400D01*
X0167144Y0120700D01*
X0168644Y0122200D01*
X0168644Y0122400D01*
X0168644Y0122500D01*
X0178544Y0122500D01*
X0178644Y0122400D01*
X0178844Y0122500D01*
X0188444Y0122500D01*
X0188644Y0122400D01*
X0186292Y0120139D02*
X0180997Y0120139D01*
X0180399Y0119541D02*
X0186890Y0119541D01*
X0187293Y0119138D02*
X0189985Y0119138D01*
X0168344Y0097497D01*
X0168344Y0119138D01*
X0169996Y0119138D01*
X0171907Y0121049D01*
X0171907Y0121300D01*
X0175382Y0121300D01*
X0175382Y0121049D01*
X0177293Y0119138D01*
X0179996Y0119138D01*
X0181907Y0121049D01*
X0181907Y0121300D01*
X0185382Y0121300D01*
X0185382Y0121049D01*
X0187293Y0119138D01*
X0188593Y0117745D02*
X0168344Y0117745D01*
X0168344Y0117147D02*
X0187994Y0117147D01*
X0187396Y0116548D02*
X0168344Y0116548D01*
X0168344Y0115950D02*
X0186797Y0115950D01*
X0186199Y0115351D02*
X0168344Y0115351D01*
X0168344Y0114753D02*
X0185600Y0114753D01*
X0185002Y0114154D02*
X0168344Y0114154D01*
X0168344Y0113556D02*
X0184403Y0113556D01*
X0183805Y0112957D02*
X0168344Y0112957D01*
X0168344Y0112359D02*
X0183206Y0112359D01*
X0182608Y0111760D02*
X0168344Y0111760D01*
X0168344Y0111162D02*
X0182009Y0111162D01*
X0181411Y0110563D02*
X0168344Y0110563D01*
X0168344Y0109965D02*
X0180812Y0109965D01*
X0180214Y0109366D02*
X0168344Y0109366D01*
X0168344Y0108768D02*
X0179615Y0108768D01*
X0179017Y0108169D02*
X0168344Y0108169D01*
X0168344Y0107571D02*
X0178418Y0107571D01*
X0177820Y0106972D02*
X0168344Y0106972D01*
X0168344Y0106374D02*
X0177221Y0106374D01*
X0176623Y0105775D02*
X0168344Y0105775D01*
X0168344Y0105177D02*
X0176024Y0105177D01*
X0175426Y0104578D02*
X0168344Y0104578D01*
X0168344Y0103980D02*
X0174827Y0103980D01*
X0174229Y0103381D02*
X0168344Y0103381D01*
X0168344Y0102783D02*
X0173630Y0102783D01*
X0173032Y0102184D02*
X0168344Y0102184D01*
X0168344Y0101586D02*
X0172433Y0101586D01*
X0171835Y0100987D02*
X0168344Y0100987D01*
X0168344Y0100389D02*
X0171236Y0100389D01*
X0170638Y0099790D02*
X0168344Y0099790D01*
X0168344Y0099192D02*
X0170039Y0099192D01*
X0169441Y0098593D02*
X0168344Y0098593D01*
X0168344Y0097995D02*
X0168842Y0097995D01*
X0170441Y0096199D02*
X0192044Y0096199D01*
X0192044Y0095601D02*
X0169842Y0095601D01*
X0169244Y0095002D02*
X0192044Y0095002D01*
X0192044Y0094403D02*
X0168645Y0094403D01*
X0168047Y0093805D02*
X0192044Y0093805D01*
X0192044Y0093206D02*
X0167448Y0093206D01*
X0166849Y0092608D02*
X0192044Y0092608D01*
X0192044Y0092009D02*
X0166251Y0092009D01*
X0165652Y0091411D02*
X0192044Y0091411D01*
X0192044Y0090812D02*
X0165054Y0090812D01*
X0164455Y0090214D02*
X0192044Y0090214D01*
X0192044Y0089615D02*
X0163857Y0089615D01*
X0163258Y0089017D02*
X0192044Y0089017D01*
X0192044Y0088418D02*
X0162660Y0088418D01*
X0162061Y0087820D02*
X0170323Y0087820D01*
X0169039Y0087221D02*
X0161463Y0087221D01*
X0172966Y0087820D02*
X0192044Y0087820D01*
X0192044Y0087221D02*
X0174250Y0087221D01*
X0174849Y0086623D02*
X0192044Y0086623D01*
X0192044Y0086024D02*
X0175405Y0086024D01*
X0175653Y0085426D02*
X0192044Y0085426D01*
X0192044Y0084827D02*
X0175901Y0084827D01*
X0176044Y0084229D02*
X0191976Y0084229D01*
X0191378Y0083630D02*
X0176044Y0083630D01*
X0176044Y0083032D02*
X0190779Y0083032D01*
X0190181Y0082433D02*
X0175922Y0082433D01*
X0175674Y0081835D02*
X0189582Y0081835D01*
X0188984Y0081236D02*
X0175605Y0081236D01*
X0176204Y0080638D02*
X0188385Y0080638D01*
X0187787Y0080039D02*
X0176444Y0080039D01*
X0176444Y0079441D02*
X0187188Y0079441D01*
X0186590Y0078842D02*
X0176444Y0078842D01*
X0176444Y0078244D02*
X0185991Y0078244D01*
X0185393Y0077645D02*
X0176444Y0077645D01*
X0176444Y0077047D02*
X0184794Y0077047D01*
X0184196Y0076448D02*
X0176444Y0076448D01*
X0176444Y0075850D02*
X0183597Y0075850D01*
X0182999Y0075251D02*
X0176444Y0075251D01*
X0176444Y0074653D02*
X0182400Y0074653D01*
X0181802Y0074054D02*
X0176444Y0074054D01*
X0176444Y0073456D02*
X0181203Y0073456D01*
X0180605Y0072857D02*
X0176444Y0072857D01*
X0176444Y0072259D02*
X0180006Y0072259D01*
X0179408Y0071660D02*
X0176444Y0071660D01*
X0176444Y0071062D02*
X0178809Y0071062D01*
X0178210Y0070463D02*
X0176444Y0070463D01*
X0176444Y0069865D02*
X0177612Y0069865D01*
X0177013Y0069266D02*
X0176444Y0069266D01*
X0177344Y0067900D02*
X0177344Y0024100D01*
X0174944Y0021700D01*
X0174944Y0021600D01*
X0174944Y0022000D01*
X0170444Y0022000D01*
X0167144Y0025300D01*
X0159644Y0025300D01*
X0161306Y0023779D02*
X0166968Y0023779D01*
X0166647Y0024100D02*
X0161626Y0024100D01*
X0160576Y0023050D01*
X0159323Y0023050D01*
X0159544Y0022515D01*
X0159544Y0020685D01*
X0158844Y0018994D01*
X0157550Y0017700D01*
X0156342Y0017200D01*
X0173547Y0017200D01*
X0172339Y0017700D01*
X0171045Y0018994D01*
X0170344Y0020685D01*
X0170344Y0020800D01*
X0169947Y0020800D01*
X0169244Y0021503D01*
X0166647Y0024100D01*
X0167567Y0023181D02*
X0160707Y0023181D01*
X0159517Y0022582D02*
X0168165Y0022582D01*
X0168764Y0021984D02*
X0159544Y0021984D01*
X0159544Y0021385D02*
X0169362Y0021385D01*
X0170344Y0020787D02*
X0159544Y0020787D01*
X0159339Y0020188D02*
X0170550Y0020188D01*
X0170798Y0019590D02*
X0159091Y0019590D01*
X0158841Y0018991D02*
X0171048Y0018991D01*
X0171647Y0018393D02*
X0158242Y0018393D01*
X0157644Y0017794D02*
X0172245Y0017794D01*
X0176342Y0017200D02*
X0177550Y0017700D01*
X0178844Y0018994D01*
X0179544Y0020685D01*
X0179544Y0022515D01*
X0178844Y0024206D01*
X0178544Y0024505D01*
X0178544Y0067403D01*
X0187582Y0076441D01*
X0187582Y0073996D01*
X0188109Y0073469D01*
X0188416Y0073469D01*
X0184647Y0069700D01*
X0183944Y0068997D01*
X0183944Y0025165D01*
X0182339Y0024500D01*
X0181045Y0023206D01*
X0180344Y0021515D01*
X0180344Y0019685D01*
X0181045Y0017994D01*
X0181839Y0017200D01*
X0176342Y0017200D01*
X0177644Y0017794D02*
X0181245Y0017794D01*
X0180880Y0018393D02*
X0178242Y0018393D01*
X0178841Y0018991D02*
X0180632Y0018991D01*
X0180384Y0019590D02*
X0179091Y0019590D01*
X0179339Y0020188D02*
X0180344Y0020188D01*
X0180344Y0020787D02*
X0179544Y0020787D01*
X0179544Y0021385D02*
X0180344Y0021385D01*
X0180539Y0021984D02*
X0179544Y0021984D01*
X0179517Y0022582D02*
X0180787Y0022582D01*
X0181034Y0023181D02*
X0179269Y0023181D01*
X0179021Y0023779D02*
X0181618Y0023779D01*
X0182217Y0024378D02*
X0178672Y0024378D01*
X0178544Y0024976D02*
X0183489Y0024976D01*
X0183944Y0025575D02*
X0178544Y0025575D01*
X0178544Y0026173D02*
X0183944Y0026173D01*
X0183944Y0026772D02*
X0178544Y0026772D01*
X0178544Y0027370D02*
X0183944Y0027370D01*
X0183944Y0027969D02*
X0178544Y0027969D01*
X0178544Y0028567D02*
X0183944Y0028567D01*
X0183944Y0029166D02*
X0178544Y0029166D01*
X0178544Y0029764D02*
X0183944Y0029764D01*
X0183944Y0030363D02*
X0178544Y0030363D01*
X0178544Y0030961D02*
X0183944Y0030961D01*
X0183944Y0031560D02*
X0178544Y0031560D01*
X0178544Y0032158D02*
X0183944Y0032158D01*
X0183944Y0032757D02*
X0178544Y0032757D01*
X0178544Y0033355D02*
X0183944Y0033355D01*
X0183944Y0033954D02*
X0178544Y0033954D01*
X0178544Y0034552D02*
X0183944Y0034552D01*
X0183944Y0035151D02*
X0178544Y0035151D01*
X0178544Y0035749D02*
X0183944Y0035749D01*
X0183944Y0036348D02*
X0178544Y0036348D01*
X0178544Y0036946D02*
X0183944Y0036946D01*
X0183944Y0037545D02*
X0178544Y0037545D01*
X0178544Y0038143D02*
X0183944Y0038143D01*
X0183944Y0038742D02*
X0178544Y0038742D01*
X0178544Y0039340D02*
X0183944Y0039340D01*
X0183944Y0039939D02*
X0178544Y0039939D01*
X0178544Y0040537D02*
X0183944Y0040537D01*
X0183944Y0041136D02*
X0178544Y0041136D01*
X0178544Y0041734D02*
X0183944Y0041734D01*
X0183944Y0042333D02*
X0178544Y0042333D01*
X0178544Y0042932D02*
X0183944Y0042932D01*
X0183944Y0043530D02*
X0178544Y0043530D01*
X0178544Y0044129D02*
X0183944Y0044129D01*
X0183944Y0044727D02*
X0178544Y0044727D01*
X0178544Y0045326D02*
X0183944Y0045326D01*
X0183944Y0045924D02*
X0178544Y0045924D01*
X0178544Y0046523D02*
X0183944Y0046523D01*
X0183944Y0047121D02*
X0178544Y0047121D01*
X0178544Y0047720D02*
X0183944Y0047720D01*
X0183944Y0048318D02*
X0178544Y0048318D01*
X0178544Y0048917D02*
X0183944Y0048917D01*
X0183944Y0049515D02*
X0178544Y0049515D01*
X0178544Y0050114D02*
X0183944Y0050114D01*
X0183944Y0050712D02*
X0178544Y0050712D01*
X0178544Y0051311D02*
X0183944Y0051311D01*
X0183944Y0051909D02*
X0178544Y0051909D01*
X0178544Y0052508D02*
X0183944Y0052508D01*
X0183944Y0053106D02*
X0178544Y0053106D01*
X0178544Y0053705D02*
X0183944Y0053705D01*
X0183944Y0054303D02*
X0178544Y0054303D01*
X0178544Y0054902D02*
X0183944Y0054902D01*
X0183944Y0055500D02*
X0178544Y0055500D01*
X0178544Y0056099D02*
X0183944Y0056099D01*
X0183944Y0056697D02*
X0178544Y0056697D01*
X0178544Y0057296D02*
X0183944Y0057296D01*
X0183944Y0057894D02*
X0178544Y0057894D01*
X0178544Y0058493D02*
X0183944Y0058493D01*
X0183944Y0059091D02*
X0178544Y0059091D01*
X0178544Y0059690D02*
X0183944Y0059690D01*
X0183944Y0060288D02*
X0178544Y0060288D01*
X0178544Y0060887D02*
X0183944Y0060887D01*
X0183944Y0061485D02*
X0178544Y0061485D01*
X0178544Y0062084D02*
X0183944Y0062084D01*
X0183944Y0062682D02*
X0178544Y0062682D01*
X0178544Y0063281D02*
X0183944Y0063281D01*
X0183944Y0063879D02*
X0178544Y0063879D01*
X0178544Y0064478D02*
X0183944Y0064478D01*
X0183944Y0065076D02*
X0178544Y0065076D01*
X0178544Y0065675D02*
X0183944Y0065675D01*
X0183944Y0066273D02*
X0178544Y0066273D01*
X0178544Y0066872D02*
X0183944Y0066872D01*
X0183944Y0067470D02*
X0178612Y0067470D01*
X0179211Y0068069D02*
X0183944Y0068069D01*
X0183944Y0068668D02*
X0179809Y0068668D01*
X0180408Y0069266D02*
X0184213Y0069266D01*
X0184812Y0069865D02*
X0181006Y0069865D01*
X0181605Y0070463D02*
X0185410Y0070463D01*
X0186009Y0071062D02*
X0182203Y0071062D01*
X0182802Y0071660D02*
X0186608Y0071660D01*
X0187206Y0072259D02*
X0183400Y0072259D01*
X0183999Y0072857D02*
X0187805Y0072857D01*
X0188403Y0073456D02*
X0184597Y0073456D01*
X0185196Y0074054D02*
X0187582Y0074054D01*
X0187582Y0074653D02*
X0185794Y0074653D01*
X0186393Y0075251D02*
X0187582Y0075251D01*
X0187582Y0075850D02*
X0186991Y0075850D01*
X0190844Y0075943D02*
X0190844Y0074200D01*
X0185144Y0068500D01*
X0185144Y0020800D01*
X0184944Y0020600D01*
X0188271Y0023779D02*
X0190868Y0023779D01*
X0191045Y0024206D02*
X0190344Y0022515D01*
X0190344Y0020685D01*
X0191045Y0018994D01*
X0192339Y0017700D01*
X0193547Y0017200D01*
X0188050Y0017200D01*
X0188844Y0017994D01*
X0189544Y0019685D01*
X0189544Y0021515D01*
X0188844Y0023206D01*
X0187550Y0024500D01*
X0186344Y0024999D01*
X0186344Y0068003D01*
X0187582Y0069241D01*
X0187582Y0066909D01*
X0188109Y0066382D01*
X0189444Y0066382D01*
X0189444Y0066130D01*
X0189269Y0066058D01*
X0188487Y0065275D01*
X0188063Y0064253D01*
X0188063Y0063147D01*
X0188487Y0062125D01*
X0189269Y0061342D01*
X0190291Y0060919D01*
X0191398Y0060919D01*
X0192420Y0061342D01*
X0193202Y0062125D01*
X0193626Y0063147D01*
X0193626Y0064253D01*
X0193202Y0065275D01*
X0192420Y0066058D01*
X0192244Y0066130D01*
X0192244Y0066382D01*
X0193579Y0066382D01*
X0193644Y0066447D01*
X0193644Y0026041D01*
X0192339Y0025500D01*
X0191045Y0024206D01*
X0191217Y0024378D02*
X0187672Y0024378D01*
X0186400Y0024976D02*
X0191815Y0024976D01*
X0192520Y0025575D02*
X0186344Y0025575D01*
X0186344Y0026173D02*
X0193644Y0026173D01*
X0193644Y0026772D02*
X0186344Y0026772D01*
X0186344Y0027370D02*
X0193644Y0027370D01*
X0193644Y0027969D02*
X0186344Y0027969D01*
X0186344Y0028567D02*
X0193644Y0028567D01*
X0193644Y0029166D02*
X0186344Y0029166D01*
X0186344Y0029764D02*
X0193644Y0029764D01*
X0193644Y0030363D02*
X0186344Y0030363D01*
X0186344Y0030961D02*
X0193644Y0030961D01*
X0193644Y0031560D02*
X0186344Y0031560D01*
X0186344Y0032158D02*
X0193644Y0032158D01*
X0193644Y0032757D02*
X0186344Y0032757D01*
X0186344Y0033355D02*
X0193644Y0033355D01*
X0193644Y0033954D02*
X0186344Y0033954D01*
X0186344Y0034552D02*
X0193644Y0034552D01*
X0193644Y0035151D02*
X0186344Y0035151D01*
X0186344Y0035749D02*
X0193644Y0035749D01*
X0193644Y0036348D02*
X0186344Y0036348D01*
X0186344Y0036946D02*
X0193644Y0036946D01*
X0193644Y0037545D02*
X0186344Y0037545D01*
X0186344Y0038143D02*
X0193644Y0038143D01*
X0193644Y0038742D02*
X0186344Y0038742D01*
X0186344Y0039340D02*
X0193644Y0039340D01*
X0193644Y0039939D02*
X0186344Y0039939D01*
X0186344Y0040537D02*
X0193644Y0040537D01*
X0193644Y0041136D02*
X0186344Y0041136D01*
X0186344Y0041734D02*
X0193644Y0041734D01*
X0193644Y0042333D02*
X0186344Y0042333D01*
X0186344Y0042932D02*
X0193644Y0042932D01*
X0193644Y0043530D02*
X0186344Y0043530D01*
X0186344Y0044129D02*
X0193644Y0044129D01*
X0193644Y0044727D02*
X0186344Y0044727D01*
X0186344Y0045326D02*
X0193644Y0045326D01*
X0193644Y0045924D02*
X0186344Y0045924D01*
X0186344Y0046523D02*
X0193644Y0046523D01*
X0193644Y0047121D02*
X0186344Y0047121D01*
X0186344Y0047720D02*
X0193644Y0047720D01*
X0193644Y0048318D02*
X0186344Y0048318D01*
X0186344Y0048917D02*
X0193644Y0048917D01*
X0193644Y0049515D02*
X0186344Y0049515D01*
X0186344Y0050114D02*
X0193644Y0050114D01*
X0193644Y0050712D02*
X0186344Y0050712D01*
X0186344Y0051311D02*
X0193644Y0051311D01*
X0193644Y0051909D02*
X0186344Y0051909D01*
X0186344Y0052508D02*
X0193644Y0052508D01*
X0193644Y0053106D02*
X0186344Y0053106D01*
X0186344Y0053705D02*
X0193644Y0053705D01*
X0193644Y0054303D02*
X0186344Y0054303D01*
X0186344Y0054902D02*
X0193644Y0054902D01*
X0193644Y0055500D02*
X0186344Y0055500D01*
X0186344Y0056099D02*
X0193644Y0056099D01*
X0193644Y0056697D02*
X0186344Y0056697D01*
X0186344Y0057296D02*
X0193644Y0057296D01*
X0193644Y0057894D02*
X0186344Y0057894D01*
X0186344Y0058493D02*
X0193644Y0058493D01*
X0193644Y0059091D02*
X0186344Y0059091D01*
X0186344Y0059690D02*
X0193644Y0059690D01*
X0193644Y0060288D02*
X0186344Y0060288D01*
X0186344Y0060887D02*
X0193644Y0060887D01*
X0193644Y0061485D02*
X0192563Y0061485D01*
X0193161Y0062084D02*
X0193644Y0062084D01*
X0193644Y0062682D02*
X0193433Y0062682D01*
X0193626Y0063281D02*
X0193644Y0063281D01*
X0193626Y0063879D02*
X0193644Y0063879D01*
X0193644Y0064478D02*
X0193532Y0064478D01*
X0193644Y0065076D02*
X0193285Y0065076D01*
X0193644Y0065675D02*
X0192803Y0065675D01*
X0192244Y0066273D02*
X0193644Y0066273D01*
X0189444Y0066273D02*
X0186344Y0066273D01*
X0186344Y0065675D02*
X0188886Y0065675D01*
X0188404Y0065076D02*
X0186344Y0065076D01*
X0186344Y0064478D02*
X0188156Y0064478D01*
X0188063Y0063879D02*
X0186344Y0063879D01*
X0186344Y0063281D02*
X0188063Y0063281D01*
X0188256Y0062682D02*
X0186344Y0062682D01*
X0186344Y0062084D02*
X0188528Y0062084D01*
X0189126Y0061485D02*
X0186344Y0061485D01*
X0186344Y0066872D02*
X0187619Y0066872D01*
X0187582Y0067470D02*
X0186344Y0067470D01*
X0186411Y0068069D02*
X0187582Y0068069D01*
X0187582Y0068668D02*
X0187009Y0068668D01*
X0195044Y0062800D02*
X0195044Y0021700D01*
X0194944Y0021600D01*
X0191647Y0018393D02*
X0189009Y0018393D01*
X0189257Y0018991D02*
X0191048Y0018991D01*
X0190798Y0019590D02*
X0189505Y0019590D01*
X0189544Y0020188D02*
X0190550Y0020188D01*
X0190344Y0020787D02*
X0189544Y0020787D01*
X0189544Y0021385D02*
X0190344Y0021385D01*
X0190344Y0021984D02*
X0189350Y0021984D01*
X0189102Y0022582D02*
X0190372Y0022582D01*
X0190620Y0023181D02*
X0188855Y0023181D01*
X0188644Y0017794D02*
X0192245Y0017794D01*
X0170806Y0032158D02*
X0158344Y0032158D01*
X0158344Y0031560D02*
X0170207Y0031560D01*
X0169609Y0030961D02*
X0158344Y0030961D01*
X0158344Y0030363D02*
X0169010Y0030363D01*
X0168412Y0029764D02*
X0158344Y0029764D01*
X0158344Y0029166D02*
X0168344Y0029166D01*
X0168344Y0028567D02*
X0158344Y0028567D01*
X0158344Y0027969D02*
X0168131Y0027969D01*
X0167533Y0027370D02*
X0160756Y0027370D01*
X0161355Y0026772D02*
X0167294Y0026772D01*
X0169544Y0026200D02*
X0169544Y0029200D01*
X0175244Y0034900D01*
X0175244Y0079900D01*
X0189560Y0078418D02*
X0193644Y0082503D01*
X0193644Y0078353D01*
X0193579Y0078418D01*
X0189560Y0078418D01*
X0189984Y0078842D02*
X0193644Y0078842D01*
X0193644Y0079441D02*
X0190582Y0079441D01*
X0191181Y0080039D02*
X0193644Y0080039D01*
X0193644Y0080638D02*
X0191779Y0080638D01*
X0192378Y0081236D02*
X0193644Y0081236D01*
X0193644Y0081835D02*
X0192976Y0081835D01*
X0193575Y0082433D02*
X0193644Y0082433D01*
X0193244Y0083800D02*
X0177344Y0067900D01*
X0195044Y0062800D02*
X0196844Y0064600D01*
X0196844Y0087700D01*
X0197001Y0087900D01*
X0193244Y0083800D02*
X0193244Y0123700D01*
X0217844Y0148300D01*
X0222044Y0148300D01*
X0222144Y0148400D01*
X0215444Y0154600D02*
X0212444Y0151600D01*
X0198644Y0151600D01*
X0193844Y0156400D01*
X0190644Y0156400D01*
X0190544Y0156400D01*
X0185744Y0151600D01*
X0158744Y0151600D01*
X0153944Y0156400D01*
X0150644Y0156400D01*
X0152444Y0161200D02*
X0138044Y0161200D01*
X0128444Y0151600D01*
X0122444Y0151600D01*
X0122144Y0151900D01*
X0125444Y0150100D02*
X0140444Y0150100D01*
X0142544Y0148000D01*
X0142644Y0147928D01*
X0142844Y0148000D01*
X0144344Y0149500D01*
X0146444Y0149500D01*
X0151644Y0147928D02*
X0151844Y0147700D01*
X0155144Y0147700D01*
X0155744Y0147100D01*
X0156644Y0144700D02*
X0159644Y0147700D01*
X0159644Y0147928D01*
X0159644Y0148000D01*
X0161744Y0150100D01*
X0178844Y0150100D01*
X0180944Y0148000D01*
X0184544Y0148000D01*
X0184644Y0147928D01*
X0184844Y0148000D01*
X0187544Y0150700D01*
X0188144Y0150700D01*
X0189494Y0148868D02*
X0190394Y0148868D01*
X0190844Y0148270D02*
X0187178Y0148270D01*
X0187178Y0147671D02*
X0190844Y0147671D01*
X0190844Y0147072D02*
X0187178Y0147072D01*
X0187178Y0146474D02*
X0190844Y0146474D01*
X0190844Y0145875D02*
X0186739Y0145875D01*
X0190844Y0145277D02*
X0175718Y0145277D01*
X0175120Y0144678D02*
X0190844Y0144678D01*
X0190844Y0144080D02*
X0167921Y0144080D01*
X0167323Y0143481D02*
X0190844Y0143481D01*
X0190844Y0142883D02*
X0166724Y0142883D01*
X0165644Y0143500D02*
X0167744Y0145600D01*
X0174344Y0145600D01*
X0176444Y0147700D01*
X0176644Y0147928D01*
X0179178Y0147671D02*
X0179576Y0147671D01*
X0179178Y0147072D02*
X0180175Y0147072D01*
X0179178Y0146474D02*
X0182111Y0146474D01*
X0182550Y0145875D02*
X0178739Y0145875D01*
X0178651Y0141013D02*
X0174638Y0141013D01*
X0174111Y0140485D01*
X0174111Y0137259D01*
X0174638Y0136732D01*
X0175544Y0136732D01*
X0175544Y0133913D01*
X0175382Y0133751D01*
X0175382Y0131049D01*
X0177293Y0129138D01*
X0179996Y0129138D01*
X0181907Y0131049D01*
X0181907Y0133751D01*
X0179996Y0135662D01*
X0177944Y0135662D01*
X0177944Y0136732D01*
X0178651Y0136732D01*
X0179178Y0137259D01*
X0179178Y0140485D01*
X0178651Y0141013D01*
X0179175Y0140489D02*
X0182114Y0140489D01*
X0182111Y0139890D02*
X0179178Y0139890D01*
X0179178Y0139292D02*
X0182111Y0139292D01*
X0182111Y0138693D02*
X0179178Y0138693D01*
X0179178Y0138095D02*
X0182111Y0138095D01*
X0182111Y0137496D02*
X0179178Y0137496D01*
X0178817Y0136898D02*
X0182472Y0136898D01*
X0183644Y0136299D02*
X0177944Y0136299D01*
X0177944Y0135701D02*
X0183644Y0135701D01*
X0184045Y0135102D02*
X0180556Y0135102D01*
X0181154Y0134504D02*
X0184644Y0134504D01*
X0185242Y0133905D02*
X0181753Y0133905D01*
X0181907Y0133307D02*
X0185382Y0133307D01*
X0185382Y0132708D02*
X0181907Y0132708D01*
X0181907Y0132110D02*
X0185382Y0132110D01*
X0185382Y0131511D02*
X0181907Y0131511D01*
X0181771Y0130913D02*
X0185518Y0130913D01*
X0186117Y0130314D02*
X0181172Y0130314D01*
X0180574Y0129716D02*
X0186715Y0129716D01*
X0190574Y0129716D02*
X0190844Y0129716D01*
X0188644Y0132400D02*
X0188444Y0132400D01*
X0184844Y0136000D01*
X0184844Y0138700D01*
X0184644Y0138872D01*
X0187178Y0138693D02*
X0190844Y0138693D01*
X0190844Y0138095D02*
X0187178Y0138095D01*
X0187178Y0137496D02*
X0190844Y0137496D01*
X0190844Y0136898D02*
X0186817Y0136898D01*
X0186242Y0136299D02*
X0190844Y0136299D01*
X0190844Y0135701D02*
X0186841Y0135701D01*
X0190556Y0135102D02*
X0190844Y0135102D01*
X0190844Y0139292D02*
X0187178Y0139292D01*
X0187178Y0139890D02*
X0190844Y0139890D01*
X0190844Y0140489D02*
X0187175Y0140489D01*
X0190844Y0141087D02*
X0127714Y0141087D01*
X0127994Y0141686D02*
X0157977Y0141686D01*
X0157638Y0141013D02*
X0157111Y0140485D01*
X0157111Y0137259D01*
X0157638Y0136732D01*
X0158444Y0136732D01*
X0158444Y0135662D01*
X0157293Y0135662D01*
X0155382Y0133751D01*
X0155382Y0131049D01*
X0157293Y0129138D01*
X0159996Y0129138D01*
X0161907Y0131049D01*
X0161907Y0133751D01*
X0160844Y0134813D01*
X0160844Y0136732D01*
X0161651Y0136732D01*
X0162178Y0137259D01*
X0162178Y0140485D01*
X0161651Y0141013D01*
X0157638Y0141013D01*
X0157114Y0140489D02*
X0154175Y0140489D01*
X0154178Y0140485D02*
X0153651Y0141013D01*
X0149638Y0141013D01*
X0149111Y0140485D01*
X0149111Y0137259D01*
X0149638Y0136732D01*
X0150344Y0136732D01*
X0150344Y0135597D01*
X0150203Y0135455D01*
X0149996Y0135662D01*
X0147293Y0135662D01*
X0145382Y0133751D01*
X0145382Y0131049D01*
X0147293Y0129138D01*
X0149996Y0129138D01*
X0151907Y0131049D01*
X0151907Y0133751D01*
X0151900Y0133758D01*
X0152744Y0134603D01*
X0152744Y0136732D01*
X0153651Y0136732D01*
X0154178Y0137259D01*
X0154178Y0140485D01*
X0154178Y0139890D02*
X0157111Y0139890D01*
X0157111Y0139292D02*
X0154178Y0139292D01*
X0154178Y0138693D02*
X0157111Y0138693D01*
X0157111Y0138095D02*
X0154178Y0138095D01*
X0154178Y0137496D02*
X0157111Y0137496D01*
X0157472Y0136898D02*
X0153817Y0136898D01*
X0152744Y0136299D02*
X0158444Y0136299D01*
X0158444Y0135701D02*
X0152744Y0135701D01*
X0152744Y0135102D02*
X0156733Y0135102D01*
X0156135Y0134504D02*
X0152645Y0134504D01*
X0152047Y0133905D02*
X0155536Y0133905D01*
X0155382Y0133307D02*
X0151907Y0133307D01*
X0151907Y0132708D02*
X0155382Y0132708D01*
X0155382Y0132110D02*
X0151907Y0132110D01*
X0151907Y0131511D02*
X0155382Y0131511D01*
X0155518Y0130913D02*
X0151771Y0130913D01*
X0151172Y0130314D02*
X0156117Y0130314D01*
X0156715Y0129716D02*
X0150574Y0129716D01*
X0148844Y0132400D02*
X0148644Y0132400D01*
X0148844Y0132400D02*
X0151544Y0135100D01*
X0151544Y0138700D01*
X0151644Y0138872D01*
X0149111Y0138693D02*
X0145178Y0138693D01*
X0145178Y0138095D02*
X0149111Y0138095D01*
X0149111Y0137496D02*
X0145178Y0137496D01*
X0145178Y0137259D02*
X0145178Y0140485D01*
X0144651Y0141013D01*
X0140638Y0141013D01*
X0140111Y0140485D01*
X0140111Y0137259D01*
X0140638Y0136732D01*
X0141280Y0136732D01*
X0140103Y0135555D01*
X0139996Y0135662D01*
X0137293Y0135662D01*
X0135382Y0133751D01*
X0135382Y0131049D01*
X0137293Y0129138D01*
X0139996Y0129138D01*
X0141907Y0131049D01*
X0141907Y0133751D01*
X0141800Y0133858D01*
X0143042Y0135100D01*
X0143744Y0135803D01*
X0143744Y0136732D01*
X0144651Y0136732D01*
X0145178Y0137259D01*
X0144817Y0136898D02*
X0149472Y0136898D01*
X0150344Y0136299D02*
X0143744Y0136299D01*
X0143642Y0135701D02*
X0150344Y0135701D01*
X0146733Y0135102D02*
X0143044Y0135102D01*
X0143042Y0135100D02*
X0143042Y0135100D01*
X0142445Y0134504D02*
X0146135Y0134504D01*
X0145536Y0133905D02*
X0141847Y0133905D01*
X0141907Y0133307D02*
X0145382Y0133307D01*
X0145382Y0132708D02*
X0141907Y0132708D01*
X0141907Y0132110D02*
X0145382Y0132110D01*
X0145382Y0131511D02*
X0141907Y0131511D01*
X0141771Y0130913D02*
X0145518Y0130913D01*
X0146117Y0130314D02*
X0141172Y0130314D01*
X0140574Y0129716D02*
X0146715Y0129716D01*
X0142244Y0124900D02*
X0141044Y0124900D01*
X0139244Y0126700D01*
X0100244Y0126700D01*
X0085544Y0141400D01*
X0075044Y0141400D01*
X0072644Y0139000D01*
X0072644Y0138857D01*
X0071444Y0136300D02*
X0060944Y0136300D01*
X0051944Y0145300D01*
X0051944Y0161800D01*
X0056444Y0166300D01*
X0056644Y0166400D01*
X0056744Y0166600D01*
X0066644Y0166600D01*
X0066644Y0166400D01*
X0066644Y0166600D02*
X0076544Y0166600D01*
X0076644Y0166400D01*
X0076844Y0166600D01*
X0086444Y0166600D01*
X0086644Y0166400D01*
X0091244Y0166225D02*
X0092044Y0166225D01*
X0092044Y0166823D02*
X0091244Y0166823D01*
X0091244Y0167422D02*
X0092044Y0167422D01*
X0092044Y0168020D02*
X0091244Y0168020D01*
X0091244Y0168305D02*
X0088550Y0171000D01*
X0084739Y0171000D01*
X0082044Y0168305D01*
X0082044Y0167800D01*
X0081244Y0167800D01*
X0081244Y0168305D01*
X0078550Y0171000D01*
X0074739Y0171000D01*
X0072044Y0168305D01*
X0072044Y0167800D01*
X0071244Y0167800D01*
X0071244Y0168305D01*
X0068550Y0171000D01*
X0064739Y0171000D01*
X0062044Y0168305D01*
X0062044Y0167800D01*
X0061244Y0167800D01*
X0061244Y0168305D01*
X0058550Y0171000D01*
X0054739Y0171000D01*
X0052044Y0168305D01*
X0052044Y0164495D01*
X0052493Y0164046D01*
X0050744Y0162297D01*
X0050744Y0144803D01*
X0051447Y0144100D01*
X0053129Y0142418D01*
X0048909Y0142418D01*
X0048382Y0141891D01*
X0048382Y0141100D01*
X0047547Y0141100D01*
X0045907Y0139459D01*
X0045907Y0141891D01*
X0045379Y0142418D01*
X0040623Y0142418D01*
X0034091Y0148950D01*
X0034694Y0150405D01*
X0034694Y0152017D01*
X0034078Y0153505D01*
X0032938Y0154644D01*
X0031450Y0155261D01*
X0029839Y0155261D01*
X0028351Y0154644D01*
X0027211Y0153505D01*
X0026595Y0152017D01*
X0026595Y0150405D01*
X0027211Y0148917D01*
X0028351Y0147778D01*
X0029567Y0147274D01*
X0028351Y0146770D01*
X0027211Y0145631D01*
X0026595Y0144143D01*
X0026595Y0142531D01*
X0027211Y0141043D01*
X0028351Y0139904D01*
X0029567Y0139400D01*
X0028351Y0138896D01*
X0027211Y0137757D01*
X0026595Y0136269D01*
X0026595Y0134657D01*
X0027211Y0133169D01*
X0028351Y0132030D01*
X0029839Y0131413D01*
X0031450Y0131413D01*
X0032938Y0132030D01*
X0033971Y0133063D01*
X0033987Y0133063D01*
X0034317Y0132734D01*
X0034272Y0132626D01*
X0034052Y0132112D01*
X0034052Y0132094D01*
X0034044Y0132077D01*
X0034044Y0131518D01*
X0034038Y0130959D01*
X0034044Y0130942D01*
X0034044Y0118783D01*
X0031794Y0116533D01*
X0031794Y0112267D01*
X0034811Y0109250D01*
X0039078Y0109250D01*
X0042094Y0112267D01*
X0042094Y0116533D01*
X0039844Y0118783D01*
X0039844Y0130447D01*
X0039909Y0130382D01*
X0044344Y0130382D01*
X0043994Y0130032D01*
X0043994Y0128168D01*
X0045312Y0126850D01*
X0045897Y0126850D01*
X0050247Y0122500D01*
X0055047Y0122500D01*
X0060447Y0117100D01*
X0063354Y0117100D01*
X0063354Y0115430D01*
X0063473Y0115310D01*
X0063354Y0115191D01*
X0063354Y0113988D01*
X0056296Y0121046D01*
X0056296Y0121096D01*
X0055768Y0121624D01*
X0053054Y0121624D01*
X0052527Y0121096D01*
X0052527Y0119367D01*
X0052647Y0119247D01*
X0052599Y0119200D01*
X0052426Y0119200D01*
X0052276Y0119350D01*
X0050412Y0119350D01*
X0049094Y0118032D01*
X0049094Y0116168D01*
X0049438Y0115824D01*
X0048644Y0115030D01*
X0048644Y0108582D01*
X0048376Y0108850D01*
X0046512Y0108850D01*
X0045462Y0107800D01*
X0039147Y0107800D01*
X0031647Y0100300D01*
X0020847Y0100300D01*
X0018147Y0097600D01*
X0017444Y0096897D01*
X0017444Y0058842D01*
X0016821Y0059100D01*
X0015668Y0059100D01*
X0014602Y0058658D01*
X0013786Y0057843D01*
X0013344Y0056777D01*
X0013344Y0055623D01*
X0013786Y0054557D01*
X0014417Y0053926D01*
X0014382Y0053891D01*
X0014382Y0049996D01*
X0014909Y0049469D01*
X0015971Y0049469D01*
X0016099Y0049367D01*
X0016491Y0049256D01*
X0016868Y0049100D01*
X0017041Y0049100D01*
X0017409Y0048996D01*
X0018554Y0049130D01*
X0019161Y0049469D01*
X0020379Y0049469D01*
X0020907Y0049996D01*
X0020907Y0053891D01*
X0020379Y0054418D01*
X0020344Y0054418D01*
X0020344Y0054603D01*
X0021807Y0053140D01*
X0021807Y0050291D01*
X0022335Y0049764D01*
X0023144Y0049764D01*
X0023144Y0042503D01*
X0023247Y0042400D01*
X0021842Y0042400D01*
X0020907Y0043335D01*
X0020907Y0046804D01*
X0020379Y0047331D01*
X0014909Y0047331D01*
X0014382Y0046804D01*
X0014382Y0042909D01*
X0014909Y0042382D01*
X0018466Y0042382D01*
X0020847Y0040000D01*
X0037742Y0040000D01*
X0038444Y0040703D01*
X0040244Y0042503D01*
X0040244Y0045550D01*
X0040576Y0045550D01*
X0041112Y0046086D01*
X0041112Y0042160D01*
X0041609Y0040961D01*
X0042527Y0040043D01*
X0043726Y0039546D01*
X0045023Y0039546D01*
X0046222Y0040043D01*
X0047140Y0040961D01*
X0047637Y0042160D01*
X0047637Y0046411D01*
X0050561Y0043486D01*
X0050561Y0041845D01*
X0051088Y0041318D01*
X0051161Y0041318D01*
X0051161Y0040868D01*
X0051144Y0040868D01*
X0049832Y0040325D01*
X0048827Y0039320D01*
X0048283Y0038007D01*
X0048283Y0036586D01*
X0048598Y0035825D01*
X0043463Y0035825D01*
X0043287Y0035649D01*
X0043287Y0029747D01*
X0042527Y0029432D01*
X0041609Y0028515D01*
X0041112Y0027316D01*
X0041112Y0021294D01*
X0041609Y0020095D01*
X0042527Y0019177D01*
X0043287Y0018862D01*
X0043287Y0017200D01*
X0018383Y0017200D01*
X0020006Y0017872D01*
X0022172Y0020038D01*
X0023344Y0022868D01*
X0023344Y0025932D01*
X0022172Y0028762D01*
X0020006Y0030928D01*
X0017176Y0032100D01*
X0014113Y0032100D01*
X0011283Y0030928D01*
X0009117Y0028762D01*
X0008444Y0027139D01*
X0008444Y0173600D01*
X0012955Y0173600D01*
X0011117Y0171762D01*
X0009944Y0168932D01*
X0009944Y0165868D01*
X0011117Y0163038D01*
X0013283Y0160872D01*
X0016113Y0159700D01*
X0019176Y0159700D01*
X0022006Y0160872D01*
X0024172Y0163038D01*
X0025344Y0165868D01*
X0025344Y0168932D01*
X0024172Y0171762D01*
X0022334Y0173600D01*
X0193644Y0173600D01*
X0193644Y0173500D01*
X0137547Y0173500D01*
X0131244Y0167197D01*
X0131244Y0168305D01*
X0128550Y0171000D01*
X0124739Y0171000D01*
X0122044Y0168305D01*
X0122044Y0167800D01*
X0121244Y0167800D01*
X0121244Y0168305D01*
X0118550Y0171000D01*
X0114739Y0171000D01*
X0112044Y0168305D01*
X0112044Y0167800D01*
X0111244Y0167800D01*
X0111244Y0168305D01*
X0108550Y0171000D01*
X0104739Y0171000D01*
X0102044Y0168305D01*
X0102044Y0167800D01*
X0101244Y0167800D01*
X0101244Y0168305D01*
X0098550Y0171000D01*
X0094739Y0171000D01*
X0092044Y0168305D01*
X0092044Y0164495D01*
X0094739Y0161800D01*
X0098550Y0161800D01*
X0101244Y0164495D01*
X0101244Y0165400D01*
X0102044Y0165400D01*
X0102044Y0164495D01*
X0104739Y0161800D01*
X0108550Y0161800D01*
X0111244Y0164495D01*
X0111244Y0165400D01*
X0112044Y0165400D01*
X0112044Y0164495D01*
X0114139Y0162400D01*
X0111147Y0162400D01*
X0109149Y0160401D01*
X0108550Y0161000D01*
X0104739Y0161000D01*
X0102044Y0158305D01*
X0102044Y0154495D01*
X0104739Y0151800D01*
X0108550Y0151800D01*
X0111244Y0154495D01*
X0111244Y0158305D01*
X0110846Y0158704D01*
X0112142Y0160000D01*
X0113739Y0160000D01*
X0112044Y0158305D01*
X0112044Y0154495D01*
X0114739Y0151800D01*
X0117047Y0151800D01*
X0116247Y0151000D01*
X0093842Y0151000D01*
X0090796Y0154046D01*
X0091244Y0154495D01*
X0091244Y0156803D01*
X0092044Y0156003D01*
X0092044Y0154495D01*
X0094739Y0151800D01*
X0098550Y0151800D01*
X0101244Y0154495D01*
X0101244Y0158305D01*
X0098550Y0161000D01*
X0094739Y0161000D01*
X0092590Y0158851D01*
X0089744Y0161697D01*
X0089096Y0162346D01*
X0091244Y0164495D01*
X0091244Y0168305D01*
X0090931Y0168619D02*
X0092358Y0168619D01*
X0092957Y0169217D02*
X0090332Y0169217D01*
X0089734Y0169816D02*
X0093555Y0169816D01*
X0094154Y0170414D02*
X0089135Y0170414D01*
X0084154Y0170414D02*
X0079135Y0170414D01*
X0079734Y0169816D02*
X0083555Y0169816D01*
X0082957Y0169217D02*
X0080332Y0169217D01*
X0080931Y0168619D02*
X0082358Y0168619D01*
X0082044Y0168020D02*
X0081244Y0168020D01*
X0074154Y0170414D02*
X0069135Y0170414D01*
X0069734Y0169816D02*
X0073555Y0169816D01*
X0072957Y0169217D02*
X0070332Y0169217D01*
X0070931Y0168619D02*
X0072358Y0168619D01*
X0072044Y0168020D02*
X0071244Y0168020D01*
X0064154Y0170414D02*
X0059135Y0170414D01*
X0059734Y0169816D02*
X0063555Y0169816D01*
X0062957Y0169217D02*
X0060332Y0169217D01*
X0060931Y0168619D02*
X0062358Y0168619D01*
X0062044Y0168020D02*
X0061244Y0168020D01*
X0054154Y0170414D02*
X0024730Y0170414D01*
X0024978Y0169816D02*
X0053555Y0169816D01*
X0052957Y0169217D02*
X0025226Y0169217D01*
X0025344Y0168619D02*
X0052358Y0168619D01*
X0052044Y0168020D02*
X0025344Y0168020D01*
X0025344Y0167422D02*
X0052044Y0167422D01*
X0052044Y0166823D02*
X0025344Y0166823D01*
X0025344Y0166225D02*
X0052044Y0166225D01*
X0052044Y0165626D02*
X0025244Y0165626D01*
X0024996Y0165028D02*
X0052044Y0165028D01*
X0052110Y0164429D02*
X0024748Y0164429D01*
X0024500Y0163831D02*
X0052278Y0163831D01*
X0051680Y0163232D02*
X0024253Y0163232D01*
X0023768Y0162634D02*
X0051081Y0162634D01*
X0050744Y0162035D02*
X0023169Y0162035D01*
X0022571Y0161437D02*
X0050744Y0161437D01*
X0050744Y0160838D02*
X0021924Y0160838D01*
X0020479Y0160240D02*
X0050744Y0160240D01*
X0050744Y0159641D02*
X0008444Y0159641D01*
X0008444Y0159043D02*
X0050744Y0159043D01*
X0050744Y0158444D02*
X0008444Y0158444D01*
X0008444Y0157846D02*
X0050744Y0157846D01*
X0050744Y0157247D02*
X0008444Y0157247D01*
X0008444Y0156649D02*
X0050744Y0156649D01*
X0050744Y0156050D02*
X0008444Y0156050D01*
X0008444Y0155452D02*
X0050744Y0155452D01*
X0050744Y0154853D02*
X0032434Y0154853D01*
X0033328Y0154255D02*
X0050744Y0154255D01*
X0050744Y0153656D02*
X0033926Y0153656D01*
X0034263Y0153058D02*
X0050744Y0153058D01*
X0050744Y0152459D02*
X0034511Y0152459D01*
X0034694Y0151861D02*
X0050744Y0151861D01*
X0050744Y0151262D02*
X0034694Y0151262D01*
X0034694Y0150664D02*
X0050744Y0150664D01*
X0050744Y0150065D02*
X0034553Y0150065D01*
X0034305Y0149467D02*
X0050744Y0149467D01*
X0050744Y0148868D02*
X0034173Y0148868D01*
X0034772Y0148270D02*
X0050744Y0148270D01*
X0050744Y0147671D02*
X0035371Y0147671D01*
X0035969Y0147072D02*
X0050744Y0147072D01*
X0050744Y0146474D02*
X0036568Y0146474D01*
X0037166Y0145875D02*
X0050744Y0145875D01*
X0050744Y0145277D02*
X0037765Y0145277D01*
X0038363Y0144678D02*
X0050869Y0144678D01*
X0051467Y0144080D02*
X0038962Y0144080D01*
X0039560Y0143481D02*
X0052066Y0143481D01*
X0052665Y0142883D02*
X0040159Y0142883D01*
X0041144Y0140200D02*
X0030644Y0150700D01*
X0030644Y0151211D01*
X0026595Y0151262D02*
X0008444Y0151262D01*
X0008444Y0150664D02*
X0026595Y0150664D01*
X0026736Y0150065D02*
X0008444Y0150065D01*
X0008444Y0149467D02*
X0026984Y0149467D01*
X0027260Y0148868D02*
X0008444Y0148868D01*
X0008444Y0148270D02*
X0027859Y0148270D01*
X0028609Y0147671D02*
X0008444Y0147671D01*
X0008444Y0147072D02*
X0029081Y0147072D01*
X0028054Y0146474D02*
X0008444Y0146474D01*
X0008444Y0145875D02*
X0027456Y0145875D01*
X0027065Y0145277D02*
X0008444Y0145277D01*
X0008444Y0144678D02*
X0026817Y0144678D01*
X0026595Y0144080D02*
X0008444Y0144080D01*
X0008444Y0143481D02*
X0026595Y0143481D01*
X0026595Y0142883D02*
X0008444Y0142883D01*
X0008444Y0142284D02*
X0026697Y0142284D01*
X0026945Y0141686D02*
X0008444Y0141686D01*
X0008444Y0141087D02*
X0027193Y0141087D01*
X0027766Y0140489D02*
X0008444Y0140489D01*
X0008444Y0139890D02*
X0028383Y0139890D01*
X0029306Y0139292D02*
X0008444Y0139292D01*
X0008444Y0138693D02*
X0028148Y0138693D01*
X0027549Y0138095D02*
X0008444Y0138095D01*
X0008444Y0137496D02*
X0027103Y0137496D01*
X0026856Y0136898D02*
X0008444Y0136898D01*
X0008444Y0136299D02*
X0026608Y0136299D01*
X0026595Y0135701D02*
X0008444Y0135701D01*
X0008444Y0135102D02*
X0026595Y0135102D01*
X0026659Y0134504D02*
X0008444Y0134504D01*
X0008444Y0133905D02*
X0026906Y0133905D01*
X0027154Y0133307D02*
X0008444Y0133307D01*
X0008444Y0132708D02*
X0027672Y0132708D01*
X0028271Y0132110D02*
X0008444Y0132110D01*
X0008444Y0131511D02*
X0029603Y0131511D01*
X0031686Y0131511D02*
X0034044Y0131511D01*
X0034044Y0130913D02*
X0008444Y0130913D01*
X0008444Y0130314D02*
X0034044Y0130314D01*
X0034044Y0129716D02*
X0008444Y0129716D01*
X0008444Y0129117D02*
X0034044Y0129117D01*
X0034044Y0128519D02*
X0008444Y0128519D01*
X0008444Y0127920D02*
X0034044Y0127920D01*
X0034044Y0127322D02*
X0008444Y0127322D01*
X0008444Y0126723D02*
X0034044Y0126723D01*
X0034044Y0126125D02*
X0008444Y0126125D01*
X0008444Y0125526D02*
X0034044Y0125526D01*
X0034044Y0124928D02*
X0008444Y0124928D01*
X0008444Y0124329D02*
X0034044Y0124329D01*
X0034044Y0123731D02*
X0008444Y0123731D01*
X0008444Y0123132D02*
X0034044Y0123132D01*
X0034044Y0122534D02*
X0008444Y0122534D01*
X0008444Y0121935D02*
X0034044Y0121935D01*
X0034044Y0121337D02*
X0008444Y0121337D01*
X0008444Y0120738D02*
X0034044Y0120738D01*
X0034044Y0120139D02*
X0008444Y0120139D01*
X0008444Y0119541D02*
X0034044Y0119541D01*
X0034044Y0118942D02*
X0029993Y0118942D01*
X0030131Y0118804D02*
X0029604Y0119331D01*
X0014685Y0119331D01*
X0014158Y0118804D01*
X0014158Y0109397D01*
X0014685Y0108870D01*
X0029604Y0108870D01*
X0030131Y0109397D01*
X0030131Y0118804D01*
X0030131Y0118344D02*
X0033605Y0118344D01*
X0033007Y0117745D02*
X0030131Y0117745D01*
X0030131Y0117147D02*
X0032408Y0117147D01*
X0031810Y0116548D02*
X0030131Y0116548D01*
X0030131Y0115950D02*
X0031794Y0115950D01*
X0031794Y0115351D02*
X0030131Y0115351D01*
X0030131Y0114753D02*
X0031794Y0114753D01*
X0031794Y0114154D02*
X0030131Y0114154D01*
X0030131Y0113556D02*
X0031794Y0113556D01*
X0031794Y0112957D02*
X0030131Y0112957D01*
X0030131Y0112359D02*
X0031794Y0112359D01*
X0032301Y0111760D02*
X0030131Y0111760D01*
X0030131Y0111162D02*
X0032899Y0111162D01*
X0033498Y0110563D02*
X0030131Y0110563D01*
X0030131Y0109965D02*
X0034096Y0109965D01*
X0034695Y0109366D02*
X0030100Y0109366D01*
X0035327Y0103980D02*
X0008444Y0103980D01*
X0008444Y0104578D02*
X0035926Y0104578D01*
X0036524Y0105177D02*
X0008444Y0105177D01*
X0008444Y0105775D02*
X0037123Y0105775D01*
X0037721Y0106374D02*
X0008444Y0106374D01*
X0008444Y0106972D02*
X0038320Y0106972D01*
X0038918Y0107571D02*
X0008444Y0107571D01*
X0008444Y0108169D02*
X0045832Y0108169D01*
X0046430Y0108768D02*
X0008444Y0108768D01*
X0008444Y0109366D02*
X0014189Y0109366D01*
X0014158Y0109965D02*
X0008444Y0109965D01*
X0008444Y0110563D02*
X0014158Y0110563D01*
X0014158Y0111162D02*
X0008444Y0111162D01*
X0008444Y0111760D02*
X0014158Y0111760D01*
X0014158Y0112359D02*
X0008444Y0112359D01*
X0008444Y0112957D02*
X0014158Y0112957D01*
X0014158Y0113556D02*
X0008444Y0113556D01*
X0008444Y0114154D02*
X0014158Y0114154D01*
X0014158Y0114753D02*
X0008444Y0114753D01*
X0008444Y0115351D02*
X0014158Y0115351D01*
X0014158Y0115950D02*
X0008444Y0115950D01*
X0008444Y0116548D02*
X0014158Y0116548D01*
X0014158Y0117147D02*
X0008444Y0117147D01*
X0008444Y0117745D02*
X0014158Y0117745D01*
X0014158Y0118344D02*
X0008444Y0118344D01*
X0008444Y0118942D02*
X0014296Y0118942D01*
X0033018Y0132110D02*
X0034052Y0132110D01*
X0034306Y0132708D02*
X0033617Y0132708D01*
X0036644Y0137200D02*
X0030644Y0143200D01*
X0030644Y0143337D01*
X0036644Y0137200D02*
X0045344Y0137200D01*
X0048044Y0139900D01*
X0051644Y0139900D01*
X0051644Y0139943D01*
X0051644Y0139900D02*
X0055844Y0135700D01*
X0058094Y0135701D02*
X0059847Y0135701D01*
X0060445Y0135102D02*
X0058094Y0135102D01*
X0058094Y0134768D02*
X0058094Y0136632D01*
X0056776Y0137950D01*
X0055292Y0137950D01*
X0054907Y0138335D01*
X0054907Y0140641D01*
X0060447Y0135100D01*
X0070947Y0135100D01*
X0077447Y0128600D01*
X0054044Y0128600D01*
X0054044Y0130382D01*
X0054379Y0130382D01*
X0054907Y0130909D01*
X0054907Y0133456D01*
X0054912Y0133450D01*
X0056776Y0133450D01*
X0058094Y0134768D01*
X0057830Y0134504D02*
X0071544Y0134504D01*
X0072142Y0133905D02*
X0057232Y0133905D01*
X0054907Y0133307D02*
X0072741Y0133307D01*
X0073339Y0132708D02*
X0054907Y0132708D01*
X0054907Y0132110D02*
X0073938Y0132110D01*
X0074536Y0131511D02*
X0054907Y0131511D01*
X0054907Y0130913D02*
X0075135Y0130913D01*
X0075733Y0130314D02*
X0054044Y0130314D01*
X0054044Y0129716D02*
X0076332Y0129716D01*
X0076930Y0129117D02*
X0054044Y0129117D01*
X0047820Y0124928D02*
X0039844Y0124928D01*
X0039844Y0125526D02*
X0047221Y0125526D01*
X0046623Y0126125D02*
X0039844Y0126125D01*
X0039844Y0126723D02*
X0046024Y0126723D01*
X0044841Y0127322D02*
X0039844Y0127322D01*
X0039844Y0127920D02*
X0044242Y0127920D01*
X0043994Y0128519D02*
X0039844Y0128519D01*
X0039844Y0129117D02*
X0043994Y0129117D01*
X0043994Y0129716D02*
X0039844Y0129716D01*
X0039844Y0130314D02*
X0044277Y0130314D01*
X0046244Y0129100D02*
X0046244Y0128200D01*
X0050744Y0123700D01*
X0055544Y0123700D01*
X0060944Y0118300D01*
X0065144Y0118300D01*
X0065238Y0118263D01*
X0065444Y0116500D02*
X0065238Y0116294D01*
X0065238Y0115900D01*
X0071344Y0115900D01*
X0071344Y0122500D01*
X0071144Y0122500D01*
X0068894Y0122534D02*
X0058408Y0122534D01*
X0057809Y0123132D02*
X0068894Y0123132D01*
X0068894Y0123432D02*
X0068894Y0121568D01*
X0070144Y0120318D01*
X0070144Y0117100D01*
X0067122Y0117100D01*
X0067122Y0117159D01*
X0067003Y0117279D01*
X0067122Y0117398D01*
X0067122Y0119128D01*
X0066595Y0119655D01*
X0063881Y0119655D01*
X0063726Y0119500D01*
X0061442Y0119500D01*
X0057142Y0123800D01*
X0069263Y0123800D01*
X0068894Y0123432D01*
X0069193Y0123731D02*
X0057211Y0123731D01*
X0055612Y0121935D02*
X0039844Y0121935D01*
X0039844Y0121337D02*
X0052767Y0121337D01*
X0052527Y0120738D02*
X0039844Y0120738D01*
X0039844Y0120139D02*
X0052527Y0120139D01*
X0052527Y0119541D02*
X0039844Y0119541D01*
X0039844Y0118942D02*
X0050005Y0118942D01*
X0049406Y0118344D02*
X0040284Y0118344D01*
X0040882Y0117745D02*
X0049094Y0117745D01*
X0049094Y0117147D02*
X0041481Y0117147D01*
X0042079Y0116548D02*
X0049094Y0116548D01*
X0049313Y0115950D02*
X0042094Y0115950D01*
X0042094Y0115351D02*
X0048966Y0115351D01*
X0048644Y0114753D02*
X0042094Y0114753D01*
X0042094Y0114154D02*
X0048644Y0114154D01*
X0048644Y0113556D02*
X0042094Y0113556D01*
X0042094Y0112957D02*
X0048644Y0112957D01*
X0048644Y0112359D02*
X0042094Y0112359D01*
X0041588Y0111760D02*
X0048644Y0111760D01*
X0048644Y0111162D02*
X0040989Y0111162D01*
X0040391Y0110563D02*
X0048644Y0110563D01*
X0048644Y0109965D02*
X0039792Y0109965D01*
X0039194Y0109366D02*
X0048644Y0109366D01*
X0048644Y0108768D02*
X0048459Y0108768D01*
X0047444Y0106600D02*
X0039644Y0106600D01*
X0032144Y0099100D01*
X0021344Y0099100D01*
X0018644Y0096400D01*
X0018644Y0058000D01*
X0024344Y0052300D01*
X0024085Y0052042D01*
X0024344Y0052000D01*
X0024344Y0043000D01*
X0024944Y0042400D01*
X0033044Y0042400D01*
X0035444Y0044800D01*
X0035644Y0044857D01*
X0033044Y0047500D02*
X0038444Y0047500D01*
X0038894Y0047050D01*
X0039644Y0047800D01*
X0038894Y0047050D02*
X0039044Y0046900D01*
X0039044Y0043000D01*
X0037244Y0041200D01*
X0021344Y0041200D01*
X0017744Y0044800D01*
X0017644Y0044857D01*
X0014382Y0044727D02*
X0008444Y0044727D01*
X0008444Y0044129D02*
X0014382Y0044129D01*
X0014382Y0043530D02*
X0008444Y0043530D01*
X0008444Y0042932D02*
X0014382Y0042932D01*
X0014382Y0045326D02*
X0008444Y0045326D01*
X0008444Y0045924D02*
X0014382Y0045924D01*
X0014382Y0046523D02*
X0008444Y0046523D01*
X0008444Y0047121D02*
X0014699Y0047121D01*
X0014863Y0049515D02*
X0008444Y0049515D01*
X0008444Y0048917D02*
X0023144Y0048917D01*
X0023144Y0049515D02*
X0020426Y0049515D01*
X0020907Y0050114D02*
X0021985Y0050114D01*
X0021807Y0050712D02*
X0020907Y0050712D01*
X0020907Y0051311D02*
X0021807Y0051311D01*
X0021807Y0051909D02*
X0020907Y0051909D01*
X0020907Y0052508D02*
X0021807Y0052508D01*
X0021807Y0053106D02*
X0020907Y0053106D01*
X0020907Y0053705D02*
X0021243Y0053705D01*
X0020644Y0054303D02*
X0020494Y0054303D01*
X0022243Y0056099D02*
X0025944Y0056099D01*
X0025944Y0056697D02*
X0021644Y0056697D01*
X0021046Y0057296D02*
X0025944Y0057296D01*
X0025944Y0057894D02*
X0020447Y0057894D01*
X0019849Y0058493D02*
X0025944Y0058493D01*
X0025944Y0059091D02*
X0019844Y0059091D01*
X0019844Y0058497D02*
X0019844Y0076238D01*
X0023735Y0076238D01*
X0024098Y0076600D01*
X0025101Y0076600D01*
X0025101Y0068923D01*
X0025543Y0067857D01*
X0025894Y0067505D01*
X0025894Y0067367D01*
X0025918Y0067343D01*
X0025910Y0067236D01*
X0025944Y0067133D01*
X0025944Y0054420D01*
X0025906Y0054250D01*
X0025836Y0054320D01*
X0024022Y0054320D01*
X0019844Y0058497D01*
X0019844Y0059690D02*
X0025944Y0059690D01*
X0025944Y0060288D02*
X0019844Y0060288D01*
X0019844Y0060887D02*
X0025944Y0060887D01*
X0025944Y0061485D02*
X0019844Y0061485D01*
X0019844Y0062084D02*
X0025944Y0062084D01*
X0025944Y0062682D02*
X0019844Y0062682D01*
X0019844Y0063281D02*
X0025944Y0063281D01*
X0025944Y0063879D02*
X0019844Y0063879D01*
X0019844Y0064478D02*
X0025944Y0064478D01*
X0025944Y0065076D02*
X0019844Y0065076D01*
X0019844Y0065675D02*
X0025944Y0065675D01*
X0025944Y0066273D02*
X0019844Y0066273D01*
X0019844Y0066872D02*
X0025944Y0066872D01*
X0025894Y0067470D02*
X0019844Y0067470D01*
X0019844Y0068069D02*
X0025455Y0068069D01*
X0025207Y0068668D02*
X0019844Y0068668D01*
X0019844Y0069266D02*
X0025101Y0069266D01*
X0025101Y0069865D02*
X0019844Y0069865D01*
X0019844Y0070463D02*
X0025101Y0070463D01*
X0025101Y0071062D02*
X0019844Y0071062D01*
X0019844Y0071660D02*
X0025101Y0071660D01*
X0025101Y0072259D02*
X0019844Y0072259D01*
X0019844Y0072857D02*
X0025101Y0072857D01*
X0025101Y0073456D02*
X0019844Y0073456D01*
X0019844Y0074054D02*
X0025101Y0074054D01*
X0025101Y0074653D02*
X0019844Y0074653D01*
X0019844Y0075251D02*
X0025101Y0075251D01*
X0025101Y0075850D02*
X0019844Y0075850D01*
X0017444Y0075850D02*
X0015644Y0075850D01*
X0015644Y0076238D02*
X0015644Y0074662D01*
X0016349Y0074662D01*
X0016876Y0074135D01*
X0016876Y0068665D01*
X0016349Y0068138D01*
X0012454Y0068138D01*
X0011926Y0068665D01*
X0011926Y0074135D01*
X0012454Y0074662D01*
X0013244Y0074662D01*
X0013244Y0076238D01*
X0012754Y0076238D01*
X0012226Y0076765D01*
X0012226Y0082235D01*
X0012754Y0082762D01*
X0013244Y0082762D01*
X0013244Y0084400D01*
X0010272Y0084400D01*
X0009744Y0084927D01*
X0009744Y0094473D01*
X0010272Y0095000D01*
X0015817Y0095000D01*
X0016344Y0094473D01*
X0016344Y0084927D01*
X0015817Y0084400D01*
X0015644Y0084400D01*
X0015644Y0082762D01*
X0016649Y0082762D01*
X0017176Y0082235D01*
X0017176Y0076765D01*
X0016649Y0076238D01*
X0015644Y0076238D01*
X0015644Y0075251D02*
X0017444Y0075251D01*
X0017444Y0074653D02*
X0016358Y0074653D01*
X0016876Y0074054D02*
X0017444Y0074054D01*
X0017444Y0073456D02*
X0016876Y0073456D01*
X0016876Y0072857D02*
X0017444Y0072857D01*
X0017444Y0072259D02*
X0016876Y0072259D01*
X0016876Y0071660D02*
X0017444Y0071660D01*
X0017444Y0071062D02*
X0016876Y0071062D01*
X0016876Y0070463D02*
X0017444Y0070463D01*
X0017444Y0069865D02*
X0016876Y0069865D01*
X0016876Y0069266D02*
X0017444Y0069266D01*
X0017444Y0068668D02*
X0016876Y0068668D01*
X0017444Y0068069D02*
X0008444Y0068069D01*
X0008444Y0068668D02*
X0011926Y0068668D01*
X0011926Y0069266D02*
X0008444Y0069266D01*
X0008444Y0069865D02*
X0011926Y0069865D01*
X0011926Y0070463D02*
X0008444Y0070463D01*
X0008444Y0071062D02*
X0011926Y0071062D01*
X0011926Y0071660D02*
X0008444Y0071660D01*
X0008444Y0072259D02*
X0011926Y0072259D01*
X0011926Y0072857D02*
X0008444Y0072857D01*
X0008444Y0073456D02*
X0011926Y0073456D01*
X0011926Y0074054D02*
X0008444Y0074054D01*
X0008444Y0074653D02*
X0012444Y0074653D01*
X0013244Y0075251D02*
X0008444Y0075251D01*
X0008444Y0075850D02*
X0013244Y0075850D01*
X0012543Y0076448D02*
X0008444Y0076448D01*
X0008444Y0077047D02*
X0012226Y0077047D01*
X0012226Y0077645D02*
X0008444Y0077645D01*
X0008444Y0078244D02*
X0012226Y0078244D01*
X0012226Y0078842D02*
X0008444Y0078842D01*
X0008444Y0079441D02*
X0012226Y0079441D01*
X0012226Y0080039D02*
X0008444Y0080039D01*
X0008444Y0080638D02*
X0012226Y0080638D01*
X0012226Y0081236D02*
X0008444Y0081236D01*
X0008444Y0081835D02*
X0012226Y0081835D01*
X0012425Y0082433D02*
X0008444Y0082433D01*
X0008444Y0083032D02*
X0013244Y0083032D01*
X0013244Y0083630D02*
X0008444Y0083630D01*
X0008444Y0084229D02*
X0013244Y0084229D01*
X0015644Y0084229D02*
X0017444Y0084229D01*
X0017444Y0084827D02*
X0016245Y0084827D01*
X0016344Y0085426D02*
X0017444Y0085426D01*
X0017444Y0086024D02*
X0016344Y0086024D01*
X0016344Y0086623D02*
X0017444Y0086623D01*
X0017444Y0087221D02*
X0016344Y0087221D01*
X0016344Y0087820D02*
X0017444Y0087820D01*
X0017444Y0088418D02*
X0016344Y0088418D01*
X0016344Y0089017D02*
X0017444Y0089017D01*
X0017444Y0089615D02*
X0016344Y0089615D01*
X0016344Y0090214D02*
X0017444Y0090214D01*
X0017444Y0090812D02*
X0016344Y0090812D01*
X0016344Y0091411D02*
X0017444Y0091411D01*
X0017444Y0092009D02*
X0016344Y0092009D01*
X0016344Y0092608D02*
X0017444Y0092608D01*
X0017444Y0093206D02*
X0016344Y0093206D01*
X0016344Y0093805D02*
X0017444Y0093805D01*
X0017444Y0094403D02*
X0016344Y0094403D01*
X0017444Y0095002D02*
X0008444Y0095002D01*
X0008444Y0095601D02*
X0017444Y0095601D01*
X0017444Y0096199D02*
X0008444Y0096199D01*
X0008444Y0096798D02*
X0017444Y0096798D01*
X0017943Y0097396D02*
X0008444Y0097396D01*
X0008444Y0097995D02*
X0018542Y0097995D01*
X0019141Y0098593D02*
X0008444Y0098593D01*
X0008444Y0099192D02*
X0019739Y0099192D01*
X0020338Y0099790D02*
X0008444Y0099790D01*
X0008444Y0100389D02*
X0031736Y0100389D01*
X0032335Y0100987D02*
X0008444Y0100987D01*
X0008444Y0101586D02*
X0032933Y0101586D01*
X0033532Y0102184D02*
X0008444Y0102184D01*
X0008444Y0102783D02*
X0034130Y0102783D01*
X0034729Y0103381D02*
X0008444Y0103381D01*
X0008444Y0094403D02*
X0009744Y0094403D01*
X0009744Y0093805D02*
X0008444Y0093805D01*
X0008444Y0093206D02*
X0009744Y0093206D01*
X0009744Y0092608D02*
X0008444Y0092608D01*
X0008444Y0092009D02*
X0009744Y0092009D01*
X0009744Y0091411D02*
X0008444Y0091411D01*
X0008444Y0090812D02*
X0009744Y0090812D01*
X0009744Y0090214D02*
X0008444Y0090214D01*
X0008444Y0089615D02*
X0009744Y0089615D01*
X0009744Y0089017D02*
X0008444Y0089017D01*
X0008444Y0088418D02*
X0009744Y0088418D01*
X0009744Y0087820D02*
X0008444Y0087820D01*
X0008444Y0087221D02*
X0009744Y0087221D01*
X0009744Y0086623D02*
X0008444Y0086623D01*
X0008444Y0086024D02*
X0009744Y0086024D01*
X0009744Y0085426D02*
X0008444Y0085426D01*
X0008444Y0084827D02*
X0009844Y0084827D01*
X0014444Y0088300D02*
X0013044Y0089700D01*
X0014444Y0088300D02*
X0014444Y0079600D01*
X0014701Y0079500D01*
X0014444Y0079300D01*
X0014444Y0071500D01*
X0014401Y0071400D01*
X0017444Y0067470D02*
X0008444Y0067470D01*
X0008444Y0066872D02*
X0017444Y0066872D01*
X0017444Y0066273D02*
X0008444Y0066273D01*
X0008444Y0065675D02*
X0017444Y0065675D01*
X0017444Y0065076D02*
X0008444Y0065076D01*
X0008444Y0064478D02*
X0017444Y0064478D01*
X0017444Y0063879D02*
X0008444Y0063879D01*
X0008444Y0063281D02*
X0017444Y0063281D01*
X0017444Y0062682D02*
X0008444Y0062682D01*
X0008444Y0062084D02*
X0017444Y0062084D01*
X0017444Y0061485D02*
X0008444Y0061485D01*
X0008444Y0060887D02*
X0017444Y0060887D01*
X0017444Y0060288D02*
X0008444Y0060288D01*
X0008444Y0059690D02*
X0017444Y0059690D01*
X0017444Y0059091D02*
X0016842Y0059091D01*
X0015647Y0059091D02*
X0008444Y0059091D01*
X0008444Y0058493D02*
X0014436Y0058493D01*
X0013838Y0057894D02*
X0008444Y0057894D01*
X0008444Y0057296D02*
X0013559Y0057296D01*
X0013344Y0056697D02*
X0008444Y0056697D01*
X0008444Y0056099D02*
X0013344Y0056099D01*
X0013395Y0055500D02*
X0008444Y0055500D01*
X0008444Y0054902D02*
X0013643Y0054902D01*
X0014040Y0054303D02*
X0008444Y0054303D01*
X0008444Y0053705D02*
X0014382Y0053705D01*
X0014382Y0053106D02*
X0008444Y0053106D01*
X0008444Y0052508D02*
X0014382Y0052508D01*
X0014382Y0051909D02*
X0008444Y0051909D01*
X0008444Y0051311D02*
X0014382Y0051311D01*
X0014382Y0050712D02*
X0008444Y0050712D01*
X0008444Y0050114D02*
X0014382Y0050114D01*
X0008444Y0048318D02*
X0023144Y0048318D01*
X0023144Y0047720D02*
X0008444Y0047720D01*
X0008444Y0042333D02*
X0018514Y0042333D01*
X0019113Y0041734D02*
X0008444Y0041734D01*
X0008444Y0041136D02*
X0019711Y0041136D01*
X0020310Y0040537D02*
X0008444Y0040537D01*
X0008444Y0039939D02*
X0042778Y0039939D01*
X0042032Y0040537D02*
X0038279Y0040537D01*
X0038878Y0041136D02*
X0041536Y0041136D01*
X0041288Y0041734D02*
X0039476Y0041734D01*
X0040075Y0042333D02*
X0041112Y0042333D01*
X0041112Y0042932D02*
X0040244Y0042932D01*
X0040244Y0043530D02*
X0041112Y0043530D01*
X0041112Y0044129D02*
X0040244Y0044129D01*
X0040244Y0044727D02*
X0041112Y0044727D01*
X0041112Y0045326D02*
X0040244Y0045326D01*
X0040951Y0045924D02*
X0041112Y0045924D01*
X0041502Y0049124D02*
X0040576Y0050050D01*
X0038907Y0050050D01*
X0038907Y0053891D01*
X0038379Y0054418D01*
X0037190Y0054418D01*
X0036990Y0054576D01*
X0036398Y0054744D01*
X0036021Y0054900D01*
X0035848Y0054900D01*
X0035680Y0054947D01*
X0035275Y0054900D01*
X0031744Y0054900D01*
X0031744Y0064350D01*
X0033178Y0064350D01*
X0036194Y0067367D01*
X0036194Y0071633D01*
X0033178Y0074650D01*
X0030901Y0074650D01*
X0030901Y0080077D01*
X0030476Y0081103D01*
X0030476Y0082235D01*
X0029949Y0082762D01*
X0026054Y0082762D01*
X0025691Y0082400D01*
X0025044Y0082400D01*
X0025044Y0084527D01*
X0025444Y0084927D01*
X0025444Y0094200D01*
X0027944Y0094200D01*
X0027944Y0084927D01*
X0028472Y0084400D01*
X0034017Y0084400D01*
X0034544Y0084927D01*
X0034544Y0086800D01*
X0034942Y0086800D01*
X0039782Y0078570D01*
X0039782Y0076796D01*
X0040309Y0076269D01*
X0041418Y0076269D01*
X0041829Y0075857D01*
X0042645Y0075041D01*
X0043711Y0074600D01*
X0059143Y0074600D01*
X0064640Y0069104D01*
X0061313Y0065776D01*
X0060946Y0065700D01*
X0056916Y0065700D01*
X0056412Y0065725D01*
X0056342Y0065700D01*
X0056268Y0065700D01*
X0055801Y0065507D01*
X0055326Y0065337D01*
X0055271Y0065287D01*
X0055202Y0065258D01*
X0054845Y0064902D01*
X0054471Y0064563D01*
X0054439Y0064495D01*
X0054386Y0064443D01*
X0054193Y0063976D01*
X0053539Y0062595D01*
X0050893Y0059950D01*
X0050319Y0059950D01*
X0048885Y0059356D01*
X0048729Y0059200D01*
X0047347Y0059200D01*
X0046544Y0058397D01*
X0046544Y0049976D01*
X0046222Y0050299D01*
X0045023Y0050795D01*
X0043726Y0050795D01*
X0042527Y0050299D01*
X0041609Y0049381D01*
X0041502Y0049124D01*
X0041743Y0049515D02*
X0041111Y0049515D01*
X0042342Y0050114D02*
X0038907Y0050114D01*
X0038907Y0050712D02*
X0043525Y0050712D01*
X0045224Y0050712D02*
X0046544Y0050712D01*
X0046544Y0050114D02*
X0046407Y0050114D01*
X0046544Y0051311D02*
X0038907Y0051311D01*
X0038907Y0051909D02*
X0046544Y0051909D01*
X0046544Y0052508D02*
X0038907Y0052508D01*
X0038907Y0053106D02*
X0046544Y0053106D01*
X0046544Y0053705D02*
X0038907Y0053705D01*
X0038494Y0054303D02*
X0046544Y0054303D01*
X0046544Y0054902D02*
X0035841Y0054902D01*
X0035290Y0054902D02*
X0031744Y0054902D01*
X0031744Y0055500D02*
X0046544Y0055500D01*
X0046544Y0056099D02*
X0031744Y0056099D01*
X0031744Y0056697D02*
X0046544Y0056697D01*
X0046544Y0057296D02*
X0031744Y0057296D01*
X0031744Y0057894D02*
X0046544Y0057894D01*
X0046640Y0058493D02*
X0031744Y0058493D01*
X0031744Y0059091D02*
X0047239Y0059091D01*
X0047844Y0058000D02*
X0054044Y0058000D01*
X0053144Y0057100D01*
X0053144Y0042800D01*
X0053044Y0042700D01*
X0047744Y0048000D01*
X0047744Y0057900D01*
X0047844Y0058000D01*
X0047744Y0057894D02*
X0053939Y0057894D01*
X0053340Y0057296D02*
X0047744Y0057296D01*
X0047744Y0056697D02*
X0053144Y0056697D01*
X0053144Y0056099D02*
X0047744Y0056099D01*
X0047744Y0055500D02*
X0053144Y0055500D01*
X0053144Y0054902D02*
X0047744Y0054902D01*
X0047744Y0054303D02*
X0053144Y0054303D01*
X0053144Y0053705D02*
X0047744Y0053705D01*
X0047744Y0053106D02*
X0053144Y0053106D01*
X0053144Y0052508D02*
X0047744Y0052508D01*
X0047744Y0051909D02*
X0053144Y0051909D01*
X0053144Y0051311D02*
X0047744Y0051311D01*
X0047744Y0050712D02*
X0053144Y0050712D01*
X0053144Y0050114D02*
X0047744Y0050114D01*
X0047744Y0049515D02*
X0053144Y0049515D01*
X0053144Y0048917D02*
X0047744Y0048917D01*
X0047744Y0048318D02*
X0053144Y0048318D01*
X0053144Y0047720D02*
X0048025Y0047720D01*
X0048623Y0047121D02*
X0053144Y0047121D01*
X0053144Y0046523D02*
X0049222Y0046523D01*
X0049820Y0045924D02*
X0053144Y0045924D01*
X0053144Y0045326D02*
X0050419Y0045326D01*
X0051017Y0044727D02*
X0053144Y0044727D01*
X0053144Y0044129D02*
X0051616Y0044129D01*
X0052214Y0043530D02*
X0053144Y0043530D01*
X0053144Y0042932D02*
X0052813Y0042932D01*
X0050561Y0042932D02*
X0047637Y0042932D01*
X0047637Y0043530D02*
X0050517Y0043530D01*
X0049919Y0044129D02*
X0047637Y0044129D01*
X0047637Y0044727D02*
X0049320Y0044727D01*
X0048722Y0045326D02*
X0047637Y0045326D01*
X0047637Y0045924D02*
X0048123Y0045924D01*
X0047637Y0042333D02*
X0050561Y0042333D01*
X0050672Y0041734D02*
X0047460Y0041734D01*
X0047213Y0041136D02*
X0051161Y0041136D01*
X0050345Y0040537D02*
X0046717Y0040537D01*
X0045971Y0039939D02*
X0049446Y0039939D01*
X0048847Y0039340D02*
X0008444Y0039340D01*
X0008444Y0038742D02*
X0048587Y0038742D01*
X0048339Y0038143D02*
X0008444Y0038143D01*
X0008444Y0037545D02*
X0048283Y0037545D01*
X0048283Y0036946D02*
X0008444Y0036946D01*
X0008444Y0036348D02*
X0048382Y0036348D01*
X0043387Y0035749D02*
X0008444Y0035749D01*
X0008444Y0035151D02*
X0043287Y0035151D01*
X0043287Y0034552D02*
X0008444Y0034552D01*
X0008444Y0033954D02*
X0043287Y0033954D01*
X0043287Y0033355D02*
X0008444Y0033355D01*
X0008444Y0032757D02*
X0043287Y0032757D01*
X0043287Y0032158D02*
X0008444Y0032158D01*
X0008444Y0031560D02*
X0012809Y0031560D01*
X0011364Y0030961D02*
X0008444Y0030961D01*
X0008444Y0030363D02*
X0010718Y0030363D01*
X0010119Y0029764D02*
X0008444Y0029764D01*
X0008444Y0029166D02*
X0009521Y0029166D01*
X0009036Y0028567D02*
X0008444Y0028567D01*
X0008444Y0027969D02*
X0008788Y0027969D01*
X0008540Y0027370D02*
X0008444Y0027370D01*
X0018480Y0031560D02*
X0043287Y0031560D01*
X0043287Y0030961D02*
X0019925Y0030961D01*
X0020571Y0030363D02*
X0043287Y0030363D01*
X0043287Y0029764D02*
X0021170Y0029764D01*
X0021768Y0029166D02*
X0042260Y0029166D01*
X0041661Y0028567D02*
X0022253Y0028567D01*
X0022501Y0027969D02*
X0041383Y0027969D01*
X0041135Y0027370D02*
X0022749Y0027370D01*
X0022997Y0026772D02*
X0041112Y0026772D01*
X0041112Y0026173D02*
X0023244Y0026173D01*
X0023344Y0025575D02*
X0041112Y0025575D01*
X0041112Y0024976D02*
X0023344Y0024976D01*
X0023344Y0024378D02*
X0041112Y0024378D01*
X0041112Y0023779D02*
X0023344Y0023779D01*
X0023344Y0023181D02*
X0041112Y0023181D01*
X0041112Y0022582D02*
X0023226Y0022582D01*
X0022978Y0021984D02*
X0041112Y0021984D01*
X0041112Y0021385D02*
X0022730Y0021385D01*
X0022482Y0020787D02*
X0041322Y0020787D01*
X0041570Y0020188D02*
X0022234Y0020188D01*
X0021723Y0019590D02*
X0042114Y0019590D01*
X0042975Y0018991D02*
X0021125Y0018991D01*
X0020526Y0018393D02*
X0043287Y0018393D01*
X0043287Y0017794D02*
X0019817Y0017794D01*
X0021310Y0042932D02*
X0023144Y0042932D01*
X0023144Y0043530D02*
X0020907Y0043530D01*
X0020907Y0044129D02*
X0023144Y0044129D01*
X0023144Y0044727D02*
X0020907Y0044727D01*
X0020907Y0045326D02*
X0023144Y0045326D01*
X0023144Y0045924D02*
X0020907Y0045924D01*
X0020907Y0046523D02*
X0023144Y0046523D01*
X0023144Y0047121D02*
X0020590Y0047121D01*
X0026644Y0044758D02*
X0026744Y0044800D01*
X0030344Y0044800D01*
X0033044Y0047500D01*
X0025918Y0054303D02*
X0025853Y0054303D01*
X0025944Y0054902D02*
X0023440Y0054902D01*
X0022841Y0055500D02*
X0025944Y0055500D01*
X0031744Y0059690D02*
X0049691Y0059690D01*
X0051232Y0060288D02*
X0031744Y0060288D01*
X0031744Y0060887D02*
X0051830Y0060887D01*
X0052429Y0061485D02*
X0031744Y0061485D01*
X0031744Y0062084D02*
X0053027Y0062084D01*
X0053580Y0062682D02*
X0031744Y0062682D01*
X0031744Y0063281D02*
X0053863Y0063281D01*
X0054147Y0063879D02*
X0031744Y0063879D01*
X0033306Y0064478D02*
X0054421Y0064478D01*
X0055020Y0065076D02*
X0033904Y0065076D01*
X0034503Y0065675D02*
X0056207Y0065675D01*
X0061810Y0066273D02*
X0035101Y0066273D01*
X0035700Y0066872D02*
X0062408Y0066872D01*
X0063007Y0067470D02*
X0036194Y0067470D01*
X0036194Y0068069D02*
X0063605Y0068069D01*
X0064204Y0068668D02*
X0036194Y0068668D01*
X0036194Y0069266D02*
X0064477Y0069266D01*
X0063879Y0069865D02*
X0036194Y0069865D01*
X0036194Y0070463D02*
X0063280Y0070463D01*
X0062682Y0071062D02*
X0036194Y0071062D01*
X0036168Y0071660D02*
X0062083Y0071660D01*
X0061485Y0072259D02*
X0035569Y0072259D01*
X0034971Y0072857D02*
X0060886Y0072857D01*
X0060288Y0073456D02*
X0034372Y0073456D01*
X0033774Y0074054D02*
X0059689Y0074054D01*
X0064301Y0077645D02*
X0095951Y0077645D01*
X0095951Y0077047D02*
X0064899Y0077047D01*
X0065498Y0076448D02*
X0095951Y0076448D01*
X0095951Y0075850D02*
X0066096Y0075850D01*
X0066695Y0075251D02*
X0095951Y0075251D01*
X0095951Y0074653D02*
X0067293Y0074653D01*
X0067892Y0074054D02*
X0095951Y0074054D01*
X0095951Y0073500D02*
X0069768Y0073500D01*
X0068833Y0073113D01*
X0062803Y0079143D01*
X0061987Y0079958D01*
X0060921Y0080400D01*
X0046307Y0080400D01*
X0046307Y0080691D01*
X0045779Y0081218D01*
X0044953Y0081218D01*
X0039203Y0090996D01*
X0039060Y0091343D01*
X0038913Y0091489D01*
X0038809Y0091667D01*
X0038509Y0091893D01*
X0038244Y0092158D01*
X0038053Y0092238D01*
X0037888Y0092362D01*
X0037525Y0092456D01*
X0037178Y0092600D01*
X0036971Y0092600D01*
X0036771Y0092652D01*
X0036399Y0092600D01*
X0034544Y0092600D01*
X0034544Y0094200D01*
X0047882Y0094200D01*
X0047882Y0090396D01*
X0048409Y0089869D01*
X0053879Y0089869D01*
X0053944Y0089934D01*
X0054009Y0089869D01*
X0059479Y0089869D01*
X0060007Y0090396D01*
X0060007Y0091156D01*
X0060312Y0090850D01*
X0062176Y0090850D01*
X0063494Y0092168D01*
X0063494Y0094032D01*
X0062176Y0095350D01*
X0061704Y0095350D01*
X0061704Y0098064D01*
X0061880Y0098241D01*
X0065212Y0098241D01*
X0065739Y0098768D01*
X0065739Y0098897D01*
X0066344Y0099503D01*
X0066944Y0100103D01*
X0066944Y0110397D01*
X0066242Y0111100D01*
X0064408Y0112934D01*
X0064650Y0112934D01*
X0064984Y0112600D01*
X0075950Y0112600D01*
X0076585Y0111965D01*
X0077467Y0111600D01*
X0088443Y0111600D01*
X0088840Y0111204D01*
X0088562Y0110926D01*
X0088044Y0109676D01*
X0088044Y0108324D01*
X0088344Y0107599D01*
X0088344Y0098424D01*
X0088844Y0097217D01*
X0088844Y0086148D01*
X0089286Y0085082D01*
X0090102Y0084267D01*
X0091168Y0083825D01*
X0095951Y0083825D01*
X0095951Y0073500D01*
X0095951Y0078244D02*
X0063702Y0078244D01*
X0063103Y0078842D02*
X0095951Y0078842D01*
X0095951Y0079441D02*
X0062505Y0079441D01*
X0062803Y0079143D02*
X0062803Y0079143D01*
X0061792Y0080039D02*
X0095951Y0080039D01*
X0095951Y0080638D02*
X0046307Y0080638D01*
X0044943Y0081236D02*
X0095951Y0081236D01*
X0095951Y0081835D02*
X0044591Y0081835D01*
X0044239Y0082433D02*
X0095951Y0082433D01*
X0095951Y0083032D02*
X0043887Y0083032D01*
X0043535Y0083630D02*
X0095951Y0083630D01*
X0090193Y0084229D02*
X0043183Y0084229D01*
X0042831Y0084827D02*
X0089541Y0084827D01*
X0089144Y0085426D02*
X0042479Y0085426D01*
X0042127Y0086024D02*
X0088896Y0086024D01*
X0088844Y0086623D02*
X0041775Y0086623D01*
X0041423Y0087221D02*
X0088844Y0087221D01*
X0088844Y0087820D02*
X0041071Y0087820D01*
X0040719Y0088418D02*
X0088844Y0088418D01*
X0088844Y0089017D02*
X0040367Y0089017D01*
X0040015Y0089615D02*
X0088844Y0089615D01*
X0088844Y0090214D02*
X0059825Y0090214D01*
X0060007Y0090812D02*
X0088844Y0090812D01*
X0088844Y0091411D02*
X0062737Y0091411D01*
X0063336Y0092009D02*
X0088844Y0092009D01*
X0088844Y0092608D02*
X0063494Y0092608D01*
X0063494Y0093206D02*
X0088844Y0093206D01*
X0088844Y0093805D02*
X0063494Y0093805D01*
X0063123Y0094403D02*
X0088844Y0094403D01*
X0088844Y0095002D02*
X0062524Y0095002D01*
X0062786Y0095164D02*
X0062786Y0098235D01*
X0064676Y0098235D01*
X0064676Y0095164D01*
X0062786Y0095164D01*
X0062786Y0095601D02*
X0064676Y0095601D01*
X0064676Y0096199D02*
X0062786Y0096199D01*
X0062786Y0096798D02*
X0064676Y0096798D01*
X0064676Y0097396D02*
X0062786Y0097396D01*
X0062786Y0097995D02*
X0064676Y0097995D01*
X0065564Y0098593D02*
X0088344Y0098593D01*
X0088344Y0099192D02*
X0066033Y0099192D01*
X0066632Y0099790D02*
X0088344Y0099790D01*
X0088344Y0100389D02*
X0066944Y0100389D01*
X0066944Y0100987D02*
X0088344Y0100987D01*
X0088344Y0101586D02*
X0066944Y0101586D01*
X0066944Y0102184D02*
X0088344Y0102184D01*
X0088344Y0102783D02*
X0066944Y0102783D01*
X0066944Y0103381D02*
X0088344Y0103381D01*
X0088344Y0103980D02*
X0066944Y0103980D01*
X0066944Y0104578D02*
X0088344Y0104578D01*
X0088344Y0105177D02*
X0066944Y0105177D01*
X0066944Y0105775D02*
X0088344Y0105775D01*
X0088344Y0106374D02*
X0066944Y0106374D01*
X0066944Y0106972D02*
X0088344Y0106972D01*
X0088344Y0107571D02*
X0066944Y0107571D01*
X0066944Y0108169D02*
X0088108Y0108169D01*
X0088044Y0108768D02*
X0066944Y0108768D01*
X0066944Y0109366D02*
X0088044Y0109366D01*
X0088164Y0109965D02*
X0066944Y0109965D01*
X0066778Y0110563D02*
X0088412Y0110563D01*
X0088798Y0111162D02*
X0066180Y0111162D01*
X0065581Y0111760D02*
X0077080Y0111760D01*
X0076192Y0112359D02*
X0064983Y0112359D01*
X0063384Y0110563D02*
X0052044Y0110563D01*
X0052044Y0109965D02*
X0063983Y0109965D01*
X0064544Y0109403D02*
X0064544Y0105159D01*
X0063672Y0105159D01*
X0063672Y0108667D01*
X0063145Y0109194D01*
X0061218Y0109194D01*
X0060691Y0108667D01*
X0060691Y0104772D01*
X0060810Y0104653D01*
X0060789Y0104632D01*
X0060789Y0102705D01*
X0061317Y0102178D01*
X0064544Y0102178D01*
X0064544Y0101222D01*
X0063446Y0101222D01*
X0063212Y0101292D01*
X0063082Y0101222D01*
X0061817Y0101222D01*
X0061794Y0101245D01*
X0061589Y0101450D01*
X0059994Y0101450D01*
X0059994Y0105145D01*
X0059789Y0105350D01*
X0059735Y0105350D01*
X0059735Y0108667D01*
X0059208Y0109194D01*
X0057281Y0109194D01*
X0056754Y0108667D01*
X0056754Y0105250D01*
X0056112Y0105250D01*
X0055798Y0104935D01*
X0055798Y0108667D01*
X0055271Y0109194D01*
X0053344Y0109194D01*
X0052817Y0108667D01*
X0052817Y0105318D01*
X0052044Y0105318D01*
X0052044Y0112626D01*
X0055116Y0112626D01*
X0055423Y0112934D01*
X0055768Y0112934D01*
X0056296Y0113461D01*
X0056296Y0115191D01*
X0056176Y0115310D01*
X0056296Y0115430D01*
X0056296Y0117159D01*
X0056176Y0117279D01*
X0056296Y0117398D01*
X0056296Y0117652D01*
X0064544Y0109403D01*
X0064544Y0109366D02*
X0052044Y0109366D01*
X0052044Y0108768D02*
X0052917Y0108768D01*
X0052817Y0108169D02*
X0052044Y0108169D01*
X0052044Y0107571D02*
X0052817Y0107571D01*
X0052817Y0106972D02*
X0052044Y0106972D01*
X0052044Y0106374D02*
X0052817Y0106374D01*
X0052817Y0105775D02*
X0052044Y0105775D01*
X0055798Y0105775D02*
X0056754Y0105775D01*
X0056754Y0106374D02*
X0055798Y0106374D01*
X0055798Y0106972D02*
X0056754Y0106972D01*
X0056754Y0107571D02*
X0055798Y0107571D01*
X0055798Y0108169D02*
X0056754Y0108169D01*
X0056854Y0108768D02*
X0055698Y0108768D01*
X0058244Y0106720D02*
X0058244Y0104200D01*
X0057044Y0103000D01*
X0056039Y0105177D02*
X0055798Y0105177D01*
X0059735Y0105775D02*
X0060691Y0105775D01*
X0060691Y0105177D02*
X0059963Y0105177D01*
X0059994Y0104578D02*
X0060789Y0104578D01*
X0060789Y0103980D02*
X0059994Y0103980D01*
X0059994Y0103381D02*
X0060789Y0103381D01*
X0060789Y0102783D02*
X0059994Y0102783D01*
X0059994Y0102184D02*
X0061310Y0102184D01*
X0059994Y0101586D02*
X0064544Y0101586D01*
X0065744Y0100600D02*
X0065144Y0100000D01*
X0063344Y0100000D01*
X0063264Y0099731D01*
X0061704Y0097995D02*
X0088522Y0097995D01*
X0088770Y0097396D02*
X0061704Y0097396D01*
X0061704Y0096798D02*
X0088844Y0096798D01*
X0088844Y0096199D02*
X0061704Y0096199D01*
X0061704Y0095601D02*
X0088844Y0095601D01*
X0093644Y0096300D02*
X0093644Y0100200D01*
X0102044Y0100200D01*
X0102044Y0096300D01*
X0093644Y0096300D01*
X0093644Y0096798D02*
X0102044Y0096798D01*
X0102044Y0097396D02*
X0093644Y0097396D01*
X0093644Y0097995D02*
X0102044Y0097995D01*
X0102044Y0098593D02*
X0093644Y0098593D01*
X0093644Y0099192D02*
X0102044Y0099192D01*
X0102044Y0099790D02*
X0093644Y0099790D01*
X0095144Y0102783D02*
X0124488Y0102783D01*
X0124688Y0103381D02*
X0108008Y0103381D01*
X0108606Y0103980D02*
X0124488Y0103980D01*
X0124488Y0104578D02*
X0108794Y0104578D01*
X0108794Y0105177D02*
X0124488Y0105177D01*
X0124567Y0105775D02*
X0108794Y0105775D01*
X0108453Y0106374D02*
X0144344Y0106374D01*
X0144344Y0106972D02*
X0107854Y0106972D01*
X0106544Y0105100D02*
X0099944Y0105100D01*
X0099644Y0104800D01*
X0099351Y0104639D01*
X0099351Y0107198D02*
X0099644Y0107200D01*
X0101744Y0107200D01*
X0103244Y0108700D01*
X0103244Y0115900D01*
X0101144Y0118000D01*
X0099503Y0119541D02*
X0091385Y0119541D01*
X0090787Y0120139D02*
X0100102Y0120139D01*
X0100212Y0120250D02*
X0100497Y0120250D01*
X0093147Y0127600D01*
X0084226Y0127600D01*
X0083176Y0126550D01*
X0082892Y0126550D01*
X0089192Y0120250D01*
X0090676Y0120250D01*
X0091994Y0118932D01*
X0091994Y0117068D01*
X0091503Y0116576D01*
X0091787Y0116458D01*
X0093648Y0114598D01*
X0095960Y0116909D01*
X0096842Y0117275D01*
X0098894Y0117275D01*
X0098894Y0118932D01*
X0100212Y0120250D01*
X0100009Y0120738D02*
X0088704Y0120738D01*
X0088105Y0121337D02*
X0099411Y0121337D01*
X0098812Y0121935D02*
X0087507Y0121935D01*
X0086908Y0122534D02*
X0098214Y0122534D01*
X0097615Y0123132D02*
X0086309Y0123132D01*
X0085711Y0123731D02*
X0097017Y0123731D01*
X0096418Y0124329D02*
X0085112Y0124329D01*
X0084514Y0124928D02*
X0095820Y0124928D01*
X0095221Y0125526D02*
X0083915Y0125526D01*
X0083317Y0126125D02*
X0094623Y0126125D01*
X0094024Y0126723D02*
X0083350Y0126723D01*
X0083948Y0127322D02*
X0093426Y0127322D01*
X0093644Y0128800D02*
X0082244Y0128800D01*
X0079844Y0131200D02*
X0093044Y0131200D01*
X0108044Y0116200D01*
X0109544Y0116200D01*
X0111181Y0117745D02*
X0144344Y0117745D01*
X0144344Y0117147D02*
X0111780Y0117147D01*
X0111794Y0116548D02*
X0144344Y0116548D01*
X0144344Y0115950D02*
X0142463Y0115950D01*
X0143698Y0115351D02*
X0144344Y0115351D01*
X0144344Y0114753D02*
X0144297Y0114753D01*
X0144344Y0118344D02*
X0110583Y0118344D01*
X0110399Y0119541D02*
X0116890Y0119541D01*
X0116292Y0120139D02*
X0110997Y0120139D01*
X0111596Y0120738D02*
X0115693Y0120738D01*
X0118544Y0122500D02*
X0118644Y0122400D01*
X0118844Y0122500D01*
X0128444Y0122500D01*
X0128644Y0122400D01*
X0126292Y0120139D02*
X0120997Y0120139D01*
X0120399Y0119541D02*
X0126890Y0119541D01*
X0125693Y0120738D02*
X0121596Y0120738D01*
X0118544Y0122500D02*
X0108644Y0122500D01*
X0108644Y0122400D01*
X0106292Y0120139D02*
X0105802Y0120139D01*
X0105693Y0120738D02*
X0105204Y0120738D01*
X0105382Y0121337D02*
X0104605Y0121337D01*
X0104006Y0121935D02*
X0105382Y0121935D01*
X0105382Y0122534D02*
X0103408Y0122534D01*
X0102809Y0123132D02*
X0105382Y0123132D01*
X0105382Y0123731D02*
X0102211Y0123731D01*
X0101612Y0124329D02*
X0105960Y0124329D01*
X0106559Y0124928D02*
X0101014Y0124928D01*
X0098905Y0118942D02*
X0091984Y0118942D01*
X0091994Y0118344D02*
X0098894Y0118344D01*
X0098894Y0117745D02*
X0091994Y0117745D01*
X0091994Y0117147D02*
X0096533Y0117147D01*
X0095599Y0116548D02*
X0091570Y0116548D01*
X0092296Y0115950D02*
X0095000Y0115950D01*
X0094402Y0115351D02*
X0092894Y0115351D01*
X0093493Y0114753D02*
X0093803Y0114753D01*
X0095802Y0112957D02*
X0102044Y0112957D01*
X0102044Y0112359D02*
X0095203Y0112359D01*
X0094605Y0111760D02*
X0102044Y0111760D01*
X0102044Y0111162D02*
X0094006Y0111162D01*
X0093408Y0110563D02*
X0102044Y0110563D01*
X0102044Y0109965D02*
X0092809Y0109965D01*
X0092211Y0109366D02*
X0102044Y0109366D01*
X0102044Y0109197D02*
X0101947Y0109100D01*
X0091944Y0109100D01*
X0097344Y0114500D01*
X0102044Y0114500D01*
X0102044Y0109197D01*
X0103812Y0107571D02*
X0138652Y0107571D01*
X0137870Y0108169D02*
X0104411Y0108169D01*
X0104444Y0108768D02*
X0137271Y0108768D01*
X0136891Y0109366D02*
X0104444Y0109366D01*
X0104444Y0109965D02*
X0136643Y0109965D01*
X0136395Y0110563D02*
X0104444Y0110563D01*
X0104444Y0111162D02*
X0124584Y0111162D01*
X0124488Y0111760D02*
X0119987Y0111760D01*
X0120585Y0112359D02*
X0124488Y0112359D01*
X0124488Y0112957D02*
X0121094Y0112957D01*
X0121094Y0113556D02*
X0124670Y0113556D01*
X0124488Y0114154D02*
X0121094Y0114154D01*
X0121074Y0114753D02*
X0124488Y0114753D01*
X0124488Y0115351D02*
X0120475Y0115351D01*
X0119877Y0115950D02*
X0124505Y0115950D01*
X0128138Y0114875D02*
X0128144Y0114700D01*
X0128144Y0112600D01*
X0128138Y0112316D01*
X0128444Y0112600D01*
X0139844Y0112600D01*
X0140744Y0111700D01*
X0140944Y0111600D01*
X0137592Y0114753D02*
X0131788Y0114753D01*
X0131788Y0115351D02*
X0138191Y0115351D01*
X0139426Y0115950D02*
X0131771Y0115950D01*
X0131788Y0114154D02*
X0137024Y0114154D01*
X0136344Y0111162D02*
X0131692Y0111162D01*
X0143237Y0107571D02*
X0144344Y0107571D01*
X0144344Y0108169D02*
X0144019Y0108169D01*
X0144344Y0105775D02*
X0142885Y0105775D01*
X0143873Y0105177D02*
X0144344Y0105177D01*
X0135042Y0093805D02*
X0113837Y0093805D01*
X0114435Y0093206D02*
X0135641Y0093206D01*
X0136239Y0092608D02*
X0119234Y0092608D01*
X0119832Y0092009D02*
X0136838Y0092009D01*
X0136716Y0091411D02*
X0120431Y0091411D01*
X0121029Y0090812D02*
X0124959Y0090812D01*
X0124488Y0090214D02*
X0121628Y0090214D01*
X0122226Y0089615D02*
X0124488Y0089615D01*
X0124488Y0089017D02*
X0122825Y0089017D01*
X0123423Y0088418D02*
X0124488Y0088418D01*
X0124525Y0087820D02*
X0124022Y0087820D01*
X0128144Y0086800D02*
X0128138Y0086725D01*
X0128444Y0086800D01*
X0133544Y0086800D01*
X0140744Y0079600D01*
X0140944Y0079600D01*
X0134144Y0076000D02*
X0129044Y0076000D01*
X0114644Y0090400D01*
X0110744Y0090400D01*
X0109844Y0092800D02*
X0108344Y0091300D01*
X0108344Y0089200D01*
X0105944Y0086800D01*
X0105944Y0090100D02*
X0103244Y0090100D01*
X0101744Y0091600D01*
X0099644Y0091600D01*
X0099351Y0091843D01*
X0106926Y0095601D02*
X0124791Y0095601D01*
X0128138Y0089284D02*
X0128144Y0089200D01*
X0128144Y0086800D01*
X0131788Y0088418D02*
X0136455Y0088418D01*
X0136344Y0089017D02*
X0131788Y0089017D01*
X0131788Y0089615D02*
X0136344Y0089615D01*
X0136344Y0090214D02*
X0131788Y0090214D01*
X0131318Y0090812D02*
X0136468Y0090812D01*
X0136703Y0087820D02*
X0134222Y0087820D01*
X0134820Y0087221D02*
X0136951Y0087221D01*
X0137416Y0086623D02*
X0135419Y0086623D01*
X0136017Y0086024D02*
X0138015Y0086024D01*
X0150044Y0077500D02*
X0192044Y0119500D01*
X0192044Y0150400D01*
X0191744Y0150700D01*
X0190844Y0142284D02*
X0160711Y0142284D01*
X0160112Y0141686D02*
X0190844Y0141686D01*
X0176744Y0138700D02*
X0176744Y0134200D01*
X0178544Y0132400D01*
X0178644Y0132400D01*
X0176117Y0130314D02*
X0171172Y0130314D01*
X0170574Y0129716D02*
X0176715Y0129716D01*
X0175518Y0130913D02*
X0171771Y0130913D01*
X0171907Y0131049D02*
X0169996Y0129138D01*
X0167293Y0129138D01*
X0165382Y0131049D01*
X0165382Y0133751D01*
X0167293Y0135662D01*
X0167444Y0135662D01*
X0167444Y0136732D01*
X0166638Y0136732D01*
X0166111Y0137259D01*
X0166111Y0140485D01*
X0166638Y0141013D01*
X0170651Y0141013D01*
X0171178Y0140485D01*
X0171178Y0137259D01*
X0170651Y0136732D01*
X0169844Y0136732D01*
X0169844Y0135662D01*
X0169996Y0135662D01*
X0171907Y0133751D01*
X0171907Y0131049D01*
X0171907Y0131511D02*
X0175382Y0131511D01*
X0175382Y0132110D02*
X0171907Y0132110D01*
X0171907Y0132708D02*
X0175382Y0132708D01*
X0175382Y0133307D02*
X0171907Y0133307D01*
X0171753Y0133905D02*
X0175536Y0133905D01*
X0175544Y0134504D02*
X0171154Y0134504D01*
X0170556Y0135102D02*
X0175544Y0135102D01*
X0175544Y0135701D02*
X0169844Y0135701D01*
X0169844Y0136299D02*
X0175544Y0136299D01*
X0174472Y0136898D02*
X0170817Y0136898D01*
X0171178Y0137496D02*
X0174111Y0137496D01*
X0174111Y0138095D02*
X0171178Y0138095D01*
X0171178Y0138693D02*
X0174111Y0138693D01*
X0174111Y0139292D02*
X0171178Y0139292D01*
X0171178Y0139890D02*
X0174111Y0139890D01*
X0174114Y0140489D02*
X0171175Y0140489D01*
X0168644Y0138872D02*
X0168644Y0132400D01*
X0166135Y0134504D02*
X0161154Y0134504D01*
X0160844Y0135102D02*
X0166733Y0135102D01*
X0167444Y0135701D02*
X0160844Y0135701D01*
X0160844Y0136299D02*
X0167444Y0136299D01*
X0166472Y0136898D02*
X0161817Y0136898D01*
X0162178Y0137496D02*
X0166111Y0137496D01*
X0166111Y0138095D02*
X0162178Y0138095D01*
X0162178Y0138693D02*
X0166111Y0138693D01*
X0166111Y0139292D02*
X0162178Y0139292D01*
X0162178Y0139890D02*
X0166111Y0139890D01*
X0166114Y0140489D02*
X0162175Y0140489D01*
X0159644Y0138872D02*
X0159644Y0133300D01*
X0158744Y0132400D01*
X0158644Y0132400D01*
X0161907Y0132110D02*
X0165382Y0132110D01*
X0165382Y0132708D02*
X0161907Y0132708D01*
X0161907Y0133307D02*
X0165382Y0133307D01*
X0165536Y0133905D02*
X0161753Y0133905D01*
X0161907Y0131511D02*
X0165382Y0131511D01*
X0165518Y0130913D02*
X0161771Y0130913D01*
X0161172Y0130314D02*
X0166117Y0130314D01*
X0166715Y0129716D02*
X0160574Y0129716D01*
X0170132Y0125526D02*
X0177157Y0125526D01*
X0176559Y0124928D02*
X0170730Y0124928D01*
X0171329Y0124329D02*
X0175960Y0124329D01*
X0175382Y0123731D02*
X0171907Y0123731D01*
X0171596Y0120738D02*
X0175693Y0120738D01*
X0176292Y0120139D02*
X0170997Y0120139D01*
X0170399Y0119541D02*
X0176890Y0119541D01*
X0181596Y0120738D02*
X0185693Y0120738D01*
X0185382Y0123731D02*
X0181907Y0123731D01*
X0181329Y0124329D02*
X0185960Y0124329D01*
X0186559Y0124928D02*
X0180730Y0124928D01*
X0180132Y0125526D02*
X0187157Y0125526D01*
X0190132Y0125526D02*
X0190844Y0125526D01*
X0190844Y0124928D02*
X0190730Y0124928D01*
X0189790Y0118942D02*
X0168344Y0118942D01*
X0168344Y0118344D02*
X0189191Y0118344D01*
X0190790Y0116548D02*
X0192044Y0116548D01*
X0192044Y0115950D02*
X0190191Y0115950D01*
X0189593Y0115351D02*
X0192044Y0115351D01*
X0192044Y0114753D02*
X0188994Y0114753D01*
X0188396Y0114154D02*
X0192044Y0114154D01*
X0192044Y0113556D02*
X0187797Y0113556D01*
X0187199Y0112957D02*
X0192044Y0112957D01*
X0192044Y0112359D02*
X0186600Y0112359D01*
X0186002Y0111760D02*
X0192044Y0111760D01*
X0192044Y0111162D02*
X0185403Y0111162D01*
X0184805Y0110563D02*
X0192044Y0110563D01*
X0192044Y0109965D02*
X0184206Y0109965D01*
X0183608Y0109366D02*
X0192044Y0109366D01*
X0192044Y0108768D02*
X0183009Y0108768D01*
X0182411Y0108169D02*
X0192044Y0108169D01*
X0192044Y0107571D02*
X0181812Y0107571D01*
X0181214Y0106972D02*
X0192044Y0106972D01*
X0192044Y0106374D02*
X0180615Y0106374D01*
X0180017Y0105775D02*
X0192044Y0105775D01*
X0192044Y0105177D02*
X0179418Y0105177D01*
X0178820Y0104578D02*
X0192044Y0104578D01*
X0192044Y0103980D02*
X0178221Y0103980D01*
X0177623Y0103381D02*
X0192044Y0103381D01*
X0192044Y0102783D02*
X0177024Y0102783D01*
X0176426Y0102184D02*
X0192044Y0102184D01*
X0192044Y0101586D02*
X0175827Y0101586D01*
X0175229Y0100987D02*
X0192044Y0100987D01*
X0192044Y0100389D02*
X0174630Y0100389D01*
X0174032Y0099790D02*
X0192044Y0099790D01*
X0192044Y0099192D02*
X0173433Y0099192D01*
X0172835Y0098593D02*
X0192044Y0098593D01*
X0192044Y0097995D02*
X0172236Y0097995D01*
X0171638Y0097396D02*
X0192044Y0097396D01*
X0192044Y0096798D02*
X0171039Y0096798D01*
X0150044Y0077500D02*
X0150044Y0074800D01*
X0144344Y0073600D02*
X0133244Y0073600D01*
X0132044Y0074800D01*
X0126944Y0074800D01*
X0125744Y0066700D02*
X0146144Y0066700D01*
X0147344Y0065500D01*
X0150344Y0063700D02*
X0142844Y0056200D01*
X0131744Y0056200D01*
X0131550Y0055951D01*
X0131550Y0058550D02*
X0131744Y0058600D01*
X0137144Y0058600D01*
X0142844Y0064300D01*
X0135344Y0064300D02*
X0132644Y0061600D01*
X0127544Y0061600D01*
X0127534Y0061404D01*
X0124936Y0061404D02*
X0124844Y0061300D01*
X0124844Y0058600D01*
X0122744Y0056500D01*
X0122337Y0061404D02*
X0122444Y0061600D01*
X0122444Y0063400D01*
X0125744Y0066700D01*
X0111944Y0061404D02*
X0111944Y0061300D01*
X0111944Y0057700D01*
X0112544Y0057100D01*
X0109244Y0057100D02*
X0109244Y0061300D01*
X0109345Y0061404D01*
X0106747Y0061404D02*
X0106544Y0061300D01*
X0106544Y0057700D01*
X0105944Y0057100D01*
X0104144Y0058600D02*
X0102644Y0057100D01*
X0104144Y0058600D02*
X0104144Y0061300D01*
X0104148Y0061404D01*
X0093755Y0061404D02*
X0093644Y0061600D01*
X0093644Y0063700D01*
X0091844Y0065500D01*
X0089444Y0064600D02*
X0088544Y0065500D01*
X0089444Y0064600D02*
X0089444Y0058600D01*
X0089739Y0058550D01*
X0089739Y0055951D02*
X0089744Y0055900D01*
X0094244Y0055900D01*
X0089739Y0050754D02*
X0089444Y0050800D01*
X0087044Y0050800D01*
X0084044Y0053800D01*
X0084044Y0050500D02*
X0075944Y0058600D01*
X0075788Y0058800D01*
X0071744Y0057400D02*
X0071744Y0062500D01*
X0071744Y0057400D02*
X0081044Y0048100D01*
X0089444Y0048100D01*
X0089739Y0048156D01*
X0089444Y0045700D02*
X0089739Y0045557D01*
X0089444Y0045700D02*
X0085244Y0045700D01*
X0082544Y0043000D02*
X0070244Y0055300D01*
X0066344Y0055300D01*
X0063044Y0058600D01*
X0060794Y0058493D02*
X0057639Y0058493D01*
X0057040Y0057894D02*
X0060794Y0057894D01*
X0061167Y0057296D02*
X0056441Y0057296D01*
X0055843Y0056697D02*
X0061765Y0056697D01*
X0063849Y0056099D02*
X0055244Y0056099D01*
X0054994Y0055500D02*
X0064447Y0055500D01*
X0065046Y0054902D02*
X0054994Y0054902D01*
X0054862Y0054303D02*
X0065644Y0054303D01*
X0070143Y0053705D02*
X0054614Y0053705D01*
X0054344Y0053106D02*
X0070741Y0053106D01*
X0071340Y0052508D02*
X0054344Y0052508D01*
X0054344Y0051909D02*
X0071938Y0051909D01*
X0072537Y0051311D02*
X0054344Y0051311D01*
X0058268Y0059091D02*
X0060794Y0059091D01*
X0060952Y0059690D02*
X0058582Y0059690D01*
X0063531Y0050712D02*
X0072265Y0050712D01*
X0071082Y0050114D02*
X0063778Y0050114D01*
X0063778Y0049515D02*
X0070483Y0049515D01*
X0070157Y0048917D02*
X0063778Y0048917D01*
X0063778Y0048318D02*
X0069909Y0048318D01*
X0069852Y0047720D02*
X0063778Y0047720D01*
X0063778Y0047121D02*
X0069852Y0047121D01*
X0069852Y0046523D02*
X0063778Y0046523D01*
X0074711Y0039939D02*
X0086477Y0039939D01*
X0086477Y0040537D02*
X0075457Y0040537D01*
X0075953Y0041136D02*
X0086477Y0041136D01*
X0086521Y0041734D02*
X0076201Y0041734D01*
X0076377Y0042333D02*
X0081514Y0042333D01*
X0080916Y0042932D02*
X0076377Y0042932D01*
X0076377Y0043530D02*
X0080317Y0043530D01*
X0079719Y0044129D02*
X0076377Y0044129D01*
X0076377Y0044727D02*
X0079120Y0044727D01*
X0078522Y0045326D02*
X0076377Y0045326D01*
X0076377Y0045924D02*
X0077923Y0045924D01*
X0077325Y0046523D02*
X0076377Y0046523D01*
X0076377Y0047121D02*
X0076726Y0047121D01*
X0082544Y0043000D02*
X0089444Y0043000D01*
X0089739Y0042959D01*
X0072844Y0036348D02*
X0069107Y0036348D01*
X0069661Y0073456D02*
X0068490Y0073456D01*
X0048064Y0090214D02*
X0039663Y0090214D01*
X0039311Y0090812D02*
X0047882Y0090812D01*
X0047882Y0091411D02*
X0038991Y0091411D01*
X0038393Y0092009D02*
X0047882Y0092009D01*
X0047882Y0092608D02*
X0036940Y0092608D01*
X0036457Y0092608D02*
X0034544Y0092608D01*
X0034544Y0093206D02*
X0047882Y0093206D01*
X0047882Y0093805D02*
X0034544Y0093805D01*
X0033742Y0099000D02*
X0040142Y0105400D01*
X0045462Y0105400D01*
X0045770Y0105092D01*
X0045413Y0104735D01*
X0045413Y0099265D01*
X0045678Y0099000D01*
X0033742Y0099000D01*
X0033933Y0099192D02*
X0045486Y0099192D01*
X0045413Y0099790D02*
X0034532Y0099790D01*
X0035130Y0100389D02*
X0045413Y0100389D01*
X0045413Y0100987D02*
X0035729Y0100987D01*
X0036327Y0101586D02*
X0045413Y0101586D01*
X0045413Y0102184D02*
X0036926Y0102184D01*
X0037524Y0102783D02*
X0045413Y0102783D01*
X0045413Y0103381D02*
X0038123Y0103381D01*
X0038721Y0103980D02*
X0045413Y0103980D01*
X0045413Y0104578D02*
X0039320Y0104578D01*
X0039918Y0105177D02*
X0045686Y0105177D01*
X0052044Y0111162D02*
X0062786Y0111162D01*
X0062187Y0111760D02*
X0052044Y0111760D01*
X0052044Y0112359D02*
X0061589Y0112359D01*
X0060990Y0112957D02*
X0055792Y0112957D01*
X0056296Y0113556D02*
X0060392Y0113556D01*
X0059793Y0114154D02*
X0056296Y0114154D01*
X0056296Y0114753D02*
X0059195Y0114753D01*
X0058596Y0115351D02*
X0056217Y0115351D01*
X0056296Y0115950D02*
X0057998Y0115950D01*
X0057399Y0116548D02*
X0056296Y0116548D01*
X0056296Y0117147D02*
X0056801Y0117147D01*
X0058399Y0118942D02*
X0058605Y0118942D01*
X0058998Y0118344D02*
X0059203Y0118344D01*
X0059596Y0117745D02*
X0059802Y0117745D01*
X0060195Y0117147D02*
X0060401Y0117147D01*
X0060793Y0116548D02*
X0063354Y0116548D01*
X0063354Y0115950D02*
X0061392Y0115950D01*
X0061990Y0115351D02*
X0063432Y0115351D01*
X0063354Y0114753D02*
X0062589Y0114753D01*
X0063187Y0114154D02*
X0063354Y0114154D01*
X0065238Y0116294D02*
X0065744Y0116500D01*
X0067122Y0117147D02*
X0070144Y0117147D01*
X0070144Y0117745D02*
X0067122Y0117745D01*
X0067122Y0118344D02*
X0070144Y0118344D01*
X0070144Y0118942D02*
X0067122Y0118942D01*
X0066709Y0119541D02*
X0070144Y0119541D01*
X0070144Y0120139D02*
X0060802Y0120139D01*
X0061401Y0119541D02*
X0063767Y0119541D01*
X0060204Y0120738D02*
X0069725Y0120738D01*
X0069126Y0121337D02*
X0059605Y0121337D01*
X0059007Y0121935D02*
X0068894Y0121935D01*
X0058006Y0119541D02*
X0057801Y0119541D01*
X0057408Y0120139D02*
X0057202Y0120139D01*
X0056809Y0120738D02*
X0056604Y0120738D01*
X0056211Y0121337D02*
X0056056Y0121337D01*
X0055544Y0120100D02*
X0054644Y0120100D01*
X0054411Y0120231D01*
X0055544Y0120100D02*
X0065744Y0109900D01*
X0065744Y0100600D01*
X0064544Y0105177D02*
X0063672Y0105177D01*
X0063672Y0105775D02*
X0064544Y0105775D01*
X0064544Y0106374D02*
X0063672Y0106374D01*
X0063672Y0106972D02*
X0064544Y0106972D01*
X0064544Y0107571D02*
X0063672Y0107571D01*
X0063672Y0108169D02*
X0064544Y0108169D01*
X0064544Y0108768D02*
X0063572Y0108768D01*
X0060791Y0108768D02*
X0059635Y0108768D01*
X0059735Y0108169D02*
X0060691Y0108169D01*
X0060691Y0107571D02*
X0059735Y0107571D01*
X0059735Y0106972D02*
X0060691Y0106972D01*
X0060691Y0106374D02*
X0059735Y0106374D01*
X0060213Y0096680D02*
X0060044Y0096400D01*
X0060044Y0095200D01*
X0061244Y0094000D01*
X0061244Y0093100D01*
X0054307Y0096680D02*
X0054244Y0096700D01*
X0053544Y0096700D01*
X0051244Y0096700D02*
X0050344Y0096700D01*
X0050344Y0096680D01*
X0035046Y0086623D02*
X0034544Y0086623D01*
X0034544Y0086024D02*
X0035398Y0086024D01*
X0035750Y0085426D02*
X0034544Y0085426D01*
X0034445Y0084827D02*
X0036102Y0084827D01*
X0036454Y0084229D02*
X0025044Y0084229D01*
X0025044Y0083630D02*
X0036806Y0083630D01*
X0037158Y0083032D02*
X0025044Y0083032D01*
X0025044Y0082433D02*
X0025725Y0082433D01*
X0025345Y0084827D02*
X0028044Y0084827D01*
X0027944Y0085426D02*
X0025444Y0085426D01*
X0025444Y0086024D02*
X0027944Y0086024D01*
X0027944Y0086623D02*
X0025444Y0086623D01*
X0025444Y0087221D02*
X0027944Y0087221D01*
X0027944Y0087820D02*
X0025444Y0087820D01*
X0025444Y0088418D02*
X0027944Y0088418D01*
X0027944Y0089017D02*
X0025444Y0089017D01*
X0025444Y0089615D02*
X0027944Y0089615D01*
X0027944Y0090214D02*
X0025444Y0090214D01*
X0025444Y0090812D02*
X0027944Y0090812D01*
X0027944Y0091411D02*
X0025444Y0091411D01*
X0025444Y0092009D02*
X0027944Y0092009D01*
X0027944Y0092608D02*
X0025444Y0092608D01*
X0025444Y0093206D02*
X0027944Y0093206D01*
X0027944Y0093805D02*
X0025444Y0093805D01*
X0017444Y0083630D02*
X0015644Y0083630D01*
X0015644Y0083032D02*
X0017444Y0083032D01*
X0017444Y0082433D02*
X0016978Y0082433D01*
X0017176Y0081835D02*
X0017444Y0081835D01*
X0017444Y0081236D02*
X0017176Y0081236D01*
X0017176Y0080638D02*
X0017444Y0080638D01*
X0017444Y0080039D02*
X0017176Y0080039D01*
X0017176Y0079441D02*
X0017444Y0079441D01*
X0017444Y0078842D02*
X0017176Y0078842D01*
X0017176Y0078244D02*
X0017444Y0078244D01*
X0017444Y0077645D02*
X0017176Y0077645D01*
X0017176Y0077047D02*
X0017444Y0077047D01*
X0017444Y0076448D02*
X0016859Y0076448D01*
X0023946Y0076448D02*
X0025101Y0076448D01*
X0030901Y0076448D02*
X0040130Y0076448D01*
X0039782Y0077047D02*
X0030901Y0077047D01*
X0030901Y0077645D02*
X0039782Y0077645D01*
X0039782Y0078244D02*
X0030901Y0078244D01*
X0030901Y0078842D02*
X0039622Y0078842D01*
X0039270Y0079441D02*
X0030901Y0079441D01*
X0030901Y0080039D02*
X0038918Y0080039D01*
X0038566Y0080638D02*
X0030669Y0080638D01*
X0030476Y0081236D02*
X0038214Y0081236D01*
X0037862Y0081835D02*
X0030476Y0081835D01*
X0030278Y0082433D02*
X0037510Y0082433D01*
X0041837Y0075850D02*
X0030901Y0075850D01*
X0030901Y0075251D02*
X0042435Y0075251D01*
X0043584Y0074653D02*
X0030901Y0074653D01*
X0051344Y0117100D02*
X0052244Y0118000D01*
X0054344Y0118000D01*
X0054411Y0118263D01*
X0050214Y0122534D02*
X0039844Y0122534D01*
X0039844Y0123132D02*
X0049615Y0123132D01*
X0049017Y0123731D02*
X0039844Y0123731D01*
X0039844Y0124329D02*
X0048418Y0124329D01*
X0058094Y0136299D02*
X0059248Y0136299D01*
X0058650Y0136898D02*
X0057829Y0136898D01*
X0058051Y0137496D02*
X0057230Y0137496D01*
X0057453Y0138095D02*
X0055147Y0138095D01*
X0054907Y0138693D02*
X0056854Y0138693D01*
X0056256Y0139292D02*
X0054907Y0139292D01*
X0054907Y0139890D02*
X0055657Y0139890D01*
X0055059Y0140489D02*
X0054907Y0140489D01*
X0056657Y0142284D02*
X0065232Y0142284D01*
X0064633Y0141686D02*
X0057256Y0141686D01*
X0057854Y0141087D02*
X0060665Y0141087D01*
X0060909Y0141331D02*
X0060382Y0140804D01*
X0060382Y0138559D01*
X0053144Y0145797D01*
X0053144Y0153395D01*
X0054739Y0151800D01*
X0058550Y0151800D01*
X0059099Y0152349D01*
X0062444Y0149003D01*
X0062444Y0148418D01*
X0060909Y0148418D01*
X0060382Y0147891D01*
X0060382Y0143996D01*
X0060909Y0143469D01*
X0066379Y0143469D01*
X0066907Y0143996D01*
X0066907Y0147891D01*
X0066379Y0148418D01*
X0064844Y0148418D01*
X0064844Y0149997D01*
X0060796Y0154046D01*
X0061244Y0154495D01*
X0061244Y0155903D01*
X0062044Y0156703D01*
X0062044Y0154495D01*
X0064739Y0151800D01*
X0068550Y0151800D01*
X0069049Y0152299D01*
X0071444Y0149903D01*
X0071444Y0148418D01*
X0069909Y0148418D01*
X0069382Y0147891D01*
X0069382Y0143996D01*
X0069578Y0143800D01*
X0066747Y0143800D01*
X0064279Y0141331D01*
X0060909Y0141331D01*
X0060382Y0140489D02*
X0058453Y0140489D01*
X0059051Y0139890D02*
X0060382Y0139890D01*
X0060382Y0139292D02*
X0059650Y0139292D01*
X0060248Y0138693D02*
X0060382Y0138693D01*
X0063644Y0138857D02*
X0063644Y0139000D01*
X0067244Y0142600D01*
X0086144Y0142600D01*
X0086444Y0142300D01*
X0125744Y0142300D01*
X0127994Y0142284D02*
X0157378Y0142284D01*
X0159044Y0143500D02*
X0159044Y0143800D01*
X0159044Y0143500D02*
X0134744Y0143500D01*
X0130544Y0147700D01*
X0127844Y0147700D01*
X0127644Y0147928D01*
X0125111Y0147671D02*
X0124713Y0147671D01*
X0125111Y0147072D02*
X0124114Y0147072D01*
X0124752Y0146474D02*
X0125111Y0146474D01*
X0125351Y0145875D02*
X0125550Y0145875D01*
X0125594Y0145277D02*
X0131270Y0145277D01*
X0130672Y0145875D02*
X0129739Y0145875D01*
X0131869Y0144678D02*
X0125594Y0144678D01*
X0127147Y0144080D02*
X0132467Y0144080D01*
X0133066Y0143481D02*
X0127745Y0143481D01*
X0127994Y0142883D02*
X0133665Y0142883D01*
X0132638Y0141013D02*
X0132111Y0140485D01*
X0132111Y0137463D01*
X0130153Y0135505D01*
X0129996Y0135662D01*
X0127293Y0135662D01*
X0125382Y0133751D01*
X0125382Y0131049D01*
X0127293Y0129138D01*
X0129996Y0129138D01*
X0131907Y0131049D01*
X0131907Y0133751D01*
X0131850Y0133808D01*
X0134774Y0136732D01*
X0136651Y0136732D01*
X0137178Y0137259D01*
X0137178Y0140485D01*
X0136651Y0141013D01*
X0132638Y0141013D01*
X0132114Y0140489D02*
X0130175Y0140489D01*
X0130178Y0139890D02*
X0132111Y0139890D01*
X0132111Y0139292D02*
X0130178Y0139292D01*
X0130178Y0138693D02*
X0132111Y0138693D01*
X0132111Y0138095D02*
X0130178Y0138095D01*
X0130178Y0137496D02*
X0132111Y0137496D01*
X0131545Y0136898D02*
X0129817Y0136898D01*
X0130947Y0136299D02*
X0124441Y0136299D01*
X0123842Y0135701D02*
X0130348Y0135701D01*
X0131947Y0133905D02*
X0135536Y0133905D01*
X0135382Y0133307D02*
X0131907Y0133307D01*
X0131907Y0132708D02*
X0135382Y0132708D01*
X0135382Y0132110D02*
X0131907Y0132110D01*
X0131907Y0131511D02*
X0135382Y0131511D01*
X0135518Y0130913D02*
X0131771Y0130913D01*
X0131172Y0130314D02*
X0136117Y0130314D01*
X0136715Y0129716D02*
X0130574Y0129716D01*
X0126715Y0129716D02*
X0120574Y0129716D01*
X0121172Y0130314D02*
X0126117Y0130314D01*
X0125518Y0130913D02*
X0121771Y0130913D01*
X0121907Y0131511D02*
X0125382Y0131511D01*
X0125382Y0132110D02*
X0121907Y0132110D01*
X0121907Y0132708D02*
X0125382Y0132708D01*
X0125382Y0133307D02*
X0121907Y0133307D01*
X0122047Y0133905D02*
X0125536Y0133905D01*
X0126135Y0134504D02*
X0122645Y0134504D01*
X0123244Y0135102D02*
X0126733Y0135102D01*
X0125472Y0136898D02*
X0125039Y0136898D01*
X0125144Y0138700D02*
X0118844Y0132400D01*
X0118644Y0132400D01*
X0116135Y0134504D02*
X0112445Y0134504D01*
X0111847Y0133905D02*
X0115536Y0133905D01*
X0115382Y0133307D02*
X0111907Y0133307D01*
X0111907Y0132708D02*
X0115382Y0132708D01*
X0115382Y0132110D02*
X0111907Y0132110D01*
X0111907Y0131511D02*
X0115382Y0131511D01*
X0115518Y0130913D02*
X0111771Y0130913D01*
X0111172Y0130314D02*
X0116117Y0130314D01*
X0116715Y0129716D02*
X0110574Y0129716D01*
X0108644Y0132400D02*
X0114944Y0138700D01*
X0120644Y0138700D01*
X0120644Y0138872D01*
X0123178Y0138693D02*
X0123441Y0138693D01*
X0123178Y0139292D02*
X0124039Y0139292D01*
X0124638Y0139890D02*
X0123178Y0139890D01*
X0123175Y0140489D02*
X0124374Y0140489D01*
X0123775Y0141087D02*
X0096624Y0141087D01*
X0096907Y0140489D02*
X0118114Y0140489D01*
X0118111Y0137496D02*
X0115438Y0137496D01*
X0114839Y0136898D02*
X0118472Y0136898D01*
X0120448Y0135701D02*
X0113642Y0135701D01*
X0113044Y0135102D02*
X0116733Y0135102D01*
X0114241Y0136299D02*
X0121047Y0136299D01*
X0125144Y0138700D02*
X0127544Y0138700D01*
X0127644Y0138872D01*
X0132545Y0134504D02*
X0136135Y0134504D01*
X0136733Y0135102D02*
X0133144Y0135102D01*
X0133742Y0135701D02*
X0140248Y0135701D01*
X0140847Y0136299D02*
X0134341Y0136299D01*
X0134444Y0138100D02*
X0128744Y0132400D01*
X0128644Y0132400D01*
X0134444Y0138100D02*
X0134444Y0138700D01*
X0134644Y0138872D01*
X0137178Y0138693D02*
X0140111Y0138693D01*
X0140111Y0138095D02*
X0137178Y0138095D01*
X0137178Y0137496D02*
X0140111Y0137496D01*
X0140472Y0136898D02*
X0136817Y0136898D01*
X0137178Y0139292D02*
X0140111Y0139292D01*
X0140111Y0139890D02*
X0137178Y0139890D01*
X0137175Y0140489D02*
X0140114Y0140489D01*
X0142644Y0138872D02*
X0142544Y0138700D01*
X0142544Y0136300D01*
X0138644Y0132400D01*
X0136559Y0124928D02*
X0130730Y0124928D01*
X0131329Y0124329D02*
X0135960Y0124329D01*
X0135382Y0123731D02*
X0131907Y0123731D01*
X0131907Y0123132D02*
X0135382Y0123132D01*
X0135382Y0122534D02*
X0131907Y0122534D01*
X0131907Y0121935D02*
X0135382Y0121935D01*
X0135382Y0121337D02*
X0131907Y0121337D01*
X0131596Y0120738D02*
X0135693Y0120738D01*
X0136292Y0120139D02*
X0130997Y0120139D01*
X0130399Y0119541D02*
X0136890Y0119541D01*
X0138644Y0122400D02*
X0138644Y0122500D01*
X0145544Y0122500D01*
X0144344Y0120738D02*
X0141596Y0120738D01*
X0140997Y0120139D02*
X0144344Y0120139D01*
X0144344Y0119541D02*
X0140399Y0119541D01*
X0144344Y0118942D02*
X0106999Y0118942D01*
X0106890Y0119541D02*
X0106401Y0119541D01*
X0107598Y0118344D02*
X0108506Y0118344D01*
X0111794Y0115950D02*
X0117812Y0115950D01*
X0117214Y0115351D02*
X0111794Y0115351D01*
X0108644Y0113800D02*
X0093644Y0128800D01*
X0086144Y0133600D02*
X0086144Y0135400D01*
X0082844Y0138700D01*
X0082644Y0138857D01*
X0082644Y0145943D02*
X0082544Y0146200D01*
X0082544Y0150700D01*
X0076844Y0156400D01*
X0076644Y0156400D01*
X0072644Y0150400D02*
X0066644Y0156400D01*
X0063481Y0153058D02*
X0061784Y0153058D01*
X0061185Y0153656D02*
X0062883Y0153656D01*
X0062284Y0154255D02*
X0061004Y0154255D01*
X0061244Y0154853D02*
X0062044Y0154853D01*
X0062044Y0155452D02*
X0061244Y0155452D01*
X0061392Y0156050D02*
X0062044Y0156050D01*
X0062044Y0156649D02*
X0061990Y0156649D01*
X0058544Y0154900D02*
X0056644Y0156400D01*
X0056744Y0156400D01*
X0063644Y0149500D01*
X0063644Y0145943D01*
X0060382Y0145875D02*
X0053144Y0145875D01*
X0053144Y0146474D02*
X0060382Y0146474D01*
X0060382Y0147072D02*
X0053144Y0147072D01*
X0053144Y0147671D02*
X0060382Y0147671D01*
X0060761Y0148270D02*
X0053144Y0148270D01*
X0053144Y0148868D02*
X0062444Y0148868D01*
X0061981Y0149467D02*
X0053144Y0149467D01*
X0053144Y0150065D02*
X0061382Y0150065D01*
X0060784Y0150664D02*
X0053144Y0150664D01*
X0053144Y0151262D02*
X0060185Y0151262D01*
X0059587Y0151861D02*
X0058610Y0151861D01*
X0062382Y0152459D02*
X0064080Y0152459D01*
X0064679Y0151861D02*
X0062981Y0151861D01*
X0063579Y0151262D02*
X0070085Y0151262D01*
X0069487Y0151861D02*
X0068610Y0151861D01*
X0070684Y0150664D02*
X0064178Y0150664D01*
X0064776Y0150065D02*
X0071282Y0150065D01*
X0071444Y0149467D02*
X0064844Y0149467D01*
X0064844Y0148868D02*
X0071444Y0148868D01*
X0069761Y0148270D02*
X0066528Y0148270D01*
X0066907Y0147671D02*
X0069382Y0147671D01*
X0069382Y0147072D02*
X0066907Y0147072D01*
X0066907Y0146474D02*
X0069382Y0146474D01*
X0069382Y0145875D02*
X0066907Y0145875D01*
X0066907Y0145277D02*
X0069382Y0145277D01*
X0069382Y0144678D02*
X0066907Y0144678D01*
X0066907Y0144080D02*
X0069382Y0144080D01*
X0066429Y0143481D02*
X0066392Y0143481D01*
X0065830Y0142883D02*
X0056059Y0142883D01*
X0055460Y0143481D02*
X0060897Y0143481D01*
X0060382Y0144080D02*
X0054862Y0144080D01*
X0054263Y0144678D02*
X0060382Y0144678D01*
X0060382Y0145277D02*
X0053665Y0145277D01*
X0048776Y0142284D02*
X0045513Y0142284D01*
X0045907Y0141686D02*
X0048382Y0141686D01*
X0047535Y0141087D02*
X0045907Y0141087D01*
X0045907Y0140489D02*
X0046936Y0140489D01*
X0046338Y0139890D02*
X0045907Y0139890D01*
X0042644Y0139943D02*
X0042644Y0140200D01*
X0041144Y0140200D01*
X0053144Y0151861D02*
X0054679Y0151861D01*
X0054080Y0152459D02*
X0053144Y0152459D01*
X0053144Y0153058D02*
X0053481Y0153058D01*
X0058544Y0154900D02*
X0064844Y0161200D01*
X0088544Y0161200D01*
X0093344Y0156400D01*
X0096644Y0156400D01*
X0091997Y0156050D02*
X0091244Y0156050D01*
X0091244Y0155452D02*
X0092044Y0155452D01*
X0092044Y0154853D02*
X0091244Y0154853D01*
X0091004Y0154255D02*
X0092284Y0154255D01*
X0092883Y0153656D02*
X0091185Y0153656D01*
X0091784Y0153058D02*
X0093481Y0153058D01*
X0094080Y0152459D02*
X0092382Y0152459D01*
X0092981Y0151861D02*
X0094679Y0151861D01*
X0093579Y0151262D02*
X0116510Y0151262D01*
X0116744Y0149800D02*
X0093644Y0149800D01*
X0093494Y0149650D01*
X0093644Y0149500D01*
X0093644Y0145943D01*
X0093494Y0149650D02*
X0086744Y0156400D01*
X0086644Y0156400D01*
X0091244Y0156649D02*
X0091399Y0156649D01*
X0092399Y0159043D02*
X0092782Y0159043D01*
X0093380Y0159641D02*
X0091800Y0159641D01*
X0091202Y0160240D02*
X0093979Y0160240D01*
X0094577Y0160838D02*
X0090603Y0160838D01*
X0090005Y0161437D02*
X0110184Y0161437D01*
X0110783Y0162035D02*
X0108785Y0162035D01*
X0109384Y0162634D02*
X0113905Y0162634D01*
X0113307Y0163232D02*
X0109982Y0163232D01*
X0110581Y0163831D02*
X0112708Y0163831D01*
X0112110Y0164429D02*
X0111179Y0164429D01*
X0111244Y0165028D02*
X0112044Y0165028D01*
X0112044Y0168020D02*
X0111244Y0168020D01*
X0110931Y0168619D02*
X0112358Y0168619D01*
X0112957Y0169217D02*
X0110332Y0169217D01*
X0109734Y0169816D02*
X0113555Y0169816D01*
X0114154Y0170414D02*
X0109135Y0170414D01*
X0106844Y0166600D02*
X0106644Y0166400D01*
X0106544Y0166600D01*
X0096644Y0166600D01*
X0096644Y0166400D01*
X0092044Y0165626D02*
X0091244Y0165626D01*
X0091244Y0165028D02*
X0092044Y0165028D01*
X0092110Y0164429D02*
X0091179Y0164429D01*
X0090581Y0163831D02*
X0092708Y0163831D01*
X0093307Y0163232D02*
X0089982Y0163232D01*
X0089384Y0162634D02*
X0093905Y0162634D01*
X0094504Y0162035D02*
X0089406Y0162035D01*
X0098785Y0162035D02*
X0104504Y0162035D01*
X0103905Y0162634D02*
X0099384Y0162634D01*
X0099982Y0163232D02*
X0103307Y0163232D01*
X0102708Y0163831D02*
X0100581Y0163831D01*
X0101179Y0164429D02*
X0102110Y0164429D01*
X0102044Y0165028D02*
X0101244Y0165028D01*
X0101244Y0168020D02*
X0102044Y0168020D01*
X0102358Y0168619D02*
X0100931Y0168619D01*
X0100332Y0169217D02*
X0102957Y0169217D01*
X0103555Y0169816D02*
X0099734Y0169816D01*
X0099135Y0170414D02*
X0104154Y0170414D01*
X0106844Y0166600D02*
X0116444Y0166600D01*
X0116644Y0166400D01*
X0116744Y0166600D01*
X0126644Y0166600D01*
X0126644Y0166400D01*
X0130931Y0168619D02*
X0132666Y0168619D01*
X0132068Y0168020D02*
X0131244Y0168020D01*
X0131244Y0167422D02*
X0131469Y0167422D01*
X0131444Y0165700D02*
X0131444Y0164500D01*
X0128144Y0161200D01*
X0111644Y0161200D01*
X0106844Y0156400D01*
X0106644Y0156400D01*
X0102782Y0159043D02*
X0100507Y0159043D01*
X0099909Y0159641D02*
X0103380Y0159641D01*
X0103979Y0160240D02*
X0099310Y0160240D01*
X0098712Y0160838D02*
X0104577Y0160838D01*
X0102183Y0158444D02*
X0101106Y0158444D01*
X0101244Y0157846D02*
X0102044Y0157846D01*
X0102044Y0157247D02*
X0101244Y0157247D01*
X0101244Y0156649D02*
X0102044Y0156649D01*
X0102044Y0156050D02*
X0101244Y0156050D01*
X0101244Y0155452D02*
X0102044Y0155452D01*
X0102044Y0154853D02*
X0101244Y0154853D01*
X0101004Y0154255D02*
X0102284Y0154255D01*
X0102883Y0153656D02*
X0100406Y0153656D01*
X0099807Y0153058D02*
X0103481Y0153058D01*
X0104080Y0152459D02*
X0099209Y0152459D01*
X0098610Y0151861D02*
X0104679Y0151861D01*
X0108610Y0151861D02*
X0114679Y0151861D01*
X0114080Y0152459D02*
X0109209Y0152459D01*
X0109807Y0153058D02*
X0113481Y0153058D01*
X0112883Y0153656D02*
X0110406Y0153656D01*
X0111004Y0154255D02*
X0112284Y0154255D01*
X0112044Y0154853D02*
X0111244Y0154853D01*
X0111244Y0155452D02*
X0112044Y0155452D01*
X0112044Y0156050D02*
X0111244Y0156050D01*
X0111244Y0156649D02*
X0112044Y0156649D01*
X0112044Y0157247D02*
X0111244Y0157247D01*
X0111244Y0157846D02*
X0112044Y0157846D01*
X0112183Y0158444D02*
X0111106Y0158444D01*
X0111184Y0159043D02*
X0112782Y0159043D01*
X0113380Y0159641D02*
X0111783Y0159641D01*
X0109586Y0160838D02*
X0108712Y0160838D01*
X0119135Y0170414D02*
X0124154Y0170414D01*
X0123555Y0169816D02*
X0119734Y0169816D01*
X0120332Y0169217D02*
X0122957Y0169217D01*
X0122358Y0168619D02*
X0120931Y0168619D01*
X0121244Y0168020D02*
X0122044Y0168020D01*
X0129135Y0170414D02*
X0134462Y0170414D01*
X0133863Y0169816D02*
X0129734Y0169816D01*
X0130332Y0169217D02*
X0133265Y0169217D01*
X0135060Y0171013D02*
X0024482Y0171013D01*
X0024234Y0171611D02*
X0135659Y0171611D01*
X0136257Y0172210D02*
X0023724Y0172210D01*
X0023125Y0172808D02*
X0136856Y0172808D01*
X0137454Y0173407D02*
X0022527Y0173407D01*
X0012762Y0173407D02*
X0008444Y0173407D01*
X0008444Y0172808D02*
X0012164Y0172808D01*
X0011565Y0172210D02*
X0008444Y0172210D01*
X0008444Y0171611D02*
X0011055Y0171611D01*
X0010807Y0171013D02*
X0008444Y0171013D01*
X0008444Y0170414D02*
X0010559Y0170414D01*
X0010311Y0169816D02*
X0008444Y0169816D01*
X0008444Y0169217D02*
X0010063Y0169217D01*
X0009944Y0168619D02*
X0008444Y0168619D01*
X0008444Y0168020D02*
X0009944Y0168020D01*
X0009944Y0167422D02*
X0008444Y0167422D01*
X0008444Y0166823D02*
X0009944Y0166823D01*
X0009944Y0166225D02*
X0008444Y0166225D01*
X0008444Y0165626D02*
X0010045Y0165626D01*
X0010293Y0165028D02*
X0008444Y0165028D01*
X0008444Y0164429D02*
X0010541Y0164429D01*
X0010788Y0163831D02*
X0008444Y0163831D01*
X0008444Y0163232D02*
X0011036Y0163232D01*
X0011521Y0162634D02*
X0008444Y0162634D01*
X0008444Y0162035D02*
X0012120Y0162035D01*
X0012718Y0161437D02*
X0008444Y0161437D01*
X0008444Y0160838D02*
X0013365Y0160838D01*
X0014810Y0160240D02*
X0008444Y0160240D01*
X0008444Y0154853D02*
X0028855Y0154853D01*
X0027961Y0154255D02*
X0008444Y0154255D01*
X0008444Y0153656D02*
X0027363Y0153656D01*
X0027026Y0153058D02*
X0008444Y0153058D01*
X0008444Y0152459D02*
X0026778Y0152459D01*
X0026595Y0151861D02*
X0008444Y0151861D01*
X0072644Y0150400D02*
X0072644Y0145943D01*
X0071444Y0136300D02*
X0089744Y0118000D01*
X0096400Y0113556D02*
X0102044Y0113556D01*
X0102044Y0114154D02*
X0096999Y0114154D01*
X0104444Y0114154D02*
X0106593Y0114154D01*
X0107192Y0113556D02*
X0104444Y0113556D01*
X0104444Y0112957D02*
X0107790Y0112957D01*
X0108644Y0113800D02*
X0118844Y0113800D01*
X0117104Y0112359D02*
X0104444Y0112359D01*
X0104444Y0111760D02*
X0117702Y0111760D01*
X0105995Y0114753D02*
X0104444Y0114753D01*
X0104444Y0115351D02*
X0105396Y0115351D01*
X0104798Y0115950D02*
X0104444Y0115950D01*
X0105235Y0106972D02*
X0103214Y0106972D01*
X0103001Y0106374D02*
X0104636Y0106374D01*
X0105081Y0103381D02*
X0102801Y0103381D01*
X0095900Y0103381D02*
X0095144Y0103381D01*
X0095144Y0103980D02*
X0095701Y0103980D01*
X0095701Y0104578D02*
X0095144Y0104578D01*
X0095144Y0105177D02*
X0095701Y0105177D01*
X0095780Y0105775D02*
X0095144Y0105775D01*
X0095144Y0106374D02*
X0095701Y0106374D01*
X0095701Y0106972D02*
X0095144Y0106972D01*
X0095144Y0107571D02*
X0095701Y0107571D01*
X0096907Y0139292D02*
X0113839Y0139292D01*
X0114438Y0139890D02*
X0096907Y0139890D01*
X0098144Y0144700D02*
X0123344Y0144700D01*
X0123344Y0148000D02*
X0120644Y0148000D01*
X0120644Y0147928D01*
X0120644Y0147700D01*
X0120344Y0147400D01*
X0112544Y0147400D01*
X0116744Y0149800D02*
X0123344Y0156400D01*
X0126644Y0156400D01*
X0132644Y0162400D01*
X0132644Y0165100D01*
X0138644Y0171100D01*
X0172544Y0171100D01*
X0175244Y0168400D01*
X0175244Y0165100D01*
X0178544Y0161800D01*
X0178544Y0161200D01*
X0178694Y0161050D01*
X0174044Y0156400D01*
X0170644Y0156400D01*
X0178694Y0161050D02*
X0178844Y0161200D01*
X0205844Y0161200D01*
X0210644Y0156400D01*
X0215444Y0154600D02*
X0215444Y0168400D01*
X0211544Y0172300D01*
X0138044Y0172300D01*
X0131444Y0165700D01*
X0140644Y0166400D02*
X0140744Y0166600D01*
X0150644Y0166600D01*
X0150644Y0166400D01*
X0150644Y0166600D02*
X0160544Y0166600D01*
X0160644Y0166400D01*
X0160844Y0166600D01*
X0170444Y0166600D01*
X0170644Y0166400D01*
X0180644Y0166400D02*
X0180644Y0166600D01*
X0190544Y0166600D01*
X0190644Y0166400D01*
X0200644Y0166400D02*
X0200744Y0166600D01*
X0210644Y0166600D01*
X0210644Y0166400D01*
X0176644Y0138872D02*
X0176744Y0138700D01*
X0165644Y0143500D02*
X0159044Y0143500D01*
X0156644Y0144700D02*
X0141644Y0144700D01*
X0138644Y0147700D01*
X0134744Y0147700D01*
X0134644Y0147928D01*
X0125444Y0150100D02*
X0123344Y0148000D01*
X0145175Y0140489D02*
X0149114Y0140489D01*
X0149111Y0139890D02*
X0145178Y0139890D01*
X0145178Y0139292D02*
X0149111Y0139292D01*
X0163244Y0147700D02*
X0168644Y0147700D01*
X0168644Y0147928D01*
X0160644Y0156400D02*
X0157244Y0156400D01*
X0152444Y0161200D01*
X0151596Y0120738D02*
X0155693Y0120738D01*
X0146890Y0119541D02*
X0146744Y0119541D01*
X0191388Y0117147D02*
X0192044Y0117147D01*
X0192044Y0117745D02*
X0191987Y0117745D01*
X0174044Y0048318D02*
X0162308Y0048318D01*
X0162907Y0047720D02*
X0174044Y0047720D01*
X0174044Y0047121D02*
X0163094Y0047121D01*
X0163094Y0046523D02*
X0174044Y0046523D01*
X0174044Y0045924D02*
X0163217Y0045924D01*
X0163816Y0045326D02*
X0174044Y0045326D01*
X0174044Y0044727D02*
X0164414Y0044727D01*
X0165013Y0044129D02*
X0174044Y0044129D01*
X0174044Y0043530D02*
X0165611Y0043530D01*
X0166210Y0042932D02*
X0174044Y0042932D01*
X0174044Y0042333D02*
X0166809Y0042333D01*
X0167407Y0041734D02*
X0174044Y0041734D01*
X0174044Y0041136D02*
X0168006Y0041136D01*
X0168604Y0040537D02*
X0168641Y0040537D01*
X0172648Y0040537D02*
X0174044Y0040537D01*
X0174044Y0039939D02*
X0173533Y0039939D01*
X0170744Y0036700D02*
X0170644Y0036605D01*
X0170744Y0036700D02*
X0160844Y0046600D01*
X0158344Y0036348D02*
X0166244Y0036348D01*
X0166244Y0035749D02*
X0158344Y0035749D01*
X0158344Y0035151D02*
X0166484Y0035151D01*
X0166732Y0034552D02*
X0158344Y0034552D01*
X0158344Y0033954D02*
X0167073Y0033954D01*
X0167671Y0033355D02*
X0158344Y0033355D01*
X0158344Y0032757D02*
X0168436Y0032757D01*
X0158533Y0027370D02*
X0158344Y0027370D01*
X0131550Y0042959D02*
X0131444Y0043000D01*
X0127544Y0043000D01*
X0122144Y0048400D01*
X0122144Y0049000D01*
D35*
X0122144Y0049000D03*
X0118844Y0049000D03*
X0114044Y0048700D03*
X0115844Y0053800D03*
X0112544Y0057100D03*
X0109244Y0057100D03*
X0105944Y0057100D03*
X0102644Y0057100D03*
X0105944Y0053800D03*
X0096344Y0057100D03*
X0094244Y0052600D03*
X0084044Y0053800D03*
X0084044Y0050500D03*
X0085244Y0045700D03*
X0098644Y0042100D03*
X0101244Y0038900D03*
X0105344Y0042200D03*
X0108544Y0038900D03*
X0112944Y0042300D03*
X0117044Y0038600D03*
X0126944Y0046900D03*
X0125444Y0050200D03*
X0122744Y0056500D03*
X0135344Y0064300D03*
X0142844Y0064300D03*
X0147344Y0065500D03*
X0150344Y0063700D03*
X0150044Y0074800D03*
X0134144Y0076000D03*
X0126944Y0074800D03*
X0110744Y0090400D03*
X0105944Y0090100D03*
X0105944Y0086800D03*
X0105944Y0093400D03*
X0106544Y0105100D03*
X0118844Y0113800D03*
X0123644Y0118700D03*
X0109544Y0116200D03*
X0101144Y0118000D03*
X0096444Y0119200D03*
X0095844Y0122400D03*
X0093044Y0120500D03*
X0089744Y0118000D03*
X0088644Y0124100D03*
X0090844Y0126500D03*
X0086144Y0133600D03*
X0082244Y0128800D03*
X0079844Y0131200D03*
X0070544Y0131300D03*
X0063944Y0132000D03*
X0057044Y0132200D03*
X0055844Y0135700D03*
X0046244Y0129100D03*
X0051344Y0117100D03*
X0047444Y0106600D03*
X0057044Y0103000D03*
X0061244Y0093100D03*
X0068444Y0118400D03*
X0071144Y0122500D03*
X0099444Y0139400D03*
X0102944Y0138300D03*
X0100444Y0135700D03*
X0104144Y0131700D03*
X0112144Y0139700D03*
X0112544Y0147400D03*
X0122144Y0151900D03*
X0123344Y0144700D03*
X0125744Y0142300D03*
X0146444Y0149500D03*
X0155744Y0147100D03*
X0159044Y0143800D03*
X0163244Y0147700D03*
X0188144Y0150700D03*
X0191744Y0150700D03*
X0142244Y0124900D03*
X0098144Y0144700D03*
X0152444Y0091300D03*
X0160344Y0051500D03*
X0164744Y0049600D03*
X0160844Y0046600D03*
X0159744Y0041600D03*
X0162544Y0039800D03*
X0164544Y0036900D03*
X0159844Y0031600D03*
X0163444Y0028400D03*
X0159644Y0025300D03*
X0169544Y0026200D03*
X0150344Y0031900D03*
X0144944Y0040000D03*
X0150344Y0041800D03*
X0142244Y0046600D03*
X0168444Y0048500D03*
X0172144Y0048600D03*
X0091844Y0065500D03*
X0088544Y0065500D03*
X0071744Y0062500D03*
X0063044Y0058600D03*
X0039644Y0047800D03*
X0016244Y0056200D03*
D36*
X0017444Y0055000D01*
X0017444Y0052000D01*
X0017644Y0051943D01*
X0028844Y0054100D02*
X0029204Y0052042D01*
X0029444Y0052000D01*
X0035444Y0052000D01*
X0035644Y0051943D01*
X0028844Y0054100D02*
X0028844Y0067600D01*
X0031044Y0069500D01*
X0028001Y0069500D01*
X0028001Y0079500D01*
X0022144Y0079500D01*
X0021944Y0079600D01*
X0021788Y0079500D01*
X0022144Y0079500D02*
X0022144Y0089700D01*
X0031244Y0089700D02*
X0036601Y0089700D01*
X0043044Y0078743D01*
X0044288Y0077500D01*
X0060344Y0077500D01*
X0068194Y0069650D01*
X0068194Y0067850D01*
X0064201Y0063300D02*
X0063644Y0063300D01*
X0061244Y0062800D01*
X0056844Y0062800D01*
X0055944Y0060900D01*
X0051094Y0056050D01*
X0050444Y0055400D01*
X0064201Y0063300D02*
X0068701Y0058800D01*
X0056744Y0085257D02*
X0056744Y0085300D01*
X0056744Y0085257D01*
X0091744Y0086725D02*
X0091744Y0099100D01*
X0093094Y0110650D02*
X0093094Y0111050D01*
X0090144Y0114000D01*
X0091744Y0086725D02*
X0099351Y0086725D01*
X0132344Y0092200D02*
X0132688Y0091843D01*
X0036944Y0114400D02*
X0036944Y0131500D01*
X0037544Y0132900D01*
D37*
X0042744Y0126500D03*
X0044144Y0122000D03*
X0048644Y0121500D03*
X0058244Y0112700D03*
X0074244Y0107200D03*
X0078144Y0101800D03*
X0079644Y0087400D03*
X0071444Y0084000D03*
X0067944Y0088200D03*
X0076144Y0081200D03*
X0057244Y0069200D03*
X0047844Y0064800D03*
X0038444Y0064500D03*
X0022944Y0065100D03*
X0022844Y0061300D03*
X0013344Y0061200D03*
X0014144Y0065600D03*
X0014844Y0101800D03*
X0020044Y0105900D03*
X0029444Y0101900D03*
X0034344Y0104700D03*
X0037044Y0100600D03*
X0017544Y0132800D03*
X0014144Y0152000D03*
X0044744Y0158500D03*
X0047544Y0164600D03*
X0046044Y0150200D03*
X0046844Y0145700D03*
X0056344Y0149000D03*
X0057944Y0144500D03*
X0114044Y0118000D03*
X0114344Y0110500D03*
X0115844Y0106400D03*
X0116644Y0102100D03*
X0121044Y0101200D03*
X0134744Y0107700D03*
X0134244Y0117000D03*
X0141044Y0117800D03*
X0148644Y0109600D03*
X0149044Y0104400D03*
X0148844Y0097200D03*
X0148244Y0087300D03*
X0148844Y0083900D03*
X0160044Y0082400D03*
X0164844Y0086800D03*
X0160544Y0094500D03*
X0163944Y0098400D03*
X0170444Y0102200D03*
X0160644Y0105900D03*
X0160044Y0112600D03*
X0153544Y0118500D03*
X0186144Y0102000D03*
X0183744Y0092000D03*
X0194044Y0080200D03*
X0181044Y0049400D03*
X0190144Y0047500D03*
X0189844Y0041900D03*
X0181144Y0041000D03*
X0190144Y0035200D03*
X0198944Y0030800D03*
X0188144Y0025800D03*
X0181644Y0029400D03*
X0180044Y0033200D03*
X0214444Y0020700D03*
X0229844Y0023100D03*
X0133244Y0091900D03*
X0106644Y0098600D03*
X0230144Y0155900D03*
X0230044Y0166000D03*
X0230144Y0171200D03*
X0245444Y0155300D03*
D38*
X0209144Y0087900D02*
X0204088Y0087900D01*
X0190844Y0068857D02*
X0190844Y0063700D01*
X0128138Y0107198D02*
X0128138Y0109757D01*
X0099430Y0102000D02*
X0099351Y0102080D01*
X0077944Y0114000D02*
X0065564Y0114000D01*
X0065238Y0114326D01*
X0060213Y0112600D02*
X0060213Y0106720D01*
X0060244Y0106720D01*
X0060244Y0101700D01*
X0063264Y0101700D01*
X0056344Y0106720D02*
X0056344Y0112600D01*
X0060213Y0112600D01*
X0056344Y0106720D02*
X0056276Y0106720D01*
D39*
X0053544Y0096700D02*
X0051244Y0096700D01*
X0040801Y0100600D02*
X0040801Y0102000D01*
X0040801Y0100600D02*
X0037044Y0100600D01*
X0091744Y0099520D02*
X0091744Y0099400D01*
X0091744Y0099520D02*
X0099351Y0099520D01*
X0099351Y0089284D02*
X0099351Y0086725D01*
X0114344Y0094402D02*
X0128138Y0094402D01*
X0128138Y0091843D01*
X0114344Y0094402D02*
X0114344Y0102300D01*
X0114344Y0107400D01*
X0127936Y0107400D01*
X0128138Y0107198D01*
X0099351Y0109757D02*
X0099351Y0112316D01*
X0099351Y0114875D01*
X0101744Y0070100D02*
X0101744Y0061404D01*
X0101550Y0061404D01*
X0119739Y0061404D02*
X0119739Y0053353D01*
X0131550Y0053353D01*
X0119744Y0061404D02*
X0119744Y0070100D01*
X0119739Y0061404D02*
X0119744Y0061404D01*
D40*
X0099351Y0102080D02*
X0099351Y0102300D01*
X0114344Y0102300D01*
X0053225Y0103669D02*
X0050344Y0103669D01*
D41*
X0193544Y0082332D02*
X0193544Y0078468D01*
X0193600Y0078468D01*
X0194157Y0077912D01*
X0194157Y0073975D01*
X0193600Y0073419D01*
X0193544Y0073419D01*
X0193544Y0071381D01*
X0193600Y0071381D01*
X0194157Y0070825D01*
X0194157Y0066888D01*
X0193600Y0066332D01*
X0193544Y0066332D01*
X0193544Y0064580D01*
X0193676Y0064263D01*
X0193676Y0063137D01*
X0193544Y0062820D01*
X0193544Y0026053D01*
X0193794Y0026157D01*
X0193794Y0063318D01*
X0194527Y0064050D01*
X0195594Y0065118D01*
X0195594Y0084588D01*
X0195033Y0084588D01*
X0194494Y0085126D01*
X0194494Y0083282D01*
X0193544Y0082332D01*
X0193844Y0082632D02*
X0193844Y0078224D01*
X0194157Y0077800D02*
X0195594Y0077800D01*
X0198094Y0077800D02*
X0205223Y0077800D01*
X0205110Y0077711D02*
X0205051Y0077711D01*
X0204839Y0077499D01*
X0204602Y0077313D01*
X0204595Y0077255D01*
X0202790Y0075450D01*
X0202731Y0075443D01*
X0202546Y0075206D01*
X0202333Y0074993D01*
X0202333Y0074934D01*
X0200759Y0072925D01*
X0200702Y0072911D01*
X0200546Y0072653D01*
X0200361Y0072417D01*
X0200368Y0072358D01*
X0199047Y0070174D01*
X0198992Y0070153D01*
X0198869Y0069879D01*
X0198713Y0069621D01*
X0198727Y0069564D01*
X0198094Y0068158D01*
X0198094Y0084588D01*
X0198969Y0084588D01*
X0199526Y0085144D01*
X0199526Y0090656D01*
X0198969Y0091212D01*
X0195033Y0091212D01*
X0194494Y0090674D01*
X0194494Y0123182D01*
X0199777Y0128465D01*
X0199754Y0128414D01*
X0199599Y0128157D01*
X0199613Y0128099D01*
X0198614Y0125881D01*
X0198562Y0125854D01*
X0198473Y0125567D01*
X0198349Y0125293D01*
X0198370Y0125238D01*
X0197647Y0122916D01*
X0197598Y0122882D01*
X0197544Y0122587D01*
X0197455Y0122300D01*
X0197482Y0122248D01*
X0197044Y0119855D01*
X0197000Y0119816D01*
X0196981Y0119516D01*
X0196927Y0119220D01*
X0196961Y0119172D01*
X0196816Y0116773D01*
X0196794Y0116752D01*
X0196794Y0116426D01*
X0196775Y0116100D01*
X0196794Y0116078D01*
X0196794Y0113722D01*
X0196775Y0113700D01*
X0196794Y0113374D01*
X0196794Y0113048D01*
X0196816Y0113027D01*
X0196968Y0110508D01*
X0196935Y0110459D01*
X0196989Y0110163D01*
X0197007Y0109863D01*
X0197051Y0109824D01*
X0197511Y0107313D01*
X0197484Y0107261D01*
X0197573Y0106974D01*
X0197627Y0106678D01*
X0197676Y0106645D01*
X0198435Y0104207D01*
X0198414Y0104152D01*
X0198538Y0103878D01*
X0198627Y0103591D01*
X0198679Y0103564D01*
X0199727Y0101236D01*
X0199713Y0101179D01*
X0199869Y0100921D01*
X0199992Y0100647D01*
X0200047Y0100626D01*
X0201368Y0098442D01*
X0201361Y0098383D01*
X0201546Y0098147D01*
X0201702Y0097889D01*
X0201759Y0097875D01*
X0203333Y0095865D01*
X0203333Y0095807D01*
X0203546Y0095594D01*
X0203731Y0095357D01*
X0203790Y0095350D01*
X0205595Y0093545D01*
X0205602Y0093487D01*
X0205839Y0093301D01*
X0206051Y0093089D01*
X0206110Y0093089D01*
X0208120Y0091514D01*
X0208134Y0091457D01*
X0208391Y0091302D01*
X0208628Y0091116D01*
X0208686Y0091123D01*
X0209335Y0090731D01*
X0208581Y0090731D01*
X0207541Y0090300D01*
X0206744Y0089504D01*
X0206681Y0089350D01*
X0206613Y0089350D01*
X0206613Y0090656D01*
X0206056Y0091212D01*
X0202119Y0091212D01*
X0201563Y0090656D01*
X0201563Y0085144D01*
X0202119Y0084588D01*
X0206056Y0084588D01*
X0206613Y0085144D01*
X0206613Y0086450D01*
X0206681Y0086450D01*
X0206744Y0086296D01*
X0207541Y0085500D01*
X0208581Y0085069D01*
X0209708Y0085069D01*
X0210748Y0085500D01*
X0211545Y0086296D01*
X0211976Y0087337D01*
X0211976Y0088463D01*
X0211570Y0089442D01*
X0213808Y0088435D01*
X0213836Y0088383D01*
X0214123Y0088293D01*
X0214397Y0088170D01*
X0214452Y0088191D01*
X0216889Y0087431D01*
X0216923Y0087383D01*
X0217219Y0087329D01*
X0217506Y0087239D01*
X0217558Y0087267D01*
X0220069Y0086806D01*
X0220108Y0086762D01*
X0220408Y0086744D01*
X0220704Y0086690D01*
X0220752Y0086723D01*
X0223271Y0086571D01*
X0223292Y0086550D01*
X0223619Y0086550D01*
X0223945Y0086530D01*
X0223967Y0086550D01*
X0225322Y0086550D01*
X0225344Y0086530D01*
X0225670Y0086550D01*
X0225997Y0086550D01*
X0226018Y0086571D01*
X0228537Y0086723D01*
X0228585Y0086690D01*
X0228881Y0086744D01*
X0229181Y0086762D01*
X0229220Y0086806D01*
X0231731Y0087267D01*
X0231783Y0087239D01*
X0232070Y0087329D01*
X0232366Y0087383D01*
X0232400Y0087431D01*
X0234837Y0088191D01*
X0234892Y0088170D01*
X0235166Y0088293D01*
X0235453Y0088383D01*
X0235481Y0088435D01*
X0237809Y0089483D01*
X0237866Y0089469D01*
X0238123Y0089624D01*
X0238397Y0089748D01*
X0238418Y0089802D01*
X0240603Y0091123D01*
X0240661Y0091116D01*
X0240898Y0091302D01*
X0241155Y0091457D01*
X0241169Y0091514D01*
X0243179Y0093089D01*
X0243238Y0093089D01*
X0243450Y0093301D01*
X0243687Y0093487D01*
X0243694Y0093545D01*
X0245499Y0095350D01*
X0245558Y0095357D01*
X0245743Y0095594D01*
X0245956Y0095807D01*
X0245956Y0095865D01*
X0247530Y0097875D01*
X0247587Y0097889D01*
X0247743Y0098147D01*
X0247928Y0098383D01*
X0247921Y0098442D01*
X0249242Y0100626D01*
X0249297Y0100647D01*
X0249420Y0100921D01*
X0249576Y0101179D01*
X0249562Y0101236D01*
X0250610Y0103564D01*
X0250662Y0103591D01*
X0250751Y0103878D01*
X0250875Y0104152D01*
X0250854Y0104207D01*
X0251613Y0106645D01*
X0251662Y0106678D01*
X0251716Y0106974D01*
X0251805Y0107261D01*
X0251778Y0107313D01*
X0252238Y0109824D01*
X0252282Y0109863D01*
X0252300Y0110163D01*
X0252354Y0110459D01*
X0252321Y0110508D01*
X0252473Y0113027D01*
X0252494Y0113048D01*
X0252494Y0113374D01*
X0252514Y0113700D01*
X0252494Y0113722D01*
X0252494Y0113752D01*
X0252264Y0113983D01*
X0252047Y0114227D01*
X0252018Y0114229D01*
X0251997Y0114250D01*
X0251670Y0114250D01*
X0251344Y0114270D01*
X0251322Y0114250D01*
X0248807Y0114250D01*
X0248798Y0114400D01*
X0248807Y0114550D01*
X0251322Y0114550D01*
X0251344Y0114530D01*
X0251670Y0114550D01*
X0251997Y0114550D01*
X0252018Y0114571D01*
X0252047Y0114573D01*
X0252264Y0114817D01*
X0252494Y0115048D01*
X0252494Y0115078D01*
X0252514Y0115100D01*
X0252494Y0115426D01*
X0252494Y0115752D01*
X0252473Y0115773D01*
X0252321Y0118292D01*
X0252354Y0118341D01*
X0252300Y0118637D01*
X0252282Y0118937D01*
X0252238Y0118976D01*
X0251778Y0121487D01*
X0251805Y0121539D01*
X0251716Y0121826D01*
X0251662Y0122122D01*
X0251613Y0122155D01*
X0250854Y0124593D01*
X0250875Y0124648D01*
X0250751Y0124922D01*
X0250662Y0125209D01*
X0250610Y0125236D01*
X0249562Y0127564D01*
X0249576Y0127621D01*
X0249420Y0127879D01*
X0249297Y0128153D01*
X0249242Y0128174D01*
X0247921Y0130358D01*
X0247928Y0130417D01*
X0247743Y0130653D01*
X0247587Y0130911D01*
X0247530Y0130925D01*
X0245956Y0132934D01*
X0245956Y0132993D01*
X0245743Y0133206D01*
X0245558Y0133443D01*
X0245499Y0133450D01*
X0243694Y0135255D01*
X0243687Y0135313D01*
X0243450Y0135499D01*
X0243238Y0135711D01*
X0243179Y0135711D01*
X0241169Y0137286D01*
X0241155Y0137343D01*
X0240898Y0137498D01*
X0240661Y0137684D01*
X0240603Y0137677D01*
X0238418Y0138998D01*
X0238397Y0139052D01*
X0238123Y0139176D01*
X0237866Y0139331D01*
X0237809Y0139317D01*
X0235481Y0140365D01*
X0235453Y0140417D01*
X0235166Y0140507D01*
X0234892Y0140630D01*
X0234837Y0140609D01*
X0232400Y0141369D01*
X0232366Y0141417D01*
X0232070Y0141471D01*
X0231783Y0141561D01*
X0231731Y0141533D01*
X0229220Y0141994D01*
X0229181Y0142038D01*
X0228881Y0142056D01*
X0228585Y0142110D01*
X0228537Y0142077D01*
X0226018Y0142229D01*
X0225997Y0142250D01*
X0225670Y0142250D01*
X0225344Y0142270D01*
X0225322Y0142250D01*
X0222967Y0142250D01*
X0222945Y0142270D01*
X0222619Y0142250D01*
X0222292Y0142250D01*
X0222271Y0142229D01*
X0219873Y0142084D01*
X0219824Y0142117D01*
X0219528Y0142063D01*
X0219228Y0142045D01*
X0219189Y0142001D01*
X0216797Y0141562D01*
X0216745Y0141590D01*
X0216458Y0141500D01*
X0216162Y0141446D01*
X0216129Y0141398D01*
X0213807Y0140674D01*
X0213752Y0140695D01*
X0213477Y0140572D01*
X0213190Y0140482D01*
X0213163Y0140430D01*
X0210945Y0139432D01*
X0210888Y0139446D01*
X0210631Y0139290D01*
X0210580Y0139267D01*
X0218362Y0147050D01*
X0219694Y0147050D01*
X0219694Y0145006D01*
X0220251Y0144450D01*
X0224038Y0144450D01*
X0224594Y0145006D01*
X0224594Y0151794D01*
X0224038Y0152350D01*
X0220251Y0152350D01*
X0219694Y0151794D01*
X0219694Y0149550D01*
X0217327Y0149550D01*
X0193544Y0125768D01*
X0193544Y0149247D01*
X0194044Y0149747D01*
X0194044Y0151653D01*
X0193544Y0152153D01*
X0193544Y0152724D01*
X0194649Y0153828D01*
X0197394Y0151082D01*
X0198127Y0150350D01*
X0212962Y0150350D01*
X0215962Y0153350D01*
X0216694Y0154082D01*
X0216694Y0168918D01*
X0212794Y0172818D01*
X0212062Y0173550D01*
X0193544Y0173550D01*
X0193544Y0173550D01*
X0219694Y0173550D01*
X0219694Y0167006D01*
X0220251Y0166450D01*
X0224038Y0166450D01*
X0224594Y0167006D01*
X0224594Y0173550D01*
X0241834Y0173550D01*
X0241074Y0172790D01*
X0239894Y0169942D01*
X0239894Y0166858D01*
X0241074Y0164010D01*
X0243254Y0161830D01*
X0246103Y0160650D01*
X0249186Y0160650D01*
X0252034Y0161830D01*
X0254215Y0164010D01*
X0254790Y0165398D01*
X0254722Y0027566D01*
X0254215Y0028790D01*
X0252034Y0030970D01*
X0249186Y0032150D01*
X0246103Y0032150D01*
X0243254Y0030970D01*
X0241074Y0028790D01*
X0239894Y0025942D01*
X0239894Y0022858D01*
X0241074Y0020010D01*
X0243254Y0017830D01*
X0244654Y0017250D01*
X0196594Y0017250D01*
X0197578Y0017658D01*
X0198887Y0018966D01*
X0199594Y0020675D01*
X0199594Y0022525D01*
X0198887Y0024234D01*
X0197578Y0025542D01*
X0196294Y0026074D01*
X0196294Y0050495D01*
X0196511Y0049313D01*
X0196484Y0049261D01*
X0196573Y0048974D01*
X0196627Y0048678D01*
X0196676Y0048645D01*
X0197435Y0046207D01*
X0197414Y0046152D01*
X0197538Y0045878D01*
X0197627Y0045591D01*
X0197679Y0045564D01*
X0198727Y0043236D01*
X0198713Y0043179D01*
X0198869Y0042921D01*
X0198992Y0042647D01*
X0199047Y0042626D01*
X0200368Y0040442D01*
X0200361Y0040383D01*
X0200546Y0040147D01*
X0200702Y0039889D01*
X0200759Y0039875D01*
X0202333Y0037865D01*
X0202333Y0037807D01*
X0202546Y0037594D01*
X0202731Y0037357D01*
X0202790Y0037350D01*
X0204595Y0035545D01*
X0204602Y0035487D01*
X0204839Y0035301D01*
X0205051Y0035089D01*
X0205110Y0035089D01*
X0207120Y0033514D01*
X0207134Y0033457D01*
X0207391Y0033302D01*
X0207628Y0033116D01*
X0207686Y0033123D01*
X0209871Y0031802D01*
X0209892Y0031748D01*
X0210166Y0031624D01*
X0210423Y0031469D01*
X0210480Y0031483D01*
X0212808Y0030435D01*
X0212836Y0030383D01*
X0213123Y0030293D01*
X0213397Y0030170D01*
X0213452Y0030191D01*
X0215889Y0029431D01*
X0215923Y0029383D01*
X0216219Y0029329D01*
X0216506Y0029239D01*
X0216558Y0029267D01*
X0219069Y0028806D01*
X0219108Y0028762D01*
X0219408Y0028744D01*
X0219704Y0028690D01*
X0219752Y0028723D01*
X0222271Y0028571D01*
X0222292Y0028550D01*
X0222619Y0028550D01*
X0222945Y0028530D01*
X0222967Y0028550D01*
X0222997Y0028550D01*
X0223227Y0028781D01*
X0223472Y0028997D01*
X0223473Y0029027D01*
X0223494Y0029048D01*
X0223494Y0029374D01*
X0223514Y0029700D01*
X0223494Y0029722D01*
X0223494Y0032237D01*
X0223644Y0032246D01*
X0223794Y0032237D01*
X0223794Y0029722D01*
X0223775Y0029700D01*
X0223794Y0029374D01*
X0223794Y0029048D01*
X0223816Y0029027D01*
X0223817Y0028997D01*
X0224062Y0028781D01*
X0224292Y0028550D01*
X0224322Y0028550D01*
X0224344Y0028530D01*
X0224670Y0028550D01*
X0224997Y0028550D01*
X0225018Y0028571D01*
X0227537Y0028723D01*
X0227585Y0028690D01*
X0227881Y0028744D01*
X0228181Y0028762D01*
X0228220Y0028806D01*
X0230731Y0029267D01*
X0230783Y0029239D01*
X0231070Y0029329D01*
X0231366Y0029383D01*
X0231400Y0029431D01*
X0233837Y0030191D01*
X0233892Y0030170D01*
X0234166Y0030293D01*
X0234453Y0030383D01*
X0234481Y0030435D01*
X0236809Y0031483D01*
X0236866Y0031469D01*
X0237123Y0031624D01*
X0237397Y0031748D01*
X0237418Y0031802D01*
X0239603Y0033123D01*
X0239661Y0033116D01*
X0239898Y0033302D01*
X0240155Y0033457D01*
X0240169Y0033514D01*
X0242179Y0035089D01*
X0242238Y0035089D01*
X0242450Y0035301D01*
X0242687Y0035487D01*
X0242694Y0035545D01*
X0244499Y0037350D01*
X0244558Y0037357D01*
X0244743Y0037594D01*
X0244956Y0037807D01*
X0244956Y0037865D01*
X0246530Y0039875D01*
X0246587Y0039889D01*
X0246743Y0040147D01*
X0246928Y0040383D01*
X0246921Y0040442D01*
X0248242Y0042626D01*
X0248297Y0042647D01*
X0248420Y0042921D01*
X0248576Y0043179D01*
X0248562Y0043236D01*
X0249610Y0045564D01*
X0249662Y0045591D01*
X0249751Y0045878D01*
X0249875Y0046152D01*
X0249854Y0046207D01*
X0250613Y0048645D01*
X0250662Y0048678D01*
X0250716Y0048974D01*
X0250805Y0049261D01*
X0250778Y0049313D01*
X0251238Y0051824D01*
X0251282Y0051863D01*
X0251300Y0052163D01*
X0251354Y0052459D01*
X0251321Y0052508D01*
X0251473Y0055027D01*
X0251494Y0055048D01*
X0251494Y0055374D01*
X0251514Y0055700D01*
X0251494Y0055722D01*
X0251494Y0058078D01*
X0251514Y0058100D01*
X0251494Y0058426D01*
X0251494Y0058752D01*
X0251473Y0058773D01*
X0251328Y0061172D01*
X0251362Y0061220D01*
X0251308Y0061516D01*
X0251289Y0061816D01*
X0251245Y0061855D01*
X0250807Y0064248D01*
X0250834Y0064300D01*
X0250745Y0064587D01*
X0250691Y0064882D01*
X0250642Y0064916D01*
X0249919Y0067238D01*
X0249939Y0067293D01*
X0249816Y0067567D01*
X0249727Y0067854D01*
X0249675Y0067881D01*
X0248676Y0070099D01*
X0248690Y0070157D01*
X0248535Y0070414D01*
X0248412Y0070688D01*
X0248357Y0070709D01*
X0247098Y0072790D01*
X0247105Y0072849D01*
X0246920Y0073085D01*
X0246764Y0073343D01*
X0246707Y0073357D01*
X0245207Y0075271D01*
X0245207Y0075330D01*
X0244995Y0075543D01*
X0244809Y0075779D01*
X0244751Y0075786D01*
X0243031Y0077506D01*
X0243024Y0077565D01*
X0242787Y0077750D01*
X0242575Y0077963D01*
X0242516Y0077963D01*
X0240601Y0079463D01*
X0240587Y0079520D01*
X0240330Y0079675D01*
X0240093Y0079861D01*
X0240035Y0079854D01*
X0237953Y0081112D01*
X0237932Y0081167D01*
X0237658Y0081290D01*
X0237401Y0081446D01*
X0237344Y0081432D01*
X0235126Y0082430D01*
X0235099Y0082482D01*
X0234812Y0082572D01*
X0234537Y0082695D01*
X0234482Y0082674D01*
X0232160Y0083398D01*
X0232127Y0083446D01*
X0231831Y0083500D01*
X0231544Y0083590D01*
X0231492Y0083562D01*
X0229100Y0084001D01*
X0229061Y0084045D01*
X0228761Y0084063D01*
X0228465Y0084117D01*
X0228416Y0084084D01*
X0226018Y0084229D01*
X0225997Y0084250D01*
X0225670Y0084250D01*
X0225344Y0084270D01*
X0225322Y0084250D01*
X0222967Y0084250D01*
X0222945Y0084270D01*
X0222619Y0084250D01*
X0222292Y0084250D01*
X0222271Y0084229D01*
X0219752Y0084077D01*
X0219704Y0084110D01*
X0219408Y0084056D01*
X0219108Y0084038D01*
X0219069Y0083994D01*
X0216558Y0083533D01*
X0216506Y0083561D01*
X0216219Y0083471D01*
X0215923Y0083417D01*
X0215889Y0083369D01*
X0213452Y0082609D01*
X0213397Y0082630D01*
X0213123Y0082507D01*
X0212836Y0082417D01*
X0212808Y0082365D01*
X0210480Y0081317D01*
X0210423Y0081331D01*
X0210166Y0081176D01*
X0209892Y0081052D01*
X0209871Y0080998D01*
X0207686Y0079677D01*
X0207628Y0079684D01*
X0207391Y0079498D01*
X0207134Y0079343D01*
X0207120Y0079286D01*
X0205110Y0077711D01*
X0204244Y0076905D02*
X0204244Y0084588D01*
X0201563Y0088200D02*
X0199526Y0088200D01*
X0199044Y0091137D02*
X0199044Y0102753D01*
X0198562Y0103800D02*
X0194494Y0103800D01*
X0194494Y0098600D02*
X0201272Y0098600D01*
X0204244Y0094895D02*
X0204244Y0091212D01*
X0205713Y0093400D02*
X0194494Y0093400D01*
X0199044Y0084663D02*
X0199044Y0070173D01*
X0195594Y0067400D02*
X0194157Y0067400D01*
X0193844Y0066576D02*
X0193844Y0063368D01*
X0193794Y0062200D02*
X0193544Y0062200D01*
X0193544Y0057000D02*
X0193794Y0057000D01*
X0193794Y0051800D02*
X0193544Y0051800D01*
X0193544Y0046600D02*
X0193794Y0046600D01*
X0196294Y0046600D02*
X0197313Y0046600D01*
X0199044Y0042627D02*
X0199044Y0023853D01*
X0196956Y0025800D02*
X0239894Y0025800D01*
X0240644Y0027752D02*
X0240644Y0033887D01*
X0243349Y0036200D02*
X0254726Y0036200D01*
X0254729Y0041400D02*
X0247501Y0041400D01*
X0245844Y0039000D02*
X0245844Y0032043D01*
X0243327Y0031000D02*
X0235736Y0031000D01*
X0235444Y0030869D02*
X0235444Y0017250D01*
X0230244Y0017250D02*
X0230244Y0029177D01*
X0225044Y0028573D02*
X0225044Y0017250D01*
X0219844Y0017250D02*
X0219844Y0028718D01*
X0223494Y0031000D02*
X0223794Y0031000D01*
X0214644Y0029819D02*
X0214644Y0017250D01*
X0209444Y0017250D02*
X0209444Y0032060D01*
X0211553Y0031000D02*
X0196294Y0031000D01*
X0193794Y0031000D02*
X0193544Y0031000D01*
X0193544Y0036200D02*
X0193794Y0036200D01*
X0196294Y0036200D02*
X0203940Y0036200D01*
X0204244Y0035895D02*
X0204244Y0017250D01*
X0199044Y0017250D02*
X0199044Y0019347D01*
X0199563Y0020600D02*
X0240830Y0020600D01*
X0240644Y0021048D02*
X0240644Y0017250D01*
X0250635Y0017250D02*
X0252034Y0017830D01*
X0254215Y0020010D01*
X0254719Y0021227D01*
X0254717Y0017250D01*
X0250635Y0017250D01*
X0251044Y0017250D02*
X0251044Y0017420D01*
X0254459Y0020600D02*
X0254718Y0020600D01*
X0254723Y0031000D02*
X0251962Y0031000D01*
X0251044Y0031380D02*
X0251044Y0050768D01*
X0251234Y0051800D02*
X0254734Y0051800D01*
X0254731Y0046600D02*
X0249976Y0046600D01*
X0251494Y0057000D02*
X0254736Y0057000D01*
X0254739Y0062200D02*
X0251182Y0062200D01*
X0251044Y0062951D02*
X0251044Y0104820D01*
X0250727Y0103800D02*
X0254759Y0103800D01*
X0254757Y0098600D02*
X0248017Y0098600D01*
X0245844Y0095695D02*
X0245844Y0074458D01*
X0247213Y0072600D02*
X0254744Y0072600D01*
X0254746Y0077800D02*
X0242737Y0077800D01*
X0240644Y0079429D02*
X0240644Y0091118D01*
X0243576Y0093400D02*
X0254754Y0093400D01*
X0254752Y0088200D02*
X0234959Y0088200D01*
X0235444Y0088380D02*
X0235444Y0082287D01*
X0233437Y0083000D02*
X0254749Y0083000D01*
X0254741Y0067400D02*
X0249891Y0067400D01*
X0230244Y0083791D02*
X0230244Y0086994D01*
X0225044Y0086550D02*
X0225044Y0084250D01*
X0219844Y0084082D02*
X0219844Y0086847D01*
X0214644Y0088131D02*
X0214644Y0082981D01*
X0214706Y0083000D02*
X0198094Y0083000D01*
X0195594Y0083000D02*
X0194212Y0083000D01*
X0193844Y0073663D02*
X0193844Y0071137D01*
X0193544Y0072600D02*
X0195594Y0072600D01*
X0198094Y0072600D02*
X0200504Y0072600D01*
X0209444Y0080740D02*
X0209444Y0085069D01*
X0211976Y0088200D02*
X0214330Y0088200D01*
X0197202Y0109000D02*
X0194494Y0109000D01*
X0194494Y0114200D02*
X0196794Y0114200D01*
X0196960Y0119400D02*
X0194494Y0119400D01*
X0195912Y0124600D02*
X0198172Y0124600D01*
X0199044Y0126837D02*
X0199044Y0127732D01*
X0197577Y0129800D02*
X0193544Y0129800D01*
X0193844Y0126068D02*
X0193844Y0149547D01*
X0194044Y0150600D02*
X0197877Y0150600D01*
X0199044Y0150350D02*
X0199044Y0131268D01*
X0202777Y0135000D02*
X0193544Y0135000D01*
X0193544Y0140200D02*
X0207977Y0140200D01*
X0209444Y0141668D02*
X0209444Y0150350D01*
X0207618Y0152850D02*
X0203671Y0152850D01*
X0205294Y0154474D01*
X0205294Y0158326D01*
X0203671Y0159950D01*
X0205327Y0159950D01*
X0206473Y0158804D01*
X0205994Y0158326D01*
X0205994Y0154474D01*
X0207618Y0152850D01*
X0205994Y0155800D02*
X0205294Y0155800D01*
X0204244Y0153424D02*
X0204244Y0152850D01*
X0204244Y0150350D02*
X0204244Y0136468D01*
X0211512Y0140200D02*
X0212652Y0140200D01*
X0214644Y0140935D02*
X0214644Y0143332D01*
X0213177Y0145400D02*
X0193544Y0145400D01*
X0193844Y0151853D02*
X0193844Y0153024D01*
X0195994Y0156018D02*
X0195294Y0156718D01*
X0195294Y0158326D01*
X0193671Y0159950D01*
X0197618Y0159950D01*
X0195994Y0158326D01*
X0195994Y0156018D01*
X0193844Y0159776D02*
X0193844Y0159950D01*
X0193844Y0162450D02*
X0193844Y0163024D01*
X0193544Y0162724D02*
X0195294Y0164474D01*
X0195294Y0168326D01*
X0193544Y0170076D01*
X0193544Y0171050D01*
X0211027Y0171050D01*
X0208718Y0171050D01*
X0205994Y0168326D01*
X0205994Y0167850D01*
X0205294Y0167850D01*
X0205294Y0168326D01*
X0202571Y0171050D01*
X0198718Y0171050D01*
X0195994Y0168326D01*
X0195994Y0164474D01*
X0198018Y0162450D01*
X0193544Y0162450D01*
X0193544Y0162724D01*
X0195294Y0166200D02*
X0195994Y0166200D01*
X0193844Y0169776D02*
X0193844Y0171050D01*
X0193844Y0173550D02*
X0193844Y0173550D01*
X0199044Y0173550D02*
X0199044Y0173550D01*
X0199044Y0171050D02*
X0199044Y0171050D01*
X0204244Y0171050D02*
X0204244Y0169376D01*
X0205294Y0165350D02*
X0205994Y0165350D01*
X0205994Y0164474D01*
X0208718Y0161750D01*
X0212571Y0161750D01*
X0214194Y0163374D01*
X0214194Y0159426D01*
X0212571Y0161050D01*
X0208718Y0161050D01*
X0208240Y0160572D01*
X0206362Y0162450D01*
X0203271Y0162450D01*
X0205294Y0164474D01*
X0205294Y0165350D01*
X0204244Y0163424D02*
X0204244Y0162450D01*
X0204244Y0159950D02*
X0204244Y0159376D01*
X0207812Y0161000D02*
X0208668Y0161000D01*
X0209444Y0161050D02*
X0209444Y0161750D01*
X0212621Y0161000D02*
X0214194Y0161000D01*
X0216694Y0161000D02*
X0245258Y0161000D01*
X0245844Y0160757D02*
X0245844Y0133105D01*
X0243949Y0135000D02*
X0254775Y0135000D01*
X0254772Y0129800D02*
X0248259Y0129800D01*
X0250856Y0124600D02*
X0254770Y0124600D01*
X0251044Y0123980D02*
X0251044Y0161420D01*
X0250031Y0161000D02*
X0254787Y0161000D01*
X0254785Y0155800D02*
X0216694Y0155800D01*
X0214644Y0152032D02*
X0214644Y0146868D01*
X0216712Y0145400D02*
X0219694Y0145400D01*
X0219844Y0144856D02*
X0219844Y0142103D01*
X0225044Y0142250D02*
X0225044Y0173550D01*
X0224594Y0171400D02*
X0240499Y0171400D01*
X0240644Y0171752D02*
X0240644Y0173550D01*
X0235444Y0173550D02*
X0235444Y0140420D01*
X0235847Y0140200D02*
X0254777Y0140200D01*
X0254780Y0145400D02*
X0224594Y0145400D01*
X0230244Y0141806D02*
X0230244Y0173550D01*
X0219694Y0171400D02*
X0214212Y0171400D01*
X0214644Y0170968D02*
X0214644Y0173550D01*
X0211027Y0171050D02*
X0211027Y0171050D01*
X0209444Y0171050D02*
X0209444Y0171050D01*
X0209444Y0173550D02*
X0209444Y0173550D01*
X0204244Y0173550D02*
X0204244Y0173550D01*
X0216694Y0166200D02*
X0240167Y0166200D01*
X0240644Y0165048D02*
X0240644Y0137682D01*
X0254782Y0150600D02*
X0224594Y0150600D01*
X0219694Y0150600D02*
X0213212Y0150600D01*
X0219844Y0151944D02*
X0219844Y0166856D01*
X0253455Y0173550D02*
X0254794Y0173550D01*
X0254793Y0171395D01*
X0254215Y0172790D01*
X0253455Y0173550D01*
X0254790Y0171400D02*
X0254793Y0171400D01*
X0254767Y0119400D02*
X0252160Y0119400D01*
X0251044Y0114550D02*
X0251044Y0114250D01*
X0252071Y0114200D02*
X0254764Y0114200D01*
X0254762Y0109000D02*
X0252087Y0109000D01*
X0199788Y0041400D02*
X0196294Y0041400D01*
X0193794Y0041400D02*
X0193544Y0041400D01*
X0193544Y0013550D02*
X0193994Y0013550D01*
X0193544Y0013100D01*
X0193544Y0013550D01*
X0193844Y0013550D02*
X0193844Y0013400D01*
D42*
X0056276Y0092343D02*
X0056276Y0096680D01*
D43*
X0051144Y0096680D02*
X0050344Y0096680D01*
X0047888Y0096680D01*
X0047888Y0102000D01*
X0047888Y0103669D01*
X0050344Y0103669D01*
X0050344Y0114326D01*
X0054411Y0114326D01*
X0054411Y0116294D01*
X0051144Y0096680D02*
X0051144Y0092343D01*
X0056276Y0092343D02*
X0056744Y0092343D01*
D44*
X0047888Y0096600D02*
X0022244Y0096600D01*
X0022244Y0089700D01*
X0022144Y0089700D01*
X0047888Y0096600D02*
X0047888Y0096680D01*
X0077944Y0114000D02*
X0077944Y0126200D01*
X0051644Y0126200D01*
X0051644Y0132857D01*
X0051644Y0132900D01*
X0042601Y0132900D01*
X0042644Y0132857D01*
X0042601Y0132900D02*
X0037544Y0132900D01*
X0034981Y0135463D01*
X0030644Y0135463D01*
X0077944Y0114000D02*
X0090144Y0114000D01*
X0093094Y0110650D02*
X0091444Y0109000D01*
X0093094Y0110650D02*
X0097319Y0114875D01*
X0099351Y0114875D01*
D45*
X0091744Y0109000D02*
X0091444Y0109000D01*
X0091744Y0109000D02*
X0091744Y0099400D01*
X0091744Y0099100D01*
X0099351Y0086725D02*
X0099351Y0070394D01*
X0099644Y0070100D01*
X0101744Y0070100D01*
X0119744Y0070100D01*
X0152944Y0070100D01*
X0154944Y0068100D01*
X0154944Y0021600D01*
X0099644Y0070100D02*
X0070444Y0070100D01*
X0068194Y0067850D01*
X0063644Y0063300D01*
D46*
X0050444Y0055400D03*
X0190844Y0063700D03*
X0209144Y0087900D03*
D47*
X0051094Y0056050D02*
X0051094Y0055400D01*
M02*
