%
M48
M72
T01C0.0130
T02C0.0140
T03C0.0197
T04C0.0276
T05C0.0280
T06C0.0315
T07C0.0354
T08C0.0400
T09C0.0520
T10C0.0630
T11C0.1180
%
T01
X4234Y3877
X3604Y4117
X7294Y4987
X7714Y4567
X9094Y6217
X9364Y6817
X8614Y7657
X8254Y7387
X8014Y8257
X6214Y9457
X5014Y8347
X4264Y9307
X4324Y10207
X5164Y11617
X5224Y12157
X4804Y12547
X4234Y12847
X3904Y11767
X6634Y10717
X6874Y10957
X7504Y13207
X6694Y13537
X4774Y14287
X11404Y11737
X12124Y11887
X12814Y11647
X13204Y11047
X12604Y10447
X12004Y11137
X13924Y9727
X13324Y8947
X11914Y8227
X11674Y7657
X12544Y7657
X12934Y7897
X12394Y6817
X11524Y6817
X10984Y6817
X10654Y6817
X10414Y5707
X10684Y5287
X11074Y5377
X10174Y5137
X11524Y4267
X12184Y4777
X12424Y5017
X12694Y4807
X12514Y4117
X13594Y4537
X13594Y5377
X14704Y5047
X15124Y4657
X15964Y4657
X16204Y3757
X15904Y2917
X16384Y2827
X14854Y2977
X18364Y5767
X18574Y6697
X19354Y3817
X14194Y6427
X13894Y6817
X13294Y6697
X13144Y12907
X12454Y13027
X12664Y14227
X12394Y15037
X13504Y16387
X14524Y15187
X15544Y14767
X16864Y14317
X17224Y14677
X19834Y13207
T02
X22464Y9537
X20464Y5637
T03
X18964Y7337
X18164Y7337
X17964Y7937
X18864Y8037
X17964Y8637
X18064Y9437
X18964Y9737
X18964Y9037
X19964Y9237
X20564Y8637
X19964Y8237
X18964Y10537
X17864Y11437
X17364Y12737
X16364Y12737
X15364Y12737
X14364Y12737
X16264Y11037
X16264Y10437
X16164Y9737
X14964Y9637
X14364Y7937
X15364Y5537
X15964Y5537
X16464Y5537
X14164Y3637
X8164Y3937
X8164Y5537
X7664Y5837
X6964Y6037
X7064Y7937
X6564Y8337
X7064Y8637
X7664Y9637
X7764Y10737
X9064Y10437
X10064Y10137
X10664Y10037
X10664Y10937
X10064Y11037
X10264Y11837
X9864Y12137
X10264Y12837
X9864Y13237
X8764Y13137
X8764Y13537
X7764Y13737
X7664Y12837
X6814Y12387
X6464Y12837
X5964Y13137
X6564Y11737
X7764Y11837
X7764Y12237
X5364Y11037
X5264Y10537
X3764Y11337
X3264Y10437
X3264Y9837
X3864Y7337
X4264Y7237
X2864Y5937
X2164Y5937
X1364Y5937
X1864Y4037
X2364Y4037
X10264Y8237
X10164Y9237
X10764Y9137
X11164Y14337
X10464Y14437
X4664Y15637
X3964Y15637
X4564Y16437
X3564Y17037
X2964Y16437
X1764Y15437
X1364Y14637
X1964Y13937
X1864Y13137
X18364Y12737
X24464Y14137
X25164Y14037
X25064Y14837
X24964Y15637
X25064Y9237
X24864Y8337
X25164Y7637
X23164Y2237
X22164Y2237
X21264Y2337
T04
X3064Y12756
X3064Y13543
X3064Y14331
X3064Y15118
T05
X5035Y5037
X5664Y5037
X5361Y4565
X5979Y4565
X6294Y5037
T06
X10864Y12237
X11864Y12237
X12864Y12237
X13864Y12237
X14864Y12237
X15864Y12237
X16864Y12237
X17864Y12237
X18864Y12237
X18864Y13237
X17864Y13237
X16864Y13237
X15864Y13237
X14864Y13237
X13864Y13237
X12864Y13237
X11864Y13237
X10864Y13237
T07
X17164Y10917
X17164Y8357
X17064Y6217
X17064Y3657
T08
X16764Y2187
X15764Y2087
X17764Y2087
X18764Y2187
X19764Y2087
X9064Y8537
X9064Y9537
X9064Y11237
X9064Y12237
X8664Y15637
X7664Y15637
X6664Y15637
X5664Y15637
X5664Y16637
X6664Y16637
X7664Y16637
X8664Y16637
X9664Y16637
X10664Y16637
X11664Y16637
X12664Y16637
X12664Y15637
X11664Y15637
X10664Y15637
X9664Y15637
X14064Y15637
X15064Y15637
X16064Y15637
X17064Y15637
X18064Y15637
X19064Y15637
X20064Y15637
X21064Y15637
X21064Y16637
X20064Y16637
X19064Y16637
X18064Y16637
X17064Y16637
X16064Y16637
X15064Y16637
X14064Y16637
T09
X5564Y7537
X4164Y5937
X3164Y2437
T10
X4227Y3049
X7101Y3049
T11
X1564Y2437
X1764Y16737
X24764Y16837
X24764Y2437
M30
