G75*
%MOIN*%
%OFA0B0*%
%FSLAX25Y25*%
%IPPOS*%
%LPD*%
%AMOC8*
5,1,8,0,0,1.08239X$1,22.5*
%
%ADD10C,0.00600*%
%ADD11C,0.00800*%
%ADD12C,0.00500*%
%ADD13C,0.00200*%
%ADD14C,0.00236*%
%ADD15C,0.00700*%
%ADD16C,0.03000*%
%ADD17C,0.00315*%
D10*
X0015282Y0047189D02*
X0015282Y0049551D01*
X0020007Y0049551D02*
X0020007Y0047189D01*
X0033282Y0047189D02*
X0033282Y0049551D01*
X0038007Y0049551D02*
X0038007Y0047189D01*
X0052463Y0058008D02*
X0054826Y0058008D01*
X0054826Y0062732D02*
X0052463Y0062732D01*
X0036826Y0078008D02*
X0034463Y0078008D01*
X0034463Y0082732D02*
X0036826Y0082732D01*
X0043282Y0082189D02*
X0043282Y0084551D01*
X0048007Y0084551D02*
X0048007Y0082189D01*
X0056282Y0093189D02*
X0056282Y0095551D01*
X0061007Y0095551D02*
X0061007Y0093189D01*
X0063282Y0093189D02*
X0063282Y0095551D01*
X0068007Y0095551D02*
X0068007Y0093189D01*
X0059007Y0118189D02*
X0059007Y0120551D01*
X0054282Y0120551D02*
X0054282Y0118189D01*
X0038244Y0122237D02*
X0038244Y0123372D01*
X0037677Y0123939D01*
X0036543Y0123939D01*
X0036543Y0122804D01*
X0035409Y0121670D02*
X0037677Y0121670D01*
X0038244Y0122237D01*
X0035409Y0121670D02*
X0034842Y0122237D01*
X0034842Y0123372D01*
X0035409Y0123939D01*
X0034842Y0125353D02*
X0038244Y0127622D01*
X0034842Y0127622D01*
X0034842Y0129036D02*
X0034842Y0130738D01*
X0035409Y0131305D01*
X0037677Y0131305D01*
X0038244Y0130738D01*
X0038244Y0129036D01*
X0034842Y0129036D01*
X0034942Y0132670D02*
X0036643Y0132670D01*
X0036076Y0133804D01*
X0036076Y0134372D01*
X0036643Y0134939D01*
X0037777Y0134939D01*
X0038344Y0134372D01*
X0038344Y0133237D01*
X0037777Y0132670D01*
X0034942Y0132670D02*
X0034942Y0134939D01*
X0034942Y0136353D02*
X0037210Y0136353D01*
X0038344Y0137488D01*
X0037210Y0138622D01*
X0034942Y0138622D01*
X0040282Y0137551D02*
X0040282Y0135189D01*
X0045007Y0135189D02*
X0045007Y0137551D01*
X0049282Y0137551D02*
X0049282Y0135189D01*
X0054007Y0135189D02*
X0054007Y0137551D01*
X0061282Y0141189D02*
X0061282Y0143551D01*
X0066007Y0143551D02*
X0066007Y0141189D01*
X0070282Y0141189D02*
X0070282Y0143551D01*
X0075007Y0143551D02*
X0075007Y0141189D01*
X0080282Y0141189D02*
X0080282Y0143551D01*
X0085007Y0143551D02*
X0085007Y0141189D01*
X0091282Y0141189D02*
X0091282Y0143551D01*
X0096007Y0143551D02*
X0096007Y0141189D01*
X0094144Y0151370D02*
X0091644Y0153870D01*
X0091644Y0168870D01*
X0089144Y0171370D01*
X0084144Y0171370D01*
X0081644Y0168870D01*
X0081644Y0153870D01*
X0079144Y0151370D01*
X0074144Y0151370D01*
X0071644Y0153870D01*
X0071644Y0168870D01*
X0069144Y0171370D01*
X0064144Y0171370D01*
X0061644Y0168870D01*
X0061644Y0153870D01*
X0059144Y0151370D01*
X0054144Y0151370D01*
X0051644Y0153870D01*
X0051644Y0168870D01*
X0054144Y0171370D01*
X0059144Y0171370D01*
X0061644Y0168870D01*
X0071644Y0168870D02*
X0074144Y0171370D01*
X0079144Y0171370D01*
X0081644Y0168870D01*
X0091644Y0168870D02*
X0094144Y0171370D01*
X0099144Y0171370D01*
X0101644Y0168870D01*
X0101644Y0153870D01*
X0099144Y0151370D01*
X0094144Y0151370D01*
X0091644Y0153870D02*
X0089144Y0151370D01*
X0084144Y0151370D01*
X0081644Y0153870D01*
X0071644Y0153870D02*
X0069144Y0151370D01*
X0064144Y0151370D01*
X0061644Y0153870D01*
X0048663Y0154073D02*
X0046394Y0151804D01*
X0046961Y0152372D02*
X0048663Y0150670D01*
X0046394Y0150670D02*
X0046394Y0154073D01*
X0042711Y0154073D02*
X0042711Y0150670D01*
X0044979Y0150670D01*
X0045494Y0147873D02*
X0047763Y0147873D01*
X0046628Y0147873D02*
X0046628Y0144470D01*
X0044079Y0144470D02*
X0044079Y0146739D01*
X0042945Y0147873D01*
X0041811Y0146739D01*
X0041811Y0144470D01*
X0040396Y0145037D02*
X0040396Y0147306D01*
X0039829Y0147873D01*
X0038128Y0147873D01*
X0038128Y0144470D01*
X0039829Y0144470D01*
X0040396Y0145037D01*
X0041811Y0146172D02*
X0044079Y0146172D01*
X0040729Y0150670D02*
X0041296Y0151237D01*
X0040729Y0150670D02*
X0039595Y0150670D01*
X0039028Y0151237D01*
X0039028Y0153506D01*
X0039595Y0154073D01*
X0040729Y0154073D01*
X0041296Y0153506D01*
X0037613Y0153506D02*
X0037046Y0154073D01*
X0035912Y0154073D01*
X0035344Y0153506D01*
X0035344Y0152939D01*
X0035912Y0152372D01*
X0037046Y0152372D01*
X0037613Y0151804D01*
X0037613Y0151237D01*
X0037046Y0150670D01*
X0035912Y0150670D01*
X0035344Y0151237D01*
X0035012Y0147873D02*
X0034444Y0147306D01*
X0034444Y0146739D01*
X0035012Y0146172D01*
X0036146Y0146172D01*
X0036713Y0145604D01*
X0036713Y0145037D01*
X0036146Y0144470D01*
X0035012Y0144470D01*
X0034444Y0145037D01*
X0035012Y0147873D02*
X0036146Y0147873D01*
X0036713Y0147306D01*
X0038244Y0125353D02*
X0034842Y0125353D01*
X0022826Y0082732D02*
X0020463Y0082732D01*
X0020463Y0078008D02*
X0022826Y0078008D01*
X0020007Y0070551D02*
X0020007Y0068189D01*
X0015282Y0068189D02*
X0015282Y0070551D01*
X0113578Y0030073D02*
X0113578Y0027237D01*
X0114145Y0026670D01*
X0115280Y0026670D01*
X0115847Y0027237D01*
X0115847Y0030073D01*
X0117261Y0028939D02*
X0118396Y0030073D01*
X0118396Y0026670D01*
X0119530Y0026670D02*
X0117261Y0026670D01*
X0141282Y0049189D02*
X0141282Y0051551D01*
X0146007Y0051551D02*
X0146007Y0049189D01*
X0143326Y0058508D02*
X0140963Y0058508D01*
X0140963Y0063232D02*
X0143326Y0063232D01*
X0162944Y0046073D02*
X0164646Y0046073D01*
X0165213Y0045506D01*
X0165213Y0044939D01*
X0164646Y0044372D01*
X0162944Y0044372D01*
X0162944Y0046073D02*
X0162944Y0042670D01*
X0164646Y0042670D01*
X0165213Y0043237D01*
X0165213Y0043804D01*
X0164646Y0044372D01*
X0166628Y0043237D02*
X0167195Y0042670D01*
X0168329Y0042670D01*
X0168896Y0043237D01*
X0168896Y0046073D01*
X0170311Y0046073D02*
X0172579Y0046073D01*
X0172579Y0045506D01*
X0170311Y0043237D01*
X0170311Y0042670D01*
X0172579Y0042670D01*
X0173994Y0042670D02*
X0173994Y0043237D01*
X0176263Y0045506D01*
X0176263Y0046073D01*
X0173994Y0046073D01*
X0177677Y0046073D02*
X0177677Y0042670D01*
X0179946Y0042670D01*
X0181360Y0042670D02*
X0181360Y0046073D01*
X0183062Y0046073D01*
X0183629Y0045506D01*
X0183629Y0044372D01*
X0183062Y0043804D01*
X0181360Y0043804D01*
X0182495Y0043804D02*
X0183629Y0042670D01*
X0179946Y0046073D02*
X0177677Y0046073D01*
X0177677Y0044372D02*
X0178811Y0044372D01*
X0176263Y0042670D02*
X0173994Y0042670D01*
X0166628Y0043237D02*
X0166628Y0046073D01*
X0188727Y0045506D02*
X0188727Y0043237D01*
X0190995Y0045506D01*
X0190995Y0043237D01*
X0190428Y0042670D01*
X0189294Y0042670D01*
X0188727Y0043237D01*
X0188727Y0045506D02*
X0189294Y0046073D01*
X0190428Y0046073D01*
X0190995Y0045506D01*
X0203944Y0049670D02*
X0205079Y0049670D01*
X0204512Y0049670D02*
X0204512Y0051939D01*
X0203944Y0051939D01*
X0204512Y0053073D02*
X0204512Y0053640D01*
X0206400Y0051372D02*
X0206400Y0050237D01*
X0206967Y0049670D01*
X0208101Y0049670D01*
X0208669Y0050237D01*
X0208669Y0051372D01*
X0208101Y0051939D01*
X0206967Y0051939D01*
X0206400Y0051372D01*
X0210083Y0051939D02*
X0211217Y0051939D01*
X0210650Y0052506D02*
X0210650Y0050237D01*
X0211217Y0049670D01*
X0212538Y0050237D02*
X0212538Y0051372D01*
X0213106Y0051939D01*
X0214240Y0051939D01*
X0214807Y0051372D01*
X0214807Y0050804D01*
X0212538Y0050804D01*
X0212538Y0050237D02*
X0213106Y0049670D01*
X0214240Y0049670D01*
X0216222Y0049670D02*
X0218490Y0051939D01*
X0219905Y0051939D02*
X0219905Y0048536D01*
X0219905Y0049670D02*
X0221606Y0049670D01*
X0222173Y0050237D01*
X0222173Y0051372D01*
X0221606Y0051939D01*
X0219905Y0051939D01*
X0218490Y0049670D02*
X0216222Y0051939D01*
X0223588Y0051372D02*
X0224155Y0051939D01*
X0225289Y0051939D01*
X0225857Y0051372D01*
X0225857Y0050804D01*
X0223588Y0050804D01*
X0223588Y0050237D02*
X0223588Y0051372D01*
X0223588Y0050237D02*
X0224155Y0049670D01*
X0225289Y0049670D01*
X0227271Y0049670D02*
X0227271Y0051939D01*
X0228405Y0051939D02*
X0227271Y0050804D01*
X0228405Y0051939D02*
X0228973Y0051939D01*
X0230340Y0051939D02*
X0231475Y0051939D01*
X0230907Y0052506D02*
X0230907Y0050237D01*
X0231475Y0049670D01*
X0232796Y0049670D02*
X0232796Y0050237D01*
X0233363Y0050237D01*
X0233363Y0049670D01*
X0232796Y0049670D01*
X0234637Y0050237D02*
X0235204Y0049670D01*
X0236906Y0049670D01*
X0238320Y0050237D02*
X0238888Y0049670D01*
X0240022Y0049670D01*
X0240589Y0050237D01*
X0240589Y0051372D01*
X0240022Y0051939D01*
X0238888Y0051939D01*
X0238320Y0051372D01*
X0238320Y0050237D01*
X0236906Y0051939D02*
X0235204Y0051939D01*
X0234637Y0051372D01*
X0234637Y0050237D01*
X0242004Y0049670D02*
X0242004Y0051939D01*
X0242571Y0051939D01*
X0243138Y0051372D01*
X0243705Y0051939D01*
X0244272Y0051372D01*
X0244272Y0049670D01*
X0243138Y0049670D02*
X0243138Y0051372D01*
X0226784Y0062933D02*
X0223848Y0062933D01*
X0225316Y0062933D02*
X0225316Y0067337D01*
X0223848Y0065869D01*
X0222180Y0065869D02*
X0221446Y0065135D01*
X0219244Y0065135D01*
X0219244Y0067337D02*
X0221446Y0067337D01*
X0222180Y0066603D01*
X0222180Y0065869D01*
X0221446Y0065135D02*
X0222180Y0064401D01*
X0222180Y0063667D01*
X0221446Y0062933D01*
X0219244Y0062933D01*
X0219244Y0067337D01*
X0184995Y0090670D02*
X0182727Y0090670D01*
X0183861Y0090670D02*
X0183861Y0094073D01*
X0182727Y0092939D01*
X0177629Y0093506D02*
X0177629Y0092372D01*
X0177062Y0091804D01*
X0175360Y0091804D01*
X0175360Y0090670D02*
X0175360Y0094073D01*
X0177062Y0094073D01*
X0177629Y0093506D01*
X0176495Y0091804D02*
X0177629Y0090670D01*
X0173946Y0090670D02*
X0171677Y0090670D01*
X0171677Y0094073D01*
X0173946Y0094073D01*
X0172811Y0092372D02*
X0171677Y0092372D01*
X0170263Y0093506D02*
X0167994Y0091237D01*
X0167994Y0090670D01*
X0170263Y0090670D01*
X0166579Y0090670D02*
X0164311Y0090670D01*
X0164311Y0091237D01*
X0166579Y0093506D01*
X0166579Y0094073D01*
X0164311Y0094073D01*
X0162896Y0094073D02*
X0162896Y0091237D01*
X0162329Y0090670D01*
X0161195Y0090670D01*
X0160628Y0091237D01*
X0160628Y0094073D01*
X0159213Y0093506D02*
X0159213Y0092939D01*
X0158646Y0092372D01*
X0156944Y0092372D01*
X0156944Y0094073D02*
X0156944Y0090670D01*
X0158646Y0090670D01*
X0159213Y0091237D01*
X0159213Y0091804D01*
X0158646Y0092372D01*
X0159213Y0093506D02*
X0158646Y0094073D01*
X0156944Y0094073D01*
X0167994Y0094073D02*
X0170263Y0094073D01*
X0170263Y0093506D01*
X0210944Y0115670D02*
X0210944Y0119073D01*
X0213213Y0115670D01*
X0213213Y0119073D01*
X0214628Y0117372D02*
X0215195Y0117939D01*
X0216329Y0117939D01*
X0216896Y0117372D01*
X0216896Y0116804D01*
X0214628Y0116804D01*
X0214628Y0116237D02*
X0214628Y0117372D01*
X0214628Y0116237D02*
X0215195Y0115670D01*
X0216329Y0115670D01*
X0218311Y0116237D02*
X0218311Y0117939D01*
X0218311Y0116237D02*
X0218878Y0115670D01*
X0219445Y0116237D01*
X0220012Y0115670D01*
X0220579Y0116237D01*
X0220579Y0117939D01*
X0221994Y0117939D02*
X0223128Y0117939D01*
X0222561Y0118506D02*
X0222561Y0116237D01*
X0223128Y0115670D01*
X0224449Y0116237D02*
X0225016Y0115670D01*
X0226151Y0115670D01*
X0226718Y0116237D01*
X0226718Y0117372D01*
X0226151Y0117939D01*
X0225016Y0117939D01*
X0224449Y0117372D01*
X0224449Y0116237D01*
X0228132Y0115670D02*
X0228132Y0117939D01*
X0229834Y0117939D01*
X0230401Y0117372D01*
X0230401Y0115670D01*
X0231816Y0117939D02*
X0232383Y0118506D01*
X0232383Y0119640D01*
X0234224Y0117939D02*
X0235926Y0117939D01*
X0235359Y0116804D02*
X0234224Y0116804D01*
X0233657Y0117372D01*
X0234224Y0117939D01*
X0235359Y0116804D02*
X0235926Y0116237D01*
X0235359Y0115670D01*
X0233657Y0115670D01*
X0231629Y0111939D02*
X0229927Y0111939D01*
X0229360Y0111372D01*
X0229360Y0110237D01*
X0229927Y0109670D01*
X0231629Y0109670D01*
X0228039Y0109670D02*
X0226905Y0109670D01*
X0227472Y0109670D02*
X0227472Y0111939D01*
X0226905Y0111939D01*
X0227472Y0113073D02*
X0227472Y0113640D01*
X0225584Y0111939D02*
X0224449Y0111939D01*
X0225016Y0112506D02*
X0225016Y0110237D01*
X0225584Y0109670D01*
X0223128Y0109670D02*
X0222561Y0110237D01*
X0222561Y0112506D01*
X0221994Y0111939D02*
X0223128Y0111939D01*
X0220579Y0111939D02*
X0220579Y0109670D01*
X0220579Y0111372D02*
X0218311Y0111372D01*
X0218311Y0111939D02*
X0219445Y0113073D01*
X0220579Y0111939D01*
X0218311Y0111939D02*
X0218311Y0109670D01*
X0219637Y0122107D02*
X0221838Y0122107D01*
X0222572Y0122841D01*
X0222572Y0123575D01*
X0221838Y0124309D01*
X0219637Y0124309D01*
X0221838Y0124309D02*
X0222572Y0125043D01*
X0222572Y0125777D01*
X0221838Y0126511D01*
X0219637Y0126511D01*
X0219637Y0122107D01*
X0224241Y0122841D02*
X0224241Y0125777D01*
X0224975Y0126511D01*
X0226442Y0126511D01*
X0227176Y0125777D01*
X0224241Y0122841D01*
X0224975Y0122107D01*
X0226442Y0122107D01*
X0227176Y0122841D01*
X0227176Y0125777D01*
X0213144Y0151370D02*
X0208144Y0151370D01*
X0205644Y0153870D01*
X0205644Y0168870D01*
X0203144Y0171370D01*
X0198144Y0171370D01*
X0195644Y0168870D01*
X0195644Y0153870D01*
X0193144Y0151370D01*
X0188144Y0151370D01*
X0185644Y0153870D01*
X0185644Y0168870D01*
X0183144Y0171370D01*
X0178144Y0171370D01*
X0175644Y0168870D01*
X0175644Y0153870D01*
X0173144Y0151370D01*
X0168144Y0151370D01*
X0165644Y0153870D01*
X0165644Y0168870D01*
X0163144Y0171370D01*
X0158144Y0171370D01*
X0155644Y0168870D01*
X0155644Y0153870D01*
X0153144Y0151370D01*
X0148144Y0151370D01*
X0145644Y0153870D01*
X0145644Y0168870D01*
X0148144Y0171370D01*
X0153144Y0171370D01*
X0155644Y0168870D01*
X0145644Y0168870D02*
X0143144Y0171370D01*
X0138144Y0171370D01*
X0135644Y0168870D01*
X0135644Y0153870D01*
X0138144Y0151370D01*
X0143144Y0151370D01*
X0145644Y0153870D01*
X0155644Y0153870D02*
X0158144Y0151370D01*
X0163144Y0151370D01*
X0165644Y0153870D01*
X0175644Y0153870D02*
X0178144Y0151370D01*
X0183144Y0151370D01*
X0185644Y0153870D01*
X0195644Y0153870D02*
X0198144Y0151370D01*
X0203144Y0151370D01*
X0205644Y0153870D01*
X0213144Y0151370D02*
X0215644Y0153870D01*
X0215644Y0168870D01*
X0213144Y0171370D01*
X0208144Y0171370D01*
X0205644Y0168870D01*
X0195644Y0168870D02*
X0193144Y0171370D01*
X0188144Y0171370D01*
X0185644Y0168870D01*
X0175644Y0168870D02*
X0173144Y0171370D01*
X0168144Y0171370D01*
X0165644Y0168870D01*
X0131644Y0168870D02*
X0131644Y0153870D01*
X0129144Y0151370D01*
X0124144Y0151370D01*
X0121644Y0153870D01*
X0121644Y0168870D01*
X0119144Y0171370D01*
X0114144Y0171370D01*
X0111644Y0168870D01*
X0111644Y0153870D01*
X0109144Y0151370D01*
X0104144Y0151370D01*
X0101644Y0153870D01*
X0111644Y0153870D02*
X0114144Y0151370D01*
X0119144Y0151370D01*
X0121644Y0153870D01*
X0121644Y0168870D02*
X0124144Y0171370D01*
X0129144Y0171370D01*
X0131644Y0168870D01*
X0111644Y0168870D02*
X0109144Y0171370D01*
X0104144Y0171370D01*
X0101644Y0168870D01*
D11*
X0118085Y0146913D02*
X0118085Y0145339D01*
X0123204Y0145339D01*
X0123204Y0139827D01*
X0125085Y0139827D02*
X0125085Y0145339D01*
X0130204Y0145339D01*
X0130204Y0139827D01*
X0132085Y0139827D02*
X0132085Y0145339D01*
X0137204Y0145339D01*
X0137204Y0139827D01*
X0140085Y0139827D02*
X0140085Y0145339D01*
X0145204Y0145339D01*
X0145204Y0139827D01*
X0149085Y0139827D02*
X0149085Y0145339D01*
X0154204Y0145339D01*
X0154204Y0139827D01*
X0157085Y0139827D02*
X0157085Y0145339D01*
X0162204Y0145339D01*
X0162204Y0139827D01*
X0166085Y0139827D02*
X0166085Y0145339D01*
X0171204Y0145339D01*
X0171204Y0139827D01*
X0174085Y0139827D02*
X0174085Y0145339D01*
X0179204Y0145339D01*
X0179204Y0139827D01*
X0182085Y0139827D02*
X0182085Y0145339D01*
X0187204Y0145339D01*
X0187204Y0139827D01*
X0187204Y0145339D02*
X0187204Y0146913D01*
X0182085Y0146913D02*
X0182085Y0145339D01*
X0179204Y0145339D02*
X0179204Y0146913D01*
X0174085Y0146913D02*
X0174085Y0145339D01*
X0171204Y0145339D02*
X0171204Y0146913D01*
X0166085Y0146913D02*
X0166085Y0145339D01*
X0162204Y0145339D02*
X0162204Y0146913D01*
X0157085Y0146913D02*
X0157085Y0145339D01*
X0154204Y0145339D02*
X0154204Y0146913D01*
X0149085Y0146913D02*
X0149085Y0145339D01*
X0145204Y0145339D02*
X0145204Y0146913D01*
X0140085Y0146913D02*
X0140085Y0145339D01*
X0137204Y0145339D02*
X0137204Y0146913D01*
X0132085Y0146913D02*
X0132085Y0145339D01*
X0130204Y0145339D02*
X0130204Y0146913D01*
X0125085Y0146913D02*
X0125085Y0145339D01*
X0123204Y0145339D02*
X0123204Y0146913D01*
X0118085Y0145339D02*
X0118085Y0139827D01*
X0095644Y0124870D02*
X0095644Y0119870D01*
X0093144Y0117370D01*
X0095644Y0114870D01*
X0095644Y0109870D01*
X0093144Y0107370D01*
X0088144Y0107370D01*
X0085644Y0109870D01*
X0085644Y0114870D01*
X0088144Y0117370D01*
X0085644Y0119870D01*
X0085644Y0124870D01*
X0088144Y0127370D01*
X0093144Y0127370D01*
X0095644Y0124870D01*
X0119802Y0117102D02*
X0139487Y0117102D01*
X0139487Y0083638D01*
X0119802Y0083638D01*
X0119802Y0117102D01*
X0121766Y0114370D02*
X0121768Y0114429D01*
X0121774Y0114487D01*
X0121784Y0114545D01*
X0121797Y0114602D01*
X0121815Y0114658D01*
X0121836Y0114713D01*
X0121860Y0114766D01*
X0121889Y0114817D01*
X0121920Y0114867D01*
X0121955Y0114914D01*
X0121993Y0114959D01*
X0122034Y0115001D01*
X0122077Y0115040D01*
X0122123Y0115077D01*
X0122172Y0115110D01*
X0122222Y0115140D01*
X0122274Y0115166D01*
X0122328Y0115189D01*
X0122384Y0115209D01*
X0122440Y0115224D01*
X0122498Y0115236D01*
X0122556Y0115244D01*
X0122615Y0115248D01*
X0122673Y0115248D01*
X0122732Y0115244D01*
X0122790Y0115236D01*
X0122848Y0115224D01*
X0122904Y0115209D01*
X0122960Y0115189D01*
X0123014Y0115166D01*
X0123066Y0115140D01*
X0123116Y0115110D01*
X0123165Y0115077D01*
X0123211Y0115040D01*
X0123254Y0115001D01*
X0123295Y0114959D01*
X0123333Y0114914D01*
X0123368Y0114867D01*
X0123399Y0114817D01*
X0123428Y0114766D01*
X0123452Y0114713D01*
X0123473Y0114658D01*
X0123491Y0114602D01*
X0123504Y0114545D01*
X0123514Y0114487D01*
X0123520Y0114429D01*
X0123522Y0114370D01*
X0123520Y0114311D01*
X0123514Y0114253D01*
X0123504Y0114195D01*
X0123491Y0114138D01*
X0123473Y0114082D01*
X0123452Y0114027D01*
X0123428Y0113974D01*
X0123399Y0113923D01*
X0123368Y0113873D01*
X0123333Y0113826D01*
X0123295Y0113781D01*
X0123254Y0113739D01*
X0123211Y0113700D01*
X0123165Y0113663D01*
X0123116Y0113630D01*
X0123066Y0113600D01*
X0123014Y0113574D01*
X0122960Y0113551D01*
X0122904Y0113531D01*
X0122848Y0113516D01*
X0122790Y0113504D01*
X0122732Y0113496D01*
X0122673Y0113492D01*
X0122615Y0113492D01*
X0122556Y0113496D01*
X0122498Y0113504D01*
X0122440Y0113516D01*
X0122384Y0113531D01*
X0122328Y0113551D01*
X0122274Y0113574D01*
X0122222Y0113600D01*
X0122172Y0113630D01*
X0122123Y0113663D01*
X0122077Y0113700D01*
X0122034Y0113739D01*
X0121993Y0113781D01*
X0121955Y0113826D01*
X0121920Y0113873D01*
X0121889Y0113923D01*
X0121860Y0113974D01*
X0121836Y0114027D01*
X0121815Y0114082D01*
X0121797Y0114138D01*
X0121784Y0114195D01*
X0121774Y0114253D01*
X0121768Y0114311D01*
X0121766Y0114370D01*
X0095644Y0097870D02*
X0093144Y0100370D01*
X0088144Y0100370D01*
X0085644Y0097870D01*
X0085644Y0092870D01*
X0088144Y0090370D01*
X0085644Y0087870D01*
X0085644Y0082870D01*
X0088144Y0080370D01*
X0093144Y0080370D01*
X0095644Y0082870D01*
X0095644Y0087870D01*
X0093144Y0090370D01*
X0095644Y0092870D01*
X0095644Y0097870D01*
X0040544Y0094870D02*
X0014744Y0094870D01*
X0014744Y0107870D01*
X0040544Y0107870D01*
X0040544Y0094870D01*
X0036944Y0119882D02*
X0007022Y0119882D01*
X0007022Y0158858D01*
X0036944Y0158858D01*
X0036944Y0156299D01*
X0030644Y0156299D01*
X0030644Y0122441D02*
X0036944Y0122441D01*
X0036944Y0119882D01*
X0042471Y0053913D02*
X0042471Y0036591D01*
X0030975Y0045614D02*
X0030975Y0048764D01*
X0030975Y0045614D02*
X0029794Y0045614D01*
X0023495Y0045614D02*
X0022314Y0045614D01*
X0022314Y0048764D01*
X0042471Y0053913D02*
X0070818Y0053913D01*
X0070818Y0036591D01*
X0070818Y0024386D02*
X0070818Y0017299D01*
X0042471Y0017299D01*
X0042471Y0024386D01*
X0152644Y0023870D02*
X0152644Y0018870D01*
X0155144Y0016370D01*
X0160144Y0016370D01*
X0162644Y0018870D01*
X0165144Y0016370D01*
X0170144Y0016370D01*
X0172644Y0018870D01*
X0175144Y0016370D01*
X0180144Y0016370D01*
X0182644Y0018870D01*
X0185144Y0016370D01*
X0190144Y0016370D01*
X0192644Y0018870D01*
X0195144Y0016370D01*
X0200144Y0016370D01*
X0202644Y0018870D01*
X0202644Y0023870D01*
X0200144Y0026370D01*
X0195144Y0026370D01*
X0192644Y0023870D01*
X0190144Y0026370D01*
X0185144Y0026370D01*
X0182644Y0023870D01*
X0180144Y0026370D01*
X0175144Y0026370D01*
X0172644Y0023870D01*
X0170144Y0026370D01*
X0165144Y0026370D01*
X0162644Y0023870D01*
X0160144Y0026370D01*
X0155144Y0026370D01*
X0152644Y0023870D01*
X0147416Y0049370D02*
X0147423Y0049940D01*
X0147444Y0050510D01*
X0147479Y0051079D01*
X0147528Y0051647D01*
X0147591Y0052213D01*
X0147667Y0052778D01*
X0147758Y0053341D01*
X0147862Y0053902D01*
X0147980Y0054459D01*
X0148112Y0055014D01*
X0148257Y0055565D01*
X0148416Y0056113D01*
X0148588Y0056656D01*
X0148774Y0057195D01*
X0148972Y0057730D01*
X0149184Y0058259D01*
X0149409Y0058783D01*
X0149646Y0059301D01*
X0149896Y0059814D01*
X0150159Y0060320D01*
X0150434Y0060819D01*
X0150721Y0061312D01*
X0151020Y0061797D01*
X0151331Y0062275D01*
X0151653Y0062745D01*
X0151987Y0063207D01*
X0152332Y0063661D01*
X0152689Y0064106D01*
X0153056Y0064542D01*
X0153433Y0064969D01*
X0153821Y0065387D01*
X0154219Y0065795D01*
X0154627Y0066193D01*
X0155045Y0066581D01*
X0155472Y0066958D01*
X0155908Y0067325D01*
X0156353Y0067682D01*
X0156807Y0068027D01*
X0157269Y0068361D01*
X0157739Y0068683D01*
X0158217Y0068994D01*
X0158702Y0069293D01*
X0159195Y0069580D01*
X0159694Y0069855D01*
X0160200Y0070118D01*
X0160713Y0070368D01*
X0161231Y0070605D01*
X0161755Y0070830D01*
X0162284Y0071042D01*
X0162819Y0071240D01*
X0163358Y0071426D01*
X0163901Y0071598D01*
X0164449Y0071757D01*
X0165000Y0071902D01*
X0165555Y0072034D01*
X0166112Y0072152D01*
X0166673Y0072256D01*
X0167236Y0072347D01*
X0167801Y0072423D01*
X0168367Y0072486D01*
X0168935Y0072535D01*
X0169504Y0072570D01*
X0170074Y0072591D01*
X0170644Y0072598D01*
X0171214Y0072591D01*
X0171784Y0072570D01*
X0172353Y0072535D01*
X0172921Y0072486D01*
X0173487Y0072423D01*
X0174052Y0072347D01*
X0174615Y0072256D01*
X0175176Y0072152D01*
X0175733Y0072034D01*
X0176288Y0071902D01*
X0176839Y0071757D01*
X0177387Y0071598D01*
X0177930Y0071426D01*
X0178469Y0071240D01*
X0179004Y0071042D01*
X0179533Y0070830D01*
X0180057Y0070605D01*
X0180575Y0070368D01*
X0181088Y0070118D01*
X0181594Y0069855D01*
X0182093Y0069580D01*
X0182586Y0069293D01*
X0183071Y0068994D01*
X0183549Y0068683D01*
X0184019Y0068361D01*
X0184481Y0068027D01*
X0184935Y0067682D01*
X0185380Y0067325D01*
X0185816Y0066958D01*
X0186243Y0066581D01*
X0186661Y0066193D01*
X0187069Y0065795D01*
X0187467Y0065387D01*
X0187855Y0064969D01*
X0188232Y0064542D01*
X0188599Y0064106D01*
X0188956Y0063661D01*
X0189301Y0063207D01*
X0189635Y0062745D01*
X0189957Y0062275D01*
X0190268Y0061797D01*
X0190567Y0061312D01*
X0190854Y0060819D01*
X0191129Y0060320D01*
X0191392Y0059814D01*
X0191642Y0059301D01*
X0191879Y0058783D01*
X0192104Y0058259D01*
X0192316Y0057730D01*
X0192514Y0057195D01*
X0192700Y0056656D01*
X0192872Y0056113D01*
X0193031Y0055565D01*
X0193176Y0055014D01*
X0193308Y0054459D01*
X0193426Y0053902D01*
X0193530Y0053341D01*
X0193621Y0052778D01*
X0193697Y0052213D01*
X0193760Y0051647D01*
X0193809Y0051079D01*
X0193844Y0050510D01*
X0193865Y0049940D01*
X0193872Y0049370D01*
X0193865Y0048800D01*
X0193844Y0048230D01*
X0193809Y0047661D01*
X0193760Y0047093D01*
X0193697Y0046527D01*
X0193621Y0045962D01*
X0193530Y0045399D01*
X0193426Y0044838D01*
X0193308Y0044281D01*
X0193176Y0043726D01*
X0193031Y0043175D01*
X0192872Y0042627D01*
X0192700Y0042084D01*
X0192514Y0041545D01*
X0192316Y0041010D01*
X0192104Y0040481D01*
X0191879Y0039957D01*
X0191642Y0039439D01*
X0191392Y0038926D01*
X0191129Y0038420D01*
X0190854Y0037921D01*
X0190567Y0037428D01*
X0190268Y0036943D01*
X0189957Y0036465D01*
X0189635Y0035995D01*
X0189301Y0035533D01*
X0188956Y0035079D01*
X0188599Y0034634D01*
X0188232Y0034198D01*
X0187855Y0033771D01*
X0187467Y0033353D01*
X0187069Y0032945D01*
X0186661Y0032547D01*
X0186243Y0032159D01*
X0185816Y0031782D01*
X0185380Y0031415D01*
X0184935Y0031058D01*
X0184481Y0030713D01*
X0184019Y0030379D01*
X0183549Y0030057D01*
X0183071Y0029746D01*
X0182586Y0029447D01*
X0182093Y0029160D01*
X0181594Y0028885D01*
X0181088Y0028622D01*
X0180575Y0028372D01*
X0180057Y0028135D01*
X0179533Y0027910D01*
X0179004Y0027698D01*
X0178469Y0027500D01*
X0177930Y0027314D01*
X0177387Y0027142D01*
X0176839Y0026983D01*
X0176288Y0026838D01*
X0175733Y0026706D01*
X0175176Y0026588D01*
X0174615Y0026484D01*
X0174052Y0026393D01*
X0173487Y0026317D01*
X0172921Y0026254D01*
X0172353Y0026205D01*
X0171784Y0026170D01*
X0171214Y0026149D01*
X0170644Y0026142D01*
X0170074Y0026149D01*
X0169504Y0026170D01*
X0168935Y0026205D01*
X0168367Y0026254D01*
X0167801Y0026317D01*
X0167236Y0026393D01*
X0166673Y0026484D01*
X0166112Y0026588D01*
X0165555Y0026706D01*
X0165000Y0026838D01*
X0164449Y0026983D01*
X0163901Y0027142D01*
X0163358Y0027314D01*
X0162819Y0027500D01*
X0162284Y0027698D01*
X0161755Y0027910D01*
X0161231Y0028135D01*
X0160713Y0028372D01*
X0160200Y0028622D01*
X0159694Y0028885D01*
X0159195Y0029160D01*
X0158702Y0029447D01*
X0158217Y0029746D01*
X0157739Y0030057D01*
X0157269Y0030379D01*
X0156807Y0030713D01*
X0156353Y0031058D01*
X0155908Y0031415D01*
X0155472Y0031782D01*
X0155045Y0032159D01*
X0154627Y0032547D01*
X0154219Y0032945D01*
X0153821Y0033353D01*
X0153433Y0033771D01*
X0153056Y0034198D01*
X0152689Y0034634D01*
X0152332Y0035079D01*
X0151987Y0035533D01*
X0151653Y0035995D01*
X0151331Y0036465D01*
X0151020Y0036943D01*
X0150721Y0037428D01*
X0150434Y0037921D01*
X0150159Y0038420D01*
X0149896Y0038926D01*
X0149646Y0039439D01*
X0149409Y0039957D01*
X0149184Y0040481D01*
X0148972Y0041010D01*
X0148774Y0041545D01*
X0148588Y0042084D01*
X0148416Y0042627D01*
X0148257Y0043175D01*
X0148112Y0043726D01*
X0147980Y0044281D01*
X0147862Y0044838D01*
X0147758Y0045399D01*
X0147667Y0045962D01*
X0147591Y0046527D01*
X0147528Y0047093D01*
X0147479Y0047661D01*
X0147444Y0048230D01*
X0147423Y0048800D01*
X0147416Y0049370D01*
X0148416Y0096370D02*
X0148423Y0096940D01*
X0148444Y0097510D01*
X0148479Y0098079D01*
X0148528Y0098647D01*
X0148591Y0099213D01*
X0148667Y0099778D01*
X0148758Y0100341D01*
X0148862Y0100902D01*
X0148980Y0101459D01*
X0149112Y0102014D01*
X0149257Y0102565D01*
X0149416Y0103113D01*
X0149588Y0103656D01*
X0149774Y0104195D01*
X0149972Y0104730D01*
X0150184Y0105259D01*
X0150409Y0105783D01*
X0150646Y0106301D01*
X0150896Y0106814D01*
X0151159Y0107320D01*
X0151434Y0107819D01*
X0151721Y0108312D01*
X0152020Y0108797D01*
X0152331Y0109275D01*
X0152653Y0109745D01*
X0152987Y0110207D01*
X0153332Y0110661D01*
X0153689Y0111106D01*
X0154056Y0111542D01*
X0154433Y0111969D01*
X0154821Y0112387D01*
X0155219Y0112795D01*
X0155627Y0113193D01*
X0156045Y0113581D01*
X0156472Y0113958D01*
X0156908Y0114325D01*
X0157353Y0114682D01*
X0157807Y0115027D01*
X0158269Y0115361D01*
X0158739Y0115683D01*
X0159217Y0115994D01*
X0159702Y0116293D01*
X0160195Y0116580D01*
X0160694Y0116855D01*
X0161200Y0117118D01*
X0161713Y0117368D01*
X0162231Y0117605D01*
X0162755Y0117830D01*
X0163284Y0118042D01*
X0163819Y0118240D01*
X0164358Y0118426D01*
X0164901Y0118598D01*
X0165449Y0118757D01*
X0166000Y0118902D01*
X0166555Y0119034D01*
X0167112Y0119152D01*
X0167673Y0119256D01*
X0168236Y0119347D01*
X0168801Y0119423D01*
X0169367Y0119486D01*
X0169935Y0119535D01*
X0170504Y0119570D01*
X0171074Y0119591D01*
X0171644Y0119598D01*
X0172214Y0119591D01*
X0172784Y0119570D01*
X0173353Y0119535D01*
X0173921Y0119486D01*
X0174487Y0119423D01*
X0175052Y0119347D01*
X0175615Y0119256D01*
X0176176Y0119152D01*
X0176733Y0119034D01*
X0177288Y0118902D01*
X0177839Y0118757D01*
X0178387Y0118598D01*
X0178930Y0118426D01*
X0179469Y0118240D01*
X0180004Y0118042D01*
X0180533Y0117830D01*
X0181057Y0117605D01*
X0181575Y0117368D01*
X0182088Y0117118D01*
X0182594Y0116855D01*
X0183093Y0116580D01*
X0183586Y0116293D01*
X0184071Y0115994D01*
X0184549Y0115683D01*
X0185019Y0115361D01*
X0185481Y0115027D01*
X0185935Y0114682D01*
X0186380Y0114325D01*
X0186816Y0113958D01*
X0187243Y0113581D01*
X0187661Y0113193D01*
X0188069Y0112795D01*
X0188467Y0112387D01*
X0188855Y0111969D01*
X0189232Y0111542D01*
X0189599Y0111106D01*
X0189956Y0110661D01*
X0190301Y0110207D01*
X0190635Y0109745D01*
X0190957Y0109275D01*
X0191268Y0108797D01*
X0191567Y0108312D01*
X0191854Y0107819D01*
X0192129Y0107320D01*
X0192392Y0106814D01*
X0192642Y0106301D01*
X0192879Y0105783D01*
X0193104Y0105259D01*
X0193316Y0104730D01*
X0193514Y0104195D01*
X0193700Y0103656D01*
X0193872Y0103113D01*
X0194031Y0102565D01*
X0194176Y0102014D01*
X0194308Y0101459D01*
X0194426Y0100902D01*
X0194530Y0100341D01*
X0194621Y0099778D01*
X0194697Y0099213D01*
X0194760Y0098647D01*
X0194809Y0098079D01*
X0194844Y0097510D01*
X0194865Y0096940D01*
X0194872Y0096370D01*
X0194865Y0095800D01*
X0194844Y0095230D01*
X0194809Y0094661D01*
X0194760Y0094093D01*
X0194697Y0093527D01*
X0194621Y0092962D01*
X0194530Y0092399D01*
X0194426Y0091838D01*
X0194308Y0091281D01*
X0194176Y0090726D01*
X0194031Y0090175D01*
X0193872Y0089627D01*
X0193700Y0089084D01*
X0193514Y0088545D01*
X0193316Y0088010D01*
X0193104Y0087481D01*
X0192879Y0086957D01*
X0192642Y0086439D01*
X0192392Y0085926D01*
X0192129Y0085420D01*
X0191854Y0084921D01*
X0191567Y0084428D01*
X0191268Y0083943D01*
X0190957Y0083465D01*
X0190635Y0082995D01*
X0190301Y0082533D01*
X0189956Y0082079D01*
X0189599Y0081634D01*
X0189232Y0081198D01*
X0188855Y0080771D01*
X0188467Y0080353D01*
X0188069Y0079945D01*
X0187661Y0079547D01*
X0187243Y0079159D01*
X0186816Y0078782D01*
X0186380Y0078415D01*
X0185935Y0078058D01*
X0185481Y0077713D01*
X0185019Y0077379D01*
X0184549Y0077057D01*
X0184071Y0076746D01*
X0183586Y0076447D01*
X0183093Y0076160D01*
X0182594Y0075885D01*
X0182088Y0075622D01*
X0181575Y0075372D01*
X0181057Y0075135D01*
X0180533Y0074910D01*
X0180004Y0074698D01*
X0179469Y0074500D01*
X0178930Y0074314D01*
X0178387Y0074142D01*
X0177839Y0073983D01*
X0177288Y0073838D01*
X0176733Y0073706D01*
X0176176Y0073588D01*
X0175615Y0073484D01*
X0175052Y0073393D01*
X0174487Y0073317D01*
X0173921Y0073254D01*
X0173353Y0073205D01*
X0172784Y0073170D01*
X0172214Y0073149D01*
X0171644Y0073142D01*
X0171074Y0073149D01*
X0170504Y0073170D01*
X0169935Y0073205D01*
X0169367Y0073254D01*
X0168801Y0073317D01*
X0168236Y0073393D01*
X0167673Y0073484D01*
X0167112Y0073588D01*
X0166555Y0073706D01*
X0166000Y0073838D01*
X0165449Y0073983D01*
X0164901Y0074142D01*
X0164358Y0074314D01*
X0163819Y0074500D01*
X0163284Y0074698D01*
X0162755Y0074910D01*
X0162231Y0075135D01*
X0161713Y0075372D01*
X0161200Y0075622D01*
X0160694Y0075885D01*
X0160195Y0076160D01*
X0159702Y0076447D01*
X0159217Y0076746D01*
X0158739Y0077057D01*
X0158269Y0077379D01*
X0157807Y0077713D01*
X0157353Y0078058D01*
X0156908Y0078415D01*
X0156472Y0078782D01*
X0156045Y0079159D01*
X0155627Y0079547D01*
X0155219Y0079945D01*
X0154821Y0080353D01*
X0154433Y0080771D01*
X0154056Y0081198D01*
X0153689Y0081634D01*
X0153332Y0082079D01*
X0152987Y0082533D01*
X0152653Y0082995D01*
X0152331Y0083465D01*
X0152020Y0083943D01*
X0151721Y0084428D01*
X0151434Y0084921D01*
X0151159Y0085420D01*
X0150896Y0085926D01*
X0150646Y0086439D01*
X0150409Y0086957D01*
X0150184Y0087481D01*
X0149972Y0088010D01*
X0149774Y0088545D01*
X0149588Y0089084D01*
X0149416Y0089627D01*
X0149257Y0090175D01*
X0149112Y0090726D01*
X0148980Y0091281D01*
X0148862Y0091838D01*
X0148758Y0092399D01*
X0148667Y0092962D01*
X0148591Y0093527D01*
X0148528Y0094093D01*
X0148479Y0094661D01*
X0148444Y0095230D01*
X0148423Y0095800D01*
X0148416Y0096370D01*
X0224644Y0149370D02*
X0234526Y0149370D01*
X0239644Y0153307D02*
X0239644Y0165433D01*
X0234526Y0169370D02*
X0224763Y0169370D01*
X0219644Y0165433D02*
X0219644Y0153307D01*
X0224644Y0159370D02*
X0224646Y0159511D01*
X0224652Y0159652D01*
X0224662Y0159792D01*
X0224676Y0159932D01*
X0224694Y0160072D01*
X0224715Y0160211D01*
X0224741Y0160350D01*
X0224770Y0160488D01*
X0224804Y0160624D01*
X0224841Y0160760D01*
X0224882Y0160895D01*
X0224927Y0161029D01*
X0224976Y0161161D01*
X0225028Y0161292D01*
X0225084Y0161421D01*
X0225144Y0161548D01*
X0225207Y0161674D01*
X0225273Y0161798D01*
X0225344Y0161921D01*
X0225417Y0162041D01*
X0225494Y0162159D01*
X0225574Y0162275D01*
X0225658Y0162388D01*
X0225744Y0162499D01*
X0225834Y0162608D01*
X0225927Y0162714D01*
X0226022Y0162817D01*
X0226121Y0162918D01*
X0226222Y0163016D01*
X0226326Y0163111D01*
X0226433Y0163203D01*
X0226542Y0163292D01*
X0226654Y0163377D01*
X0226768Y0163460D01*
X0226884Y0163540D01*
X0227003Y0163616D01*
X0227124Y0163688D01*
X0227246Y0163758D01*
X0227371Y0163823D01*
X0227497Y0163886D01*
X0227625Y0163944D01*
X0227755Y0163999D01*
X0227886Y0164051D01*
X0228019Y0164098D01*
X0228153Y0164142D01*
X0228288Y0164183D01*
X0228424Y0164219D01*
X0228561Y0164251D01*
X0228699Y0164280D01*
X0228837Y0164305D01*
X0228977Y0164325D01*
X0229117Y0164342D01*
X0229257Y0164355D01*
X0229398Y0164364D01*
X0229538Y0164369D01*
X0229679Y0164370D01*
X0229820Y0164367D01*
X0229961Y0164360D01*
X0230101Y0164349D01*
X0230241Y0164334D01*
X0230381Y0164315D01*
X0230520Y0164293D01*
X0230658Y0164266D01*
X0230796Y0164236D01*
X0230932Y0164201D01*
X0231068Y0164163D01*
X0231202Y0164121D01*
X0231336Y0164075D01*
X0231468Y0164026D01*
X0231598Y0163972D01*
X0231727Y0163915D01*
X0231854Y0163855D01*
X0231980Y0163791D01*
X0232103Y0163723D01*
X0232225Y0163652D01*
X0232345Y0163578D01*
X0232462Y0163500D01*
X0232577Y0163419D01*
X0232690Y0163335D01*
X0232801Y0163248D01*
X0232909Y0163157D01*
X0233014Y0163064D01*
X0233117Y0162967D01*
X0233217Y0162868D01*
X0233314Y0162766D01*
X0233408Y0162661D01*
X0233499Y0162554D01*
X0233587Y0162444D01*
X0233672Y0162332D01*
X0233754Y0162217D01*
X0233833Y0162100D01*
X0233908Y0161981D01*
X0233980Y0161860D01*
X0234048Y0161737D01*
X0234113Y0161612D01*
X0234175Y0161485D01*
X0234232Y0161356D01*
X0234287Y0161226D01*
X0234337Y0161095D01*
X0234384Y0160962D01*
X0234427Y0160828D01*
X0234466Y0160692D01*
X0234501Y0160556D01*
X0234533Y0160419D01*
X0234560Y0160281D01*
X0234584Y0160142D01*
X0234604Y0160002D01*
X0234620Y0159862D01*
X0234632Y0159722D01*
X0234640Y0159581D01*
X0234644Y0159440D01*
X0234644Y0159300D01*
X0234640Y0159159D01*
X0234632Y0159018D01*
X0234620Y0158878D01*
X0234604Y0158738D01*
X0234584Y0158598D01*
X0234560Y0158459D01*
X0234533Y0158321D01*
X0234501Y0158184D01*
X0234466Y0158048D01*
X0234427Y0157912D01*
X0234384Y0157778D01*
X0234337Y0157645D01*
X0234287Y0157514D01*
X0234232Y0157384D01*
X0234175Y0157255D01*
X0234113Y0157128D01*
X0234048Y0157003D01*
X0233980Y0156880D01*
X0233908Y0156759D01*
X0233833Y0156640D01*
X0233754Y0156523D01*
X0233672Y0156408D01*
X0233587Y0156296D01*
X0233499Y0156186D01*
X0233408Y0156079D01*
X0233314Y0155974D01*
X0233217Y0155872D01*
X0233117Y0155773D01*
X0233014Y0155676D01*
X0232909Y0155583D01*
X0232801Y0155492D01*
X0232690Y0155405D01*
X0232577Y0155321D01*
X0232462Y0155240D01*
X0232345Y0155162D01*
X0232225Y0155088D01*
X0232103Y0155017D01*
X0231980Y0154949D01*
X0231854Y0154885D01*
X0231727Y0154825D01*
X0231598Y0154768D01*
X0231468Y0154714D01*
X0231336Y0154665D01*
X0231202Y0154619D01*
X0231068Y0154577D01*
X0230932Y0154539D01*
X0230796Y0154504D01*
X0230658Y0154474D01*
X0230520Y0154447D01*
X0230381Y0154425D01*
X0230241Y0154406D01*
X0230101Y0154391D01*
X0229961Y0154380D01*
X0229820Y0154373D01*
X0229679Y0154370D01*
X0229538Y0154371D01*
X0229398Y0154376D01*
X0229257Y0154385D01*
X0229117Y0154398D01*
X0228977Y0154415D01*
X0228837Y0154435D01*
X0228699Y0154460D01*
X0228561Y0154489D01*
X0228424Y0154521D01*
X0228288Y0154557D01*
X0228153Y0154598D01*
X0228019Y0154642D01*
X0227886Y0154689D01*
X0227755Y0154741D01*
X0227625Y0154796D01*
X0227497Y0154854D01*
X0227371Y0154917D01*
X0227246Y0154982D01*
X0227124Y0155052D01*
X0227003Y0155124D01*
X0226884Y0155200D01*
X0226768Y0155280D01*
X0226654Y0155363D01*
X0226542Y0155448D01*
X0226433Y0155537D01*
X0226326Y0155629D01*
X0226222Y0155724D01*
X0226121Y0155822D01*
X0226022Y0155923D01*
X0225927Y0156026D01*
X0225834Y0156132D01*
X0225744Y0156241D01*
X0225658Y0156352D01*
X0225574Y0156465D01*
X0225494Y0156581D01*
X0225417Y0156699D01*
X0225344Y0156819D01*
X0225273Y0156942D01*
X0225207Y0157066D01*
X0225144Y0157192D01*
X0225084Y0157319D01*
X0225028Y0157448D01*
X0224976Y0157579D01*
X0224927Y0157711D01*
X0224882Y0157845D01*
X0224841Y0157980D01*
X0224804Y0158116D01*
X0224770Y0158252D01*
X0224741Y0158390D01*
X0224715Y0158529D01*
X0224694Y0158668D01*
X0224676Y0158808D01*
X0224662Y0158948D01*
X0224652Y0159088D01*
X0224646Y0159229D01*
X0224644Y0159370D01*
D12*
X0025146Y0029620D02*
X0023645Y0029620D01*
X0022894Y0030371D01*
X0022894Y0033373D01*
X0023645Y0034124D01*
X0025146Y0034124D01*
X0025897Y0033373D01*
X0025897Y0031872D02*
X0024396Y0031872D01*
X0025897Y0031872D02*
X0025897Y0030371D01*
X0025146Y0029620D01*
X0027498Y0029620D02*
X0027498Y0034124D01*
X0030501Y0029620D01*
X0030501Y0034124D01*
X0032102Y0034124D02*
X0034354Y0034124D01*
X0035105Y0033373D01*
X0035105Y0030371D01*
X0034354Y0029620D01*
X0032102Y0029620D01*
X0032102Y0034124D01*
X0030231Y0038226D02*
X0028563Y0038226D01*
X0029397Y0038226D02*
X0029397Y0040729D01*
X0028563Y0039894D01*
X0027469Y0040311D02*
X0027469Y0038643D01*
X0027052Y0038226D01*
X0026218Y0038226D01*
X0025801Y0038643D01*
X0025801Y0040311D01*
X0026218Y0040729D01*
X0027052Y0040729D01*
X0027469Y0040311D01*
X0026635Y0039060D02*
X0027469Y0038226D01*
X0038642Y0044620D02*
X0038642Y0045871D01*
X0039059Y0046288D01*
X0039893Y0046288D01*
X0040310Y0045871D01*
X0040310Y0044620D01*
X0040310Y0045454D02*
X0041144Y0046288D01*
X0041144Y0047382D02*
X0040727Y0047382D01*
X0039059Y0049051D01*
X0038642Y0049051D01*
X0038642Y0047382D01*
X0038642Y0044620D02*
X0041144Y0044620D01*
X0042249Y0064620D02*
X0041498Y0065371D01*
X0042249Y0064620D02*
X0043750Y0064620D01*
X0044501Y0065371D01*
X0044501Y0066121D01*
X0043750Y0066872D01*
X0043000Y0066872D01*
X0043750Y0066872D02*
X0044501Y0067623D01*
X0044501Y0068373D01*
X0043750Y0069124D01*
X0042249Y0069124D01*
X0041498Y0068373D01*
X0039897Y0069124D02*
X0039897Y0066121D01*
X0038396Y0064620D01*
X0036894Y0066121D01*
X0036894Y0069124D01*
X0036132Y0074370D02*
X0037800Y0076038D01*
X0037800Y0076455D01*
X0037383Y0076872D01*
X0036549Y0076872D01*
X0036132Y0076455D01*
X0035038Y0076455D02*
X0034621Y0076872D01*
X0033787Y0076872D01*
X0033370Y0076455D01*
X0033370Y0074787D01*
X0033787Y0074370D01*
X0034621Y0074370D01*
X0035038Y0074787D01*
X0036132Y0074370D02*
X0037800Y0074370D01*
X0046102Y0068373D02*
X0046853Y0069124D01*
X0048354Y0069124D01*
X0049105Y0068373D01*
X0049105Y0067623D01*
X0048354Y0066872D01*
X0049105Y0066121D01*
X0049105Y0065371D01*
X0048354Y0064620D01*
X0046853Y0064620D01*
X0046102Y0065371D01*
X0047604Y0066872D02*
X0048354Y0066872D01*
X0051894Y0067372D02*
X0051894Y0064870D01*
X0051894Y0065704D02*
X0053146Y0065704D01*
X0053563Y0066121D01*
X0053563Y0066955D01*
X0053146Y0067372D01*
X0051894Y0067372D01*
X0052729Y0065704D02*
X0053563Y0064870D01*
X0054657Y0064870D02*
X0056325Y0064870D01*
X0055491Y0064870D02*
X0055491Y0067372D01*
X0054657Y0066538D01*
X0057419Y0066538D02*
X0058253Y0067372D01*
X0058253Y0064870D01*
X0057419Y0064870D02*
X0059087Y0064870D01*
X0058750Y0080620D02*
X0057249Y0080620D01*
X0056498Y0081371D01*
X0056498Y0082872D02*
X0058000Y0083623D01*
X0058750Y0083623D01*
X0059501Y0082872D01*
X0059501Y0081371D01*
X0058750Y0080620D01*
X0061102Y0081371D02*
X0064105Y0084373D01*
X0064105Y0081371D01*
X0063354Y0080620D01*
X0061853Y0080620D01*
X0061102Y0081371D01*
X0061102Y0084373D01*
X0061853Y0085124D01*
X0063354Y0085124D01*
X0064105Y0084373D01*
X0059501Y0085124D02*
X0056498Y0085124D01*
X0056498Y0082872D01*
X0054897Y0082121D02*
X0054897Y0085124D01*
X0051894Y0085124D02*
X0051894Y0082121D01*
X0053396Y0080620D01*
X0054897Y0082121D01*
X0049400Y0089870D02*
X0047732Y0089870D01*
X0048566Y0089870D02*
X0048566Y0092372D01*
X0047732Y0091538D01*
X0046638Y0091955D02*
X0046221Y0092372D01*
X0045387Y0092372D01*
X0044970Y0091955D01*
X0044970Y0090287D01*
X0045387Y0089870D01*
X0046221Y0089870D01*
X0046638Y0090287D01*
X0052142Y0092512D02*
X0052142Y0093346D01*
X0052559Y0093763D01*
X0052142Y0092512D02*
X0052559Y0092095D01*
X0054227Y0092095D01*
X0054644Y0092512D01*
X0054644Y0093346D01*
X0054227Y0093763D01*
X0053393Y0094858D02*
X0053393Y0096526D01*
X0052142Y0096109D02*
X0053393Y0094858D01*
X0054644Y0096109D02*
X0052142Y0096109D01*
X0057412Y0102911D02*
X0059497Y0102911D01*
X0059914Y0103328D01*
X0059914Y0104162D01*
X0059497Y0104580D01*
X0057412Y0104580D01*
X0057829Y0105674D02*
X0057412Y0106091D01*
X0057412Y0106925D01*
X0057829Y0107342D01*
X0058246Y0107342D01*
X0059914Y0105674D01*
X0059914Y0107342D01*
X0064888Y0106008D02*
X0064890Y0106047D01*
X0064896Y0106086D01*
X0064906Y0106124D01*
X0064919Y0106161D01*
X0064936Y0106196D01*
X0064956Y0106230D01*
X0064980Y0106261D01*
X0065007Y0106290D01*
X0065036Y0106316D01*
X0065068Y0106339D01*
X0065102Y0106359D01*
X0065138Y0106375D01*
X0065175Y0106387D01*
X0065214Y0106396D01*
X0065253Y0106401D01*
X0065292Y0106402D01*
X0065331Y0106399D01*
X0065370Y0106392D01*
X0065407Y0106381D01*
X0065444Y0106367D01*
X0065479Y0106349D01*
X0065512Y0106328D01*
X0065543Y0106303D01*
X0065571Y0106276D01*
X0065596Y0106246D01*
X0065618Y0106213D01*
X0065637Y0106179D01*
X0065652Y0106143D01*
X0065664Y0106105D01*
X0065672Y0106067D01*
X0065676Y0106028D01*
X0065676Y0105988D01*
X0065672Y0105949D01*
X0065664Y0105911D01*
X0065652Y0105873D01*
X0065637Y0105837D01*
X0065618Y0105803D01*
X0065596Y0105770D01*
X0065571Y0105740D01*
X0065543Y0105713D01*
X0065512Y0105688D01*
X0065479Y0105667D01*
X0065444Y0105649D01*
X0065407Y0105635D01*
X0065370Y0105624D01*
X0065331Y0105617D01*
X0065292Y0105614D01*
X0065253Y0105615D01*
X0065214Y0105620D01*
X0065175Y0105629D01*
X0065138Y0105641D01*
X0065102Y0105657D01*
X0065068Y0105677D01*
X0065036Y0105700D01*
X0065007Y0105726D01*
X0064980Y0105755D01*
X0064956Y0105786D01*
X0064936Y0105820D01*
X0064919Y0105855D01*
X0064906Y0105892D01*
X0064896Y0105930D01*
X0064890Y0105969D01*
X0064888Y0106008D01*
X0069559Y0096526D02*
X0069976Y0096526D01*
X0070393Y0096109D01*
X0070810Y0096526D01*
X0071227Y0096526D01*
X0071644Y0096109D01*
X0071644Y0095275D01*
X0071227Y0094858D01*
X0071227Y0093763D02*
X0071644Y0093346D01*
X0071644Y0092512D01*
X0071227Y0092095D01*
X0069559Y0092095D01*
X0069142Y0092512D01*
X0069142Y0093346D01*
X0069559Y0093763D01*
X0069559Y0094858D02*
X0069142Y0095275D01*
X0069142Y0096109D01*
X0069559Y0096526D01*
X0070393Y0096109D02*
X0070393Y0095692D01*
X0089594Y0079324D02*
X0091096Y0077823D01*
X0092597Y0079324D01*
X0092597Y0074820D01*
X0094198Y0074820D02*
X0097201Y0074820D01*
X0095700Y0074820D02*
X0095700Y0079324D01*
X0094198Y0077823D01*
X0098802Y0077072D02*
X0101805Y0077072D01*
X0100304Y0078573D02*
X0100304Y0075571D01*
X0089594Y0074820D02*
X0089594Y0079324D01*
X0088991Y0062024D02*
X0088991Y0018717D01*
X0132298Y0018717D01*
X0132298Y0062024D01*
X0088991Y0062024D01*
X0134230Y0033370D02*
X0134232Y0033445D01*
X0134238Y0033519D01*
X0134248Y0033593D01*
X0134261Y0033666D01*
X0134279Y0033739D01*
X0134300Y0033810D01*
X0134325Y0033881D01*
X0134354Y0033950D01*
X0134387Y0034017D01*
X0134423Y0034082D01*
X0134462Y0034146D01*
X0134504Y0034207D01*
X0134550Y0034266D01*
X0134599Y0034323D01*
X0134651Y0034376D01*
X0134705Y0034427D01*
X0134762Y0034476D01*
X0134822Y0034520D01*
X0134884Y0034562D01*
X0134948Y0034601D01*
X0135014Y0034636D01*
X0135081Y0034667D01*
X0135151Y0034695D01*
X0135221Y0034719D01*
X0135293Y0034740D01*
X0135366Y0034756D01*
X0135439Y0034769D01*
X0135514Y0034778D01*
X0135588Y0034783D01*
X0135663Y0034784D01*
X0135737Y0034781D01*
X0135812Y0034774D01*
X0135885Y0034763D01*
X0135959Y0034749D01*
X0136031Y0034730D01*
X0136102Y0034708D01*
X0136172Y0034682D01*
X0136241Y0034652D01*
X0136307Y0034619D01*
X0136372Y0034582D01*
X0136435Y0034542D01*
X0136496Y0034498D01*
X0136554Y0034452D01*
X0136610Y0034402D01*
X0136663Y0034350D01*
X0136714Y0034295D01*
X0136761Y0034237D01*
X0136805Y0034177D01*
X0136846Y0034114D01*
X0136884Y0034050D01*
X0136918Y0033984D01*
X0136949Y0033915D01*
X0136976Y0033846D01*
X0136999Y0033775D01*
X0137018Y0033703D01*
X0137034Y0033630D01*
X0137046Y0033556D01*
X0137054Y0033482D01*
X0137058Y0033407D01*
X0137058Y0033333D01*
X0137054Y0033258D01*
X0137046Y0033184D01*
X0137034Y0033110D01*
X0137018Y0033037D01*
X0136999Y0032965D01*
X0136976Y0032894D01*
X0136949Y0032825D01*
X0136918Y0032756D01*
X0136884Y0032690D01*
X0136846Y0032626D01*
X0136805Y0032563D01*
X0136761Y0032503D01*
X0136714Y0032445D01*
X0136663Y0032390D01*
X0136610Y0032338D01*
X0136554Y0032288D01*
X0136496Y0032242D01*
X0136435Y0032198D01*
X0136372Y0032158D01*
X0136307Y0032121D01*
X0136241Y0032088D01*
X0136172Y0032058D01*
X0136102Y0032032D01*
X0136031Y0032010D01*
X0135959Y0031991D01*
X0135885Y0031977D01*
X0135812Y0031966D01*
X0135737Y0031959D01*
X0135663Y0031956D01*
X0135588Y0031957D01*
X0135514Y0031962D01*
X0135439Y0031971D01*
X0135366Y0031984D01*
X0135293Y0032000D01*
X0135221Y0032021D01*
X0135151Y0032045D01*
X0135081Y0032073D01*
X0135014Y0032104D01*
X0134948Y0032139D01*
X0134884Y0032178D01*
X0134822Y0032220D01*
X0134762Y0032264D01*
X0134705Y0032313D01*
X0134651Y0032364D01*
X0134599Y0032417D01*
X0134550Y0032474D01*
X0134504Y0032533D01*
X0134462Y0032594D01*
X0134423Y0032658D01*
X0134387Y0032723D01*
X0134354Y0032790D01*
X0134325Y0032859D01*
X0134300Y0032930D01*
X0134279Y0033001D01*
X0134261Y0033074D01*
X0134248Y0033147D01*
X0134238Y0033221D01*
X0134232Y0033295D01*
X0134230Y0033370D01*
X0137642Y0047620D02*
X0137642Y0048871D01*
X0138059Y0049288D01*
X0138893Y0049288D01*
X0139310Y0048871D01*
X0139310Y0047620D01*
X0139310Y0048454D02*
X0140144Y0049288D01*
X0140144Y0050382D02*
X0140144Y0052051D01*
X0140144Y0051216D02*
X0137642Y0051216D01*
X0138476Y0050382D01*
X0138059Y0053145D02*
X0137642Y0053562D01*
X0137642Y0054396D01*
X0138059Y0054813D01*
X0139727Y0053145D01*
X0140144Y0053562D01*
X0140144Y0054396D01*
X0139727Y0054813D01*
X0138059Y0054813D01*
X0138059Y0053145D02*
X0139727Y0053145D01*
X0140144Y0047620D02*
X0137642Y0047620D01*
X0144394Y0064370D02*
X0144394Y0066872D01*
X0145646Y0066872D01*
X0146063Y0066455D01*
X0146063Y0065621D01*
X0145646Y0065204D01*
X0144394Y0065204D01*
X0145229Y0065204D02*
X0146063Y0064370D01*
X0147157Y0064787D02*
X0147574Y0064370D01*
X0148408Y0064370D01*
X0148825Y0064787D01*
X0148825Y0066455D01*
X0148408Y0066872D01*
X0147574Y0066872D01*
X0147157Y0066455D01*
X0147157Y0066038D01*
X0147574Y0065621D01*
X0148825Y0065621D01*
X0137394Y0097204D02*
X0134892Y0097204D01*
X0136143Y0097204D02*
X0136143Y0098872D01*
X0136143Y0099967D02*
X0136143Y0101218D01*
X0136560Y0101635D01*
X0136977Y0101635D01*
X0137394Y0101218D01*
X0137394Y0099967D01*
X0134892Y0099967D01*
X0134892Y0101218D01*
X0135309Y0101635D01*
X0135726Y0101635D01*
X0136143Y0101218D01*
X0136560Y0102729D02*
X0136560Y0103980D01*
X0136143Y0104397D01*
X0135309Y0104397D01*
X0134892Y0103980D01*
X0134892Y0102729D01*
X0137394Y0102729D01*
X0136560Y0103563D02*
X0137394Y0104397D01*
X0137394Y0105491D02*
X0137394Y0106325D01*
X0137394Y0105908D02*
X0134892Y0105908D01*
X0134892Y0105491D02*
X0134892Y0106325D01*
X0134892Y0107333D02*
X0134892Y0108584D01*
X0135309Y0109001D01*
X0136977Y0109001D01*
X0137394Y0108584D01*
X0137394Y0107333D01*
X0134892Y0107333D01*
X0135309Y0110095D02*
X0136977Y0110095D01*
X0137394Y0110512D01*
X0137394Y0111346D01*
X0136977Y0111763D01*
X0136143Y0111763D01*
X0136143Y0110929D01*
X0135309Y0110095D02*
X0134892Y0110512D01*
X0134892Y0111346D01*
X0135309Y0111763D01*
X0134892Y0112858D02*
X0137394Y0112858D01*
X0137394Y0114526D01*
X0136143Y0113692D02*
X0136143Y0112858D01*
X0134892Y0112858D02*
X0134892Y0114526D01*
X0134892Y0098872D02*
X0137394Y0098872D01*
X0141570Y0134020D02*
X0142821Y0134020D01*
X0143238Y0134437D01*
X0143238Y0136105D01*
X0142821Y0136522D01*
X0141570Y0136522D01*
X0141570Y0134020D01*
X0144332Y0134437D02*
X0144749Y0134020D01*
X0145583Y0134020D01*
X0146000Y0134437D01*
X0146000Y0134854D01*
X0145583Y0135271D01*
X0144332Y0135271D01*
X0144332Y0134437D01*
X0144332Y0135271D02*
X0145166Y0136105D01*
X0146000Y0136522D01*
X0151370Y0136722D02*
X0151370Y0134220D01*
X0152621Y0134220D01*
X0153038Y0134637D01*
X0153038Y0136305D01*
X0152621Y0136722D01*
X0151370Y0136722D01*
X0154132Y0136722D02*
X0154132Y0135471D01*
X0154966Y0135888D01*
X0155383Y0135888D01*
X0155800Y0135471D01*
X0155800Y0134637D01*
X0155383Y0134220D01*
X0154549Y0134220D01*
X0154132Y0134637D01*
X0154132Y0136722D02*
X0155800Y0136722D01*
X0161994Y0137022D02*
X0161994Y0134520D01*
X0163246Y0134520D01*
X0163663Y0134937D01*
X0163663Y0136605D01*
X0163246Y0137022D01*
X0161994Y0137022D01*
X0164757Y0135771D02*
X0166425Y0135771D01*
X0166008Y0134520D02*
X0166008Y0137022D01*
X0164757Y0135771D01*
X0171492Y0135771D02*
X0171492Y0134520D01*
X0173994Y0134520D01*
X0173994Y0135771D01*
X0173577Y0136188D01*
X0171909Y0136188D01*
X0171492Y0135771D01*
X0171909Y0137282D02*
X0171492Y0137699D01*
X0171492Y0138533D01*
X0171909Y0138951D01*
X0172326Y0138951D01*
X0172743Y0138533D01*
X0173160Y0138951D01*
X0173577Y0138951D01*
X0173994Y0138533D01*
X0173994Y0137699D01*
X0173577Y0137282D01*
X0172743Y0138116D02*
X0172743Y0138533D01*
X0179492Y0139199D02*
X0179909Y0138782D01*
X0179492Y0139199D02*
X0179492Y0140033D01*
X0179909Y0140451D01*
X0180326Y0140451D01*
X0181994Y0138782D01*
X0181994Y0140451D01*
X0181577Y0137688D02*
X0179909Y0137688D01*
X0179492Y0137271D01*
X0179492Y0136020D01*
X0181994Y0136020D01*
X0181994Y0137271D01*
X0181577Y0137688D01*
X0187892Y0137120D02*
X0187892Y0138371D01*
X0188309Y0138788D01*
X0189977Y0138788D01*
X0190394Y0138371D01*
X0190394Y0137120D01*
X0187892Y0137120D01*
X0188726Y0139882D02*
X0187892Y0140716D01*
X0190394Y0140716D01*
X0190394Y0139882D02*
X0190394Y0141551D01*
X0135925Y0137022D02*
X0135925Y0136605D01*
X0134257Y0134937D01*
X0134257Y0134520D01*
X0133163Y0134937D02*
X0133163Y0136605D01*
X0132746Y0137022D01*
X0131494Y0137022D01*
X0131494Y0134520D01*
X0132746Y0134520D01*
X0133163Y0134937D01*
X0134257Y0137022D02*
X0135925Y0137022D01*
X0126325Y0136405D02*
X0126325Y0135988D01*
X0125908Y0135571D01*
X0125074Y0135571D01*
X0124657Y0135988D01*
X0124657Y0136405D01*
X0125074Y0136822D01*
X0125908Y0136822D01*
X0126325Y0136405D01*
X0125908Y0135571D02*
X0126325Y0135154D01*
X0126325Y0134737D01*
X0125908Y0134320D01*
X0125074Y0134320D01*
X0124657Y0134737D01*
X0124657Y0135154D01*
X0125074Y0135571D01*
X0123563Y0134737D02*
X0123563Y0136405D01*
X0123146Y0136822D01*
X0121894Y0136822D01*
X0121894Y0134320D01*
X0123146Y0134320D01*
X0123563Y0134737D01*
X0117825Y0137037D02*
X0117825Y0138705D01*
X0117408Y0139122D01*
X0116574Y0139122D01*
X0116157Y0138705D01*
X0116157Y0138288D01*
X0116574Y0137871D01*
X0117825Y0137871D01*
X0117825Y0137037D02*
X0117408Y0136620D01*
X0116574Y0136620D01*
X0116157Y0137037D01*
X0115063Y0137037D02*
X0115063Y0138705D01*
X0114646Y0139122D01*
X0113394Y0139122D01*
X0113394Y0136620D01*
X0114646Y0136620D01*
X0115063Y0137037D01*
X0099644Y0140095D02*
X0097142Y0140095D01*
X0097142Y0141346D01*
X0097559Y0141763D01*
X0098393Y0141763D01*
X0098810Y0141346D01*
X0098810Y0140095D01*
X0098810Y0140929D02*
X0099644Y0141763D01*
X0099644Y0142858D02*
X0099644Y0144526D01*
X0099644Y0143692D02*
X0097142Y0143692D01*
X0097976Y0142858D01*
X0089644Y0143526D02*
X0089644Y0141858D01*
X0087976Y0143526D01*
X0087559Y0143526D01*
X0087142Y0143109D01*
X0087142Y0142275D01*
X0087559Y0141858D01*
X0087559Y0140763D02*
X0088393Y0140763D01*
X0088810Y0140346D01*
X0088810Y0139095D01*
X0088810Y0139929D02*
X0089644Y0140763D01*
X0089644Y0139095D02*
X0087142Y0139095D01*
X0087142Y0140346D01*
X0087559Y0140763D01*
X0078644Y0140095D02*
X0076142Y0140095D01*
X0076142Y0141346D01*
X0076559Y0141763D01*
X0077393Y0141763D01*
X0077810Y0141346D01*
X0077810Y0140095D01*
X0077810Y0140929D02*
X0078644Y0141763D01*
X0078227Y0142858D02*
X0078644Y0143275D01*
X0078644Y0144109D01*
X0078227Y0144526D01*
X0077810Y0144526D01*
X0077393Y0144109D01*
X0077393Y0143692D01*
X0077393Y0144109D02*
X0076976Y0144526D01*
X0076559Y0144526D01*
X0076142Y0144109D01*
X0076142Y0143275D01*
X0076559Y0142858D01*
X0069644Y0141763D02*
X0068810Y0140929D01*
X0068810Y0141346D02*
X0068810Y0140095D01*
X0069644Y0140095D02*
X0067142Y0140095D01*
X0067142Y0141346D01*
X0067559Y0141763D01*
X0068393Y0141763D01*
X0068810Y0141346D01*
X0068393Y0142858D02*
X0068393Y0144526D01*
X0069644Y0144109D02*
X0067142Y0144109D01*
X0068393Y0142858D01*
X0057744Y0140009D02*
X0057744Y0139175D01*
X0057327Y0138758D01*
X0057744Y0137663D02*
X0057744Y0135995D01*
X0057744Y0136829D02*
X0055242Y0136829D01*
X0056076Y0135995D01*
X0055659Y0134901D02*
X0056493Y0134901D01*
X0056910Y0134484D01*
X0056910Y0133233D01*
X0056910Y0134067D02*
X0057744Y0134901D01*
X0057744Y0133233D02*
X0055242Y0133233D01*
X0055242Y0134484D01*
X0055659Y0134901D01*
X0055659Y0138758D02*
X0055242Y0139175D01*
X0055242Y0140009D01*
X0055659Y0140426D01*
X0056076Y0140426D01*
X0056493Y0140009D01*
X0056910Y0140426D01*
X0057327Y0140426D01*
X0057744Y0140009D01*
X0056493Y0140009D02*
X0056493Y0139592D01*
X0048644Y0138526D02*
X0048644Y0136858D01*
X0046976Y0138526D01*
X0046559Y0138526D01*
X0046142Y0138109D01*
X0046142Y0137275D01*
X0046559Y0136858D01*
X0046142Y0134929D02*
X0048644Y0134929D01*
X0048644Y0134095D02*
X0048644Y0135763D01*
X0046976Y0134095D02*
X0046142Y0134929D01*
X0046559Y0133001D02*
X0046142Y0132584D01*
X0046142Y0131333D01*
X0048644Y0131333D01*
X0047810Y0131333D02*
X0047810Y0132584D01*
X0047393Y0133001D01*
X0046559Y0133001D01*
X0047810Y0132167D02*
X0048644Y0133001D01*
X0060042Y0126751D02*
X0060042Y0125082D01*
X0061293Y0125082D01*
X0060876Y0125916D01*
X0060876Y0126333D01*
X0061293Y0126751D01*
X0062127Y0126751D01*
X0062544Y0126333D01*
X0062544Y0125499D01*
X0062127Y0125082D01*
X0062127Y0123988D02*
X0062544Y0123571D01*
X0062544Y0122737D01*
X0062127Y0122320D01*
X0060459Y0122320D01*
X0060042Y0122737D01*
X0060042Y0123571D01*
X0060459Y0123988D01*
X0079691Y0124176D02*
X0080441Y0124927D01*
X0083444Y0121924D01*
X0084194Y0122675D01*
X0084194Y0124176D01*
X0083444Y0124927D01*
X0080441Y0124927D01*
X0079691Y0124176D02*
X0079691Y0122675D01*
X0080441Y0121924D01*
X0083444Y0121924D01*
X0084194Y0120323D02*
X0079691Y0120323D01*
X0081192Y0118821D01*
X0079691Y0117320D01*
X0084194Y0117320D01*
X0081943Y0126528D02*
X0081943Y0129530D01*
X0083444Y0128029D02*
X0080441Y0128029D01*
X0015244Y0082933D02*
X0014827Y0083351D01*
X0014410Y0083351D01*
X0013993Y0082933D01*
X0013993Y0081682D01*
X0014827Y0081682D01*
X0015244Y0082099D01*
X0015244Y0082933D01*
X0013993Y0081682D02*
X0013159Y0082516D01*
X0012742Y0083351D01*
X0013159Y0080588D02*
X0012742Y0080171D01*
X0012742Y0078920D01*
X0015244Y0078920D01*
X0014410Y0078920D02*
X0014410Y0080171D01*
X0013993Y0080588D01*
X0013159Y0080588D01*
X0014410Y0079754D02*
X0015244Y0080588D01*
X0021370Y0070872D02*
X0022621Y0070872D01*
X0023038Y0070455D01*
X0023038Y0069621D01*
X0022621Y0069204D01*
X0021370Y0069204D01*
X0022204Y0069204D02*
X0023038Y0068370D01*
X0024132Y0068787D02*
X0024549Y0068370D01*
X0025383Y0068370D01*
X0025800Y0068787D01*
X0025800Y0069621D01*
X0025383Y0070038D01*
X0024966Y0070038D01*
X0024132Y0069621D01*
X0024132Y0070872D01*
X0025800Y0070872D01*
X0021370Y0070872D02*
X0021370Y0068370D01*
X0013727Y0050051D02*
X0014144Y0049633D01*
X0014144Y0048799D01*
X0013727Y0048382D01*
X0013310Y0048382D01*
X0012893Y0048799D01*
X0012893Y0049633D01*
X0013310Y0050051D01*
X0013727Y0050051D01*
X0012893Y0049633D02*
X0012476Y0050051D01*
X0012059Y0050051D01*
X0011642Y0049633D01*
X0011642Y0048799D01*
X0012059Y0048382D01*
X0012476Y0048382D01*
X0012893Y0048799D01*
X0012893Y0047288D02*
X0013310Y0046871D01*
X0013310Y0045620D01*
X0013310Y0046454D02*
X0014144Y0047288D01*
X0012893Y0047288D02*
X0012059Y0047288D01*
X0011642Y0046871D01*
X0011642Y0045620D01*
X0014144Y0045620D01*
X0189383Y0010171D02*
X0190133Y0009420D01*
X0190884Y0009420D01*
X0191635Y0010171D01*
X0191635Y0013924D01*
X0192385Y0013924D02*
X0190884Y0013924D01*
X0193987Y0013924D02*
X0193987Y0009420D01*
X0193987Y0010921D02*
X0196239Y0010921D01*
X0196989Y0011672D01*
X0196989Y0013173D01*
X0196239Y0013924D01*
X0193987Y0013924D01*
X0198591Y0013173D02*
X0199341Y0013924D01*
X0200842Y0013924D01*
X0201593Y0013173D01*
X0201593Y0012423D01*
X0200842Y0011672D01*
X0201593Y0010921D01*
X0201593Y0010171D01*
X0200842Y0009420D01*
X0199341Y0009420D01*
X0198591Y0010171D01*
X0200092Y0011672D02*
X0200842Y0011672D01*
D13*
X0121867Y0046957D02*
X0107289Y0046957D01*
X0107289Y0047373D01*
X0107011Y0047581D01*
X0117355Y0047581D01*
X0117355Y0047304D01*
X0121867Y0047304D01*
X0121867Y0046957D01*
X0121867Y0047132D02*
X0107289Y0047132D01*
X0107289Y0047330D02*
X0117355Y0047330D01*
X0117355Y0047529D02*
X0107081Y0047529D01*
X0106803Y0047165D02*
X0106665Y0047234D01*
X0106526Y0047026D01*
X0106526Y0046887D01*
X0106665Y0046887D01*
X0106665Y0046957D01*
X0106803Y0046887D02*
X0106803Y0047165D01*
X0106248Y0047512D02*
X0105831Y0047512D01*
X0105762Y0046957D02*
X0106040Y0046957D01*
X0106942Y0046401D02*
X0106942Y0046332D01*
X0107636Y0046332D01*
X0107636Y0046193D01*
X0107914Y0046193D01*
X0108192Y0046054D01*
X0106317Y0048067D02*
X0106109Y0048345D01*
X0104839Y0049713D02*
X0102003Y0049713D01*
X0102013Y0049733D02*
X0101805Y0049317D01*
X0101805Y0048970D01*
X0104304Y0048970D01*
X0104374Y0049247D01*
X0104859Y0049733D01*
X0102013Y0049733D01*
X0101904Y0049514D02*
X0104640Y0049514D01*
X0104442Y0049316D02*
X0101805Y0049316D01*
X0101805Y0049117D02*
X0104341Y0049117D01*
X0103819Y0048622D02*
X0103541Y0048484D01*
X0103124Y0048345D02*
X0103194Y0048067D01*
X0103124Y0048067D02*
X0102916Y0048276D01*
X0103124Y0048345D01*
X0102916Y0048622D02*
X0101736Y0048622D01*
X0101597Y0048067D01*
X0101736Y0048067D01*
X0101875Y0048206D01*
X0101944Y0048414D01*
X0102638Y0048553D01*
X0102638Y0048067D02*
X0102152Y0048067D01*
X0102222Y0047512D02*
X0102638Y0047165D01*
X0102707Y0047234D01*
X0102707Y0047304D01*
X0102985Y0047304D01*
X0103124Y0047234D02*
X0103124Y0047512D01*
X0102222Y0047512D01*
X0101875Y0047512D02*
X0101597Y0047512D01*
X0101597Y0047234D01*
X0101180Y0047234D01*
X0101180Y0047304D01*
X0100833Y0047304D01*
X0100833Y0047443D01*
X0100000Y0047443D01*
X0100000Y0047512D01*
X0099515Y0047512D01*
X0099515Y0047581D01*
X0099167Y0047581D01*
X0099167Y0047512D01*
X0098057Y0047512D01*
X0098057Y0047373D01*
X0097640Y0047373D01*
X0097640Y0047234D01*
X0097432Y0047234D01*
X0097432Y0047304D01*
X0097224Y0047304D01*
X0097224Y0047443D01*
X0096738Y0047443D01*
X0096738Y0047304D01*
X0095696Y0047304D01*
X0095557Y0047165D01*
X0095557Y0047026D01*
X0095419Y0046887D01*
X0095280Y0046748D01*
X0096599Y0046748D01*
X0096738Y0046609D01*
X0096946Y0046609D01*
X0097015Y0046679D01*
X0097363Y0046679D01*
X0097987Y0046679D01*
X0097987Y0046609D01*
X0098334Y0046609D01*
X0098334Y0046887D01*
X0098473Y0047026D01*
X0098612Y0047026D01*
X0098959Y0046679D01*
X0099167Y0046748D01*
X0099515Y0046887D01*
X0099515Y0047026D01*
X0100000Y0047026D01*
X0100000Y0046957D01*
X0100694Y0046957D01*
X0101111Y0046887D01*
X0101319Y0046748D01*
X0101042Y0046679D01*
X0100417Y0046332D01*
X0100070Y0046332D01*
X0100000Y0046540D01*
X0099723Y0046540D01*
X0099584Y0046401D01*
X0099237Y0046193D01*
X0099098Y0045985D01*
X0098959Y0045985D01*
X0098890Y0046124D01*
X0098473Y0046124D01*
X0098265Y0045985D01*
X0098057Y0045637D01*
X0097848Y0045637D01*
X0097571Y0045985D01*
X0097154Y0045985D01*
X0097154Y0045915D01*
X0097363Y0045915D01*
X0097501Y0045637D01*
X0097363Y0045499D01*
X0097154Y0045499D01*
X0097293Y0045221D01*
X0098126Y0045221D01*
X0098334Y0045013D01*
X0098265Y0044874D01*
X0096877Y0044805D01*
X0096738Y0044596D01*
X0096599Y0044527D01*
X0096252Y0044527D01*
X0096113Y0044388D01*
X0095280Y0044180D01*
X0096113Y0044110D01*
X0096182Y0044041D01*
X0098265Y0044041D01*
X0098473Y0043902D01*
X0099167Y0043902D01*
X0099376Y0043694D01*
X0099376Y0043416D01*
X0100625Y0043416D01*
X0101042Y0043139D01*
X0101250Y0043139D01*
X0101805Y0043347D01*
X0102638Y0043347D01*
X0102985Y0043139D01*
X0103055Y0042861D01*
X0104790Y0042861D01*
X0104443Y0043000D01*
X0104443Y0043208D01*
X0104651Y0043278D01*
X0104582Y0043347D01*
X0103957Y0043347D01*
X0103957Y0043208D01*
X0103610Y0043208D01*
X0103610Y0043347D01*
X0103194Y0043347D01*
X0103194Y0043069D01*
X0104235Y0043069D01*
X0104235Y0043139D01*
X0103332Y0043139D01*
X0103402Y0042514D02*
X0106456Y0042514D01*
X0106456Y0042375D01*
X0107011Y0042375D01*
X0107011Y0042514D01*
X0107636Y0042514D01*
X0107636Y0041958D01*
X0107914Y0041958D01*
X0108053Y0042097D01*
X0108261Y0042097D01*
X0108539Y0042375D01*
X0108817Y0042097D01*
X0109094Y0042097D01*
X0109372Y0042375D01*
X0109372Y0042236D01*
X0110205Y0042236D01*
X0110205Y0042514D01*
X0115619Y0042514D01*
X0115411Y0042306D01*
X0115411Y0042236D01*
X0119854Y0042236D01*
X0119507Y0041889D01*
X0103957Y0041889D01*
X0103402Y0042514D01*
X0103532Y0042368D02*
X0107636Y0042368D01*
X0107636Y0042169D02*
X0103708Y0042169D01*
X0103885Y0041971D02*
X0107636Y0041971D01*
X0107926Y0041971D02*
X0119588Y0041971D01*
X0119787Y0042169D02*
X0109166Y0042169D01*
X0109364Y0042368D02*
X0109372Y0042368D01*
X0108745Y0042169D02*
X0108333Y0042169D01*
X0108531Y0042368D02*
X0108546Y0042368D01*
X0110205Y0042368D02*
X0115473Y0042368D01*
X0104235Y0047443D02*
X0104165Y0047512D01*
X0103610Y0047443D02*
X0103541Y0047443D01*
X0103610Y0047373D01*
X0103957Y0048206D02*
X0104096Y0048345D01*
X0097363Y0046748D02*
X0097363Y0046679D01*
X0095280Y0046748D02*
X0095002Y0046748D01*
D14*
X0102152Y0050080D02*
X0104859Y0050080D01*
X0104929Y0050289D01*
X0105207Y0050566D01*
X0102499Y0050566D01*
X0102152Y0050080D01*
X0102174Y0050110D02*
X0104870Y0050110D01*
X0104986Y0050345D02*
X0102341Y0050345D01*
X0102777Y0051122D02*
X0105901Y0051122D01*
X0106178Y0051469D01*
X0106178Y0051538D01*
X0106456Y0051677D01*
X0103263Y0051677D01*
X0102777Y0051122D01*
X0102919Y0051284D02*
X0106031Y0051284D01*
X0106178Y0051519D02*
X0103125Y0051519D01*
X0103541Y0052163D02*
X0106526Y0052163D01*
X0106665Y0052302D01*
X0106665Y0052649D01*
X0104096Y0052649D01*
X0103541Y0052163D01*
X0103609Y0052223D02*
X0106586Y0052223D01*
X0106665Y0052458D02*
X0103878Y0052458D01*
X0104721Y0053135D02*
X0106665Y0053135D01*
X0106803Y0053343D01*
X0107081Y0053412D01*
X0107289Y0053690D01*
X0105762Y0053690D01*
X0104721Y0053135D01*
X0104772Y0053162D02*
X0106683Y0053162D01*
X0107019Y0053397D02*
X0105212Y0053397D01*
X0105652Y0053631D02*
X0107245Y0053631D01*
X0107636Y0054176D02*
X0107844Y0054384D01*
X0107706Y0054384D01*
X0106734Y0054176D01*
X0107636Y0054176D01*
X0107478Y0054336D02*
X0107796Y0054336D01*
X0108886Y0053412D02*
X0109094Y0053690D01*
X0113120Y0053690D01*
X0113398Y0053412D01*
X0118257Y0053412D01*
X0118813Y0053135D01*
X0108747Y0053135D01*
X0108886Y0053274D01*
X0108886Y0053412D01*
X0108886Y0053397D02*
X0118288Y0053397D01*
X0118758Y0053162D02*
X0108774Y0053162D01*
X0108608Y0052649D02*
X0114856Y0052649D01*
X0114994Y0052371D01*
X0119645Y0052371D01*
X0119854Y0052163D01*
X0108469Y0052163D01*
X0108608Y0052302D01*
X0108608Y0052649D01*
X0108608Y0052458D02*
X0114951Y0052458D01*
X0114647Y0051677D02*
X0115689Y0051607D01*
X0115758Y0051469D01*
X0120409Y0051469D01*
X0120687Y0051122D01*
X0107706Y0051122D01*
X0107706Y0051191D01*
X0108122Y0051677D01*
X0114647Y0051677D01*
X0115733Y0051519D02*
X0107987Y0051519D01*
X0107785Y0051284D02*
X0120557Y0051284D01*
X0121103Y0050358D02*
X0121242Y0050080D01*
X0106665Y0050080D01*
X0106665Y0050219D01*
X0107011Y0050635D01*
X0116452Y0050635D01*
X0116730Y0050358D01*
X0121103Y0050358D01*
X0121110Y0050345D02*
X0106769Y0050345D01*
X0106665Y0050110D02*
X0121227Y0050110D01*
X0121520Y0049317D02*
X0117216Y0049317D01*
X0117146Y0049386D01*
X0116799Y0049733D01*
X0106387Y0049733D01*
X0106387Y0048970D01*
X0121589Y0048970D01*
X0121520Y0049317D01*
X0121549Y0049171D02*
X0106387Y0049171D01*
X0106387Y0049406D02*
X0117126Y0049406D01*
X0116891Y0049641D02*
X0106387Y0049641D01*
X0106595Y0048622D02*
X0117216Y0048622D01*
X0117216Y0048345D01*
X0121867Y0048345D01*
X0121867Y0048067D01*
X0106734Y0048067D01*
X0106595Y0048622D01*
X0106634Y0048467D02*
X0117216Y0048467D01*
X0117285Y0046540D02*
X0117285Y0046401D01*
X0121867Y0046401D01*
X0121797Y0045915D01*
X0113676Y0045915D01*
X0113537Y0046401D01*
X0113259Y0046401D01*
X0113120Y0046193D01*
X0112843Y0046193D01*
X0112773Y0046332D01*
X0112287Y0046332D01*
X0112148Y0046193D01*
X0112148Y0046470D01*
X0111454Y0046470D01*
X0111315Y0046540D01*
X0110274Y0046540D01*
X0109996Y0046332D01*
X0109441Y0046332D01*
X0109441Y0046193D01*
X0109094Y0046193D01*
X0108261Y0046540D01*
X0117285Y0046540D01*
X0117216Y0045568D02*
X0114370Y0045568D01*
X0113815Y0045291D01*
X0115272Y0045291D01*
X0115411Y0045499D01*
X0115828Y0045499D01*
X0115828Y0045360D01*
X0116244Y0045360D01*
X0116244Y0045013D01*
X0121520Y0045013D01*
X0121589Y0045152D01*
X0121589Y0045291D01*
X0117216Y0045291D01*
X0117216Y0045568D01*
X0117216Y0045416D02*
X0115828Y0045416D01*
X0115356Y0045416D02*
X0114065Y0045416D01*
X0113617Y0046120D02*
X0121827Y0046120D01*
X0121860Y0046355D02*
X0113550Y0046355D01*
X0113228Y0046355D02*
X0112148Y0046355D01*
X0110027Y0046355D02*
X0108706Y0046355D01*
X0106693Y0048233D02*
X0121867Y0048233D01*
X0121589Y0045181D02*
X0116244Y0045181D01*
X0116522Y0044457D02*
X0115689Y0044457D01*
X0115689Y0044388D01*
X0116383Y0044388D01*
X0116383Y0044249D01*
X0116313Y0044110D01*
X0115828Y0044041D01*
X0115550Y0044041D01*
X0115411Y0044180D01*
X0114786Y0044180D01*
X0114925Y0043902D01*
X0121034Y0043902D01*
X0121242Y0044249D01*
X0116869Y0044249D01*
X0116869Y0044527D01*
X0116799Y0044527D01*
X0116730Y0044388D01*
X0116522Y0044457D01*
X0116774Y0044477D02*
X0116869Y0044477D01*
X0116379Y0044242D02*
X0121238Y0044242D01*
X0121097Y0044007D02*
X0114873Y0044007D01*
X0115411Y0043555D02*
X0113537Y0043555D01*
X0113537Y0043416D01*
X0113467Y0043347D01*
X0113190Y0043347D01*
X0112912Y0043069D01*
X0112218Y0043069D01*
X0112218Y0043000D01*
X0112148Y0042930D01*
X0111038Y0042930D01*
X0111038Y0043069D01*
X0110760Y0043069D01*
X0110760Y0042861D01*
X0120270Y0042861D01*
X0120687Y0043278D01*
X0120687Y0043347D01*
X0116244Y0043347D01*
X0116313Y0043486D01*
X0115480Y0043486D01*
X0115411Y0043555D01*
X0115428Y0043538D02*
X0113537Y0043538D01*
X0113146Y0043303D02*
X0120687Y0043303D01*
X0120477Y0043068D02*
X0112218Y0043068D01*
X0111038Y0043068D02*
X0110760Y0043068D01*
X0112634Y0040362D02*
X0106248Y0040362D01*
X0107983Y0039945D01*
X0115480Y0039945D01*
X0116591Y0040084D01*
X0112287Y0040084D01*
X0112634Y0040362D01*
X0112497Y0040252D02*
X0106707Y0040252D01*
X0107685Y0040017D02*
X0116053Y0040017D01*
X0114509Y0041472D02*
X0104374Y0041472D01*
X0105346Y0040848D01*
X0118049Y0040848D01*
X0118674Y0041195D01*
X0114231Y0041195D01*
X0114509Y0041472D01*
X0114462Y0041425D02*
X0104447Y0041425D01*
X0104812Y0041191D02*
X0118666Y0041191D01*
X0118244Y0040956D02*
X0105177Y0040956D01*
X0106965Y0050580D02*
X0116508Y0050580D01*
X0119793Y0052223D02*
X0108529Y0052223D01*
X0109050Y0053631D02*
X0113179Y0053631D01*
X0115064Y0054523D02*
X0109511Y0054523D01*
X0109302Y0054176D01*
X0116661Y0054176D01*
X0116105Y0054245D01*
X0115758Y0054384D01*
X0115203Y0054384D01*
X0115064Y0054523D01*
X0115880Y0054336D02*
X0109398Y0054336D01*
D15*
X0057666Y0033023D02*
X0057666Y0029720D01*
X0056565Y0029720D02*
X0058767Y0029720D01*
X0056565Y0031922D02*
X0057666Y0033023D01*
X0055084Y0033023D02*
X0053983Y0033023D01*
X0054534Y0033023D02*
X0054534Y0030271D01*
X0053983Y0029720D01*
X0053433Y0029720D01*
X0052882Y0030271D01*
X0061739Y0102465D02*
X0061739Y0105050D01*
X0061739Y0102465D02*
X0062356Y0102465D01*
X0072933Y0102465D02*
X0073550Y0102465D01*
X0073550Y0105050D01*
X0073550Y0111690D02*
X0073550Y0114276D01*
X0072933Y0114276D01*
X0062356Y0114276D02*
X0061739Y0114276D01*
X0061739Y0111690D01*
D16*
X0198644Y0114370D02*
X0198652Y0115008D01*
X0198675Y0115646D01*
X0198714Y0116283D01*
X0198769Y0116918D01*
X0198840Y0117553D01*
X0198925Y0118185D01*
X0199027Y0118815D01*
X0199144Y0119442D01*
X0199276Y0120067D01*
X0199423Y0120687D01*
X0199586Y0121305D01*
X0199764Y0121917D01*
X0199956Y0122526D01*
X0200164Y0123129D01*
X0200386Y0123727D01*
X0200623Y0124320D01*
X0200875Y0124906D01*
X0201140Y0125486D01*
X0201420Y0126060D01*
X0201714Y0126626D01*
X0202022Y0127185D01*
X0202343Y0127737D01*
X0202678Y0128280D01*
X0203026Y0128815D01*
X0203387Y0129341D01*
X0203761Y0129858D01*
X0204147Y0130366D01*
X0204546Y0130864D01*
X0204957Y0131352D01*
X0205379Y0131831D01*
X0205814Y0132298D01*
X0206259Y0132755D01*
X0206716Y0133200D01*
X0207183Y0133635D01*
X0207662Y0134057D01*
X0208150Y0134468D01*
X0208648Y0134867D01*
X0209156Y0135253D01*
X0209673Y0135627D01*
X0210199Y0135988D01*
X0210734Y0136336D01*
X0211277Y0136671D01*
X0211829Y0136992D01*
X0212388Y0137300D01*
X0212954Y0137594D01*
X0213528Y0137874D01*
X0214108Y0138139D01*
X0214694Y0138391D01*
X0215287Y0138628D01*
X0215885Y0138850D01*
X0216488Y0139058D01*
X0217097Y0139250D01*
X0217709Y0139428D01*
X0218327Y0139591D01*
X0218947Y0139738D01*
X0219572Y0139870D01*
X0220199Y0139987D01*
X0220829Y0140089D01*
X0221461Y0140174D01*
X0222096Y0140245D01*
X0222731Y0140300D01*
X0223368Y0140339D01*
X0224006Y0140362D01*
X0224644Y0140370D01*
X0225282Y0140362D01*
X0225920Y0140339D01*
X0226557Y0140300D01*
X0227192Y0140245D01*
X0227827Y0140174D01*
X0228459Y0140089D01*
X0229089Y0139987D01*
X0229716Y0139870D01*
X0230341Y0139738D01*
X0230961Y0139591D01*
X0231579Y0139428D01*
X0232191Y0139250D01*
X0232800Y0139058D01*
X0233403Y0138850D01*
X0234001Y0138628D01*
X0234594Y0138391D01*
X0235180Y0138139D01*
X0235760Y0137874D01*
X0236334Y0137594D01*
X0236900Y0137300D01*
X0237459Y0136992D01*
X0238011Y0136671D01*
X0238554Y0136336D01*
X0239089Y0135988D01*
X0239615Y0135627D01*
X0240132Y0135253D01*
X0240640Y0134867D01*
X0241138Y0134468D01*
X0241626Y0134057D01*
X0242105Y0133635D01*
X0242572Y0133200D01*
X0243029Y0132755D01*
X0243474Y0132298D01*
X0243909Y0131831D01*
X0244331Y0131352D01*
X0244742Y0130864D01*
X0245141Y0130366D01*
X0245527Y0129858D01*
X0245901Y0129341D01*
X0246262Y0128815D01*
X0246610Y0128280D01*
X0246945Y0127737D01*
X0247266Y0127185D01*
X0247574Y0126626D01*
X0247868Y0126060D01*
X0248148Y0125486D01*
X0248413Y0124906D01*
X0248665Y0124320D01*
X0248902Y0123727D01*
X0249124Y0123129D01*
X0249332Y0122526D01*
X0249524Y0121917D01*
X0249702Y0121305D01*
X0249865Y0120687D01*
X0250012Y0120067D01*
X0250144Y0119442D01*
X0250261Y0118815D01*
X0250363Y0118185D01*
X0250448Y0117553D01*
X0250519Y0116918D01*
X0250574Y0116283D01*
X0250613Y0115646D01*
X0250636Y0115008D01*
X0250644Y0114370D01*
X0250636Y0113732D01*
X0250613Y0113094D01*
X0250574Y0112457D01*
X0250519Y0111822D01*
X0250448Y0111187D01*
X0250363Y0110555D01*
X0250261Y0109925D01*
X0250144Y0109298D01*
X0250012Y0108673D01*
X0249865Y0108053D01*
X0249702Y0107435D01*
X0249524Y0106823D01*
X0249332Y0106214D01*
X0249124Y0105611D01*
X0248902Y0105013D01*
X0248665Y0104420D01*
X0248413Y0103834D01*
X0248148Y0103254D01*
X0247868Y0102680D01*
X0247574Y0102114D01*
X0247266Y0101555D01*
X0246945Y0101003D01*
X0246610Y0100460D01*
X0246262Y0099925D01*
X0245901Y0099399D01*
X0245527Y0098882D01*
X0245141Y0098374D01*
X0244742Y0097876D01*
X0244331Y0097388D01*
X0243909Y0096909D01*
X0243474Y0096442D01*
X0243029Y0095985D01*
X0242572Y0095540D01*
X0242105Y0095105D01*
X0241626Y0094683D01*
X0241138Y0094272D01*
X0240640Y0093873D01*
X0240132Y0093487D01*
X0239615Y0093113D01*
X0239089Y0092752D01*
X0238554Y0092404D01*
X0238011Y0092069D01*
X0237459Y0091748D01*
X0236900Y0091440D01*
X0236334Y0091146D01*
X0235760Y0090866D01*
X0235180Y0090601D01*
X0234594Y0090349D01*
X0234001Y0090112D01*
X0233403Y0089890D01*
X0232800Y0089682D01*
X0232191Y0089490D01*
X0231579Y0089312D01*
X0230961Y0089149D01*
X0230341Y0089002D01*
X0229716Y0088870D01*
X0229089Y0088753D01*
X0228459Y0088651D01*
X0227827Y0088566D01*
X0227192Y0088495D01*
X0226557Y0088440D01*
X0225920Y0088401D01*
X0225282Y0088378D01*
X0224644Y0088370D01*
X0224006Y0088378D01*
X0223368Y0088401D01*
X0222731Y0088440D01*
X0222096Y0088495D01*
X0221461Y0088566D01*
X0220829Y0088651D01*
X0220199Y0088753D01*
X0219572Y0088870D01*
X0218947Y0089002D01*
X0218327Y0089149D01*
X0217709Y0089312D01*
X0217097Y0089490D01*
X0216488Y0089682D01*
X0215885Y0089890D01*
X0215287Y0090112D01*
X0214694Y0090349D01*
X0214108Y0090601D01*
X0213528Y0090866D01*
X0212954Y0091146D01*
X0212388Y0091440D01*
X0211829Y0091748D01*
X0211277Y0092069D01*
X0210734Y0092404D01*
X0210199Y0092752D01*
X0209673Y0093113D01*
X0209156Y0093487D01*
X0208648Y0093873D01*
X0208150Y0094272D01*
X0207662Y0094683D01*
X0207183Y0095105D01*
X0206716Y0095540D01*
X0206259Y0095985D01*
X0205814Y0096442D01*
X0205379Y0096909D01*
X0204957Y0097388D01*
X0204546Y0097876D01*
X0204147Y0098374D01*
X0203761Y0098882D01*
X0203387Y0099399D01*
X0203026Y0099925D01*
X0202678Y0100460D01*
X0202343Y0101003D01*
X0202022Y0101555D01*
X0201714Y0102114D01*
X0201420Y0102680D01*
X0201140Y0103254D01*
X0200875Y0103834D01*
X0200623Y0104420D01*
X0200386Y0105013D01*
X0200164Y0105611D01*
X0199956Y0106214D01*
X0199764Y0106823D01*
X0199586Y0107435D01*
X0199423Y0108053D01*
X0199276Y0108673D01*
X0199144Y0109298D01*
X0199027Y0109925D01*
X0198925Y0110555D01*
X0198840Y0111187D01*
X0198769Y0111822D01*
X0198714Y0112457D01*
X0198675Y0113094D01*
X0198652Y0113732D01*
X0198644Y0114370D01*
X0197644Y0056370D02*
X0197652Y0057008D01*
X0197675Y0057646D01*
X0197714Y0058283D01*
X0197769Y0058918D01*
X0197840Y0059553D01*
X0197925Y0060185D01*
X0198027Y0060815D01*
X0198144Y0061442D01*
X0198276Y0062067D01*
X0198423Y0062687D01*
X0198586Y0063305D01*
X0198764Y0063917D01*
X0198956Y0064526D01*
X0199164Y0065129D01*
X0199386Y0065727D01*
X0199623Y0066320D01*
X0199875Y0066906D01*
X0200140Y0067486D01*
X0200420Y0068060D01*
X0200714Y0068626D01*
X0201022Y0069185D01*
X0201343Y0069737D01*
X0201678Y0070280D01*
X0202026Y0070815D01*
X0202387Y0071341D01*
X0202761Y0071858D01*
X0203147Y0072366D01*
X0203546Y0072864D01*
X0203957Y0073352D01*
X0204379Y0073831D01*
X0204814Y0074298D01*
X0205259Y0074755D01*
X0205716Y0075200D01*
X0206183Y0075635D01*
X0206662Y0076057D01*
X0207150Y0076468D01*
X0207648Y0076867D01*
X0208156Y0077253D01*
X0208673Y0077627D01*
X0209199Y0077988D01*
X0209734Y0078336D01*
X0210277Y0078671D01*
X0210829Y0078992D01*
X0211388Y0079300D01*
X0211954Y0079594D01*
X0212528Y0079874D01*
X0213108Y0080139D01*
X0213694Y0080391D01*
X0214287Y0080628D01*
X0214885Y0080850D01*
X0215488Y0081058D01*
X0216097Y0081250D01*
X0216709Y0081428D01*
X0217327Y0081591D01*
X0217947Y0081738D01*
X0218572Y0081870D01*
X0219199Y0081987D01*
X0219829Y0082089D01*
X0220461Y0082174D01*
X0221096Y0082245D01*
X0221731Y0082300D01*
X0222368Y0082339D01*
X0223006Y0082362D01*
X0223644Y0082370D01*
X0224282Y0082362D01*
X0224920Y0082339D01*
X0225557Y0082300D01*
X0226192Y0082245D01*
X0226827Y0082174D01*
X0227459Y0082089D01*
X0228089Y0081987D01*
X0228716Y0081870D01*
X0229341Y0081738D01*
X0229961Y0081591D01*
X0230579Y0081428D01*
X0231191Y0081250D01*
X0231800Y0081058D01*
X0232403Y0080850D01*
X0233001Y0080628D01*
X0233594Y0080391D01*
X0234180Y0080139D01*
X0234760Y0079874D01*
X0235334Y0079594D01*
X0235900Y0079300D01*
X0236459Y0078992D01*
X0237011Y0078671D01*
X0237554Y0078336D01*
X0238089Y0077988D01*
X0238615Y0077627D01*
X0239132Y0077253D01*
X0239640Y0076867D01*
X0240138Y0076468D01*
X0240626Y0076057D01*
X0241105Y0075635D01*
X0241572Y0075200D01*
X0242029Y0074755D01*
X0242474Y0074298D01*
X0242909Y0073831D01*
X0243331Y0073352D01*
X0243742Y0072864D01*
X0244141Y0072366D01*
X0244527Y0071858D01*
X0244901Y0071341D01*
X0245262Y0070815D01*
X0245610Y0070280D01*
X0245945Y0069737D01*
X0246266Y0069185D01*
X0246574Y0068626D01*
X0246868Y0068060D01*
X0247148Y0067486D01*
X0247413Y0066906D01*
X0247665Y0066320D01*
X0247902Y0065727D01*
X0248124Y0065129D01*
X0248332Y0064526D01*
X0248524Y0063917D01*
X0248702Y0063305D01*
X0248865Y0062687D01*
X0249012Y0062067D01*
X0249144Y0061442D01*
X0249261Y0060815D01*
X0249363Y0060185D01*
X0249448Y0059553D01*
X0249519Y0058918D01*
X0249574Y0058283D01*
X0249613Y0057646D01*
X0249636Y0057008D01*
X0249644Y0056370D01*
X0249636Y0055732D01*
X0249613Y0055094D01*
X0249574Y0054457D01*
X0249519Y0053822D01*
X0249448Y0053187D01*
X0249363Y0052555D01*
X0249261Y0051925D01*
X0249144Y0051298D01*
X0249012Y0050673D01*
X0248865Y0050053D01*
X0248702Y0049435D01*
X0248524Y0048823D01*
X0248332Y0048214D01*
X0248124Y0047611D01*
X0247902Y0047013D01*
X0247665Y0046420D01*
X0247413Y0045834D01*
X0247148Y0045254D01*
X0246868Y0044680D01*
X0246574Y0044114D01*
X0246266Y0043555D01*
X0245945Y0043003D01*
X0245610Y0042460D01*
X0245262Y0041925D01*
X0244901Y0041399D01*
X0244527Y0040882D01*
X0244141Y0040374D01*
X0243742Y0039876D01*
X0243331Y0039388D01*
X0242909Y0038909D01*
X0242474Y0038442D01*
X0242029Y0037985D01*
X0241572Y0037540D01*
X0241105Y0037105D01*
X0240626Y0036683D01*
X0240138Y0036272D01*
X0239640Y0035873D01*
X0239132Y0035487D01*
X0238615Y0035113D01*
X0238089Y0034752D01*
X0237554Y0034404D01*
X0237011Y0034069D01*
X0236459Y0033748D01*
X0235900Y0033440D01*
X0235334Y0033146D01*
X0234760Y0032866D01*
X0234180Y0032601D01*
X0233594Y0032349D01*
X0233001Y0032112D01*
X0232403Y0031890D01*
X0231800Y0031682D01*
X0231191Y0031490D01*
X0230579Y0031312D01*
X0229961Y0031149D01*
X0229341Y0031002D01*
X0228716Y0030870D01*
X0228089Y0030753D01*
X0227459Y0030651D01*
X0226827Y0030566D01*
X0226192Y0030495D01*
X0225557Y0030440D01*
X0224920Y0030401D01*
X0224282Y0030378D01*
X0223644Y0030370D01*
X0223006Y0030378D01*
X0222368Y0030401D01*
X0221731Y0030440D01*
X0221096Y0030495D01*
X0220461Y0030566D01*
X0219829Y0030651D01*
X0219199Y0030753D01*
X0218572Y0030870D01*
X0217947Y0031002D01*
X0217327Y0031149D01*
X0216709Y0031312D01*
X0216097Y0031490D01*
X0215488Y0031682D01*
X0214885Y0031890D01*
X0214287Y0032112D01*
X0213694Y0032349D01*
X0213108Y0032601D01*
X0212528Y0032866D01*
X0211954Y0033146D01*
X0211388Y0033440D01*
X0210829Y0033748D01*
X0210277Y0034069D01*
X0209734Y0034404D01*
X0209199Y0034752D01*
X0208673Y0035113D01*
X0208156Y0035487D01*
X0207648Y0035873D01*
X0207150Y0036272D01*
X0206662Y0036683D01*
X0206183Y0037105D01*
X0205716Y0037540D01*
X0205259Y0037985D01*
X0204814Y0038442D01*
X0204379Y0038909D01*
X0203957Y0039388D01*
X0203546Y0039876D01*
X0203147Y0040374D01*
X0202761Y0040882D01*
X0202387Y0041399D01*
X0202026Y0041925D01*
X0201678Y0042460D01*
X0201343Y0043003D01*
X0201022Y0043555D01*
X0200714Y0044114D01*
X0200420Y0044680D01*
X0200140Y0045254D01*
X0199875Y0045834D01*
X0199623Y0046420D01*
X0199386Y0047013D01*
X0199164Y0047611D01*
X0198956Y0048214D01*
X0198764Y0048823D01*
X0198586Y0049435D01*
X0198423Y0050053D01*
X0198276Y0050673D01*
X0198144Y0051298D01*
X0198027Y0051925D01*
X0197925Y0052555D01*
X0197840Y0053187D01*
X0197769Y0053822D01*
X0197714Y0054457D01*
X0197675Y0055094D01*
X0197652Y0055732D01*
X0197644Y0056370D01*
D17*
X0050581Y0112315D02*
X0050581Y0120465D01*
X0042707Y0120465D01*
X0042707Y0112315D01*
X0050581Y0112315D01*
X0043289Y0113732D02*
X0043291Y0113787D01*
X0043297Y0113841D01*
X0043307Y0113895D01*
X0043320Y0113948D01*
X0043338Y0113999D01*
X0043359Y0114050D01*
X0043384Y0114099D01*
X0043412Y0114145D01*
X0043443Y0114190D01*
X0043478Y0114232D01*
X0043516Y0114272D01*
X0043556Y0114309D01*
X0043599Y0114343D01*
X0043644Y0114373D01*
X0043691Y0114401D01*
X0043741Y0114425D01*
X0043791Y0114445D01*
X0043843Y0114461D01*
X0043897Y0114474D01*
X0043951Y0114483D01*
X0044005Y0114488D01*
X0044060Y0114489D01*
X0044114Y0114486D01*
X0044168Y0114479D01*
X0044222Y0114468D01*
X0044275Y0114454D01*
X0044326Y0114435D01*
X0044376Y0114413D01*
X0044424Y0114388D01*
X0044471Y0114359D01*
X0044515Y0114326D01*
X0044557Y0114291D01*
X0044596Y0114253D01*
X0044632Y0114212D01*
X0044665Y0114168D01*
X0044695Y0114122D01*
X0044721Y0114074D01*
X0044744Y0114025D01*
X0044763Y0113974D01*
X0044779Y0113921D01*
X0044791Y0113868D01*
X0044799Y0113814D01*
X0044803Y0113759D01*
X0044803Y0113705D01*
X0044799Y0113650D01*
X0044791Y0113596D01*
X0044779Y0113543D01*
X0044763Y0113490D01*
X0044744Y0113439D01*
X0044721Y0113390D01*
X0044695Y0113342D01*
X0044665Y0113296D01*
X0044632Y0113252D01*
X0044596Y0113211D01*
X0044557Y0113173D01*
X0044515Y0113138D01*
X0044471Y0113105D01*
X0044425Y0113076D01*
X0044376Y0113051D01*
X0044326Y0113029D01*
X0044275Y0113010D01*
X0044222Y0112996D01*
X0044168Y0112985D01*
X0044114Y0112978D01*
X0044060Y0112975D01*
X0044005Y0112976D01*
X0043951Y0112981D01*
X0043897Y0112990D01*
X0043843Y0113003D01*
X0043791Y0113019D01*
X0043741Y0113039D01*
X0043691Y0113063D01*
X0043644Y0113091D01*
X0043599Y0113121D01*
X0043556Y0113155D01*
X0043516Y0113192D01*
X0043478Y0113232D01*
X0043443Y0113274D01*
X0043412Y0113319D01*
X0043384Y0113365D01*
X0043359Y0113414D01*
X0043338Y0113465D01*
X0043320Y0113516D01*
X0043307Y0113569D01*
X0043297Y0113623D01*
X0043291Y0113677D01*
X0043289Y0113732D01*
M02*
