G75*
%MOIN*%
%OFA0B0*%
%FSLAX25Y25*%
%IPPOS*%
%LPD*%
%AMOC8*
5,1,8,0,0,1.08239X$1,22.5*
%
%ADD10C,0.12300*%
%ADD11OC8,0.05224*%
%ADD12C,0.09949*%
%ADD13C,0.04700*%
%ADD14OC8,0.07900*%
%ADD15C,0.07500*%
%ADD16C,0.06799*%
%ADD17C,0.07900*%
%ADD18OC8,0.09000*%
D10*
X0015644Y0024370D03*
X0017644Y0167370D03*
X0247644Y0168370D03*
X0247644Y0024370D03*
D11*
X0188644Y0122370D03*
X0178644Y0122370D03*
X0168644Y0122370D03*
X0158644Y0122370D03*
X0148644Y0122370D03*
X0138644Y0122370D03*
X0128644Y0122370D03*
X0118644Y0122370D03*
X0108644Y0122370D03*
X0108644Y0132370D03*
X0118644Y0132370D03*
X0128644Y0132370D03*
X0138644Y0132370D03*
X0148644Y0132370D03*
X0158644Y0132370D03*
X0168644Y0132370D03*
X0178644Y0132370D03*
X0188644Y0132370D03*
D12*
X0071015Y0030488D03*
X0042274Y0030488D03*
D13*
X0053613Y0045646D03*
X0056644Y0050370D03*
X0050345Y0050370D03*
X0059794Y0045646D03*
X0062944Y0050370D03*
D14*
X0066644Y0156370D03*
X0056644Y0156370D03*
X0056644Y0166370D03*
X0066644Y0166370D03*
X0076644Y0166370D03*
X0086644Y0166370D03*
X0096644Y0166370D03*
X0106644Y0166370D03*
X0116644Y0166370D03*
X0126644Y0166370D03*
X0126644Y0156370D03*
X0116644Y0156370D03*
X0106644Y0156370D03*
X0096644Y0156370D03*
X0086644Y0156370D03*
X0076644Y0156370D03*
X0140644Y0156370D03*
X0150644Y0156370D03*
X0160644Y0156370D03*
X0170644Y0156370D03*
X0180644Y0156370D03*
X0190644Y0156370D03*
X0200644Y0156370D03*
X0210644Y0156370D03*
X0210644Y0166370D03*
X0200644Y0166370D03*
X0190644Y0166370D03*
X0180644Y0166370D03*
X0170644Y0166370D03*
X0160644Y0166370D03*
X0150644Y0166370D03*
X0140644Y0166370D03*
D15*
X0171644Y0109165D03*
X0171644Y0083575D03*
X0170644Y0062165D03*
X0170644Y0036575D03*
D16*
X0030644Y0127559D03*
X0030644Y0135433D03*
X0030644Y0143307D03*
X0030644Y0151181D03*
D17*
X0090644Y0122370D03*
X0090644Y0112370D03*
X0090644Y0095370D03*
X0090644Y0085370D03*
X0157644Y0020870D03*
X0167644Y0021870D03*
X0177644Y0020870D03*
X0187644Y0021870D03*
X0197644Y0020870D03*
D18*
X0055644Y0075370D03*
X0041644Y0059370D03*
X0031644Y0024370D03*
M02*
