G75*
%MOIN*%
%OFA0B0*%
%FSLAX25Y25*%
%IPPOS*%
%LPD*%
%AMOC8*
5,1,8,0,0,1.08239X$1,22.5*
%
%ADD10C,0.00000*%
%ADD11OC8,0.04724*%
%ADD12OC8,0.07400*%
%ADD13C,0.07000*%
%ADD14C,0.02800*%
%ADD15C,0.06299*%
%ADD16C,0.07400*%
%ADD17OC8,0.08500*%
%ADD18C,0.04724*%
%ADD19C,0.00600*%
%ADD20C,0.02700*%
%ADD21C,0.01600*%
%ADD22C,0.02900*%
%ADD23C,0.04000*%
%ADD24C,0.00700*%
%ADD25C,0.06000*%
%ADD26C,0.03762*%
%ADD27C,0.01000*%
D10*
X0006644Y0015400D02*
X0006644Y0175400D01*
X0256644Y0175400D01*
X0256566Y0015400D01*
X0006644Y0015400D01*
X0009744Y0024400D02*
X0009746Y0024553D01*
X0009752Y0024706D01*
X0009762Y0024859D01*
X0009776Y0025012D01*
X0009794Y0025164D01*
X0009815Y0025315D01*
X0009841Y0025466D01*
X0009871Y0025617D01*
X0009904Y0025766D01*
X0009942Y0025915D01*
X0009983Y0026062D01*
X0010028Y0026209D01*
X0010077Y0026354D01*
X0010129Y0026498D01*
X0010186Y0026640D01*
X0010246Y0026781D01*
X0010309Y0026920D01*
X0010377Y0027058D01*
X0010447Y0027194D01*
X0010522Y0027328D01*
X0010599Y0027460D01*
X0010681Y0027590D01*
X0010765Y0027718D01*
X0010853Y0027843D01*
X0010944Y0027966D01*
X0011038Y0028087D01*
X0011135Y0028205D01*
X0011236Y0028321D01*
X0011339Y0028434D01*
X0011445Y0028545D01*
X0011554Y0028652D01*
X0011666Y0028757D01*
X0011780Y0028859D01*
X0011897Y0028958D01*
X0012017Y0029053D01*
X0012139Y0029146D01*
X0012263Y0029235D01*
X0012390Y0029322D01*
X0012519Y0029404D01*
X0012650Y0029484D01*
X0012783Y0029560D01*
X0012918Y0029632D01*
X0013055Y0029701D01*
X0013193Y0029767D01*
X0013333Y0029829D01*
X0013475Y0029887D01*
X0013618Y0029941D01*
X0013763Y0029992D01*
X0013908Y0030039D01*
X0014055Y0030082D01*
X0014203Y0030121D01*
X0014352Y0030157D01*
X0014502Y0030188D01*
X0014653Y0030216D01*
X0014804Y0030240D01*
X0014956Y0030260D01*
X0015109Y0030276D01*
X0015261Y0030288D01*
X0015414Y0030296D01*
X0015567Y0030300D01*
X0015721Y0030300D01*
X0015874Y0030296D01*
X0016027Y0030288D01*
X0016179Y0030276D01*
X0016332Y0030260D01*
X0016484Y0030240D01*
X0016635Y0030216D01*
X0016786Y0030188D01*
X0016936Y0030157D01*
X0017085Y0030121D01*
X0017233Y0030082D01*
X0017380Y0030039D01*
X0017525Y0029992D01*
X0017670Y0029941D01*
X0017813Y0029887D01*
X0017955Y0029829D01*
X0018095Y0029767D01*
X0018233Y0029701D01*
X0018370Y0029632D01*
X0018505Y0029560D01*
X0018638Y0029484D01*
X0018769Y0029404D01*
X0018898Y0029322D01*
X0019025Y0029235D01*
X0019149Y0029146D01*
X0019271Y0029053D01*
X0019391Y0028958D01*
X0019508Y0028859D01*
X0019622Y0028757D01*
X0019734Y0028652D01*
X0019843Y0028545D01*
X0019949Y0028434D01*
X0020052Y0028321D01*
X0020153Y0028205D01*
X0020250Y0028087D01*
X0020344Y0027966D01*
X0020435Y0027843D01*
X0020523Y0027718D01*
X0020607Y0027590D01*
X0020689Y0027460D01*
X0020766Y0027328D01*
X0020841Y0027194D01*
X0020911Y0027058D01*
X0020979Y0026920D01*
X0021042Y0026781D01*
X0021102Y0026640D01*
X0021159Y0026498D01*
X0021211Y0026354D01*
X0021260Y0026209D01*
X0021305Y0026062D01*
X0021346Y0025915D01*
X0021384Y0025766D01*
X0021417Y0025617D01*
X0021447Y0025466D01*
X0021473Y0025315D01*
X0021494Y0025164D01*
X0021512Y0025012D01*
X0021526Y0024859D01*
X0021536Y0024706D01*
X0021542Y0024553D01*
X0021544Y0024400D01*
X0021542Y0024247D01*
X0021536Y0024094D01*
X0021526Y0023941D01*
X0021512Y0023788D01*
X0021494Y0023636D01*
X0021473Y0023485D01*
X0021447Y0023334D01*
X0021417Y0023183D01*
X0021384Y0023034D01*
X0021346Y0022885D01*
X0021305Y0022738D01*
X0021260Y0022591D01*
X0021211Y0022446D01*
X0021159Y0022302D01*
X0021102Y0022160D01*
X0021042Y0022019D01*
X0020979Y0021880D01*
X0020911Y0021742D01*
X0020841Y0021606D01*
X0020766Y0021472D01*
X0020689Y0021340D01*
X0020607Y0021210D01*
X0020523Y0021082D01*
X0020435Y0020957D01*
X0020344Y0020834D01*
X0020250Y0020713D01*
X0020153Y0020595D01*
X0020052Y0020479D01*
X0019949Y0020366D01*
X0019843Y0020255D01*
X0019734Y0020148D01*
X0019622Y0020043D01*
X0019508Y0019941D01*
X0019391Y0019842D01*
X0019271Y0019747D01*
X0019149Y0019654D01*
X0019025Y0019565D01*
X0018898Y0019478D01*
X0018769Y0019396D01*
X0018638Y0019316D01*
X0018505Y0019240D01*
X0018370Y0019168D01*
X0018233Y0019099D01*
X0018095Y0019033D01*
X0017955Y0018971D01*
X0017813Y0018913D01*
X0017670Y0018859D01*
X0017525Y0018808D01*
X0017380Y0018761D01*
X0017233Y0018718D01*
X0017085Y0018679D01*
X0016936Y0018643D01*
X0016786Y0018612D01*
X0016635Y0018584D01*
X0016484Y0018560D01*
X0016332Y0018540D01*
X0016179Y0018524D01*
X0016027Y0018512D01*
X0015874Y0018504D01*
X0015721Y0018500D01*
X0015567Y0018500D01*
X0015414Y0018504D01*
X0015261Y0018512D01*
X0015109Y0018524D01*
X0014956Y0018540D01*
X0014804Y0018560D01*
X0014653Y0018584D01*
X0014502Y0018612D01*
X0014352Y0018643D01*
X0014203Y0018679D01*
X0014055Y0018718D01*
X0013908Y0018761D01*
X0013763Y0018808D01*
X0013618Y0018859D01*
X0013475Y0018913D01*
X0013333Y0018971D01*
X0013193Y0019033D01*
X0013055Y0019099D01*
X0012918Y0019168D01*
X0012783Y0019240D01*
X0012650Y0019316D01*
X0012519Y0019396D01*
X0012390Y0019478D01*
X0012263Y0019565D01*
X0012139Y0019654D01*
X0012017Y0019747D01*
X0011897Y0019842D01*
X0011780Y0019941D01*
X0011666Y0020043D01*
X0011554Y0020148D01*
X0011445Y0020255D01*
X0011339Y0020366D01*
X0011236Y0020479D01*
X0011135Y0020595D01*
X0011038Y0020713D01*
X0010944Y0020834D01*
X0010853Y0020957D01*
X0010765Y0021082D01*
X0010681Y0021210D01*
X0010599Y0021340D01*
X0010522Y0021472D01*
X0010447Y0021606D01*
X0010377Y0021742D01*
X0010309Y0021880D01*
X0010246Y0022019D01*
X0010186Y0022160D01*
X0010129Y0022302D01*
X0010077Y0022446D01*
X0010028Y0022591D01*
X0009983Y0022738D01*
X0009942Y0022885D01*
X0009904Y0023034D01*
X0009871Y0023183D01*
X0009841Y0023334D01*
X0009815Y0023485D01*
X0009794Y0023636D01*
X0009776Y0023788D01*
X0009762Y0023941D01*
X0009752Y0024094D01*
X0009746Y0024247D01*
X0009744Y0024400D01*
X0050083Y0037297D02*
X0050085Y0037381D01*
X0050091Y0037464D01*
X0050101Y0037547D01*
X0050115Y0037630D01*
X0050132Y0037712D01*
X0050154Y0037793D01*
X0050179Y0037872D01*
X0050208Y0037951D01*
X0050241Y0038028D01*
X0050277Y0038103D01*
X0050317Y0038177D01*
X0050360Y0038249D01*
X0050407Y0038318D01*
X0050457Y0038385D01*
X0050510Y0038450D01*
X0050566Y0038512D01*
X0050624Y0038572D01*
X0050686Y0038629D01*
X0050750Y0038682D01*
X0050817Y0038733D01*
X0050886Y0038780D01*
X0050957Y0038825D01*
X0051030Y0038865D01*
X0051105Y0038902D01*
X0051182Y0038936D01*
X0051260Y0038966D01*
X0051339Y0038992D01*
X0051420Y0039015D01*
X0051502Y0039033D01*
X0051584Y0039048D01*
X0051667Y0039059D01*
X0051750Y0039066D01*
X0051834Y0039069D01*
X0051918Y0039068D01*
X0052001Y0039063D01*
X0052085Y0039054D01*
X0052167Y0039041D01*
X0052249Y0039025D01*
X0052330Y0039004D01*
X0052411Y0038980D01*
X0052489Y0038952D01*
X0052567Y0038920D01*
X0052643Y0038884D01*
X0052717Y0038845D01*
X0052789Y0038803D01*
X0052859Y0038757D01*
X0052927Y0038708D01*
X0052992Y0038656D01*
X0053055Y0038601D01*
X0053115Y0038543D01*
X0053173Y0038482D01*
X0053227Y0038418D01*
X0053279Y0038352D01*
X0053327Y0038284D01*
X0053372Y0038213D01*
X0053413Y0038140D01*
X0053452Y0038066D01*
X0053486Y0037990D01*
X0053517Y0037912D01*
X0053544Y0037833D01*
X0053568Y0037752D01*
X0053587Y0037671D01*
X0053603Y0037589D01*
X0053615Y0037506D01*
X0053623Y0037422D01*
X0053627Y0037339D01*
X0053627Y0037255D01*
X0053623Y0037172D01*
X0053615Y0037088D01*
X0053603Y0037005D01*
X0053587Y0036923D01*
X0053568Y0036842D01*
X0053544Y0036761D01*
X0053517Y0036682D01*
X0053486Y0036604D01*
X0053452Y0036528D01*
X0053413Y0036454D01*
X0053372Y0036381D01*
X0053327Y0036310D01*
X0053279Y0036242D01*
X0053227Y0036176D01*
X0053173Y0036112D01*
X0053115Y0036051D01*
X0053055Y0035993D01*
X0052992Y0035938D01*
X0052927Y0035886D01*
X0052859Y0035837D01*
X0052789Y0035791D01*
X0052717Y0035749D01*
X0052643Y0035710D01*
X0052567Y0035674D01*
X0052489Y0035642D01*
X0052411Y0035614D01*
X0052330Y0035590D01*
X0052249Y0035569D01*
X0052167Y0035553D01*
X0052085Y0035540D01*
X0052001Y0035531D01*
X0051918Y0035526D01*
X0051834Y0035525D01*
X0051750Y0035528D01*
X0051667Y0035535D01*
X0051584Y0035546D01*
X0051502Y0035561D01*
X0051420Y0035579D01*
X0051339Y0035602D01*
X0051260Y0035628D01*
X0051182Y0035658D01*
X0051105Y0035692D01*
X0051030Y0035729D01*
X0050957Y0035769D01*
X0050886Y0035814D01*
X0050817Y0035861D01*
X0050750Y0035912D01*
X0050686Y0035965D01*
X0050624Y0036022D01*
X0050566Y0036082D01*
X0050510Y0036144D01*
X0050457Y0036209D01*
X0050407Y0036276D01*
X0050360Y0036345D01*
X0050317Y0036417D01*
X0050277Y0036491D01*
X0050241Y0036566D01*
X0050208Y0036643D01*
X0050179Y0036722D01*
X0050154Y0036801D01*
X0050132Y0036882D01*
X0050115Y0036964D01*
X0050101Y0037047D01*
X0050091Y0037130D01*
X0050085Y0037213D01*
X0050083Y0037297D01*
X0063862Y0037297D02*
X0063864Y0037381D01*
X0063870Y0037464D01*
X0063880Y0037547D01*
X0063894Y0037630D01*
X0063911Y0037712D01*
X0063933Y0037793D01*
X0063958Y0037872D01*
X0063987Y0037951D01*
X0064020Y0038028D01*
X0064056Y0038103D01*
X0064096Y0038177D01*
X0064139Y0038249D01*
X0064186Y0038318D01*
X0064236Y0038385D01*
X0064289Y0038450D01*
X0064345Y0038512D01*
X0064403Y0038572D01*
X0064465Y0038629D01*
X0064529Y0038682D01*
X0064596Y0038733D01*
X0064665Y0038780D01*
X0064736Y0038825D01*
X0064809Y0038865D01*
X0064884Y0038902D01*
X0064961Y0038936D01*
X0065039Y0038966D01*
X0065118Y0038992D01*
X0065199Y0039015D01*
X0065281Y0039033D01*
X0065363Y0039048D01*
X0065446Y0039059D01*
X0065529Y0039066D01*
X0065613Y0039069D01*
X0065697Y0039068D01*
X0065780Y0039063D01*
X0065864Y0039054D01*
X0065946Y0039041D01*
X0066028Y0039025D01*
X0066109Y0039004D01*
X0066190Y0038980D01*
X0066268Y0038952D01*
X0066346Y0038920D01*
X0066422Y0038884D01*
X0066496Y0038845D01*
X0066568Y0038803D01*
X0066638Y0038757D01*
X0066706Y0038708D01*
X0066771Y0038656D01*
X0066834Y0038601D01*
X0066894Y0038543D01*
X0066952Y0038482D01*
X0067006Y0038418D01*
X0067058Y0038352D01*
X0067106Y0038284D01*
X0067151Y0038213D01*
X0067192Y0038140D01*
X0067231Y0038066D01*
X0067265Y0037990D01*
X0067296Y0037912D01*
X0067323Y0037833D01*
X0067347Y0037752D01*
X0067366Y0037671D01*
X0067382Y0037589D01*
X0067394Y0037506D01*
X0067402Y0037422D01*
X0067406Y0037339D01*
X0067406Y0037255D01*
X0067402Y0037172D01*
X0067394Y0037088D01*
X0067382Y0037005D01*
X0067366Y0036923D01*
X0067347Y0036842D01*
X0067323Y0036761D01*
X0067296Y0036682D01*
X0067265Y0036604D01*
X0067231Y0036528D01*
X0067192Y0036454D01*
X0067151Y0036381D01*
X0067106Y0036310D01*
X0067058Y0036242D01*
X0067006Y0036176D01*
X0066952Y0036112D01*
X0066894Y0036051D01*
X0066834Y0035993D01*
X0066771Y0035938D01*
X0066706Y0035886D01*
X0066638Y0035837D01*
X0066568Y0035791D01*
X0066496Y0035749D01*
X0066422Y0035710D01*
X0066346Y0035674D01*
X0066268Y0035642D01*
X0066190Y0035614D01*
X0066109Y0035590D01*
X0066028Y0035569D01*
X0065946Y0035553D01*
X0065864Y0035540D01*
X0065780Y0035531D01*
X0065697Y0035526D01*
X0065613Y0035525D01*
X0065529Y0035528D01*
X0065446Y0035535D01*
X0065363Y0035546D01*
X0065281Y0035561D01*
X0065199Y0035579D01*
X0065118Y0035602D01*
X0065039Y0035628D01*
X0064961Y0035658D01*
X0064884Y0035692D01*
X0064809Y0035729D01*
X0064736Y0035769D01*
X0064665Y0035814D01*
X0064596Y0035861D01*
X0064529Y0035912D01*
X0064465Y0035965D01*
X0064403Y0036022D01*
X0064345Y0036082D01*
X0064289Y0036144D01*
X0064236Y0036209D01*
X0064186Y0036276D01*
X0064139Y0036345D01*
X0064096Y0036417D01*
X0064056Y0036491D01*
X0064020Y0036566D01*
X0063987Y0036643D01*
X0063958Y0036722D01*
X0063933Y0036801D01*
X0063911Y0036882D01*
X0063894Y0036964D01*
X0063880Y0037047D01*
X0063870Y0037130D01*
X0063864Y0037213D01*
X0063862Y0037297D01*
X0011744Y0167400D02*
X0011746Y0167553D01*
X0011752Y0167706D01*
X0011762Y0167859D01*
X0011776Y0168012D01*
X0011794Y0168164D01*
X0011815Y0168315D01*
X0011841Y0168466D01*
X0011871Y0168617D01*
X0011904Y0168766D01*
X0011942Y0168915D01*
X0011983Y0169062D01*
X0012028Y0169209D01*
X0012077Y0169354D01*
X0012129Y0169498D01*
X0012186Y0169640D01*
X0012246Y0169781D01*
X0012309Y0169920D01*
X0012377Y0170058D01*
X0012447Y0170194D01*
X0012522Y0170328D01*
X0012599Y0170460D01*
X0012681Y0170590D01*
X0012765Y0170718D01*
X0012853Y0170843D01*
X0012944Y0170966D01*
X0013038Y0171087D01*
X0013135Y0171205D01*
X0013236Y0171321D01*
X0013339Y0171434D01*
X0013445Y0171545D01*
X0013554Y0171652D01*
X0013666Y0171757D01*
X0013780Y0171859D01*
X0013897Y0171958D01*
X0014017Y0172053D01*
X0014139Y0172146D01*
X0014263Y0172235D01*
X0014390Y0172322D01*
X0014519Y0172404D01*
X0014650Y0172484D01*
X0014783Y0172560D01*
X0014918Y0172632D01*
X0015055Y0172701D01*
X0015193Y0172767D01*
X0015333Y0172829D01*
X0015475Y0172887D01*
X0015618Y0172941D01*
X0015763Y0172992D01*
X0015908Y0173039D01*
X0016055Y0173082D01*
X0016203Y0173121D01*
X0016352Y0173157D01*
X0016502Y0173188D01*
X0016653Y0173216D01*
X0016804Y0173240D01*
X0016956Y0173260D01*
X0017109Y0173276D01*
X0017261Y0173288D01*
X0017414Y0173296D01*
X0017567Y0173300D01*
X0017721Y0173300D01*
X0017874Y0173296D01*
X0018027Y0173288D01*
X0018179Y0173276D01*
X0018332Y0173260D01*
X0018484Y0173240D01*
X0018635Y0173216D01*
X0018786Y0173188D01*
X0018936Y0173157D01*
X0019085Y0173121D01*
X0019233Y0173082D01*
X0019380Y0173039D01*
X0019525Y0172992D01*
X0019670Y0172941D01*
X0019813Y0172887D01*
X0019955Y0172829D01*
X0020095Y0172767D01*
X0020233Y0172701D01*
X0020370Y0172632D01*
X0020505Y0172560D01*
X0020638Y0172484D01*
X0020769Y0172404D01*
X0020898Y0172322D01*
X0021025Y0172235D01*
X0021149Y0172146D01*
X0021271Y0172053D01*
X0021391Y0171958D01*
X0021508Y0171859D01*
X0021622Y0171757D01*
X0021734Y0171652D01*
X0021843Y0171545D01*
X0021949Y0171434D01*
X0022052Y0171321D01*
X0022153Y0171205D01*
X0022250Y0171087D01*
X0022344Y0170966D01*
X0022435Y0170843D01*
X0022523Y0170718D01*
X0022607Y0170590D01*
X0022689Y0170460D01*
X0022766Y0170328D01*
X0022841Y0170194D01*
X0022911Y0170058D01*
X0022979Y0169920D01*
X0023042Y0169781D01*
X0023102Y0169640D01*
X0023159Y0169498D01*
X0023211Y0169354D01*
X0023260Y0169209D01*
X0023305Y0169062D01*
X0023346Y0168915D01*
X0023384Y0168766D01*
X0023417Y0168617D01*
X0023447Y0168466D01*
X0023473Y0168315D01*
X0023494Y0168164D01*
X0023512Y0168012D01*
X0023526Y0167859D01*
X0023536Y0167706D01*
X0023542Y0167553D01*
X0023544Y0167400D01*
X0023542Y0167247D01*
X0023536Y0167094D01*
X0023526Y0166941D01*
X0023512Y0166788D01*
X0023494Y0166636D01*
X0023473Y0166485D01*
X0023447Y0166334D01*
X0023417Y0166183D01*
X0023384Y0166034D01*
X0023346Y0165885D01*
X0023305Y0165738D01*
X0023260Y0165591D01*
X0023211Y0165446D01*
X0023159Y0165302D01*
X0023102Y0165160D01*
X0023042Y0165019D01*
X0022979Y0164880D01*
X0022911Y0164742D01*
X0022841Y0164606D01*
X0022766Y0164472D01*
X0022689Y0164340D01*
X0022607Y0164210D01*
X0022523Y0164082D01*
X0022435Y0163957D01*
X0022344Y0163834D01*
X0022250Y0163713D01*
X0022153Y0163595D01*
X0022052Y0163479D01*
X0021949Y0163366D01*
X0021843Y0163255D01*
X0021734Y0163148D01*
X0021622Y0163043D01*
X0021508Y0162941D01*
X0021391Y0162842D01*
X0021271Y0162747D01*
X0021149Y0162654D01*
X0021025Y0162565D01*
X0020898Y0162478D01*
X0020769Y0162396D01*
X0020638Y0162316D01*
X0020505Y0162240D01*
X0020370Y0162168D01*
X0020233Y0162099D01*
X0020095Y0162033D01*
X0019955Y0161971D01*
X0019813Y0161913D01*
X0019670Y0161859D01*
X0019525Y0161808D01*
X0019380Y0161761D01*
X0019233Y0161718D01*
X0019085Y0161679D01*
X0018936Y0161643D01*
X0018786Y0161612D01*
X0018635Y0161584D01*
X0018484Y0161560D01*
X0018332Y0161540D01*
X0018179Y0161524D01*
X0018027Y0161512D01*
X0017874Y0161504D01*
X0017721Y0161500D01*
X0017567Y0161500D01*
X0017414Y0161504D01*
X0017261Y0161512D01*
X0017109Y0161524D01*
X0016956Y0161540D01*
X0016804Y0161560D01*
X0016653Y0161584D01*
X0016502Y0161612D01*
X0016352Y0161643D01*
X0016203Y0161679D01*
X0016055Y0161718D01*
X0015908Y0161761D01*
X0015763Y0161808D01*
X0015618Y0161859D01*
X0015475Y0161913D01*
X0015333Y0161971D01*
X0015193Y0162033D01*
X0015055Y0162099D01*
X0014918Y0162168D01*
X0014783Y0162240D01*
X0014650Y0162316D01*
X0014519Y0162396D01*
X0014390Y0162478D01*
X0014263Y0162565D01*
X0014139Y0162654D01*
X0014017Y0162747D01*
X0013897Y0162842D01*
X0013780Y0162941D01*
X0013666Y0163043D01*
X0013554Y0163148D01*
X0013445Y0163255D01*
X0013339Y0163366D01*
X0013236Y0163479D01*
X0013135Y0163595D01*
X0013038Y0163713D01*
X0012944Y0163834D01*
X0012853Y0163957D01*
X0012765Y0164082D01*
X0012681Y0164210D01*
X0012599Y0164340D01*
X0012522Y0164472D01*
X0012447Y0164606D01*
X0012377Y0164742D01*
X0012309Y0164880D01*
X0012246Y0165019D01*
X0012186Y0165160D01*
X0012129Y0165302D01*
X0012077Y0165446D01*
X0012028Y0165591D01*
X0011983Y0165738D01*
X0011942Y0165885D01*
X0011904Y0166034D01*
X0011871Y0166183D01*
X0011841Y0166334D01*
X0011815Y0166485D01*
X0011794Y0166636D01*
X0011776Y0166788D01*
X0011762Y0166941D01*
X0011752Y0167094D01*
X0011746Y0167247D01*
X0011744Y0167400D01*
X0241744Y0168400D02*
X0241746Y0168553D01*
X0241752Y0168706D01*
X0241762Y0168859D01*
X0241776Y0169012D01*
X0241794Y0169164D01*
X0241815Y0169315D01*
X0241841Y0169466D01*
X0241871Y0169617D01*
X0241904Y0169766D01*
X0241942Y0169915D01*
X0241983Y0170062D01*
X0242028Y0170209D01*
X0242077Y0170354D01*
X0242129Y0170498D01*
X0242186Y0170640D01*
X0242246Y0170781D01*
X0242309Y0170920D01*
X0242377Y0171058D01*
X0242447Y0171194D01*
X0242522Y0171328D01*
X0242599Y0171460D01*
X0242681Y0171590D01*
X0242765Y0171718D01*
X0242853Y0171843D01*
X0242944Y0171966D01*
X0243038Y0172087D01*
X0243135Y0172205D01*
X0243236Y0172321D01*
X0243339Y0172434D01*
X0243445Y0172545D01*
X0243554Y0172652D01*
X0243666Y0172757D01*
X0243780Y0172859D01*
X0243897Y0172958D01*
X0244017Y0173053D01*
X0244139Y0173146D01*
X0244263Y0173235D01*
X0244390Y0173322D01*
X0244519Y0173404D01*
X0244650Y0173484D01*
X0244783Y0173560D01*
X0244918Y0173632D01*
X0245055Y0173701D01*
X0245193Y0173767D01*
X0245333Y0173829D01*
X0245475Y0173887D01*
X0245618Y0173941D01*
X0245763Y0173992D01*
X0245908Y0174039D01*
X0246055Y0174082D01*
X0246203Y0174121D01*
X0246352Y0174157D01*
X0246502Y0174188D01*
X0246653Y0174216D01*
X0246804Y0174240D01*
X0246956Y0174260D01*
X0247109Y0174276D01*
X0247261Y0174288D01*
X0247414Y0174296D01*
X0247567Y0174300D01*
X0247721Y0174300D01*
X0247874Y0174296D01*
X0248027Y0174288D01*
X0248179Y0174276D01*
X0248332Y0174260D01*
X0248484Y0174240D01*
X0248635Y0174216D01*
X0248786Y0174188D01*
X0248936Y0174157D01*
X0249085Y0174121D01*
X0249233Y0174082D01*
X0249380Y0174039D01*
X0249525Y0173992D01*
X0249670Y0173941D01*
X0249813Y0173887D01*
X0249955Y0173829D01*
X0250095Y0173767D01*
X0250233Y0173701D01*
X0250370Y0173632D01*
X0250505Y0173560D01*
X0250638Y0173484D01*
X0250769Y0173404D01*
X0250898Y0173322D01*
X0251025Y0173235D01*
X0251149Y0173146D01*
X0251271Y0173053D01*
X0251391Y0172958D01*
X0251508Y0172859D01*
X0251622Y0172757D01*
X0251734Y0172652D01*
X0251843Y0172545D01*
X0251949Y0172434D01*
X0252052Y0172321D01*
X0252153Y0172205D01*
X0252250Y0172087D01*
X0252344Y0171966D01*
X0252435Y0171843D01*
X0252523Y0171718D01*
X0252607Y0171590D01*
X0252689Y0171460D01*
X0252766Y0171328D01*
X0252841Y0171194D01*
X0252911Y0171058D01*
X0252979Y0170920D01*
X0253042Y0170781D01*
X0253102Y0170640D01*
X0253159Y0170498D01*
X0253211Y0170354D01*
X0253260Y0170209D01*
X0253305Y0170062D01*
X0253346Y0169915D01*
X0253384Y0169766D01*
X0253417Y0169617D01*
X0253447Y0169466D01*
X0253473Y0169315D01*
X0253494Y0169164D01*
X0253512Y0169012D01*
X0253526Y0168859D01*
X0253536Y0168706D01*
X0253542Y0168553D01*
X0253544Y0168400D01*
X0253542Y0168247D01*
X0253536Y0168094D01*
X0253526Y0167941D01*
X0253512Y0167788D01*
X0253494Y0167636D01*
X0253473Y0167485D01*
X0253447Y0167334D01*
X0253417Y0167183D01*
X0253384Y0167034D01*
X0253346Y0166885D01*
X0253305Y0166738D01*
X0253260Y0166591D01*
X0253211Y0166446D01*
X0253159Y0166302D01*
X0253102Y0166160D01*
X0253042Y0166019D01*
X0252979Y0165880D01*
X0252911Y0165742D01*
X0252841Y0165606D01*
X0252766Y0165472D01*
X0252689Y0165340D01*
X0252607Y0165210D01*
X0252523Y0165082D01*
X0252435Y0164957D01*
X0252344Y0164834D01*
X0252250Y0164713D01*
X0252153Y0164595D01*
X0252052Y0164479D01*
X0251949Y0164366D01*
X0251843Y0164255D01*
X0251734Y0164148D01*
X0251622Y0164043D01*
X0251508Y0163941D01*
X0251391Y0163842D01*
X0251271Y0163747D01*
X0251149Y0163654D01*
X0251025Y0163565D01*
X0250898Y0163478D01*
X0250769Y0163396D01*
X0250638Y0163316D01*
X0250505Y0163240D01*
X0250370Y0163168D01*
X0250233Y0163099D01*
X0250095Y0163033D01*
X0249955Y0162971D01*
X0249813Y0162913D01*
X0249670Y0162859D01*
X0249525Y0162808D01*
X0249380Y0162761D01*
X0249233Y0162718D01*
X0249085Y0162679D01*
X0248936Y0162643D01*
X0248786Y0162612D01*
X0248635Y0162584D01*
X0248484Y0162560D01*
X0248332Y0162540D01*
X0248179Y0162524D01*
X0248027Y0162512D01*
X0247874Y0162504D01*
X0247721Y0162500D01*
X0247567Y0162500D01*
X0247414Y0162504D01*
X0247261Y0162512D01*
X0247109Y0162524D01*
X0246956Y0162540D01*
X0246804Y0162560D01*
X0246653Y0162584D01*
X0246502Y0162612D01*
X0246352Y0162643D01*
X0246203Y0162679D01*
X0246055Y0162718D01*
X0245908Y0162761D01*
X0245763Y0162808D01*
X0245618Y0162859D01*
X0245475Y0162913D01*
X0245333Y0162971D01*
X0245193Y0163033D01*
X0245055Y0163099D01*
X0244918Y0163168D01*
X0244783Y0163240D01*
X0244650Y0163316D01*
X0244519Y0163396D01*
X0244390Y0163478D01*
X0244263Y0163565D01*
X0244139Y0163654D01*
X0244017Y0163747D01*
X0243897Y0163842D01*
X0243780Y0163941D01*
X0243666Y0164043D01*
X0243554Y0164148D01*
X0243445Y0164255D01*
X0243339Y0164366D01*
X0243236Y0164479D01*
X0243135Y0164595D01*
X0243038Y0164713D01*
X0242944Y0164834D01*
X0242853Y0164957D01*
X0242765Y0165082D01*
X0242681Y0165210D01*
X0242599Y0165340D01*
X0242522Y0165472D01*
X0242447Y0165606D01*
X0242377Y0165742D01*
X0242309Y0165880D01*
X0242246Y0166019D01*
X0242186Y0166160D01*
X0242129Y0166302D01*
X0242077Y0166446D01*
X0242028Y0166591D01*
X0241983Y0166738D01*
X0241942Y0166885D01*
X0241904Y0167034D01*
X0241871Y0167183D01*
X0241841Y0167334D01*
X0241815Y0167485D01*
X0241794Y0167636D01*
X0241776Y0167788D01*
X0241762Y0167941D01*
X0241752Y0168094D01*
X0241746Y0168247D01*
X0241744Y0168400D01*
X0241744Y0024400D02*
X0241746Y0024553D01*
X0241752Y0024706D01*
X0241762Y0024859D01*
X0241776Y0025012D01*
X0241794Y0025164D01*
X0241815Y0025315D01*
X0241841Y0025466D01*
X0241871Y0025617D01*
X0241904Y0025766D01*
X0241942Y0025915D01*
X0241983Y0026062D01*
X0242028Y0026209D01*
X0242077Y0026354D01*
X0242129Y0026498D01*
X0242186Y0026640D01*
X0242246Y0026781D01*
X0242309Y0026920D01*
X0242377Y0027058D01*
X0242447Y0027194D01*
X0242522Y0027328D01*
X0242599Y0027460D01*
X0242681Y0027590D01*
X0242765Y0027718D01*
X0242853Y0027843D01*
X0242944Y0027966D01*
X0243038Y0028087D01*
X0243135Y0028205D01*
X0243236Y0028321D01*
X0243339Y0028434D01*
X0243445Y0028545D01*
X0243554Y0028652D01*
X0243666Y0028757D01*
X0243780Y0028859D01*
X0243897Y0028958D01*
X0244017Y0029053D01*
X0244139Y0029146D01*
X0244263Y0029235D01*
X0244390Y0029322D01*
X0244519Y0029404D01*
X0244650Y0029484D01*
X0244783Y0029560D01*
X0244918Y0029632D01*
X0245055Y0029701D01*
X0245193Y0029767D01*
X0245333Y0029829D01*
X0245475Y0029887D01*
X0245618Y0029941D01*
X0245763Y0029992D01*
X0245908Y0030039D01*
X0246055Y0030082D01*
X0246203Y0030121D01*
X0246352Y0030157D01*
X0246502Y0030188D01*
X0246653Y0030216D01*
X0246804Y0030240D01*
X0246956Y0030260D01*
X0247109Y0030276D01*
X0247261Y0030288D01*
X0247414Y0030296D01*
X0247567Y0030300D01*
X0247721Y0030300D01*
X0247874Y0030296D01*
X0248027Y0030288D01*
X0248179Y0030276D01*
X0248332Y0030260D01*
X0248484Y0030240D01*
X0248635Y0030216D01*
X0248786Y0030188D01*
X0248936Y0030157D01*
X0249085Y0030121D01*
X0249233Y0030082D01*
X0249380Y0030039D01*
X0249525Y0029992D01*
X0249670Y0029941D01*
X0249813Y0029887D01*
X0249955Y0029829D01*
X0250095Y0029767D01*
X0250233Y0029701D01*
X0250370Y0029632D01*
X0250505Y0029560D01*
X0250638Y0029484D01*
X0250769Y0029404D01*
X0250898Y0029322D01*
X0251025Y0029235D01*
X0251149Y0029146D01*
X0251271Y0029053D01*
X0251391Y0028958D01*
X0251508Y0028859D01*
X0251622Y0028757D01*
X0251734Y0028652D01*
X0251843Y0028545D01*
X0251949Y0028434D01*
X0252052Y0028321D01*
X0252153Y0028205D01*
X0252250Y0028087D01*
X0252344Y0027966D01*
X0252435Y0027843D01*
X0252523Y0027718D01*
X0252607Y0027590D01*
X0252689Y0027460D01*
X0252766Y0027328D01*
X0252841Y0027194D01*
X0252911Y0027058D01*
X0252979Y0026920D01*
X0253042Y0026781D01*
X0253102Y0026640D01*
X0253159Y0026498D01*
X0253211Y0026354D01*
X0253260Y0026209D01*
X0253305Y0026062D01*
X0253346Y0025915D01*
X0253384Y0025766D01*
X0253417Y0025617D01*
X0253447Y0025466D01*
X0253473Y0025315D01*
X0253494Y0025164D01*
X0253512Y0025012D01*
X0253526Y0024859D01*
X0253536Y0024706D01*
X0253542Y0024553D01*
X0253544Y0024400D01*
X0253542Y0024247D01*
X0253536Y0024094D01*
X0253526Y0023941D01*
X0253512Y0023788D01*
X0253494Y0023636D01*
X0253473Y0023485D01*
X0253447Y0023334D01*
X0253417Y0023183D01*
X0253384Y0023034D01*
X0253346Y0022885D01*
X0253305Y0022738D01*
X0253260Y0022591D01*
X0253211Y0022446D01*
X0253159Y0022302D01*
X0253102Y0022160D01*
X0253042Y0022019D01*
X0252979Y0021880D01*
X0252911Y0021742D01*
X0252841Y0021606D01*
X0252766Y0021472D01*
X0252689Y0021340D01*
X0252607Y0021210D01*
X0252523Y0021082D01*
X0252435Y0020957D01*
X0252344Y0020834D01*
X0252250Y0020713D01*
X0252153Y0020595D01*
X0252052Y0020479D01*
X0251949Y0020366D01*
X0251843Y0020255D01*
X0251734Y0020148D01*
X0251622Y0020043D01*
X0251508Y0019941D01*
X0251391Y0019842D01*
X0251271Y0019747D01*
X0251149Y0019654D01*
X0251025Y0019565D01*
X0250898Y0019478D01*
X0250769Y0019396D01*
X0250638Y0019316D01*
X0250505Y0019240D01*
X0250370Y0019168D01*
X0250233Y0019099D01*
X0250095Y0019033D01*
X0249955Y0018971D01*
X0249813Y0018913D01*
X0249670Y0018859D01*
X0249525Y0018808D01*
X0249380Y0018761D01*
X0249233Y0018718D01*
X0249085Y0018679D01*
X0248936Y0018643D01*
X0248786Y0018612D01*
X0248635Y0018584D01*
X0248484Y0018560D01*
X0248332Y0018540D01*
X0248179Y0018524D01*
X0248027Y0018512D01*
X0247874Y0018504D01*
X0247721Y0018500D01*
X0247567Y0018500D01*
X0247414Y0018504D01*
X0247261Y0018512D01*
X0247109Y0018524D01*
X0246956Y0018540D01*
X0246804Y0018560D01*
X0246653Y0018584D01*
X0246502Y0018612D01*
X0246352Y0018643D01*
X0246203Y0018679D01*
X0246055Y0018718D01*
X0245908Y0018761D01*
X0245763Y0018808D01*
X0245618Y0018859D01*
X0245475Y0018913D01*
X0245333Y0018971D01*
X0245193Y0019033D01*
X0245055Y0019099D01*
X0244918Y0019168D01*
X0244783Y0019240D01*
X0244650Y0019316D01*
X0244519Y0019396D01*
X0244390Y0019478D01*
X0244263Y0019565D01*
X0244139Y0019654D01*
X0244017Y0019747D01*
X0243897Y0019842D01*
X0243780Y0019941D01*
X0243666Y0020043D01*
X0243554Y0020148D01*
X0243445Y0020255D01*
X0243339Y0020366D01*
X0243236Y0020479D01*
X0243135Y0020595D01*
X0243038Y0020713D01*
X0242944Y0020834D01*
X0242853Y0020957D01*
X0242765Y0021082D01*
X0242681Y0021210D01*
X0242599Y0021340D01*
X0242522Y0021472D01*
X0242447Y0021606D01*
X0242377Y0021742D01*
X0242309Y0021880D01*
X0242246Y0022019D01*
X0242186Y0022160D01*
X0242129Y0022302D01*
X0242077Y0022446D01*
X0242028Y0022591D01*
X0241983Y0022738D01*
X0241942Y0022885D01*
X0241904Y0023034D01*
X0241871Y0023183D01*
X0241841Y0023334D01*
X0241815Y0023485D01*
X0241794Y0023636D01*
X0241776Y0023788D01*
X0241762Y0023941D01*
X0241752Y0024094D01*
X0241746Y0024247D01*
X0241744Y0024400D01*
D11*
X0188644Y0122400D03*
X0178644Y0122400D03*
X0168644Y0122400D03*
X0158644Y0122400D03*
X0148644Y0122400D03*
X0138644Y0122400D03*
X0128644Y0122400D03*
X0118644Y0122400D03*
X0108644Y0122400D03*
X0108644Y0132400D03*
X0118644Y0132400D03*
X0128644Y0132400D03*
X0138644Y0132400D03*
X0148644Y0132400D03*
X0158644Y0132400D03*
X0168644Y0132400D03*
X0178644Y0132400D03*
X0188644Y0132400D03*
D12*
X0190644Y0156400D03*
X0180644Y0156400D03*
X0170644Y0156400D03*
X0160644Y0156400D03*
X0150644Y0156400D03*
X0140644Y0156400D03*
X0140644Y0166400D03*
X0150644Y0166400D03*
X0160644Y0166400D03*
X0170644Y0166400D03*
X0180644Y0166400D03*
X0190644Y0166400D03*
X0200644Y0166400D03*
X0210644Y0166400D03*
X0210644Y0156400D03*
X0200644Y0156400D03*
X0126644Y0156400D03*
X0116644Y0156400D03*
X0106644Y0156400D03*
X0096644Y0156400D03*
X0086644Y0156400D03*
X0076644Y0156400D03*
X0066644Y0156400D03*
X0056644Y0156400D03*
X0056644Y0166400D03*
X0066644Y0166400D03*
X0076644Y0166400D03*
X0086644Y0166400D03*
X0096644Y0166400D03*
X0106644Y0166400D03*
X0116644Y0166400D03*
X0126644Y0166400D03*
D13*
X0171644Y0109195D03*
X0171644Y0083605D03*
X0170644Y0062195D03*
X0170644Y0036605D03*
D14*
X0204644Y0056400D03*
X0224644Y0095400D03*
D15*
X0030644Y0127589D03*
X0030644Y0135463D03*
X0030644Y0143337D03*
X0030644Y0151211D03*
D16*
X0140944Y0111600D03*
X0140944Y0101600D03*
X0140944Y0089600D03*
X0140944Y0079600D03*
X0154944Y0021600D03*
X0164944Y0020600D03*
X0174944Y0021600D03*
X0184944Y0020600D03*
X0194944Y0021600D03*
D17*
X0036944Y0114400D03*
X0031044Y0069500D03*
X0031644Y0024400D03*
D18*
X0044374Y0026667D02*
X0044374Y0021943D01*
X0073115Y0021943D02*
X0073115Y0026667D01*
X0073115Y0042809D02*
X0073115Y0047533D01*
X0044374Y0047533D02*
X0044374Y0042809D01*
D19*
X0039644Y0047800D02*
X0042644Y0050800D01*
X0051644Y0050800D01*
X0054644Y0053800D01*
X0084044Y0053800D01*
X0084044Y0050500D02*
X0084044Y0046900D01*
X0085244Y0045700D01*
X0115244Y0045700D01*
X0120944Y0040000D01*
X0144944Y0040000D01*
X0146444Y0042400D02*
X0150044Y0038800D01*
X0156944Y0038800D01*
X0169544Y0026200D01*
X0168944Y0028600D02*
X0177944Y0028600D01*
X0184844Y0021700D01*
X0184844Y0020800D01*
X0184944Y0020600D01*
X0194744Y0021700D02*
X0194944Y0021600D01*
X0194744Y0021700D02*
X0194744Y0023200D01*
X0173744Y0044200D01*
X0120344Y0044200D01*
X0116444Y0048100D01*
X0116444Y0050200D01*
X0122744Y0056500D01*
X0127244Y0057700D02*
X0127244Y0058600D01*
X0126044Y0059800D01*
X0126044Y0065800D01*
X0124844Y0067000D01*
X0124844Y0067600D01*
X0130544Y0073300D01*
X0130544Y0076300D01*
X0129644Y0077200D01*
X0129644Y0078100D01*
X0131144Y0079600D01*
X0131144Y0080500D01*
X0106544Y0105100D01*
X0109544Y0103900D02*
X0109544Y0116200D01*
X0108644Y0121900D02*
X0102644Y0115900D01*
X0102644Y0057100D01*
X0105944Y0057100D02*
X0105944Y0086800D01*
X0108044Y0088000D02*
X0105944Y0090100D01*
X0108044Y0088000D02*
X0117044Y0088000D01*
X0129344Y0075700D01*
X0129344Y0073900D01*
X0112544Y0057100D01*
X0109244Y0057100D02*
X0126944Y0074800D01*
X0132944Y0074800D02*
X0134144Y0076000D01*
X0132944Y0074800D02*
X0132944Y0061600D01*
X0122144Y0050800D01*
X0122144Y0049000D01*
X0120944Y0051100D02*
X0120944Y0051400D01*
X0127244Y0057700D01*
X0135344Y0064300D02*
X0135344Y0073900D01*
X0136544Y0075100D01*
X0136544Y0076900D01*
X0109544Y0103900D01*
X0107744Y0093400D02*
X0105944Y0093400D01*
X0107744Y0093400D02*
X0110744Y0090400D01*
X0118844Y0113800D02*
X0136844Y0095800D01*
X0137144Y0095800D01*
X0138344Y0097000D01*
X0143444Y0097000D01*
X0152444Y0088000D01*
X0152444Y0073900D01*
X0142844Y0064300D01*
X0147344Y0065500D02*
X0147344Y0067000D01*
X0153644Y0073300D01*
X0153644Y0090100D01*
X0152444Y0091300D01*
X0150044Y0074800D02*
X0125444Y0050200D01*
X0120944Y0051100D02*
X0118844Y0049000D01*
X0114044Y0048700D02*
X0120344Y0042400D01*
X0146444Y0042400D01*
X0150344Y0041800D02*
X0155744Y0041800D01*
X0168944Y0028600D01*
X0159644Y0025300D02*
X0153044Y0031900D01*
X0150344Y0031900D01*
X0142244Y0046600D02*
X0160844Y0046600D01*
X0150344Y0063700D02*
X0150344Y0068200D01*
X0154844Y0072700D01*
X0154844Y0108400D01*
X0142244Y0121000D01*
X0142244Y0124900D01*
X0143444Y0127000D02*
X0143444Y0129700D01*
X0142244Y0130900D01*
X0142244Y0133600D01*
X0133544Y0142300D01*
X0125744Y0142300D01*
X0123344Y0144700D02*
X0153644Y0144700D01*
X0155744Y0146800D01*
X0155744Y0147100D01*
X0159044Y0143800D01*
X0158444Y0147700D02*
X0156644Y0149500D01*
X0146444Y0149500D01*
X0144044Y0156400D02*
X0140644Y0156400D01*
X0144044Y0156400D02*
X0148694Y0161050D01*
X0148544Y0161200D01*
X0148544Y0161800D01*
X0145244Y0165100D01*
X0145244Y0168400D01*
X0142544Y0171100D01*
X0138644Y0171100D01*
X0133244Y0165700D01*
X0132644Y0165700D01*
X0128744Y0161800D01*
X0115244Y0161800D01*
X0111344Y0157900D01*
X0111344Y0154300D01*
X0108644Y0151600D01*
X0104744Y0151600D01*
X0099944Y0156400D01*
X0096644Y0156400D01*
X0098444Y0161200D02*
X0071444Y0161200D01*
X0066644Y0156400D01*
X0076544Y0156400D02*
X0076644Y0156400D01*
X0076544Y0156400D02*
X0083444Y0149500D01*
X0109544Y0149500D01*
X0116444Y0156400D01*
X0116644Y0156400D01*
X0116444Y0156400D02*
X0121244Y0151600D01*
X0121844Y0151600D01*
X0122144Y0151900D01*
X0117944Y0149500D02*
X0129644Y0149500D01*
X0133844Y0153700D01*
X0133844Y0159400D01*
X0140744Y0166300D01*
X0140644Y0166400D01*
X0148694Y0161050D02*
X0148844Y0161200D01*
X0175844Y0161200D01*
X0180644Y0156400D01*
X0179144Y0161200D02*
X0182444Y0161200D01*
X0186044Y0157600D01*
X0186044Y0152800D01*
X0188144Y0150700D01*
X0191744Y0150700D02*
X0195344Y0154300D01*
X0195344Y0161800D01*
X0195194Y0161950D01*
X0199544Y0166300D01*
X0200444Y0166300D01*
X0200644Y0166400D01*
X0195194Y0161950D02*
X0190844Y0166300D01*
X0190644Y0166400D01*
X0179144Y0161200D02*
X0175844Y0164500D01*
X0175844Y0167800D01*
X0171344Y0172300D01*
X0042344Y0172300D01*
X0024044Y0154000D01*
X0024044Y0098800D01*
X0063044Y0059800D01*
X0063044Y0058600D01*
X0071744Y0062500D02*
X0031844Y0102400D01*
X0031844Y0109900D01*
X0025244Y0116500D01*
X0025244Y0153400D01*
X0042944Y0171100D01*
X0092144Y0171100D01*
X0096644Y0166600D01*
X0096644Y0166400D01*
X0098444Y0161200D02*
X0103244Y0156400D01*
X0106644Y0156400D01*
X0112544Y0147400D02*
X0083744Y0147400D01*
X0079544Y0151600D01*
X0054644Y0151600D01*
X0050744Y0155500D01*
X0029144Y0155500D01*
X0026444Y0152800D01*
X0026444Y0117100D01*
X0093344Y0050200D01*
X0105644Y0050200D01*
X0109244Y0053800D01*
X0115844Y0053800D01*
X0105944Y0053800D02*
X0105044Y0054700D01*
X0095444Y0054700D01*
X0086144Y0064000D01*
X0086144Y0133600D01*
X0084644Y0131800D02*
X0083744Y0132700D01*
X0083744Y0134500D01*
X0093944Y0144700D01*
X0098144Y0144700D01*
X0084644Y0131800D02*
X0084644Y0063700D01*
X0094244Y0054100D01*
X0094244Y0052600D01*
X0096344Y0057100D02*
X0096344Y0113200D01*
X0101144Y0118000D01*
X0108644Y0121900D02*
X0108644Y0122400D01*
X0091844Y0115900D02*
X0089744Y0118000D01*
X0088544Y0115900D02*
X0087344Y0117100D01*
X0087344Y0118900D01*
X0117944Y0149500D01*
X0143444Y0127000D02*
X0145244Y0125200D01*
X0145244Y0121000D01*
X0156044Y0110200D01*
X0156044Y0066100D01*
X0136844Y0046900D01*
X0126944Y0046900D01*
X0091844Y0065500D02*
X0091844Y0115900D01*
X0088544Y0115900D02*
X0088544Y0065500D01*
X0061244Y0093100D02*
X0061244Y0102100D01*
X0051344Y0112000D01*
X0051344Y0117100D01*
X0058844Y0125200D02*
X0068744Y0125200D01*
X0071144Y0122800D01*
X0071144Y0122500D01*
X0079844Y0131200D01*
X0082244Y0132100D02*
X0082244Y0128800D01*
X0082244Y0132100D02*
X0078644Y0135700D01*
X0055844Y0135700D01*
X0046844Y0129100D02*
X0046244Y0129100D01*
X0034244Y0141100D01*
X0033944Y0141100D01*
X0031844Y0143200D01*
X0030644Y0143200D01*
X0030644Y0143337D01*
X0030644Y0151000D02*
X0030644Y0151211D01*
X0030644Y0151000D02*
X0033044Y0151000D01*
X0058844Y0125200D01*
X0053444Y0106600D02*
X0047444Y0106600D01*
X0053444Y0106600D02*
X0057044Y0103000D01*
X0158444Y0147700D02*
X0163244Y0147700D01*
X0168944Y0148300D02*
X0192644Y0148300D01*
X0200744Y0156400D01*
X0200644Y0156400D01*
X0168944Y0148300D02*
X0160844Y0156400D01*
X0160644Y0156400D01*
D20*
X0163244Y0147700D03*
X0159044Y0143800D03*
X0155744Y0147100D03*
X0146444Y0149500D03*
X0125744Y0142300D03*
X0123344Y0144700D03*
X0122144Y0151900D03*
X0112544Y0147400D03*
X0112144Y0139700D03*
X0102944Y0138300D03*
X0100444Y0135700D03*
X0099444Y0139400D03*
X0098144Y0144700D03*
X0086144Y0133600D03*
X0082244Y0128800D03*
X0079844Y0131200D03*
X0070544Y0131300D03*
X0063944Y0132000D03*
X0057044Y0132200D03*
X0055844Y0135700D03*
X0046244Y0129100D03*
X0051344Y0117100D03*
X0047444Y0106600D03*
X0057044Y0103000D03*
X0061244Y0093100D03*
X0068444Y0118400D03*
X0071144Y0122500D03*
X0088644Y0124100D03*
X0090844Y0126500D03*
X0095844Y0122400D03*
X0096444Y0119200D03*
X0093044Y0120500D03*
X0089744Y0118000D03*
X0101144Y0118000D03*
X0109544Y0116200D03*
X0118844Y0113800D03*
X0123644Y0118700D03*
X0142244Y0124900D03*
X0106544Y0105100D03*
X0105944Y0093400D03*
X0105944Y0090100D03*
X0105944Y0086800D03*
X0110744Y0090400D03*
X0126944Y0074800D03*
X0134144Y0076000D03*
X0147344Y0065500D03*
X0150344Y0063700D03*
X0142844Y0064300D03*
X0135344Y0064300D03*
X0122744Y0056500D03*
X0115844Y0053800D03*
X0112544Y0057100D03*
X0109244Y0057100D03*
X0105944Y0057100D03*
X0102644Y0057100D03*
X0105944Y0053800D03*
X0114044Y0048700D03*
X0118844Y0049000D03*
X0122144Y0049000D03*
X0125444Y0050200D03*
X0126944Y0046900D03*
X0117044Y0038600D03*
X0112944Y0042300D03*
X0108544Y0038900D03*
X0105344Y0042200D03*
X0101244Y0038900D03*
X0098644Y0042100D03*
X0085244Y0045700D03*
X0084044Y0050500D03*
X0084044Y0053800D03*
X0094244Y0052600D03*
X0096344Y0057100D03*
X0091844Y0065500D03*
X0088544Y0065500D03*
X0071744Y0062500D03*
X0063044Y0058600D03*
X0039644Y0047800D03*
X0016244Y0056200D03*
X0104144Y0131700D03*
X0152444Y0091300D03*
X0150044Y0074800D03*
X0160344Y0051500D03*
X0164744Y0049600D03*
X0160844Y0046600D03*
X0159744Y0041600D03*
X0162544Y0039800D03*
X0164544Y0036900D03*
X0159844Y0031600D03*
X0163444Y0028400D03*
X0159644Y0025300D03*
X0169544Y0026200D03*
X0150344Y0031900D03*
X0144944Y0040000D03*
X0150344Y0041800D03*
X0142244Y0046600D03*
X0168444Y0048500D03*
X0172144Y0048600D03*
X0188144Y0150700D03*
X0191744Y0150700D03*
D21*
X0193281Y0146600D02*
X0193380Y0065804D01*
X0192703Y0066482D01*
X0191497Y0066981D01*
X0190192Y0066981D01*
X0188986Y0066482D01*
X0188063Y0065559D01*
X0187563Y0064353D01*
X0187563Y0063047D01*
X0188063Y0061841D01*
X0188986Y0060918D01*
X0190192Y0060419D01*
X0191497Y0060419D01*
X0192703Y0060918D01*
X0193386Y0061601D01*
X0193428Y0026920D01*
X0174449Y0045900D01*
X0163531Y0045900D01*
X0163594Y0046053D01*
X0163594Y0047147D01*
X0163176Y0048158D01*
X0162402Y0048931D01*
X0161391Y0049350D01*
X0160297Y0049350D01*
X0159287Y0048931D01*
X0158655Y0048300D01*
X0144434Y0048300D01*
X0143802Y0048931D01*
X0142791Y0049350D01*
X0141699Y0049350D01*
X0156749Y0064400D01*
X0157744Y0065396D01*
X0157744Y0110904D01*
X0150011Y0118638D01*
X0150203Y0118638D01*
X0152407Y0120842D01*
X0152407Y0123958D01*
X0150203Y0126162D01*
X0147086Y0126162D01*
X0146886Y0125962D01*
X0145144Y0127704D01*
X0145144Y0130404D01*
X0143944Y0131604D01*
X0143944Y0134304D01*
X0135249Y0143000D01*
X0154349Y0143000D01*
X0155699Y0144350D01*
X0156090Y0144350D01*
X0156294Y0144146D01*
X0156294Y0143253D01*
X0156713Y0142242D01*
X0157487Y0141469D01*
X0158497Y0141050D01*
X0159591Y0141050D01*
X0160602Y0141469D01*
X0161376Y0142242D01*
X0161794Y0143253D01*
X0161794Y0144347D01*
X0161376Y0145358D01*
X0160734Y0146000D01*
X0161055Y0146000D01*
X0161687Y0145369D01*
X0162697Y0144950D01*
X0163791Y0144950D01*
X0164802Y0145369D01*
X0165576Y0146142D01*
X0165994Y0147153D01*
X0165994Y0148247D01*
X0165576Y0149258D01*
X0164802Y0150031D01*
X0163791Y0150450D01*
X0162697Y0150450D01*
X0161687Y0150031D01*
X0161055Y0149400D01*
X0159149Y0149400D01*
X0158344Y0150204D01*
X0157349Y0151200D01*
X0148634Y0151200D01*
X0148534Y0151300D01*
X0152757Y0151300D01*
X0155644Y0154188D01*
X0158532Y0151300D01*
X0162757Y0151300D01*
X0163149Y0151692D01*
X0167244Y0147596D01*
X0168240Y0146600D01*
X0193281Y0146600D01*
X0193281Y0146478D02*
X0165715Y0146478D01*
X0165994Y0148076D02*
X0166764Y0148076D01*
X0165165Y0149675D02*
X0165159Y0149675D01*
X0163567Y0151273D02*
X0148560Y0151273D01*
X0148000Y0151832D02*
X0146991Y0152250D01*
X0145897Y0152250D01*
X0144887Y0151831D01*
X0144113Y0151058D01*
X0143694Y0150047D01*
X0143694Y0148953D01*
X0144113Y0147942D01*
X0144887Y0147169D01*
X0145897Y0146750D01*
X0146991Y0146750D01*
X0148002Y0147169D01*
X0148634Y0147800D01*
X0153058Y0147800D01*
X0152994Y0147647D01*
X0152994Y0146553D01*
X0153023Y0146483D01*
X0152940Y0146400D01*
X0125534Y0146400D01*
X0124902Y0147031D01*
X0123891Y0147450D01*
X0122797Y0147450D01*
X0121787Y0147031D01*
X0121013Y0146258D01*
X0120594Y0145247D01*
X0120594Y0144153D01*
X0121013Y0143142D01*
X0121787Y0142369D01*
X0122797Y0141950D01*
X0122994Y0141950D01*
X0122994Y0141753D01*
X0123413Y0140742D01*
X0124187Y0139969D01*
X0125197Y0139550D01*
X0126291Y0139550D01*
X0127302Y0139969D01*
X0127934Y0140600D01*
X0132840Y0140600D01*
X0137278Y0136162D01*
X0137086Y0136162D01*
X0134882Y0133958D01*
X0134882Y0130842D01*
X0137086Y0128638D01*
X0140203Y0128638D01*
X0141153Y0129588D01*
X0141540Y0129200D01*
X0141744Y0128996D01*
X0141744Y0127650D01*
X0141697Y0127650D01*
X0140687Y0127231D01*
X0139913Y0126458D01*
X0139791Y0126162D01*
X0137086Y0126162D01*
X0134882Y0123958D01*
X0134882Y0120842D01*
X0137086Y0118638D01*
X0140203Y0118638D01*
X0141203Y0119638D01*
X0141540Y0119300D01*
X0153144Y0107696D01*
X0153144Y0093987D01*
X0152991Y0094050D01*
X0151897Y0094050D01*
X0150887Y0093631D01*
X0150113Y0092858D01*
X0150077Y0092771D01*
X0145144Y0097704D01*
X0144703Y0098146D01*
X0145268Y0098711D01*
X0146044Y0100586D01*
X0146044Y0102614D01*
X0145268Y0104489D01*
X0143833Y0105924D01*
X0142200Y0106600D01*
X0143833Y0107276D01*
X0145268Y0108711D01*
X0146044Y0110586D01*
X0146044Y0112614D01*
X0145268Y0114489D01*
X0143833Y0115924D01*
X0141959Y0116700D01*
X0139930Y0116700D01*
X0138056Y0115924D01*
X0136621Y0114489D01*
X0135844Y0112614D01*
X0135844Y0110586D01*
X0136621Y0108711D01*
X0138056Y0107276D01*
X0139689Y0106600D01*
X0138056Y0105924D01*
X0136621Y0104489D01*
X0135844Y0102614D01*
X0135844Y0100586D01*
X0136621Y0098711D01*
X0137136Y0098196D01*
X0136994Y0098054D01*
X0121594Y0113454D01*
X0121594Y0114347D01*
X0121176Y0115358D01*
X0120402Y0116131D01*
X0119391Y0116550D01*
X0118297Y0116550D01*
X0117287Y0116131D01*
X0116513Y0115358D01*
X0116094Y0114347D01*
X0116094Y0113253D01*
X0116513Y0112242D01*
X0117287Y0111469D01*
X0118297Y0111050D01*
X0119190Y0111050D01*
X0136140Y0094100D01*
X0137849Y0094100D01*
X0138844Y0095096D01*
X0139049Y0095300D01*
X0142740Y0095300D01*
X0150744Y0087296D01*
X0150744Y0077487D01*
X0150591Y0077550D01*
X0149497Y0077550D01*
X0148487Y0077131D01*
X0147713Y0076358D01*
X0147294Y0075347D01*
X0147294Y0074454D01*
X0137975Y0065135D01*
X0137676Y0065858D01*
X0137044Y0066489D01*
X0137044Y0073196D01*
X0137249Y0073400D01*
X0138244Y0074396D01*
X0138244Y0075198D01*
X0139930Y0074500D01*
X0141959Y0074500D01*
X0143833Y0075276D01*
X0145268Y0076711D01*
X0146044Y0078586D01*
X0146044Y0080614D01*
X0145268Y0082489D01*
X0143833Y0083924D01*
X0142200Y0084600D01*
X0143833Y0085276D01*
X0145268Y0086711D01*
X0146044Y0088586D01*
X0146044Y0090614D01*
X0145268Y0092489D01*
X0143833Y0093924D01*
X0141959Y0094700D01*
X0139930Y0094700D01*
X0138056Y0093924D01*
X0136621Y0092489D01*
X0135844Y0090614D01*
X0135844Y0088586D01*
X0136621Y0086711D01*
X0138056Y0085276D01*
X0139689Y0084600D01*
X0138056Y0083924D01*
X0136621Y0082489D01*
X0135844Y0080614D01*
X0135844Y0080004D01*
X0111244Y0104604D01*
X0111244Y0114011D01*
X0111876Y0114642D01*
X0112294Y0115653D01*
X0112294Y0116747D01*
X0111876Y0117758D01*
X0111102Y0118531D01*
X0110391Y0118826D01*
X0112407Y0120842D01*
X0112407Y0123958D01*
X0110203Y0126162D01*
X0107086Y0126162D01*
X0104882Y0123958D01*
X0104882Y0120842D01*
X0105032Y0120692D01*
X0103599Y0119259D01*
X0103476Y0119558D01*
X0102702Y0120331D01*
X0101691Y0120750D01*
X0100597Y0120750D01*
X0099587Y0120331D01*
X0098813Y0119558D01*
X0098394Y0118547D01*
X0098394Y0117654D01*
X0094644Y0113904D01*
X0094644Y0059289D01*
X0094013Y0058658D01*
X0093977Y0058571D01*
X0089592Y0062957D01*
X0090102Y0063169D01*
X0090194Y0063261D01*
X0090287Y0063169D01*
X0091297Y0062750D01*
X0092391Y0062750D01*
X0093402Y0063169D01*
X0094176Y0063942D01*
X0094594Y0064953D01*
X0094594Y0066047D01*
X0094176Y0067058D01*
X0093544Y0067689D01*
X0093544Y0116604D01*
X0092494Y0117654D01*
X0092494Y0118547D01*
X0092076Y0119558D01*
X0091302Y0120331D01*
X0091216Y0120367D01*
X0118649Y0147800D01*
X0130349Y0147800D01*
X0134549Y0152000D01*
X0135544Y0152996D01*
X0135544Y0158696D01*
X0138340Y0161492D01*
X0138432Y0161400D01*
X0135544Y0158512D01*
X0135544Y0154288D01*
X0138532Y0151300D01*
X0142757Y0151300D01*
X0145644Y0154188D01*
X0148000Y0151832D01*
X0146960Y0152872D02*
X0144329Y0152872D01*
X0144329Y0151273D02*
X0133822Y0151273D01*
X0132224Y0149675D02*
X0143694Y0149675D01*
X0144058Y0148076D02*
X0130625Y0148076D01*
X0125456Y0146478D02*
X0153018Y0146478D01*
X0154630Y0143281D02*
X0156294Y0143281D01*
X0157273Y0141682D02*
X0136566Y0141682D01*
X0138165Y0140084D02*
X0193289Y0140084D01*
X0193287Y0141682D02*
X0160816Y0141682D01*
X0161794Y0143281D02*
X0193285Y0143281D01*
X0193283Y0144879D02*
X0161574Y0144879D01*
X0161330Y0149675D02*
X0158874Y0149675D01*
X0156960Y0152872D02*
X0154329Y0152872D01*
X0136960Y0152872D02*
X0135421Y0152872D01*
X0135544Y0154470D02*
X0135544Y0154470D01*
X0135544Y0156069D02*
X0135544Y0156069D01*
X0135544Y0157668D02*
X0135544Y0157668D01*
X0136115Y0159266D02*
X0136298Y0159266D01*
X0137713Y0160865D02*
X0137897Y0160865D01*
X0121233Y0146478D02*
X0117327Y0146478D01*
X0115728Y0144879D02*
X0120594Y0144879D01*
X0120956Y0143281D02*
X0114130Y0143281D01*
X0112531Y0141682D02*
X0123024Y0141682D01*
X0124072Y0140084D02*
X0110933Y0140084D01*
X0109334Y0138485D02*
X0134955Y0138485D01*
X0136553Y0136887D02*
X0107736Y0136887D01*
X0107086Y0136162D02*
X0104882Y0133958D01*
X0104882Y0130842D01*
X0107086Y0128638D01*
X0110203Y0128638D01*
X0112407Y0130842D01*
X0112407Y0133958D01*
X0110203Y0136162D01*
X0107086Y0136162D01*
X0106212Y0135288D02*
X0106137Y0135288D01*
X0104882Y0133690D02*
X0104538Y0133690D01*
X0104882Y0132091D02*
X0102940Y0132091D01*
X0101341Y0130493D02*
X0105231Y0130493D01*
X0106830Y0128894D02*
X0099743Y0128894D01*
X0098144Y0127296D02*
X0140842Y0127296D01*
X0140459Y0128894D02*
X0141744Y0128894D01*
X0145144Y0128894D02*
X0146830Y0128894D01*
X0147086Y0128638D02*
X0150203Y0128638D01*
X0152407Y0130842D01*
X0152407Y0133958D01*
X0150203Y0136162D01*
X0147086Y0136162D01*
X0144882Y0133958D01*
X0144882Y0130842D01*
X0147086Y0128638D01*
X0145553Y0127296D02*
X0193304Y0127296D01*
X0193302Y0128894D02*
X0190459Y0128894D01*
X0190203Y0128638D02*
X0192407Y0130842D01*
X0192407Y0133958D01*
X0190203Y0136162D01*
X0187086Y0136162D01*
X0184882Y0133958D01*
X0184882Y0130842D01*
X0187086Y0128638D01*
X0190203Y0128638D01*
X0192058Y0130493D02*
X0193300Y0130493D01*
X0193298Y0132091D02*
X0192407Y0132091D01*
X0192407Y0133690D02*
X0193296Y0133690D01*
X0193295Y0135288D02*
X0191077Y0135288D01*
X0193293Y0136887D02*
X0141362Y0136887D01*
X0142960Y0135288D02*
X0146212Y0135288D01*
X0144882Y0133690D02*
X0143944Y0133690D01*
X0143944Y0132091D02*
X0144882Y0132091D01*
X0145056Y0130493D02*
X0145231Y0130493D01*
X0150459Y0128894D02*
X0156830Y0128894D01*
X0157086Y0128638D02*
X0160203Y0128638D01*
X0162407Y0130842D01*
X0162407Y0133958D01*
X0160203Y0136162D01*
X0157086Y0136162D01*
X0154882Y0133958D01*
X0154882Y0130842D01*
X0157086Y0128638D01*
X0155231Y0130493D02*
X0152058Y0130493D01*
X0152407Y0132091D02*
X0154882Y0132091D01*
X0154882Y0133690D02*
X0152407Y0133690D01*
X0151077Y0135288D02*
X0156212Y0135288D01*
X0161077Y0135288D02*
X0166212Y0135288D01*
X0167086Y0136162D02*
X0164882Y0133958D01*
X0164882Y0130842D01*
X0167086Y0128638D01*
X0170203Y0128638D01*
X0172407Y0130842D01*
X0172407Y0133958D01*
X0170203Y0136162D01*
X0167086Y0136162D01*
X0164882Y0133690D02*
X0162407Y0133690D01*
X0162407Y0132091D02*
X0164882Y0132091D01*
X0165231Y0130493D02*
X0162058Y0130493D01*
X0160459Y0128894D02*
X0166830Y0128894D01*
X0167086Y0126162D02*
X0164882Y0123958D01*
X0164882Y0120842D01*
X0167086Y0118638D01*
X0170203Y0118638D01*
X0172407Y0120842D01*
X0172407Y0123958D01*
X0170203Y0126162D01*
X0167086Y0126162D01*
X0166621Y0125697D02*
X0160668Y0125697D01*
X0160203Y0126162D02*
X0157086Y0126162D01*
X0154882Y0123958D01*
X0154882Y0120842D01*
X0157086Y0118638D01*
X0160203Y0118638D01*
X0162407Y0120842D01*
X0162407Y0123958D01*
X0160203Y0126162D01*
X0162266Y0124099D02*
X0165023Y0124099D01*
X0164882Y0122500D02*
X0162407Y0122500D01*
X0162407Y0120902D02*
X0164882Y0120902D01*
X0166421Y0119303D02*
X0160868Y0119303D01*
X0156421Y0119303D02*
X0150868Y0119303D01*
X0150944Y0117705D02*
X0193316Y0117705D01*
X0193314Y0119303D02*
X0190868Y0119303D01*
X0190203Y0118638D02*
X0187086Y0118638D01*
X0184882Y0120842D01*
X0184882Y0123958D01*
X0187086Y0126162D01*
X0190203Y0126162D01*
X0192407Y0123958D01*
X0192407Y0120842D01*
X0190203Y0118638D01*
X0186421Y0119303D02*
X0180868Y0119303D01*
X0180203Y0118638D02*
X0182407Y0120842D01*
X0182407Y0123958D01*
X0180203Y0126162D01*
X0177086Y0126162D01*
X0174882Y0123958D01*
X0174882Y0120842D01*
X0177086Y0118638D01*
X0180203Y0118638D01*
X0176421Y0119303D02*
X0170868Y0119303D01*
X0172407Y0120902D02*
X0174882Y0120902D01*
X0174882Y0122500D02*
X0172407Y0122500D01*
X0172266Y0124099D02*
X0175023Y0124099D01*
X0176621Y0125697D02*
X0170668Y0125697D01*
X0170459Y0128894D02*
X0176830Y0128894D01*
X0177086Y0128638D02*
X0180203Y0128638D01*
X0182407Y0130842D01*
X0182407Y0133958D01*
X0180203Y0136162D01*
X0177086Y0136162D01*
X0174882Y0133958D01*
X0174882Y0130842D01*
X0177086Y0128638D01*
X0175231Y0130493D02*
X0172058Y0130493D01*
X0172407Y0132091D02*
X0174882Y0132091D01*
X0174882Y0133690D02*
X0172407Y0133690D01*
X0171077Y0135288D02*
X0176212Y0135288D01*
X0181077Y0135288D02*
X0186212Y0135288D01*
X0184882Y0133690D02*
X0182407Y0133690D01*
X0182407Y0132091D02*
X0184882Y0132091D01*
X0185231Y0130493D02*
X0182058Y0130493D01*
X0180459Y0128894D02*
X0186830Y0128894D01*
X0186621Y0125697D02*
X0180668Y0125697D01*
X0182266Y0124099D02*
X0185023Y0124099D01*
X0184882Y0122500D02*
X0182407Y0122500D01*
X0182407Y0120902D02*
X0184882Y0120902D01*
X0190668Y0125697D02*
X0193306Y0125697D01*
X0193308Y0124099D02*
X0192266Y0124099D01*
X0192407Y0122500D02*
X0193310Y0122500D01*
X0193312Y0120902D02*
X0192407Y0120902D01*
X0193318Y0116106D02*
X0152542Y0116106D01*
X0154141Y0114508D02*
X0193320Y0114508D01*
X0193322Y0112909D02*
X0175426Y0112909D01*
X0175687Y0112648D02*
X0175097Y0113238D01*
X0174422Y0113728D01*
X0173679Y0114107D01*
X0172886Y0114365D01*
X0172062Y0114495D01*
X0171730Y0114495D01*
X0171730Y0109281D01*
X0171559Y0109281D01*
X0171559Y0114495D01*
X0171227Y0114495D01*
X0170403Y0114365D01*
X0169610Y0114107D01*
X0168867Y0113728D01*
X0168192Y0113238D01*
X0167602Y0112648D01*
X0167112Y0111973D01*
X0166733Y0111230D01*
X0166475Y0110436D01*
X0166344Y0109612D01*
X0166344Y0109281D01*
X0171559Y0109281D01*
X0171559Y0109109D01*
X0171730Y0109109D01*
X0171730Y0103895D01*
X0172062Y0103895D01*
X0172886Y0104026D01*
X0173679Y0104284D01*
X0174422Y0104662D01*
X0175097Y0105153D01*
X0175687Y0105743D01*
X0176177Y0106417D01*
X0176556Y0107161D01*
X0176814Y0107954D01*
X0176944Y0108778D01*
X0176944Y0109109D01*
X0171730Y0109109D01*
X0171730Y0109281D01*
X0176944Y0109281D01*
X0176944Y0109612D01*
X0176814Y0110436D01*
X0176556Y0111230D01*
X0176177Y0111973D01*
X0175687Y0112648D01*
X0176515Y0111311D02*
X0193324Y0111311D01*
X0193326Y0109712D02*
X0176929Y0109712D01*
X0176839Y0108114D02*
X0193328Y0108114D01*
X0193330Y0106515D02*
X0176227Y0106515D01*
X0174772Y0104917D02*
X0193332Y0104917D01*
X0193334Y0103318D02*
X0157744Y0103318D01*
X0157744Y0101720D02*
X0193336Y0101720D01*
X0193338Y0100121D02*
X0157744Y0100121D01*
X0157744Y0098523D02*
X0193340Y0098523D01*
X0193342Y0096924D02*
X0157744Y0096924D01*
X0157744Y0095326D02*
X0193344Y0095326D01*
X0193346Y0093727D02*
X0157744Y0093727D01*
X0157744Y0092129D02*
X0193348Y0092129D01*
X0193350Y0090530D02*
X0157744Y0090530D01*
X0157744Y0088932D02*
X0193352Y0088932D01*
X0193354Y0087333D02*
X0174846Y0087333D01*
X0174420Y0087759D02*
X0172619Y0088505D01*
X0170670Y0088505D01*
X0168869Y0087759D01*
X0167490Y0086380D01*
X0166744Y0084579D01*
X0166744Y0082630D01*
X0167490Y0080829D01*
X0168869Y0079451D01*
X0170670Y0078705D01*
X0172619Y0078705D01*
X0174420Y0079451D01*
X0175798Y0080829D01*
X0176544Y0082630D01*
X0176544Y0084579D01*
X0175798Y0086380D01*
X0174420Y0087759D01*
X0176066Y0085734D02*
X0193356Y0085734D01*
X0193358Y0084136D02*
X0176544Y0084136D01*
X0176506Y0082537D02*
X0193360Y0082537D01*
X0193362Y0080939D02*
X0175844Y0080939D01*
X0174154Y0079340D02*
X0193364Y0079340D01*
X0193366Y0077742D02*
X0157744Y0077742D01*
X0157744Y0079340D02*
X0169135Y0079340D01*
X0167445Y0080939D02*
X0157744Y0080939D01*
X0157744Y0082537D02*
X0166783Y0082537D01*
X0166744Y0084136D02*
X0157744Y0084136D01*
X0157744Y0085734D02*
X0167223Y0085734D01*
X0168443Y0087333D02*
X0157744Y0087333D01*
X0150707Y0087333D02*
X0145526Y0087333D01*
X0146044Y0088932D02*
X0149109Y0088932D01*
X0147510Y0090530D02*
X0146044Y0090530D01*
X0145912Y0092129D02*
X0145417Y0092129D01*
X0144313Y0093727D02*
X0144030Y0093727D01*
X0145925Y0096924D02*
X0153144Y0096924D01*
X0153144Y0095326D02*
X0147523Y0095326D01*
X0149122Y0093727D02*
X0151118Y0093727D01*
X0153144Y0098523D02*
X0145080Y0098523D01*
X0145852Y0100121D02*
X0153144Y0100121D01*
X0153144Y0101720D02*
X0146044Y0101720D01*
X0145753Y0103318D02*
X0153144Y0103318D01*
X0153144Y0104917D02*
X0144840Y0104917D01*
X0142405Y0106515D02*
X0153144Y0106515D01*
X0152727Y0108114D02*
X0144671Y0108114D01*
X0145683Y0109712D02*
X0151128Y0109712D01*
X0149530Y0111311D02*
X0146044Y0111311D01*
X0145922Y0112909D02*
X0147931Y0112909D01*
X0146333Y0114508D02*
X0145249Y0114508D01*
X0144734Y0116106D02*
X0143392Y0116106D01*
X0143136Y0117705D02*
X0111898Y0117705D01*
X0112294Y0116106D02*
X0117262Y0116106D01*
X0116161Y0114508D02*
X0111741Y0114508D01*
X0111244Y0112909D02*
X0116237Y0112909D01*
X0117668Y0111311D02*
X0111244Y0111311D01*
X0111244Y0109712D02*
X0120528Y0109712D01*
X0122127Y0108114D02*
X0111244Y0108114D01*
X0111244Y0106515D02*
X0123725Y0106515D01*
X0125324Y0104917D02*
X0111244Y0104917D01*
X0112531Y0103318D02*
X0126922Y0103318D01*
X0128521Y0101720D02*
X0114129Y0101720D01*
X0115728Y0100121D02*
X0130119Y0100121D01*
X0131718Y0098523D02*
X0117326Y0098523D01*
X0118925Y0096924D02*
X0133316Y0096924D01*
X0134915Y0095326D02*
X0120523Y0095326D01*
X0122122Y0093727D02*
X0137859Y0093727D01*
X0136472Y0092129D02*
X0123720Y0092129D01*
X0125319Y0090530D02*
X0135844Y0090530D01*
X0135844Y0088932D02*
X0126917Y0088932D01*
X0128516Y0087333D02*
X0136363Y0087333D01*
X0137597Y0085734D02*
X0130114Y0085734D01*
X0131713Y0084136D02*
X0138568Y0084136D01*
X0136669Y0082537D02*
X0133311Y0082537D01*
X0134910Y0080939D02*
X0135979Y0080939D01*
X0129190Y0080050D02*
X0128940Y0079800D01*
X0128294Y0079154D01*
X0118744Y0088704D01*
X0117749Y0089700D01*
X0113431Y0089700D01*
X0113494Y0089853D01*
X0113494Y0090947D01*
X0113076Y0091958D01*
X0112302Y0092731D01*
X0111291Y0093150D01*
X0110399Y0093150D01*
X0109444Y0094104D01*
X0108449Y0095100D01*
X0108134Y0095100D01*
X0107502Y0095731D01*
X0106491Y0096150D01*
X0105397Y0096150D01*
X0104387Y0095731D01*
X0104344Y0095689D01*
X0104344Y0103411D01*
X0104987Y0102769D01*
X0105997Y0102350D01*
X0106890Y0102350D01*
X0129190Y0080050D01*
X0128940Y0079800D02*
X0128940Y0079800D01*
X0128481Y0079340D02*
X0128108Y0079340D01*
X0128301Y0080939D02*
X0126510Y0080939D01*
X0126703Y0082537D02*
X0124911Y0082537D01*
X0125104Y0084136D02*
X0123313Y0084136D01*
X0123506Y0085734D02*
X0121714Y0085734D01*
X0121907Y0087333D02*
X0120116Y0087333D01*
X0120309Y0088932D02*
X0118517Y0088932D01*
X0118710Y0090530D02*
X0113494Y0090530D01*
X0112905Y0092129D02*
X0117112Y0092129D01*
X0115513Y0093727D02*
X0109822Y0093727D01*
X0107908Y0095326D02*
X0113915Y0095326D01*
X0112316Y0096924D02*
X0104344Y0096924D01*
X0104344Y0098523D02*
X0110718Y0098523D01*
X0109119Y0100121D02*
X0104344Y0100121D01*
X0104344Y0101720D02*
X0107521Y0101720D01*
X0104437Y0103318D02*
X0104344Y0103318D01*
X0094644Y0103318D02*
X0093544Y0103318D01*
X0093544Y0101720D02*
X0094644Y0101720D01*
X0094644Y0100121D02*
X0093544Y0100121D01*
X0093544Y0098523D02*
X0094644Y0098523D01*
X0094644Y0096924D02*
X0093544Y0096924D01*
X0093544Y0095326D02*
X0094644Y0095326D01*
X0094644Y0093727D02*
X0093544Y0093727D01*
X0093544Y0092129D02*
X0094644Y0092129D01*
X0094644Y0090530D02*
X0093544Y0090530D01*
X0093544Y0088932D02*
X0094644Y0088932D01*
X0094644Y0087333D02*
X0093544Y0087333D01*
X0093544Y0085734D02*
X0094644Y0085734D01*
X0094644Y0084136D02*
X0093544Y0084136D01*
X0093544Y0082537D02*
X0094644Y0082537D01*
X0094644Y0080939D02*
X0093544Y0080939D01*
X0093544Y0079340D02*
X0094644Y0079340D01*
X0094644Y0077742D02*
X0093544Y0077742D01*
X0093544Y0076143D02*
X0094644Y0076143D01*
X0094644Y0074545D02*
X0093544Y0074545D01*
X0093544Y0072946D02*
X0094644Y0072946D01*
X0094644Y0071348D02*
X0093544Y0071348D01*
X0093544Y0069749D02*
X0094644Y0069749D01*
X0094644Y0068151D02*
X0093544Y0068151D01*
X0094385Y0066552D02*
X0094644Y0066552D01*
X0094594Y0064954D02*
X0094644Y0064954D01*
X0094644Y0063355D02*
X0093589Y0063355D01*
X0094644Y0061757D02*
X0090792Y0061757D01*
X0092390Y0060158D02*
X0094644Y0060158D01*
X0084590Y0056550D02*
X0083497Y0056550D01*
X0082487Y0056131D01*
X0081855Y0055500D01*
X0054844Y0055500D01*
X0054844Y0057075D01*
X0054175Y0058692D01*
X0052937Y0059930D01*
X0051320Y0060600D01*
X0043569Y0060600D01*
X0041952Y0059930D01*
X0041622Y0059600D01*
X0015568Y0059600D01*
X0014319Y0059082D01*
X0013362Y0058126D01*
X0012844Y0056876D01*
X0012844Y0055524D01*
X0013362Y0054274D01*
X0014319Y0053318D01*
X0015568Y0052800D01*
X0041622Y0052800D01*
X0041931Y0052491D01*
X0039990Y0050550D01*
X0039097Y0050550D01*
X0038087Y0050131D01*
X0037313Y0049358D01*
X0036894Y0048347D01*
X0036894Y0047253D01*
X0037313Y0046242D01*
X0038087Y0045469D01*
X0039097Y0045050D01*
X0040191Y0045050D01*
X0040612Y0045224D01*
X0040612Y0042060D01*
X0041185Y0040678D01*
X0042243Y0039619D01*
X0043626Y0039046D01*
X0045123Y0039046D01*
X0046506Y0039619D01*
X0047564Y0040678D01*
X0048137Y0042060D01*
X0048137Y0048281D01*
X0047798Y0049100D01*
X0052349Y0049100D01*
X0053344Y0050096D01*
X0055349Y0052100D01*
X0081755Y0052100D01*
X0081713Y0052058D01*
X0081294Y0051047D01*
X0081294Y0049953D01*
X0081713Y0048942D01*
X0082344Y0048311D01*
X0082344Y0046196D01*
X0082494Y0046046D01*
X0082494Y0045153D01*
X0082913Y0044142D01*
X0083687Y0043369D01*
X0084697Y0042950D01*
X0085791Y0042950D01*
X0086802Y0043369D01*
X0087434Y0044000D01*
X0114540Y0044000D01*
X0119244Y0039296D01*
X0120240Y0038300D01*
X0142755Y0038300D01*
X0143387Y0037669D01*
X0144397Y0037250D01*
X0145491Y0037250D01*
X0146502Y0037669D01*
X0147276Y0038442D01*
X0147487Y0038953D01*
X0148344Y0038096D01*
X0149340Y0037100D01*
X0156240Y0037100D01*
X0166794Y0026546D01*
X0166794Y0025782D01*
X0166232Y0025965D01*
X0165377Y0026100D01*
X0165144Y0026100D01*
X0165144Y0020800D01*
X0164744Y0020800D01*
X0164744Y0026100D01*
X0164512Y0026100D01*
X0163657Y0025965D01*
X0162833Y0025697D01*
X0162394Y0025473D01*
X0162394Y0025847D01*
X0161976Y0026858D01*
X0161202Y0027631D01*
X0160191Y0028050D01*
X0159299Y0028050D01*
X0153749Y0033600D01*
X0152534Y0033600D01*
X0151902Y0034231D01*
X0150891Y0034650D01*
X0149797Y0034650D01*
X0148787Y0034231D01*
X0148744Y0034189D01*
X0148744Y0036731D01*
X0148276Y0037200D01*
X0072713Y0037200D01*
X0072244Y0036731D01*
X0072244Y0030379D01*
X0070983Y0029856D01*
X0069925Y0028798D01*
X0069352Y0027415D01*
X0069352Y0021194D01*
X0069925Y0019811D01*
X0070983Y0018753D01*
X0072244Y0018231D01*
X0072244Y0017700D01*
X0020541Y0017700D01*
X0022596Y0019755D01*
X0023844Y0022769D01*
X0023844Y0026031D01*
X0022596Y0029045D01*
X0020289Y0031352D01*
X0017276Y0032600D01*
X0014013Y0032600D01*
X0011000Y0031352D01*
X0008944Y0029297D01*
X0008944Y0173100D01*
X0011748Y0173100D01*
X0010693Y0172045D01*
X0009444Y0169031D01*
X0009444Y0165769D01*
X0010693Y0162755D01*
X0013000Y0160448D01*
X0016013Y0159200D01*
X0019276Y0159200D01*
X0022289Y0160448D01*
X0024596Y0162755D01*
X0025844Y0165769D01*
X0025844Y0169031D01*
X0024596Y0172045D01*
X0023541Y0173100D01*
X0040740Y0173100D01*
X0040644Y0173004D01*
X0022344Y0154704D01*
X0022344Y0098096D01*
X0023340Y0097100D01*
X0060587Y0059853D01*
X0060294Y0059147D01*
X0060294Y0058053D01*
X0060713Y0057042D01*
X0061487Y0056269D01*
X0062497Y0055850D01*
X0063591Y0055850D01*
X0064602Y0056269D01*
X0065376Y0057042D01*
X0065794Y0058053D01*
X0065794Y0059147D01*
X0065376Y0060158D01*
X0064602Y0060931D01*
X0064116Y0061133D01*
X0025744Y0099504D01*
X0025744Y0113596D01*
X0030144Y0109196D01*
X0030144Y0101696D01*
X0031140Y0100700D01*
X0068994Y0062846D01*
X0068994Y0061953D01*
X0069413Y0060942D01*
X0070187Y0060169D01*
X0071197Y0059750D01*
X0072291Y0059750D01*
X0073302Y0060169D01*
X0074076Y0060942D01*
X0074494Y0061953D01*
X0074494Y0063047D01*
X0074076Y0064058D01*
X0073302Y0064831D01*
X0072291Y0065250D01*
X0071399Y0065250D01*
X0033544Y0103104D01*
X0033544Y0107596D01*
X0084590Y0056550D01*
X0084179Y0056961D02*
X0065295Y0056961D01*
X0065794Y0058560D02*
X0082581Y0058560D01*
X0080982Y0060158D02*
X0073277Y0060158D01*
X0074413Y0061757D02*
X0079384Y0061757D01*
X0077785Y0063355D02*
X0074367Y0063355D01*
X0073006Y0064954D02*
X0076186Y0064954D01*
X0074588Y0066552D02*
X0070096Y0066552D01*
X0068498Y0068151D02*
X0072989Y0068151D01*
X0071391Y0069749D02*
X0066899Y0069749D01*
X0065301Y0071348D02*
X0069792Y0071348D01*
X0068194Y0072946D02*
X0063702Y0072946D01*
X0062104Y0074545D02*
X0066595Y0074545D01*
X0064997Y0076143D02*
X0060505Y0076143D01*
X0058907Y0077742D02*
X0063398Y0077742D01*
X0061800Y0079340D02*
X0057308Y0079340D01*
X0055710Y0080939D02*
X0060201Y0080939D01*
X0058603Y0082537D02*
X0054111Y0082537D01*
X0052513Y0084136D02*
X0057004Y0084136D01*
X0055406Y0085734D02*
X0050914Y0085734D01*
X0049316Y0087333D02*
X0053807Y0087333D01*
X0052209Y0088932D02*
X0047717Y0088932D01*
X0046119Y0090530D02*
X0050610Y0090530D01*
X0049012Y0092129D02*
X0044520Y0092129D01*
X0042922Y0093727D02*
X0047413Y0093727D01*
X0045815Y0095326D02*
X0041323Y0095326D01*
X0039725Y0096924D02*
X0044216Y0096924D01*
X0042618Y0098523D02*
X0038126Y0098523D01*
X0036528Y0100121D02*
X0041019Y0100121D01*
X0039421Y0101720D02*
X0034929Y0101720D01*
X0033544Y0103318D02*
X0037822Y0103318D01*
X0036224Y0104917D02*
X0033544Y0104917D01*
X0033544Y0106515D02*
X0034625Y0106515D01*
X0037199Y0108750D02*
X0039285Y0108750D01*
X0042594Y0112060D01*
X0042594Y0116740D01*
X0039285Y0120050D01*
X0034604Y0120050D01*
X0031294Y0116740D01*
X0031294Y0114654D01*
X0028144Y0117804D01*
X0028144Y0123308D01*
X0028744Y0123002D01*
X0029485Y0122761D01*
X0030255Y0122639D01*
X0030644Y0122639D01*
X0030644Y0127589D01*
X0030645Y0127589D01*
X0035594Y0127589D01*
X0035594Y0127979D01*
X0035472Y0128748D01*
X0035231Y0129489D01*
X0034878Y0130183D01*
X0034420Y0130813D01*
X0033869Y0131364D01*
X0033354Y0131738D01*
X0034501Y0132886D01*
X0035194Y0134558D01*
X0035194Y0136368D01*
X0034501Y0138040D01*
X0033222Y0139320D01*
X0033028Y0139400D01*
X0033178Y0139462D01*
X0033240Y0139400D01*
X0033540Y0139400D01*
X0043494Y0129446D01*
X0043494Y0128553D01*
X0043913Y0127542D01*
X0044687Y0126769D01*
X0045697Y0126350D01*
X0046791Y0126350D01*
X0047802Y0126769D01*
X0048576Y0127542D01*
X0048994Y0128553D01*
X0048994Y0129647D01*
X0048576Y0130658D01*
X0047802Y0131431D01*
X0046791Y0131850D01*
X0045899Y0131850D01*
X0035944Y0141804D01*
X0035194Y0142555D01*
X0035194Y0144242D01*
X0034501Y0145914D01*
X0033222Y0147194D01*
X0033028Y0147274D01*
X0033222Y0147354D01*
X0033754Y0147886D01*
X0057144Y0124496D01*
X0058140Y0123500D01*
X0068040Y0123500D01*
X0068423Y0123117D01*
X0068394Y0123047D01*
X0068394Y0121953D01*
X0068813Y0120942D01*
X0069587Y0120169D01*
X0070597Y0119750D01*
X0071691Y0119750D01*
X0072702Y0120169D01*
X0073476Y0120942D01*
X0073894Y0121953D01*
X0073894Y0122846D01*
X0079494Y0128446D01*
X0079494Y0128253D01*
X0079913Y0127242D01*
X0080687Y0126469D01*
X0081697Y0126050D01*
X0082791Y0126050D01*
X0082944Y0126113D01*
X0082944Y0063004D01*
X0037199Y0108750D01*
X0037835Y0108114D02*
X0045095Y0108114D01*
X0045113Y0108158D02*
X0044694Y0107147D01*
X0044694Y0106053D01*
X0045113Y0105042D01*
X0045887Y0104269D01*
X0046897Y0103850D01*
X0047991Y0103850D01*
X0049002Y0104269D01*
X0049634Y0104900D01*
X0052740Y0104900D01*
X0054294Y0103346D01*
X0054294Y0102453D01*
X0054713Y0101442D01*
X0055487Y0100669D01*
X0056497Y0100250D01*
X0057591Y0100250D01*
X0058602Y0100669D01*
X0059376Y0101442D01*
X0059412Y0101529D01*
X0059544Y0101396D01*
X0059544Y0095289D01*
X0058913Y0094658D01*
X0058494Y0093647D01*
X0058494Y0092553D01*
X0058913Y0091542D01*
X0059687Y0090769D01*
X0060697Y0090350D01*
X0061791Y0090350D01*
X0062802Y0090769D01*
X0063576Y0091542D01*
X0063994Y0092553D01*
X0063994Y0093647D01*
X0063576Y0094658D01*
X0062944Y0095289D01*
X0062944Y0102804D01*
X0061949Y0103800D01*
X0053044Y0112704D01*
X0053044Y0114911D01*
X0053676Y0115542D01*
X0054094Y0116553D01*
X0054094Y0117647D01*
X0053676Y0118658D01*
X0052902Y0119431D01*
X0051891Y0119850D01*
X0050797Y0119850D01*
X0049787Y0119431D01*
X0049013Y0118658D01*
X0048594Y0117647D01*
X0048594Y0116553D01*
X0049013Y0115542D01*
X0049644Y0114911D01*
X0049644Y0112704D01*
X0049644Y0111296D01*
X0052640Y0108300D01*
X0049634Y0108300D01*
X0049002Y0108931D01*
X0047991Y0109350D01*
X0046897Y0109350D01*
X0045887Y0108931D01*
X0045113Y0108158D01*
X0044694Y0106515D02*
X0039433Y0106515D01*
X0041032Y0104917D02*
X0045239Y0104917D01*
X0042630Y0103318D02*
X0054294Y0103318D01*
X0054598Y0101720D02*
X0044229Y0101720D01*
X0045828Y0100121D02*
X0059544Y0100121D01*
X0059544Y0098523D02*
X0047426Y0098523D01*
X0049025Y0096924D02*
X0059544Y0096924D01*
X0059544Y0095326D02*
X0050623Y0095326D01*
X0052222Y0093727D02*
X0058528Y0093727D01*
X0058670Y0092129D02*
X0053820Y0092129D01*
X0055419Y0090530D02*
X0060263Y0090530D01*
X0062226Y0090530D02*
X0082944Y0090530D01*
X0082944Y0088932D02*
X0057017Y0088932D01*
X0058616Y0087333D02*
X0082944Y0087333D01*
X0082944Y0085734D02*
X0060214Y0085734D01*
X0061813Y0084136D02*
X0082944Y0084136D01*
X0082944Y0082537D02*
X0063411Y0082537D01*
X0065010Y0080939D02*
X0082944Y0080939D01*
X0082944Y0079340D02*
X0066608Y0079340D01*
X0068207Y0077742D02*
X0082944Y0077742D01*
X0082944Y0076143D02*
X0069805Y0076143D01*
X0071404Y0074545D02*
X0082944Y0074545D01*
X0082944Y0072946D02*
X0073002Y0072946D01*
X0074601Y0071348D02*
X0082944Y0071348D01*
X0082944Y0069749D02*
X0076199Y0069749D01*
X0077798Y0068151D02*
X0082944Y0068151D01*
X0082944Y0066552D02*
X0079396Y0066552D01*
X0080995Y0064954D02*
X0082944Y0064954D01*
X0082944Y0063355D02*
X0082593Y0063355D01*
X0070212Y0060158D02*
X0065375Y0060158D01*
X0063492Y0061757D02*
X0069076Y0061757D01*
X0068485Y0063355D02*
X0061893Y0063355D01*
X0060295Y0064954D02*
X0066886Y0064954D01*
X0065288Y0066552D02*
X0058696Y0066552D01*
X0057098Y0068151D02*
X0063689Y0068151D01*
X0062091Y0069749D02*
X0055499Y0069749D01*
X0053901Y0071348D02*
X0060492Y0071348D01*
X0058894Y0072946D02*
X0052302Y0072946D01*
X0050704Y0074545D02*
X0057295Y0074545D01*
X0055697Y0076143D02*
X0049105Y0076143D01*
X0047507Y0077742D02*
X0054098Y0077742D01*
X0052500Y0079340D02*
X0045908Y0079340D01*
X0044310Y0080939D02*
X0050901Y0080939D01*
X0049303Y0082537D02*
X0042711Y0082537D01*
X0041113Y0084136D02*
X0047704Y0084136D01*
X0046106Y0085734D02*
X0039514Y0085734D01*
X0037916Y0087333D02*
X0044507Y0087333D01*
X0042909Y0088932D02*
X0036317Y0088932D01*
X0034719Y0090530D02*
X0041310Y0090530D01*
X0039712Y0092129D02*
X0033120Y0092129D01*
X0031522Y0093727D02*
X0038113Y0093727D01*
X0036515Y0095326D02*
X0029923Y0095326D01*
X0028325Y0096924D02*
X0034916Y0096924D01*
X0033318Y0098523D02*
X0026726Y0098523D01*
X0025744Y0100121D02*
X0031719Y0100121D01*
X0030144Y0101720D02*
X0025744Y0101720D01*
X0025744Y0103318D02*
X0030144Y0103318D01*
X0030144Y0104917D02*
X0025744Y0104917D01*
X0025744Y0106515D02*
X0030144Y0106515D01*
X0030144Y0108114D02*
X0025744Y0108114D01*
X0025744Y0109712D02*
X0029628Y0109712D01*
X0028030Y0111311D02*
X0025744Y0111311D01*
X0025744Y0112909D02*
X0026431Y0112909D01*
X0022344Y0112909D02*
X0008944Y0112909D01*
X0008944Y0111311D02*
X0022344Y0111311D01*
X0022344Y0109712D02*
X0008944Y0109712D01*
X0008944Y0108114D02*
X0022344Y0108114D01*
X0022344Y0106515D02*
X0008944Y0106515D01*
X0008944Y0104917D02*
X0022344Y0104917D01*
X0022344Y0103318D02*
X0008944Y0103318D01*
X0008944Y0101720D02*
X0022344Y0101720D01*
X0022344Y0100121D02*
X0008944Y0100121D01*
X0008944Y0098523D02*
X0022344Y0098523D01*
X0023516Y0096924D02*
X0008944Y0096924D01*
X0008944Y0095326D02*
X0025115Y0095326D01*
X0026713Y0093727D02*
X0008944Y0093727D01*
X0008944Y0092129D02*
X0028312Y0092129D01*
X0029910Y0090530D02*
X0008944Y0090530D01*
X0008944Y0088932D02*
X0031509Y0088932D01*
X0033107Y0087333D02*
X0008944Y0087333D01*
X0008944Y0085734D02*
X0034706Y0085734D01*
X0036304Y0084136D02*
X0008944Y0084136D01*
X0008944Y0082537D02*
X0037903Y0082537D01*
X0039501Y0080939D02*
X0008944Y0080939D01*
X0008944Y0079340D02*
X0041100Y0079340D01*
X0042698Y0077742D02*
X0008944Y0077742D01*
X0008944Y0076143D02*
X0044297Y0076143D01*
X0045895Y0074545D02*
X0033990Y0074545D01*
X0033385Y0075150D02*
X0028704Y0075150D01*
X0025394Y0071840D01*
X0025394Y0067160D01*
X0028704Y0063850D01*
X0033385Y0063850D01*
X0036694Y0067160D01*
X0036694Y0071840D01*
X0033385Y0075150D01*
X0035588Y0072946D02*
X0047494Y0072946D01*
X0049092Y0071348D02*
X0036694Y0071348D01*
X0036694Y0069749D02*
X0050691Y0069749D01*
X0052289Y0068151D02*
X0036694Y0068151D01*
X0036087Y0066552D02*
X0053888Y0066552D01*
X0055486Y0064954D02*
X0034489Y0064954D01*
X0027600Y0064954D02*
X0008944Y0064954D01*
X0008944Y0066552D02*
X0026002Y0066552D01*
X0025394Y0068151D02*
X0008944Y0068151D01*
X0008944Y0069749D02*
X0025394Y0069749D01*
X0025394Y0071348D02*
X0008944Y0071348D01*
X0008944Y0072946D02*
X0026501Y0072946D01*
X0028099Y0074545D02*
X0008944Y0074545D01*
X0008944Y0063355D02*
X0057085Y0063355D01*
X0058683Y0061757D02*
X0008944Y0061757D01*
X0008944Y0060158D02*
X0042503Y0060158D01*
X0052386Y0060158D02*
X0060282Y0060158D01*
X0060294Y0058560D02*
X0054230Y0058560D01*
X0054844Y0056961D02*
X0060794Y0056961D01*
X0053816Y0050567D02*
X0070828Y0050567D01*
X0070983Y0050723D02*
X0069925Y0049664D01*
X0069352Y0048281D01*
X0069352Y0042060D01*
X0069925Y0040678D01*
X0070983Y0039619D01*
X0072366Y0039046D01*
X0073863Y0039046D01*
X0075246Y0039619D01*
X0076304Y0040678D01*
X0076877Y0042060D01*
X0076877Y0048281D01*
X0076304Y0049664D01*
X0075246Y0050723D01*
X0073863Y0051295D01*
X0072366Y0051295D01*
X0070983Y0050723D01*
X0069637Y0048969D02*
X0047852Y0048969D01*
X0048137Y0047370D02*
X0069352Y0047370D01*
X0069352Y0045772D02*
X0048137Y0045772D01*
X0048137Y0044173D02*
X0069352Y0044173D01*
X0069352Y0042575D02*
X0048137Y0042575D01*
X0047688Y0040976D02*
X0050098Y0040976D01*
X0049548Y0040749D02*
X0051045Y0041368D01*
X0052665Y0041368D01*
X0054161Y0040749D01*
X0055306Y0039603D01*
X0055926Y0038107D01*
X0055926Y0036487D01*
X0055306Y0034990D01*
X0054161Y0033845D01*
X0052665Y0033225D01*
X0051045Y0033225D01*
X0049548Y0033845D01*
X0048403Y0034990D01*
X0047783Y0036487D01*
X0047783Y0038107D01*
X0048403Y0039603D01*
X0049548Y0040749D01*
X0048310Y0039378D02*
X0045922Y0039378D01*
X0047783Y0037779D02*
X0008944Y0037779D01*
X0008944Y0036181D02*
X0047910Y0036181D01*
X0048811Y0034582D02*
X0008944Y0034582D01*
X0008944Y0032984D02*
X0072244Y0032984D01*
X0072244Y0034582D02*
X0068678Y0034582D01*
X0069086Y0034990D02*
X0069706Y0036487D01*
X0069706Y0038107D01*
X0069086Y0039603D01*
X0067941Y0040749D01*
X0066444Y0041368D01*
X0064824Y0041368D01*
X0063328Y0040749D01*
X0062182Y0039603D01*
X0061563Y0038107D01*
X0061563Y0036487D01*
X0062182Y0034990D01*
X0063328Y0033845D01*
X0064824Y0033225D01*
X0066444Y0033225D01*
X0067941Y0033845D01*
X0069086Y0034990D01*
X0069579Y0036181D02*
X0072244Y0036181D01*
X0069706Y0037779D02*
X0143276Y0037779D01*
X0146613Y0037779D02*
X0148661Y0037779D01*
X0148744Y0036181D02*
X0157160Y0036181D01*
X0158758Y0034582D02*
X0151055Y0034582D01*
X0149634Y0034582D02*
X0148744Y0034582D01*
X0154365Y0032984D02*
X0160357Y0032984D01*
X0161955Y0031385D02*
X0155964Y0031385D01*
X0157562Y0029787D02*
X0163554Y0029787D01*
X0165152Y0028188D02*
X0159161Y0028188D01*
X0162087Y0026590D02*
X0166751Y0026590D01*
X0165144Y0024991D02*
X0164744Y0024991D01*
X0164744Y0023393D02*
X0165144Y0023393D01*
X0165144Y0021794D02*
X0164744Y0021794D01*
X0169649Y0030300D02*
X0157449Y0042500D01*
X0173040Y0042500D01*
X0190836Y0024704D01*
X0190621Y0024489D01*
X0189844Y0022614D01*
X0189844Y0022097D01*
X0189268Y0023489D01*
X0187833Y0024924D01*
X0185959Y0025700D01*
X0183930Y0025700D01*
X0183448Y0025500D01*
X0178649Y0030300D01*
X0169649Y0030300D01*
X0169670Y0031705D02*
X0171619Y0031705D01*
X0173420Y0032451D01*
X0174798Y0033829D01*
X0175544Y0035630D01*
X0175544Y0037579D01*
X0174798Y0039380D01*
X0173420Y0040759D01*
X0171619Y0041505D01*
X0169670Y0041505D01*
X0167869Y0040759D01*
X0166490Y0039380D01*
X0165744Y0037579D01*
X0165744Y0035630D01*
X0166490Y0033829D01*
X0167869Y0032451D01*
X0169670Y0031705D01*
X0168564Y0031385D02*
X0184155Y0031385D01*
X0182557Y0032984D02*
X0173953Y0032984D01*
X0175110Y0034582D02*
X0180958Y0034582D01*
X0179360Y0036181D02*
X0175544Y0036181D01*
X0175462Y0037779D02*
X0177761Y0037779D01*
X0176163Y0039378D02*
X0174800Y0039378D01*
X0174564Y0040976D02*
X0172895Y0040976D01*
X0168394Y0040976D02*
X0158972Y0040976D01*
X0160571Y0039378D02*
X0166489Y0039378D01*
X0165827Y0037779D02*
X0162169Y0037779D01*
X0163768Y0036181D02*
X0165744Y0036181D01*
X0165366Y0034582D02*
X0166179Y0034582D01*
X0166965Y0032984D02*
X0167336Y0032984D01*
X0179162Y0029787D02*
X0185754Y0029787D01*
X0187352Y0028188D02*
X0180761Y0028188D01*
X0182359Y0026590D02*
X0188951Y0026590D01*
X0187670Y0024991D02*
X0190549Y0024991D01*
X0190167Y0023393D02*
X0189308Y0023393D01*
X0192161Y0028188D02*
X0193427Y0028188D01*
X0193425Y0029787D02*
X0190562Y0029787D01*
X0188964Y0031385D02*
X0193423Y0031385D01*
X0193421Y0032984D02*
X0187365Y0032984D01*
X0185766Y0034582D02*
X0193419Y0034582D01*
X0193417Y0036181D02*
X0184168Y0036181D01*
X0182569Y0037779D02*
X0193415Y0037779D01*
X0193413Y0039378D02*
X0180971Y0039378D01*
X0179372Y0040976D02*
X0193411Y0040976D01*
X0193409Y0042575D02*
X0177774Y0042575D01*
X0176175Y0044173D02*
X0193407Y0044173D01*
X0193405Y0045772D02*
X0174577Y0045772D01*
X0163502Y0047370D02*
X0193403Y0047370D01*
X0193401Y0048969D02*
X0162312Y0048969D01*
X0159377Y0048969D02*
X0143712Y0048969D01*
X0142916Y0050567D02*
X0193399Y0050567D01*
X0193397Y0052166D02*
X0144514Y0052166D01*
X0146113Y0053764D02*
X0193395Y0053764D01*
X0193393Y0055363D02*
X0147711Y0055363D01*
X0149310Y0056961D02*
X0169811Y0056961D01*
X0169403Y0057026D02*
X0170227Y0056895D01*
X0170559Y0056895D01*
X0170559Y0062109D01*
X0170730Y0062109D01*
X0170730Y0056895D01*
X0171062Y0056895D01*
X0171886Y0057026D01*
X0172679Y0057284D01*
X0173422Y0057662D01*
X0174097Y0058153D01*
X0174687Y0058743D01*
X0175177Y0059417D01*
X0175556Y0060161D01*
X0175814Y0060954D01*
X0175944Y0061778D01*
X0175944Y0062109D01*
X0170730Y0062109D01*
X0170730Y0062281D01*
X0170559Y0062281D01*
X0170559Y0067495D01*
X0170227Y0067495D01*
X0169403Y0067365D01*
X0168610Y0067107D01*
X0167867Y0066728D01*
X0167192Y0066238D01*
X0166602Y0065648D01*
X0166112Y0064973D01*
X0165733Y0064230D01*
X0165475Y0063436D01*
X0165344Y0062612D01*
X0165344Y0062281D01*
X0170559Y0062281D01*
X0170559Y0062109D01*
X0165344Y0062109D01*
X0165344Y0061778D01*
X0165475Y0060954D01*
X0165733Y0060161D01*
X0166112Y0059417D01*
X0166602Y0058743D01*
X0167192Y0058153D01*
X0167867Y0057662D01*
X0168610Y0057284D01*
X0169403Y0057026D01*
X0170559Y0056961D02*
X0170730Y0056961D01*
X0171478Y0056961D02*
X0193391Y0056961D01*
X0193389Y0058560D02*
X0174504Y0058560D01*
X0175555Y0060158D02*
X0193387Y0060158D01*
X0188147Y0061757D02*
X0175941Y0061757D01*
X0175944Y0062281D02*
X0175944Y0062612D01*
X0175814Y0063436D01*
X0175556Y0064230D01*
X0175177Y0064973D01*
X0174687Y0065648D01*
X0174097Y0066238D01*
X0173422Y0066728D01*
X0172679Y0067107D01*
X0171886Y0067365D01*
X0171062Y0067495D01*
X0170730Y0067495D01*
X0170730Y0062281D01*
X0175944Y0062281D01*
X0175827Y0063355D02*
X0187563Y0063355D01*
X0187812Y0064954D02*
X0175187Y0064954D01*
X0173664Y0066552D02*
X0189157Y0066552D01*
X0192532Y0066552D02*
X0193379Y0066552D01*
X0193377Y0068151D02*
X0157744Y0068151D01*
X0157744Y0069749D02*
X0193375Y0069749D01*
X0193374Y0071348D02*
X0157744Y0071348D01*
X0157744Y0072946D02*
X0193372Y0072946D01*
X0193370Y0074545D02*
X0157744Y0074545D01*
X0157744Y0076143D02*
X0193368Y0076143D01*
X0170730Y0066552D02*
X0170559Y0066552D01*
X0170559Y0064954D02*
X0170730Y0064954D01*
X0170730Y0063355D02*
X0170559Y0063355D01*
X0170559Y0061757D02*
X0170730Y0061757D01*
X0170730Y0060158D02*
X0170559Y0060158D01*
X0170559Y0058560D02*
X0170730Y0058560D01*
X0166785Y0058560D02*
X0150908Y0058560D01*
X0152507Y0060158D02*
X0165734Y0060158D01*
X0165348Y0061757D02*
X0154105Y0061757D01*
X0155704Y0063355D02*
X0165462Y0063355D01*
X0166102Y0064954D02*
X0157302Y0064954D01*
X0157744Y0066552D02*
X0167625Y0066552D01*
X0150744Y0077742D02*
X0145695Y0077742D01*
X0146044Y0079340D02*
X0150744Y0079340D01*
X0150744Y0080939D02*
X0145910Y0080939D01*
X0145219Y0082537D02*
X0150744Y0082537D01*
X0150744Y0084136D02*
X0143321Y0084136D01*
X0144291Y0085734D02*
X0150744Y0085734D01*
X0147624Y0076143D02*
X0144700Y0076143D01*
X0147294Y0074545D02*
X0142067Y0074545D01*
X0139822Y0074545D02*
X0138244Y0074545D01*
X0137249Y0073400D02*
X0137249Y0073400D01*
X0137044Y0072946D02*
X0145787Y0072946D01*
X0144188Y0071348D02*
X0137044Y0071348D01*
X0137044Y0069749D02*
X0142590Y0069749D01*
X0140991Y0068151D02*
X0137044Y0068151D01*
X0137044Y0066552D02*
X0139393Y0066552D01*
X0115966Y0042575D02*
X0076877Y0042575D01*
X0076877Y0044173D02*
X0082900Y0044173D01*
X0082494Y0045772D02*
X0076877Y0045772D01*
X0076877Y0047370D02*
X0082344Y0047370D01*
X0081702Y0048969D02*
X0076592Y0048969D01*
X0075401Y0050567D02*
X0081294Y0050567D01*
X0076428Y0040976D02*
X0117564Y0040976D01*
X0119163Y0039378D02*
X0074663Y0039378D01*
X0071567Y0039378D02*
X0069179Y0039378D01*
X0069801Y0040976D02*
X0067391Y0040976D01*
X0063877Y0040976D02*
X0053612Y0040976D01*
X0055400Y0039378D02*
X0062089Y0039378D01*
X0061563Y0037779D02*
X0055926Y0037779D01*
X0055799Y0036181D02*
X0061689Y0036181D01*
X0062591Y0034582D02*
X0054898Y0034582D01*
X0047564Y0028798D02*
X0046506Y0029856D01*
X0045123Y0030429D01*
X0043626Y0030429D01*
X0042243Y0029856D01*
X0041185Y0028798D01*
X0040612Y0027415D01*
X0040612Y0021194D01*
X0041185Y0019811D01*
X0042243Y0018753D01*
X0043626Y0018180D01*
X0045123Y0018180D01*
X0046506Y0018753D01*
X0047564Y0019811D01*
X0048137Y0021194D01*
X0048137Y0027415D01*
X0047564Y0028798D01*
X0047816Y0028188D02*
X0069672Y0028188D01*
X0069352Y0026590D02*
X0048137Y0026590D01*
X0048137Y0024991D02*
X0069352Y0024991D01*
X0069352Y0023393D02*
X0048137Y0023393D01*
X0048137Y0021794D02*
X0069352Y0021794D01*
X0069766Y0020196D02*
X0047723Y0020196D01*
X0046129Y0018597D02*
X0071360Y0018597D01*
X0070914Y0029787D02*
X0046575Y0029787D01*
X0042174Y0029787D02*
X0034814Y0029787D01*
X0034150Y0030450D02*
X0032144Y0030450D01*
X0032144Y0024900D01*
X0031144Y0024900D01*
X0031144Y0023900D01*
X0025594Y0023900D01*
X0025594Y0021894D01*
X0029138Y0018350D01*
X0031144Y0018350D01*
X0031144Y0023900D01*
X0032144Y0023900D01*
X0032144Y0018350D01*
X0034150Y0018350D01*
X0037694Y0021894D01*
X0037694Y0023900D01*
X0032145Y0023900D01*
X0032145Y0024900D01*
X0037694Y0024900D01*
X0037694Y0026906D01*
X0034150Y0030450D01*
X0032144Y0029787D02*
X0031144Y0029787D01*
X0031144Y0030450D02*
X0029138Y0030450D01*
X0025594Y0026906D01*
X0025594Y0024900D01*
X0031144Y0024900D01*
X0031144Y0030450D01*
X0031144Y0028188D02*
X0032144Y0028188D01*
X0032144Y0026590D02*
X0031144Y0026590D01*
X0031144Y0024991D02*
X0032144Y0024991D01*
X0032144Y0023393D02*
X0031144Y0023393D01*
X0031144Y0021794D02*
X0032144Y0021794D01*
X0032144Y0020196D02*
X0031144Y0020196D01*
X0031144Y0018597D02*
X0032144Y0018597D01*
X0034397Y0018597D02*
X0042620Y0018597D01*
X0041026Y0020196D02*
X0035996Y0020196D01*
X0037595Y0021794D02*
X0040612Y0021794D01*
X0040612Y0023393D02*
X0037694Y0023393D01*
X0037694Y0024991D02*
X0040612Y0024991D01*
X0040612Y0026590D02*
X0037694Y0026590D01*
X0036412Y0028188D02*
X0040932Y0028188D01*
X0028475Y0029787D02*
X0021854Y0029787D01*
X0022951Y0028188D02*
X0026877Y0028188D01*
X0025594Y0026590D02*
X0023613Y0026590D01*
X0023844Y0024991D02*
X0025594Y0024991D01*
X0025594Y0023393D02*
X0023844Y0023393D01*
X0023441Y0021794D02*
X0025694Y0021794D01*
X0027293Y0020196D02*
X0022779Y0020196D01*
X0021438Y0018597D02*
X0028891Y0018597D01*
X0020209Y0031385D02*
X0072244Y0031385D01*
X0053344Y0050096D02*
X0053344Y0050096D01*
X0041606Y0052166D02*
X0008944Y0052166D01*
X0008944Y0053764D02*
X0013872Y0053764D01*
X0012911Y0055363D02*
X0008944Y0055363D01*
X0008944Y0056961D02*
X0012880Y0056961D01*
X0013796Y0058560D02*
X0008944Y0058560D01*
X0008944Y0050567D02*
X0040008Y0050567D01*
X0037152Y0048969D02*
X0008944Y0048969D01*
X0008944Y0047370D02*
X0036894Y0047370D01*
X0037784Y0045772D02*
X0008944Y0045772D01*
X0008944Y0044173D02*
X0040612Y0044173D01*
X0040612Y0042575D02*
X0008944Y0042575D01*
X0008944Y0040976D02*
X0041061Y0040976D01*
X0042826Y0039378D02*
X0008944Y0039378D01*
X0008944Y0031385D02*
X0011080Y0031385D01*
X0009435Y0029787D02*
X0008944Y0029787D01*
X0063819Y0092129D02*
X0082944Y0092129D01*
X0082944Y0093727D02*
X0063961Y0093727D01*
X0062944Y0095326D02*
X0082944Y0095326D01*
X0082944Y0096924D02*
X0062944Y0096924D01*
X0062944Y0098523D02*
X0082944Y0098523D01*
X0082944Y0100121D02*
X0062944Y0100121D01*
X0062944Y0101720D02*
X0082944Y0101720D01*
X0082944Y0103318D02*
X0062431Y0103318D01*
X0060832Y0104917D02*
X0082944Y0104917D01*
X0082944Y0106515D02*
X0059233Y0106515D01*
X0057635Y0108114D02*
X0082944Y0108114D01*
X0082944Y0109712D02*
X0056036Y0109712D01*
X0054438Y0111311D02*
X0082944Y0111311D01*
X0082944Y0112909D02*
X0053044Y0112909D01*
X0053044Y0114508D02*
X0082944Y0114508D01*
X0082944Y0116106D02*
X0053909Y0116106D01*
X0054071Y0117705D02*
X0082944Y0117705D01*
X0082944Y0119303D02*
X0053030Y0119303D01*
X0049659Y0119303D02*
X0040032Y0119303D01*
X0041630Y0117705D02*
X0048618Y0117705D01*
X0048780Y0116106D02*
X0042594Y0116106D01*
X0042594Y0114508D02*
X0049644Y0114508D01*
X0049644Y0112909D02*
X0042594Y0112909D01*
X0041845Y0111311D02*
X0049644Y0111311D01*
X0051228Y0109712D02*
X0040247Y0109712D01*
X0031294Y0116106D02*
X0029842Y0116106D01*
X0028244Y0117705D02*
X0032259Y0117705D01*
X0033857Y0119303D02*
X0028144Y0119303D01*
X0028144Y0120902D02*
X0068854Y0120902D01*
X0068394Y0122500D02*
X0028144Y0122500D01*
X0030645Y0122639D02*
X0031034Y0122639D01*
X0031804Y0122761D01*
X0032544Y0123002D01*
X0033239Y0123356D01*
X0033869Y0123814D01*
X0034420Y0124365D01*
X0034878Y0124995D01*
X0035231Y0125689D01*
X0035472Y0126430D01*
X0035594Y0127199D01*
X0035594Y0127589D01*
X0030645Y0127589D01*
X0030645Y0127589D01*
X0030645Y0122639D01*
X0030644Y0124099D02*
X0030645Y0124099D01*
X0030644Y0125697D02*
X0030645Y0125697D01*
X0030644Y0127296D02*
X0030645Y0127296D01*
X0034154Y0124099D02*
X0057542Y0124099D01*
X0055943Y0125697D02*
X0035234Y0125697D01*
X0035594Y0127296D02*
X0044160Y0127296D01*
X0043494Y0128894D02*
X0035425Y0128894D01*
X0034653Y0130493D02*
X0042448Y0130493D01*
X0040849Y0132091D02*
X0033707Y0132091D01*
X0034834Y0133690D02*
X0039250Y0133690D01*
X0037652Y0135288D02*
X0035194Y0135288D01*
X0034979Y0136887D02*
X0036053Y0136887D01*
X0034455Y0138485D02*
X0034056Y0138485D01*
X0036066Y0141682D02*
X0039958Y0141682D01*
X0041556Y0140084D02*
X0037665Y0140084D01*
X0039263Y0138485D02*
X0043155Y0138485D01*
X0044753Y0136887D02*
X0040862Y0136887D01*
X0042460Y0135288D02*
X0046352Y0135288D01*
X0047950Y0133690D02*
X0044059Y0133690D01*
X0045657Y0132091D02*
X0049549Y0132091D01*
X0048644Y0130493D02*
X0051148Y0130493D01*
X0052746Y0128894D02*
X0048994Y0128894D01*
X0048329Y0127296D02*
X0054345Y0127296D01*
X0057554Y0128894D02*
X0075135Y0128894D01*
X0076733Y0130493D02*
X0055956Y0130493D01*
X0054357Y0132091D02*
X0077237Y0132091D01*
X0077094Y0131747D02*
X0077513Y0132758D01*
X0078287Y0133531D01*
X0078373Y0133567D01*
X0077940Y0134000D01*
X0058034Y0134000D01*
X0057402Y0133369D01*
X0056391Y0132950D01*
X0055297Y0132950D01*
X0054287Y0133369D01*
X0053513Y0134142D01*
X0053094Y0135153D01*
X0053094Y0136247D01*
X0053513Y0137258D01*
X0054287Y0138031D01*
X0055297Y0138450D01*
X0056391Y0138450D01*
X0057402Y0138031D01*
X0058034Y0137400D01*
X0079349Y0137400D01*
X0082044Y0134704D01*
X0082044Y0135204D01*
X0092244Y0145404D01*
X0092540Y0145700D01*
X0083040Y0145700D01*
X0082044Y0146696D01*
X0078840Y0149900D01*
X0053940Y0149900D01*
X0052944Y0150896D01*
X0050040Y0153800D01*
X0034490Y0153800D01*
X0034501Y0153788D01*
X0035194Y0152116D01*
X0035194Y0151255D01*
X0059549Y0126900D01*
X0069449Y0126900D01*
X0071099Y0125250D01*
X0071490Y0125250D01*
X0077094Y0130854D01*
X0077094Y0131747D01*
X0078250Y0133690D02*
X0057723Y0133690D01*
X0053966Y0133690D02*
X0052759Y0133690D01*
X0053094Y0135288D02*
X0051160Y0135288D01*
X0049562Y0136887D02*
X0053360Y0136887D01*
X0047963Y0138485D02*
X0085326Y0138485D01*
X0083727Y0136887D02*
X0079862Y0136887D01*
X0081460Y0135288D02*
X0082129Y0135288D01*
X0087616Y0135967D02*
X0094649Y0143000D01*
X0095955Y0143000D01*
X0096587Y0142369D01*
X0097597Y0141950D01*
X0098691Y0141950D01*
X0099702Y0142369D01*
X0100476Y0143142D01*
X0100894Y0144153D01*
X0100894Y0145247D01*
X0100707Y0145700D01*
X0110355Y0145700D01*
X0110987Y0145069D01*
X0111073Y0145033D01*
X0087844Y0121804D01*
X0087844Y0131411D01*
X0088476Y0132042D01*
X0088894Y0133053D01*
X0088894Y0134147D01*
X0088476Y0135158D01*
X0087702Y0135931D01*
X0087616Y0135967D01*
X0088345Y0135288D02*
X0101329Y0135288D01*
X0099730Y0133690D02*
X0088894Y0133690D01*
X0088496Y0132091D02*
X0098132Y0132091D01*
X0096533Y0130493D02*
X0087844Y0130493D01*
X0087844Y0128894D02*
X0094935Y0128894D01*
X0093336Y0127296D02*
X0087844Y0127296D01*
X0087844Y0125697D02*
X0091738Y0125697D01*
X0090139Y0124099D02*
X0087844Y0124099D01*
X0087844Y0122500D02*
X0088541Y0122500D01*
X0091750Y0120902D02*
X0104882Y0120902D01*
X0104882Y0122500D02*
X0093349Y0122500D01*
X0094947Y0124099D02*
X0105023Y0124099D01*
X0106621Y0125697D02*
X0096546Y0125697D01*
X0098708Y0119303D02*
X0092181Y0119303D01*
X0092494Y0117705D02*
X0098394Y0117705D01*
X0096847Y0116106D02*
X0093544Y0116106D01*
X0093544Y0114508D02*
X0095248Y0114508D01*
X0094644Y0112909D02*
X0093544Y0112909D01*
X0093544Y0111311D02*
X0094644Y0111311D01*
X0094644Y0109712D02*
X0093544Y0109712D01*
X0093544Y0108114D02*
X0094644Y0108114D01*
X0094644Y0106515D02*
X0093544Y0106515D01*
X0093544Y0104917D02*
X0094644Y0104917D01*
X0103581Y0119303D02*
X0103644Y0119303D01*
X0110868Y0119303D02*
X0116421Y0119303D01*
X0117086Y0118638D02*
X0114882Y0120842D01*
X0114882Y0123958D01*
X0117086Y0126162D01*
X0120203Y0126162D01*
X0122407Y0123958D01*
X0122407Y0120842D01*
X0120203Y0118638D01*
X0117086Y0118638D01*
X0120427Y0116106D02*
X0138497Y0116106D01*
X0136640Y0114508D02*
X0121528Y0114508D01*
X0122139Y0112909D02*
X0135967Y0112909D01*
X0135844Y0111311D02*
X0123738Y0111311D01*
X0125336Y0109712D02*
X0136206Y0109712D01*
X0137218Y0108114D02*
X0126935Y0108114D01*
X0128533Y0106515D02*
X0139484Y0106515D01*
X0137049Y0104917D02*
X0130132Y0104917D01*
X0131731Y0103318D02*
X0136136Y0103318D01*
X0135844Y0101720D02*
X0133329Y0101720D01*
X0134928Y0100121D02*
X0136037Y0100121D01*
X0136526Y0098523D02*
X0136809Y0098523D01*
X0155739Y0112909D02*
X0167863Y0112909D01*
X0166774Y0111311D02*
X0157338Y0111311D01*
X0157744Y0109712D02*
X0166360Y0109712D01*
X0166344Y0109109D02*
X0166344Y0108778D01*
X0166475Y0107954D01*
X0166733Y0107161D01*
X0167112Y0106417D01*
X0167602Y0105743D01*
X0168192Y0105153D01*
X0168867Y0104662D01*
X0169610Y0104284D01*
X0170403Y0104026D01*
X0171227Y0103895D01*
X0171559Y0103895D01*
X0171559Y0109109D01*
X0166344Y0109109D01*
X0166450Y0108114D02*
X0157744Y0108114D01*
X0157744Y0106515D02*
X0167062Y0106515D01*
X0168517Y0104917D02*
X0157744Y0104917D01*
X0171559Y0104917D02*
X0171730Y0104917D01*
X0171730Y0106515D02*
X0171559Y0106515D01*
X0171559Y0108114D02*
X0171730Y0108114D01*
X0171730Y0109712D02*
X0171559Y0109712D01*
X0171559Y0111311D02*
X0171730Y0111311D01*
X0171730Y0112909D02*
X0171559Y0112909D01*
X0154882Y0120902D02*
X0152407Y0120902D01*
X0152407Y0122500D02*
X0154882Y0122500D01*
X0155023Y0124099D02*
X0152266Y0124099D01*
X0150668Y0125697D02*
X0156621Y0125697D01*
X0141537Y0119303D02*
X0140868Y0119303D01*
X0136421Y0119303D02*
X0130868Y0119303D01*
X0130203Y0118638D02*
X0127086Y0118638D01*
X0124882Y0120842D01*
X0124882Y0123958D01*
X0127086Y0126162D01*
X0130203Y0126162D01*
X0132407Y0123958D01*
X0132407Y0120842D01*
X0130203Y0118638D01*
X0126421Y0119303D02*
X0120868Y0119303D01*
X0122407Y0120902D02*
X0124882Y0120902D01*
X0124882Y0122500D02*
X0122407Y0122500D01*
X0122266Y0124099D02*
X0125023Y0124099D01*
X0126621Y0125697D02*
X0120668Y0125697D01*
X0120203Y0128638D02*
X0117086Y0128638D01*
X0114882Y0130842D01*
X0114882Y0133958D01*
X0117086Y0136162D01*
X0120203Y0136162D01*
X0122407Y0133958D01*
X0122407Y0130842D01*
X0120203Y0128638D01*
X0120459Y0128894D02*
X0126830Y0128894D01*
X0127086Y0128638D02*
X0130203Y0128638D01*
X0132407Y0130842D01*
X0132407Y0133958D01*
X0130203Y0136162D01*
X0127086Y0136162D01*
X0124882Y0133958D01*
X0124882Y0130842D01*
X0127086Y0128638D01*
X0125231Y0130493D02*
X0122058Y0130493D01*
X0122407Y0132091D02*
X0124882Y0132091D01*
X0124882Y0133690D02*
X0122407Y0133690D01*
X0121077Y0135288D02*
X0126212Y0135288D01*
X0131077Y0135288D02*
X0136212Y0135288D01*
X0134882Y0133690D02*
X0132407Y0133690D01*
X0132407Y0132091D02*
X0134882Y0132091D01*
X0135231Y0130493D02*
X0132058Y0130493D01*
X0130459Y0128894D02*
X0136830Y0128894D01*
X0136621Y0125697D02*
X0130668Y0125697D01*
X0132266Y0124099D02*
X0135023Y0124099D01*
X0134882Y0122500D02*
X0132407Y0122500D01*
X0132407Y0120902D02*
X0134882Y0120902D01*
X0116621Y0125697D02*
X0110668Y0125697D01*
X0112266Y0124099D02*
X0115023Y0124099D01*
X0114882Y0122500D02*
X0112407Y0122500D01*
X0112407Y0120902D02*
X0114882Y0120902D01*
X0116830Y0128894D02*
X0110459Y0128894D01*
X0112058Y0130493D02*
X0115231Y0130493D01*
X0114882Y0132091D02*
X0112407Y0132091D01*
X0112407Y0133690D02*
X0114882Y0133690D01*
X0116212Y0135288D02*
X0111077Y0135288D01*
X0106124Y0140084D02*
X0091733Y0140084D01*
X0093331Y0141682D02*
X0107723Y0141682D01*
X0109321Y0143281D02*
X0100533Y0143281D01*
X0100894Y0144879D02*
X0110920Y0144879D01*
X0104526Y0138485D02*
X0090134Y0138485D01*
X0088536Y0136887D02*
X0102927Y0136887D01*
X0091720Y0144879D02*
X0041569Y0144879D01*
X0043168Y0143281D02*
X0090121Y0143281D01*
X0088523Y0141682D02*
X0044766Y0141682D01*
X0046365Y0140084D02*
X0086924Y0140084D01*
X0082262Y0146478D02*
X0039971Y0146478D01*
X0038372Y0148076D02*
X0080664Y0148076D01*
X0079065Y0149675D02*
X0036774Y0149675D01*
X0035194Y0151273D02*
X0052567Y0151273D01*
X0050968Y0152872D02*
X0034881Y0152872D01*
X0031449Y0157200D02*
X0043649Y0169400D01*
X0052432Y0169400D01*
X0051544Y0168512D01*
X0051544Y0164288D01*
X0054432Y0161400D01*
X0051544Y0158512D01*
X0051544Y0157104D01*
X0051449Y0157200D01*
X0031449Y0157200D01*
X0031916Y0157668D02*
X0051544Y0157668D01*
X0052298Y0159266D02*
X0033515Y0159266D01*
X0035113Y0160865D02*
X0053897Y0160865D01*
X0053369Y0162463D02*
X0036712Y0162463D01*
X0038310Y0164062D02*
X0051770Y0164062D01*
X0051544Y0165660D02*
X0039909Y0165660D01*
X0041507Y0167259D02*
X0051544Y0167259D01*
X0051889Y0168857D02*
X0043106Y0168857D01*
X0039694Y0172054D02*
X0024587Y0172054D01*
X0025254Y0170456D02*
X0038096Y0170456D01*
X0036497Y0168857D02*
X0025844Y0168857D01*
X0025844Y0167259D02*
X0034899Y0167259D01*
X0033300Y0165660D02*
X0025799Y0165660D01*
X0025137Y0164062D02*
X0031702Y0164062D01*
X0030103Y0162463D02*
X0024304Y0162463D01*
X0022706Y0160865D02*
X0028505Y0160865D01*
X0026906Y0159266D02*
X0019435Y0159266D01*
X0015854Y0159266D02*
X0008944Y0159266D01*
X0008944Y0157668D02*
X0025308Y0157668D01*
X0023709Y0156069D02*
X0008944Y0156069D01*
X0008944Y0154470D02*
X0022344Y0154470D01*
X0022344Y0152872D02*
X0008944Y0152872D01*
X0008944Y0151273D02*
X0022344Y0151273D01*
X0022344Y0149675D02*
X0008944Y0149675D01*
X0008944Y0148076D02*
X0022344Y0148076D01*
X0022344Y0146478D02*
X0008944Y0146478D01*
X0008944Y0144879D02*
X0022344Y0144879D01*
X0022344Y0143281D02*
X0008944Y0143281D01*
X0008944Y0141682D02*
X0022344Y0141682D01*
X0022344Y0140084D02*
X0008944Y0140084D01*
X0008944Y0138485D02*
X0022344Y0138485D01*
X0022344Y0136887D02*
X0008944Y0136887D01*
X0008944Y0135288D02*
X0022344Y0135288D01*
X0022344Y0133690D02*
X0008944Y0133690D01*
X0008944Y0132091D02*
X0022344Y0132091D01*
X0022344Y0130493D02*
X0008944Y0130493D01*
X0008944Y0128894D02*
X0022344Y0128894D01*
X0022344Y0127296D02*
X0008944Y0127296D01*
X0008944Y0125697D02*
X0022344Y0125697D01*
X0022344Y0124099D02*
X0008944Y0124099D01*
X0008944Y0122500D02*
X0022344Y0122500D01*
X0022344Y0120902D02*
X0008944Y0120902D01*
X0008944Y0119303D02*
X0022344Y0119303D01*
X0022344Y0117705D02*
X0008944Y0117705D01*
X0008944Y0116106D02*
X0022344Y0116106D01*
X0022344Y0114508D02*
X0008944Y0114508D01*
X0035194Y0143281D02*
X0038359Y0143281D01*
X0036761Y0144879D02*
X0034930Y0144879D01*
X0035162Y0146478D02*
X0033938Y0146478D01*
X0012583Y0160865D02*
X0008944Y0160865D01*
X0008944Y0162463D02*
X0010985Y0162463D01*
X0010152Y0164062D02*
X0008944Y0164062D01*
X0008944Y0165660D02*
X0009490Y0165660D01*
X0009444Y0167259D02*
X0008944Y0167259D01*
X0008944Y0168857D02*
X0009444Y0168857D01*
X0008944Y0170456D02*
X0010035Y0170456D01*
X0010702Y0172054D02*
X0008944Y0172054D01*
X0059153Y0127296D02*
X0073536Y0127296D01*
X0071938Y0125697D02*
X0070651Y0125697D01*
X0073894Y0122500D02*
X0082944Y0122500D01*
X0082944Y0120902D02*
X0073435Y0120902D01*
X0075147Y0124099D02*
X0082944Y0124099D01*
X0082944Y0125697D02*
X0076746Y0125697D01*
X0078344Y0127296D02*
X0079891Y0127296D01*
X0127417Y0140084D02*
X0133356Y0140084D01*
X0139763Y0138485D02*
X0193291Y0138485D01*
D22*
X0230144Y0155900D03*
X0230044Y0166000D03*
X0230144Y0171200D03*
X0245444Y0155300D03*
X0170444Y0102200D03*
X0163944Y0098400D03*
X0160544Y0094500D03*
X0164844Y0086800D03*
X0160044Y0082400D03*
X0148844Y0083900D03*
X0148244Y0087300D03*
X0148844Y0097200D03*
X0149044Y0104400D03*
X0148644Y0109600D03*
X0153544Y0118500D03*
X0160044Y0112600D03*
X0160644Y0105900D03*
X0141044Y0117800D03*
X0134244Y0117000D03*
X0134744Y0107700D03*
X0121044Y0101200D03*
X0116644Y0102100D03*
X0115844Y0106400D03*
X0114344Y0110500D03*
X0114044Y0118000D03*
X0106644Y0098600D03*
X0133244Y0091900D03*
X0183744Y0092000D03*
X0186144Y0102000D03*
X0194044Y0080200D03*
X0181044Y0049400D03*
X0190144Y0047500D03*
X0189844Y0041900D03*
X0181144Y0041000D03*
X0190144Y0035200D03*
X0198944Y0030800D03*
X0188144Y0025800D03*
X0181644Y0029400D03*
X0180044Y0033200D03*
X0214444Y0020700D03*
X0229844Y0023100D03*
X0079644Y0087400D03*
X0071444Y0084000D03*
X0067944Y0088200D03*
X0076144Y0081200D03*
X0057244Y0069200D03*
X0047844Y0064800D03*
X0038444Y0064500D03*
X0022944Y0065100D03*
X0022844Y0061300D03*
X0013344Y0061200D03*
X0014144Y0065600D03*
X0014844Y0101800D03*
X0020044Y0105900D03*
X0029444Y0101900D03*
X0034344Y0104700D03*
X0037044Y0100600D03*
X0058244Y0112700D03*
X0048644Y0121500D03*
X0044144Y0122000D03*
X0042744Y0126500D03*
X0057944Y0144500D03*
X0056344Y0149000D03*
X0046844Y0145700D03*
X0046044Y0150200D03*
X0044744Y0158500D03*
X0047544Y0164600D03*
X0014144Y0152000D03*
X0017544Y0132800D03*
X0074244Y0107200D03*
X0078144Y0101800D03*
D23*
X0044444Y0056200D02*
X0016244Y0056200D01*
X0135744Y0035900D02*
X0154644Y0035900D01*
X0164844Y0025700D01*
X0164844Y0020700D01*
X0164944Y0020600D01*
D24*
X0190468Y0029245D02*
X0190674Y0060869D01*
X0191408Y0060869D01*
X0192448Y0061300D01*
X0193245Y0062096D01*
X0193308Y0062250D01*
X0196744Y0062250D01*
X0202294Y0056699D01*
X0202294Y0055427D01*
X0203671Y0054050D01*
X0205618Y0054050D01*
X0206994Y0055427D01*
X0206994Y0057373D01*
X0205618Y0058750D01*
X0204345Y0058750D01*
X0198794Y0064301D01*
X0197945Y0065150D01*
X0193308Y0065150D01*
X0193245Y0065304D01*
X0192448Y0066100D01*
X0191408Y0066531D01*
X0190711Y0066531D01*
X0191061Y0120133D01*
X0191957Y0121028D01*
X0191957Y0123772D01*
X0191091Y0124638D01*
X0191127Y0130198D01*
X0191957Y0131028D01*
X0191957Y0133772D01*
X0191156Y0134573D01*
X0191237Y0147050D01*
X0193162Y0147050D01*
X0198290Y0152178D01*
X0198718Y0151750D01*
X0202571Y0151750D01*
X0205294Y0154474D01*
X0205294Y0158326D01*
X0202571Y0161050D01*
X0198718Y0161050D01*
X0196594Y0158926D01*
X0196594Y0161582D01*
X0197740Y0162728D01*
X0198718Y0161750D01*
X0202571Y0161750D01*
X0205294Y0164474D01*
X0205294Y0168326D01*
X0202571Y0171050D01*
X0198718Y0171050D01*
X0195994Y0168326D01*
X0195994Y0164518D01*
X0195194Y0163718D01*
X0194866Y0164046D01*
X0195294Y0164474D01*
X0195294Y0168326D01*
X0192571Y0171050D01*
X0191394Y0171050D01*
X0191410Y0173550D01*
X0241834Y0173550D01*
X0241074Y0172790D01*
X0239894Y0169942D01*
X0239894Y0166858D01*
X0241074Y0164010D01*
X0243254Y0161830D01*
X0246103Y0160650D01*
X0249186Y0160650D01*
X0252034Y0161830D01*
X0254215Y0164010D01*
X0254790Y0165398D01*
X0254722Y0027566D01*
X0254215Y0028790D01*
X0252034Y0030970D01*
X0249186Y0032150D01*
X0246103Y0032150D01*
X0243254Y0030970D01*
X0241074Y0028790D01*
X0239894Y0025942D01*
X0239894Y0022858D01*
X0241074Y0020010D01*
X0243254Y0017830D01*
X0244654Y0017250D01*
X0196594Y0017250D01*
X0197578Y0017658D01*
X0198887Y0018966D01*
X0199594Y0020675D01*
X0199594Y0022525D01*
X0198887Y0024234D01*
X0197578Y0025542D01*
X0195869Y0026250D01*
X0194020Y0026250D01*
X0193625Y0026087D01*
X0190468Y0029245D01*
X0191444Y0028268D02*
X0191444Y0060884D01*
X0192748Y0061600D02*
X0197394Y0061600D01*
X0199144Y0059849D02*
X0199144Y0023611D01*
X0199356Y0023100D02*
X0239894Y0023100D01*
X0237644Y0017250D02*
X0237644Y0173550D01*
X0239894Y0169400D02*
X0214221Y0169400D01*
X0214544Y0169076D02*
X0214544Y0173550D01*
X0212571Y0171050D02*
X0208718Y0171050D01*
X0205994Y0168326D01*
X0205994Y0164474D01*
X0208718Y0161750D01*
X0212571Y0161750D01*
X0215294Y0164474D01*
X0215294Y0168326D01*
X0212571Y0171050D01*
X0207068Y0169400D02*
X0204221Y0169400D01*
X0206844Y0169176D02*
X0206844Y0173550D01*
X0199144Y0173550D02*
X0199144Y0171050D01*
X0197068Y0169400D02*
X0194221Y0169400D01*
X0191444Y0171050D02*
X0191444Y0173550D01*
X0206844Y0163624D02*
X0206844Y0159176D01*
X0205994Y0158326D02*
X0205994Y0154474D01*
X0208718Y0151750D01*
X0212571Y0151750D01*
X0215294Y0154474D01*
X0215294Y0158326D01*
X0212571Y0161050D01*
X0208718Y0161050D01*
X0205994Y0158326D01*
X0199144Y0161050D02*
X0199144Y0161750D01*
X0196712Y0161700D02*
X0243568Y0161700D01*
X0245344Y0160964D02*
X0245344Y0031836D01*
X0243084Y0030800D02*
X0190478Y0030800D01*
X0190528Y0038500D02*
X0254727Y0038500D01*
X0254723Y0030800D02*
X0252205Y0030800D01*
X0253044Y0029960D02*
X0253044Y0162840D01*
X0251721Y0161700D02*
X0254788Y0161700D01*
X0254784Y0154000D02*
X0214821Y0154000D01*
X0214544Y0153724D02*
X0214544Y0089350D01*
X0216544Y0089350D02*
X0211608Y0089350D01*
X0211545Y0089504D01*
X0210748Y0090300D01*
X0209708Y0090731D01*
X0208581Y0090731D01*
X0207541Y0090300D01*
X0206744Y0089504D01*
X0206313Y0088463D01*
X0206313Y0087337D01*
X0206744Y0086296D01*
X0207541Y0085500D01*
X0208581Y0085069D01*
X0209708Y0085069D01*
X0210748Y0085500D01*
X0211545Y0086296D01*
X0211608Y0086450D01*
X0217745Y0086450D01*
X0218594Y0087299D01*
X0224345Y0093050D01*
X0225618Y0093050D01*
X0226994Y0094427D01*
X0226994Y0096373D01*
X0225618Y0097750D01*
X0223671Y0097750D01*
X0222294Y0096373D01*
X0222294Y0095101D01*
X0216544Y0089350D01*
X0219594Y0092400D02*
X0190880Y0092400D01*
X0190830Y0084700D02*
X0254750Y0084700D01*
X0254746Y0077000D02*
X0190780Y0077000D01*
X0190729Y0069300D02*
X0254742Y0069300D01*
X0254738Y0061600D02*
X0201495Y0061600D01*
X0199144Y0063951D02*
X0199144Y0151750D01*
X0204821Y0154000D02*
X0206468Y0154000D01*
X0206844Y0153624D02*
X0206844Y0089604D01*
X0206844Y0086196D02*
X0206844Y0057523D01*
X0206844Y0055277D02*
X0206844Y0017250D01*
X0199144Y0017250D02*
X0199144Y0019589D01*
X0214544Y0017250D02*
X0214544Y0086450D01*
X0222244Y0090949D02*
X0222244Y0017250D01*
X0229944Y0017250D02*
X0229944Y0173550D01*
X0222244Y0173550D02*
X0222244Y0095051D01*
X0223695Y0092400D02*
X0254754Y0092400D01*
X0254757Y0100100D02*
X0190930Y0100100D01*
X0190981Y0107800D02*
X0254761Y0107800D01*
X0254765Y0115500D02*
X0191031Y0115500D01*
X0191444Y0120516D02*
X0191444Y0066516D01*
X0190629Y0053900D02*
X0254735Y0053900D01*
X0254731Y0046200D02*
X0190578Y0046200D01*
X0191957Y0123200D02*
X0254769Y0123200D01*
X0254773Y0130900D02*
X0191829Y0130900D01*
X0191444Y0130516D02*
X0191444Y0124284D01*
X0191444Y0134284D02*
X0191444Y0147050D01*
X0191232Y0146300D02*
X0254780Y0146300D01*
X0254776Y0138600D02*
X0191182Y0138600D01*
X0214544Y0159076D02*
X0214544Y0163724D01*
D25*
X0050444Y0056200D02*
X0050444Y0055400D01*
X0050444Y0056200D02*
X0044444Y0056200D01*
D26*
X0050444Y0055400D03*
X0190844Y0063700D03*
X0209144Y0087900D03*
D27*
X0217144Y0087900D01*
X0224644Y0095400D01*
X0197344Y0063700D02*
X0190844Y0063700D01*
X0197344Y0063700D02*
X0204644Y0056400D01*
M02*
