G75*
%MOIN*%
%OFA0B0*%
%FSLAX25Y25*%
%IPPOS*%
%LPD*%
%AMOC8*
5,1,8,0,0,1.08239X$1,22.5*
%
%ADD10C,0.00000*%
%ADD11R,0.05500X0.01370*%
%ADD12OC8,0.04724*%
%ADD13R,0.04724X0.01614*%
%ADD14R,0.01614X0.04528*%
%ADD15OC8,0.07400*%
%ADD16R,0.04724X0.03150*%
%ADD17R,0.03268X0.02480*%
%ADD18C,0.07000*%
%ADD19C,0.02800*%
%ADD20C,0.02400*%
%ADD21R,0.03150X0.01181*%
%ADD22R,0.01181X0.03150*%
%ADD23R,0.03150X0.04724*%
%ADD24R,0.04800X0.08800*%
%ADD25R,0.14173X0.08661*%
%ADD26R,0.03000X0.06000*%
%ADD27C,0.07400*%
%ADD28OC8,0.08500*%
%ADD29C,0.07972*%
%ADD30R,0.01969X0.07874*%
%ADD31C,0.04724*%
%ADD32R,0.05906X0.05118*%
%ADD33C,0.00600*%
%ADD34C,0.02700*%
%ADD35C,0.01600*%
%ADD36C,0.03369*%
%ADD37C,0.01500*%
%ADD38C,0.04000*%
%ADD39C,0.00700*%
%ADD40C,0.01000*%
%ADD41C,0.03000*%
%ADD42C,0.05000*%
%ADD43C,0.02000*%
%ADD44R,0.03762X0.03762*%
%ADD45C,0.00800*%
D10*
X0004200Y0016270D02*
X0004200Y0182270D01*
X0297200Y0182270D01*
X0297200Y0016270D01*
X0004200Y0016270D01*
X0007200Y0024970D02*
X0007202Y0025110D01*
X0007208Y0025250D01*
X0007218Y0025389D01*
X0007232Y0025529D01*
X0007250Y0025667D01*
X0007272Y0025806D01*
X0007298Y0025943D01*
X0007327Y0026080D01*
X0007361Y0026216D01*
X0007398Y0026350D01*
X0007440Y0026484D01*
X0007485Y0026617D01*
X0007534Y0026748D01*
X0007586Y0026877D01*
X0007643Y0027006D01*
X0007703Y0027132D01*
X0007766Y0027257D01*
X0007833Y0027379D01*
X0007904Y0027500D01*
X0007978Y0027619D01*
X0008055Y0027736D01*
X0008136Y0027850D01*
X0008220Y0027962D01*
X0008307Y0028072D01*
X0008397Y0028179D01*
X0008490Y0028283D01*
X0008586Y0028385D01*
X0008685Y0028484D01*
X0008787Y0028580D01*
X0008891Y0028673D01*
X0008998Y0028763D01*
X0009108Y0028850D01*
X0009220Y0028934D01*
X0009334Y0029015D01*
X0009451Y0029092D01*
X0009570Y0029166D01*
X0009691Y0029237D01*
X0009813Y0029304D01*
X0009938Y0029367D01*
X0010064Y0029427D01*
X0010193Y0029484D01*
X0010322Y0029536D01*
X0010453Y0029585D01*
X0010586Y0029630D01*
X0010720Y0029672D01*
X0010854Y0029709D01*
X0010990Y0029743D01*
X0011127Y0029772D01*
X0011264Y0029798D01*
X0011403Y0029820D01*
X0011541Y0029838D01*
X0011681Y0029852D01*
X0011820Y0029862D01*
X0011960Y0029868D01*
X0012100Y0029870D01*
X0012240Y0029868D01*
X0012380Y0029862D01*
X0012519Y0029852D01*
X0012659Y0029838D01*
X0012797Y0029820D01*
X0012936Y0029798D01*
X0013073Y0029772D01*
X0013210Y0029743D01*
X0013346Y0029709D01*
X0013480Y0029672D01*
X0013614Y0029630D01*
X0013747Y0029585D01*
X0013878Y0029536D01*
X0014007Y0029484D01*
X0014136Y0029427D01*
X0014262Y0029367D01*
X0014387Y0029304D01*
X0014509Y0029237D01*
X0014630Y0029166D01*
X0014749Y0029092D01*
X0014866Y0029015D01*
X0014980Y0028934D01*
X0015092Y0028850D01*
X0015202Y0028763D01*
X0015309Y0028673D01*
X0015413Y0028580D01*
X0015515Y0028484D01*
X0015614Y0028385D01*
X0015710Y0028283D01*
X0015803Y0028179D01*
X0015893Y0028072D01*
X0015980Y0027962D01*
X0016064Y0027850D01*
X0016145Y0027736D01*
X0016222Y0027619D01*
X0016296Y0027500D01*
X0016367Y0027379D01*
X0016434Y0027257D01*
X0016497Y0027132D01*
X0016557Y0027006D01*
X0016614Y0026877D01*
X0016666Y0026748D01*
X0016715Y0026617D01*
X0016760Y0026484D01*
X0016802Y0026350D01*
X0016839Y0026216D01*
X0016873Y0026080D01*
X0016902Y0025943D01*
X0016928Y0025806D01*
X0016950Y0025667D01*
X0016968Y0025529D01*
X0016982Y0025389D01*
X0016992Y0025250D01*
X0016998Y0025110D01*
X0017000Y0024970D01*
X0016998Y0024830D01*
X0016992Y0024690D01*
X0016982Y0024551D01*
X0016968Y0024411D01*
X0016950Y0024273D01*
X0016928Y0024134D01*
X0016902Y0023997D01*
X0016873Y0023860D01*
X0016839Y0023724D01*
X0016802Y0023590D01*
X0016760Y0023456D01*
X0016715Y0023323D01*
X0016666Y0023192D01*
X0016614Y0023063D01*
X0016557Y0022934D01*
X0016497Y0022808D01*
X0016434Y0022683D01*
X0016367Y0022561D01*
X0016296Y0022440D01*
X0016222Y0022321D01*
X0016145Y0022204D01*
X0016064Y0022090D01*
X0015980Y0021978D01*
X0015893Y0021868D01*
X0015803Y0021761D01*
X0015710Y0021657D01*
X0015614Y0021555D01*
X0015515Y0021456D01*
X0015413Y0021360D01*
X0015309Y0021267D01*
X0015202Y0021177D01*
X0015092Y0021090D01*
X0014980Y0021006D01*
X0014866Y0020925D01*
X0014749Y0020848D01*
X0014630Y0020774D01*
X0014509Y0020703D01*
X0014387Y0020636D01*
X0014262Y0020573D01*
X0014136Y0020513D01*
X0014007Y0020456D01*
X0013878Y0020404D01*
X0013747Y0020355D01*
X0013614Y0020310D01*
X0013480Y0020268D01*
X0013346Y0020231D01*
X0013210Y0020197D01*
X0013073Y0020168D01*
X0012936Y0020142D01*
X0012797Y0020120D01*
X0012659Y0020102D01*
X0012519Y0020088D01*
X0012380Y0020078D01*
X0012240Y0020072D01*
X0012100Y0020070D01*
X0011960Y0020072D01*
X0011820Y0020078D01*
X0011681Y0020088D01*
X0011541Y0020102D01*
X0011403Y0020120D01*
X0011264Y0020142D01*
X0011127Y0020168D01*
X0010990Y0020197D01*
X0010854Y0020231D01*
X0010720Y0020268D01*
X0010586Y0020310D01*
X0010453Y0020355D01*
X0010322Y0020404D01*
X0010193Y0020456D01*
X0010064Y0020513D01*
X0009938Y0020573D01*
X0009813Y0020636D01*
X0009691Y0020703D01*
X0009570Y0020774D01*
X0009451Y0020848D01*
X0009334Y0020925D01*
X0009220Y0021006D01*
X0009108Y0021090D01*
X0008998Y0021177D01*
X0008891Y0021267D01*
X0008787Y0021360D01*
X0008685Y0021456D01*
X0008586Y0021555D01*
X0008490Y0021657D01*
X0008397Y0021761D01*
X0008307Y0021868D01*
X0008220Y0021978D01*
X0008136Y0022090D01*
X0008055Y0022204D01*
X0007978Y0022321D01*
X0007904Y0022440D01*
X0007833Y0022561D01*
X0007766Y0022683D01*
X0007703Y0022808D01*
X0007643Y0022934D01*
X0007586Y0023063D01*
X0007534Y0023192D01*
X0007485Y0023323D01*
X0007440Y0023456D01*
X0007398Y0023590D01*
X0007361Y0023724D01*
X0007327Y0023860D01*
X0007298Y0023997D01*
X0007272Y0024134D01*
X0007250Y0024273D01*
X0007232Y0024411D01*
X0007218Y0024551D01*
X0007208Y0024690D01*
X0007202Y0024830D01*
X0007200Y0024970D01*
X0029038Y0041467D02*
X0029040Y0041551D01*
X0029046Y0041634D01*
X0029056Y0041717D01*
X0029070Y0041800D01*
X0029087Y0041882D01*
X0029109Y0041963D01*
X0029134Y0042042D01*
X0029163Y0042121D01*
X0029196Y0042198D01*
X0029232Y0042273D01*
X0029272Y0042347D01*
X0029315Y0042419D01*
X0029362Y0042488D01*
X0029412Y0042555D01*
X0029465Y0042620D01*
X0029521Y0042682D01*
X0029579Y0042742D01*
X0029641Y0042799D01*
X0029705Y0042852D01*
X0029772Y0042903D01*
X0029841Y0042950D01*
X0029912Y0042995D01*
X0029985Y0043035D01*
X0030060Y0043072D01*
X0030137Y0043106D01*
X0030215Y0043136D01*
X0030294Y0043162D01*
X0030375Y0043185D01*
X0030457Y0043203D01*
X0030539Y0043218D01*
X0030622Y0043229D01*
X0030705Y0043236D01*
X0030789Y0043239D01*
X0030873Y0043238D01*
X0030956Y0043233D01*
X0031040Y0043224D01*
X0031122Y0043211D01*
X0031204Y0043195D01*
X0031285Y0043174D01*
X0031366Y0043150D01*
X0031444Y0043122D01*
X0031522Y0043090D01*
X0031598Y0043054D01*
X0031672Y0043015D01*
X0031744Y0042973D01*
X0031814Y0042927D01*
X0031882Y0042878D01*
X0031947Y0042826D01*
X0032010Y0042771D01*
X0032070Y0042713D01*
X0032128Y0042652D01*
X0032182Y0042588D01*
X0032234Y0042522D01*
X0032282Y0042454D01*
X0032327Y0042383D01*
X0032368Y0042310D01*
X0032407Y0042236D01*
X0032441Y0042160D01*
X0032472Y0042082D01*
X0032499Y0042003D01*
X0032523Y0041922D01*
X0032542Y0041841D01*
X0032558Y0041759D01*
X0032570Y0041676D01*
X0032578Y0041592D01*
X0032582Y0041509D01*
X0032582Y0041425D01*
X0032578Y0041342D01*
X0032570Y0041258D01*
X0032558Y0041175D01*
X0032542Y0041093D01*
X0032523Y0041012D01*
X0032499Y0040931D01*
X0032472Y0040852D01*
X0032441Y0040774D01*
X0032407Y0040698D01*
X0032368Y0040624D01*
X0032327Y0040551D01*
X0032282Y0040480D01*
X0032234Y0040412D01*
X0032182Y0040346D01*
X0032128Y0040282D01*
X0032070Y0040221D01*
X0032010Y0040163D01*
X0031947Y0040108D01*
X0031882Y0040056D01*
X0031814Y0040007D01*
X0031744Y0039961D01*
X0031672Y0039919D01*
X0031598Y0039880D01*
X0031522Y0039844D01*
X0031444Y0039812D01*
X0031366Y0039784D01*
X0031285Y0039760D01*
X0031204Y0039739D01*
X0031122Y0039723D01*
X0031040Y0039710D01*
X0030956Y0039701D01*
X0030873Y0039696D01*
X0030789Y0039695D01*
X0030705Y0039698D01*
X0030622Y0039705D01*
X0030539Y0039716D01*
X0030457Y0039731D01*
X0030375Y0039749D01*
X0030294Y0039772D01*
X0030215Y0039798D01*
X0030137Y0039828D01*
X0030060Y0039862D01*
X0029985Y0039899D01*
X0029912Y0039939D01*
X0029841Y0039984D01*
X0029772Y0040031D01*
X0029705Y0040082D01*
X0029641Y0040135D01*
X0029579Y0040192D01*
X0029521Y0040252D01*
X0029465Y0040314D01*
X0029412Y0040379D01*
X0029362Y0040446D01*
X0029315Y0040515D01*
X0029272Y0040587D01*
X0029232Y0040661D01*
X0029196Y0040736D01*
X0029163Y0040813D01*
X0029134Y0040892D01*
X0029109Y0040971D01*
X0029087Y0041052D01*
X0029070Y0041134D01*
X0029056Y0041217D01*
X0029046Y0041300D01*
X0029040Y0041383D01*
X0029038Y0041467D01*
X0042818Y0041467D02*
X0042820Y0041551D01*
X0042826Y0041634D01*
X0042836Y0041717D01*
X0042850Y0041800D01*
X0042867Y0041882D01*
X0042889Y0041963D01*
X0042914Y0042042D01*
X0042943Y0042121D01*
X0042976Y0042198D01*
X0043012Y0042273D01*
X0043052Y0042347D01*
X0043095Y0042419D01*
X0043142Y0042488D01*
X0043192Y0042555D01*
X0043245Y0042620D01*
X0043301Y0042682D01*
X0043359Y0042742D01*
X0043421Y0042799D01*
X0043485Y0042852D01*
X0043552Y0042903D01*
X0043621Y0042950D01*
X0043692Y0042995D01*
X0043765Y0043035D01*
X0043840Y0043072D01*
X0043917Y0043106D01*
X0043995Y0043136D01*
X0044074Y0043162D01*
X0044155Y0043185D01*
X0044237Y0043203D01*
X0044319Y0043218D01*
X0044402Y0043229D01*
X0044485Y0043236D01*
X0044569Y0043239D01*
X0044653Y0043238D01*
X0044736Y0043233D01*
X0044820Y0043224D01*
X0044902Y0043211D01*
X0044984Y0043195D01*
X0045065Y0043174D01*
X0045146Y0043150D01*
X0045224Y0043122D01*
X0045302Y0043090D01*
X0045378Y0043054D01*
X0045452Y0043015D01*
X0045524Y0042973D01*
X0045594Y0042927D01*
X0045662Y0042878D01*
X0045727Y0042826D01*
X0045790Y0042771D01*
X0045850Y0042713D01*
X0045908Y0042652D01*
X0045962Y0042588D01*
X0046014Y0042522D01*
X0046062Y0042454D01*
X0046107Y0042383D01*
X0046148Y0042310D01*
X0046187Y0042236D01*
X0046221Y0042160D01*
X0046252Y0042082D01*
X0046279Y0042003D01*
X0046303Y0041922D01*
X0046322Y0041841D01*
X0046338Y0041759D01*
X0046350Y0041676D01*
X0046358Y0041592D01*
X0046362Y0041509D01*
X0046362Y0041425D01*
X0046358Y0041342D01*
X0046350Y0041258D01*
X0046338Y0041175D01*
X0046322Y0041093D01*
X0046303Y0041012D01*
X0046279Y0040931D01*
X0046252Y0040852D01*
X0046221Y0040774D01*
X0046187Y0040698D01*
X0046148Y0040624D01*
X0046107Y0040551D01*
X0046062Y0040480D01*
X0046014Y0040412D01*
X0045962Y0040346D01*
X0045908Y0040282D01*
X0045850Y0040221D01*
X0045790Y0040163D01*
X0045727Y0040108D01*
X0045662Y0040056D01*
X0045594Y0040007D01*
X0045524Y0039961D01*
X0045452Y0039919D01*
X0045378Y0039880D01*
X0045302Y0039844D01*
X0045224Y0039812D01*
X0045146Y0039784D01*
X0045065Y0039760D01*
X0044984Y0039739D01*
X0044902Y0039723D01*
X0044820Y0039710D01*
X0044736Y0039701D01*
X0044653Y0039696D01*
X0044569Y0039695D01*
X0044485Y0039698D01*
X0044402Y0039705D01*
X0044319Y0039716D01*
X0044237Y0039731D01*
X0044155Y0039749D01*
X0044074Y0039772D01*
X0043995Y0039798D01*
X0043917Y0039828D01*
X0043840Y0039862D01*
X0043765Y0039899D01*
X0043692Y0039939D01*
X0043621Y0039984D01*
X0043552Y0040031D01*
X0043485Y0040082D01*
X0043421Y0040135D01*
X0043359Y0040192D01*
X0043301Y0040252D01*
X0043245Y0040314D01*
X0043192Y0040379D01*
X0043142Y0040446D01*
X0043095Y0040515D01*
X0043052Y0040587D01*
X0043012Y0040661D01*
X0042976Y0040736D01*
X0042943Y0040813D01*
X0042914Y0040892D01*
X0042889Y0040971D01*
X0042867Y0041052D01*
X0042850Y0041134D01*
X0042836Y0041217D01*
X0042826Y0041300D01*
X0042820Y0041383D01*
X0042818Y0041467D01*
X0193323Y0082841D02*
X0193325Y0082991D01*
X0193331Y0083141D01*
X0193341Y0083291D01*
X0193355Y0083441D01*
X0193373Y0083590D01*
X0193395Y0083739D01*
X0193420Y0083887D01*
X0193450Y0084034D01*
X0193484Y0084181D01*
X0193521Y0084326D01*
X0193562Y0084471D01*
X0193607Y0084614D01*
X0193656Y0084756D01*
X0193709Y0084897D01*
X0193765Y0085036D01*
X0193825Y0085174D01*
X0193889Y0085310D01*
X0193956Y0085445D01*
X0194027Y0085577D01*
X0194101Y0085708D01*
X0194179Y0085837D01*
X0194260Y0085963D01*
X0194345Y0086087D01*
X0194432Y0086210D01*
X0194523Y0086329D01*
X0194617Y0086446D01*
X0194714Y0086561D01*
X0194814Y0086673D01*
X0194918Y0086783D01*
X0195023Y0086889D01*
X0195132Y0086993D01*
X0195244Y0087094D01*
X0195358Y0087192D01*
X0195474Y0087287D01*
X0195593Y0087378D01*
X0195715Y0087467D01*
X0195839Y0087552D01*
X0195965Y0087634D01*
X0196093Y0087712D01*
X0196223Y0087788D01*
X0196355Y0087859D01*
X0196489Y0087927D01*
X0196625Y0087992D01*
X0196762Y0088053D01*
X0196901Y0088110D01*
X0197041Y0088164D01*
X0197183Y0088214D01*
X0197326Y0088260D01*
X0197470Y0088302D01*
X0197616Y0088340D01*
X0197762Y0088375D01*
X0197909Y0088406D01*
X0198057Y0088432D01*
X0198206Y0088455D01*
X0198355Y0088474D01*
X0198504Y0088489D01*
X0198654Y0088500D01*
X0198804Y0088507D01*
X0198954Y0088510D01*
X0199105Y0088509D01*
X0199255Y0088504D01*
X0199405Y0088495D01*
X0199555Y0088482D01*
X0199704Y0088465D01*
X0199853Y0088444D01*
X0200001Y0088419D01*
X0200149Y0088391D01*
X0200295Y0088358D01*
X0200441Y0088322D01*
X0200586Y0088281D01*
X0200730Y0088237D01*
X0200872Y0088189D01*
X0201013Y0088137D01*
X0201153Y0088082D01*
X0201291Y0088023D01*
X0201427Y0087960D01*
X0201562Y0087894D01*
X0201695Y0087824D01*
X0201826Y0087750D01*
X0201956Y0087674D01*
X0202083Y0087593D01*
X0202208Y0087510D01*
X0202330Y0087423D01*
X0202451Y0087333D01*
X0202568Y0087240D01*
X0202684Y0087143D01*
X0202796Y0087044D01*
X0202907Y0086941D01*
X0203014Y0086836D01*
X0203118Y0086728D01*
X0203220Y0086618D01*
X0203319Y0086504D01*
X0203414Y0086388D01*
X0203507Y0086270D01*
X0203596Y0086149D01*
X0203682Y0086026D01*
X0203765Y0085900D01*
X0203844Y0085773D01*
X0203920Y0085643D01*
X0203993Y0085511D01*
X0204062Y0085378D01*
X0204127Y0085242D01*
X0204189Y0085106D01*
X0204247Y0084967D01*
X0204302Y0084827D01*
X0204353Y0084685D01*
X0204400Y0084543D01*
X0204443Y0084399D01*
X0204482Y0084254D01*
X0204518Y0084108D01*
X0204549Y0083961D01*
X0204577Y0083813D01*
X0204601Y0083665D01*
X0204621Y0083516D01*
X0204637Y0083366D01*
X0204649Y0083216D01*
X0204657Y0083066D01*
X0204661Y0082916D01*
X0204661Y0082766D01*
X0204657Y0082616D01*
X0204649Y0082466D01*
X0204637Y0082316D01*
X0204621Y0082166D01*
X0204601Y0082017D01*
X0204577Y0081869D01*
X0204549Y0081721D01*
X0204518Y0081574D01*
X0204482Y0081428D01*
X0204443Y0081283D01*
X0204400Y0081139D01*
X0204353Y0080997D01*
X0204302Y0080855D01*
X0204247Y0080715D01*
X0204189Y0080576D01*
X0204127Y0080440D01*
X0204062Y0080304D01*
X0203993Y0080171D01*
X0203920Y0080039D01*
X0203844Y0079909D01*
X0203765Y0079782D01*
X0203682Y0079656D01*
X0203596Y0079533D01*
X0203507Y0079412D01*
X0203414Y0079294D01*
X0203319Y0079178D01*
X0203220Y0079064D01*
X0203118Y0078954D01*
X0203014Y0078846D01*
X0202907Y0078741D01*
X0202796Y0078638D01*
X0202684Y0078539D01*
X0202568Y0078442D01*
X0202451Y0078349D01*
X0202330Y0078259D01*
X0202208Y0078172D01*
X0202083Y0078089D01*
X0201956Y0078008D01*
X0201827Y0077932D01*
X0201695Y0077858D01*
X0201562Y0077788D01*
X0201427Y0077722D01*
X0201291Y0077659D01*
X0201153Y0077600D01*
X0201013Y0077545D01*
X0200872Y0077493D01*
X0200730Y0077445D01*
X0200586Y0077401D01*
X0200441Y0077360D01*
X0200295Y0077324D01*
X0200149Y0077291D01*
X0200001Y0077263D01*
X0199853Y0077238D01*
X0199704Y0077217D01*
X0199555Y0077200D01*
X0199405Y0077187D01*
X0199255Y0077178D01*
X0199105Y0077173D01*
X0198954Y0077172D01*
X0198804Y0077175D01*
X0198654Y0077182D01*
X0198504Y0077193D01*
X0198355Y0077208D01*
X0198206Y0077227D01*
X0198057Y0077250D01*
X0197909Y0077276D01*
X0197762Y0077307D01*
X0197616Y0077342D01*
X0197470Y0077380D01*
X0197326Y0077422D01*
X0197183Y0077468D01*
X0197041Y0077518D01*
X0196901Y0077572D01*
X0196762Y0077629D01*
X0196625Y0077690D01*
X0196489Y0077755D01*
X0196355Y0077823D01*
X0196223Y0077894D01*
X0196093Y0077970D01*
X0195965Y0078048D01*
X0195839Y0078130D01*
X0195715Y0078215D01*
X0195593Y0078304D01*
X0195474Y0078395D01*
X0195358Y0078490D01*
X0195244Y0078588D01*
X0195132Y0078689D01*
X0195023Y0078793D01*
X0194918Y0078899D01*
X0194814Y0079009D01*
X0194714Y0079121D01*
X0194617Y0079236D01*
X0194523Y0079353D01*
X0194432Y0079472D01*
X0194345Y0079595D01*
X0194260Y0079719D01*
X0194179Y0079845D01*
X0194101Y0079974D01*
X0194027Y0080105D01*
X0193956Y0080237D01*
X0193889Y0080372D01*
X0193825Y0080508D01*
X0193765Y0080646D01*
X0193709Y0080785D01*
X0193656Y0080926D01*
X0193607Y0081068D01*
X0193562Y0081211D01*
X0193521Y0081356D01*
X0193484Y0081501D01*
X0193450Y0081648D01*
X0193420Y0081795D01*
X0193395Y0081943D01*
X0193373Y0082092D01*
X0193355Y0082241D01*
X0193341Y0082391D01*
X0193331Y0082541D01*
X0193325Y0082691D01*
X0193323Y0082841D01*
X0274819Y0082841D02*
X0274821Y0082991D01*
X0274827Y0083141D01*
X0274837Y0083291D01*
X0274851Y0083441D01*
X0274869Y0083590D01*
X0274891Y0083739D01*
X0274916Y0083887D01*
X0274946Y0084034D01*
X0274980Y0084181D01*
X0275017Y0084326D01*
X0275058Y0084471D01*
X0275103Y0084614D01*
X0275152Y0084756D01*
X0275205Y0084897D01*
X0275261Y0085036D01*
X0275321Y0085174D01*
X0275385Y0085310D01*
X0275452Y0085445D01*
X0275523Y0085577D01*
X0275597Y0085708D01*
X0275675Y0085837D01*
X0275756Y0085963D01*
X0275841Y0086087D01*
X0275928Y0086210D01*
X0276019Y0086329D01*
X0276113Y0086446D01*
X0276210Y0086561D01*
X0276310Y0086673D01*
X0276414Y0086783D01*
X0276519Y0086889D01*
X0276628Y0086993D01*
X0276740Y0087094D01*
X0276854Y0087192D01*
X0276970Y0087287D01*
X0277089Y0087378D01*
X0277211Y0087467D01*
X0277335Y0087552D01*
X0277461Y0087634D01*
X0277589Y0087712D01*
X0277719Y0087788D01*
X0277851Y0087859D01*
X0277985Y0087927D01*
X0278121Y0087992D01*
X0278258Y0088053D01*
X0278397Y0088110D01*
X0278537Y0088164D01*
X0278679Y0088214D01*
X0278822Y0088260D01*
X0278966Y0088302D01*
X0279112Y0088340D01*
X0279258Y0088375D01*
X0279405Y0088406D01*
X0279553Y0088432D01*
X0279702Y0088455D01*
X0279851Y0088474D01*
X0280000Y0088489D01*
X0280150Y0088500D01*
X0280300Y0088507D01*
X0280450Y0088510D01*
X0280601Y0088509D01*
X0280751Y0088504D01*
X0280901Y0088495D01*
X0281051Y0088482D01*
X0281200Y0088465D01*
X0281349Y0088444D01*
X0281497Y0088419D01*
X0281645Y0088391D01*
X0281791Y0088358D01*
X0281937Y0088322D01*
X0282082Y0088281D01*
X0282226Y0088237D01*
X0282368Y0088189D01*
X0282509Y0088137D01*
X0282649Y0088082D01*
X0282787Y0088023D01*
X0282923Y0087960D01*
X0283058Y0087894D01*
X0283191Y0087824D01*
X0283322Y0087750D01*
X0283452Y0087674D01*
X0283579Y0087593D01*
X0283704Y0087510D01*
X0283826Y0087423D01*
X0283947Y0087333D01*
X0284064Y0087240D01*
X0284180Y0087143D01*
X0284292Y0087044D01*
X0284403Y0086941D01*
X0284510Y0086836D01*
X0284614Y0086728D01*
X0284716Y0086618D01*
X0284815Y0086504D01*
X0284910Y0086388D01*
X0285003Y0086270D01*
X0285092Y0086149D01*
X0285178Y0086026D01*
X0285261Y0085900D01*
X0285340Y0085773D01*
X0285416Y0085643D01*
X0285489Y0085511D01*
X0285558Y0085378D01*
X0285623Y0085242D01*
X0285685Y0085106D01*
X0285743Y0084967D01*
X0285798Y0084827D01*
X0285849Y0084685D01*
X0285896Y0084543D01*
X0285939Y0084399D01*
X0285978Y0084254D01*
X0286014Y0084108D01*
X0286045Y0083961D01*
X0286073Y0083813D01*
X0286097Y0083665D01*
X0286117Y0083516D01*
X0286133Y0083366D01*
X0286145Y0083216D01*
X0286153Y0083066D01*
X0286157Y0082916D01*
X0286157Y0082766D01*
X0286153Y0082616D01*
X0286145Y0082466D01*
X0286133Y0082316D01*
X0286117Y0082166D01*
X0286097Y0082017D01*
X0286073Y0081869D01*
X0286045Y0081721D01*
X0286014Y0081574D01*
X0285978Y0081428D01*
X0285939Y0081283D01*
X0285896Y0081139D01*
X0285849Y0080997D01*
X0285798Y0080855D01*
X0285743Y0080715D01*
X0285685Y0080576D01*
X0285623Y0080440D01*
X0285558Y0080304D01*
X0285489Y0080171D01*
X0285416Y0080039D01*
X0285340Y0079909D01*
X0285261Y0079782D01*
X0285178Y0079656D01*
X0285092Y0079533D01*
X0285003Y0079412D01*
X0284910Y0079294D01*
X0284815Y0079178D01*
X0284716Y0079064D01*
X0284614Y0078954D01*
X0284510Y0078846D01*
X0284403Y0078741D01*
X0284292Y0078638D01*
X0284180Y0078539D01*
X0284064Y0078442D01*
X0283947Y0078349D01*
X0283826Y0078259D01*
X0283704Y0078172D01*
X0283579Y0078089D01*
X0283452Y0078008D01*
X0283323Y0077932D01*
X0283191Y0077858D01*
X0283058Y0077788D01*
X0282923Y0077722D01*
X0282787Y0077659D01*
X0282649Y0077600D01*
X0282509Y0077545D01*
X0282368Y0077493D01*
X0282226Y0077445D01*
X0282082Y0077401D01*
X0281937Y0077360D01*
X0281791Y0077324D01*
X0281645Y0077291D01*
X0281497Y0077263D01*
X0281349Y0077238D01*
X0281200Y0077217D01*
X0281051Y0077200D01*
X0280901Y0077187D01*
X0280751Y0077178D01*
X0280601Y0077173D01*
X0280450Y0077172D01*
X0280300Y0077175D01*
X0280150Y0077182D01*
X0280000Y0077193D01*
X0279851Y0077208D01*
X0279702Y0077227D01*
X0279553Y0077250D01*
X0279405Y0077276D01*
X0279258Y0077307D01*
X0279112Y0077342D01*
X0278966Y0077380D01*
X0278822Y0077422D01*
X0278679Y0077468D01*
X0278537Y0077518D01*
X0278397Y0077572D01*
X0278258Y0077629D01*
X0278121Y0077690D01*
X0277985Y0077755D01*
X0277851Y0077823D01*
X0277719Y0077894D01*
X0277589Y0077970D01*
X0277461Y0078048D01*
X0277335Y0078130D01*
X0277211Y0078215D01*
X0277089Y0078304D01*
X0276970Y0078395D01*
X0276854Y0078490D01*
X0276740Y0078588D01*
X0276628Y0078689D01*
X0276519Y0078793D01*
X0276414Y0078899D01*
X0276310Y0079009D01*
X0276210Y0079121D01*
X0276113Y0079236D01*
X0276019Y0079353D01*
X0275928Y0079472D01*
X0275841Y0079595D01*
X0275756Y0079719D01*
X0275675Y0079845D01*
X0275597Y0079974D01*
X0275523Y0080105D01*
X0275452Y0080237D01*
X0275385Y0080372D01*
X0275321Y0080508D01*
X0275261Y0080646D01*
X0275205Y0080785D01*
X0275152Y0080926D01*
X0275103Y0081068D01*
X0275058Y0081211D01*
X0275017Y0081356D01*
X0274980Y0081501D01*
X0274946Y0081648D01*
X0274916Y0081795D01*
X0274891Y0081943D01*
X0274869Y0082092D01*
X0274851Y0082241D01*
X0274837Y0082391D01*
X0274827Y0082541D01*
X0274821Y0082691D01*
X0274819Y0082841D01*
X0284100Y0023670D02*
X0284102Y0023823D01*
X0284108Y0023976D01*
X0284118Y0024129D01*
X0284132Y0024282D01*
X0284150Y0024434D01*
X0284171Y0024585D01*
X0284197Y0024736D01*
X0284227Y0024887D01*
X0284260Y0025036D01*
X0284298Y0025185D01*
X0284339Y0025332D01*
X0284384Y0025479D01*
X0284433Y0025624D01*
X0284485Y0025768D01*
X0284542Y0025910D01*
X0284602Y0026051D01*
X0284665Y0026190D01*
X0284733Y0026328D01*
X0284803Y0026464D01*
X0284878Y0026598D01*
X0284955Y0026730D01*
X0285037Y0026860D01*
X0285121Y0026988D01*
X0285209Y0027113D01*
X0285300Y0027236D01*
X0285394Y0027357D01*
X0285491Y0027475D01*
X0285592Y0027591D01*
X0285695Y0027704D01*
X0285801Y0027815D01*
X0285910Y0027922D01*
X0286022Y0028027D01*
X0286136Y0028129D01*
X0286253Y0028228D01*
X0286373Y0028323D01*
X0286495Y0028416D01*
X0286619Y0028505D01*
X0286746Y0028592D01*
X0286875Y0028674D01*
X0287006Y0028754D01*
X0287139Y0028830D01*
X0287274Y0028902D01*
X0287411Y0028971D01*
X0287549Y0029037D01*
X0287689Y0029099D01*
X0287831Y0029157D01*
X0287974Y0029211D01*
X0288119Y0029262D01*
X0288264Y0029309D01*
X0288411Y0029352D01*
X0288559Y0029391D01*
X0288708Y0029427D01*
X0288858Y0029458D01*
X0289009Y0029486D01*
X0289160Y0029510D01*
X0289312Y0029530D01*
X0289465Y0029546D01*
X0289617Y0029558D01*
X0289770Y0029566D01*
X0289923Y0029570D01*
X0290077Y0029570D01*
X0290230Y0029566D01*
X0290383Y0029558D01*
X0290535Y0029546D01*
X0290688Y0029530D01*
X0290840Y0029510D01*
X0290991Y0029486D01*
X0291142Y0029458D01*
X0291292Y0029427D01*
X0291441Y0029391D01*
X0291589Y0029352D01*
X0291736Y0029309D01*
X0291881Y0029262D01*
X0292026Y0029211D01*
X0292169Y0029157D01*
X0292311Y0029099D01*
X0292451Y0029037D01*
X0292589Y0028971D01*
X0292726Y0028902D01*
X0292861Y0028830D01*
X0292994Y0028754D01*
X0293125Y0028674D01*
X0293254Y0028592D01*
X0293381Y0028505D01*
X0293505Y0028416D01*
X0293627Y0028323D01*
X0293747Y0028228D01*
X0293864Y0028129D01*
X0293978Y0028027D01*
X0294090Y0027922D01*
X0294199Y0027815D01*
X0294305Y0027704D01*
X0294408Y0027591D01*
X0294509Y0027475D01*
X0294606Y0027357D01*
X0294700Y0027236D01*
X0294791Y0027113D01*
X0294879Y0026988D01*
X0294963Y0026860D01*
X0295045Y0026730D01*
X0295122Y0026598D01*
X0295197Y0026464D01*
X0295267Y0026328D01*
X0295335Y0026190D01*
X0295398Y0026051D01*
X0295458Y0025910D01*
X0295515Y0025768D01*
X0295567Y0025624D01*
X0295616Y0025479D01*
X0295661Y0025332D01*
X0295702Y0025185D01*
X0295740Y0025036D01*
X0295773Y0024887D01*
X0295803Y0024736D01*
X0295829Y0024585D01*
X0295850Y0024434D01*
X0295868Y0024282D01*
X0295882Y0024129D01*
X0295892Y0023976D01*
X0295898Y0023823D01*
X0295900Y0023670D01*
X0295898Y0023517D01*
X0295892Y0023364D01*
X0295882Y0023211D01*
X0295868Y0023058D01*
X0295850Y0022906D01*
X0295829Y0022755D01*
X0295803Y0022604D01*
X0295773Y0022453D01*
X0295740Y0022304D01*
X0295702Y0022155D01*
X0295661Y0022008D01*
X0295616Y0021861D01*
X0295567Y0021716D01*
X0295515Y0021572D01*
X0295458Y0021430D01*
X0295398Y0021289D01*
X0295335Y0021150D01*
X0295267Y0021012D01*
X0295197Y0020876D01*
X0295122Y0020742D01*
X0295045Y0020610D01*
X0294963Y0020480D01*
X0294879Y0020352D01*
X0294791Y0020227D01*
X0294700Y0020104D01*
X0294606Y0019983D01*
X0294509Y0019865D01*
X0294408Y0019749D01*
X0294305Y0019636D01*
X0294199Y0019525D01*
X0294090Y0019418D01*
X0293978Y0019313D01*
X0293864Y0019211D01*
X0293747Y0019112D01*
X0293627Y0019017D01*
X0293505Y0018924D01*
X0293381Y0018835D01*
X0293254Y0018748D01*
X0293125Y0018666D01*
X0292994Y0018586D01*
X0292861Y0018510D01*
X0292726Y0018438D01*
X0292589Y0018369D01*
X0292451Y0018303D01*
X0292311Y0018241D01*
X0292169Y0018183D01*
X0292026Y0018129D01*
X0291881Y0018078D01*
X0291736Y0018031D01*
X0291589Y0017988D01*
X0291441Y0017949D01*
X0291292Y0017913D01*
X0291142Y0017882D01*
X0290991Y0017854D01*
X0290840Y0017830D01*
X0290688Y0017810D01*
X0290535Y0017794D01*
X0290383Y0017782D01*
X0290230Y0017774D01*
X0290077Y0017770D01*
X0289923Y0017770D01*
X0289770Y0017774D01*
X0289617Y0017782D01*
X0289465Y0017794D01*
X0289312Y0017810D01*
X0289160Y0017830D01*
X0289009Y0017854D01*
X0288858Y0017882D01*
X0288708Y0017913D01*
X0288559Y0017949D01*
X0288411Y0017988D01*
X0288264Y0018031D01*
X0288119Y0018078D01*
X0287974Y0018129D01*
X0287831Y0018183D01*
X0287689Y0018241D01*
X0287549Y0018303D01*
X0287411Y0018369D01*
X0287274Y0018438D01*
X0287139Y0018510D01*
X0287006Y0018586D01*
X0286875Y0018666D01*
X0286746Y0018748D01*
X0286619Y0018835D01*
X0286495Y0018924D01*
X0286373Y0019017D01*
X0286253Y0019112D01*
X0286136Y0019211D01*
X0286022Y0019313D01*
X0285910Y0019418D01*
X0285801Y0019525D01*
X0285695Y0019636D01*
X0285592Y0019749D01*
X0285491Y0019865D01*
X0285394Y0019983D01*
X0285300Y0020104D01*
X0285209Y0020227D01*
X0285121Y0020352D01*
X0285037Y0020480D01*
X0284955Y0020610D01*
X0284878Y0020742D01*
X0284803Y0020876D01*
X0284733Y0021012D01*
X0284665Y0021150D01*
X0284602Y0021289D01*
X0284542Y0021430D01*
X0284485Y0021572D01*
X0284433Y0021716D01*
X0284384Y0021861D01*
X0284339Y0022008D01*
X0284298Y0022155D01*
X0284260Y0022304D01*
X0284227Y0022453D01*
X0284197Y0022604D01*
X0284171Y0022755D01*
X0284150Y0022906D01*
X0284132Y0023058D01*
X0284118Y0023211D01*
X0284108Y0023364D01*
X0284102Y0023517D01*
X0284100Y0023670D01*
X0275100Y0156170D02*
X0275102Y0156323D01*
X0275108Y0156476D01*
X0275118Y0156629D01*
X0275132Y0156782D01*
X0275150Y0156934D01*
X0275171Y0157085D01*
X0275197Y0157236D01*
X0275227Y0157387D01*
X0275260Y0157536D01*
X0275298Y0157685D01*
X0275339Y0157832D01*
X0275384Y0157979D01*
X0275433Y0158124D01*
X0275485Y0158268D01*
X0275542Y0158410D01*
X0275602Y0158551D01*
X0275665Y0158690D01*
X0275733Y0158828D01*
X0275803Y0158964D01*
X0275878Y0159098D01*
X0275955Y0159230D01*
X0276037Y0159360D01*
X0276121Y0159488D01*
X0276209Y0159613D01*
X0276300Y0159736D01*
X0276394Y0159857D01*
X0276491Y0159975D01*
X0276592Y0160091D01*
X0276695Y0160204D01*
X0276801Y0160315D01*
X0276910Y0160422D01*
X0277022Y0160527D01*
X0277136Y0160629D01*
X0277253Y0160728D01*
X0277373Y0160823D01*
X0277495Y0160916D01*
X0277619Y0161005D01*
X0277746Y0161092D01*
X0277875Y0161174D01*
X0278006Y0161254D01*
X0278139Y0161330D01*
X0278274Y0161402D01*
X0278411Y0161471D01*
X0278549Y0161537D01*
X0278689Y0161599D01*
X0278831Y0161657D01*
X0278974Y0161711D01*
X0279119Y0161762D01*
X0279264Y0161809D01*
X0279411Y0161852D01*
X0279559Y0161891D01*
X0279708Y0161927D01*
X0279858Y0161958D01*
X0280009Y0161986D01*
X0280160Y0162010D01*
X0280312Y0162030D01*
X0280465Y0162046D01*
X0280617Y0162058D01*
X0280770Y0162066D01*
X0280923Y0162070D01*
X0281077Y0162070D01*
X0281230Y0162066D01*
X0281383Y0162058D01*
X0281535Y0162046D01*
X0281688Y0162030D01*
X0281840Y0162010D01*
X0281991Y0161986D01*
X0282142Y0161958D01*
X0282292Y0161927D01*
X0282441Y0161891D01*
X0282589Y0161852D01*
X0282736Y0161809D01*
X0282881Y0161762D01*
X0283026Y0161711D01*
X0283169Y0161657D01*
X0283311Y0161599D01*
X0283451Y0161537D01*
X0283589Y0161471D01*
X0283726Y0161402D01*
X0283861Y0161330D01*
X0283994Y0161254D01*
X0284125Y0161174D01*
X0284254Y0161092D01*
X0284381Y0161005D01*
X0284505Y0160916D01*
X0284627Y0160823D01*
X0284747Y0160728D01*
X0284864Y0160629D01*
X0284978Y0160527D01*
X0285090Y0160422D01*
X0285199Y0160315D01*
X0285305Y0160204D01*
X0285408Y0160091D01*
X0285509Y0159975D01*
X0285606Y0159857D01*
X0285700Y0159736D01*
X0285791Y0159613D01*
X0285879Y0159488D01*
X0285963Y0159360D01*
X0286045Y0159230D01*
X0286122Y0159098D01*
X0286197Y0158964D01*
X0286267Y0158828D01*
X0286335Y0158690D01*
X0286398Y0158551D01*
X0286458Y0158410D01*
X0286515Y0158268D01*
X0286567Y0158124D01*
X0286616Y0157979D01*
X0286661Y0157832D01*
X0286702Y0157685D01*
X0286740Y0157536D01*
X0286773Y0157387D01*
X0286803Y0157236D01*
X0286829Y0157085D01*
X0286850Y0156934D01*
X0286868Y0156782D01*
X0286882Y0156629D01*
X0286892Y0156476D01*
X0286898Y0156323D01*
X0286900Y0156170D01*
X0286898Y0156017D01*
X0286892Y0155864D01*
X0286882Y0155711D01*
X0286868Y0155558D01*
X0286850Y0155406D01*
X0286829Y0155255D01*
X0286803Y0155104D01*
X0286773Y0154953D01*
X0286740Y0154804D01*
X0286702Y0154655D01*
X0286661Y0154508D01*
X0286616Y0154361D01*
X0286567Y0154216D01*
X0286515Y0154072D01*
X0286458Y0153930D01*
X0286398Y0153789D01*
X0286335Y0153650D01*
X0286267Y0153512D01*
X0286197Y0153376D01*
X0286122Y0153242D01*
X0286045Y0153110D01*
X0285963Y0152980D01*
X0285879Y0152852D01*
X0285791Y0152727D01*
X0285700Y0152604D01*
X0285606Y0152483D01*
X0285509Y0152365D01*
X0285408Y0152249D01*
X0285305Y0152136D01*
X0285199Y0152025D01*
X0285090Y0151918D01*
X0284978Y0151813D01*
X0284864Y0151711D01*
X0284747Y0151612D01*
X0284627Y0151517D01*
X0284505Y0151424D01*
X0284381Y0151335D01*
X0284254Y0151248D01*
X0284125Y0151166D01*
X0283994Y0151086D01*
X0283861Y0151010D01*
X0283726Y0150938D01*
X0283589Y0150869D01*
X0283451Y0150803D01*
X0283311Y0150741D01*
X0283169Y0150683D01*
X0283026Y0150629D01*
X0282881Y0150578D01*
X0282736Y0150531D01*
X0282589Y0150488D01*
X0282441Y0150449D01*
X0282292Y0150413D01*
X0282142Y0150382D01*
X0281991Y0150354D01*
X0281840Y0150330D01*
X0281688Y0150310D01*
X0281535Y0150294D01*
X0281383Y0150282D01*
X0281230Y0150274D01*
X0281077Y0150270D01*
X0280923Y0150270D01*
X0280770Y0150274D01*
X0280617Y0150282D01*
X0280465Y0150294D01*
X0280312Y0150310D01*
X0280160Y0150330D01*
X0280009Y0150354D01*
X0279858Y0150382D01*
X0279708Y0150413D01*
X0279559Y0150449D01*
X0279411Y0150488D01*
X0279264Y0150531D01*
X0279119Y0150578D01*
X0278974Y0150629D01*
X0278831Y0150683D01*
X0278689Y0150741D01*
X0278549Y0150803D01*
X0278411Y0150869D01*
X0278274Y0150938D01*
X0278139Y0151010D01*
X0278006Y0151086D01*
X0277875Y0151166D01*
X0277746Y0151248D01*
X0277619Y0151335D01*
X0277495Y0151424D01*
X0277373Y0151517D01*
X0277253Y0151612D01*
X0277136Y0151711D01*
X0277022Y0151813D01*
X0276910Y0151918D01*
X0276801Y0152025D01*
X0276695Y0152136D01*
X0276592Y0152249D01*
X0276491Y0152365D01*
X0276394Y0152483D01*
X0276300Y0152604D01*
X0276209Y0152727D01*
X0276121Y0152852D01*
X0276037Y0152980D01*
X0275955Y0153110D01*
X0275878Y0153242D01*
X0275803Y0153376D01*
X0275733Y0153512D01*
X0275665Y0153650D01*
X0275602Y0153789D01*
X0275542Y0153930D01*
X0275485Y0154072D01*
X0275433Y0154216D01*
X0275384Y0154361D01*
X0275339Y0154508D01*
X0275298Y0154655D01*
X0275260Y0154804D01*
X0275227Y0154953D01*
X0275197Y0155104D01*
X0275171Y0155255D01*
X0275150Y0155406D01*
X0275132Y0155558D01*
X0275118Y0155711D01*
X0275108Y0155864D01*
X0275102Y0156017D01*
X0275100Y0156170D01*
X0274819Y0174180D02*
X0274821Y0174330D01*
X0274827Y0174480D01*
X0274837Y0174630D01*
X0274851Y0174780D01*
X0274869Y0174929D01*
X0274891Y0175078D01*
X0274916Y0175226D01*
X0274946Y0175373D01*
X0274980Y0175520D01*
X0275017Y0175665D01*
X0275058Y0175810D01*
X0275103Y0175953D01*
X0275152Y0176095D01*
X0275205Y0176236D01*
X0275261Y0176375D01*
X0275321Y0176513D01*
X0275385Y0176649D01*
X0275452Y0176784D01*
X0275523Y0176916D01*
X0275597Y0177047D01*
X0275675Y0177176D01*
X0275756Y0177302D01*
X0275841Y0177426D01*
X0275928Y0177549D01*
X0276019Y0177668D01*
X0276113Y0177785D01*
X0276210Y0177900D01*
X0276310Y0178012D01*
X0276414Y0178122D01*
X0276519Y0178228D01*
X0276628Y0178332D01*
X0276740Y0178433D01*
X0276854Y0178531D01*
X0276970Y0178626D01*
X0277089Y0178717D01*
X0277211Y0178806D01*
X0277335Y0178891D01*
X0277461Y0178973D01*
X0277589Y0179051D01*
X0277719Y0179127D01*
X0277851Y0179198D01*
X0277985Y0179266D01*
X0278121Y0179331D01*
X0278258Y0179392D01*
X0278397Y0179449D01*
X0278537Y0179503D01*
X0278679Y0179553D01*
X0278822Y0179599D01*
X0278966Y0179641D01*
X0279112Y0179679D01*
X0279258Y0179714D01*
X0279405Y0179745D01*
X0279553Y0179771D01*
X0279702Y0179794D01*
X0279851Y0179813D01*
X0280000Y0179828D01*
X0280150Y0179839D01*
X0280300Y0179846D01*
X0280450Y0179849D01*
X0280601Y0179848D01*
X0280751Y0179843D01*
X0280901Y0179834D01*
X0281051Y0179821D01*
X0281200Y0179804D01*
X0281349Y0179783D01*
X0281497Y0179758D01*
X0281645Y0179730D01*
X0281791Y0179697D01*
X0281937Y0179661D01*
X0282082Y0179620D01*
X0282226Y0179576D01*
X0282368Y0179528D01*
X0282509Y0179476D01*
X0282649Y0179421D01*
X0282787Y0179362D01*
X0282923Y0179299D01*
X0283058Y0179233D01*
X0283191Y0179163D01*
X0283322Y0179089D01*
X0283452Y0179013D01*
X0283579Y0178932D01*
X0283704Y0178849D01*
X0283826Y0178762D01*
X0283947Y0178672D01*
X0284064Y0178579D01*
X0284180Y0178482D01*
X0284292Y0178383D01*
X0284403Y0178280D01*
X0284510Y0178175D01*
X0284614Y0178067D01*
X0284716Y0177957D01*
X0284815Y0177843D01*
X0284910Y0177727D01*
X0285003Y0177609D01*
X0285092Y0177488D01*
X0285178Y0177365D01*
X0285261Y0177239D01*
X0285340Y0177112D01*
X0285416Y0176982D01*
X0285489Y0176850D01*
X0285558Y0176717D01*
X0285623Y0176581D01*
X0285685Y0176445D01*
X0285743Y0176306D01*
X0285798Y0176166D01*
X0285849Y0176024D01*
X0285896Y0175882D01*
X0285939Y0175738D01*
X0285978Y0175593D01*
X0286014Y0175447D01*
X0286045Y0175300D01*
X0286073Y0175152D01*
X0286097Y0175004D01*
X0286117Y0174855D01*
X0286133Y0174705D01*
X0286145Y0174555D01*
X0286153Y0174405D01*
X0286157Y0174255D01*
X0286157Y0174105D01*
X0286153Y0173955D01*
X0286145Y0173805D01*
X0286133Y0173655D01*
X0286117Y0173505D01*
X0286097Y0173356D01*
X0286073Y0173208D01*
X0286045Y0173060D01*
X0286014Y0172913D01*
X0285978Y0172767D01*
X0285939Y0172622D01*
X0285896Y0172478D01*
X0285849Y0172336D01*
X0285798Y0172194D01*
X0285743Y0172054D01*
X0285685Y0171915D01*
X0285623Y0171779D01*
X0285558Y0171643D01*
X0285489Y0171510D01*
X0285416Y0171378D01*
X0285340Y0171248D01*
X0285261Y0171121D01*
X0285178Y0170995D01*
X0285092Y0170872D01*
X0285003Y0170751D01*
X0284910Y0170633D01*
X0284815Y0170517D01*
X0284716Y0170403D01*
X0284614Y0170293D01*
X0284510Y0170185D01*
X0284403Y0170080D01*
X0284292Y0169977D01*
X0284180Y0169878D01*
X0284064Y0169781D01*
X0283947Y0169688D01*
X0283826Y0169598D01*
X0283704Y0169511D01*
X0283579Y0169428D01*
X0283452Y0169347D01*
X0283323Y0169271D01*
X0283191Y0169197D01*
X0283058Y0169127D01*
X0282923Y0169061D01*
X0282787Y0168998D01*
X0282649Y0168939D01*
X0282509Y0168884D01*
X0282368Y0168832D01*
X0282226Y0168784D01*
X0282082Y0168740D01*
X0281937Y0168699D01*
X0281791Y0168663D01*
X0281645Y0168630D01*
X0281497Y0168602D01*
X0281349Y0168577D01*
X0281200Y0168556D01*
X0281051Y0168539D01*
X0280901Y0168526D01*
X0280751Y0168517D01*
X0280601Y0168512D01*
X0280450Y0168511D01*
X0280300Y0168514D01*
X0280150Y0168521D01*
X0280000Y0168532D01*
X0279851Y0168547D01*
X0279702Y0168566D01*
X0279553Y0168589D01*
X0279405Y0168615D01*
X0279258Y0168646D01*
X0279112Y0168681D01*
X0278966Y0168719D01*
X0278822Y0168761D01*
X0278679Y0168807D01*
X0278537Y0168857D01*
X0278397Y0168911D01*
X0278258Y0168968D01*
X0278121Y0169029D01*
X0277985Y0169094D01*
X0277851Y0169162D01*
X0277719Y0169233D01*
X0277589Y0169309D01*
X0277461Y0169387D01*
X0277335Y0169469D01*
X0277211Y0169554D01*
X0277089Y0169643D01*
X0276970Y0169734D01*
X0276854Y0169829D01*
X0276740Y0169927D01*
X0276628Y0170028D01*
X0276519Y0170132D01*
X0276414Y0170238D01*
X0276310Y0170348D01*
X0276210Y0170460D01*
X0276113Y0170575D01*
X0276019Y0170692D01*
X0275928Y0170811D01*
X0275841Y0170934D01*
X0275756Y0171058D01*
X0275675Y0171184D01*
X0275597Y0171313D01*
X0275523Y0171444D01*
X0275452Y0171576D01*
X0275385Y0171711D01*
X0275321Y0171847D01*
X0275261Y0171985D01*
X0275205Y0172124D01*
X0275152Y0172265D01*
X0275103Y0172407D01*
X0275058Y0172550D01*
X0275017Y0172695D01*
X0274980Y0172840D01*
X0274946Y0172987D01*
X0274916Y0173134D01*
X0274891Y0173282D01*
X0274869Y0173431D01*
X0274851Y0173580D01*
X0274837Y0173730D01*
X0274827Y0173880D01*
X0274821Y0174030D01*
X0274819Y0174180D01*
X0193323Y0174180D02*
X0193325Y0174330D01*
X0193331Y0174480D01*
X0193341Y0174630D01*
X0193355Y0174780D01*
X0193373Y0174929D01*
X0193395Y0175078D01*
X0193420Y0175226D01*
X0193450Y0175373D01*
X0193484Y0175520D01*
X0193521Y0175665D01*
X0193562Y0175810D01*
X0193607Y0175953D01*
X0193656Y0176095D01*
X0193709Y0176236D01*
X0193765Y0176375D01*
X0193825Y0176513D01*
X0193889Y0176649D01*
X0193956Y0176784D01*
X0194027Y0176916D01*
X0194101Y0177047D01*
X0194179Y0177176D01*
X0194260Y0177302D01*
X0194345Y0177426D01*
X0194432Y0177549D01*
X0194523Y0177668D01*
X0194617Y0177785D01*
X0194714Y0177900D01*
X0194814Y0178012D01*
X0194918Y0178122D01*
X0195023Y0178228D01*
X0195132Y0178332D01*
X0195244Y0178433D01*
X0195358Y0178531D01*
X0195474Y0178626D01*
X0195593Y0178717D01*
X0195715Y0178806D01*
X0195839Y0178891D01*
X0195965Y0178973D01*
X0196093Y0179051D01*
X0196223Y0179127D01*
X0196355Y0179198D01*
X0196489Y0179266D01*
X0196625Y0179331D01*
X0196762Y0179392D01*
X0196901Y0179449D01*
X0197041Y0179503D01*
X0197183Y0179553D01*
X0197326Y0179599D01*
X0197470Y0179641D01*
X0197616Y0179679D01*
X0197762Y0179714D01*
X0197909Y0179745D01*
X0198057Y0179771D01*
X0198206Y0179794D01*
X0198355Y0179813D01*
X0198504Y0179828D01*
X0198654Y0179839D01*
X0198804Y0179846D01*
X0198954Y0179849D01*
X0199105Y0179848D01*
X0199255Y0179843D01*
X0199405Y0179834D01*
X0199555Y0179821D01*
X0199704Y0179804D01*
X0199853Y0179783D01*
X0200001Y0179758D01*
X0200149Y0179730D01*
X0200295Y0179697D01*
X0200441Y0179661D01*
X0200586Y0179620D01*
X0200730Y0179576D01*
X0200872Y0179528D01*
X0201013Y0179476D01*
X0201153Y0179421D01*
X0201291Y0179362D01*
X0201427Y0179299D01*
X0201562Y0179233D01*
X0201695Y0179163D01*
X0201826Y0179089D01*
X0201956Y0179013D01*
X0202083Y0178932D01*
X0202208Y0178849D01*
X0202330Y0178762D01*
X0202451Y0178672D01*
X0202568Y0178579D01*
X0202684Y0178482D01*
X0202796Y0178383D01*
X0202907Y0178280D01*
X0203014Y0178175D01*
X0203118Y0178067D01*
X0203220Y0177957D01*
X0203319Y0177843D01*
X0203414Y0177727D01*
X0203507Y0177609D01*
X0203596Y0177488D01*
X0203682Y0177365D01*
X0203765Y0177239D01*
X0203844Y0177112D01*
X0203920Y0176982D01*
X0203993Y0176850D01*
X0204062Y0176717D01*
X0204127Y0176581D01*
X0204189Y0176445D01*
X0204247Y0176306D01*
X0204302Y0176166D01*
X0204353Y0176024D01*
X0204400Y0175882D01*
X0204443Y0175738D01*
X0204482Y0175593D01*
X0204518Y0175447D01*
X0204549Y0175300D01*
X0204577Y0175152D01*
X0204601Y0175004D01*
X0204621Y0174855D01*
X0204637Y0174705D01*
X0204649Y0174555D01*
X0204657Y0174405D01*
X0204661Y0174255D01*
X0204661Y0174105D01*
X0204657Y0173955D01*
X0204649Y0173805D01*
X0204637Y0173655D01*
X0204621Y0173505D01*
X0204601Y0173356D01*
X0204577Y0173208D01*
X0204549Y0173060D01*
X0204518Y0172913D01*
X0204482Y0172767D01*
X0204443Y0172622D01*
X0204400Y0172478D01*
X0204353Y0172336D01*
X0204302Y0172194D01*
X0204247Y0172054D01*
X0204189Y0171915D01*
X0204127Y0171779D01*
X0204062Y0171643D01*
X0203993Y0171510D01*
X0203920Y0171378D01*
X0203844Y0171248D01*
X0203765Y0171121D01*
X0203682Y0170995D01*
X0203596Y0170872D01*
X0203507Y0170751D01*
X0203414Y0170633D01*
X0203319Y0170517D01*
X0203220Y0170403D01*
X0203118Y0170293D01*
X0203014Y0170185D01*
X0202907Y0170080D01*
X0202796Y0169977D01*
X0202684Y0169878D01*
X0202568Y0169781D01*
X0202451Y0169688D01*
X0202330Y0169598D01*
X0202208Y0169511D01*
X0202083Y0169428D01*
X0201956Y0169347D01*
X0201827Y0169271D01*
X0201695Y0169197D01*
X0201562Y0169127D01*
X0201427Y0169061D01*
X0201291Y0168998D01*
X0201153Y0168939D01*
X0201013Y0168884D01*
X0200872Y0168832D01*
X0200730Y0168784D01*
X0200586Y0168740D01*
X0200441Y0168699D01*
X0200295Y0168663D01*
X0200149Y0168630D01*
X0200001Y0168602D01*
X0199853Y0168577D01*
X0199704Y0168556D01*
X0199555Y0168539D01*
X0199405Y0168526D01*
X0199255Y0168517D01*
X0199105Y0168512D01*
X0198954Y0168511D01*
X0198804Y0168514D01*
X0198654Y0168521D01*
X0198504Y0168532D01*
X0198355Y0168547D01*
X0198206Y0168566D01*
X0198057Y0168589D01*
X0197909Y0168615D01*
X0197762Y0168646D01*
X0197616Y0168681D01*
X0197470Y0168719D01*
X0197326Y0168761D01*
X0197183Y0168807D01*
X0197041Y0168857D01*
X0196901Y0168911D01*
X0196762Y0168968D01*
X0196625Y0169029D01*
X0196489Y0169094D01*
X0196355Y0169162D01*
X0196223Y0169233D01*
X0196093Y0169309D01*
X0195965Y0169387D01*
X0195839Y0169469D01*
X0195715Y0169554D01*
X0195593Y0169643D01*
X0195474Y0169734D01*
X0195358Y0169829D01*
X0195244Y0169927D01*
X0195132Y0170028D01*
X0195023Y0170132D01*
X0194918Y0170238D01*
X0194814Y0170348D01*
X0194714Y0170460D01*
X0194617Y0170575D01*
X0194523Y0170692D01*
X0194432Y0170811D01*
X0194345Y0170934D01*
X0194260Y0171058D01*
X0194179Y0171184D01*
X0194101Y0171313D01*
X0194027Y0171444D01*
X0193956Y0171576D01*
X0193889Y0171711D01*
X0193825Y0171847D01*
X0193765Y0171985D01*
X0193709Y0172124D01*
X0193656Y0172265D01*
X0193607Y0172407D01*
X0193562Y0172550D01*
X0193521Y0172695D01*
X0193484Y0172840D01*
X0193450Y0172987D01*
X0193420Y0173134D01*
X0193395Y0173282D01*
X0193373Y0173431D01*
X0193355Y0173580D01*
X0193341Y0173730D01*
X0193331Y0173880D01*
X0193325Y0174030D01*
X0193323Y0174180D01*
X0006400Y0174170D02*
X0006402Y0174323D01*
X0006408Y0174476D01*
X0006418Y0174629D01*
X0006432Y0174782D01*
X0006450Y0174934D01*
X0006471Y0175085D01*
X0006497Y0175236D01*
X0006527Y0175387D01*
X0006560Y0175536D01*
X0006598Y0175685D01*
X0006639Y0175832D01*
X0006684Y0175979D01*
X0006733Y0176124D01*
X0006785Y0176268D01*
X0006842Y0176410D01*
X0006902Y0176551D01*
X0006965Y0176690D01*
X0007033Y0176828D01*
X0007103Y0176964D01*
X0007178Y0177098D01*
X0007255Y0177230D01*
X0007337Y0177360D01*
X0007421Y0177488D01*
X0007509Y0177613D01*
X0007600Y0177736D01*
X0007694Y0177857D01*
X0007791Y0177975D01*
X0007892Y0178091D01*
X0007995Y0178204D01*
X0008101Y0178315D01*
X0008210Y0178422D01*
X0008322Y0178527D01*
X0008436Y0178629D01*
X0008553Y0178728D01*
X0008673Y0178823D01*
X0008795Y0178916D01*
X0008919Y0179005D01*
X0009046Y0179092D01*
X0009175Y0179174D01*
X0009306Y0179254D01*
X0009439Y0179330D01*
X0009574Y0179402D01*
X0009711Y0179471D01*
X0009849Y0179537D01*
X0009989Y0179599D01*
X0010131Y0179657D01*
X0010274Y0179711D01*
X0010419Y0179762D01*
X0010564Y0179809D01*
X0010711Y0179852D01*
X0010859Y0179891D01*
X0011008Y0179927D01*
X0011158Y0179958D01*
X0011309Y0179986D01*
X0011460Y0180010D01*
X0011612Y0180030D01*
X0011765Y0180046D01*
X0011917Y0180058D01*
X0012070Y0180066D01*
X0012223Y0180070D01*
X0012377Y0180070D01*
X0012530Y0180066D01*
X0012683Y0180058D01*
X0012835Y0180046D01*
X0012988Y0180030D01*
X0013140Y0180010D01*
X0013291Y0179986D01*
X0013442Y0179958D01*
X0013592Y0179927D01*
X0013741Y0179891D01*
X0013889Y0179852D01*
X0014036Y0179809D01*
X0014181Y0179762D01*
X0014326Y0179711D01*
X0014469Y0179657D01*
X0014611Y0179599D01*
X0014751Y0179537D01*
X0014889Y0179471D01*
X0015026Y0179402D01*
X0015161Y0179330D01*
X0015294Y0179254D01*
X0015425Y0179174D01*
X0015554Y0179092D01*
X0015681Y0179005D01*
X0015805Y0178916D01*
X0015927Y0178823D01*
X0016047Y0178728D01*
X0016164Y0178629D01*
X0016278Y0178527D01*
X0016390Y0178422D01*
X0016499Y0178315D01*
X0016605Y0178204D01*
X0016708Y0178091D01*
X0016809Y0177975D01*
X0016906Y0177857D01*
X0017000Y0177736D01*
X0017091Y0177613D01*
X0017179Y0177488D01*
X0017263Y0177360D01*
X0017345Y0177230D01*
X0017422Y0177098D01*
X0017497Y0176964D01*
X0017567Y0176828D01*
X0017635Y0176690D01*
X0017698Y0176551D01*
X0017758Y0176410D01*
X0017815Y0176268D01*
X0017867Y0176124D01*
X0017916Y0175979D01*
X0017961Y0175832D01*
X0018002Y0175685D01*
X0018040Y0175536D01*
X0018073Y0175387D01*
X0018103Y0175236D01*
X0018129Y0175085D01*
X0018150Y0174934D01*
X0018168Y0174782D01*
X0018182Y0174629D01*
X0018192Y0174476D01*
X0018198Y0174323D01*
X0018200Y0174170D01*
X0018198Y0174017D01*
X0018192Y0173864D01*
X0018182Y0173711D01*
X0018168Y0173558D01*
X0018150Y0173406D01*
X0018129Y0173255D01*
X0018103Y0173104D01*
X0018073Y0172953D01*
X0018040Y0172804D01*
X0018002Y0172655D01*
X0017961Y0172508D01*
X0017916Y0172361D01*
X0017867Y0172216D01*
X0017815Y0172072D01*
X0017758Y0171930D01*
X0017698Y0171789D01*
X0017635Y0171650D01*
X0017567Y0171512D01*
X0017497Y0171376D01*
X0017422Y0171242D01*
X0017345Y0171110D01*
X0017263Y0170980D01*
X0017179Y0170852D01*
X0017091Y0170727D01*
X0017000Y0170604D01*
X0016906Y0170483D01*
X0016809Y0170365D01*
X0016708Y0170249D01*
X0016605Y0170136D01*
X0016499Y0170025D01*
X0016390Y0169918D01*
X0016278Y0169813D01*
X0016164Y0169711D01*
X0016047Y0169612D01*
X0015927Y0169517D01*
X0015805Y0169424D01*
X0015681Y0169335D01*
X0015554Y0169248D01*
X0015425Y0169166D01*
X0015294Y0169086D01*
X0015161Y0169010D01*
X0015026Y0168938D01*
X0014889Y0168869D01*
X0014751Y0168803D01*
X0014611Y0168741D01*
X0014469Y0168683D01*
X0014326Y0168629D01*
X0014181Y0168578D01*
X0014036Y0168531D01*
X0013889Y0168488D01*
X0013741Y0168449D01*
X0013592Y0168413D01*
X0013442Y0168382D01*
X0013291Y0168354D01*
X0013140Y0168330D01*
X0012988Y0168310D01*
X0012835Y0168294D01*
X0012683Y0168282D01*
X0012530Y0168274D01*
X0012377Y0168270D01*
X0012223Y0168270D01*
X0012070Y0168274D01*
X0011917Y0168282D01*
X0011765Y0168294D01*
X0011612Y0168310D01*
X0011460Y0168330D01*
X0011309Y0168354D01*
X0011158Y0168382D01*
X0011008Y0168413D01*
X0010859Y0168449D01*
X0010711Y0168488D01*
X0010564Y0168531D01*
X0010419Y0168578D01*
X0010274Y0168629D01*
X0010131Y0168683D01*
X0009989Y0168741D01*
X0009849Y0168803D01*
X0009711Y0168869D01*
X0009574Y0168938D01*
X0009439Y0169010D01*
X0009306Y0169086D01*
X0009175Y0169166D01*
X0009046Y0169248D01*
X0008919Y0169335D01*
X0008795Y0169424D01*
X0008673Y0169517D01*
X0008553Y0169612D01*
X0008436Y0169711D01*
X0008322Y0169813D01*
X0008210Y0169918D01*
X0008101Y0170025D01*
X0007995Y0170136D01*
X0007892Y0170249D01*
X0007791Y0170365D01*
X0007694Y0170483D01*
X0007600Y0170604D01*
X0007509Y0170727D01*
X0007421Y0170852D01*
X0007337Y0170980D01*
X0007255Y0171110D01*
X0007178Y0171242D01*
X0007103Y0171376D01*
X0007033Y0171512D01*
X0006965Y0171650D01*
X0006902Y0171789D01*
X0006842Y0171930D01*
X0006785Y0172072D01*
X0006733Y0172216D01*
X0006684Y0172361D01*
X0006639Y0172508D01*
X0006598Y0172655D01*
X0006560Y0172804D01*
X0006527Y0172953D01*
X0006497Y0173104D01*
X0006471Y0173255D01*
X0006450Y0173406D01*
X0006432Y0173558D01*
X0006418Y0173711D01*
X0006408Y0173864D01*
X0006402Y0174017D01*
X0006400Y0174170D01*
D11*
X0077706Y0110645D03*
X0077706Y0108086D03*
X0077706Y0105527D03*
X0077706Y0102968D03*
X0077706Y0100409D03*
X0077706Y0097850D03*
X0077706Y0095291D03*
X0077706Y0092731D03*
X0077706Y0090172D03*
X0077706Y0087613D03*
X0077706Y0085054D03*
X0077706Y0082495D03*
X0106494Y0082495D03*
X0106494Y0085054D03*
X0106494Y0087613D03*
X0106494Y0090172D03*
X0106494Y0092731D03*
X0106494Y0095291D03*
X0106494Y0097850D03*
X0106494Y0100409D03*
X0106494Y0102968D03*
X0106494Y0105527D03*
X0106494Y0108086D03*
X0106494Y0110645D03*
D12*
X0107700Y0121070D03*
X0097700Y0121070D03*
X0087700Y0121070D03*
X0077700Y0121070D03*
X0067700Y0121070D03*
X0057700Y0121070D03*
X0057700Y0131070D03*
X0067700Y0131070D03*
X0077700Y0131070D03*
X0087700Y0131070D03*
X0097700Y0131070D03*
X0107700Y0131070D03*
X0117700Y0131070D03*
X0127700Y0131070D03*
X0137700Y0131070D03*
X0137700Y0121070D03*
X0127700Y0121070D03*
X0117700Y0121070D03*
D13*
X0125306Y0058520D03*
X0125306Y0055921D03*
X0125306Y0053323D03*
X0125306Y0050724D03*
X0125306Y0048126D03*
X0125306Y0045528D03*
X0125306Y0042929D03*
X0125306Y0040331D03*
X0125306Y0037732D03*
X0083494Y0037732D03*
X0083494Y0040331D03*
X0083494Y0042929D03*
X0083494Y0045528D03*
X0083494Y0048126D03*
X0083494Y0050724D03*
X0083494Y0053323D03*
X0083494Y0055921D03*
X0083494Y0058520D03*
D14*
X0087510Y0061374D03*
X0090109Y0061374D03*
X0092707Y0061374D03*
X0095306Y0061374D03*
X0097904Y0061374D03*
X0100502Y0061374D03*
X0103101Y0061374D03*
X0105699Y0061374D03*
X0108298Y0061374D03*
X0110896Y0061374D03*
X0113494Y0061374D03*
X0116093Y0061374D03*
X0118691Y0061374D03*
X0121290Y0061374D03*
D15*
X0119400Y0164070D03*
X0109400Y0164070D03*
X0097800Y0163870D03*
X0087800Y0163870D03*
X0077800Y0163870D03*
X0067800Y0163870D03*
X0057800Y0163870D03*
X0047800Y0163870D03*
X0037800Y0163870D03*
X0027800Y0163870D03*
X0027800Y0173870D03*
X0037800Y0173870D03*
X0047800Y0173870D03*
X0057800Y0173870D03*
X0067800Y0173870D03*
X0077800Y0173870D03*
X0087800Y0173870D03*
X0097800Y0173870D03*
X0109400Y0174070D03*
X0119400Y0174070D03*
X0129400Y0174070D03*
X0139400Y0174070D03*
X0149400Y0174070D03*
X0159400Y0174070D03*
X0169400Y0174070D03*
X0179400Y0174070D03*
X0179400Y0164070D03*
X0169400Y0164070D03*
X0159400Y0164070D03*
X0149400Y0164070D03*
X0139400Y0164070D03*
X0129400Y0164070D03*
D16*
X0170000Y0133213D03*
X0176600Y0133113D03*
X0176600Y0126027D03*
X0170000Y0126127D03*
X0198900Y0138527D03*
X0198900Y0145613D03*
X0214000Y0145313D03*
X0214000Y0138227D03*
X0077100Y0071113D03*
X0077100Y0064027D03*
X0039700Y0075927D03*
X0039700Y0083013D03*
X0041000Y0138927D03*
X0050000Y0138927D03*
X0060000Y0138927D03*
X0060000Y0146013D03*
X0050000Y0146013D03*
X0041000Y0146013D03*
X0071000Y0146013D03*
X0071000Y0138927D03*
X0178600Y0030213D03*
X0178600Y0023127D03*
D17*
X0148800Y0140643D03*
X0140800Y0140643D03*
X0132800Y0140643D03*
X0123800Y0140643D03*
X0115800Y0140643D03*
X0106800Y0140643D03*
X0098800Y0140643D03*
X0091800Y0140643D03*
X0084800Y0140643D03*
X0084800Y0149698D03*
X0091800Y0149698D03*
X0098800Y0149698D03*
X0106800Y0149698D03*
X0115800Y0149698D03*
X0123800Y0149698D03*
X0132800Y0149698D03*
X0140800Y0149698D03*
X0148800Y0149698D03*
D18*
X0157900Y0115365D03*
X0157900Y0089775D03*
X0157000Y0063365D03*
X0157000Y0037775D03*
D19*
X0190100Y0045770D03*
X0266500Y0064770D03*
D20*
X0266500Y0067770D02*
X0263848Y0067610D01*
X0261235Y0067131D01*
X0258699Y0066340D01*
X0256276Y0065250D01*
X0254003Y0063876D01*
X0251911Y0062237D01*
X0250033Y0060359D01*
X0248394Y0058268D01*
X0247020Y0055994D01*
X0245930Y0053571D01*
X0245139Y0051035D01*
X0244660Y0048422D01*
X0244500Y0045770D01*
X0244660Y0043118D01*
X0245139Y0040505D01*
X0245930Y0037969D01*
X0247020Y0035546D01*
X0248394Y0033273D01*
X0250033Y0031181D01*
X0251911Y0029303D01*
X0254003Y0027664D01*
X0256276Y0026290D01*
X0258699Y0025200D01*
X0261235Y0024409D01*
X0263848Y0023930D01*
X0266500Y0023770D01*
X0267500Y0023770D01*
X0270031Y0023923D01*
X0272526Y0024380D01*
X0274947Y0025135D01*
X0277259Y0026176D01*
X0279429Y0027487D01*
X0281426Y0029051D01*
X0283219Y0030845D01*
X0284783Y0032841D01*
X0286095Y0035011D01*
X0287135Y0037323D01*
X0287890Y0039744D01*
X0288347Y0042239D01*
X0288500Y0044770D01*
X0288500Y0045770D01*
X0288340Y0048422D01*
X0287861Y0051035D01*
X0287070Y0053571D01*
X0285980Y0055994D01*
X0284606Y0058268D01*
X0282967Y0060359D01*
X0281089Y0062237D01*
X0278997Y0063876D01*
X0276724Y0065250D01*
X0274301Y0066340D01*
X0271765Y0067131D01*
X0269152Y0067610D01*
X0266500Y0067770D01*
X0259656Y0066639D02*
X0273344Y0066639D01*
X0278394Y0064240D02*
X0254606Y0064240D01*
X0251516Y0061842D02*
X0281484Y0061842D01*
X0283684Y0059443D02*
X0249316Y0059443D01*
X0247655Y0057045D02*
X0285345Y0057045D01*
X0286587Y0054646D02*
X0246413Y0054646D01*
X0245517Y0052248D02*
X0287483Y0052248D01*
X0288078Y0049849D02*
X0244922Y0049849D01*
X0244602Y0047451D02*
X0288398Y0047451D01*
X0288500Y0045052D02*
X0244543Y0045052D01*
X0244746Y0042654D02*
X0288372Y0042654D01*
X0287983Y0040255D02*
X0245217Y0040255D01*
X0245980Y0037857D02*
X0287302Y0037857D01*
X0286296Y0035458D02*
X0247073Y0035458D01*
X0248561Y0033060D02*
X0284915Y0033060D01*
X0283035Y0030661D02*
X0250553Y0030661D01*
X0253239Y0028263D02*
X0280419Y0028263D01*
X0276567Y0025864D02*
X0257222Y0025864D01*
X0229670Y0037969D02*
X0228580Y0035546D01*
X0227206Y0033273D01*
X0225567Y0031181D01*
X0223689Y0029303D01*
X0221597Y0027664D01*
X0219324Y0026290D01*
X0216901Y0025200D01*
X0214365Y0024409D01*
X0211752Y0023930D01*
X0209100Y0023770D01*
X0206448Y0023930D01*
X0203835Y0024409D01*
X0201299Y0025200D01*
X0198876Y0026290D01*
X0196603Y0027664D01*
X0194511Y0029303D01*
X0192633Y0031181D01*
X0190994Y0033273D01*
X0189620Y0035546D01*
X0188530Y0037969D01*
X0187739Y0040505D01*
X0187260Y0043118D01*
X0187100Y0045770D01*
X0187260Y0048422D01*
X0187739Y0051035D01*
X0188530Y0053571D01*
X0189620Y0055994D01*
X0190994Y0058268D01*
X0192633Y0060359D01*
X0194511Y0062237D01*
X0196603Y0063876D01*
X0198876Y0065250D01*
X0201299Y0066340D01*
X0203835Y0067131D01*
X0206448Y0067610D01*
X0209100Y0067770D01*
X0210100Y0067770D01*
X0212631Y0067617D01*
X0215126Y0067160D01*
X0217547Y0066405D01*
X0219859Y0065365D01*
X0222029Y0064053D01*
X0224026Y0062489D01*
X0225819Y0060696D01*
X0227383Y0058699D01*
X0228695Y0056529D01*
X0229735Y0054217D01*
X0230490Y0051796D01*
X0230947Y0049301D01*
X0231100Y0046770D01*
X0231100Y0045770D01*
X0230940Y0043118D01*
X0230461Y0040505D01*
X0229670Y0037969D01*
X0229620Y0037857D02*
X0188580Y0037857D01*
X0187817Y0040255D02*
X0230383Y0040255D01*
X0230854Y0042654D02*
X0187346Y0042654D01*
X0187143Y0045052D02*
X0231057Y0045052D01*
X0231059Y0047451D02*
X0187202Y0047451D01*
X0187522Y0049849D02*
X0230846Y0049849D01*
X0230349Y0052248D02*
X0188117Y0052248D01*
X0189013Y0054646D02*
X0229542Y0054646D01*
X0228383Y0057045D02*
X0190255Y0057045D01*
X0191916Y0059443D02*
X0226800Y0059443D01*
X0224673Y0061842D02*
X0194116Y0061842D01*
X0197206Y0064240D02*
X0221719Y0064240D01*
X0216798Y0066639D02*
X0202256Y0066639D01*
X0189673Y0035458D02*
X0228527Y0035458D01*
X0227039Y0033060D02*
X0191161Y0033060D01*
X0193153Y0030661D02*
X0225047Y0030661D01*
X0222361Y0028263D02*
X0195839Y0028263D01*
X0199822Y0025864D02*
X0218378Y0025864D01*
D21*
X0179320Y0141702D03*
X0179320Y0143670D03*
X0179320Y0145639D03*
X0169280Y0145639D03*
X0169280Y0143670D03*
X0169280Y0141702D03*
D22*
X0170363Y0138650D03*
X0172331Y0138650D03*
X0174300Y0138650D03*
X0176269Y0138650D03*
X0178237Y0138650D03*
X0178237Y0148690D03*
X0176269Y0148690D03*
X0174300Y0148690D03*
X0172331Y0148690D03*
X0170363Y0148690D03*
D23*
X0163043Y0145070D03*
X0155957Y0145070D03*
X0173257Y0074770D03*
X0180343Y0074770D03*
X0032643Y0080370D03*
X0025557Y0080370D03*
X0019343Y0080370D03*
X0012257Y0080370D03*
X0012257Y0072470D03*
X0019343Y0072470D03*
D24*
X0019700Y0090570D03*
X0010600Y0090570D03*
X0028800Y0090570D03*
D25*
X0019700Y0114971D03*
D26*
X0026400Y0124670D03*
X0011400Y0124670D03*
X0011400Y0146670D03*
X0026400Y0146670D03*
D27*
X0044600Y0104970D03*
X0054600Y0104970D03*
X0064600Y0104970D03*
X0062900Y0086970D03*
X0061900Y0076970D03*
X0062900Y0066970D03*
X0061900Y0056970D03*
X0062900Y0046970D03*
X0126400Y0077970D03*
X0136400Y0077970D03*
X0127900Y0095970D03*
X0127900Y0105970D03*
D28*
X0048800Y0075470D03*
X0044300Y0093370D03*
X0014400Y0040070D03*
D29*
X0023330Y0045355D02*
X0023330Y0053327D01*
X0052070Y0053327D02*
X0052070Y0045355D01*
X0052070Y0032461D02*
X0052070Y0024489D01*
X0023330Y0024489D02*
X0023330Y0032461D01*
D30*
X0031401Y0050325D03*
X0034550Y0050325D03*
X0037700Y0050325D03*
X0040850Y0050325D03*
X0043999Y0050325D03*
D31*
X0224583Y0175557D03*
X0234583Y0175557D03*
X0244583Y0175557D03*
X0254583Y0175557D03*
D32*
X0264900Y0166063D03*
X0264900Y0159370D03*
X0264900Y0152677D03*
X0252600Y0152577D03*
X0252600Y0159270D03*
X0252600Y0165963D03*
X0241500Y0165863D03*
X0241500Y0159170D03*
X0241500Y0152477D03*
X0219500Y0152377D03*
X0219500Y0159070D03*
X0219500Y0165763D03*
D33*
X0236100Y0178870D02*
X0238500Y0176470D01*
X0240600Y0176470D01*
X0243000Y0178870D01*
X0246000Y0178870D01*
X0251700Y0173170D01*
X0251700Y0167770D01*
X0252600Y0165963D01*
X0252600Y0152577D02*
X0250800Y0151570D01*
X0247500Y0151570D01*
X0236400Y0140470D01*
X0217500Y0140470D01*
X0217350Y0140320D01*
X0217500Y0140170D01*
X0217500Y0136270D01*
X0129900Y0048670D01*
X0129900Y0045670D01*
X0130800Y0042970D02*
X0150000Y0062170D01*
X0152400Y0061270D02*
X0152400Y0065170D01*
X0159600Y0072370D01*
X0160200Y0072370D01*
X0159300Y0074770D02*
X0132600Y0048070D01*
X0127500Y0048370D02*
X0195300Y0116170D01*
X0195300Y0134470D01*
X0189900Y0132070D02*
X0189900Y0170170D01*
X0181200Y0178870D01*
X0144300Y0178870D01*
X0139500Y0174070D01*
X0139400Y0174070D01*
X0129400Y0174070D01*
X0119400Y0174070D01*
X0109400Y0174070D01*
X0103800Y0180070D02*
X0097800Y0174070D01*
X0097800Y0173870D01*
X0097800Y0174070D02*
X0087900Y0174070D01*
X0087800Y0173870D01*
X0087600Y0174070D01*
X0078000Y0174070D01*
X0077800Y0173870D01*
X0077700Y0174070D01*
X0067800Y0174070D01*
X0067800Y0173870D01*
X0057800Y0173870D02*
X0057600Y0174070D01*
X0048000Y0174070D01*
X0047800Y0173870D01*
X0043350Y0169420D01*
X0039000Y0173770D01*
X0037800Y0173770D01*
X0037800Y0173870D01*
X0037800Y0174070D01*
X0027900Y0174070D01*
X0027800Y0173870D01*
X0043200Y0169270D02*
X0043350Y0169420D01*
X0043200Y0169270D02*
X0043200Y0161770D01*
X0044400Y0160570D01*
X0044400Y0139270D01*
X0047400Y0136270D01*
X0047400Y0123370D01*
X0045000Y0120970D02*
X0044700Y0120670D01*
X0024600Y0120670D01*
X0020700Y0124570D01*
X0011400Y0124570D01*
X0011400Y0124670D01*
X0041100Y0138670D02*
X0041000Y0138927D01*
X0041100Y0138670D02*
X0044100Y0135670D01*
X0044100Y0132970D01*
X0042300Y0131170D01*
X0042300Y0130270D01*
X0049800Y0127870D02*
X0058200Y0136270D01*
X0068400Y0136270D01*
X0070800Y0138670D01*
X0071000Y0138927D01*
X0075000Y0135670D02*
X0070500Y0131170D01*
X0067800Y0131170D01*
X0067700Y0131070D01*
X0072000Y0134470D02*
X0061200Y0134470D01*
X0057900Y0131170D01*
X0057700Y0131070D01*
X0049800Y0134470D02*
X0049800Y0138670D01*
X0050000Y0138927D01*
X0060000Y0138970D02*
X0060000Y0138927D01*
X0060000Y0138970D02*
X0062700Y0141670D01*
X0073800Y0141670D01*
X0075000Y0142870D01*
X0103200Y0142870D01*
X0102900Y0140470D02*
X0096900Y0134470D01*
X0091800Y0134470D01*
X0088500Y0131170D01*
X0087900Y0131170D01*
X0087700Y0131070D01*
X0090000Y0134470D02*
X0081000Y0134470D01*
X0077700Y0131170D01*
X0077700Y0131070D01*
X0072000Y0134470D02*
X0078000Y0140470D01*
X0084600Y0140470D01*
X0084800Y0140643D01*
X0088800Y0140470D02*
X0084000Y0135670D01*
X0075000Y0135670D01*
X0073800Y0143470D02*
X0062400Y0143470D01*
X0060000Y0145870D01*
X0060000Y0146013D01*
X0060000Y0151870D01*
X0048000Y0163870D01*
X0047800Y0163870D01*
X0049500Y0162670D01*
X0055500Y0168670D01*
X0079800Y0168670D01*
X0084600Y0163870D01*
X0087800Y0163870D01*
X0094500Y0163870D02*
X0081900Y0151270D01*
X0070800Y0151270D01*
X0070650Y0151120D01*
X0070800Y0150970D01*
X0070800Y0146170D01*
X0071000Y0146013D01*
X0073800Y0143470D02*
X0075600Y0145270D01*
X0115800Y0145270D01*
X0118500Y0147970D01*
X0118500Y0148570D01*
X0129300Y0159370D01*
X0129300Y0163870D01*
X0129400Y0164070D01*
X0129600Y0163870D01*
X0132900Y0163870D01*
X0137400Y0159370D01*
X0164700Y0159370D01*
X0169400Y0164070D01*
X0174900Y0168670D02*
X0179400Y0164170D01*
X0179400Y0164070D01*
X0174900Y0168670D02*
X0147300Y0168670D01*
X0142800Y0164170D01*
X0139500Y0164170D01*
X0139400Y0164070D01*
X0139200Y0164170D01*
X0135900Y0164170D01*
X0131400Y0168670D01*
X0102600Y0168670D01*
X0097800Y0163870D01*
X0094500Y0163870D01*
X0093900Y0159670D02*
X0094500Y0159070D01*
X0111000Y0159070D01*
X0115800Y0163870D01*
X0119400Y0163870D01*
X0119400Y0164070D01*
X0120900Y0155170D02*
X0115800Y0150070D01*
X0115800Y0149698D01*
X0115800Y0149770D01*
X0113700Y0151870D01*
X0096600Y0151870D01*
X0094500Y0149770D01*
X0091800Y0149770D01*
X0091800Y0149698D01*
X0090600Y0146470D02*
X0087600Y0149470D01*
X0084900Y0149470D01*
X0084800Y0149698D01*
X0090600Y0146470D02*
X0103800Y0146470D01*
X0106800Y0149470D01*
X0106800Y0149698D01*
X0106800Y0149170D01*
X0108300Y0147670D01*
X0112200Y0147670D01*
X0110400Y0142870D02*
X0116700Y0142870D01*
X0123600Y0149770D01*
X0123800Y0149698D01*
X0123900Y0149770D01*
X0126000Y0151870D01*
X0142800Y0151870D01*
X0144900Y0149770D01*
X0148800Y0149770D01*
X0148800Y0149698D01*
X0148800Y0149470D01*
X0152700Y0145570D01*
X0152700Y0127870D01*
X0149400Y0124570D01*
X0147900Y0124570D01*
X0150300Y0128770D02*
X0150300Y0137770D01*
X0151500Y0138970D01*
X0151500Y0142270D01*
X0145200Y0148570D01*
X0141900Y0148570D01*
X0141000Y0149470D01*
X0140800Y0149698D01*
X0140700Y0149470D01*
X0136800Y0149470D01*
X0134400Y0147070D01*
X0129600Y0147070D01*
X0127800Y0149470D02*
X0120600Y0142270D01*
X0119400Y0142270D01*
X0120900Y0140470D02*
X0111600Y0131170D01*
X0107700Y0131170D01*
X0107700Y0131070D01*
X0101700Y0131170D02*
X0097800Y0131170D01*
X0097700Y0131070D01*
X0101700Y0131170D02*
X0111000Y0140470D01*
X0115800Y0140470D01*
X0115800Y0140643D01*
X0120900Y0140470D02*
X0123600Y0140470D01*
X0123800Y0140643D01*
X0127800Y0140470D02*
X0118500Y0131170D01*
X0117900Y0131170D01*
X0117700Y0131070D01*
X0127700Y0131070D02*
X0137100Y0140470D01*
X0140700Y0140470D01*
X0140800Y0140643D01*
X0147000Y0140470D02*
X0137700Y0131170D01*
X0137700Y0131070D01*
X0137700Y0121070D02*
X0137700Y0120970D01*
X0127800Y0120970D01*
X0127700Y0121070D01*
X0127500Y0120970D01*
X0117900Y0120970D01*
X0117700Y0121070D01*
X0107700Y0120970D02*
X0107700Y0121070D01*
X0107700Y0120970D02*
X0097800Y0120970D01*
X0097700Y0121070D01*
X0106494Y0110645D02*
X0106800Y0110470D01*
X0125700Y0110470D01*
X0126000Y0110770D01*
X0129900Y0110770D01*
X0132600Y0108070D01*
X0132600Y0100570D01*
X0128100Y0096070D01*
X0127900Y0095970D01*
X0122100Y0100270D02*
X0127800Y0105970D01*
X0127900Y0105970D01*
X0122100Y0100270D02*
X0106800Y0100270D01*
X0106494Y0100409D01*
X0106500Y0100270D01*
X0106500Y0097870D01*
X0106494Y0097850D01*
X0106494Y0095291D02*
X0106500Y0095170D01*
X0106500Y0092770D01*
X0106494Y0092731D01*
X0106800Y0092770D01*
X0113400Y0092770D01*
X0126300Y0079870D01*
X0126300Y0078070D01*
X0126400Y0077970D01*
X0124500Y0073270D02*
X0131700Y0073270D01*
X0136400Y0077970D01*
X0137100Y0072070D02*
X0152100Y0087070D01*
X0152100Y0096070D01*
X0188700Y0132670D01*
X0188700Y0164770D01*
X0179400Y0174070D01*
X0169400Y0174070D01*
X0159400Y0174070D01*
X0149400Y0174070D01*
X0121500Y0155170D02*
X0120900Y0155170D01*
X0127800Y0149470D02*
X0132600Y0149470D01*
X0132800Y0149698D01*
X0132800Y0140643D02*
X0132600Y0140470D01*
X0127800Y0140470D01*
X0147000Y0140470D02*
X0148800Y0140470D01*
X0148800Y0140643D01*
X0163043Y0138650D02*
X0163043Y0145070D01*
X0163043Y0145639D01*
X0169280Y0145639D01*
X0172300Y0144770D02*
X0176293Y0144783D01*
X0176269Y0148690D01*
X0172331Y0148690D02*
X0172300Y0144770D01*
X0174300Y0142270D02*
X0176100Y0140470D01*
X0176100Y0138670D01*
X0176269Y0138650D01*
X0178237Y0138650D02*
X0181600Y0139170D01*
X0179400Y0141670D02*
X0179320Y0141702D01*
X0179400Y0141670D02*
X0186300Y0141670D01*
X0192300Y0142270D02*
X0210900Y0142270D01*
X0213900Y0145270D01*
X0214000Y0145313D01*
X0213300Y0144370D01*
X0217350Y0140320D01*
X0214500Y0148870D02*
X0217500Y0151870D01*
X0218100Y0151870D01*
X0219500Y0152377D01*
X0198900Y0154570D02*
X0198900Y0145870D01*
X0198900Y0145613D01*
X0198900Y0145870D02*
X0192300Y0145870D01*
X0194700Y0148270D02*
X0194700Y0167170D01*
X0181800Y0180070D01*
X0103800Y0180070D01*
X0070650Y0151120D02*
X0057900Y0163870D01*
X0057800Y0163870D01*
X0046800Y0154870D02*
X0049800Y0151870D01*
X0049800Y0146170D01*
X0050000Y0146013D01*
X0041000Y0146013D02*
X0040800Y0146170D01*
X0040800Y0150970D01*
X0027900Y0163870D01*
X0027800Y0163870D01*
X0088800Y0140470D02*
X0091800Y0140470D01*
X0091800Y0140643D01*
X0096000Y0140470D02*
X0090000Y0134470D01*
X0096000Y0140470D02*
X0098700Y0140470D01*
X0098800Y0140643D01*
X0102900Y0140470D02*
X0106800Y0140470D01*
X0106800Y0140643D01*
X0102900Y0148870D02*
X0102300Y0149470D01*
X0099000Y0149470D01*
X0098800Y0149698D01*
X0077700Y0121070D02*
X0077700Y0120970D01*
X0067800Y0120970D01*
X0067700Y0121070D01*
X0067500Y0120970D01*
X0057900Y0120970D01*
X0057700Y0121070D01*
X0073400Y0113170D02*
X0073500Y0113270D01*
X0080500Y0113270D01*
X0080500Y0107370D01*
X0073500Y0107370D01*
X0073400Y0107470D01*
X0073400Y0113170D01*
X0073459Y0113229D02*
X0080500Y0113229D01*
X0080500Y0112630D02*
X0073400Y0112630D01*
X0073400Y0112032D02*
X0080500Y0112032D01*
X0080500Y0111433D02*
X0073400Y0111433D01*
X0073400Y0110835D02*
X0080500Y0110835D01*
X0080500Y0110236D02*
X0073400Y0110236D01*
X0073400Y0109638D02*
X0080500Y0109638D01*
X0080500Y0109039D02*
X0073400Y0109039D01*
X0073400Y0108441D02*
X0080500Y0108441D01*
X0080500Y0107842D02*
X0073400Y0107842D01*
X0077706Y0105527D02*
X0088600Y0105527D01*
X0088600Y0095270D01*
X0088200Y0095270D01*
X0088200Y0095370D01*
X0087900Y0095070D01*
X0087900Y0085054D01*
X0087800Y0085054D01*
X0087800Y0071470D01*
X0081600Y0076270D02*
X0081000Y0076870D01*
X0075900Y0076870D01*
X0075600Y0076570D01*
X0080200Y0079170D02*
X0070300Y0079170D01*
X0070300Y0082970D01*
X0080200Y0082970D01*
X0080200Y0079170D01*
X0080200Y0079712D02*
X0070300Y0079712D01*
X0070300Y0080311D02*
X0080200Y0080311D01*
X0080200Y0080909D02*
X0070300Y0080909D01*
X0070300Y0081508D02*
X0080200Y0081508D01*
X0080200Y0082106D02*
X0070300Y0082106D01*
X0070300Y0082705D02*
X0080200Y0082705D01*
X0077706Y0082495D02*
X0071600Y0082495D01*
X0071600Y0080970D01*
X0068100Y0076970D02*
X0061900Y0076970D01*
X0068100Y0076970D02*
X0068100Y0097570D01*
X0077427Y0097570D01*
X0077706Y0097850D01*
X0077400Y0099970D02*
X0072900Y0099970D01*
X0077400Y0099970D02*
X0077700Y0100270D01*
X0077706Y0100409D01*
X0078000Y0102670D02*
X0077706Y0102968D01*
X0078000Y0102670D02*
X0080400Y0102670D01*
X0082500Y0100570D01*
X0080300Y0095970D02*
X0075000Y0095970D01*
X0075000Y0092370D01*
X0075100Y0092270D01*
X0080400Y0092270D01*
X0080400Y0095870D01*
X0080300Y0095970D01*
X0080398Y0095872D02*
X0075000Y0095872D01*
X0075000Y0095274D02*
X0080400Y0095274D01*
X0080400Y0094675D02*
X0075000Y0094675D01*
X0075000Y0094077D02*
X0080400Y0094077D01*
X0080400Y0093478D02*
X0075000Y0093478D01*
X0075000Y0092880D02*
X0080400Y0092880D01*
X0080400Y0092281D02*
X0075089Y0092281D01*
X0077706Y0090172D02*
X0078000Y0090370D01*
X0078300Y0090670D01*
X0082500Y0090670D01*
X0082800Y0087370D02*
X0078000Y0087370D01*
X0077706Y0087613D01*
X0077706Y0085054D02*
X0087800Y0085054D01*
X0087900Y0085054D02*
X0087900Y0084670D01*
X0090300Y0085870D02*
X0096600Y0079570D01*
X0109500Y0079570D01*
X0117000Y0072070D01*
X0117000Y0068770D01*
X0119400Y0071470D02*
X0110100Y0080770D01*
X0102300Y0080770D01*
X0090300Y0092770D01*
X0088200Y0095270D02*
X0077706Y0095270D01*
X0077706Y0095291D01*
X0103800Y0090770D02*
X0103800Y0086970D01*
X0113700Y0086970D01*
X0113700Y0090770D01*
X0103800Y0090770D01*
X0103800Y0090485D02*
X0113700Y0090485D01*
X0113700Y0089887D02*
X0103800Y0089887D01*
X0103800Y0089288D02*
X0113700Y0089288D01*
X0113700Y0088690D02*
X0103800Y0088690D01*
X0103800Y0088091D02*
X0113700Y0088091D01*
X0113700Y0087493D02*
X0103800Y0087493D01*
X0106494Y0085054D02*
X0106500Y0084970D01*
X0106500Y0082570D01*
X0106494Y0082495D01*
X0106800Y0082570D01*
X0115200Y0082570D01*
X0124500Y0073270D01*
X0123600Y0072070D02*
X0137100Y0072070D01*
X0123600Y0072070D02*
X0116100Y0064570D01*
X0116100Y0061570D01*
X0116093Y0061374D01*
X0118691Y0061374D02*
X0118800Y0061570D01*
X0118800Y0063970D01*
X0122100Y0067270D01*
X0121290Y0061374D02*
X0121200Y0061270D01*
X0121200Y0059470D01*
X0116400Y0054670D01*
X0110100Y0054670D01*
X0107700Y0057070D01*
X0111000Y0057070D02*
X0111000Y0061270D01*
X0110896Y0061374D01*
X0108298Y0061374D02*
X0108300Y0061570D01*
X0108300Y0065170D01*
X0108900Y0065770D01*
X0105600Y0067270D02*
X0105600Y0061570D01*
X0105699Y0061374D01*
X0103101Y0061374D02*
X0102900Y0061570D01*
X0102900Y0063370D01*
X0099000Y0067270D01*
X0098400Y0067270D01*
X0092700Y0063070D02*
X0092100Y0063670D01*
X0092100Y0063970D01*
X0091200Y0064870D01*
X0090900Y0064870D01*
X0090000Y0065770D01*
X0092700Y0063070D02*
X0092700Y0061570D01*
X0092707Y0061374D01*
X0090109Y0061374D02*
X0090000Y0061270D01*
X0090000Y0055870D01*
X0087900Y0050770D02*
X0083700Y0050770D01*
X0083494Y0050724D01*
X0083700Y0048370D02*
X0083494Y0048126D01*
X0083700Y0048370D02*
X0089700Y0048370D01*
X0090300Y0048970D01*
X0112800Y0048970D01*
X0120000Y0041770D01*
X0120900Y0041770D01*
X0125306Y0042929D02*
X0125400Y0042970D01*
X0130800Y0042970D01*
X0131700Y0040570D02*
X0152400Y0061270D01*
X0159300Y0074770D02*
X0173257Y0074770D01*
X0157800Y0086470D02*
X0157800Y0089770D01*
X0157900Y0089775D01*
X0157800Y0086470D02*
X0127500Y0056170D01*
X0125400Y0056170D01*
X0125306Y0055921D01*
X0120900Y0055870D02*
X0120900Y0048070D01*
X0123300Y0045670D01*
X0125100Y0045670D01*
X0125306Y0045528D01*
X0125306Y0048126D02*
X0125400Y0048370D01*
X0127500Y0048370D01*
X0118500Y0048070D02*
X0115500Y0048070D01*
X0113400Y0050170D01*
X0088500Y0050170D01*
X0087900Y0050770D01*
X0091200Y0046570D02*
X0087600Y0042970D01*
X0083700Y0042970D01*
X0083494Y0042929D01*
X0083400Y0040570D02*
X0083494Y0040331D01*
X0083400Y0040570D02*
X0081300Y0040570D01*
X0080100Y0041770D01*
X0078300Y0041770D01*
X0070200Y0049870D01*
X0070200Y0066370D01*
X0070500Y0066670D01*
X0072300Y0068170D02*
X0071400Y0069070D01*
X0069600Y0069070D01*
X0067500Y0066970D01*
X0067500Y0064870D01*
X0064200Y0061570D01*
X0052500Y0061570D01*
X0052200Y0061270D01*
X0072600Y0063970D02*
X0077100Y0063970D01*
X0077100Y0064027D01*
X0078300Y0068170D02*
X0072300Y0068170D01*
X0078300Y0068170D02*
X0084900Y0061570D01*
X0087300Y0061570D01*
X0087510Y0061374D01*
X0083494Y0058520D02*
X0083400Y0058270D01*
X0080700Y0058270D01*
X0080400Y0057970D01*
X0080100Y0057970D01*
X0079800Y0058270D01*
X0078000Y0058270D01*
X0076500Y0056770D01*
X0076500Y0046870D01*
X0078000Y0045370D01*
X0078900Y0048070D02*
X0078900Y0050170D01*
X0078900Y0048070D02*
X0081300Y0045670D01*
X0083400Y0045670D01*
X0083494Y0045528D01*
X0083400Y0055870D02*
X0078900Y0055870D01*
X0083400Y0055870D02*
X0083494Y0055921D01*
X0098100Y0059170D02*
X0105900Y0051370D01*
X0118500Y0051370D01*
X0125306Y0058520D02*
X0125400Y0058570D01*
X0153300Y0086470D01*
X0153300Y0095470D01*
X0189900Y0132070D01*
X0176600Y0133113D02*
X0175357Y0133113D01*
X0172400Y0136070D01*
X0172400Y0138582D01*
X0172331Y0138650D01*
X0170363Y0138650D02*
X0166800Y0138650D01*
X0166800Y0138670D01*
X0167100Y0138370D01*
X0166800Y0138650D02*
X0163043Y0138650D01*
X0170000Y0138650D02*
X0170000Y0133213D01*
X0170000Y0138650D02*
X0170363Y0138650D01*
X0176300Y0143670D02*
X0176293Y0144783D01*
X0176300Y0143670D02*
X0179320Y0143670D01*
X0198900Y0154570D02*
X0223200Y0178870D01*
X0236100Y0178870D01*
X0113900Y0106070D02*
X0113900Y0102270D01*
X0104000Y0102270D01*
X0104000Y0106070D01*
X0113900Y0106070D01*
X0113900Y0106047D02*
X0104000Y0106047D01*
X0104000Y0105448D02*
X0113900Y0105448D01*
X0113900Y0104850D02*
X0104000Y0104850D01*
X0104000Y0104251D02*
X0113900Y0104251D01*
X0113900Y0103653D02*
X0104000Y0103653D01*
X0104000Y0103054D02*
X0113900Y0103054D01*
X0113900Y0102456D02*
X0104000Y0102456D01*
X0106494Y0108086D02*
X0106500Y0108370D01*
X0106500Y0110470D01*
X0106494Y0110645D01*
X0100502Y0061374D02*
X0100800Y0061270D01*
X0100800Y0059170D01*
X0106200Y0053770D01*
X0107700Y0053770D01*
X0098100Y0059170D02*
X0098100Y0061270D01*
X0097904Y0061374D01*
X0125400Y0040570D02*
X0125306Y0040331D01*
X0125400Y0040570D02*
X0131700Y0040570D01*
X0135600Y0038770D02*
X0144600Y0038770D01*
X0160200Y0023170D01*
X0178500Y0023170D01*
X0178600Y0023127D01*
X0178600Y0030213D02*
X0178800Y0030370D01*
X0178800Y0033670D01*
X0180900Y0035770D01*
D34*
X0180900Y0035770D03*
X0150000Y0062170D03*
X0160200Y0072370D03*
X0132600Y0048070D03*
X0129900Y0045670D03*
X0135600Y0038770D03*
X0120900Y0041770D03*
X0118500Y0048070D03*
X0118500Y0051370D03*
X0120900Y0055870D03*
X0111000Y0057070D03*
X0107700Y0057070D03*
X0107700Y0053770D03*
X0091200Y0046570D03*
X0087900Y0050770D03*
X0090000Y0055870D03*
X0078900Y0055870D03*
X0078900Y0050170D03*
X0078000Y0045370D03*
X0052200Y0061270D03*
X0070500Y0066670D03*
X0072600Y0063970D03*
X0090000Y0065770D03*
X0098400Y0067270D03*
X0105600Y0067270D03*
X0108900Y0065770D03*
X0117000Y0068770D03*
X0119400Y0071470D03*
X0122100Y0067270D03*
X0090300Y0085870D03*
X0082800Y0087370D03*
X0082500Y0090670D03*
X0090300Y0092770D03*
X0082500Y0100570D03*
X0072900Y0099970D03*
X0045000Y0120970D03*
X0047400Y0123370D03*
X0049800Y0127870D03*
X0042300Y0130270D03*
X0049800Y0134470D03*
X0046800Y0154870D03*
X0093900Y0159670D03*
X0102900Y0148870D03*
X0112200Y0147670D03*
X0110400Y0142870D03*
X0103200Y0142870D03*
X0119400Y0142270D03*
X0129600Y0147070D03*
X0121500Y0155170D03*
X0150300Y0128770D03*
X0147900Y0124570D03*
X0167100Y0138370D03*
X0174300Y0142270D03*
X0181600Y0139170D03*
X0186300Y0141670D03*
X0192300Y0142270D03*
X0192300Y0145870D03*
X0194700Y0148270D03*
X0204100Y0145470D03*
X0208200Y0145370D03*
X0214500Y0148870D03*
X0192900Y0138070D03*
X0195300Y0134470D03*
X0239300Y0170870D03*
X0239600Y0178770D03*
X0081600Y0076270D03*
X0075600Y0076570D03*
D35*
X0073102Y0075415D02*
X0067178Y0075415D01*
X0067265Y0075682D02*
X0067400Y0076537D01*
X0067400Y0076770D01*
X0062100Y0076770D01*
X0062100Y0077170D01*
X0067400Y0077170D01*
X0067400Y0077403D01*
X0067265Y0078258D01*
X0066997Y0079081D01*
X0066604Y0079853D01*
X0066095Y0080553D01*
X0065483Y0081165D01*
X0064783Y0081674D01*
X0064181Y0081981D01*
X0065789Y0082647D01*
X0067224Y0084081D01*
X0068000Y0085956D01*
X0068000Y0101158D01*
X0068924Y0102081D01*
X0069700Y0103956D01*
X0069700Y0105985D01*
X0068924Y0107859D01*
X0067489Y0109294D01*
X0065614Y0110070D01*
X0063586Y0110070D01*
X0061711Y0109294D01*
X0060276Y0107859D01*
X0059600Y0106226D01*
X0058924Y0107859D01*
X0057900Y0108883D01*
X0057900Y0110070D01*
X0071700Y0110070D01*
X0071700Y0106766D01*
X0071800Y0106666D01*
X0072796Y0105670D01*
X0073556Y0105670D01*
X0073556Y0104262D01*
X0073571Y0104247D01*
X0073556Y0104233D01*
X0073556Y0102675D01*
X0073447Y0102720D01*
X0072353Y0102720D01*
X0071342Y0102301D01*
X0070569Y0101528D01*
X0070150Y0100517D01*
X0070150Y0099423D01*
X0070569Y0098412D01*
X0071342Y0097639D01*
X0072353Y0097220D01*
X0073156Y0097220D01*
X0073156Y0096928D01*
X0073279Y0096470D01*
X0073300Y0096433D01*
X0073300Y0091666D01*
X0073400Y0091566D01*
X0073556Y0091410D01*
X0073556Y0088907D01*
X0073571Y0088893D01*
X0073556Y0088878D01*
X0073556Y0086348D01*
X0073571Y0086334D01*
X0073556Y0086319D01*
X0073556Y0084670D01*
X0069596Y0084670D01*
X0069177Y0084251D01*
X0069139Y0084251D01*
X0068319Y0083431D01*
X0068319Y0078509D01*
X0069139Y0077689D01*
X0069377Y0077689D01*
X0069596Y0077470D01*
X0072996Y0077470D01*
X0072850Y0077117D01*
X0072850Y0076023D01*
X0073269Y0075012D01*
X0074042Y0074239D01*
X0074406Y0074088D01*
X0074158Y0074088D01*
X0073338Y0073268D01*
X0073338Y0069870D01*
X0073004Y0069870D01*
X0072104Y0070770D01*
X0068896Y0070770D01*
X0067447Y0069321D01*
X0067224Y0069859D01*
X0065789Y0071294D01*
X0064181Y0071960D01*
X0064783Y0072266D01*
X0065483Y0072775D01*
X0066095Y0073387D01*
X0066604Y0074087D01*
X0066997Y0074859D01*
X0067265Y0075682D01*
X0066407Y0073816D02*
X0073886Y0073816D01*
X0073338Y0072218D02*
X0064688Y0072218D01*
X0066463Y0070619D02*
X0068745Y0070619D01*
X0072255Y0070619D02*
X0073338Y0070619D01*
X0072850Y0077014D02*
X0062100Y0077014D01*
X0061700Y0077014D02*
X0054450Y0077014D01*
X0054450Y0077810D02*
X0052582Y0079678D01*
X0052652Y0079707D01*
X0056015Y0083070D01*
X0059587Y0083070D01*
X0060011Y0082647D01*
X0060722Y0082352D01*
X0060612Y0082335D01*
X0059789Y0082067D01*
X0059017Y0081674D01*
X0058317Y0081165D01*
X0057705Y0080553D01*
X0057196Y0079853D01*
X0056803Y0079081D01*
X0056535Y0078258D01*
X0056400Y0077403D01*
X0056400Y0077170D01*
X0061700Y0077170D01*
X0061700Y0076770D01*
X0056400Y0076770D01*
X0056400Y0076537D01*
X0056535Y0075682D01*
X0056803Y0074859D01*
X0057196Y0074087D01*
X0057705Y0073387D01*
X0058317Y0072775D01*
X0059017Y0072266D01*
X0059789Y0071873D01*
X0060612Y0071606D01*
X0060722Y0071588D01*
X0060011Y0071294D01*
X0058576Y0069859D01*
X0057800Y0067985D01*
X0057800Y0065956D01*
X0058576Y0064081D01*
X0059388Y0063270D01*
X0054089Y0063270D01*
X0053758Y0063601D01*
X0052747Y0064020D01*
X0051653Y0064020D01*
X0050642Y0063601D01*
X0049869Y0062828D01*
X0049450Y0061817D01*
X0049450Y0060723D01*
X0049869Y0059712D01*
X0050642Y0058939D01*
X0051186Y0058713D01*
X0050999Y0058713D01*
X0049019Y0057893D01*
X0047504Y0056378D01*
X0046761Y0054584D01*
X0046661Y0054957D01*
X0046424Y0055367D01*
X0046089Y0055703D01*
X0045678Y0055940D01*
X0045220Y0056062D01*
X0043999Y0056062D01*
X0042778Y0056062D01*
X0042320Y0055940D01*
X0041910Y0055703D01*
X0041869Y0055662D01*
X0039285Y0055662D01*
X0039275Y0055652D01*
X0039264Y0055662D01*
X0036136Y0055662D01*
X0036125Y0055652D01*
X0036115Y0055662D01*
X0033093Y0055662D01*
X0047251Y0069820D01*
X0051140Y0069820D01*
X0054450Y0073130D01*
X0054450Y0077810D01*
X0053648Y0078612D02*
X0056650Y0078612D01*
X0057456Y0080211D02*
X0053156Y0080211D01*
X0054754Y0081809D02*
X0059282Y0081809D01*
X0064518Y0081809D02*
X0068319Y0081809D01*
X0068319Y0080211D02*
X0066344Y0080211D01*
X0067150Y0078612D02*
X0068319Y0078612D01*
X0068319Y0083408D02*
X0066550Y0083408D01*
X0067607Y0085006D02*
X0073556Y0085006D01*
X0073556Y0086605D02*
X0068000Y0086605D01*
X0068000Y0088203D02*
X0073556Y0088203D01*
X0073556Y0089802D02*
X0068000Y0089802D01*
X0068000Y0091400D02*
X0073556Y0091400D01*
X0073300Y0092999D02*
X0068000Y0092999D01*
X0068000Y0094597D02*
X0073300Y0094597D01*
X0073300Y0096196D02*
X0068000Y0096196D01*
X0068000Y0097794D02*
X0071187Y0097794D01*
X0070163Y0099393D02*
X0068000Y0099393D01*
X0068000Y0100991D02*
X0070346Y0100991D01*
X0069134Y0102590D02*
X0072038Y0102590D01*
X0073556Y0104188D02*
X0069700Y0104188D01*
X0069700Y0105787D02*
X0072679Y0105787D01*
X0071700Y0107385D02*
X0069120Y0107385D01*
X0067799Y0108984D02*
X0071700Y0108984D01*
X0061401Y0108984D02*
X0057900Y0108984D01*
X0059120Y0107385D02*
X0060080Y0107385D01*
X0059600Y0103714D02*
X0060276Y0102081D01*
X0061200Y0101158D01*
X0061200Y0091786D01*
X0060011Y0091294D01*
X0059587Y0090870D01*
X0053624Y0090870D01*
X0052191Y0090276D01*
X0051094Y0089179D01*
X0048828Y0086913D01*
X0041315Y0086913D01*
X0034352Y0093876D01*
X0032919Y0094470D01*
X0032600Y0094470D01*
X0032600Y0095550D01*
X0031780Y0096370D01*
X0025820Y0096370D01*
X0025000Y0095550D01*
X0025000Y0091587D01*
X0024900Y0091346D01*
X0024900Y0089794D01*
X0025000Y0089553D01*
X0025000Y0085590D01*
X0025820Y0084770D01*
X0031780Y0084770D01*
X0032104Y0085094D01*
X0032666Y0084532D01*
X0032643Y0084532D01*
X0030832Y0084532D01*
X0030374Y0084410D01*
X0029963Y0084173D01*
X0029628Y0083838D01*
X0029391Y0083427D01*
X0029269Y0082969D01*
X0029268Y0080370D01*
X0029269Y0080370D02*
X0029269Y0077771D01*
X0029391Y0077313D01*
X0029628Y0076903D01*
X0029963Y0076568D01*
X0030374Y0076331D01*
X0030832Y0076208D01*
X0032643Y0076208D01*
X0032643Y0080370D01*
X0029269Y0080370D01*
X0029268Y0080370D02*
X0032643Y0080370D01*
X0032643Y0080370D01*
X0032643Y0080370D01*
X0032643Y0084532D01*
X0032643Y0080370D01*
X0032643Y0080370D01*
X0032643Y0076208D01*
X0034455Y0076208D01*
X0034913Y0076331D01*
X0035323Y0076568D01*
X0035538Y0076782D01*
X0035538Y0075927D01*
X0039700Y0075927D01*
X0039700Y0075927D01*
X0035538Y0075927D01*
X0035538Y0074115D01*
X0035660Y0073657D01*
X0035897Y0073247D01*
X0036233Y0072912D01*
X0036643Y0072675D01*
X0037101Y0072552D01*
X0039700Y0072552D01*
X0041781Y0072552D01*
X0026941Y0057713D01*
X0026830Y0057444D01*
X0026381Y0057893D01*
X0024401Y0058713D01*
X0022259Y0058713D01*
X0020279Y0057893D01*
X0018764Y0056378D01*
X0017944Y0054399D01*
X0017944Y0045082D01*
X0016906Y0046120D01*
X0014900Y0046120D01*
X0014900Y0040570D01*
X0020450Y0040570D01*
X0020450Y0040718D01*
X0022259Y0039969D01*
X0024401Y0039969D01*
X0026381Y0040789D01*
X0026739Y0041146D01*
X0026739Y0040657D01*
X0027358Y0039161D01*
X0028504Y0038015D01*
X0030000Y0037395D01*
X0031620Y0037395D01*
X0033117Y0038015D01*
X0034262Y0039161D01*
X0034882Y0040657D01*
X0034882Y0042277D01*
X0034262Y0043773D01*
X0033117Y0044919D01*
X0032949Y0044988D01*
X0032965Y0044988D01*
X0032976Y0044999D01*
X0032986Y0044988D01*
X0036115Y0044988D01*
X0036125Y0044999D01*
X0036136Y0044988D01*
X0039264Y0044988D01*
X0039275Y0044999D01*
X0039285Y0044988D01*
X0041869Y0044988D01*
X0041910Y0044948D01*
X0042165Y0044800D01*
X0041138Y0043773D01*
X0040518Y0042277D01*
X0040518Y0040657D01*
X0041138Y0039161D01*
X0042283Y0038015D01*
X0043780Y0037395D01*
X0045400Y0037395D01*
X0046896Y0038015D01*
X0048042Y0039161D01*
X0048661Y0040657D01*
X0048661Y0041146D01*
X0049019Y0040789D01*
X0050999Y0039969D01*
X0053141Y0039969D01*
X0055121Y0040789D01*
X0056636Y0042304D01*
X0057456Y0044283D01*
X0057456Y0054371D01*
X0057576Y0054081D01*
X0059011Y0052647D01*
X0060886Y0051870D01*
X0061403Y0051870D01*
X0060011Y0051294D01*
X0058576Y0049859D01*
X0057800Y0047985D01*
X0057800Y0045956D01*
X0058576Y0044081D01*
X0060011Y0042647D01*
X0061886Y0041870D01*
X0063914Y0041870D01*
X0065789Y0042647D01*
X0067224Y0044081D01*
X0068000Y0045956D01*
X0068000Y0047985D01*
X0067224Y0049859D01*
X0065789Y0051294D01*
X0063914Y0052070D01*
X0063397Y0052070D01*
X0064789Y0052647D01*
X0066224Y0054081D01*
X0067000Y0055956D01*
X0067000Y0057985D01*
X0066224Y0059859D01*
X0065558Y0060524D01*
X0065900Y0060866D01*
X0068500Y0063466D01*
X0068500Y0049166D01*
X0069496Y0048170D01*
X0077596Y0040070D01*
X0079396Y0040070D01*
X0079732Y0039734D01*
X0079732Y0039685D01*
X0079692Y0039645D01*
X0079455Y0039234D01*
X0079332Y0038776D01*
X0079332Y0038070D01*
X0070369Y0038070D01*
X0069900Y0037601D01*
X0069900Y0036670D01*
X0066100Y0036670D01*
X0065700Y0036270D01*
X0065700Y0018570D01*
X0015463Y0018570D01*
X0016178Y0018866D01*
X0018204Y0020892D01*
X0018597Y0021840D01*
X0018764Y0021438D01*
X0020279Y0019922D01*
X0022259Y0019102D01*
X0024401Y0019102D01*
X0026381Y0019922D01*
X0027896Y0021438D01*
X0028716Y0023417D01*
X0028716Y0033532D01*
X0027896Y0035512D01*
X0026381Y0037027D01*
X0024401Y0037847D01*
X0022259Y0037847D01*
X0020279Y0037027D01*
X0018764Y0035512D01*
X0017944Y0033532D01*
X0017944Y0029309D01*
X0016178Y0031074D01*
X0013532Y0032170D01*
X0010668Y0032170D01*
X0008022Y0031074D01*
X0006500Y0029552D01*
X0006500Y0168374D01*
X0007655Y0167218D01*
X0010669Y0165970D01*
X0013931Y0165970D01*
X0016945Y0167218D01*
X0019252Y0169525D01*
X0020500Y0172539D01*
X0020500Y0175801D01*
X0019252Y0178815D01*
X0018097Y0179970D01*
X0101296Y0179970D01*
X0100104Y0178778D01*
X0099912Y0178970D01*
X0095688Y0178970D01*
X0092800Y0176083D01*
X0089912Y0178970D01*
X0085688Y0178970D01*
X0082800Y0176083D01*
X0079912Y0178970D01*
X0075688Y0178970D01*
X0072800Y0176083D01*
X0069912Y0178970D01*
X0065688Y0178970D01*
X0062800Y0176083D01*
X0059912Y0178970D01*
X0055688Y0178970D01*
X0052800Y0176083D01*
X0049912Y0178970D01*
X0045688Y0178970D01*
X0042800Y0176083D01*
X0039912Y0178970D01*
X0035688Y0178970D01*
X0032800Y0176083D01*
X0029912Y0178970D01*
X0025688Y0178970D01*
X0022700Y0175983D01*
X0022700Y0171758D01*
X0025588Y0168870D01*
X0022700Y0165983D01*
X0022700Y0161758D01*
X0025688Y0158770D01*
X0029912Y0158770D01*
X0030254Y0159112D01*
X0039100Y0150266D01*
X0039100Y0148988D01*
X0038058Y0148988D01*
X0037238Y0148168D01*
X0037238Y0143859D01*
X0038058Y0143039D01*
X0042700Y0143039D01*
X0042700Y0141902D01*
X0038058Y0141902D01*
X0037238Y0141081D01*
X0037238Y0136772D01*
X0038058Y0135952D01*
X0041414Y0135952D01*
X0042400Y0134966D01*
X0042400Y0133674D01*
X0041741Y0133015D01*
X0040742Y0132601D01*
X0039969Y0131828D01*
X0039550Y0130817D01*
X0039550Y0129723D01*
X0039969Y0128712D01*
X0040742Y0127939D01*
X0041753Y0127520D01*
X0042847Y0127520D01*
X0043858Y0127939D01*
X0044631Y0128712D01*
X0045050Y0129723D01*
X0045050Y0130817D01*
X0044845Y0131311D01*
X0045700Y0132166D01*
X0045700Y0125559D01*
X0045069Y0124928D01*
X0044650Y0123917D01*
X0044650Y0123720D01*
X0044453Y0123720D01*
X0043442Y0123301D01*
X0042669Y0122528D01*
X0042603Y0122370D01*
X0029700Y0122370D01*
X0029700Y0124670D01*
X0026400Y0124670D01*
X0026400Y0124670D01*
X0023100Y0124670D01*
X0023100Y0124574D01*
X0021404Y0126270D01*
X0014300Y0126270D01*
X0014300Y0128250D01*
X0013480Y0129070D01*
X0009320Y0129070D01*
X0008500Y0128250D01*
X0008500Y0121090D01*
X0009320Y0120270D01*
X0011602Y0120270D01*
X0011213Y0119881D01*
X0011213Y0110060D01*
X0012033Y0109240D01*
X0027367Y0109240D01*
X0028187Y0110060D01*
X0028187Y0118970D01*
X0043111Y0118970D01*
X0043442Y0118639D01*
X0044453Y0118220D01*
X0045547Y0118220D01*
X0046558Y0118639D01*
X0047331Y0119412D01*
X0047750Y0120423D01*
X0047750Y0120620D01*
X0047900Y0120620D01*
X0047900Y0118478D01*
X0043674Y0114252D01*
X0042718Y0113296D01*
X0042200Y0112046D01*
X0042200Y0109496D01*
X0041711Y0109294D01*
X0041288Y0108870D01*
X0023224Y0108870D01*
X0021791Y0108276D01*
X0020694Y0107179D01*
X0016394Y0102879D01*
X0015800Y0101446D01*
X0015800Y0089794D01*
X0015900Y0089553D01*
X0015900Y0085590D01*
X0016443Y0085047D01*
X0016443Y0083387D01*
X0016369Y0083312D01*
X0016369Y0077428D01*
X0017189Y0076608D01*
X0017441Y0076608D01*
X0017074Y0076510D01*
X0016663Y0076273D01*
X0016328Y0075938D01*
X0016091Y0075527D01*
X0015969Y0075069D01*
X0015968Y0072470D01*
X0015969Y0072470D02*
X0015969Y0069871D01*
X0016091Y0069413D01*
X0016328Y0069003D01*
X0016663Y0068668D01*
X0017074Y0068431D01*
X0017532Y0068308D01*
X0019343Y0068308D01*
X0019343Y0072470D01*
X0015969Y0072470D01*
X0015968Y0072470D02*
X0019343Y0072470D01*
X0019343Y0072470D01*
X0019343Y0072470D01*
X0019343Y0068308D01*
X0021155Y0068308D01*
X0021613Y0068431D01*
X0022023Y0068668D01*
X0022358Y0069003D01*
X0022595Y0069413D01*
X0022718Y0069871D01*
X0022718Y0072470D01*
X0019343Y0072470D01*
X0019343Y0072470D01*
X0022718Y0072470D01*
X0022718Y0075069D01*
X0022595Y0075527D01*
X0022358Y0075938D01*
X0022023Y0076273D01*
X0021613Y0076510D01*
X0021246Y0076608D01*
X0021498Y0076608D01*
X0022318Y0077428D01*
X0022318Y0077470D01*
X0022582Y0077470D01*
X0022582Y0077428D01*
X0023402Y0076608D01*
X0027711Y0076608D01*
X0028531Y0077428D01*
X0028531Y0083312D01*
X0027711Y0084132D01*
X0023402Y0084132D01*
X0022582Y0083312D01*
X0022582Y0083270D01*
X0022318Y0083270D01*
X0022318Y0083312D01*
X0022243Y0083387D01*
X0022243Y0084770D01*
X0022680Y0084770D01*
X0023500Y0085590D01*
X0023500Y0089553D01*
X0023600Y0089794D01*
X0023600Y0099055D01*
X0025615Y0101070D01*
X0040400Y0101070D01*
X0040400Y0097460D01*
X0038650Y0095710D01*
X0038650Y0091030D01*
X0041960Y0087720D01*
X0046640Y0087720D01*
X0049950Y0091030D01*
X0049950Y0095710D01*
X0048200Y0097460D01*
X0048200Y0101358D01*
X0048924Y0102081D01*
X0049600Y0103714D01*
X0050276Y0102081D01*
X0051711Y0100647D01*
X0053586Y0099870D01*
X0055614Y0099870D01*
X0057489Y0100647D01*
X0058924Y0102081D01*
X0059600Y0103714D01*
X0059134Y0102590D02*
X0060066Y0102590D01*
X0061200Y0100991D02*
X0057834Y0100991D01*
X0061200Y0099393D02*
X0048200Y0099393D01*
X0048200Y0100991D02*
X0051366Y0100991D01*
X0050066Y0102590D02*
X0049134Y0102590D01*
X0048200Y0097794D02*
X0061200Y0097794D01*
X0061200Y0096196D02*
X0049465Y0096196D01*
X0049950Y0094597D02*
X0061200Y0094597D01*
X0061200Y0092999D02*
X0049950Y0092999D01*
X0049950Y0091400D02*
X0060268Y0091400D01*
X0051716Y0089802D02*
X0048722Y0089802D01*
X0050118Y0088203D02*
X0047123Y0088203D01*
X0041477Y0088203D02*
X0040026Y0088203D01*
X0039878Y0089802D02*
X0038427Y0089802D01*
X0038650Y0091400D02*
X0036829Y0091400D01*
X0035230Y0092999D02*
X0038650Y0092999D01*
X0038650Y0094597D02*
X0032600Y0094597D01*
X0031954Y0096196D02*
X0039135Y0096196D01*
X0040400Y0097794D02*
X0023600Y0097794D01*
X0023600Y0096196D02*
X0025646Y0096196D01*
X0025000Y0094597D02*
X0023600Y0094597D01*
X0023600Y0092999D02*
X0025000Y0092999D01*
X0024922Y0091400D02*
X0023600Y0091400D01*
X0023600Y0089802D02*
X0024900Y0089802D01*
X0025000Y0088203D02*
X0023500Y0088203D01*
X0023500Y0086605D02*
X0025000Y0086605D01*
X0025584Y0085006D02*
X0022916Y0085006D01*
X0022677Y0083408D02*
X0022243Y0083408D01*
X0016443Y0083408D02*
X0015136Y0083408D01*
X0015231Y0083312D02*
X0014411Y0084132D01*
X0014157Y0084132D01*
X0014157Y0085347D01*
X0014400Y0085590D01*
X0014400Y0095550D01*
X0013580Y0096370D01*
X0007620Y0096370D01*
X0006800Y0095550D01*
X0006800Y0085590D01*
X0007620Y0084770D01*
X0010357Y0084770D01*
X0010357Y0084132D01*
X0010102Y0084132D01*
X0009282Y0083312D01*
X0009282Y0077428D01*
X0010102Y0076608D01*
X0010357Y0076608D01*
X0010357Y0076232D01*
X0010102Y0076232D01*
X0009282Y0075412D01*
X0009282Y0069528D01*
X0010102Y0068708D01*
X0014411Y0068708D01*
X0015231Y0069528D01*
X0015231Y0075412D01*
X0014411Y0076232D01*
X0014157Y0076232D01*
X0014157Y0076608D01*
X0014411Y0076608D01*
X0015231Y0077428D01*
X0015231Y0083312D01*
X0015231Y0081809D02*
X0016369Y0081809D01*
X0016369Y0080211D02*
X0015231Y0080211D01*
X0015231Y0078612D02*
X0016369Y0078612D01*
X0016783Y0077014D02*
X0014817Y0077014D01*
X0015229Y0075415D02*
X0016061Y0075415D01*
X0015969Y0073816D02*
X0015231Y0073816D01*
X0015231Y0072218D02*
X0015969Y0072218D01*
X0015969Y0070619D02*
X0015231Y0070619D01*
X0014724Y0069021D02*
X0016318Y0069021D01*
X0019343Y0069021D02*
X0019343Y0069021D01*
X0019343Y0070619D02*
X0019343Y0070619D01*
X0019343Y0072218D02*
X0019343Y0072218D01*
X0022718Y0072218D02*
X0041447Y0072218D01*
X0039700Y0072552D02*
X0039700Y0075927D01*
X0039700Y0075927D01*
X0039700Y0072552D01*
X0039700Y0073816D02*
X0039700Y0073816D01*
X0039700Y0075415D02*
X0039700Y0075415D01*
X0036643Y0079179D02*
X0036233Y0078942D01*
X0036018Y0078727D01*
X0036018Y0080370D01*
X0032643Y0080370D01*
X0032643Y0080370D01*
X0036018Y0080370D01*
X0036018Y0080778D01*
X0036758Y0080039D01*
X0037159Y0080039D01*
X0037491Y0079707D01*
X0038470Y0079302D01*
X0037101Y0079302D01*
X0036643Y0079179D01*
X0036586Y0080211D02*
X0036018Y0080211D01*
X0032643Y0080211D02*
X0032643Y0080211D01*
X0032643Y0081809D02*
X0032643Y0081809D01*
X0032643Y0083408D02*
X0032643Y0083408D01*
X0032192Y0085006D02*
X0032016Y0085006D01*
X0029386Y0083408D02*
X0028436Y0083408D01*
X0028531Y0081809D02*
X0029269Y0081809D01*
X0029269Y0080211D02*
X0028531Y0080211D01*
X0028531Y0078612D02*
X0029269Y0078612D01*
X0029564Y0077014D02*
X0028117Y0077014D01*
X0032643Y0077014D02*
X0032643Y0077014D01*
X0032643Y0078612D02*
X0032643Y0078612D01*
X0035538Y0075415D02*
X0022625Y0075415D01*
X0022718Y0073816D02*
X0035618Y0073816D01*
X0039848Y0070619D02*
X0022718Y0070619D01*
X0022369Y0069021D02*
X0038250Y0069021D01*
X0036651Y0067422D02*
X0006500Y0067422D01*
X0006500Y0065824D02*
X0035053Y0065824D01*
X0033454Y0064225D02*
X0006500Y0064225D01*
X0006500Y0062627D02*
X0031856Y0062627D01*
X0030257Y0061028D02*
X0006500Y0061028D01*
X0006500Y0059430D02*
X0028659Y0059430D01*
X0027060Y0057831D02*
X0026443Y0057831D01*
X0020217Y0057831D02*
X0006500Y0057831D01*
X0006500Y0056233D02*
X0018704Y0056233D01*
X0018041Y0054634D02*
X0006500Y0054634D01*
X0006500Y0053036D02*
X0017944Y0053036D01*
X0017944Y0051437D02*
X0006500Y0051437D01*
X0006500Y0049839D02*
X0017944Y0049839D01*
X0017944Y0048240D02*
X0006500Y0048240D01*
X0006500Y0046642D02*
X0017944Y0046642D01*
X0014900Y0045043D02*
X0013900Y0045043D01*
X0013900Y0046120D02*
X0011894Y0046120D01*
X0008350Y0042576D01*
X0008350Y0040570D01*
X0013900Y0040570D01*
X0013900Y0039570D01*
X0014900Y0039570D01*
X0014900Y0034020D01*
X0016906Y0034020D01*
X0020450Y0037564D01*
X0020450Y0039570D01*
X0014900Y0039570D01*
X0014900Y0040570D01*
X0013900Y0040570D01*
X0013900Y0046120D01*
X0013900Y0043445D02*
X0014900Y0043445D01*
X0014900Y0041846D02*
X0013900Y0041846D01*
X0013900Y0040248D02*
X0006500Y0040248D01*
X0006500Y0041846D02*
X0008350Y0041846D01*
X0009219Y0043445D02*
X0006500Y0043445D01*
X0006500Y0045043D02*
X0010817Y0045043D01*
X0008350Y0039570D02*
X0008350Y0037564D01*
X0011894Y0034020D01*
X0013900Y0034020D01*
X0013900Y0039570D01*
X0008350Y0039570D01*
X0008350Y0038649D02*
X0006500Y0038649D01*
X0006500Y0037051D02*
X0008863Y0037051D01*
X0010462Y0035452D02*
X0006500Y0035452D01*
X0006500Y0033854D02*
X0018077Y0033854D01*
X0017944Y0032255D02*
X0006500Y0032255D01*
X0006500Y0030657D02*
X0007604Y0030657D01*
X0013900Y0035452D02*
X0014900Y0035452D01*
X0014900Y0037051D02*
X0013900Y0037051D01*
X0013900Y0038649D02*
X0014900Y0038649D01*
X0014900Y0040248D02*
X0021584Y0040248D01*
X0020450Y0038649D02*
X0027870Y0038649D01*
X0026908Y0040248D02*
X0025075Y0040248D01*
X0026324Y0037051D02*
X0049076Y0037051D01*
X0049019Y0037027D02*
X0047504Y0035512D01*
X0046684Y0033532D01*
X0046684Y0023417D01*
X0047504Y0021438D01*
X0049019Y0019922D01*
X0050999Y0019102D01*
X0053141Y0019102D01*
X0055121Y0019922D01*
X0056636Y0021438D01*
X0057456Y0023417D01*
X0057456Y0033532D01*
X0056636Y0035512D01*
X0055121Y0037027D01*
X0053141Y0037847D01*
X0050999Y0037847D01*
X0049019Y0037027D01*
X0047530Y0038649D02*
X0079332Y0038649D01*
X0077418Y0040248D02*
X0053816Y0040248D01*
X0056179Y0041846D02*
X0075820Y0041846D01*
X0074600Y0041570D02*
X0074600Y0037732D01*
X0083494Y0037732D01*
X0125306Y0037732D01*
X0121143Y0038070D02*
X0121143Y0038776D01*
X0121209Y0039020D01*
X0120353Y0039020D01*
X0119342Y0039439D01*
X0118569Y0040212D01*
X0118155Y0041211D01*
X0112096Y0047270D01*
X0093887Y0047270D01*
X0093950Y0047117D01*
X0093950Y0046023D01*
X0093531Y0045012D01*
X0092758Y0044239D01*
X0091747Y0043820D01*
X0090854Y0043820D01*
X0089300Y0042266D01*
X0089300Y0042266D01*
X0088304Y0041270D01*
X0087257Y0041270D01*
X0087257Y0039685D01*
X0087297Y0039645D01*
X0087534Y0039234D01*
X0087657Y0038776D01*
X0087657Y0038070D01*
X0121143Y0038070D01*
X0121143Y0038649D02*
X0087657Y0038649D01*
X0087257Y0040248D02*
X0118554Y0040248D01*
X0117520Y0041846D02*
X0088880Y0041846D01*
X0090479Y0043445D02*
X0115921Y0043445D01*
X0114323Y0045043D02*
X0093544Y0045043D01*
X0093950Y0046642D02*
X0112724Y0046642D01*
X0129068Y0052342D02*
X0129068Y0055334D01*
X0158504Y0084770D01*
X0158609Y0084875D01*
X0158875Y0084875D01*
X0160676Y0085621D01*
X0162054Y0086999D01*
X0162800Y0088800D01*
X0162800Y0090749D01*
X0162054Y0092550D01*
X0160676Y0093929D01*
X0158875Y0094675D01*
X0156925Y0094675D01*
X0155124Y0093929D01*
X0155000Y0093804D01*
X0155000Y0094766D01*
X0190604Y0130370D01*
X0191600Y0131366D01*
X0191600Y0134928D01*
X0192224Y0134670D01*
X0192550Y0134670D01*
X0192550Y0133923D01*
X0192969Y0132912D01*
X0193600Y0132281D01*
X0193600Y0116874D01*
X0129068Y0052342D01*
X0129068Y0053036D02*
X0129762Y0053036D01*
X0129068Y0054634D02*
X0131360Y0054634D01*
X0129967Y0056233D02*
X0132959Y0056233D01*
X0131565Y0057831D02*
X0134557Y0057831D01*
X0133164Y0059430D02*
X0136156Y0059430D01*
X0134762Y0061028D02*
X0137754Y0061028D01*
X0136361Y0062627D02*
X0139353Y0062627D01*
X0137959Y0064225D02*
X0140951Y0064225D01*
X0139558Y0065824D02*
X0142550Y0065824D01*
X0141157Y0067422D02*
X0144148Y0067422D01*
X0142755Y0069021D02*
X0145747Y0069021D01*
X0144354Y0070619D02*
X0147345Y0070619D01*
X0145952Y0072218D02*
X0148944Y0072218D01*
X0147551Y0073816D02*
X0150542Y0073816D01*
X0149149Y0075415D02*
X0152141Y0075415D01*
X0150748Y0077014D02*
X0153739Y0077014D01*
X0152346Y0078612D02*
X0155338Y0078612D01*
X0153945Y0080211D02*
X0156936Y0080211D01*
X0155543Y0081809D02*
X0158535Y0081809D01*
X0157142Y0083408D02*
X0160133Y0083408D01*
X0159192Y0085006D02*
X0161732Y0085006D01*
X0161659Y0086605D02*
X0163330Y0086605D01*
X0162553Y0088203D02*
X0164929Y0088203D01*
X0166527Y0089802D02*
X0162800Y0089802D01*
X0162530Y0091400D02*
X0168126Y0091400D01*
X0169724Y0092999D02*
X0161606Y0092999D01*
X0159062Y0094597D02*
X0171323Y0094597D01*
X0172921Y0096196D02*
X0156430Y0096196D01*
X0156738Y0094597D02*
X0155000Y0094597D01*
X0150400Y0094597D02*
X0132852Y0094597D01*
X0133000Y0094956D02*
X0133000Y0096985D01*
X0132537Y0098103D01*
X0134300Y0099866D01*
X0134300Y0108774D01*
X0130604Y0112470D01*
X0125296Y0112470D01*
X0124996Y0112170D01*
X0110383Y0112170D01*
X0110083Y0112470D01*
X0145576Y0112470D01*
X0146826Y0112988D01*
X0147782Y0113944D01*
X0147782Y0113944D01*
X0166238Y0132400D01*
X0166238Y0131059D01*
X0167058Y0130239D01*
X0172942Y0130239D01*
X0173250Y0130546D01*
X0173658Y0130139D01*
X0179542Y0130139D01*
X0180362Y0130959D01*
X0180362Y0135268D01*
X0179964Y0135666D01*
X0180268Y0135970D01*
X0180505Y0136381D01*
X0180628Y0136839D01*
X0180628Y0138650D01*
X0178259Y0138650D01*
X0178259Y0138650D01*
X0180628Y0138650D01*
X0180628Y0139711D01*
X0181474Y0139711D01*
X0181733Y0139970D01*
X0184111Y0139970D01*
X0184742Y0139339D01*
X0185753Y0138920D01*
X0186847Y0138920D01*
X0187000Y0138983D01*
X0187000Y0133374D01*
X0180762Y0127136D01*
X0180762Y0127839D01*
X0180640Y0128296D01*
X0180403Y0128707D01*
X0180067Y0129042D01*
X0179657Y0129279D01*
X0179199Y0129402D01*
X0176600Y0129402D01*
X0174001Y0129402D01*
X0173543Y0129279D01*
X0173387Y0129189D01*
X0173057Y0129379D01*
X0172599Y0129502D01*
X0170000Y0129502D01*
X0167401Y0129502D01*
X0166943Y0129379D01*
X0166533Y0129142D01*
X0166197Y0128807D01*
X0165960Y0128396D01*
X0165838Y0127939D01*
X0165838Y0126127D01*
X0170000Y0126127D01*
X0170000Y0126127D01*
X0170000Y0129502D01*
X0170000Y0126127D01*
X0170000Y0126127D01*
X0165838Y0126127D01*
X0165838Y0124315D01*
X0165960Y0123857D01*
X0166197Y0123447D01*
X0166533Y0123112D01*
X0166943Y0122875D01*
X0167401Y0122752D01*
X0170000Y0122752D01*
X0172599Y0122752D01*
X0173057Y0122875D01*
X0173213Y0122965D01*
X0173543Y0122775D01*
X0174001Y0122652D01*
X0176278Y0122652D01*
X0150400Y0096774D01*
X0150400Y0087774D01*
X0141500Y0078874D01*
X0141500Y0078985D01*
X0140724Y0080859D01*
X0139289Y0082294D01*
X0137414Y0083070D01*
X0135386Y0083070D01*
X0133511Y0082294D01*
X0132076Y0080859D01*
X0131400Y0079226D01*
X0130724Y0080859D01*
X0129289Y0082294D01*
X0127414Y0083070D01*
X0125504Y0083070D01*
X0114104Y0094470D01*
X0110644Y0094470D01*
X0110644Y0096555D01*
X0110629Y0096570D01*
X0110644Y0096585D01*
X0110644Y0098570D01*
X0122804Y0098570D01*
X0125626Y0101392D01*
X0126644Y0100970D01*
X0125011Y0100294D01*
X0123576Y0098859D01*
X0122800Y0096985D01*
X0122800Y0094956D01*
X0123576Y0093081D01*
X0125011Y0091647D01*
X0126886Y0090870D01*
X0128914Y0090870D01*
X0130789Y0091647D01*
X0132224Y0093081D01*
X0133000Y0094956D01*
X0133000Y0096196D02*
X0150400Y0096196D01*
X0151420Y0097794D02*
X0132665Y0097794D01*
X0133827Y0099393D02*
X0153018Y0099393D01*
X0154617Y0100991D02*
X0134300Y0100991D01*
X0134300Y0102590D02*
X0156215Y0102590D01*
X0157814Y0104188D02*
X0134300Y0104188D01*
X0134300Y0105787D02*
X0159412Y0105787D01*
X0161011Y0107385D02*
X0134300Y0107385D01*
X0134090Y0108984D02*
X0162610Y0108984D01*
X0164208Y0110582D02*
X0160187Y0110582D01*
X0159934Y0110454D02*
X0160678Y0110832D01*
X0161353Y0111323D01*
X0161943Y0111913D01*
X0162433Y0112588D01*
X0162812Y0113331D01*
X0163069Y0114124D01*
X0163200Y0114948D01*
X0163200Y0115280D01*
X0157986Y0115280D01*
X0157986Y0115451D01*
X0163200Y0115451D01*
X0163200Y0115782D01*
X0163069Y0116606D01*
X0162812Y0117400D01*
X0162433Y0118143D01*
X0161943Y0118818D01*
X0161353Y0119408D01*
X0160678Y0119898D01*
X0159934Y0120277D01*
X0159141Y0120535D01*
X0158317Y0120665D01*
X0157986Y0120665D01*
X0157986Y0115451D01*
X0157814Y0115451D01*
X0157814Y0115280D01*
X0152600Y0115280D01*
X0152600Y0114948D01*
X0152730Y0114124D01*
X0152988Y0113331D01*
X0153367Y0112588D01*
X0153857Y0111913D01*
X0154447Y0111323D01*
X0155122Y0110832D01*
X0155866Y0110454D01*
X0156659Y0110196D01*
X0157483Y0110065D01*
X0157814Y0110065D01*
X0157814Y0115279D01*
X0157986Y0115279D01*
X0157986Y0110065D01*
X0158317Y0110065D01*
X0159141Y0110196D01*
X0159934Y0110454D01*
X0157986Y0110582D02*
X0157814Y0110582D01*
X0157814Y0112181D02*
X0157986Y0112181D01*
X0157986Y0113779D02*
X0157814Y0113779D01*
X0157814Y0115378D02*
X0149216Y0115378D01*
X0150815Y0116976D02*
X0152851Y0116976D01*
X0152730Y0116606D02*
X0152600Y0115782D01*
X0152600Y0115451D01*
X0157814Y0115451D01*
X0157814Y0120665D01*
X0157483Y0120665D01*
X0156659Y0120535D01*
X0155866Y0120277D01*
X0155122Y0119898D01*
X0154447Y0119408D01*
X0153857Y0118818D01*
X0153367Y0118143D01*
X0152988Y0117400D01*
X0152730Y0116606D01*
X0152413Y0118575D02*
X0153681Y0118575D01*
X0154012Y0120173D02*
X0155662Y0120173D01*
X0155610Y0121772D02*
X0175398Y0121772D01*
X0173799Y0120173D02*
X0160138Y0120173D01*
X0157986Y0120173D02*
X0157814Y0120173D01*
X0157814Y0118575D02*
X0157986Y0118575D01*
X0157986Y0116976D02*
X0157814Y0116976D01*
X0157986Y0115378D02*
X0169004Y0115378D01*
X0170602Y0116976D02*
X0162949Y0116976D01*
X0162119Y0118575D02*
X0172201Y0118575D01*
X0177210Y0116976D02*
X0193600Y0116976D01*
X0193600Y0118575D02*
X0178809Y0118575D01*
X0180407Y0120173D02*
X0193600Y0120173D01*
X0193600Y0121772D02*
X0182006Y0121772D01*
X0183604Y0123370D02*
X0193600Y0123370D01*
X0193600Y0124969D02*
X0185203Y0124969D01*
X0186801Y0126567D02*
X0193600Y0126567D01*
X0193600Y0128166D02*
X0188400Y0128166D01*
X0189998Y0129764D02*
X0193600Y0129764D01*
X0193600Y0131363D02*
X0191597Y0131363D01*
X0191600Y0132961D02*
X0192948Y0132961D01*
X0192550Y0134560D02*
X0191600Y0134560D01*
X0187000Y0134560D02*
X0180362Y0134560D01*
X0180376Y0136158D02*
X0187000Y0136158D01*
X0187000Y0137757D02*
X0180628Y0137757D01*
X0180628Y0139355D02*
X0184726Y0139355D01*
X0184111Y0143370D02*
X0182694Y0143370D01*
X0182694Y0143670D01*
X0181496Y0143670D01*
X0181496Y0143670D01*
X0181496Y0143670D01*
X0182694Y0143670D01*
X0182694Y0144498D01*
X0182572Y0144955D01*
X0182335Y0145366D01*
X0182294Y0145406D01*
X0182294Y0146809D01*
X0181474Y0147629D01*
X0180228Y0147629D01*
X0180228Y0150844D01*
X0179407Y0151665D01*
X0178005Y0151665D01*
X0177964Y0151705D01*
X0177554Y0151942D01*
X0177096Y0152065D01*
X0176269Y0152065D01*
X0176269Y0150867D01*
X0176268Y0150866D01*
X0176268Y0150867D01*
X0176268Y0152065D01*
X0175441Y0152065D01*
X0174983Y0151942D01*
X0174573Y0151705D01*
X0174532Y0151665D01*
X0174068Y0151665D01*
X0174027Y0151705D01*
X0173617Y0151942D01*
X0173159Y0152065D01*
X0172332Y0152065D01*
X0172332Y0150867D01*
X0172331Y0150866D01*
X0172331Y0150867D01*
X0172331Y0152065D01*
X0171504Y0152065D01*
X0171046Y0151942D01*
X0170636Y0151705D01*
X0170595Y0151665D01*
X0169193Y0151665D01*
X0168372Y0150844D01*
X0168372Y0147629D01*
X0167126Y0147629D01*
X0166835Y0147339D01*
X0166018Y0147339D01*
X0166018Y0148012D01*
X0165198Y0148832D01*
X0160889Y0148832D01*
X0160069Y0148012D01*
X0160069Y0142128D01*
X0160889Y0141308D01*
X0161343Y0141308D01*
X0161343Y0137946D01*
X0161756Y0137534D01*
X0154400Y0130178D01*
X0154400Y0140908D01*
X0155957Y0140908D01*
X0157768Y0140908D01*
X0158226Y0141031D01*
X0158637Y0141268D01*
X0158972Y0141603D01*
X0159209Y0142013D01*
X0159331Y0142471D01*
X0159331Y0145070D01*
X0155957Y0145070D01*
X0155957Y0145070D01*
X0159331Y0145070D01*
X0159331Y0147669D01*
X0159209Y0148127D01*
X0158972Y0148538D01*
X0158637Y0148873D01*
X0158226Y0149110D01*
X0157768Y0149232D01*
X0155957Y0149232D01*
X0155957Y0145070D01*
X0155957Y0140908D01*
X0155957Y0145070D01*
X0155957Y0145070D01*
X0155957Y0145070D01*
X0155957Y0149232D01*
X0154145Y0149232D01*
X0153687Y0149110D01*
X0153277Y0148873D01*
X0152942Y0148538D01*
X0152705Y0148127D01*
X0152671Y0148003D01*
X0151834Y0148840D01*
X0151834Y0151518D01*
X0151014Y0152338D01*
X0146586Y0152338D01*
X0145766Y0151518D01*
X0145766Y0151470D01*
X0145604Y0151470D01*
X0144500Y0152574D01*
X0143504Y0153570D01*
X0125904Y0153570D01*
X0131000Y0158666D01*
X0131000Y0158970D01*
X0131512Y0158970D01*
X0133454Y0160912D01*
X0135700Y0158666D01*
X0136696Y0157670D01*
X0165404Y0157670D01*
X0166996Y0159262D01*
X0167288Y0158970D01*
X0171512Y0158970D01*
X0174400Y0161858D01*
X0177288Y0158970D01*
X0181512Y0158970D01*
X0184500Y0161958D01*
X0184500Y0166183D01*
X0181612Y0169070D01*
X0181804Y0169262D01*
X0187000Y0164066D01*
X0187000Y0144357D01*
X0186847Y0144420D01*
X0185753Y0144420D01*
X0184742Y0144001D01*
X0184111Y0143370D01*
X0185103Y0144151D02*
X0182694Y0144151D01*
X0182294Y0145749D02*
X0187000Y0145749D01*
X0187000Y0147348D02*
X0181755Y0147348D01*
X0180228Y0148947D02*
X0187000Y0148947D01*
X0187000Y0150545D02*
X0180228Y0150545D01*
X0176269Y0146513D02*
X0176269Y0145315D01*
X0176275Y0145315D01*
X0176068Y0144955D01*
X0175948Y0144511D01*
X0175858Y0144601D01*
X0174847Y0145020D01*
X0173753Y0145020D01*
X0172742Y0144601D01*
X0172255Y0144114D01*
X0172255Y0144468D01*
X0172255Y0145315D01*
X0172331Y0145315D01*
X0172331Y0146513D01*
X0172331Y0146513D01*
X0172332Y0146513D01*
X0172332Y0145315D01*
X0173159Y0145315D01*
X0173617Y0145438D01*
X0174027Y0145675D01*
X0174068Y0145715D01*
X0174532Y0145715D01*
X0174573Y0145675D01*
X0174983Y0145438D01*
X0175441Y0145315D01*
X0176268Y0145315D01*
X0176268Y0146513D01*
X0176268Y0146513D01*
X0176269Y0146513D01*
X0176268Y0145749D02*
X0176269Y0145749D01*
X0172332Y0145749D02*
X0172331Y0145749D01*
X0172292Y0144151D02*
X0172255Y0144151D01*
X0166845Y0147348D02*
X0166018Y0147348D01*
X0168372Y0148947D02*
X0158509Y0148947D01*
X0159331Y0147348D02*
X0160069Y0147348D01*
X0160069Y0145749D02*
X0159331Y0145749D01*
X0159331Y0144151D02*
X0160069Y0144151D01*
X0160069Y0142552D02*
X0159331Y0142552D01*
X0157940Y0140954D02*
X0161343Y0140954D01*
X0161343Y0139355D02*
X0154400Y0139355D01*
X0154400Y0137757D02*
X0161533Y0137757D01*
X0160380Y0136158D02*
X0154400Y0136158D01*
X0154400Y0134560D02*
X0158782Y0134560D01*
X0157183Y0132961D02*
X0154400Y0132961D01*
X0154400Y0131363D02*
X0155585Y0131363D01*
X0148600Y0131363D02*
X0141462Y0131363D01*
X0141462Y0132528D02*
X0146936Y0138002D01*
X0148600Y0138002D01*
X0148600Y0130959D01*
X0147969Y0130328D01*
X0147550Y0129317D01*
X0147550Y0128223D01*
X0147924Y0127320D01*
X0147353Y0127320D01*
X0146342Y0126901D01*
X0145569Y0126128D01*
X0145150Y0125117D01*
X0145150Y0124023D01*
X0145569Y0123012D01*
X0146342Y0122239D01*
X0146426Y0122204D01*
X0143492Y0119270D01*
X0141221Y0119270D01*
X0141462Y0119512D01*
X0141462Y0122628D01*
X0139258Y0124832D01*
X0136142Y0124832D01*
X0133979Y0122670D01*
X0131421Y0122670D01*
X0129258Y0124832D01*
X0126142Y0124832D01*
X0123979Y0122670D01*
X0121421Y0122670D01*
X0119258Y0124832D01*
X0116142Y0124832D01*
X0113938Y0122628D01*
X0113938Y0119512D01*
X0114179Y0119270D01*
X0111221Y0119270D01*
X0111462Y0119512D01*
X0111462Y0122628D01*
X0109258Y0124832D01*
X0106142Y0124832D01*
X0103979Y0122670D01*
X0101421Y0122670D01*
X0099258Y0124832D01*
X0096142Y0124832D01*
X0095882Y0124573D01*
X0095582Y0125296D01*
X0092882Y0127996D01*
X0091926Y0128952D01*
X0091203Y0129252D01*
X0091462Y0129512D01*
X0091462Y0131728D01*
X0092504Y0132770D01*
X0094079Y0132770D01*
X0093938Y0132628D01*
X0093938Y0129512D01*
X0096142Y0127308D01*
X0099258Y0127308D01*
X0101421Y0129470D01*
X0102404Y0129470D01*
X0103400Y0130466D01*
X0103938Y0131004D01*
X0103938Y0129512D01*
X0106142Y0127308D01*
X0109258Y0127308D01*
X0111421Y0129470D01*
X0112304Y0129470D01*
X0113300Y0130466D01*
X0113938Y0131104D01*
X0113938Y0129512D01*
X0116142Y0127308D01*
X0119258Y0127308D01*
X0121462Y0129512D01*
X0121462Y0131728D01*
X0128504Y0138770D01*
X0129819Y0138770D01*
X0130586Y0138002D01*
X0132228Y0138002D01*
X0129058Y0134832D01*
X0126142Y0134832D01*
X0123938Y0132628D01*
X0123938Y0129512D01*
X0126142Y0127308D01*
X0129258Y0127308D01*
X0131462Y0129512D01*
X0131462Y0132428D01*
X0137804Y0138770D01*
X0137819Y0138770D01*
X0138586Y0138002D01*
X0142128Y0138002D01*
X0138958Y0134832D01*
X0136142Y0134832D01*
X0133938Y0132628D01*
X0133938Y0129512D01*
X0136142Y0127308D01*
X0139258Y0127308D01*
X0141462Y0129512D01*
X0141462Y0132528D01*
X0141895Y0132961D02*
X0148600Y0132961D01*
X0148600Y0134560D02*
X0143494Y0134560D01*
X0145093Y0136158D02*
X0148600Y0136158D01*
X0148600Y0137757D02*
X0146691Y0137757D01*
X0141883Y0137757D02*
X0136791Y0137757D01*
X0135193Y0136158D02*
X0140284Y0136158D01*
X0135869Y0134560D02*
X0133594Y0134560D01*
X0134271Y0132961D02*
X0131995Y0132961D01*
X0131462Y0131363D02*
X0133938Y0131363D01*
X0133938Y0129764D02*
X0131462Y0129764D01*
X0130116Y0128166D02*
X0135284Y0128166D01*
X0140116Y0128166D02*
X0147574Y0128166D01*
X0147735Y0129764D02*
X0141462Y0129764D01*
X0146008Y0126567D02*
X0094311Y0126567D01*
X0095284Y0128166D02*
X0092713Y0128166D01*
X0093938Y0129764D02*
X0091462Y0129764D01*
X0091462Y0131363D02*
X0093938Y0131363D01*
X0100116Y0128166D02*
X0105284Y0128166D01*
X0103938Y0129764D02*
X0102698Y0129764D01*
X0110116Y0128166D02*
X0115284Y0128166D01*
X0113938Y0129764D02*
X0112598Y0129764D01*
X0120116Y0128166D02*
X0125284Y0128166D01*
X0123938Y0129764D02*
X0121462Y0129764D01*
X0121462Y0131363D02*
X0123938Y0131363D01*
X0124271Y0132961D02*
X0122695Y0132961D01*
X0124294Y0134560D02*
X0125869Y0134560D01*
X0125892Y0136158D02*
X0130384Y0136158D01*
X0131983Y0137757D02*
X0127491Y0137757D01*
X0115664Y0152338D02*
X0115636Y0152338D01*
X0114404Y0153570D01*
X0095896Y0153570D01*
X0094900Y0152574D01*
X0094339Y0152013D01*
X0094014Y0152338D01*
X0089586Y0152338D01*
X0088766Y0151518D01*
X0088766Y0150708D01*
X0088304Y0151170D01*
X0087834Y0151170D01*
X0087834Y0151518D01*
X0087014Y0152338D01*
X0085372Y0152338D01*
X0091445Y0158411D01*
X0091569Y0158112D01*
X0092342Y0157339D01*
X0093353Y0156920D01*
X0094447Y0156920D01*
X0095458Y0157339D01*
X0095489Y0157370D01*
X0111704Y0157370D01*
X0112700Y0158366D01*
X0115296Y0160962D01*
X0117288Y0158970D01*
X0121512Y0158970D01*
X0124400Y0161858D01*
X0126892Y0159366D01*
X0123955Y0156429D01*
X0123831Y0156728D01*
X0123058Y0157501D01*
X0122047Y0157920D01*
X0120953Y0157920D01*
X0119942Y0157501D01*
X0119169Y0156728D01*
X0118750Y0155717D01*
X0118750Y0155424D01*
X0115664Y0152338D01*
X0117068Y0153742D02*
X0086776Y0153742D01*
X0087208Y0152144D02*
X0089392Y0152144D01*
X0088375Y0155341D02*
X0118666Y0155341D01*
X0119380Y0156939D02*
X0094493Y0156939D01*
X0093307Y0156939D02*
X0089973Y0156939D01*
X0094208Y0152144D02*
X0094469Y0152144D01*
X0112872Y0158538D02*
X0126063Y0158538D01*
X0126122Y0160136D02*
X0122678Y0160136D01*
X0124277Y0161735D02*
X0124523Y0161735D01*
X0124465Y0156939D02*
X0123620Y0156939D01*
X0127675Y0155341D02*
X0187000Y0155341D01*
X0187000Y0156939D02*
X0129273Y0156939D01*
X0130872Y0158538D02*
X0135828Y0158538D01*
X0134230Y0160136D02*
X0132678Y0160136D01*
X0126076Y0153742D02*
X0187000Y0153742D01*
X0187000Y0152144D02*
X0151208Y0152144D01*
X0151834Y0150545D02*
X0168372Y0150545D01*
X0166272Y0158538D02*
X0187000Y0158538D01*
X0187000Y0160136D02*
X0182678Y0160136D01*
X0184277Y0161735D02*
X0187000Y0161735D01*
X0187000Y0163333D02*
X0184500Y0163333D01*
X0184500Y0164932D02*
X0186134Y0164932D01*
X0184536Y0166530D02*
X0184152Y0166530D01*
X0182937Y0168129D02*
X0182554Y0168129D01*
X0174523Y0161735D02*
X0174277Y0161735D01*
X0172678Y0160136D02*
X0176121Y0160136D01*
X0155957Y0148947D02*
X0155957Y0148947D01*
X0155957Y0147348D02*
X0155957Y0147348D01*
X0155957Y0145749D02*
X0155957Y0145749D01*
X0155957Y0144151D02*
X0155957Y0144151D01*
X0155957Y0142552D02*
X0155957Y0142552D01*
X0155957Y0140954D02*
X0155957Y0140954D01*
X0153405Y0148947D02*
X0151834Y0148947D01*
X0146392Y0152144D02*
X0144931Y0152144D01*
X0165201Y0131363D02*
X0166238Y0131363D01*
X0163603Y0129764D02*
X0183390Y0129764D01*
X0181792Y0128166D02*
X0180674Y0128166D01*
X0180362Y0131363D02*
X0184989Y0131363D01*
X0186587Y0132961D02*
X0180362Y0132961D01*
X0176600Y0129402D02*
X0176600Y0126027D01*
X0176600Y0126027D01*
X0176600Y0129402D01*
X0176600Y0128166D02*
X0176600Y0128166D01*
X0176600Y0126567D02*
X0176600Y0126567D01*
X0170000Y0126567D02*
X0170000Y0126567D01*
X0170000Y0126127D02*
X0170000Y0122752D01*
X0170000Y0126127D01*
X0170000Y0126127D01*
X0170000Y0124969D02*
X0170000Y0124969D01*
X0170000Y0123370D02*
X0170000Y0123370D01*
X0166274Y0123370D02*
X0157209Y0123370D01*
X0158807Y0124969D02*
X0165838Y0124969D01*
X0165838Y0126567D02*
X0160406Y0126567D01*
X0162004Y0128166D02*
X0165899Y0128166D01*
X0170000Y0128166D02*
X0170000Y0128166D01*
X0175612Y0115378D02*
X0192104Y0115378D01*
X0190505Y0113779D02*
X0174013Y0113779D01*
X0172415Y0112181D02*
X0188907Y0112181D01*
X0187308Y0110582D02*
X0170816Y0110582D01*
X0169218Y0108984D02*
X0185710Y0108984D01*
X0184111Y0107385D02*
X0167619Y0107385D01*
X0166021Y0105787D02*
X0182512Y0105787D01*
X0180914Y0104188D02*
X0164422Y0104188D01*
X0162824Y0102590D02*
X0179315Y0102590D01*
X0177717Y0100991D02*
X0161225Y0100991D01*
X0159627Y0099393D02*
X0176118Y0099393D01*
X0174520Y0097794D02*
X0158028Y0097794D01*
X0150400Y0092999D02*
X0132141Y0092999D01*
X0130194Y0091400D02*
X0150400Y0091400D01*
X0150400Y0089802D02*
X0118773Y0089802D01*
X0117174Y0091400D02*
X0125606Y0091400D01*
X0123659Y0092999D02*
X0115576Y0092999D01*
X0112696Y0091070D02*
X0122492Y0081274D01*
X0122076Y0080859D01*
X0121300Y0078985D01*
X0121300Y0078874D01*
X0115904Y0084270D01*
X0110644Y0084270D01*
X0110644Y0085783D01*
X0110684Y0085823D01*
X0110921Y0086234D01*
X0111044Y0086691D01*
X0111044Y0087613D01*
X0106494Y0087613D01*
X0106494Y0087613D01*
X0111044Y0087613D01*
X0111044Y0088535D01*
X0110948Y0088893D01*
X0111044Y0089250D01*
X0111044Y0090172D01*
X0106494Y0090172D01*
X0106494Y0087687D01*
X0106494Y0087614D01*
X0106494Y0087614D01*
X0106494Y0090172D01*
X0106494Y0090172D01*
X0106494Y0090172D01*
X0111044Y0090172D01*
X0111044Y0091070D01*
X0112696Y0091070D01*
X0113964Y0089802D02*
X0111044Y0089802D01*
X0111044Y0088203D02*
X0115563Y0088203D01*
X0117161Y0086605D02*
X0111020Y0086605D01*
X0110644Y0085006D02*
X0118760Y0085006D01*
X0120358Y0083408D02*
X0116767Y0083408D01*
X0118365Y0081809D02*
X0121957Y0081809D01*
X0121808Y0080211D02*
X0119964Y0080211D01*
X0125167Y0083408D02*
X0146033Y0083408D01*
X0147632Y0085006D02*
X0123568Y0085006D01*
X0121970Y0086605D02*
X0149230Y0086605D01*
X0150400Y0088203D02*
X0120371Y0088203D01*
X0122948Y0094597D02*
X0110644Y0094597D01*
X0110644Y0096196D02*
X0122800Y0096196D01*
X0123135Y0097794D02*
X0110644Y0097794D01*
X0111023Y0101970D02*
X0121396Y0101970D01*
X0123263Y0103837D01*
X0122800Y0104956D01*
X0122800Y0106985D01*
X0123540Y0108770D01*
X0110644Y0108770D01*
X0110644Y0107357D01*
X0110684Y0107317D01*
X0110921Y0106907D01*
X0111044Y0106449D01*
X0111044Y0105527D01*
X0106494Y0105527D01*
X0106494Y0105527D01*
X0111044Y0105527D01*
X0111044Y0104605D01*
X0110948Y0104247D01*
X0111044Y0103890D01*
X0111044Y0102968D01*
X0106494Y0102968D01*
X0106494Y0102968D01*
X0106494Y0102968D01*
X0106494Y0103042D01*
X0106494Y0105527D01*
X0106494Y0105527D01*
X0106494Y0105527D01*
X0101944Y0105527D01*
X0101944Y0106449D01*
X0102066Y0106907D01*
X0102303Y0107317D01*
X0102344Y0107357D01*
X0102344Y0109351D01*
X0102358Y0109365D01*
X0102344Y0109380D01*
X0102344Y0111910D01*
X0102904Y0112470D01*
X0094724Y0112470D01*
X0093474Y0112988D01*
X0092550Y0113912D01*
X0092200Y0113562D01*
X0092200Y0106061D01*
X0092265Y0105783D01*
X0092200Y0105391D01*
X0092200Y0104994D01*
X0092091Y0104730D01*
X0092044Y0104449D01*
X0091834Y0104111D01*
X0091682Y0103744D01*
X0091481Y0103542D01*
X0091330Y0103300D01*
X0091007Y0103069D01*
X0090726Y0102788D01*
X0090462Y0102679D01*
X0090300Y0102562D01*
X0090300Y0095520D01*
X0090847Y0095520D01*
X0091858Y0095101D01*
X0092631Y0094328D01*
X0093050Y0093317D01*
X0093050Y0092424D01*
X0102344Y0083131D01*
X0102344Y0083760D01*
X0102358Y0083775D01*
X0102344Y0083789D01*
X0102344Y0085783D01*
X0102303Y0085823D01*
X0102066Y0086234D01*
X0101944Y0086691D01*
X0101944Y0087613D01*
X0106494Y0087613D01*
X0106494Y0087613D01*
X0101944Y0087613D01*
X0101944Y0088535D01*
X0102039Y0088893D01*
X0101944Y0089250D01*
X0101944Y0090172D01*
X0106494Y0090172D01*
X0106494Y0090172D01*
X0101944Y0090172D01*
X0101944Y0091094D01*
X0102066Y0091552D01*
X0102303Y0091963D01*
X0102344Y0092003D01*
X0102344Y0093996D01*
X0102358Y0094011D01*
X0102344Y0094026D01*
X0102344Y0096555D01*
X0102358Y0096570D01*
X0102344Y0096585D01*
X0102344Y0099115D01*
X0102358Y0099129D01*
X0102344Y0099144D01*
X0102344Y0101137D01*
X0102303Y0101177D01*
X0102066Y0101588D01*
X0101944Y0102046D01*
X0101944Y0102968D01*
X0106494Y0102968D01*
X0111044Y0102968D01*
X0111044Y0102046D01*
X0111023Y0101970D01*
X0111044Y0102590D02*
X0122015Y0102590D01*
X0123118Y0104188D02*
X0110964Y0104188D01*
X0111044Y0105787D02*
X0122800Y0105787D01*
X0122966Y0107385D02*
X0110644Y0107385D01*
X0106494Y0105527D02*
X0106494Y0102968D01*
X0106494Y0102968D01*
X0101944Y0102968D01*
X0101944Y0103890D01*
X0102039Y0104247D01*
X0101944Y0104605D01*
X0101944Y0105527D01*
X0106494Y0105527D01*
X0106494Y0104188D02*
X0106494Y0104188D01*
X0102344Y0100991D02*
X0090300Y0100991D01*
X0090300Y0099393D02*
X0102344Y0099393D01*
X0102344Y0097794D02*
X0090300Y0097794D01*
X0090300Y0096196D02*
X0102344Y0096196D01*
X0102344Y0094597D02*
X0092362Y0094597D01*
X0093050Y0092999D02*
X0102344Y0092999D01*
X0102026Y0091400D02*
X0094074Y0091400D01*
X0095673Y0089802D02*
X0101944Y0089802D01*
X0101944Y0088203D02*
X0097271Y0088203D01*
X0098870Y0086605D02*
X0101967Y0086605D01*
X0102344Y0085006D02*
X0100468Y0085006D01*
X0102067Y0083408D02*
X0102344Y0083408D01*
X0106494Y0088203D02*
X0106494Y0088203D01*
X0106494Y0089802D02*
X0106494Y0089802D01*
X0095896Y0077870D02*
X0090646Y0083120D01*
X0089753Y0083120D01*
X0089500Y0083225D01*
X0089500Y0074870D01*
X0111796Y0074870D01*
X0108796Y0077870D01*
X0095896Y0077870D01*
X0095154Y0078612D02*
X0089500Y0078612D01*
X0089500Y0077014D02*
X0109652Y0077014D01*
X0111251Y0075415D02*
X0089500Y0075415D01*
X0089500Y0080211D02*
X0093555Y0080211D01*
X0091957Y0081809D02*
X0089500Y0081809D01*
X0068500Y0062627D02*
X0067661Y0062627D01*
X0068500Y0061028D02*
X0066062Y0061028D01*
X0066401Y0059430D02*
X0068500Y0059430D01*
X0068500Y0057831D02*
X0067000Y0057831D01*
X0067000Y0056233D02*
X0068500Y0056233D01*
X0068500Y0054634D02*
X0066453Y0054634D01*
X0065178Y0053036D02*
X0068500Y0053036D01*
X0068500Y0051437D02*
X0065442Y0051437D01*
X0067232Y0049839D02*
X0068500Y0049839D01*
X0067894Y0048240D02*
X0069426Y0048240D01*
X0068000Y0046642D02*
X0071024Y0046642D01*
X0072623Y0045043D02*
X0067622Y0045043D01*
X0066587Y0043445D02*
X0074221Y0043445D01*
X0069900Y0037051D02*
X0055064Y0037051D01*
X0056661Y0035452D02*
X0065700Y0035452D01*
X0065700Y0033854D02*
X0057323Y0033854D01*
X0057456Y0032255D02*
X0065700Y0032255D01*
X0065700Y0030657D02*
X0057456Y0030657D01*
X0057456Y0029058D02*
X0065700Y0029058D01*
X0065700Y0027460D02*
X0057456Y0027460D01*
X0057456Y0025861D02*
X0065700Y0025861D01*
X0065700Y0024263D02*
X0057456Y0024263D01*
X0057144Y0022664D02*
X0065700Y0022664D01*
X0065700Y0021066D02*
X0056264Y0021066D01*
X0054022Y0019467D02*
X0065700Y0019467D01*
X0050118Y0019467D02*
X0025282Y0019467D01*
X0027524Y0021066D02*
X0047876Y0021066D01*
X0046996Y0022664D02*
X0028404Y0022664D01*
X0028716Y0024263D02*
X0046684Y0024263D01*
X0046684Y0025861D02*
X0028716Y0025861D01*
X0028716Y0027460D02*
X0046684Y0027460D01*
X0046684Y0029058D02*
X0028716Y0029058D01*
X0028716Y0030657D02*
X0046684Y0030657D01*
X0046684Y0032255D02*
X0028716Y0032255D01*
X0028583Y0033854D02*
X0046817Y0033854D01*
X0047479Y0035452D02*
X0027921Y0035452D01*
X0033751Y0038649D02*
X0041649Y0038649D01*
X0040688Y0040248D02*
X0034712Y0040248D01*
X0034882Y0041846D02*
X0040518Y0041846D01*
X0041002Y0043445D02*
X0034398Y0043445D01*
X0043999Y0050325D02*
X0043999Y0056062D01*
X0043999Y0050325D01*
X0043999Y0050325D01*
X0043999Y0051437D02*
X0043999Y0051437D01*
X0043999Y0053036D02*
X0043999Y0053036D01*
X0043999Y0054634D02*
X0043999Y0054634D01*
X0046747Y0054634D02*
X0046782Y0054634D01*
X0047444Y0056233D02*
X0033664Y0056233D01*
X0035263Y0057831D02*
X0048957Y0057831D01*
X0050151Y0059430D02*
X0036861Y0059430D01*
X0038460Y0061028D02*
X0049450Y0061028D01*
X0049785Y0062627D02*
X0040058Y0062627D01*
X0041657Y0064225D02*
X0058517Y0064225D01*
X0057855Y0065824D02*
X0043255Y0065824D01*
X0044854Y0067422D02*
X0057800Y0067422D01*
X0058229Y0069021D02*
X0046452Y0069021D01*
X0051940Y0070619D02*
X0059337Y0070619D01*
X0059112Y0072218D02*
X0053538Y0072218D01*
X0054450Y0073816D02*
X0057393Y0073816D01*
X0056622Y0075415D02*
X0054450Y0075415D01*
X0022996Y0077014D02*
X0021904Y0077014D01*
X0009696Y0077014D02*
X0006500Y0077014D01*
X0006500Y0078612D02*
X0009282Y0078612D01*
X0009282Y0080211D02*
X0006500Y0080211D01*
X0006500Y0081809D02*
X0009282Y0081809D01*
X0009377Y0083408D02*
X0006500Y0083408D01*
X0006500Y0085006D02*
X0007384Y0085006D01*
X0006800Y0086605D02*
X0006500Y0086605D01*
X0006500Y0088203D02*
X0006800Y0088203D01*
X0006800Y0089802D02*
X0006500Y0089802D01*
X0006500Y0091400D02*
X0006800Y0091400D01*
X0006800Y0092999D02*
X0006500Y0092999D01*
X0006500Y0094597D02*
X0006800Y0094597D01*
X0006500Y0096196D02*
X0007446Y0096196D01*
X0006500Y0097794D02*
X0015800Y0097794D01*
X0015800Y0096196D02*
X0013754Y0096196D01*
X0014400Y0094597D02*
X0015800Y0094597D01*
X0015800Y0092999D02*
X0014400Y0092999D01*
X0014400Y0091400D02*
X0015800Y0091400D01*
X0015800Y0089802D02*
X0014400Y0089802D01*
X0014400Y0088203D02*
X0015900Y0088203D01*
X0015900Y0086605D02*
X0014400Y0086605D01*
X0014157Y0085006D02*
X0016443Y0085006D01*
X0009285Y0075415D02*
X0006500Y0075415D01*
X0006500Y0073816D02*
X0009282Y0073816D01*
X0009282Y0072218D02*
X0006500Y0072218D01*
X0006500Y0070619D02*
X0009282Y0070619D01*
X0009789Y0069021D02*
X0006500Y0069021D01*
X0048492Y0040248D02*
X0050325Y0040248D01*
X0057109Y0043445D02*
X0059213Y0043445D01*
X0058178Y0045043D02*
X0057456Y0045043D01*
X0057456Y0046642D02*
X0057800Y0046642D01*
X0057906Y0048240D02*
X0057456Y0048240D01*
X0057456Y0049839D02*
X0058568Y0049839D01*
X0057456Y0051437D02*
X0060358Y0051437D01*
X0058622Y0053036D02*
X0057456Y0053036D01*
X0020336Y0037051D02*
X0019937Y0037051D01*
X0018739Y0035452D02*
X0018338Y0035452D01*
X0017944Y0030657D02*
X0016596Y0030657D01*
X0018276Y0021066D02*
X0019136Y0021066D01*
X0021378Y0019467D02*
X0016779Y0019467D01*
X0129774Y0081809D02*
X0133026Y0081809D01*
X0131808Y0080211D02*
X0130992Y0080211D01*
X0139774Y0081809D02*
X0144435Y0081809D01*
X0142836Y0080211D02*
X0140992Y0080211D01*
X0158179Y0068545D02*
X0159371Y0069737D01*
X0159653Y0069620D01*
X0160747Y0069620D01*
X0161758Y0070039D01*
X0162531Y0070812D01*
X0162950Y0071823D01*
X0162950Y0072917D01*
X0162887Y0073070D01*
X0170282Y0073070D01*
X0170282Y0071828D01*
X0171102Y0071008D01*
X0175411Y0071008D01*
X0176231Y0071828D01*
X0176231Y0077712D01*
X0175411Y0078532D01*
X0171102Y0078532D01*
X0170282Y0077712D01*
X0170282Y0076470D01*
X0160104Y0076470D01*
X0218204Y0134570D01*
X0219200Y0135566D01*
X0219200Y0138770D01*
X0237104Y0138770D01*
X0238100Y0139766D01*
X0248204Y0149870D01*
X0248247Y0149870D01*
X0248247Y0149438D01*
X0249067Y0148618D01*
X0256133Y0148618D01*
X0256692Y0149177D01*
X0260908Y0149177D01*
X0261367Y0148718D01*
X0268433Y0148718D01*
X0269253Y0149538D01*
X0269253Y0155816D01*
X0269045Y0156024D01*
X0269253Y0156231D01*
X0269253Y0157570D01*
X0272800Y0157570D01*
X0272800Y0154539D01*
X0274048Y0151525D01*
X0276355Y0149218D01*
X0279369Y0147970D01*
X0282631Y0147970D01*
X0285645Y0149218D01*
X0287952Y0151525D01*
X0289200Y0154539D01*
X0289200Y0157801D01*
X0287952Y0160815D01*
X0285645Y0163122D01*
X0282631Y0164370D01*
X0279369Y0164370D01*
X0276355Y0163122D01*
X0274400Y0161167D01*
X0274400Y0168997D01*
X0275974Y0167423D01*
X0278903Y0166210D01*
X0282073Y0166210D01*
X0285002Y0167423D01*
X0287244Y0169665D01*
X0288457Y0172594D01*
X0288457Y0175765D01*
X0287244Y0178694D01*
X0285968Y0179970D01*
X0294900Y0179970D01*
X0294900Y0075349D01*
X0283055Y0075278D01*
X0285002Y0076085D01*
X0287244Y0078327D01*
X0288457Y0081256D01*
X0288457Y0084426D01*
X0287244Y0087355D01*
X0285002Y0089597D01*
X0282073Y0090810D01*
X0278903Y0090810D01*
X0275974Y0089597D01*
X0273732Y0087355D01*
X0272519Y0084426D01*
X0272519Y0081256D01*
X0273732Y0078327D01*
X0275974Y0076085D01*
X0277994Y0075248D01*
X0189684Y0074720D01*
X0189684Y0074984D01*
X0189215Y0076117D01*
X0188347Y0076985D01*
X0187213Y0077454D01*
X0185986Y0077454D01*
X0184853Y0076985D01*
X0184572Y0076704D01*
X0183318Y0076784D01*
X0183318Y0077712D01*
X0182498Y0078532D01*
X0178189Y0078532D01*
X0177369Y0077712D01*
X0177369Y0071828D01*
X0178189Y0071008D01*
X0180000Y0071008D01*
X0180000Y0038374D01*
X0179342Y0038101D01*
X0178569Y0037328D01*
X0178150Y0036317D01*
X0178150Y0035424D01*
X0177100Y0034374D01*
X0177100Y0033188D01*
X0175658Y0033188D01*
X0174838Y0032368D01*
X0174838Y0028059D01*
X0175658Y0027239D01*
X0181542Y0027239D01*
X0182362Y0028059D01*
X0182362Y0030208D01*
X0187000Y0025570D01*
X0187000Y0020170D01*
X0185400Y0018570D01*
X0146300Y0018570D01*
X0146300Y0034666D01*
X0159496Y0021470D01*
X0174838Y0021470D01*
X0174838Y0020972D01*
X0175658Y0020152D01*
X0181542Y0020152D01*
X0182362Y0020972D01*
X0182362Y0025281D01*
X0181542Y0026102D01*
X0175658Y0026102D01*
X0174838Y0025281D01*
X0174838Y0024870D01*
X0160904Y0024870D01*
X0146300Y0039474D01*
X0145304Y0040470D01*
X0137789Y0040470D01*
X0137158Y0041101D01*
X0136147Y0041520D01*
X0135054Y0041520D01*
X0153104Y0059570D01*
X0153202Y0059668D01*
X0153547Y0059323D01*
X0154222Y0058832D01*
X0154966Y0058454D01*
X0155759Y0058196D01*
X0156583Y0058065D01*
X0156914Y0058065D01*
X0156914Y0063279D01*
X0157086Y0063279D01*
X0157086Y0058065D01*
X0157417Y0058065D01*
X0158241Y0058196D01*
X0159034Y0058454D01*
X0159778Y0058832D01*
X0160453Y0059323D01*
X0161043Y0059913D01*
X0161533Y0060588D01*
X0161912Y0061331D01*
X0162169Y0062124D01*
X0162300Y0062948D01*
X0162300Y0063280D01*
X0157086Y0063280D01*
X0157086Y0063451D01*
X0162300Y0063451D01*
X0162300Y0063782D01*
X0162169Y0064606D01*
X0161912Y0065400D01*
X0161533Y0066143D01*
X0161043Y0066818D01*
X0160453Y0067408D01*
X0159778Y0067898D01*
X0159034Y0068277D01*
X0158241Y0068535D01*
X0158179Y0068545D01*
X0158655Y0069021D02*
X0180000Y0069021D01*
X0180000Y0070619D02*
X0162338Y0070619D01*
X0162950Y0072218D02*
X0170282Y0072218D01*
X0170282Y0077014D02*
X0160648Y0077014D01*
X0162246Y0078612D02*
X0192118Y0078612D01*
X0192236Y0078327D02*
X0194478Y0076085D01*
X0197407Y0074872D01*
X0200577Y0074872D01*
X0203506Y0076085D01*
X0205748Y0078327D01*
X0206961Y0081256D01*
X0206961Y0084426D01*
X0205748Y0087355D01*
X0203506Y0089597D01*
X0200577Y0090810D01*
X0197407Y0090810D01*
X0194478Y0089597D01*
X0192236Y0087355D01*
X0191023Y0084426D01*
X0191023Y0081256D01*
X0192236Y0078327D01*
X0193549Y0077014D02*
X0188278Y0077014D01*
X0189506Y0075415D02*
X0196095Y0075415D01*
X0201889Y0075415D02*
X0277591Y0075415D01*
X0275045Y0077014D02*
X0204435Y0077014D01*
X0205866Y0078612D02*
X0273614Y0078612D01*
X0272952Y0080211D02*
X0206528Y0080211D01*
X0206961Y0081809D02*
X0272519Y0081809D01*
X0272519Y0083408D02*
X0206961Y0083408D01*
X0206721Y0085006D02*
X0272759Y0085006D01*
X0273421Y0086605D02*
X0206059Y0086605D01*
X0204900Y0088203D02*
X0274580Y0088203D01*
X0276468Y0089802D02*
X0203012Y0089802D01*
X0194972Y0089802D02*
X0173436Y0089802D01*
X0175034Y0091400D02*
X0294900Y0091400D01*
X0294900Y0089802D02*
X0284508Y0089802D01*
X0286396Y0088203D02*
X0294900Y0088203D01*
X0294900Y0086605D02*
X0287555Y0086605D01*
X0288217Y0085006D02*
X0294900Y0085006D01*
X0294900Y0083408D02*
X0288457Y0083408D01*
X0288457Y0081809D02*
X0294900Y0081809D01*
X0294900Y0080211D02*
X0288025Y0080211D01*
X0287362Y0078612D02*
X0294900Y0078612D01*
X0294900Y0077014D02*
X0285931Y0077014D01*
X0283385Y0075415D02*
X0294900Y0075415D01*
X0294900Y0092999D02*
X0176633Y0092999D01*
X0178231Y0094597D02*
X0294900Y0094597D01*
X0294900Y0096196D02*
X0179830Y0096196D01*
X0181428Y0097794D02*
X0294900Y0097794D01*
X0294900Y0099393D02*
X0183027Y0099393D01*
X0184625Y0100991D02*
X0294900Y0100991D01*
X0294900Y0102590D02*
X0186224Y0102590D01*
X0187822Y0104188D02*
X0294900Y0104188D01*
X0294900Y0105787D02*
X0189421Y0105787D01*
X0191019Y0107385D02*
X0294900Y0107385D01*
X0294900Y0108984D02*
X0192618Y0108984D01*
X0194216Y0110582D02*
X0294900Y0110582D01*
X0294900Y0112181D02*
X0195815Y0112181D01*
X0197413Y0113779D02*
X0294900Y0113779D01*
X0294900Y0115378D02*
X0199012Y0115378D01*
X0200610Y0116976D02*
X0294900Y0116976D01*
X0294900Y0118575D02*
X0202209Y0118575D01*
X0203807Y0120173D02*
X0294900Y0120173D01*
X0294900Y0121772D02*
X0205406Y0121772D01*
X0207004Y0123370D02*
X0294900Y0123370D01*
X0294900Y0124969D02*
X0208603Y0124969D01*
X0210201Y0126567D02*
X0294900Y0126567D01*
X0294900Y0128166D02*
X0211800Y0128166D01*
X0213398Y0129764D02*
X0294900Y0129764D01*
X0294900Y0131363D02*
X0214997Y0131363D01*
X0216595Y0132961D02*
X0294900Y0132961D01*
X0294900Y0134560D02*
X0218194Y0134560D01*
X0219200Y0136158D02*
X0294900Y0136158D01*
X0294900Y0137757D02*
X0219200Y0137757D01*
X0213660Y0134834D02*
X0212895Y0134970D01*
X0198224Y0134970D01*
X0198038Y0135047D01*
X0198050Y0135017D01*
X0198050Y0133923D01*
X0197631Y0132912D01*
X0197000Y0132281D01*
X0197000Y0118174D01*
X0213660Y0134834D01*
X0213386Y0134560D02*
X0198050Y0134560D01*
X0197652Y0132961D02*
X0211787Y0132961D01*
X0210189Y0131363D02*
X0197000Y0131363D01*
X0197000Y0129764D02*
X0208590Y0129764D01*
X0206992Y0128166D02*
X0197000Y0128166D01*
X0197000Y0126567D02*
X0205393Y0126567D01*
X0203795Y0124969D02*
X0197000Y0124969D01*
X0197000Y0123370D02*
X0202196Y0123370D01*
X0200598Y0121772D02*
X0197000Y0121772D01*
X0197000Y0120173D02*
X0198999Y0120173D01*
X0197401Y0118575D02*
X0197000Y0118575D01*
X0167405Y0113779D02*
X0162957Y0113779D01*
X0162137Y0112181D02*
X0165807Y0112181D01*
X0155613Y0110582D02*
X0132492Y0110582D01*
X0130893Y0112181D02*
X0153663Y0112181D01*
X0152843Y0113779D02*
X0147618Y0113779D01*
X0144395Y0120173D02*
X0141462Y0120173D01*
X0141462Y0121772D02*
X0145993Y0121772D01*
X0145420Y0123370D02*
X0140720Y0123370D01*
X0145150Y0124969D02*
X0095718Y0124969D01*
X0100720Y0123370D02*
X0104680Y0123370D01*
X0110720Y0123370D02*
X0114680Y0123370D01*
X0113938Y0121772D02*
X0111462Y0121772D01*
X0111462Y0120173D02*
X0113938Y0120173D01*
X0120720Y0123370D02*
X0124680Y0123370D01*
X0130720Y0123370D02*
X0134680Y0123370D01*
X0125007Y0112181D02*
X0110373Y0112181D01*
X0102615Y0112181D02*
X0092200Y0112181D01*
X0092200Y0110582D02*
X0102344Y0110582D01*
X0102344Y0108984D02*
X0092200Y0108984D01*
X0092200Y0107385D02*
X0102344Y0107385D01*
X0101944Y0105787D02*
X0092264Y0105787D01*
X0091882Y0104188D02*
X0102024Y0104188D01*
X0101944Y0102590D02*
X0090338Y0102590D01*
X0092418Y0113779D02*
X0092682Y0113779D01*
X0123627Y0099393D02*
X0124110Y0099393D01*
X0125225Y0100991D02*
X0126593Y0100991D01*
X0163845Y0080211D02*
X0191456Y0080211D01*
X0191023Y0081809D02*
X0165443Y0081809D01*
X0167042Y0083408D02*
X0191023Y0083408D01*
X0191263Y0085006D02*
X0168640Y0085006D01*
X0170239Y0086605D02*
X0191925Y0086605D01*
X0193084Y0088203D02*
X0171837Y0088203D01*
X0176231Y0077014D02*
X0177369Y0077014D01*
X0177369Y0075415D02*
X0176231Y0075415D01*
X0176231Y0073816D02*
X0177369Y0073816D01*
X0177369Y0072218D02*
X0176231Y0072218D01*
X0180343Y0074770D02*
X0186600Y0074370D01*
X0184922Y0077014D02*
X0183318Y0077014D01*
X0180000Y0067422D02*
X0160433Y0067422D01*
X0161696Y0065824D02*
X0180000Y0065824D01*
X0180000Y0064225D02*
X0162230Y0064225D01*
X0162249Y0062627D02*
X0180000Y0062627D01*
X0180000Y0061028D02*
X0161758Y0061028D01*
X0160560Y0059430D02*
X0180000Y0059430D01*
X0180000Y0057831D02*
X0151365Y0057831D01*
X0149767Y0056233D02*
X0180000Y0056233D01*
X0180000Y0054634D02*
X0148168Y0054634D01*
X0146570Y0053036D02*
X0180000Y0053036D01*
X0180000Y0051437D02*
X0144971Y0051437D01*
X0143373Y0049839D02*
X0180000Y0049839D01*
X0180000Y0048240D02*
X0141774Y0048240D01*
X0140176Y0046642D02*
X0180000Y0046642D01*
X0180000Y0045043D02*
X0138577Y0045043D01*
X0136979Y0043445D02*
X0180000Y0043445D01*
X0180000Y0041846D02*
X0159858Y0041846D01*
X0159776Y0041929D02*
X0157975Y0042675D01*
X0156025Y0042675D01*
X0154224Y0041929D01*
X0152846Y0040550D01*
X0152100Y0038749D01*
X0152100Y0036800D01*
X0152846Y0034999D01*
X0154224Y0033621D01*
X0156025Y0032875D01*
X0157975Y0032875D01*
X0159776Y0033621D01*
X0161154Y0034999D01*
X0161900Y0036800D01*
X0161900Y0038749D01*
X0161154Y0040550D01*
X0159776Y0041929D01*
X0161279Y0040248D02*
X0180000Y0040248D01*
X0180000Y0038649D02*
X0161900Y0038649D01*
X0161900Y0037051D02*
X0178454Y0037051D01*
X0178150Y0035452D02*
X0161342Y0035452D01*
X0160009Y0033854D02*
X0177100Y0033854D01*
X0174838Y0032255D02*
X0153519Y0032255D01*
X0153991Y0033854D02*
X0151921Y0033854D01*
X0152658Y0035452D02*
X0150322Y0035452D01*
X0148723Y0037051D02*
X0152100Y0037051D01*
X0152100Y0038649D02*
X0147125Y0038649D01*
X0145526Y0040248D02*
X0152721Y0040248D01*
X0154142Y0041846D02*
X0135380Y0041846D01*
X0146300Y0033854D02*
X0147112Y0033854D01*
X0146300Y0032255D02*
X0148711Y0032255D01*
X0150309Y0030657D02*
X0146300Y0030657D01*
X0146300Y0029058D02*
X0151908Y0029058D01*
X0153506Y0027460D02*
X0146300Y0027460D01*
X0146300Y0025861D02*
X0155105Y0025861D01*
X0156703Y0024263D02*
X0146300Y0024263D01*
X0146300Y0022664D02*
X0158302Y0022664D01*
X0159913Y0025861D02*
X0175417Y0025861D01*
X0175437Y0027460D02*
X0158315Y0027460D01*
X0156716Y0029058D02*
X0174838Y0029058D01*
X0174838Y0030657D02*
X0155118Y0030657D01*
X0146300Y0021066D02*
X0174838Y0021066D01*
X0182362Y0021066D02*
X0187000Y0021066D01*
X0187000Y0022664D02*
X0182362Y0022664D01*
X0182362Y0024263D02*
X0187000Y0024263D01*
X0186709Y0025861D02*
X0181783Y0025861D01*
X0181763Y0027460D02*
X0185110Y0027460D01*
X0183512Y0029058D02*
X0182362Y0029058D01*
X0186297Y0019467D02*
X0146300Y0019467D01*
X0152964Y0059430D02*
X0153440Y0059430D01*
X0156914Y0059430D02*
X0157086Y0059430D01*
X0157086Y0061028D02*
X0156914Y0061028D01*
X0156914Y0062627D02*
X0157086Y0062627D01*
X0047900Y0118575D02*
X0046403Y0118575D01*
X0046398Y0116976D02*
X0028187Y0116976D01*
X0028187Y0115378D02*
X0044799Y0115378D01*
X0043201Y0113779D02*
X0028187Y0113779D01*
X0028187Y0112181D02*
X0042256Y0112181D01*
X0042200Y0110582D02*
X0028187Y0110582D01*
X0020900Y0107385D02*
X0006500Y0107385D01*
X0006500Y0105787D02*
X0019301Y0105787D01*
X0017703Y0104188D02*
X0006500Y0104188D01*
X0006500Y0102590D02*
X0016274Y0102590D01*
X0015800Y0100991D02*
X0006500Y0100991D01*
X0006500Y0099393D02*
X0015800Y0099393D01*
X0023938Y0099393D02*
X0040400Y0099393D01*
X0040400Y0100991D02*
X0025537Y0100991D01*
X0011213Y0110582D02*
X0006500Y0110582D01*
X0006500Y0108984D02*
X0041401Y0108984D01*
X0043597Y0118575D02*
X0028187Y0118575D01*
X0029700Y0123370D02*
X0043609Y0123370D01*
X0045110Y0124969D02*
X0029700Y0124969D01*
X0029700Y0124670D02*
X0029700Y0127907D01*
X0029577Y0128365D01*
X0029340Y0128775D01*
X0029005Y0129110D01*
X0028595Y0129347D01*
X0028137Y0129470D01*
X0026400Y0129470D01*
X0026400Y0124670D01*
X0026400Y0124670D01*
X0023100Y0124670D01*
X0023100Y0127907D01*
X0023223Y0128365D01*
X0023460Y0128775D01*
X0023795Y0129110D01*
X0024205Y0129347D01*
X0024663Y0129470D01*
X0026400Y0129470D01*
X0026400Y0124670D01*
X0029700Y0124670D01*
X0029700Y0126567D02*
X0045700Y0126567D01*
X0045700Y0128166D02*
X0044085Y0128166D01*
X0045050Y0129764D02*
X0045700Y0129764D01*
X0045700Y0131363D02*
X0044897Y0131363D01*
X0041611Y0132961D02*
X0006500Y0132961D01*
X0006500Y0131363D02*
X0039776Y0131363D01*
X0039550Y0129764D02*
X0006500Y0129764D01*
X0006500Y0128166D02*
X0008500Y0128166D01*
X0008500Y0126567D02*
X0006500Y0126567D01*
X0006500Y0124969D02*
X0008500Y0124969D01*
X0008500Y0123370D02*
X0006500Y0123370D01*
X0006500Y0121772D02*
X0008500Y0121772D01*
X0006500Y0120173D02*
X0011505Y0120173D01*
X0011213Y0118575D02*
X0006500Y0118575D01*
X0006500Y0116976D02*
X0011213Y0116976D01*
X0011213Y0115378D02*
X0006500Y0115378D01*
X0006500Y0113779D02*
X0011213Y0113779D01*
X0011213Y0112181D02*
X0006500Y0112181D01*
X0022705Y0124969D02*
X0023100Y0124969D01*
X0023100Y0126567D02*
X0014300Y0126567D01*
X0014300Y0128166D02*
X0023169Y0128166D01*
X0026400Y0128166D02*
X0026400Y0128166D01*
X0026400Y0126567D02*
X0026400Y0126567D01*
X0026400Y0124969D02*
X0026400Y0124969D01*
X0026400Y0124670D02*
X0026400Y0124670D01*
X0029631Y0128166D02*
X0040515Y0128166D01*
X0042400Y0134560D02*
X0006500Y0134560D01*
X0006500Y0136158D02*
X0037851Y0136158D01*
X0037238Y0137757D02*
X0006500Y0137757D01*
X0006500Y0139355D02*
X0037238Y0139355D01*
X0037238Y0140954D02*
X0006500Y0140954D01*
X0006500Y0142552D02*
X0009038Y0142552D01*
X0009320Y0142270D02*
X0013480Y0142270D01*
X0014300Y0143090D01*
X0014300Y0150250D01*
X0013480Y0151070D01*
X0009320Y0151070D01*
X0008500Y0150250D01*
X0008500Y0143090D01*
X0009320Y0142270D01*
X0008500Y0144151D02*
X0006500Y0144151D01*
X0006500Y0145749D02*
X0008500Y0145749D01*
X0008500Y0147348D02*
X0006500Y0147348D01*
X0006500Y0148947D02*
X0008500Y0148947D01*
X0008795Y0150545D02*
X0006500Y0150545D01*
X0006500Y0152144D02*
X0037222Y0152144D01*
X0035624Y0153742D02*
X0006500Y0153742D01*
X0006500Y0155341D02*
X0034025Y0155341D01*
X0032427Y0156939D02*
X0006500Y0156939D01*
X0006500Y0158538D02*
X0030828Y0158538D01*
X0024321Y0160136D02*
X0006500Y0160136D01*
X0006500Y0161735D02*
X0022723Y0161735D01*
X0022700Y0163333D02*
X0006500Y0163333D01*
X0006500Y0164932D02*
X0022700Y0164932D01*
X0023248Y0166530D02*
X0015283Y0166530D01*
X0017855Y0168129D02*
X0024846Y0168129D01*
X0024730Y0169727D02*
X0019335Y0169727D01*
X0019997Y0171326D02*
X0023132Y0171326D01*
X0022700Y0172924D02*
X0020500Y0172924D01*
X0020500Y0174523D02*
X0022700Y0174523D01*
X0022839Y0176121D02*
X0020367Y0176121D01*
X0019705Y0177720D02*
X0024437Y0177720D01*
X0018748Y0179318D02*
X0100644Y0179318D01*
X0094437Y0177720D02*
X0091163Y0177720D01*
X0092761Y0176121D02*
X0092839Y0176121D01*
X0084437Y0177720D02*
X0081163Y0177720D01*
X0082761Y0176121D02*
X0082839Y0176121D01*
X0074437Y0177720D02*
X0071163Y0177720D01*
X0072761Y0176121D02*
X0072839Y0176121D01*
X0064437Y0177720D02*
X0061163Y0177720D01*
X0062761Y0176121D02*
X0062839Y0176121D01*
X0054437Y0177720D02*
X0051163Y0177720D01*
X0052761Y0176121D02*
X0052839Y0176121D01*
X0044437Y0177720D02*
X0041163Y0177720D01*
X0042761Y0176121D02*
X0042839Y0176121D01*
X0034437Y0177720D02*
X0031163Y0177720D01*
X0032761Y0176121D02*
X0032839Y0176121D01*
X0009317Y0166530D02*
X0006500Y0166530D01*
X0006500Y0168129D02*
X0006745Y0168129D01*
X0023795Y0151110D02*
X0023460Y0150775D01*
X0023223Y0150365D01*
X0023100Y0149907D01*
X0023100Y0146670D01*
X0023100Y0143433D01*
X0023223Y0142975D01*
X0023460Y0142565D01*
X0023795Y0142230D01*
X0024205Y0141993D01*
X0024663Y0141870D01*
X0026400Y0141870D01*
X0028137Y0141870D01*
X0028595Y0141993D01*
X0029005Y0142230D01*
X0029340Y0142565D01*
X0029577Y0142975D01*
X0029700Y0143433D01*
X0029700Y0146670D01*
X0026400Y0146670D01*
X0026400Y0141870D01*
X0026400Y0146670D01*
X0026400Y0146670D01*
X0026400Y0146670D01*
X0023100Y0146670D01*
X0026400Y0146670D01*
X0026400Y0146670D01*
X0029700Y0146670D01*
X0029700Y0149907D01*
X0029577Y0150365D01*
X0029340Y0150775D01*
X0029005Y0151110D01*
X0028595Y0151347D01*
X0028137Y0151470D01*
X0026400Y0151470D01*
X0026400Y0146670D01*
X0026400Y0146670D01*
X0026400Y0151470D01*
X0024663Y0151470D01*
X0024205Y0151347D01*
X0023795Y0151110D01*
X0023327Y0150545D02*
X0014005Y0150545D01*
X0014300Y0148947D02*
X0023100Y0148947D01*
X0023100Y0147348D02*
X0014300Y0147348D01*
X0014300Y0145749D02*
X0023100Y0145749D01*
X0023100Y0144151D02*
X0014300Y0144151D01*
X0013762Y0142552D02*
X0023472Y0142552D01*
X0026400Y0142552D02*
X0026400Y0142552D01*
X0026400Y0144151D02*
X0026400Y0144151D01*
X0026400Y0145749D02*
X0026400Y0145749D01*
X0026400Y0147348D02*
X0026400Y0147348D01*
X0026400Y0148947D02*
X0026400Y0148947D01*
X0026400Y0150545D02*
X0026400Y0150545D01*
X0029473Y0150545D02*
X0038821Y0150545D01*
X0038016Y0148947D02*
X0029700Y0148947D01*
X0029700Y0147348D02*
X0037238Y0147348D01*
X0037238Y0145749D02*
X0029700Y0145749D01*
X0029700Y0144151D02*
X0037238Y0144151D01*
X0042700Y0142552D02*
X0029328Y0142552D01*
X0047647Y0120173D02*
X0047900Y0120173D01*
X0114470Y0160136D02*
X0116121Y0160136D01*
X0200600Y0153866D02*
X0200600Y0148588D01*
X0201842Y0148588D01*
X0202662Y0147768D01*
X0202662Y0143970D01*
X0210196Y0143970D01*
X0210238Y0144012D01*
X0210238Y0147468D01*
X0211058Y0148288D01*
X0211764Y0148288D01*
X0211750Y0148323D01*
X0211750Y0149417D01*
X0212169Y0150428D01*
X0212942Y0151201D01*
X0213953Y0151620D01*
X0214846Y0151620D01*
X0215147Y0151921D01*
X0215147Y0155516D01*
X0215355Y0155724D01*
X0215147Y0155931D01*
X0215147Y0162058D01*
X0215107Y0162099D01*
X0214870Y0162509D01*
X0214747Y0162967D01*
X0214747Y0165283D01*
X0219020Y0165283D01*
X0219020Y0166243D01*
X0219020Y0170122D01*
X0216856Y0170122D01*
X0221032Y0174298D01*
X0221393Y0173426D01*
X0222200Y0172620D01*
X0222200Y0170122D01*
X0219980Y0170122D01*
X0219980Y0166243D01*
X0219020Y0166243D01*
X0214747Y0166243D01*
X0214747Y0168013D01*
X0200600Y0153866D01*
X0200600Y0153742D02*
X0215147Y0153742D01*
X0215147Y0152144D02*
X0200600Y0152144D01*
X0200600Y0150545D02*
X0212286Y0150545D01*
X0211750Y0148947D02*
X0200600Y0148947D01*
X0202662Y0147348D02*
X0210238Y0147348D01*
X0210238Y0145749D02*
X0202662Y0145749D01*
X0202662Y0144151D02*
X0210238Y0144151D01*
X0215147Y0155341D02*
X0202075Y0155341D01*
X0203673Y0156939D02*
X0215147Y0156939D01*
X0215147Y0158538D02*
X0205272Y0158538D01*
X0206870Y0160136D02*
X0215147Y0160136D01*
X0215147Y0161735D02*
X0208469Y0161735D01*
X0210067Y0163333D02*
X0214747Y0163333D01*
X0214747Y0164932D02*
X0211666Y0164932D01*
X0213264Y0166530D02*
X0214747Y0166530D01*
X0219020Y0166530D02*
X0219980Y0166530D01*
X0219980Y0168129D02*
X0219020Y0168129D01*
X0219020Y0169727D02*
X0219980Y0169727D01*
X0218060Y0171326D02*
X0222200Y0171326D01*
X0221895Y0172924D02*
X0219658Y0172924D01*
X0237404Y0179970D02*
X0241696Y0179970D01*
X0239896Y0178170D01*
X0239204Y0178170D01*
X0237800Y0179574D01*
X0237404Y0179970D01*
X0238056Y0179318D02*
X0241044Y0179318D01*
X0240837Y0174770D02*
X0238329Y0174770D01*
X0237983Y0173935D01*
X0237983Y0170134D01*
X0238310Y0170222D01*
X0241020Y0170222D01*
X0241020Y0166343D01*
X0241980Y0166343D01*
X0241980Y0170222D01*
X0244690Y0170222D01*
X0245000Y0170139D01*
X0245000Y0171795D01*
X0243834Y0171795D01*
X0242452Y0172368D01*
X0241393Y0173426D01*
X0240837Y0174770D01*
X0240939Y0174523D02*
X0238226Y0174523D01*
X0237983Y0172924D02*
X0241895Y0172924D01*
X0245000Y0171326D02*
X0237983Y0171326D01*
X0241020Y0169727D02*
X0241980Y0169727D01*
X0241980Y0168129D02*
X0241020Y0168129D01*
X0241020Y0166530D02*
X0241980Y0166530D01*
X0247281Y0148947D02*
X0248739Y0148947D01*
X0245682Y0147348D02*
X0294900Y0147348D01*
X0294900Y0145749D02*
X0244084Y0145749D01*
X0242485Y0144151D02*
X0294900Y0144151D01*
X0294900Y0142552D02*
X0240887Y0142552D01*
X0239288Y0140954D02*
X0294900Y0140954D01*
X0294900Y0139355D02*
X0237690Y0139355D01*
X0256461Y0148947D02*
X0261139Y0148947D01*
X0268661Y0148947D02*
X0277012Y0148947D01*
X0275028Y0150545D02*
X0269253Y0150545D01*
X0269253Y0152144D02*
X0273792Y0152144D01*
X0273130Y0153742D02*
X0269253Y0153742D01*
X0269253Y0155341D02*
X0272800Y0155341D01*
X0272800Y0156939D02*
X0269253Y0156939D01*
X0274400Y0161735D02*
X0274968Y0161735D01*
X0274400Y0163333D02*
X0276866Y0163333D01*
X0274400Y0164932D02*
X0294900Y0164932D01*
X0294900Y0166530D02*
X0282846Y0166530D01*
X0285708Y0168129D02*
X0294900Y0168129D01*
X0294900Y0169727D02*
X0287270Y0169727D01*
X0287932Y0171326D02*
X0294900Y0171326D01*
X0294900Y0172924D02*
X0288457Y0172924D01*
X0288457Y0174523D02*
X0294900Y0174523D01*
X0294900Y0176121D02*
X0288310Y0176121D01*
X0287648Y0177720D02*
X0294900Y0177720D01*
X0294900Y0179318D02*
X0286620Y0179318D01*
X0275269Y0168129D02*
X0274400Y0168129D01*
X0274400Y0166530D02*
X0278131Y0166530D01*
X0285134Y0163333D02*
X0294900Y0163333D01*
X0294900Y0161735D02*
X0287032Y0161735D01*
X0288233Y0160136D02*
X0294900Y0160136D01*
X0294900Y0158538D02*
X0288895Y0158538D01*
X0289200Y0156939D02*
X0294900Y0156939D01*
X0294900Y0155341D02*
X0289200Y0155341D01*
X0288870Y0153742D02*
X0294900Y0153742D01*
X0294900Y0152144D02*
X0288208Y0152144D01*
X0286971Y0150545D02*
X0294900Y0150545D01*
X0294900Y0148947D02*
X0284988Y0148947D01*
D36*
X0206200Y0138370D03*
X0201200Y0129170D03*
X0199200Y0123270D03*
X0190700Y0123470D03*
X0190500Y0117670D03*
X0182600Y0120170D03*
X0182500Y0114270D03*
X0176500Y0106570D03*
X0165500Y0115570D03*
X0165900Y0120470D03*
X0162100Y0123070D03*
X0143900Y0130170D03*
X0146800Y0135170D03*
X0155600Y0138370D03*
X0159800Y0137270D03*
X0182100Y0130570D03*
X0192000Y0129370D03*
X0185600Y0146570D03*
X0172800Y0155570D03*
X0167300Y0154270D03*
X0162700Y0154670D03*
X0156300Y0153370D03*
X0115200Y0156370D03*
X0109700Y0154970D03*
X0095200Y0110570D03*
X0097800Y0107470D03*
X0093100Y0099470D03*
X0096900Y0094770D03*
X0111800Y0096770D03*
X0111800Y0104270D03*
X0111600Y0088870D03*
X0123100Y0088970D03*
X0127800Y0087370D03*
X0135300Y0087070D03*
X0143600Y0101970D03*
X0142800Y0109170D03*
X0155300Y0107370D03*
X0182400Y0085370D03*
X0179200Y0082170D03*
X0174600Y0081670D03*
X0186600Y0074370D03*
X0186200Y0068470D03*
X0176400Y0067270D03*
X0174800Y0062370D03*
X0168600Y0061970D03*
X0170500Y0066970D03*
X0175200Y0057270D03*
X0171000Y0056070D03*
X0153900Y0054170D03*
X0148700Y0051970D03*
X0144700Y0046370D03*
X0163900Y0034270D03*
X0168800Y0035170D03*
X0173600Y0034770D03*
X0171800Y0027970D03*
X0167200Y0026970D03*
X0162100Y0029270D03*
X0153000Y0025670D03*
X0148800Y0028170D03*
X0148600Y0023170D03*
X0153800Y0021170D03*
X0160800Y0019970D03*
X0167500Y0020070D03*
X0185700Y0027370D03*
X0232700Y0021770D03*
X0238400Y0021370D03*
X0243500Y0021370D03*
X0238100Y0026770D03*
X0238100Y0031970D03*
X0238100Y0063170D03*
X0238200Y0068170D03*
X0243400Y0068070D03*
X0290400Y0067970D03*
X0202700Y0099670D03*
X0193800Y0104370D03*
X0202500Y0110770D03*
X0191300Y0095770D03*
X0190600Y0088170D03*
X0113100Y0039270D03*
X0098800Y0039570D03*
X0073600Y0042370D03*
X0061400Y0034270D03*
X0061900Y0026470D03*
X0043800Y0032570D03*
X0037400Y0035270D03*
X0037800Y0041870D03*
X0032500Y0027370D03*
X0039100Y0026470D03*
X0011500Y0053970D03*
X0010600Y0059770D03*
X0017700Y0063470D03*
X0024500Y0065070D03*
X0037900Y0057370D03*
X0042700Y0059870D03*
X0047200Y0059270D03*
X0045500Y0064170D03*
X0032500Y0073870D03*
X0028000Y0074770D03*
X0030800Y0112570D03*
X0031100Y0117170D03*
X0040200Y0112270D03*
X0034200Y0126870D03*
X0038300Y0129970D03*
X0041500Y0134070D03*
X0033500Y0134270D03*
X0033400Y0144770D03*
X0033400Y0149570D03*
X0019000Y0156070D03*
X0098200Y0076470D03*
X0109000Y0076070D03*
D37*
X0179320Y0143670D02*
X0183600Y0143670D01*
X0185600Y0145670D01*
X0185600Y0146570D01*
D38*
X0192900Y0138070D02*
X0193200Y0138070D01*
X0193500Y0138370D01*
X0194100Y0138370D01*
X0194400Y0138670D01*
X0197100Y0138670D01*
X0198900Y0138527D01*
X0198900Y0138370D01*
X0206200Y0138370D01*
X0213900Y0138370D01*
X0214000Y0138227D01*
X0219500Y0159070D02*
X0225600Y0159070D01*
X0225600Y0175557D01*
X0224583Y0175557D01*
X0234583Y0175557D02*
X0234583Y0158970D01*
X0241500Y0159170D01*
X0252600Y0152577D02*
X0264900Y0152577D01*
X0264900Y0152677D01*
X0264900Y0165963D02*
X0252600Y0165963D01*
X0264900Y0165963D02*
X0264900Y0166063D01*
X0165900Y0136870D02*
X0144900Y0115870D01*
X0095400Y0115870D01*
X0092550Y0118720D01*
X0088800Y0114970D01*
X0088800Y0105670D01*
X0088600Y0105527D01*
X0077706Y0110645D02*
X0077706Y0113470D01*
X0054500Y0113470D01*
X0054500Y0104970D01*
X0054600Y0104970D01*
X0045600Y0107170D02*
X0045600Y0111370D01*
X0051300Y0117070D01*
X0051300Y0121870D01*
X0055500Y0126070D01*
X0090000Y0126070D01*
X0092700Y0123370D01*
X0092700Y0118870D01*
X0092550Y0118720D01*
X0064600Y0104970D02*
X0064600Y0086970D01*
X0062900Y0086970D01*
X0049600Y0083013D02*
X0048800Y0082213D01*
X0048800Y0075470D01*
X0061400Y0076370D02*
X0044100Y0059070D01*
X0044100Y0058370D01*
X0077100Y0071113D02*
X0077100Y0071170D01*
X0077400Y0071470D01*
X0087800Y0071470D01*
X0095200Y0071470D01*
X0113400Y0071470D01*
X0044600Y0104970D02*
X0045600Y0107170D01*
D39*
X0177900Y0071870D02*
X0177900Y0036570D01*
X0178600Y0035870D01*
X0178600Y0036723D01*
X0179947Y0038070D01*
X0181853Y0038070D01*
X0182232Y0037690D01*
X0182131Y0038015D01*
X0182083Y0038048D01*
X0182029Y0038344D01*
X0181939Y0038631D01*
X0181967Y0038683D01*
X0181506Y0041194D01*
X0181462Y0041233D01*
X0181444Y0041533D01*
X0181390Y0041829D01*
X0181423Y0041878D01*
X0181271Y0044397D01*
X0181250Y0044418D01*
X0181250Y0044744D01*
X0181230Y0045070D01*
X0181250Y0045092D01*
X0181250Y0046448D01*
X0181230Y0046470D01*
X0181250Y0046796D01*
X0181250Y0047122D01*
X0181271Y0047143D01*
X0181423Y0049663D01*
X0181390Y0049711D01*
X0181444Y0050007D01*
X0181462Y0050307D01*
X0181506Y0050346D01*
X0181967Y0052857D01*
X0181939Y0052909D01*
X0182029Y0053196D01*
X0182083Y0053492D01*
X0182131Y0053525D01*
X0182891Y0055963D01*
X0182870Y0056018D01*
X0182993Y0056292D01*
X0183083Y0056579D01*
X0183135Y0056606D01*
X0184183Y0058934D01*
X0184169Y0058991D01*
X0184324Y0059249D01*
X0184448Y0059523D01*
X0184502Y0059544D01*
X0185823Y0061728D01*
X0185816Y0061787D01*
X0186002Y0062023D01*
X0186157Y0062281D01*
X0186214Y0062295D01*
X0187789Y0064305D01*
X0187789Y0064363D01*
X0188001Y0064576D01*
X0188187Y0064813D01*
X0188245Y0064820D01*
X0190050Y0066625D01*
X0190057Y0066683D01*
X0190294Y0066869D01*
X0190507Y0067081D01*
X0190565Y0067081D01*
X0192575Y0068656D01*
X0192589Y0068713D01*
X0192847Y0068868D01*
X0193083Y0069054D01*
X0193142Y0069047D01*
X0195326Y0070368D01*
X0195347Y0070423D01*
X0195621Y0070546D01*
X0195879Y0070701D01*
X0195936Y0070687D01*
X0198264Y0071735D01*
X0198291Y0071787D01*
X0198578Y0071877D01*
X0198852Y0072000D01*
X0198907Y0071979D01*
X0201345Y0072739D01*
X0201378Y0072787D01*
X0201674Y0072841D01*
X0201961Y0072931D01*
X0202013Y0072903D01*
X0204524Y0073364D01*
X0204563Y0073408D01*
X0204863Y0073426D01*
X0205159Y0073480D01*
X0205208Y0073447D01*
X0207727Y0073599D01*
X0207748Y0073620D01*
X0208074Y0073620D01*
X0208400Y0073640D01*
X0208422Y0073620D01*
X0210778Y0073620D01*
X0210800Y0073640D01*
X0211126Y0073620D01*
X0211452Y0073620D01*
X0211473Y0073599D01*
X0213872Y0073454D01*
X0213920Y0073487D01*
X0214216Y0073433D01*
X0214516Y0073415D01*
X0214555Y0073371D01*
X0216948Y0072933D01*
X0217000Y0072960D01*
X0217287Y0072870D01*
X0217582Y0072816D01*
X0217616Y0072768D01*
X0219938Y0072044D01*
X0219993Y0072065D01*
X0220267Y0071942D01*
X0220554Y0071852D01*
X0220581Y0071800D01*
X0222799Y0070802D01*
X0222857Y0070816D01*
X0223114Y0070660D01*
X0223388Y0070537D01*
X0223409Y0070482D01*
X0225490Y0069224D01*
X0225549Y0069231D01*
X0225785Y0069045D01*
X0226043Y0068890D01*
X0226057Y0068833D01*
X0227971Y0067333D01*
X0228030Y0067333D01*
X0228243Y0067120D01*
X0228479Y0066935D01*
X0228487Y0066876D01*
X0230206Y0065157D01*
X0230265Y0065149D01*
X0230450Y0064913D01*
X0230663Y0064700D01*
X0230663Y0064641D01*
X0232163Y0062727D01*
X0232220Y0062713D01*
X0232375Y0062455D01*
X0232561Y0062219D01*
X0232554Y0062160D01*
X0233812Y0060079D01*
X0233867Y0060058D01*
X0233990Y0059784D01*
X0234146Y0059527D01*
X0234132Y0059470D01*
X0235130Y0057252D01*
X0235182Y0057224D01*
X0235272Y0056937D01*
X0235395Y0056663D01*
X0235374Y0056608D01*
X0236098Y0054286D01*
X0236146Y0054252D01*
X0236200Y0053957D01*
X0236290Y0053670D01*
X0236262Y0053618D01*
X0236701Y0051225D01*
X0236745Y0051186D01*
X0236763Y0050886D01*
X0236817Y0050590D01*
X0236784Y0050542D01*
X0236929Y0048143D01*
X0236950Y0048122D01*
X0236950Y0047796D01*
X0236970Y0047470D01*
X0238691Y0047470D01*
X0238671Y0047143D02*
X0238650Y0047122D01*
X0238650Y0046796D01*
X0238630Y0046470D01*
X0238650Y0046448D01*
X0238650Y0046418D01*
X0238881Y0046187D01*
X0239097Y0045943D01*
X0239127Y0045941D01*
X0239148Y0045920D01*
X0239474Y0045920D01*
X0239800Y0045900D01*
X0239822Y0045920D01*
X0242337Y0045920D01*
X0242346Y0045770D01*
X0242337Y0045620D01*
X0239822Y0045620D01*
X0239800Y0045640D01*
X0239474Y0045620D01*
X0239148Y0045620D01*
X0239127Y0045599D01*
X0239097Y0045597D01*
X0238881Y0045353D01*
X0238650Y0045122D01*
X0238650Y0045092D01*
X0238630Y0045070D01*
X0238650Y0044744D01*
X0238650Y0044418D01*
X0238671Y0044397D01*
X0238823Y0041878D01*
X0238790Y0041829D01*
X0238844Y0041533D01*
X0238862Y0041233D01*
X0238906Y0041194D01*
X0239367Y0038683D01*
X0239339Y0038631D01*
X0239429Y0038344D01*
X0239483Y0038048D01*
X0239531Y0038015D01*
X0240291Y0035578D01*
X0240270Y0035523D01*
X0240393Y0035248D01*
X0240483Y0034961D01*
X0240535Y0034934D01*
X0241583Y0032606D01*
X0241569Y0032549D01*
X0241724Y0032292D01*
X0241848Y0032017D01*
X0241902Y0031997D01*
X0243223Y0029812D01*
X0243216Y0029753D01*
X0243402Y0029517D01*
X0243557Y0029259D01*
X0243614Y0029245D01*
X0245189Y0027236D01*
X0245189Y0027177D01*
X0245401Y0026964D01*
X0245587Y0026728D01*
X0245645Y0026720D01*
X0247450Y0024915D01*
X0247457Y0024857D01*
X0247694Y0024671D01*
X0247907Y0024459D01*
X0247965Y0024459D01*
X0249975Y0022884D01*
X0249989Y0022827D01*
X0250247Y0022672D01*
X0250483Y0022486D01*
X0250542Y0022493D01*
X0252726Y0021173D01*
X0252747Y0021118D01*
X0253021Y0020994D01*
X0253279Y0020839D01*
X0253336Y0020853D01*
X0255664Y0019805D01*
X0255691Y0019753D01*
X0255978Y0019663D01*
X0256252Y0019540D01*
X0256307Y0019561D01*
X0258745Y0018801D01*
X0258778Y0018753D01*
X0259074Y0018699D01*
X0259361Y0018609D01*
X0259413Y0018637D01*
X0261924Y0018176D01*
X0261963Y0018132D01*
X0262168Y0018120D01*
X0213432Y0018120D01*
X0213637Y0018132D01*
X0213676Y0018176D01*
X0216187Y0018637D01*
X0216239Y0018609D01*
X0216526Y0018699D01*
X0216822Y0018753D01*
X0216855Y0018801D01*
X0219293Y0019561D01*
X0219348Y0019540D01*
X0219622Y0019663D01*
X0219909Y0019753D01*
X0219936Y0019805D01*
X0222264Y0020853D01*
X0222321Y0020839D01*
X0222579Y0020994D01*
X0222853Y0021118D01*
X0222874Y0021173D01*
X0225058Y0022493D01*
X0225117Y0022486D01*
X0225353Y0022672D01*
X0225611Y0022827D01*
X0225625Y0022884D01*
X0227634Y0024459D01*
X0227693Y0024459D01*
X0227906Y0024671D01*
X0228143Y0024857D01*
X0228150Y0024915D01*
X0229955Y0026720D01*
X0230013Y0026728D01*
X0230199Y0026964D01*
X0230411Y0027177D01*
X0230411Y0027236D01*
X0231986Y0029245D01*
X0232043Y0029259D01*
X0232198Y0029517D01*
X0232384Y0029753D01*
X0232377Y0029812D01*
X0233698Y0031997D01*
X0233752Y0032017D01*
X0233876Y0032292D01*
X0234031Y0032549D01*
X0234017Y0032606D01*
X0235065Y0034934D01*
X0235117Y0034961D01*
X0235207Y0035248D01*
X0235330Y0035523D01*
X0235309Y0035578D01*
X0236069Y0038015D01*
X0236117Y0038048D01*
X0236171Y0038344D01*
X0236261Y0038631D01*
X0236233Y0038683D01*
X0236694Y0041194D01*
X0236738Y0041233D01*
X0236756Y0041533D01*
X0236810Y0041829D01*
X0236777Y0041878D01*
X0236929Y0044397D01*
X0236950Y0044418D01*
X0236950Y0044744D01*
X0236970Y0045070D01*
X0236950Y0045092D01*
X0236950Y0047448D01*
X0236970Y0047470D01*
X0238671Y0047143D02*
X0238823Y0049663D01*
X0238790Y0049711D01*
X0238844Y0050007D01*
X0238862Y0050307D01*
X0238906Y0050346D01*
X0239367Y0052857D01*
X0239339Y0052909D01*
X0239429Y0053196D01*
X0239483Y0053492D01*
X0239531Y0053525D01*
X0240291Y0055963D01*
X0240270Y0056018D01*
X0240393Y0056292D01*
X0240483Y0056579D01*
X0240535Y0056606D01*
X0241583Y0058934D01*
X0241569Y0058991D01*
X0241724Y0059249D01*
X0241848Y0059523D01*
X0241902Y0059544D01*
X0243223Y0061728D01*
X0243216Y0061787D01*
X0243402Y0062023D01*
X0243557Y0062281D01*
X0243614Y0062295D01*
X0245189Y0064305D01*
X0245189Y0064363D01*
X0245401Y0064576D01*
X0245587Y0064813D01*
X0245645Y0064820D01*
X0247450Y0066625D01*
X0247457Y0066683D01*
X0247694Y0066869D01*
X0247907Y0067081D01*
X0247965Y0067081D01*
X0249975Y0068656D01*
X0249989Y0068713D01*
X0250247Y0068868D01*
X0250483Y0069054D01*
X0250542Y0069047D01*
X0252726Y0070368D01*
X0252747Y0070423D01*
X0253021Y0070546D01*
X0253279Y0070701D01*
X0253336Y0070687D01*
X0255664Y0071735D01*
X0255691Y0071787D01*
X0255978Y0071877D01*
X0256252Y0072000D01*
X0256307Y0071979D01*
X0258745Y0072739D01*
X0258778Y0072787D01*
X0259074Y0072841D01*
X0259361Y0072931D01*
X0259413Y0072903D01*
X0261924Y0073364D01*
X0261963Y0073408D01*
X0262263Y0073426D01*
X0262559Y0073480D01*
X0262608Y0073447D01*
X0265127Y0073599D01*
X0265148Y0073620D01*
X0265474Y0073620D01*
X0265800Y0073640D01*
X0265822Y0073620D01*
X0267178Y0073620D01*
X0267200Y0073640D01*
X0267526Y0073620D01*
X0267852Y0073620D01*
X0267873Y0073599D01*
X0270392Y0073447D01*
X0270441Y0073480D01*
X0270737Y0073426D01*
X0271037Y0073408D01*
X0271076Y0073364D01*
X0273587Y0072903D01*
X0273639Y0072931D01*
X0273926Y0072841D01*
X0274222Y0072787D01*
X0274255Y0072739D01*
X0276693Y0071979D01*
X0276748Y0072000D01*
X0277022Y0071877D01*
X0277309Y0071787D01*
X0277336Y0071735D01*
X0279664Y0070687D01*
X0279721Y0070701D01*
X0279979Y0070546D01*
X0280253Y0070423D01*
X0280274Y0070368D01*
X0282458Y0069047D01*
X0282517Y0069054D01*
X0282753Y0068868D01*
X0283011Y0068713D01*
X0283025Y0068656D01*
X0285034Y0067081D01*
X0285093Y0067081D01*
X0285306Y0066869D01*
X0285543Y0066683D01*
X0285550Y0066625D01*
X0287355Y0064820D01*
X0287413Y0064813D01*
X0287599Y0064576D01*
X0287811Y0064363D01*
X0287811Y0064305D01*
X0289386Y0062295D01*
X0289443Y0062281D01*
X0289598Y0062023D01*
X0289784Y0061787D01*
X0289777Y0061728D01*
X0291098Y0059544D01*
X0291152Y0059523D01*
X0291276Y0059249D01*
X0291431Y0058991D01*
X0291417Y0058934D01*
X0292465Y0056606D01*
X0292517Y0056579D01*
X0292607Y0056292D01*
X0292730Y0056018D01*
X0292709Y0055963D01*
X0293469Y0053525D01*
X0293517Y0053492D01*
X0293571Y0053196D01*
X0293661Y0052909D01*
X0293633Y0052857D01*
X0294094Y0050346D01*
X0294138Y0050307D01*
X0294156Y0050007D01*
X0294210Y0049711D01*
X0294177Y0049663D01*
X0294329Y0047143D01*
X0294350Y0047122D01*
X0294350Y0046796D01*
X0294370Y0046470D01*
X0294350Y0046448D01*
X0294350Y0044092D01*
X0294370Y0044070D01*
X0294350Y0043744D01*
X0294350Y0043418D01*
X0294329Y0043397D01*
X0294184Y0040998D01*
X0294217Y0040950D01*
X0294163Y0040654D01*
X0294145Y0040354D01*
X0294101Y0040315D01*
X0293662Y0037922D01*
X0293690Y0037870D01*
X0293600Y0037583D01*
X0293546Y0037288D01*
X0293498Y0037254D01*
X0292774Y0034932D01*
X0292795Y0034877D01*
X0292672Y0034603D01*
X0292582Y0034316D01*
X0292530Y0034289D01*
X0291532Y0032071D01*
X0291546Y0032014D01*
X0291390Y0031756D01*
X0291267Y0031482D01*
X0291212Y0031461D01*
X0291187Y0031420D01*
X0291542Y0031420D01*
X0294390Y0030240D01*
X0295350Y0029280D01*
X0295350Y0074870D01*
X0189234Y0074870D01*
X0189234Y0073846D01*
X0188833Y0072878D01*
X0188092Y0072137D01*
X0187124Y0071736D01*
X0186076Y0071736D01*
X0185108Y0072137D01*
X0184494Y0072751D01*
X0182868Y0072855D01*
X0182868Y0072014D01*
X0182312Y0071458D01*
X0178375Y0071458D01*
X0177931Y0071901D01*
X0177900Y0071870D01*
X0181000Y0071458D02*
X0181000Y0038070D01*
X0178947Y0037070D02*
X0177900Y0037070D01*
X0181853Y0033470D02*
X0183191Y0034809D01*
X0184183Y0032606D01*
X0184169Y0032549D01*
X0184324Y0032292D01*
X0184448Y0032017D01*
X0184502Y0031997D01*
X0185823Y0029812D01*
X0185816Y0029753D01*
X0186002Y0029517D01*
X0186157Y0029259D01*
X0186214Y0029245D01*
X0187789Y0027236D01*
X0187789Y0027177D01*
X0188001Y0026964D01*
X0188187Y0026728D01*
X0188245Y0026720D01*
X0190050Y0024915D01*
X0190057Y0024857D01*
X0190294Y0024671D01*
X0190507Y0024459D01*
X0190565Y0024459D01*
X0192575Y0022884D01*
X0192589Y0022827D01*
X0192847Y0022672D01*
X0193083Y0022486D01*
X0193142Y0022493D01*
X0195326Y0021173D01*
X0195347Y0021118D01*
X0195621Y0020994D01*
X0195879Y0020839D01*
X0195936Y0020853D01*
X0198264Y0019805D01*
X0198291Y0019753D01*
X0198578Y0019663D01*
X0198852Y0019540D01*
X0198907Y0019561D01*
X0201345Y0018801D01*
X0201378Y0018753D01*
X0201674Y0018699D01*
X0201961Y0018609D01*
X0202013Y0018637D01*
X0204524Y0018176D01*
X0204563Y0018132D01*
X0204768Y0018120D01*
X0196350Y0018120D01*
X0181000Y0033470D01*
X0181000Y0033470D01*
X0181853Y0033470D01*
X0182600Y0031870D02*
X0184579Y0031870D01*
X0186200Y0029249D02*
X0186200Y0028270D01*
X0187800Y0026670D02*
X0188295Y0026670D01*
X0191400Y0023805D02*
X0191400Y0023070D01*
X0193000Y0021470D02*
X0194834Y0021470D01*
X0196600Y0020554D02*
X0196600Y0018120D01*
X0201800Y0018120D02*
X0201800Y0018660D01*
X0217400Y0018971D02*
X0217400Y0018120D01*
X0222600Y0018120D02*
X0222600Y0021004D01*
X0223366Y0021470D02*
X0252234Y0021470D01*
X0253800Y0020644D02*
X0253800Y0018120D01*
X0248600Y0018120D02*
X0248600Y0023962D01*
X0245695Y0026670D02*
X0229905Y0026670D01*
X0227800Y0024566D02*
X0227800Y0018120D01*
X0233000Y0018120D02*
X0233000Y0030843D01*
X0233621Y0031870D02*
X0241979Y0031870D01*
X0243400Y0029519D02*
X0243400Y0018120D01*
X0238200Y0018120D02*
X0238200Y0074870D01*
X0243400Y0074870D02*
X0243400Y0062021D01*
X0244222Y0063070D02*
X0231894Y0063070D01*
X0233000Y0061422D02*
X0233000Y0074870D01*
X0227800Y0074870D02*
X0227800Y0067467D01*
X0226775Y0068270D02*
X0249483Y0068270D01*
X0248600Y0067578D02*
X0248600Y0074870D01*
X0253800Y0074870D02*
X0253800Y0070896D01*
X0259000Y0072828D02*
X0259000Y0074870D01*
X0262505Y0073470D02*
X0214014Y0073470D01*
X0213895Y0073470D02*
X0213605Y0073470D01*
X0212200Y0073555D02*
X0212200Y0074870D01*
X0217400Y0074870D02*
X0217400Y0072850D01*
X0222600Y0070892D02*
X0222600Y0074870D01*
X0207000Y0074870D02*
X0207000Y0073555D01*
X0205595Y0073470D02*
X0205174Y0073470D01*
X0205105Y0073470D02*
X0189078Y0073470D01*
X0191400Y0074870D02*
X0191400Y0067735D01*
X0192083Y0068270D02*
X0177900Y0068270D01*
X0186200Y0071736D02*
X0186200Y0062291D01*
X0186822Y0063070D02*
X0177900Y0063070D01*
X0177900Y0057870D02*
X0183704Y0057870D01*
X0181932Y0052670D02*
X0177900Y0052670D01*
X0177900Y0047470D02*
X0181291Y0047470D01*
X0181400Y0042270D02*
X0177900Y0042270D01*
X0196600Y0070986D02*
X0196600Y0074870D01*
X0201800Y0074870D02*
X0201800Y0072881D01*
X0234852Y0057870D02*
X0241104Y0057870D01*
X0239332Y0052670D02*
X0236436Y0052670D01*
X0236800Y0042270D02*
X0238800Y0042270D01*
X0239826Y0037070D02*
X0235774Y0037070D01*
X0259000Y0018712D02*
X0259000Y0018120D01*
X0291459Y0031870D02*
X0295350Y0031870D01*
X0295350Y0037070D02*
X0293440Y0037070D01*
X0294261Y0042270D02*
X0295350Y0042270D01*
X0295350Y0047470D02*
X0294309Y0047470D01*
X0293668Y0052670D02*
X0295350Y0052670D01*
X0295350Y0057870D02*
X0291896Y0057870D01*
X0290200Y0061028D02*
X0290200Y0074870D01*
X0285000Y0074870D02*
X0285000Y0067108D01*
X0283517Y0068270D02*
X0295350Y0068270D01*
X0295350Y0063070D02*
X0288778Y0063070D01*
X0279800Y0070654D02*
X0279800Y0074870D01*
X0274600Y0074870D02*
X0274600Y0072631D01*
X0270495Y0073470D02*
X0295350Y0073470D01*
X0270426Y0073470D02*
X0270005Y0073470D01*
X0269400Y0073507D02*
X0269400Y0074870D01*
X0264200Y0074870D02*
X0264200Y0073543D01*
X0262995Y0073470D02*
X0262574Y0073470D01*
D40*
X0113400Y0071470D02*
X0113400Y0061374D01*
X0113494Y0061374D01*
X0095306Y0061374D02*
X0095306Y0053323D01*
X0083494Y0053323D01*
X0095200Y0061374D02*
X0095200Y0071470D01*
X0095306Y0061374D02*
X0095200Y0061374D01*
X0012257Y0072470D02*
X0012257Y0080370D01*
X0012257Y0088913D01*
X0010600Y0090570D01*
D41*
X0019343Y0090213D02*
X0019700Y0090570D01*
X0019343Y0090213D02*
X0019343Y0080370D01*
X0025557Y0080370D01*
X0048800Y0075470D02*
X0029400Y0056070D01*
X0030945Y0050325D02*
X0031401Y0050325D01*
X0219500Y0152377D02*
X0241500Y0152377D01*
X0241500Y0152477D01*
D42*
X0062900Y0086970D02*
X0054400Y0086970D01*
X0050443Y0083013D01*
X0049600Y0083013D01*
X0039700Y0083013D01*
X0032143Y0090570D01*
X0028800Y0090570D01*
X0019700Y0090570D02*
X0019700Y0100670D01*
X0024000Y0104970D01*
X0044600Y0104970D01*
X0044300Y0104670D01*
X0044300Y0093370D01*
D43*
X0029400Y0056070D02*
X0029400Y0051870D01*
X0030945Y0050325D01*
X0165900Y0136870D02*
X0167100Y0138370D01*
D44*
X0071600Y0080970D03*
D45*
X0244583Y0174470D02*
X0244583Y0175557D01*
X0244583Y0174470D02*
X0246800Y0174470D01*
X0246800Y0159270D01*
X0252600Y0159270D01*
X0264900Y0159370D02*
X0272600Y0159370D01*
X0272600Y0175570D01*
X0254583Y0175570D01*
X0254583Y0175557D01*
M02*
