G75*
%MOIN*%
%OFA0B0*%
%FSLAX25Y25*%
%IPPOS*%
%LPD*%
%AMOC8*
5,1,8,0,0,1.08239X$1,22.5*
%
%ADD10C,0.00000*%
%ADD11R,0.05500X0.01370*%
%ADD12OC8,0.04724*%
%ADD13R,0.04724X0.01614*%
%ADD14R,0.01614X0.04528*%
%ADD15C,0.09449*%
%ADD16C,0.04200*%
%ADD17OC8,0.07400*%
%ADD18R,0.04724X0.03150*%
%ADD19R,0.03268X0.02480*%
%ADD20C,0.07000*%
%ADD21C,0.02800*%
%ADD22C,0.02400*%
%ADD23C,0.06299*%
%ADD24R,0.03150X0.01181*%
%ADD25R,0.01181X0.03150*%
%ADD26R,0.00984X0.01969*%
%ADD27R,0.03150X0.04724*%
%ADD28R,0.04800X0.08800*%
%ADD29R,0.14173X0.08661*%
%ADD30R,0.02756X0.02756*%
%ADD31R,0.03000X0.06000*%
%ADD32C,0.07400*%
%ADD33OC8,0.08500*%
%ADD34C,0.00600*%
%ADD35C,0.02700*%
%ADD36C,0.03369*%
%ADD37C,0.01600*%
%ADD38C,0.01000*%
%ADD39C,0.02000*%
%ADD40C,0.04000*%
%ADD41C,0.01500*%
%ADD42C,0.03000*%
%ADD43C,0.02500*%
D10*
X0006644Y0015370D02*
X0006644Y0175370D01*
X0256644Y0175370D01*
X0256566Y0015370D01*
X0006644Y0015370D01*
X0009744Y0024370D02*
X0009746Y0024523D01*
X0009752Y0024676D01*
X0009762Y0024829D01*
X0009776Y0024982D01*
X0009794Y0025134D01*
X0009815Y0025285D01*
X0009841Y0025436D01*
X0009871Y0025587D01*
X0009904Y0025736D01*
X0009942Y0025885D01*
X0009983Y0026032D01*
X0010028Y0026179D01*
X0010077Y0026324D01*
X0010129Y0026468D01*
X0010186Y0026610D01*
X0010246Y0026751D01*
X0010309Y0026890D01*
X0010377Y0027028D01*
X0010447Y0027164D01*
X0010522Y0027298D01*
X0010599Y0027430D01*
X0010681Y0027560D01*
X0010765Y0027688D01*
X0010853Y0027813D01*
X0010944Y0027936D01*
X0011038Y0028057D01*
X0011135Y0028175D01*
X0011236Y0028291D01*
X0011339Y0028404D01*
X0011445Y0028515D01*
X0011554Y0028622D01*
X0011666Y0028727D01*
X0011780Y0028829D01*
X0011897Y0028928D01*
X0012017Y0029023D01*
X0012139Y0029116D01*
X0012263Y0029205D01*
X0012390Y0029292D01*
X0012519Y0029374D01*
X0012650Y0029454D01*
X0012783Y0029530D01*
X0012918Y0029602D01*
X0013055Y0029671D01*
X0013193Y0029737D01*
X0013333Y0029799D01*
X0013475Y0029857D01*
X0013618Y0029911D01*
X0013763Y0029962D01*
X0013908Y0030009D01*
X0014055Y0030052D01*
X0014203Y0030091D01*
X0014352Y0030127D01*
X0014502Y0030158D01*
X0014653Y0030186D01*
X0014804Y0030210D01*
X0014956Y0030230D01*
X0015109Y0030246D01*
X0015261Y0030258D01*
X0015414Y0030266D01*
X0015567Y0030270D01*
X0015721Y0030270D01*
X0015874Y0030266D01*
X0016027Y0030258D01*
X0016179Y0030246D01*
X0016332Y0030230D01*
X0016484Y0030210D01*
X0016635Y0030186D01*
X0016786Y0030158D01*
X0016936Y0030127D01*
X0017085Y0030091D01*
X0017233Y0030052D01*
X0017380Y0030009D01*
X0017525Y0029962D01*
X0017670Y0029911D01*
X0017813Y0029857D01*
X0017955Y0029799D01*
X0018095Y0029737D01*
X0018233Y0029671D01*
X0018370Y0029602D01*
X0018505Y0029530D01*
X0018638Y0029454D01*
X0018769Y0029374D01*
X0018898Y0029292D01*
X0019025Y0029205D01*
X0019149Y0029116D01*
X0019271Y0029023D01*
X0019391Y0028928D01*
X0019508Y0028829D01*
X0019622Y0028727D01*
X0019734Y0028622D01*
X0019843Y0028515D01*
X0019949Y0028404D01*
X0020052Y0028291D01*
X0020153Y0028175D01*
X0020250Y0028057D01*
X0020344Y0027936D01*
X0020435Y0027813D01*
X0020523Y0027688D01*
X0020607Y0027560D01*
X0020689Y0027430D01*
X0020766Y0027298D01*
X0020841Y0027164D01*
X0020911Y0027028D01*
X0020979Y0026890D01*
X0021042Y0026751D01*
X0021102Y0026610D01*
X0021159Y0026468D01*
X0021211Y0026324D01*
X0021260Y0026179D01*
X0021305Y0026032D01*
X0021346Y0025885D01*
X0021384Y0025736D01*
X0021417Y0025587D01*
X0021447Y0025436D01*
X0021473Y0025285D01*
X0021494Y0025134D01*
X0021512Y0024982D01*
X0021526Y0024829D01*
X0021536Y0024676D01*
X0021542Y0024523D01*
X0021544Y0024370D01*
X0021542Y0024217D01*
X0021536Y0024064D01*
X0021526Y0023911D01*
X0021512Y0023758D01*
X0021494Y0023606D01*
X0021473Y0023455D01*
X0021447Y0023304D01*
X0021417Y0023153D01*
X0021384Y0023004D01*
X0021346Y0022855D01*
X0021305Y0022708D01*
X0021260Y0022561D01*
X0021211Y0022416D01*
X0021159Y0022272D01*
X0021102Y0022130D01*
X0021042Y0021989D01*
X0020979Y0021850D01*
X0020911Y0021712D01*
X0020841Y0021576D01*
X0020766Y0021442D01*
X0020689Y0021310D01*
X0020607Y0021180D01*
X0020523Y0021052D01*
X0020435Y0020927D01*
X0020344Y0020804D01*
X0020250Y0020683D01*
X0020153Y0020565D01*
X0020052Y0020449D01*
X0019949Y0020336D01*
X0019843Y0020225D01*
X0019734Y0020118D01*
X0019622Y0020013D01*
X0019508Y0019911D01*
X0019391Y0019812D01*
X0019271Y0019717D01*
X0019149Y0019624D01*
X0019025Y0019535D01*
X0018898Y0019448D01*
X0018769Y0019366D01*
X0018638Y0019286D01*
X0018505Y0019210D01*
X0018370Y0019138D01*
X0018233Y0019069D01*
X0018095Y0019003D01*
X0017955Y0018941D01*
X0017813Y0018883D01*
X0017670Y0018829D01*
X0017525Y0018778D01*
X0017380Y0018731D01*
X0017233Y0018688D01*
X0017085Y0018649D01*
X0016936Y0018613D01*
X0016786Y0018582D01*
X0016635Y0018554D01*
X0016484Y0018530D01*
X0016332Y0018510D01*
X0016179Y0018494D01*
X0016027Y0018482D01*
X0015874Y0018474D01*
X0015721Y0018470D01*
X0015567Y0018470D01*
X0015414Y0018474D01*
X0015261Y0018482D01*
X0015109Y0018494D01*
X0014956Y0018510D01*
X0014804Y0018530D01*
X0014653Y0018554D01*
X0014502Y0018582D01*
X0014352Y0018613D01*
X0014203Y0018649D01*
X0014055Y0018688D01*
X0013908Y0018731D01*
X0013763Y0018778D01*
X0013618Y0018829D01*
X0013475Y0018883D01*
X0013333Y0018941D01*
X0013193Y0019003D01*
X0013055Y0019069D01*
X0012918Y0019138D01*
X0012783Y0019210D01*
X0012650Y0019286D01*
X0012519Y0019366D01*
X0012390Y0019448D01*
X0012263Y0019535D01*
X0012139Y0019624D01*
X0012017Y0019717D01*
X0011897Y0019812D01*
X0011780Y0019911D01*
X0011666Y0020013D01*
X0011554Y0020118D01*
X0011445Y0020225D01*
X0011339Y0020336D01*
X0011236Y0020449D01*
X0011135Y0020565D01*
X0011038Y0020683D01*
X0010944Y0020804D01*
X0010853Y0020927D01*
X0010765Y0021052D01*
X0010681Y0021180D01*
X0010599Y0021310D01*
X0010522Y0021442D01*
X0010447Y0021576D01*
X0010377Y0021712D01*
X0010309Y0021850D01*
X0010246Y0021989D01*
X0010186Y0022130D01*
X0010129Y0022272D01*
X0010077Y0022416D01*
X0010028Y0022561D01*
X0009983Y0022708D01*
X0009942Y0022855D01*
X0009904Y0023004D01*
X0009871Y0023153D01*
X0009841Y0023304D01*
X0009815Y0023455D01*
X0009794Y0023606D01*
X0009776Y0023758D01*
X0009762Y0023911D01*
X0009752Y0024064D01*
X0009746Y0024217D01*
X0009744Y0024370D01*
X0011744Y0167370D02*
X0011746Y0167523D01*
X0011752Y0167676D01*
X0011762Y0167829D01*
X0011776Y0167982D01*
X0011794Y0168134D01*
X0011815Y0168285D01*
X0011841Y0168436D01*
X0011871Y0168587D01*
X0011904Y0168736D01*
X0011942Y0168885D01*
X0011983Y0169032D01*
X0012028Y0169179D01*
X0012077Y0169324D01*
X0012129Y0169468D01*
X0012186Y0169610D01*
X0012246Y0169751D01*
X0012309Y0169890D01*
X0012377Y0170028D01*
X0012447Y0170164D01*
X0012522Y0170298D01*
X0012599Y0170430D01*
X0012681Y0170560D01*
X0012765Y0170688D01*
X0012853Y0170813D01*
X0012944Y0170936D01*
X0013038Y0171057D01*
X0013135Y0171175D01*
X0013236Y0171291D01*
X0013339Y0171404D01*
X0013445Y0171515D01*
X0013554Y0171622D01*
X0013666Y0171727D01*
X0013780Y0171829D01*
X0013897Y0171928D01*
X0014017Y0172023D01*
X0014139Y0172116D01*
X0014263Y0172205D01*
X0014390Y0172292D01*
X0014519Y0172374D01*
X0014650Y0172454D01*
X0014783Y0172530D01*
X0014918Y0172602D01*
X0015055Y0172671D01*
X0015193Y0172737D01*
X0015333Y0172799D01*
X0015475Y0172857D01*
X0015618Y0172911D01*
X0015763Y0172962D01*
X0015908Y0173009D01*
X0016055Y0173052D01*
X0016203Y0173091D01*
X0016352Y0173127D01*
X0016502Y0173158D01*
X0016653Y0173186D01*
X0016804Y0173210D01*
X0016956Y0173230D01*
X0017109Y0173246D01*
X0017261Y0173258D01*
X0017414Y0173266D01*
X0017567Y0173270D01*
X0017721Y0173270D01*
X0017874Y0173266D01*
X0018027Y0173258D01*
X0018179Y0173246D01*
X0018332Y0173230D01*
X0018484Y0173210D01*
X0018635Y0173186D01*
X0018786Y0173158D01*
X0018936Y0173127D01*
X0019085Y0173091D01*
X0019233Y0173052D01*
X0019380Y0173009D01*
X0019525Y0172962D01*
X0019670Y0172911D01*
X0019813Y0172857D01*
X0019955Y0172799D01*
X0020095Y0172737D01*
X0020233Y0172671D01*
X0020370Y0172602D01*
X0020505Y0172530D01*
X0020638Y0172454D01*
X0020769Y0172374D01*
X0020898Y0172292D01*
X0021025Y0172205D01*
X0021149Y0172116D01*
X0021271Y0172023D01*
X0021391Y0171928D01*
X0021508Y0171829D01*
X0021622Y0171727D01*
X0021734Y0171622D01*
X0021843Y0171515D01*
X0021949Y0171404D01*
X0022052Y0171291D01*
X0022153Y0171175D01*
X0022250Y0171057D01*
X0022344Y0170936D01*
X0022435Y0170813D01*
X0022523Y0170688D01*
X0022607Y0170560D01*
X0022689Y0170430D01*
X0022766Y0170298D01*
X0022841Y0170164D01*
X0022911Y0170028D01*
X0022979Y0169890D01*
X0023042Y0169751D01*
X0023102Y0169610D01*
X0023159Y0169468D01*
X0023211Y0169324D01*
X0023260Y0169179D01*
X0023305Y0169032D01*
X0023346Y0168885D01*
X0023384Y0168736D01*
X0023417Y0168587D01*
X0023447Y0168436D01*
X0023473Y0168285D01*
X0023494Y0168134D01*
X0023512Y0167982D01*
X0023526Y0167829D01*
X0023536Y0167676D01*
X0023542Y0167523D01*
X0023544Y0167370D01*
X0023542Y0167217D01*
X0023536Y0167064D01*
X0023526Y0166911D01*
X0023512Y0166758D01*
X0023494Y0166606D01*
X0023473Y0166455D01*
X0023447Y0166304D01*
X0023417Y0166153D01*
X0023384Y0166004D01*
X0023346Y0165855D01*
X0023305Y0165708D01*
X0023260Y0165561D01*
X0023211Y0165416D01*
X0023159Y0165272D01*
X0023102Y0165130D01*
X0023042Y0164989D01*
X0022979Y0164850D01*
X0022911Y0164712D01*
X0022841Y0164576D01*
X0022766Y0164442D01*
X0022689Y0164310D01*
X0022607Y0164180D01*
X0022523Y0164052D01*
X0022435Y0163927D01*
X0022344Y0163804D01*
X0022250Y0163683D01*
X0022153Y0163565D01*
X0022052Y0163449D01*
X0021949Y0163336D01*
X0021843Y0163225D01*
X0021734Y0163118D01*
X0021622Y0163013D01*
X0021508Y0162911D01*
X0021391Y0162812D01*
X0021271Y0162717D01*
X0021149Y0162624D01*
X0021025Y0162535D01*
X0020898Y0162448D01*
X0020769Y0162366D01*
X0020638Y0162286D01*
X0020505Y0162210D01*
X0020370Y0162138D01*
X0020233Y0162069D01*
X0020095Y0162003D01*
X0019955Y0161941D01*
X0019813Y0161883D01*
X0019670Y0161829D01*
X0019525Y0161778D01*
X0019380Y0161731D01*
X0019233Y0161688D01*
X0019085Y0161649D01*
X0018936Y0161613D01*
X0018786Y0161582D01*
X0018635Y0161554D01*
X0018484Y0161530D01*
X0018332Y0161510D01*
X0018179Y0161494D01*
X0018027Y0161482D01*
X0017874Y0161474D01*
X0017721Y0161470D01*
X0017567Y0161470D01*
X0017414Y0161474D01*
X0017261Y0161482D01*
X0017109Y0161494D01*
X0016956Y0161510D01*
X0016804Y0161530D01*
X0016653Y0161554D01*
X0016502Y0161582D01*
X0016352Y0161613D01*
X0016203Y0161649D01*
X0016055Y0161688D01*
X0015908Y0161731D01*
X0015763Y0161778D01*
X0015618Y0161829D01*
X0015475Y0161883D01*
X0015333Y0161941D01*
X0015193Y0162003D01*
X0015055Y0162069D01*
X0014918Y0162138D01*
X0014783Y0162210D01*
X0014650Y0162286D01*
X0014519Y0162366D01*
X0014390Y0162448D01*
X0014263Y0162535D01*
X0014139Y0162624D01*
X0014017Y0162717D01*
X0013897Y0162812D01*
X0013780Y0162911D01*
X0013666Y0163013D01*
X0013554Y0163118D01*
X0013445Y0163225D01*
X0013339Y0163336D01*
X0013236Y0163449D01*
X0013135Y0163565D01*
X0013038Y0163683D01*
X0012944Y0163804D01*
X0012853Y0163927D01*
X0012765Y0164052D01*
X0012681Y0164180D01*
X0012599Y0164310D01*
X0012522Y0164442D01*
X0012447Y0164576D01*
X0012377Y0164712D01*
X0012309Y0164850D01*
X0012246Y0164989D01*
X0012186Y0165130D01*
X0012129Y0165272D01*
X0012077Y0165416D01*
X0012028Y0165561D01*
X0011983Y0165708D01*
X0011942Y0165855D01*
X0011904Y0166004D01*
X0011871Y0166153D01*
X0011841Y0166304D01*
X0011815Y0166455D01*
X0011794Y0166606D01*
X0011776Y0166758D01*
X0011762Y0166911D01*
X0011752Y0167064D01*
X0011746Y0167217D01*
X0011744Y0167370D01*
X0241744Y0168370D02*
X0241746Y0168523D01*
X0241752Y0168676D01*
X0241762Y0168829D01*
X0241776Y0168982D01*
X0241794Y0169134D01*
X0241815Y0169285D01*
X0241841Y0169436D01*
X0241871Y0169587D01*
X0241904Y0169736D01*
X0241942Y0169885D01*
X0241983Y0170032D01*
X0242028Y0170179D01*
X0242077Y0170324D01*
X0242129Y0170468D01*
X0242186Y0170610D01*
X0242246Y0170751D01*
X0242309Y0170890D01*
X0242377Y0171028D01*
X0242447Y0171164D01*
X0242522Y0171298D01*
X0242599Y0171430D01*
X0242681Y0171560D01*
X0242765Y0171688D01*
X0242853Y0171813D01*
X0242944Y0171936D01*
X0243038Y0172057D01*
X0243135Y0172175D01*
X0243236Y0172291D01*
X0243339Y0172404D01*
X0243445Y0172515D01*
X0243554Y0172622D01*
X0243666Y0172727D01*
X0243780Y0172829D01*
X0243897Y0172928D01*
X0244017Y0173023D01*
X0244139Y0173116D01*
X0244263Y0173205D01*
X0244390Y0173292D01*
X0244519Y0173374D01*
X0244650Y0173454D01*
X0244783Y0173530D01*
X0244918Y0173602D01*
X0245055Y0173671D01*
X0245193Y0173737D01*
X0245333Y0173799D01*
X0245475Y0173857D01*
X0245618Y0173911D01*
X0245763Y0173962D01*
X0245908Y0174009D01*
X0246055Y0174052D01*
X0246203Y0174091D01*
X0246352Y0174127D01*
X0246502Y0174158D01*
X0246653Y0174186D01*
X0246804Y0174210D01*
X0246956Y0174230D01*
X0247109Y0174246D01*
X0247261Y0174258D01*
X0247414Y0174266D01*
X0247567Y0174270D01*
X0247721Y0174270D01*
X0247874Y0174266D01*
X0248027Y0174258D01*
X0248179Y0174246D01*
X0248332Y0174230D01*
X0248484Y0174210D01*
X0248635Y0174186D01*
X0248786Y0174158D01*
X0248936Y0174127D01*
X0249085Y0174091D01*
X0249233Y0174052D01*
X0249380Y0174009D01*
X0249525Y0173962D01*
X0249670Y0173911D01*
X0249813Y0173857D01*
X0249955Y0173799D01*
X0250095Y0173737D01*
X0250233Y0173671D01*
X0250370Y0173602D01*
X0250505Y0173530D01*
X0250638Y0173454D01*
X0250769Y0173374D01*
X0250898Y0173292D01*
X0251025Y0173205D01*
X0251149Y0173116D01*
X0251271Y0173023D01*
X0251391Y0172928D01*
X0251508Y0172829D01*
X0251622Y0172727D01*
X0251734Y0172622D01*
X0251843Y0172515D01*
X0251949Y0172404D01*
X0252052Y0172291D01*
X0252153Y0172175D01*
X0252250Y0172057D01*
X0252344Y0171936D01*
X0252435Y0171813D01*
X0252523Y0171688D01*
X0252607Y0171560D01*
X0252689Y0171430D01*
X0252766Y0171298D01*
X0252841Y0171164D01*
X0252911Y0171028D01*
X0252979Y0170890D01*
X0253042Y0170751D01*
X0253102Y0170610D01*
X0253159Y0170468D01*
X0253211Y0170324D01*
X0253260Y0170179D01*
X0253305Y0170032D01*
X0253346Y0169885D01*
X0253384Y0169736D01*
X0253417Y0169587D01*
X0253447Y0169436D01*
X0253473Y0169285D01*
X0253494Y0169134D01*
X0253512Y0168982D01*
X0253526Y0168829D01*
X0253536Y0168676D01*
X0253542Y0168523D01*
X0253544Y0168370D01*
X0253542Y0168217D01*
X0253536Y0168064D01*
X0253526Y0167911D01*
X0253512Y0167758D01*
X0253494Y0167606D01*
X0253473Y0167455D01*
X0253447Y0167304D01*
X0253417Y0167153D01*
X0253384Y0167004D01*
X0253346Y0166855D01*
X0253305Y0166708D01*
X0253260Y0166561D01*
X0253211Y0166416D01*
X0253159Y0166272D01*
X0253102Y0166130D01*
X0253042Y0165989D01*
X0252979Y0165850D01*
X0252911Y0165712D01*
X0252841Y0165576D01*
X0252766Y0165442D01*
X0252689Y0165310D01*
X0252607Y0165180D01*
X0252523Y0165052D01*
X0252435Y0164927D01*
X0252344Y0164804D01*
X0252250Y0164683D01*
X0252153Y0164565D01*
X0252052Y0164449D01*
X0251949Y0164336D01*
X0251843Y0164225D01*
X0251734Y0164118D01*
X0251622Y0164013D01*
X0251508Y0163911D01*
X0251391Y0163812D01*
X0251271Y0163717D01*
X0251149Y0163624D01*
X0251025Y0163535D01*
X0250898Y0163448D01*
X0250769Y0163366D01*
X0250638Y0163286D01*
X0250505Y0163210D01*
X0250370Y0163138D01*
X0250233Y0163069D01*
X0250095Y0163003D01*
X0249955Y0162941D01*
X0249813Y0162883D01*
X0249670Y0162829D01*
X0249525Y0162778D01*
X0249380Y0162731D01*
X0249233Y0162688D01*
X0249085Y0162649D01*
X0248936Y0162613D01*
X0248786Y0162582D01*
X0248635Y0162554D01*
X0248484Y0162530D01*
X0248332Y0162510D01*
X0248179Y0162494D01*
X0248027Y0162482D01*
X0247874Y0162474D01*
X0247721Y0162470D01*
X0247567Y0162470D01*
X0247414Y0162474D01*
X0247261Y0162482D01*
X0247109Y0162494D01*
X0246956Y0162510D01*
X0246804Y0162530D01*
X0246653Y0162554D01*
X0246502Y0162582D01*
X0246352Y0162613D01*
X0246203Y0162649D01*
X0246055Y0162688D01*
X0245908Y0162731D01*
X0245763Y0162778D01*
X0245618Y0162829D01*
X0245475Y0162883D01*
X0245333Y0162941D01*
X0245193Y0163003D01*
X0245055Y0163069D01*
X0244918Y0163138D01*
X0244783Y0163210D01*
X0244650Y0163286D01*
X0244519Y0163366D01*
X0244390Y0163448D01*
X0244263Y0163535D01*
X0244139Y0163624D01*
X0244017Y0163717D01*
X0243897Y0163812D01*
X0243780Y0163911D01*
X0243666Y0164013D01*
X0243554Y0164118D01*
X0243445Y0164225D01*
X0243339Y0164336D01*
X0243236Y0164449D01*
X0243135Y0164565D01*
X0243038Y0164683D01*
X0242944Y0164804D01*
X0242853Y0164927D01*
X0242765Y0165052D01*
X0242681Y0165180D01*
X0242599Y0165310D01*
X0242522Y0165442D01*
X0242447Y0165576D01*
X0242377Y0165712D01*
X0242309Y0165850D01*
X0242246Y0165989D01*
X0242186Y0166130D01*
X0242129Y0166272D01*
X0242077Y0166416D01*
X0242028Y0166561D01*
X0241983Y0166708D01*
X0241942Y0166855D01*
X0241904Y0167004D01*
X0241871Y0167153D01*
X0241841Y0167304D01*
X0241815Y0167455D01*
X0241794Y0167606D01*
X0241776Y0167758D01*
X0241762Y0167911D01*
X0241752Y0168064D01*
X0241746Y0168217D01*
X0241744Y0168370D01*
X0241744Y0024370D02*
X0241746Y0024523D01*
X0241752Y0024676D01*
X0241762Y0024829D01*
X0241776Y0024982D01*
X0241794Y0025134D01*
X0241815Y0025285D01*
X0241841Y0025436D01*
X0241871Y0025587D01*
X0241904Y0025736D01*
X0241942Y0025885D01*
X0241983Y0026032D01*
X0242028Y0026179D01*
X0242077Y0026324D01*
X0242129Y0026468D01*
X0242186Y0026610D01*
X0242246Y0026751D01*
X0242309Y0026890D01*
X0242377Y0027028D01*
X0242447Y0027164D01*
X0242522Y0027298D01*
X0242599Y0027430D01*
X0242681Y0027560D01*
X0242765Y0027688D01*
X0242853Y0027813D01*
X0242944Y0027936D01*
X0243038Y0028057D01*
X0243135Y0028175D01*
X0243236Y0028291D01*
X0243339Y0028404D01*
X0243445Y0028515D01*
X0243554Y0028622D01*
X0243666Y0028727D01*
X0243780Y0028829D01*
X0243897Y0028928D01*
X0244017Y0029023D01*
X0244139Y0029116D01*
X0244263Y0029205D01*
X0244390Y0029292D01*
X0244519Y0029374D01*
X0244650Y0029454D01*
X0244783Y0029530D01*
X0244918Y0029602D01*
X0245055Y0029671D01*
X0245193Y0029737D01*
X0245333Y0029799D01*
X0245475Y0029857D01*
X0245618Y0029911D01*
X0245763Y0029962D01*
X0245908Y0030009D01*
X0246055Y0030052D01*
X0246203Y0030091D01*
X0246352Y0030127D01*
X0246502Y0030158D01*
X0246653Y0030186D01*
X0246804Y0030210D01*
X0246956Y0030230D01*
X0247109Y0030246D01*
X0247261Y0030258D01*
X0247414Y0030266D01*
X0247567Y0030270D01*
X0247721Y0030270D01*
X0247874Y0030266D01*
X0248027Y0030258D01*
X0248179Y0030246D01*
X0248332Y0030230D01*
X0248484Y0030210D01*
X0248635Y0030186D01*
X0248786Y0030158D01*
X0248936Y0030127D01*
X0249085Y0030091D01*
X0249233Y0030052D01*
X0249380Y0030009D01*
X0249525Y0029962D01*
X0249670Y0029911D01*
X0249813Y0029857D01*
X0249955Y0029799D01*
X0250095Y0029737D01*
X0250233Y0029671D01*
X0250370Y0029602D01*
X0250505Y0029530D01*
X0250638Y0029454D01*
X0250769Y0029374D01*
X0250898Y0029292D01*
X0251025Y0029205D01*
X0251149Y0029116D01*
X0251271Y0029023D01*
X0251391Y0028928D01*
X0251508Y0028829D01*
X0251622Y0028727D01*
X0251734Y0028622D01*
X0251843Y0028515D01*
X0251949Y0028404D01*
X0252052Y0028291D01*
X0252153Y0028175D01*
X0252250Y0028057D01*
X0252344Y0027936D01*
X0252435Y0027813D01*
X0252523Y0027688D01*
X0252607Y0027560D01*
X0252689Y0027430D01*
X0252766Y0027298D01*
X0252841Y0027164D01*
X0252911Y0027028D01*
X0252979Y0026890D01*
X0253042Y0026751D01*
X0253102Y0026610D01*
X0253159Y0026468D01*
X0253211Y0026324D01*
X0253260Y0026179D01*
X0253305Y0026032D01*
X0253346Y0025885D01*
X0253384Y0025736D01*
X0253417Y0025587D01*
X0253447Y0025436D01*
X0253473Y0025285D01*
X0253494Y0025134D01*
X0253512Y0024982D01*
X0253526Y0024829D01*
X0253536Y0024676D01*
X0253542Y0024523D01*
X0253544Y0024370D01*
X0253542Y0024217D01*
X0253536Y0024064D01*
X0253526Y0023911D01*
X0253512Y0023758D01*
X0253494Y0023606D01*
X0253473Y0023455D01*
X0253447Y0023304D01*
X0253417Y0023153D01*
X0253384Y0023004D01*
X0253346Y0022855D01*
X0253305Y0022708D01*
X0253260Y0022561D01*
X0253211Y0022416D01*
X0253159Y0022272D01*
X0253102Y0022130D01*
X0253042Y0021989D01*
X0252979Y0021850D01*
X0252911Y0021712D01*
X0252841Y0021576D01*
X0252766Y0021442D01*
X0252689Y0021310D01*
X0252607Y0021180D01*
X0252523Y0021052D01*
X0252435Y0020927D01*
X0252344Y0020804D01*
X0252250Y0020683D01*
X0252153Y0020565D01*
X0252052Y0020449D01*
X0251949Y0020336D01*
X0251843Y0020225D01*
X0251734Y0020118D01*
X0251622Y0020013D01*
X0251508Y0019911D01*
X0251391Y0019812D01*
X0251271Y0019717D01*
X0251149Y0019624D01*
X0251025Y0019535D01*
X0250898Y0019448D01*
X0250769Y0019366D01*
X0250638Y0019286D01*
X0250505Y0019210D01*
X0250370Y0019138D01*
X0250233Y0019069D01*
X0250095Y0019003D01*
X0249955Y0018941D01*
X0249813Y0018883D01*
X0249670Y0018829D01*
X0249525Y0018778D01*
X0249380Y0018731D01*
X0249233Y0018688D01*
X0249085Y0018649D01*
X0248936Y0018613D01*
X0248786Y0018582D01*
X0248635Y0018554D01*
X0248484Y0018530D01*
X0248332Y0018510D01*
X0248179Y0018494D01*
X0248027Y0018482D01*
X0247874Y0018474D01*
X0247721Y0018470D01*
X0247567Y0018470D01*
X0247414Y0018474D01*
X0247261Y0018482D01*
X0247109Y0018494D01*
X0246956Y0018510D01*
X0246804Y0018530D01*
X0246653Y0018554D01*
X0246502Y0018582D01*
X0246352Y0018613D01*
X0246203Y0018649D01*
X0246055Y0018688D01*
X0245908Y0018731D01*
X0245763Y0018778D01*
X0245618Y0018829D01*
X0245475Y0018883D01*
X0245333Y0018941D01*
X0245193Y0019003D01*
X0245055Y0019069D01*
X0244918Y0019138D01*
X0244783Y0019210D01*
X0244650Y0019286D01*
X0244519Y0019366D01*
X0244390Y0019448D01*
X0244263Y0019535D01*
X0244139Y0019624D01*
X0244017Y0019717D01*
X0243897Y0019812D01*
X0243780Y0019911D01*
X0243666Y0020013D01*
X0243554Y0020118D01*
X0243445Y0020225D01*
X0243339Y0020336D01*
X0243236Y0020449D01*
X0243135Y0020565D01*
X0243038Y0020683D01*
X0242944Y0020804D01*
X0242853Y0020927D01*
X0242765Y0021052D01*
X0242681Y0021180D01*
X0242599Y0021310D01*
X0242522Y0021442D01*
X0242447Y0021576D01*
X0242377Y0021712D01*
X0242309Y0021850D01*
X0242246Y0021989D01*
X0242186Y0022130D01*
X0242129Y0022272D01*
X0242077Y0022416D01*
X0242028Y0022561D01*
X0241983Y0022708D01*
X0241942Y0022855D01*
X0241904Y0023004D01*
X0241871Y0023153D01*
X0241841Y0023304D01*
X0241815Y0023455D01*
X0241794Y0023606D01*
X0241776Y0023758D01*
X0241762Y0023911D01*
X0241752Y0024064D01*
X0241746Y0024217D01*
X0241744Y0024370D01*
D11*
X0144038Y0086295D03*
X0144038Y0088854D03*
X0144038Y0091413D03*
X0144038Y0093972D03*
X0144038Y0096531D03*
X0144038Y0099091D03*
X0144038Y0101650D03*
X0144038Y0104209D03*
X0144038Y0106768D03*
X0144038Y0109327D03*
X0144038Y0111886D03*
X0144038Y0114445D03*
X0115251Y0114445D03*
X0115251Y0111886D03*
X0115251Y0109327D03*
X0115251Y0106768D03*
X0115251Y0104209D03*
X0115251Y0101650D03*
X0115251Y0099091D03*
X0115251Y0096531D03*
X0115251Y0093972D03*
X0115251Y0091413D03*
X0115251Y0088854D03*
X0115251Y0086295D03*
D12*
X0118644Y0122370D03*
X0108644Y0122370D03*
X0108644Y0132370D03*
X0118644Y0132370D03*
X0128644Y0132370D03*
X0138644Y0132370D03*
X0148644Y0132370D03*
X0158644Y0132370D03*
X0168644Y0132370D03*
X0178644Y0132370D03*
X0188644Y0132370D03*
X0188644Y0122370D03*
X0178644Y0122370D03*
X0168644Y0122370D03*
X0158644Y0122370D03*
X0148644Y0122370D03*
X0138644Y0122370D03*
X0128644Y0122370D03*
D13*
X0131550Y0058520D03*
X0131550Y0055921D03*
X0131550Y0053323D03*
X0131550Y0050724D03*
X0131550Y0048126D03*
X0131550Y0045528D03*
X0131550Y0042929D03*
X0131550Y0040331D03*
X0131550Y0037732D03*
X0089739Y0037732D03*
X0089739Y0040331D03*
X0089739Y0042929D03*
X0089739Y0045528D03*
X0089739Y0048126D03*
X0089739Y0050724D03*
X0089739Y0053323D03*
X0089739Y0055921D03*
X0089739Y0058520D03*
D14*
X0093755Y0061374D03*
X0096353Y0061374D03*
X0098952Y0061374D03*
X0101550Y0061374D03*
X0104148Y0061374D03*
X0106747Y0061374D03*
X0109345Y0061374D03*
X0111944Y0061374D03*
X0114542Y0061374D03*
X0117141Y0061374D03*
X0119739Y0061374D03*
X0122337Y0061374D03*
X0124936Y0061374D03*
X0127534Y0061374D03*
D15*
X0071015Y0030488D03*
X0042274Y0030488D03*
D16*
X0053613Y0045646D03*
X0056644Y0050370D03*
X0050345Y0050370D03*
X0059794Y0045646D03*
X0062944Y0050370D03*
D17*
X0066644Y0156370D03*
X0056644Y0156370D03*
X0056644Y0166370D03*
X0066644Y0166370D03*
X0076644Y0166370D03*
X0086644Y0166370D03*
X0096644Y0166370D03*
X0106644Y0166370D03*
X0116644Y0166370D03*
X0126644Y0166370D03*
X0126644Y0156370D03*
X0116644Y0156370D03*
X0106644Y0156370D03*
X0096644Y0156370D03*
X0086644Y0156370D03*
X0076644Y0156370D03*
X0140644Y0156370D03*
X0150644Y0156370D03*
X0160644Y0156370D03*
X0170644Y0156370D03*
X0180644Y0156370D03*
X0190644Y0156370D03*
X0200644Y0156370D03*
X0210644Y0156370D03*
X0210644Y0166370D03*
X0200644Y0166370D03*
X0190644Y0166370D03*
X0180644Y0166370D03*
X0170644Y0166370D03*
X0160644Y0166370D03*
X0150644Y0166370D03*
X0140644Y0166370D03*
D18*
X0093644Y0145913D03*
X0093644Y0138827D03*
X0082644Y0138827D03*
X0072644Y0138827D03*
X0072644Y0145913D03*
X0082644Y0145913D03*
X0063644Y0145913D03*
X0063644Y0138827D03*
X0051644Y0139913D03*
X0042644Y0139913D03*
X0042644Y0132827D03*
X0051644Y0132827D03*
X0056644Y0122913D03*
X0056644Y0115827D03*
X0058644Y0097913D03*
X0065644Y0097913D03*
X0065644Y0090827D03*
X0058644Y0090827D03*
X0045644Y0086913D03*
X0045644Y0079827D03*
X0017644Y0072913D03*
X0017644Y0065827D03*
X0017644Y0051913D03*
X0017644Y0044827D03*
X0035644Y0044827D03*
X0035644Y0051913D03*
X0143644Y0053913D03*
X0143644Y0046827D03*
D19*
X0142644Y0138843D03*
X0134644Y0138843D03*
X0127644Y0138843D03*
X0120644Y0138843D03*
X0120644Y0147898D03*
X0127644Y0147898D03*
X0134644Y0147898D03*
X0142644Y0147898D03*
X0151644Y0147898D03*
X0159644Y0147898D03*
X0168644Y0147898D03*
X0176644Y0147898D03*
X0184644Y0147898D03*
X0184644Y0138843D03*
X0176644Y0138843D03*
X0168644Y0138843D03*
X0159644Y0138843D03*
X0151644Y0138843D03*
D20*
X0171644Y0109165D03*
X0171644Y0083575D03*
X0170644Y0062165D03*
X0170644Y0036575D03*
D21*
X0204644Y0056370D03*
X0224644Y0095370D03*
D22*
X0224644Y0092370D02*
X0221993Y0092530D01*
X0219380Y0093009D01*
X0216843Y0093800D01*
X0214421Y0094890D01*
X0212147Y0096264D01*
X0210056Y0097903D01*
X0208177Y0099781D01*
X0206539Y0101873D01*
X0205164Y0104146D01*
X0204074Y0106569D01*
X0203284Y0109105D01*
X0202805Y0111718D01*
X0202644Y0114370D01*
X0202644Y0115370D01*
X0202798Y0117901D01*
X0203255Y0120396D01*
X0204009Y0122817D01*
X0205050Y0125129D01*
X0206362Y0127299D01*
X0207926Y0129296D01*
X0209719Y0131089D01*
X0211715Y0132653D01*
X0213885Y0133965D01*
X0216198Y0135005D01*
X0218619Y0135760D01*
X0221113Y0136217D01*
X0223644Y0136370D01*
X0224644Y0136370D01*
X0227296Y0136210D01*
X0229909Y0135731D01*
X0232446Y0134940D01*
X0234868Y0133850D01*
X0237142Y0132476D01*
X0239233Y0130837D01*
X0241112Y0128959D01*
X0242750Y0126868D01*
X0244125Y0124594D01*
X0245215Y0122171D01*
X0246005Y0119635D01*
X0246484Y0117022D01*
X0246644Y0114370D01*
X0246484Y0111718D01*
X0246005Y0109105D01*
X0245215Y0106569D01*
X0244125Y0104146D01*
X0242750Y0101873D01*
X0241112Y0099781D01*
X0239233Y0097903D01*
X0237142Y0096264D01*
X0234868Y0094890D01*
X0232446Y0093800D01*
X0229909Y0093009D01*
X0227296Y0092530D01*
X0224644Y0092370D01*
X0215241Y0094521D02*
X0234048Y0094521D01*
X0237978Y0096919D02*
X0211311Y0096919D01*
X0208641Y0099318D02*
X0240648Y0099318D01*
X0242628Y0101716D02*
X0206661Y0101716D01*
X0205183Y0104115D02*
X0244106Y0104115D01*
X0245190Y0106514D02*
X0204099Y0106514D01*
X0203344Y0108912D02*
X0245945Y0108912D01*
X0246409Y0111311D02*
X0202880Y0111311D01*
X0202684Y0113709D02*
X0246605Y0113709D01*
X0246539Y0116108D02*
X0202689Y0116108D01*
X0202908Y0118506D02*
X0246212Y0118506D01*
X0245610Y0120905D02*
X0203413Y0120905D01*
X0204228Y0123303D02*
X0244705Y0123303D01*
X0243455Y0125702D02*
X0205396Y0125702D01*
X0206989Y0128100D02*
X0241784Y0128100D01*
X0239572Y0130499D02*
X0209129Y0130499D01*
X0212119Y0132897D02*
X0236445Y0132897D01*
X0231306Y0135296D02*
X0217129Y0135296D01*
X0220993Y0078210D02*
X0223644Y0078370D01*
X0224644Y0078370D01*
X0227176Y0078217D01*
X0229670Y0077760D01*
X0232091Y0077005D01*
X0234404Y0075965D01*
X0236574Y0074653D01*
X0238570Y0073089D01*
X0240363Y0071296D01*
X0241927Y0069299D01*
X0243239Y0067129D01*
X0244280Y0064817D01*
X0245034Y0062396D01*
X0245491Y0059901D01*
X0245644Y0057370D01*
X0245644Y0056370D01*
X0245484Y0053718D01*
X0245005Y0051105D01*
X0244215Y0048569D01*
X0243125Y0046146D01*
X0241750Y0043873D01*
X0240112Y0041781D01*
X0238233Y0039903D01*
X0236142Y0038264D01*
X0233868Y0036890D01*
X0231446Y0035800D01*
X0228909Y0035009D01*
X0226296Y0034530D01*
X0223644Y0034370D01*
X0220993Y0034530D01*
X0218380Y0035009D01*
X0215843Y0035800D01*
X0213421Y0036890D01*
X0211147Y0038264D01*
X0209056Y0039903D01*
X0207177Y0041781D01*
X0205539Y0043873D01*
X0204164Y0046146D01*
X0203074Y0048569D01*
X0202284Y0051105D01*
X0201805Y0053718D01*
X0201644Y0056370D01*
X0201805Y0059022D01*
X0202284Y0061635D01*
X0203074Y0064171D01*
X0204164Y0066594D01*
X0205539Y0068868D01*
X0207177Y0070959D01*
X0209056Y0072837D01*
X0211147Y0074476D01*
X0213421Y0075850D01*
X0215843Y0076940D01*
X0218380Y0077731D01*
X0220993Y0078210D01*
X0218383Y0077731D02*
X0229762Y0077731D01*
X0235449Y0075333D02*
X0212565Y0075333D01*
X0209180Y0072934D02*
X0238725Y0072934D01*
X0240958Y0070536D02*
X0206846Y0070536D01*
X0205097Y0068137D02*
X0242630Y0068137D01*
X0243865Y0065739D02*
X0203780Y0065739D01*
X0202815Y0063340D02*
X0244740Y0063340D01*
X0245301Y0060942D02*
X0202157Y0060942D01*
X0201776Y0058543D02*
X0245574Y0058543D01*
X0245631Y0056145D02*
X0201658Y0056145D01*
X0201803Y0053746D02*
X0245486Y0053746D01*
X0245050Y0051348D02*
X0202239Y0051348D01*
X0202956Y0048949D02*
X0244333Y0048949D01*
X0243307Y0046551D02*
X0203982Y0046551D01*
X0205370Y0044152D02*
X0241919Y0044152D01*
X0240084Y0041754D02*
X0207205Y0041754D01*
X0209755Y0039355D02*
X0237534Y0039355D01*
X0233979Y0036957D02*
X0213310Y0036957D01*
X0220842Y0034558D02*
X0226447Y0034558D01*
D23*
X0030644Y0127559D03*
X0030644Y0135433D03*
X0030644Y0143307D03*
X0030644Y0151181D03*
D24*
X0062625Y0110339D03*
X0062625Y0108370D03*
X0062625Y0106402D03*
X0072664Y0106402D03*
X0072664Y0108370D03*
X0072664Y0110339D03*
D25*
X0071581Y0113390D03*
X0069613Y0113390D03*
X0067644Y0113390D03*
X0065676Y0113390D03*
X0063707Y0113390D03*
X0063707Y0103350D03*
X0065676Y0103350D03*
X0067644Y0103350D03*
X0069613Y0103350D03*
X0071581Y0103350D03*
D26*
X0049676Y0110976D03*
X0047707Y0110976D03*
X0045739Y0110976D03*
X0043770Y0110976D03*
X0043770Y0121803D03*
X0045739Y0121803D03*
X0047707Y0121803D03*
X0049676Y0121803D03*
D27*
X0039188Y0080370D03*
X0032101Y0080370D03*
X0025188Y0080370D03*
X0018101Y0080370D03*
X0050101Y0060370D03*
X0057188Y0060370D03*
X0138601Y0060870D03*
X0145688Y0060870D03*
D28*
X0036744Y0089170D03*
X0027644Y0089170D03*
X0018544Y0089170D03*
D29*
X0027644Y0113571D03*
D30*
X0029204Y0052012D03*
X0024085Y0052012D03*
X0026644Y0044728D03*
D31*
X0222144Y0148370D03*
X0237144Y0148370D03*
X0237144Y0170370D03*
X0222144Y0170370D03*
D32*
X0090644Y0122370D03*
X0090644Y0112370D03*
X0090644Y0095370D03*
X0090644Y0085370D03*
X0157644Y0020870D03*
X0167644Y0021870D03*
X0177644Y0020870D03*
X0187644Y0021870D03*
X0197644Y0020870D03*
D33*
X0055644Y0075370D03*
X0041644Y0059370D03*
X0031644Y0024370D03*
D34*
X0036344Y0034270D02*
X0010844Y0034270D01*
X0009644Y0035470D01*
X0009644Y0135970D01*
X0044744Y0171070D01*
X0092144Y0171070D01*
X0096644Y0166570D01*
X0096644Y0166370D01*
X0096644Y0166570D02*
X0106544Y0166570D01*
X0106644Y0166370D01*
X0106844Y0166570D01*
X0116444Y0166570D01*
X0116644Y0166370D01*
X0116744Y0166570D01*
X0126644Y0166570D01*
X0126644Y0166370D01*
X0131444Y0165670D02*
X0131444Y0164470D01*
X0128144Y0161170D01*
X0111644Y0161170D01*
X0106844Y0156370D01*
X0106644Y0156370D01*
X0096644Y0156370D02*
X0093344Y0156370D01*
X0088544Y0161170D01*
X0081944Y0161170D01*
X0081944Y0154270D01*
X0083744Y0152470D01*
X0083744Y0150370D01*
X0090944Y0143170D01*
X0094544Y0143170D01*
X0096944Y0140770D01*
X0096944Y0139270D01*
X0107144Y0129070D01*
X0120044Y0129070D01*
X0126644Y0135670D01*
X0128744Y0135670D01*
X0130244Y0137170D01*
X0130244Y0147670D01*
X0138944Y0156370D01*
X0140644Y0156370D01*
X0141944Y0151570D02*
X0144944Y0151570D01*
X0145244Y0151870D01*
X0146744Y0150070D02*
X0144644Y0147970D01*
X0142844Y0147970D01*
X0142644Y0147898D01*
X0142544Y0147670D01*
X0139844Y0144970D01*
X0139844Y0138670D01*
X0131444Y0130270D01*
X0131444Y0129070D01*
X0129644Y0126670D02*
X0137744Y0126670D01*
X0148844Y0137770D01*
X0148844Y0144970D01*
X0151544Y0147670D01*
X0151644Y0147898D01*
X0151844Y0147670D01*
X0156344Y0143170D01*
X0168644Y0143170D01*
X0176744Y0143170D01*
X0179444Y0140470D01*
X0179444Y0136870D01*
X0192044Y0124270D01*
X0192044Y0120970D01*
X0185744Y0114670D01*
X0185744Y0066970D01*
X0183644Y0057670D02*
X0168644Y0057670D01*
X0165644Y0060670D01*
X0145844Y0060670D01*
X0145688Y0060870D01*
X0146444Y0056470D02*
X0144644Y0056470D01*
X0140444Y0060670D01*
X0138644Y0060670D01*
X0138601Y0060870D01*
X0138344Y0060970D01*
X0138344Y0064870D01*
X0133844Y0069370D01*
X0131144Y0069370D01*
X0125144Y0063370D01*
X0125144Y0061570D01*
X0124936Y0061374D01*
X0122444Y0061570D02*
X0122337Y0061374D01*
X0122444Y0061570D02*
X0122444Y0066670D01*
X0123944Y0068170D01*
X0127544Y0061570D02*
X0127534Y0061374D01*
X0127544Y0061570D02*
X0132944Y0066970D01*
X0138944Y0068170D02*
X0141944Y0065170D01*
X0141944Y0064270D01*
X0134744Y0058270D02*
X0140144Y0052870D01*
X0140144Y0051970D01*
X0141644Y0050470D01*
X0147044Y0050470D01*
X0147344Y0053770D02*
X0143744Y0053770D01*
X0143644Y0053913D01*
X0146444Y0056470D02*
X0164444Y0038470D01*
X0164444Y0028870D01*
X0163844Y0028270D01*
X0161444Y0030070D02*
X0161444Y0023770D01*
X0162944Y0022270D01*
X0162944Y0019870D01*
X0165644Y0017170D01*
X0169544Y0017170D01*
X0172244Y0019870D01*
X0172244Y0034870D01*
X0170744Y0036370D01*
X0170644Y0036575D01*
X0166244Y0038470D02*
X0166244Y0023170D01*
X0167444Y0021970D01*
X0167644Y0021870D01*
X0159044Y0029170D02*
X0154244Y0029170D01*
X0151244Y0032170D01*
X0129044Y0032170D01*
X0115844Y0045370D01*
X0089744Y0045370D01*
X0089739Y0045528D01*
X0089444Y0045670D01*
X0077144Y0045670D01*
X0076244Y0048070D02*
X0064544Y0036370D01*
X0038444Y0036370D01*
X0036344Y0034270D01*
X0042344Y0038770D02*
X0065144Y0038770D01*
X0076844Y0050470D01*
X0089444Y0050470D01*
X0089739Y0050724D01*
X0089739Y0048126D02*
X0089444Y0048070D01*
X0076244Y0048070D01*
X0072944Y0049870D02*
X0062444Y0060370D01*
X0057188Y0060370D01*
X0046844Y0061570D02*
X0046844Y0056770D01*
X0035444Y0045370D01*
X0035644Y0044827D01*
X0035444Y0045070D01*
X0031844Y0045070D01*
X0024944Y0051970D01*
X0024344Y0051970D01*
X0024085Y0052012D01*
X0026644Y0044728D02*
X0027344Y0044170D01*
X0030344Y0041170D01*
X0036044Y0041170D01*
X0046844Y0061570D02*
X0046544Y0061870D01*
X0046544Y0073570D01*
X0053144Y0080170D01*
X0053144Y0090670D01*
X0057044Y0094570D01*
X0062144Y0094570D01*
X0065644Y0097913D02*
X0065744Y0098170D01*
X0065744Y0103270D01*
X0065676Y0103350D01*
X0069613Y0103350D02*
X0069644Y0103270D01*
X0069644Y0101770D01*
X0071144Y0100270D01*
X0078344Y0100270D01*
X0080444Y0102370D01*
X0080444Y0108370D01*
X0068244Y0120570D01*
X0062544Y0120570D01*
X0061144Y0119170D01*
X0049544Y0119170D01*
X0047744Y0120970D01*
X0047744Y0121570D01*
X0047707Y0121803D01*
X0049676Y0121803D02*
X0049844Y0121570D01*
X0052244Y0121570D01*
X0045944Y0111670D02*
X0039944Y0117670D01*
X0039044Y0117670D01*
X0045944Y0111670D02*
X0045944Y0111070D01*
X0045739Y0110976D01*
X0047707Y0110976D02*
X0047744Y0110770D01*
X0047744Y0105670D01*
X0049394Y0104020D01*
X0042644Y0097270D01*
X0042644Y0093070D01*
X0018544Y0089170D02*
X0018344Y0089170D01*
X0018344Y0080470D01*
X0018101Y0080370D01*
X0018044Y0080170D01*
X0017744Y0079870D01*
X0017744Y0072970D01*
X0017644Y0072913D01*
X0066344Y0107170D02*
X0070244Y0107170D01*
X0070844Y0106570D01*
X0072644Y0106570D01*
X0072664Y0106402D01*
X0068744Y0109570D02*
X0067844Y0110470D01*
X0067844Y0113170D01*
X0067644Y0113390D01*
X0080144Y0100270D02*
X0081644Y0101770D01*
X0081644Y0129670D01*
X0072644Y0138670D01*
X0072644Y0138827D01*
X0066944Y0135370D02*
X0063644Y0138670D01*
X0063644Y0138827D01*
X0057644Y0137170D02*
X0045344Y0137170D01*
X0042644Y0139870D01*
X0042644Y0139913D01*
X0042644Y0140170D01*
X0031844Y0150970D01*
X0030644Y0150970D01*
X0030644Y0151181D01*
X0047744Y0142870D02*
X0050444Y0140170D01*
X0051644Y0140170D01*
X0051644Y0139913D01*
X0057644Y0137170D02*
X0062744Y0132070D01*
X0075044Y0132070D01*
X0082544Y0130570D02*
X0082844Y0130270D01*
X0082844Y0074170D01*
X0082544Y0073870D01*
X0086144Y0076570D02*
X0113444Y0076570D01*
X0116744Y0079870D01*
X0120044Y0079870D01*
X0129644Y0089470D01*
X0129644Y0114970D01*
X0128144Y0116470D01*
X0129044Y0118870D02*
X0121244Y0118870D01*
X0118844Y0115870D02*
X0118844Y0122170D01*
X0118644Y0122370D01*
X0118844Y0122470D01*
X0128444Y0122470D01*
X0128644Y0122370D01*
X0129044Y0118870D02*
X0132044Y0115870D01*
X0132044Y0110470D01*
X0130844Y0105970D02*
X0143744Y0118870D01*
X0165344Y0118870D01*
X0168644Y0122170D01*
X0168644Y0122370D01*
X0168644Y0122470D01*
X0178544Y0122470D01*
X0178644Y0122370D01*
X0178844Y0122470D01*
X0188444Y0122470D01*
X0188644Y0122370D01*
X0193544Y0123970D02*
X0193544Y0038170D01*
X0166244Y0038470D02*
X0159644Y0045070D01*
X0159644Y0046570D01*
X0151244Y0046570D02*
X0143744Y0046570D01*
X0143644Y0046827D01*
X0143444Y0046870D01*
X0140144Y0046870D01*
X0136544Y0050470D01*
X0131744Y0050470D01*
X0131550Y0050724D01*
X0131550Y0048126D02*
X0131744Y0048070D01*
X0137144Y0048070D01*
X0153644Y0031570D01*
X0159944Y0031570D01*
X0161444Y0030070D01*
X0162044Y0037570D02*
X0162044Y0039070D01*
X0147344Y0053770D01*
X0135944Y0053770D02*
X0133844Y0055870D01*
X0131744Y0055870D01*
X0131550Y0055921D01*
X0131744Y0058270D02*
X0131550Y0058520D01*
X0131744Y0058270D02*
X0134744Y0058270D01*
X0124244Y0050170D02*
X0106244Y0050170D01*
X0099044Y0057370D01*
X0099044Y0061270D01*
X0098952Y0061374D01*
X0096644Y0061270D02*
X0096353Y0061374D01*
X0096644Y0061270D02*
X0096644Y0056470D01*
X0101744Y0051370D01*
X0103244Y0046570D02*
X0119744Y0046570D01*
X0125144Y0041170D01*
X0129044Y0040570D02*
X0121844Y0047770D01*
X0126944Y0048070D02*
X0126944Y0045670D01*
X0129644Y0042970D01*
X0131444Y0042970D01*
X0131550Y0042929D01*
X0131744Y0045370D02*
X0131550Y0045528D01*
X0131744Y0045370D02*
X0135944Y0045370D01*
X0131444Y0040570D02*
X0129044Y0040570D01*
X0131444Y0040570D02*
X0131550Y0040331D01*
X0129644Y0029770D02*
X0119144Y0040270D01*
X0089744Y0040270D01*
X0089739Y0040331D01*
X0089744Y0042670D02*
X0089739Y0042929D01*
X0089744Y0042670D02*
X0115244Y0042670D01*
X0111644Y0051370D02*
X0108344Y0051370D01*
X0106844Y0052870D01*
X0110744Y0053770D02*
X0114344Y0057370D01*
X0114344Y0061270D01*
X0114542Y0061374D01*
X0117044Y0061270D02*
X0117141Y0061374D01*
X0117044Y0061270D02*
X0117044Y0056770D01*
X0111644Y0051370D01*
X0104144Y0057070D02*
X0104144Y0061270D01*
X0104148Y0061374D01*
X0106544Y0061570D02*
X0106747Y0061374D01*
X0106544Y0061570D02*
X0106544Y0068170D01*
X0109544Y0067870D02*
X0109844Y0068170D01*
X0109544Y0067870D02*
X0109544Y0061570D01*
X0109345Y0061374D01*
X0111944Y0061374D02*
X0111944Y0061570D01*
X0111944Y0064870D01*
X0115244Y0068170D01*
X0116744Y0076570D02*
X0118544Y0076570D01*
X0130844Y0088870D01*
X0130844Y0105970D01*
X0128444Y0106270D02*
X0118844Y0115870D01*
X0115251Y0114445D02*
X0114944Y0114370D01*
X0098444Y0114370D01*
X0090644Y0122170D01*
X0090644Y0122370D01*
X0090644Y0112370D02*
X0090644Y0112270D01*
X0098744Y0104170D01*
X0114944Y0104170D01*
X0115251Y0104209D01*
X0115244Y0104170D01*
X0115244Y0101770D01*
X0115251Y0101650D01*
X0115251Y0099091D02*
X0115244Y0099070D01*
X0115244Y0096670D01*
X0115251Y0096531D01*
X0114944Y0096670D01*
X0091844Y0096670D01*
X0090644Y0095470D01*
X0090644Y0095370D01*
X0080144Y0100270D02*
X0080144Y0082570D01*
X0090644Y0085370D02*
X0090644Y0085570D01*
X0091544Y0086470D01*
X0114944Y0086470D01*
X0115251Y0086295D01*
X0115244Y0086470D01*
X0115244Y0088570D01*
X0115251Y0088854D01*
X0119144Y0094270D02*
X0119144Y0082270D01*
X0125444Y0078370D02*
X0138944Y0091870D01*
X0138944Y0093670D01*
X0141644Y0096370D01*
X0143744Y0096370D01*
X0144038Y0096531D01*
X0144038Y0093972D02*
X0143744Y0093970D01*
X0141644Y0093970D01*
X0140144Y0092470D01*
X0140144Y0091270D01*
X0129344Y0080470D01*
X0129344Y0078970D01*
X0125444Y0078370D02*
X0125444Y0076570D01*
X0133244Y0089470D02*
X0133244Y0100870D01*
X0141644Y0109270D01*
X0143744Y0109270D01*
X0144038Y0109327D01*
X0144038Y0106768D02*
X0143744Y0106570D01*
X0141644Y0106570D01*
X0139244Y0104170D01*
X0139244Y0097270D01*
X0128444Y0103570D02*
X0128444Y0106270D01*
X0126044Y0105370D02*
X0120044Y0111370D01*
X0115251Y0111886D02*
X0115244Y0111970D01*
X0115244Y0114370D01*
X0115251Y0114445D01*
X0114044Y0117370D02*
X0108944Y0117370D01*
X0093644Y0132670D01*
X0093644Y0138827D01*
X0093644Y0145913D02*
X0093644Y0149470D01*
X0093494Y0149620D01*
X0093644Y0149770D01*
X0116744Y0149770D01*
X0123344Y0156370D01*
X0126644Y0156370D01*
X0132644Y0162370D01*
X0132644Y0165070D01*
X0138644Y0171070D01*
X0172544Y0171070D01*
X0175244Y0168370D01*
X0175244Y0165070D01*
X0178544Y0161770D01*
X0178544Y0161170D01*
X0178694Y0161020D01*
X0174044Y0156370D01*
X0170644Y0156370D01*
X0178694Y0161020D02*
X0178844Y0161170D01*
X0205844Y0161170D01*
X0210644Y0156370D01*
X0215444Y0154570D02*
X0212444Y0151570D01*
X0198644Y0151570D01*
X0193844Y0156370D01*
X0190644Y0156370D01*
X0190544Y0156370D01*
X0185744Y0151570D01*
X0158744Y0151570D01*
X0153944Y0156370D01*
X0150644Y0156370D01*
X0151844Y0161770D02*
X0157244Y0156370D01*
X0160644Y0156370D01*
X0161744Y0150070D02*
X0146744Y0150070D01*
X0141944Y0151570D02*
X0138344Y0147970D01*
X0134744Y0147970D01*
X0134644Y0147898D01*
X0127644Y0147898D02*
X0127544Y0147970D01*
X0126344Y0147970D01*
X0123944Y0150370D01*
X0121244Y0147670D02*
X0126644Y0142270D01*
X0127644Y0138843D02*
X0127544Y0138670D01*
X0125144Y0138670D01*
X0118844Y0132370D01*
X0118644Y0132370D01*
X0124544Y0130270D02*
X0126044Y0130270D01*
X0129644Y0126670D01*
X0128744Y0132370D02*
X0128644Y0132370D01*
X0128744Y0132370D02*
X0134444Y0138070D01*
X0134444Y0138670D01*
X0134644Y0138843D01*
X0138644Y0132370D02*
X0142544Y0136270D01*
X0142544Y0138670D01*
X0142644Y0138843D01*
X0148644Y0132370D02*
X0148844Y0132370D01*
X0151544Y0135070D01*
X0151544Y0138670D01*
X0151644Y0138843D01*
X0159644Y0138843D02*
X0159644Y0133270D01*
X0158744Y0132370D01*
X0158644Y0132370D01*
X0168644Y0132370D02*
X0168644Y0138843D01*
X0170744Y0144370D02*
X0169544Y0145570D01*
X0161744Y0145570D01*
X0159644Y0147670D01*
X0159644Y0147898D01*
X0159644Y0147670D02*
X0155444Y0147670D01*
X0161744Y0150070D02*
X0163844Y0147970D01*
X0168644Y0147970D01*
X0168644Y0147898D01*
X0172244Y0146770D02*
X0173144Y0147670D01*
X0176444Y0147670D01*
X0176644Y0147898D01*
X0177344Y0144370D02*
X0180644Y0147670D01*
X0184544Y0147670D01*
X0184644Y0147898D01*
X0184544Y0147370D01*
X0198344Y0133570D01*
X0198344Y0132070D01*
X0188644Y0132370D02*
X0188444Y0132370D01*
X0184844Y0135970D01*
X0184844Y0138670D01*
X0184644Y0138843D01*
X0176744Y0138670D02*
X0176744Y0134170D01*
X0178544Y0132370D01*
X0178644Y0132370D01*
X0176744Y0138670D02*
X0176644Y0138843D01*
X0177344Y0144370D02*
X0170744Y0144370D01*
X0151844Y0161770D02*
X0137144Y0161770D01*
X0135044Y0163870D01*
X0131444Y0165670D02*
X0138044Y0172270D01*
X0201344Y0172270D01*
X0205244Y0168370D01*
X0205244Y0165070D01*
X0208544Y0161770D01*
X0211844Y0161770D01*
X0215444Y0158170D01*
X0215444Y0154570D01*
X0217844Y0148270D02*
X0193544Y0123970D01*
X0217844Y0148270D02*
X0222044Y0148270D01*
X0222144Y0148370D01*
X0200644Y0166370D02*
X0200444Y0166570D01*
X0190844Y0166570D01*
X0190644Y0166370D01*
X0190544Y0166570D01*
X0180644Y0166570D01*
X0180644Y0166370D01*
X0170644Y0166370D02*
X0170444Y0166570D01*
X0160844Y0166570D01*
X0160644Y0166370D01*
X0160544Y0166570D01*
X0150644Y0166570D01*
X0150644Y0166370D01*
X0150644Y0166570D02*
X0140744Y0166570D01*
X0140644Y0166370D01*
X0121244Y0147670D02*
X0120644Y0147670D01*
X0120644Y0147898D01*
X0120644Y0138843D02*
X0120644Y0138670D01*
X0114944Y0138670D01*
X0108644Y0132370D01*
X0108644Y0122470D02*
X0108644Y0122370D01*
X0108644Y0122470D02*
X0118544Y0122470D01*
X0118644Y0122370D01*
X0138644Y0122470D02*
X0138644Y0122370D01*
X0138644Y0122470D02*
X0148544Y0122470D01*
X0148644Y0122370D01*
X0148844Y0122470D01*
X0158444Y0122470D01*
X0158644Y0122370D01*
X0128444Y0103570D02*
X0119144Y0094270D01*
X0126044Y0104470D02*
X0126044Y0105370D01*
X0082544Y0130570D02*
X0082544Y0138370D01*
X0082644Y0138827D01*
X0082544Y0138670D01*
X0082644Y0145913D02*
X0082544Y0146170D01*
X0082544Y0150670D01*
X0076844Y0156370D01*
X0076644Y0156370D01*
X0081944Y0161170D02*
X0064844Y0161170D01*
X0058544Y0154870D01*
X0056644Y0156370D01*
X0056744Y0156370D01*
X0063644Y0149470D01*
X0063644Y0145913D01*
X0072644Y0145913D02*
X0072644Y0150370D01*
X0066644Y0156370D01*
X0066644Y0166370D02*
X0066644Y0166570D01*
X0076544Y0166570D01*
X0076644Y0166370D01*
X0076844Y0166570D01*
X0086444Y0166570D01*
X0086644Y0166370D01*
X0086744Y0156370D02*
X0086644Y0156370D01*
X0086744Y0156370D02*
X0093494Y0149620D01*
X0093644Y0068170D02*
X0093644Y0061570D01*
X0093755Y0061374D01*
X0090944Y0062170D02*
X0089744Y0060970D01*
X0089744Y0058570D01*
X0089739Y0058520D01*
X0089739Y0055921D02*
X0089744Y0055870D01*
X0093944Y0055870D01*
X0103244Y0046570D01*
X0129644Y0029770D02*
X0148544Y0029770D01*
D35*
X0148544Y0029770D03*
X0159044Y0029170D03*
X0163844Y0028270D03*
X0162044Y0037570D03*
X0159644Y0046570D03*
X0151244Y0046570D03*
X0147044Y0050470D03*
X0135944Y0053770D03*
X0126944Y0048070D03*
X0124244Y0050170D03*
X0121844Y0047770D03*
X0125144Y0041170D03*
X0115244Y0042670D03*
X0101744Y0051370D03*
X0106844Y0052870D03*
X0110744Y0053770D03*
X0104144Y0057070D03*
X0090944Y0062170D03*
X0093644Y0068170D03*
X0086144Y0076570D03*
X0082544Y0073870D03*
X0080144Y0082570D03*
X0062144Y0094570D03*
X0050144Y0083470D03*
X0042644Y0093070D03*
X0043244Y0102070D03*
X0051644Y0116170D03*
X0052244Y0121570D03*
X0048044Y0125470D03*
X0042344Y0128470D03*
X0039044Y0117670D03*
X0066344Y0107170D03*
X0068744Y0109570D03*
X0075044Y0132070D03*
X0066944Y0135370D03*
X0047744Y0142870D03*
X0114044Y0117370D03*
X0121244Y0118870D03*
X0128144Y0116470D03*
X0132044Y0110470D03*
X0126044Y0104470D03*
X0120044Y0111370D03*
X0139244Y0097270D03*
X0133244Y0089470D03*
X0119144Y0082270D03*
X0116744Y0076570D03*
X0125444Y0076570D03*
X0129344Y0078970D03*
X0123944Y0068170D03*
X0115244Y0068170D03*
X0109844Y0068170D03*
X0106544Y0068170D03*
X0132944Y0066970D03*
X0138944Y0068170D03*
X0141944Y0064270D03*
X0135944Y0045370D03*
X0183644Y0057670D03*
X0185744Y0066970D03*
X0193544Y0038170D03*
X0077144Y0045670D03*
X0072944Y0049870D03*
X0042344Y0038770D03*
X0036044Y0041170D03*
X0131444Y0129070D03*
X0124544Y0130270D03*
X0126644Y0142270D03*
X0123944Y0150370D03*
X0135044Y0163870D03*
X0145244Y0151870D03*
X0155444Y0147670D03*
X0168644Y0143170D03*
X0172244Y0146770D03*
X0198344Y0132070D03*
D36*
X0183644Y0127370D03*
X0173644Y0127370D03*
X0163644Y0127370D03*
X0153644Y0127370D03*
X0143644Y0127370D03*
X0162644Y0110370D03*
X0162644Y0104370D03*
X0161644Y0097370D03*
X0149644Y0096370D03*
X0143644Y0079370D03*
X0153644Y0055370D03*
X0159644Y0055370D03*
X0164644Y0055370D03*
X0181644Y0073370D03*
X0179644Y0079370D03*
X0188644Y0080370D03*
X0179644Y0086370D03*
X0180644Y0094370D03*
X0189644Y0097370D03*
X0189644Y0090370D03*
X0199644Y0092370D03*
X0205644Y0086370D03*
X0199644Y0082370D03*
X0189644Y0073370D03*
X0189644Y0105370D03*
X0178644Y0114370D03*
X0244644Y0141370D03*
X0251644Y0140370D03*
X0250644Y0148370D03*
X0249644Y0156370D03*
X0250644Y0092370D03*
X0248644Y0083370D03*
X0251644Y0076370D03*
X0231644Y0022370D03*
X0221644Y0022370D03*
X0212644Y0023370D03*
X0141644Y0036370D03*
X0081644Y0039370D03*
X0081644Y0055370D03*
X0076644Y0058370D03*
X0069644Y0060370D03*
X0070644Y0079370D03*
X0065644Y0083370D03*
X0070644Y0086370D03*
X0076644Y0096370D03*
X0077644Y0107370D03*
X0090644Y0104370D03*
X0100644Y0101370D03*
X0106644Y0100370D03*
X0106644Y0109370D03*
X0100644Y0110370D03*
X0102644Y0118370D03*
X0098644Y0121370D03*
X0102644Y0128370D03*
X0098644Y0132370D03*
X0087644Y0131370D03*
X0087644Y0135370D03*
X0077644Y0137370D03*
X0076644Y0128370D03*
X0068144Y0123870D03*
X0064644Y0128370D03*
X0059644Y0131370D03*
X0065644Y0117370D03*
X0077644Y0118370D03*
X0077644Y0122370D03*
X0053644Y0110370D03*
X0052644Y0105370D03*
X0037644Y0113370D03*
X0032644Y0104370D03*
X0032644Y0098370D03*
X0038644Y0073370D03*
X0042644Y0072370D03*
X0028644Y0059370D03*
X0021644Y0059370D03*
X0013644Y0059370D03*
X0018644Y0040370D03*
X0023644Y0040370D03*
X0102644Y0082370D03*
X0101644Y0092370D03*
X0107644Y0091370D03*
X0111644Y0143370D03*
X0104644Y0144370D03*
X0046644Y0156370D03*
X0039644Y0156370D03*
X0045644Y0164370D03*
X0035644Y0170370D03*
X0029644Y0164370D03*
X0017644Y0154370D03*
X0013644Y0146370D03*
X0019644Y0139370D03*
X0018644Y0131370D03*
D37*
X0025817Y0128718D02*
X0025695Y0127949D01*
X0025695Y0127559D01*
X0025695Y0127170D01*
X0025817Y0126400D01*
X0026058Y0125659D01*
X0026290Y0125203D01*
X0013401Y0125203D01*
X0012152Y0124686D01*
X0011344Y0123878D01*
X0011344Y0135266D01*
X0026171Y0150092D01*
X0026788Y0148604D01*
X0028067Y0147324D01*
X0028261Y0147244D01*
X0028067Y0147164D01*
X0026788Y0145884D01*
X0026095Y0144212D01*
X0026095Y0142402D01*
X0026788Y0140730D01*
X0028067Y0139450D01*
X0028261Y0139370D01*
X0028067Y0139290D01*
X0026788Y0138010D01*
X0026095Y0136338D01*
X0026095Y0134528D01*
X0026788Y0132856D01*
X0027935Y0131709D01*
X0027420Y0131334D01*
X0026869Y0130784D01*
X0026411Y0130153D01*
X0026058Y0129459D01*
X0025817Y0128718D01*
X0025864Y0128864D02*
X0011344Y0128864D01*
X0011344Y0127266D02*
X0025695Y0127266D01*
X0025695Y0127559D02*
X0030644Y0127559D01*
X0030644Y0127559D01*
X0025695Y0127559D01*
X0026055Y0125667D02*
X0011344Y0125667D01*
X0011344Y0124069D02*
X0011535Y0124069D01*
X0017044Y0118403D02*
X0019158Y0118403D01*
X0019158Y0108660D01*
X0019978Y0107840D01*
X0035311Y0107840D01*
X0036131Y0108660D01*
X0036131Y0118403D01*
X0036372Y0118403D01*
X0036294Y0118217D01*
X0036294Y0117123D01*
X0036713Y0116112D01*
X0037487Y0115339D01*
X0038497Y0114920D01*
X0039591Y0114920D01*
X0040086Y0115125D01*
X0042274Y0112936D01*
X0041878Y0112541D01*
X0041878Y0112478D01*
X0041210Y0111810D01*
X0040844Y0110928D01*
X0040844Y0104478D01*
X0035019Y0098652D01*
X0034062Y0097696D01*
X0033544Y0096446D01*
X0033544Y0094750D01*
X0032944Y0094150D01*
X0032944Y0084190D01*
X0033002Y0084132D01*
X0031387Y0084132D01*
X0031444Y0084190D01*
X0031444Y0094150D01*
X0031044Y0094550D01*
X0031044Y0102046D01*
X0030527Y0103296D01*
X0029527Y0104296D01*
X0028570Y0105252D01*
X0027321Y0105770D01*
X0017044Y0105770D01*
X0017044Y0118403D01*
X0017044Y0117675D02*
X0019158Y0117675D01*
X0019158Y0116076D02*
X0017044Y0116076D01*
X0017044Y0114478D02*
X0019158Y0114478D01*
X0019158Y0112879D02*
X0017044Y0112879D01*
X0017044Y0111281D02*
X0019158Y0111281D01*
X0019158Y0109682D02*
X0017044Y0109682D01*
X0017044Y0108084D02*
X0019734Y0108084D01*
X0017044Y0106485D02*
X0040844Y0106485D01*
X0040844Y0104887D02*
X0028936Y0104887D01*
X0030530Y0103288D02*
X0039654Y0103288D01*
X0038056Y0101690D02*
X0031044Y0101690D01*
X0031044Y0100091D02*
X0036457Y0100091D01*
X0034859Y0098493D02*
X0031044Y0098493D01*
X0031044Y0096894D02*
X0033730Y0096894D01*
X0033544Y0095296D02*
X0031044Y0095296D01*
X0031444Y0093697D02*
X0032944Y0093697D01*
X0032944Y0092099D02*
X0031444Y0092099D01*
X0031444Y0090500D02*
X0032944Y0090500D01*
X0032944Y0088902D02*
X0031444Y0088902D01*
X0031444Y0087303D02*
X0032944Y0087303D01*
X0032944Y0085705D02*
X0031444Y0085705D01*
X0023844Y0085705D02*
X0022344Y0085705D01*
X0022344Y0084190D02*
X0022344Y0094150D01*
X0021524Y0094970D01*
X0015565Y0094970D01*
X0014744Y0094150D01*
X0014744Y0084190D01*
X0015374Y0083560D01*
X0015126Y0083312D01*
X0015126Y0077428D01*
X0015946Y0076608D01*
X0016044Y0076608D01*
X0016044Y0075888D01*
X0014702Y0075888D01*
X0013882Y0075068D01*
X0013882Y0070759D01*
X0014702Y0069939D01*
X0020587Y0069939D01*
X0021407Y0070759D01*
X0021407Y0075068D01*
X0020587Y0075888D01*
X0019444Y0075888D01*
X0019444Y0076608D01*
X0020256Y0076608D01*
X0021076Y0077428D01*
X0021076Y0083312D01*
X0021018Y0083370D01*
X0021524Y0083370D01*
X0022344Y0084190D01*
X0022260Y0084106D02*
X0023007Y0084106D01*
X0023033Y0084132D02*
X0022213Y0083312D01*
X0022213Y0077428D01*
X0023033Y0076608D01*
X0027342Y0076608D01*
X0028163Y0077428D01*
X0028163Y0077970D01*
X0029126Y0077970D01*
X0029126Y0077428D01*
X0029946Y0076608D01*
X0030244Y0076608D01*
X0030244Y0054790D01*
X0027246Y0054790D01*
X0026644Y0054189D01*
X0026043Y0054790D01*
X0022128Y0054790D01*
X0021406Y0054068D01*
X0020587Y0054888D01*
X0014702Y0054888D01*
X0013882Y0054068D01*
X0013882Y0051545D01*
X0011344Y0049007D01*
X0011344Y0099862D01*
X0011719Y0099488D01*
X0012968Y0098970D01*
X0024244Y0098970D01*
X0024244Y0094550D01*
X0023844Y0094150D01*
X0023844Y0084190D01*
X0023902Y0084132D01*
X0023033Y0084132D01*
X0022213Y0082508D02*
X0021076Y0082508D01*
X0021076Y0080909D02*
X0022213Y0080909D01*
X0022213Y0079311D02*
X0021076Y0079311D01*
X0021076Y0077712D02*
X0022213Y0077712D01*
X0019444Y0076114D02*
X0030244Y0076114D01*
X0030244Y0074515D02*
X0021407Y0074515D01*
X0021407Y0072916D02*
X0030244Y0072916D01*
X0030244Y0071318D02*
X0021407Y0071318D01*
X0020701Y0069079D02*
X0020244Y0069202D01*
X0017645Y0069202D01*
X0017645Y0065827D01*
X0021807Y0065827D01*
X0021807Y0067639D01*
X0021684Y0068096D01*
X0021447Y0068507D01*
X0021112Y0068842D01*
X0020701Y0069079D01*
X0021670Y0068121D02*
X0030244Y0068121D01*
X0030244Y0069719D02*
X0011344Y0069719D01*
X0011344Y0068121D02*
X0013619Y0068121D01*
X0013605Y0068096D02*
X0013482Y0067639D01*
X0013482Y0065827D01*
X0017644Y0065827D01*
X0017644Y0065827D01*
X0017644Y0069202D01*
X0015045Y0069202D01*
X0014587Y0069079D01*
X0014177Y0068842D01*
X0013842Y0068507D01*
X0013605Y0068096D01*
X0013482Y0066522D02*
X0011344Y0066522D01*
X0011344Y0064924D02*
X0013482Y0064924D01*
X0013482Y0065827D02*
X0013482Y0064015D01*
X0013605Y0063557D01*
X0013842Y0063147D01*
X0014177Y0062812D01*
X0014587Y0062575D01*
X0015045Y0062452D01*
X0017644Y0062452D01*
X0017644Y0065827D01*
X0017645Y0065827D01*
X0017645Y0065827D01*
X0021807Y0065827D01*
X0021807Y0064015D01*
X0021684Y0063557D01*
X0021447Y0063147D01*
X0021112Y0062812D01*
X0020701Y0062575D01*
X0020244Y0062452D01*
X0017645Y0062452D01*
X0017645Y0065827D01*
X0017644Y0065827D01*
X0013482Y0065827D01*
X0013739Y0063325D02*
X0011344Y0063325D01*
X0011344Y0061727D02*
X0030244Y0061727D01*
X0030244Y0063325D02*
X0021550Y0063325D01*
X0021807Y0064924D02*
X0030244Y0064924D01*
X0030244Y0066522D02*
X0021807Y0066522D01*
X0017645Y0066522D02*
X0017644Y0066522D01*
X0017644Y0064924D02*
X0017645Y0064924D01*
X0017644Y0063325D02*
X0017645Y0063325D01*
X0017644Y0068121D02*
X0017645Y0068121D01*
X0013882Y0071318D02*
X0011344Y0071318D01*
X0011344Y0072916D02*
X0013882Y0072916D01*
X0013882Y0074515D02*
X0011344Y0074515D01*
X0011344Y0076114D02*
X0016044Y0076114D01*
X0015126Y0077712D02*
X0011344Y0077712D01*
X0011344Y0079311D02*
X0015126Y0079311D01*
X0015126Y0080909D02*
X0011344Y0080909D01*
X0011344Y0082508D02*
X0015126Y0082508D01*
X0014829Y0084106D02*
X0011344Y0084106D01*
X0011344Y0085705D02*
X0014744Y0085705D01*
X0014744Y0087303D02*
X0011344Y0087303D01*
X0011344Y0088902D02*
X0014744Y0088902D01*
X0014744Y0090500D02*
X0011344Y0090500D01*
X0011344Y0092099D02*
X0014744Y0092099D01*
X0014744Y0093697D02*
X0011344Y0093697D01*
X0011344Y0095296D02*
X0024244Y0095296D01*
X0024244Y0096894D02*
X0011344Y0096894D01*
X0011344Y0098493D02*
X0024244Y0098493D01*
X0023844Y0093697D02*
X0022344Y0093697D01*
X0022344Y0092099D02*
X0023844Y0092099D01*
X0023844Y0090500D02*
X0022344Y0090500D01*
X0022344Y0088902D02*
X0023844Y0088902D01*
X0023844Y0087303D02*
X0022344Y0087303D01*
X0028163Y0077712D02*
X0029126Y0077712D01*
X0037044Y0076297D02*
X0037376Y0076208D01*
X0039188Y0076208D01*
X0041000Y0076208D01*
X0041457Y0076331D01*
X0041868Y0076568D01*
X0042144Y0076844D01*
X0042177Y0076812D01*
X0042588Y0076575D01*
X0043045Y0076452D01*
X0045644Y0076452D01*
X0045644Y0079827D01*
X0045645Y0079827D01*
X0049807Y0079827D01*
X0049807Y0080070D01*
X0050640Y0080070D01*
X0049807Y0079236D01*
X0049807Y0079827D01*
X0045645Y0079827D01*
X0045645Y0079827D01*
X0045645Y0076452D01*
X0047022Y0076452D01*
X0045840Y0075270D01*
X0044844Y0074274D01*
X0044844Y0064160D01*
X0043985Y0065020D01*
X0039304Y0065020D01*
X0037154Y0062870D01*
X0037044Y0062870D01*
X0037044Y0076297D01*
X0037044Y0076114D02*
X0046684Y0076114D01*
X0045644Y0077712D02*
X0045645Y0077712D01*
X0045644Y0079311D02*
X0045645Y0079311D01*
X0049807Y0079311D02*
X0049881Y0079311D01*
X0054844Y0081020D02*
X0054844Y0088144D01*
X0055177Y0087812D01*
X0055587Y0087575D01*
X0056045Y0087452D01*
X0058644Y0087452D01*
X0058644Y0090827D01*
X0058645Y0090827D01*
X0061482Y0090827D01*
X0065644Y0090827D01*
X0065644Y0090827D01*
X0065644Y0094202D01*
X0064894Y0094202D01*
X0064894Y0094939D01*
X0068587Y0094939D01*
X0069407Y0095759D01*
X0069407Y0099604D01*
X0070440Y0098570D01*
X0078444Y0098570D01*
X0078444Y0084759D01*
X0077813Y0084128D01*
X0077394Y0083117D01*
X0077394Y0082023D01*
X0077813Y0081012D01*
X0078587Y0080239D01*
X0079597Y0079820D01*
X0080691Y0079820D01*
X0081144Y0080008D01*
X0081144Y0076267D01*
X0080987Y0076201D01*
X0080213Y0075428D01*
X0079794Y0074417D01*
X0079794Y0073323D01*
X0080213Y0072312D01*
X0080987Y0071539D01*
X0081000Y0071533D01*
X0079236Y0069770D01*
X0058035Y0069770D01*
X0061294Y0073030D01*
X0061294Y0077710D01*
X0057985Y0081020D01*
X0054844Y0081020D01*
X0054844Y0082508D02*
X0077394Y0082508D01*
X0077804Y0084106D02*
X0054844Y0084106D01*
X0054844Y0085705D02*
X0078444Y0085705D01*
X0078444Y0087303D02*
X0054844Y0087303D01*
X0058645Y0087452D02*
X0058645Y0090827D01*
X0058645Y0090827D01*
X0065644Y0090827D01*
X0065645Y0090827D01*
X0069807Y0090827D01*
X0069807Y0092639D01*
X0069684Y0093096D01*
X0069447Y0093507D01*
X0069112Y0093842D01*
X0068701Y0094079D01*
X0068244Y0094202D01*
X0065645Y0094202D01*
X0065645Y0090827D01*
X0065645Y0090827D01*
X0069807Y0090827D01*
X0069807Y0089015D01*
X0069684Y0088557D01*
X0069447Y0088147D01*
X0069112Y0087812D01*
X0068701Y0087575D01*
X0068244Y0087452D01*
X0065645Y0087452D01*
X0065645Y0090827D01*
X0065644Y0090827D01*
X0065644Y0087452D01*
X0063045Y0087452D01*
X0062587Y0087575D01*
X0062177Y0087812D01*
X0062144Y0087844D01*
X0062112Y0087812D01*
X0061701Y0087575D01*
X0061244Y0087452D01*
X0058645Y0087452D01*
X0058644Y0088902D02*
X0058645Y0088902D01*
X0058644Y0090500D02*
X0058645Y0090500D01*
X0055356Y0095285D02*
X0052440Y0092370D01*
X0051444Y0091374D01*
X0051444Y0086978D01*
X0050326Y0088097D01*
X0050325Y0088099D01*
X0049846Y0088577D01*
X0049407Y0089016D01*
X0049407Y0089068D01*
X0048587Y0089888D01*
X0047635Y0089888D01*
X0047570Y0089952D01*
X0046321Y0090470D01*
X0043554Y0090470D01*
X0044202Y0090739D01*
X0044976Y0091512D01*
X0045394Y0092523D01*
X0045394Y0093617D01*
X0044976Y0094628D01*
X0044344Y0095259D01*
X0044344Y0096566D01*
X0051094Y0103316D01*
X0051094Y0104724D01*
X0050099Y0105720D01*
X0050099Y0105720D01*
X0049444Y0106374D01*
X0049444Y0108192D01*
X0049676Y0108192D01*
X0050405Y0108192D01*
X0050863Y0108315D01*
X0051273Y0108552D01*
X0051608Y0108887D01*
X0051845Y0109297D01*
X0051968Y0109755D01*
X0051968Y0110976D01*
X0049676Y0110976D01*
X0049676Y0108192D01*
X0049676Y0110976D01*
X0049676Y0110976D01*
X0049676Y0110976D01*
X0051968Y0110976D01*
X0051968Y0112198D01*
X0051845Y0112655D01*
X0051779Y0112770D01*
X0054355Y0112770D01*
X0056046Y0112480D01*
X0055362Y0111796D01*
X0054844Y0110546D01*
X0054844Y0104394D01*
X0055144Y0103670D01*
X0055144Y0100330D01*
X0054882Y0100068D01*
X0054882Y0095759D01*
X0055356Y0095285D01*
X0055345Y0095296D02*
X0044344Y0095296D01*
X0044673Y0096894D02*
X0054882Y0096894D01*
X0054882Y0098493D02*
X0046271Y0098493D01*
X0047870Y0100091D02*
X0054905Y0100091D01*
X0055144Y0101690D02*
X0049468Y0101690D01*
X0051067Y0103288D02*
X0055144Y0103288D01*
X0054844Y0104887D02*
X0050932Y0104887D01*
X0049444Y0106485D02*
X0054844Y0106485D01*
X0054844Y0108084D02*
X0049444Y0108084D01*
X0049676Y0109682D02*
X0049676Y0109682D01*
X0051949Y0109682D02*
X0054844Y0109682D01*
X0055149Y0111281D02*
X0051968Y0111281D01*
X0060407Y0115951D02*
X0060407Y0117470D01*
X0061849Y0117470D01*
X0062844Y0118466D01*
X0063249Y0118870D01*
X0067540Y0118870D01*
X0069646Y0116765D01*
X0069613Y0116765D01*
X0068785Y0116765D01*
X0068328Y0116642D01*
X0067917Y0116405D01*
X0067877Y0116365D01*
X0067412Y0116365D01*
X0067372Y0116405D01*
X0066961Y0116642D01*
X0066504Y0116765D01*
X0065676Y0116765D01*
X0064848Y0116765D01*
X0064391Y0116642D01*
X0063980Y0116405D01*
X0063940Y0116365D01*
X0062537Y0116365D01*
X0061717Y0115544D01*
X0061717Y0114999D01*
X0061246Y0115194D01*
X0061163Y0115194D01*
X0060407Y0115951D01*
X0060407Y0116076D02*
X0062249Y0116076D01*
X0062053Y0117675D02*
X0068736Y0117675D01*
X0069613Y0116765D02*
X0069613Y0115567D01*
X0069613Y0115566D01*
X0069613Y0115567D01*
X0069613Y0116765D01*
X0069613Y0116076D02*
X0069613Y0116076D01*
X0065676Y0116076D02*
X0065676Y0116076D01*
X0065676Y0115567D02*
X0065676Y0116765D01*
X0065676Y0115567D01*
X0065676Y0115566D01*
X0065676Y0115567D01*
X0071945Y0119273D02*
X0079944Y0119273D01*
X0079944Y0117675D02*
X0073544Y0117675D01*
X0075142Y0116076D02*
X0079944Y0116076D01*
X0079944Y0114478D02*
X0076741Y0114478D01*
X0078339Y0112879D02*
X0079944Y0112879D01*
X0079938Y0111281D02*
X0079944Y0111281D01*
X0079944Y0111274D02*
X0069944Y0121274D01*
X0068949Y0122270D01*
X0061840Y0122270D01*
X0060807Y0121236D01*
X0060807Y0122913D01*
X0056645Y0122913D01*
X0056645Y0122913D01*
X0060807Y0122913D01*
X0060807Y0124725D01*
X0060684Y0125183D01*
X0060447Y0125593D01*
X0060112Y0125929D01*
X0059701Y0126166D01*
X0059244Y0126288D01*
X0056645Y0126288D01*
X0056645Y0122914D01*
X0056644Y0122914D01*
X0056644Y0126288D01*
X0054045Y0126288D01*
X0053587Y0126166D01*
X0053177Y0125929D01*
X0052842Y0125593D01*
X0052605Y0125183D01*
X0052482Y0124725D01*
X0052482Y0124320D01*
X0051697Y0124320D01*
X0051155Y0124095D01*
X0051444Y0124794D01*
X0051444Y0126146D01*
X0050927Y0127396D01*
X0049970Y0128352D01*
X0048721Y0128870D01*
X0045744Y0128870D01*
X0045744Y0129570D01*
X0050622Y0129570D01*
X0050968Y0129427D01*
X0052321Y0129427D01*
X0053347Y0129852D01*
X0054587Y0129852D01*
X0055407Y0130672D01*
X0055407Y0134981D01*
X0054918Y0135470D01*
X0056940Y0135470D01*
X0062040Y0130370D01*
X0072855Y0130370D01*
X0073487Y0129739D01*
X0074497Y0129320D01*
X0075591Y0129320D01*
X0076602Y0129739D01*
X0077376Y0130512D01*
X0077675Y0131235D01*
X0079944Y0128966D01*
X0079944Y0111274D01*
X0078327Y0108084D02*
X0076039Y0108084D01*
X0076039Y0108370D02*
X0074841Y0108370D01*
X0074841Y0108370D01*
X0074841Y0108370D01*
X0076039Y0108370D01*
X0076039Y0107543D01*
X0075916Y0107085D01*
X0075679Y0106674D01*
X0075639Y0106634D01*
X0075639Y0105231D01*
X0074819Y0104411D01*
X0073972Y0104411D01*
X0073972Y0103350D01*
X0073972Y0101970D01*
X0077640Y0101970D01*
X0078744Y0103074D01*
X0078744Y0107666D01*
X0075639Y0110771D01*
X0075639Y0110106D01*
X0075679Y0110066D01*
X0075916Y0109655D01*
X0076039Y0109198D01*
X0076039Y0108370D01*
X0075901Y0109682D02*
X0076728Y0109682D01*
X0077644Y0108370D02*
X0077644Y0107370D01*
X0077644Y0103350D01*
X0078744Y0103288D02*
X0073972Y0103288D01*
X0073972Y0103350D02*
X0071604Y0103350D01*
X0071604Y0103350D01*
X0073972Y0103350D01*
X0075295Y0104887D02*
X0078744Y0104887D01*
X0078744Y0106485D02*
X0075639Y0106485D01*
X0084544Y0106485D02*
X0094025Y0106485D01*
X0092777Y0107733D02*
X0098040Y0102470D01*
X0099449Y0102470D01*
X0111101Y0102470D01*
X0111101Y0100385D01*
X0111115Y0100370D01*
X0111101Y0100355D01*
X0111101Y0098370D01*
X0094857Y0098370D01*
X0093533Y0099694D01*
X0091659Y0100470D01*
X0089630Y0100470D01*
X0087756Y0099694D01*
X0086321Y0098259D01*
X0085544Y0096385D01*
X0085544Y0094356D01*
X0086321Y0092481D01*
X0087756Y0091047D01*
X0089389Y0090370D01*
X0087756Y0089694D01*
X0086321Y0088259D01*
X0085544Y0086385D01*
X0085544Y0084356D01*
X0086321Y0082481D01*
X0087756Y0081047D01*
X0089630Y0080270D01*
X0091659Y0080270D01*
X0093533Y0081047D01*
X0094968Y0082481D01*
X0095744Y0084356D01*
X0095744Y0084770D01*
X0111361Y0084770D01*
X0111921Y0084210D01*
X0117196Y0084210D01*
X0116813Y0083828D01*
X0116394Y0082817D01*
X0116394Y0081723D01*
X0116458Y0081570D01*
X0116040Y0081570D01*
X0115044Y0080574D01*
X0112740Y0078270D01*
X0088334Y0078270D01*
X0087702Y0078901D01*
X0086691Y0079320D01*
X0085597Y0079320D01*
X0084587Y0078901D01*
X0084544Y0078859D01*
X0084544Y0130974D01*
X0084244Y0131274D01*
X0084244Y0135852D01*
X0085587Y0135852D01*
X0086407Y0136672D01*
X0086407Y0140981D01*
X0085587Y0141802D01*
X0079702Y0141802D01*
X0078882Y0140981D01*
X0078882Y0136672D01*
X0079702Y0135852D01*
X0080844Y0135852D01*
X0080844Y0132874D01*
X0076407Y0137312D01*
X0076407Y0140981D01*
X0075587Y0141802D01*
X0069702Y0141802D01*
X0068882Y0140981D01*
X0068882Y0137321D01*
X0068502Y0137701D01*
X0067491Y0138120D01*
X0067407Y0138120D01*
X0067407Y0140981D01*
X0066587Y0141802D01*
X0060702Y0141802D01*
X0059882Y0140981D01*
X0059882Y0137336D01*
X0059344Y0137874D01*
X0058349Y0138870D01*
X0055407Y0138870D01*
X0055407Y0142068D01*
X0054587Y0142888D01*
X0050494Y0142888D01*
X0050494Y0143417D01*
X0050076Y0144428D01*
X0049302Y0145201D01*
X0048291Y0145620D01*
X0047197Y0145620D01*
X0046187Y0145201D01*
X0045413Y0144428D01*
X0044994Y0143417D01*
X0044994Y0142888D01*
X0042331Y0142888D01*
X0035120Y0150098D01*
X0035194Y0150276D01*
X0035194Y0152086D01*
X0034501Y0153758D01*
X0033222Y0155038D01*
X0031733Y0155655D01*
X0045449Y0169370D01*
X0052432Y0169370D01*
X0051544Y0168483D01*
X0051544Y0164258D01*
X0054432Y0161370D01*
X0051544Y0158483D01*
X0051544Y0154258D01*
X0054532Y0151270D01*
X0058757Y0151270D01*
X0059099Y0151612D01*
X0061822Y0148888D01*
X0060702Y0148888D01*
X0059882Y0148068D01*
X0059882Y0143759D01*
X0060702Y0142939D01*
X0066587Y0142939D01*
X0067407Y0143759D01*
X0067407Y0148068D01*
X0066587Y0148888D01*
X0065344Y0148888D01*
X0065344Y0150174D01*
X0061503Y0154016D01*
X0061644Y0154158D01*
X0064532Y0151270D01*
X0068757Y0151270D01*
X0069049Y0151562D01*
X0070944Y0149666D01*
X0070944Y0148888D01*
X0069702Y0148888D01*
X0068882Y0148068D01*
X0068882Y0143759D01*
X0069702Y0142939D01*
X0075587Y0142939D01*
X0076407Y0143759D01*
X0076407Y0148068D01*
X0075587Y0148888D01*
X0074344Y0148888D01*
X0074344Y0151074D01*
X0071453Y0153966D01*
X0071644Y0154158D01*
X0074532Y0151270D01*
X0078757Y0151270D01*
X0079149Y0151662D01*
X0080844Y0149966D01*
X0080844Y0148888D01*
X0079702Y0148888D01*
X0078882Y0148068D01*
X0078882Y0143759D01*
X0079702Y0142939D01*
X0085587Y0142939D01*
X0086407Y0143759D01*
X0086407Y0145304D01*
X0090240Y0141470D01*
X0090371Y0141470D01*
X0089882Y0140981D01*
X0089882Y0136672D01*
X0090702Y0135852D01*
X0091944Y0135852D01*
X0091944Y0131966D01*
X0092940Y0130970D01*
X0107840Y0116070D01*
X0099149Y0116070D01*
X0095193Y0120025D01*
X0095744Y0121356D01*
X0095744Y0123385D01*
X0094968Y0125259D01*
X0093533Y0126694D01*
X0091659Y0127470D01*
X0089630Y0127470D01*
X0087756Y0126694D01*
X0086321Y0125259D01*
X0085544Y0123385D01*
X0085544Y0121356D01*
X0086321Y0119481D01*
X0087756Y0118047D01*
X0089389Y0117370D01*
X0087756Y0116694D01*
X0086321Y0115259D01*
X0085544Y0113385D01*
X0085544Y0111356D01*
X0086321Y0109481D01*
X0087756Y0108047D01*
X0089630Y0107270D01*
X0091659Y0107270D01*
X0092777Y0107733D01*
X0095223Y0110096D02*
X0095744Y0111356D01*
X0095744Y0113385D01*
X0094968Y0115259D01*
X0093533Y0116694D01*
X0091900Y0117370D01*
X0092706Y0117704D01*
X0097740Y0112670D01*
X0111101Y0112670D01*
X0111101Y0111157D01*
X0111060Y0111117D01*
X0110823Y0110707D01*
X0110701Y0110249D01*
X0110701Y0109327D01*
X0115251Y0109327D01*
X0115251Y0109327D01*
X0115251Y0106768D01*
X0115251Y0106768D01*
X0119801Y0106768D01*
X0119801Y0107690D01*
X0119705Y0108047D01*
X0119801Y0108405D01*
X0119801Y0108620D01*
X0120390Y0108620D01*
X0123499Y0105511D01*
X0123294Y0105017D01*
X0123294Y0103923D01*
X0123713Y0102912D01*
X0124487Y0102139D01*
X0124573Y0102103D01*
X0119401Y0096931D01*
X0119401Y0097796D01*
X0119386Y0097811D01*
X0119401Y0097826D01*
X0119401Y0100355D01*
X0119386Y0100370D01*
X0119401Y0100385D01*
X0119401Y0102915D01*
X0119386Y0102929D01*
X0119401Y0102944D01*
X0119401Y0104937D01*
X0119441Y0104977D01*
X0119678Y0105388D01*
X0119801Y0105846D01*
X0119801Y0106768D01*
X0115251Y0106768D01*
X0115251Y0106768D01*
X0115251Y0109253D01*
X0115251Y0109327D01*
X0115251Y0109327D01*
X0110701Y0109327D01*
X0110701Y0108405D01*
X0110797Y0108047D01*
X0110701Y0107690D01*
X0110701Y0106768D01*
X0115251Y0106768D01*
X0115251Y0106768D01*
X0110701Y0106768D01*
X0110701Y0105870D01*
X0099449Y0105870D01*
X0095223Y0110096D01*
X0095636Y0109682D02*
X0110701Y0109682D01*
X0110787Y0108084D02*
X0097235Y0108084D01*
X0098833Y0106485D02*
X0110701Y0106485D01*
X0111101Y0111281D02*
X0095713Y0111281D01*
X0095744Y0112879D02*
X0097531Y0112879D01*
X0095933Y0114478D02*
X0095292Y0114478D01*
X0094334Y0116076D02*
X0094151Y0116076D01*
X0092736Y0117675D02*
X0092636Y0117675D01*
X0088653Y0117675D02*
X0084544Y0117675D01*
X0084544Y0119273D02*
X0086529Y0119273D01*
X0085745Y0120872D02*
X0084544Y0120872D01*
X0084544Y0122470D02*
X0085544Y0122470D01*
X0085828Y0124069D02*
X0084544Y0124069D01*
X0084544Y0125667D02*
X0086729Y0125667D01*
X0084544Y0127266D02*
X0089137Y0127266D01*
X0092152Y0127266D02*
X0096645Y0127266D01*
X0098243Y0125667D02*
X0094560Y0125667D01*
X0095461Y0124069D02*
X0099842Y0124069D01*
X0101440Y0122470D02*
X0095744Y0122470D01*
X0095544Y0120872D02*
X0103039Y0120872D01*
X0104637Y0119273D02*
X0095945Y0119273D01*
X0097544Y0117675D02*
X0106236Y0117675D01*
X0107834Y0116076D02*
X0099142Y0116076D01*
X0104882Y0123836D02*
X0095344Y0133374D01*
X0095344Y0135852D01*
X0096587Y0135852D01*
X0097273Y0136538D01*
X0106440Y0127370D01*
X0107849Y0127370D01*
X0120749Y0127370D01*
X0121744Y0128366D01*
X0122177Y0128799D01*
X0122213Y0128712D01*
X0122987Y0127939D01*
X0123997Y0127520D01*
X0125091Y0127520D01*
X0126010Y0127901D01*
X0127778Y0126132D01*
X0127086Y0126132D01*
X0125124Y0124170D01*
X0122165Y0124170D01*
X0120203Y0126132D01*
X0117086Y0126132D01*
X0115124Y0124170D01*
X0112165Y0124170D01*
X0110203Y0126132D01*
X0107086Y0126132D01*
X0104882Y0123928D01*
X0104882Y0123836D01*
X0105023Y0124069D02*
X0104650Y0124069D01*
X0103051Y0125667D02*
X0106621Y0125667D01*
X0110668Y0125667D02*
X0116621Y0125667D01*
X0120668Y0125667D02*
X0126621Y0125667D01*
X0126645Y0127266D02*
X0101453Y0127266D01*
X0099854Y0128864D02*
X0104946Y0128864D01*
X0103348Y0130463D02*
X0098256Y0130463D01*
X0096657Y0132061D02*
X0101749Y0132061D01*
X0100150Y0133660D02*
X0095344Y0133660D01*
X0095344Y0135258D02*
X0098552Y0135258D01*
X0101762Y0136857D02*
X0110727Y0136857D01*
X0110003Y0136132D02*
X0107086Y0136132D01*
X0104882Y0133928D01*
X0104882Y0133736D01*
X0098644Y0139974D01*
X0098644Y0141474D01*
X0096883Y0143235D01*
X0097407Y0143759D01*
X0097407Y0148068D01*
X0097405Y0148070D01*
X0117449Y0148070D01*
X0117611Y0148232D01*
X0117611Y0146078D01*
X0118431Y0145257D01*
X0121253Y0145257D01*
X0123894Y0142616D01*
X0123894Y0141723D01*
X0124313Y0140712D01*
X0124611Y0140415D01*
X0124611Y0140370D01*
X0124440Y0140370D01*
X0123678Y0139608D01*
X0123678Y0140663D01*
X0122858Y0141483D01*
X0118431Y0141483D01*
X0117611Y0140663D01*
X0117611Y0140370D01*
X0114240Y0140370D01*
X0110003Y0136132D01*
X0112326Y0138455D02*
X0100163Y0138455D01*
X0098644Y0140054D02*
X0113924Y0140054D01*
X0117611Y0146448D02*
X0097407Y0146448D01*
X0097407Y0144849D02*
X0121661Y0144849D01*
X0123259Y0143251D02*
X0096899Y0143251D01*
X0098466Y0141652D02*
X0123924Y0141652D01*
X0124124Y0140054D02*
X0123678Y0140054D01*
X0117611Y0148047D02*
X0097407Y0148047D01*
X0090058Y0141652D02*
X0085736Y0141652D01*
X0085899Y0143251D02*
X0088459Y0143251D01*
X0086861Y0144849D02*
X0086407Y0144849D01*
X0080844Y0149645D02*
X0074344Y0149645D01*
X0074175Y0151244D02*
X0079567Y0151244D01*
X0078882Y0148047D02*
X0076407Y0148047D01*
X0076407Y0146448D02*
X0078882Y0146448D01*
X0078882Y0144849D02*
X0076407Y0144849D01*
X0075899Y0143251D02*
X0079390Y0143251D01*
X0079553Y0141652D02*
X0075736Y0141652D01*
X0076407Y0140054D02*
X0078882Y0140054D01*
X0078882Y0138455D02*
X0076407Y0138455D01*
X0076862Y0136857D02*
X0078882Y0136857D01*
X0078460Y0135258D02*
X0080844Y0135258D01*
X0080844Y0133660D02*
X0080059Y0133660D01*
X0078448Y0130463D02*
X0077326Y0130463D01*
X0079944Y0128864D02*
X0048735Y0128864D01*
X0050981Y0127266D02*
X0079944Y0127266D01*
X0079944Y0125667D02*
X0060373Y0125667D01*
X0060807Y0124069D02*
X0079944Y0124069D01*
X0079944Y0122470D02*
X0060807Y0122470D01*
X0056645Y0124069D02*
X0056644Y0124069D01*
X0056644Y0125667D02*
X0056645Y0125667D01*
X0052916Y0125667D02*
X0051444Y0125667D01*
X0055198Y0130463D02*
X0061948Y0130463D01*
X0060349Y0132061D02*
X0055407Y0132061D01*
X0055407Y0133660D02*
X0058750Y0133660D01*
X0057152Y0135258D02*
X0055130Y0135258D01*
X0058763Y0138455D02*
X0059882Y0138455D01*
X0059882Y0140054D02*
X0055407Y0140054D01*
X0055407Y0141652D02*
X0060553Y0141652D01*
X0060390Y0143251D02*
X0050494Y0143251D01*
X0049654Y0144849D02*
X0059882Y0144849D01*
X0059882Y0146448D02*
X0038771Y0146448D01*
X0040369Y0144849D02*
X0045835Y0144849D01*
X0044994Y0143251D02*
X0041968Y0143251D01*
X0037172Y0148047D02*
X0059882Y0148047D01*
X0061065Y0149645D02*
X0035574Y0149645D01*
X0035194Y0151244D02*
X0059467Y0151244D01*
X0062677Y0152842D02*
X0062960Y0152842D01*
X0064275Y0151244D02*
X0069367Y0151244D01*
X0070944Y0149645D02*
X0065344Y0149645D01*
X0067407Y0148047D02*
X0068882Y0148047D01*
X0068882Y0146448D02*
X0067407Y0146448D01*
X0067407Y0144849D02*
X0068882Y0144849D01*
X0069390Y0143251D02*
X0066899Y0143251D01*
X0066736Y0141652D02*
X0069553Y0141652D01*
X0068882Y0140054D02*
X0067407Y0140054D01*
X0067407Y0138455D02*
X0068882Y0138455D01*
X0084244Y0135258D02*
X0091944Y0135258D01*
X0091944Y0133660D02*
X0084244Y0133660D01*
X0084244Y0132061D02*
X0091944Y0132061D01*
X0093448Y0130463D02*
X0084544Y0130463D01*
X0084544Y0128864D02*
X0095046Y0128864D01*
X0103360Y0135258D02*
X0106212Y0135258D01*
X0089882Y0136857D02*
X0086407Y0136857D01*
X0086407Y0138455D02*
X0089882Y0138455D01*
X0089882Y0140054D02*
X0086407Y0140054D01*
X0072960Y0152842D02*
X0072577Y0152842D01*
X0052960Y0152842D02*
X0034881Y0152842D01*
X0033819Y0154441D02*
X0051544Y0154441D01*
X0051544Y0156039D02*
X0032118Y0156039D01*
X0033716Y0157638D02*
X0051544Y0157638D01*
X0052298Y0159236D02*
X0035315Y0159236D01*
X0036913Y0160835D02*
X0053897Y0160835D01*
X0053369Y0162433D02*
X0038512Y0162433D01*
X0040110Y0164032D02*
X0051770Y0164032D01*
X0051544Y0165630D02*
X0041709Y0165630D01*
X0043307Y0167229D02*
X0051544Y0167229D01*
X0051889Y0168827D02*
X0044906Y0168827D01*
X0041696Y0170426D02*
X0025254Y0170426D01*
X0025844Y0169001D02*
X0024596Y0172015D01*
X0023541Y0173070D01*
X0136440Y0173070D01*
X0131744Y0168374D01*
X0131744Y0168483D01*
X0128757Y0171470D01*
X0124532Y0171470D01*
X0121644Y0168583D01*
X0118757Y0171470D01*
X0114532Y0171470D01*
X0111644Y0168583D01*
X0108757Y0171470D01*
X0104532Y0171470D01*
X0101644Y0168583D01*
X0098757Y0171470D01*
X0094532Y0171470D01*
X0094340Y0171278D01*
X0092849Y0172770D01*
X0044040Y0172770D01*
X0043044Y0171774D01*
X0008944Y0137674D01*
X0008944Y0173070D01*
X0011748Y0173070D01*
X0010693Y0172015D01*
X0009444Y0169001D01*
X0009444Y0165739D01*
X0010693Y0162725D01*
X0013000Y0160418D01*
X0016013Y0159170D01*
X0019276Y0159170D01*
X0022289Y0160418D01*
X0024596Y0162725D01*
X0025844Y0165739D01*
X0025844Y0169001D01*
X0025844Y0168827D02*
X0040097Y0168827D01*
X0038499Y0167229D02*
X0025844Y0167229D01*
X0025799Y0165630D02*
X0036900Y0165630D01*
X0035302Y0164032D02*
X0025137Y0164032D01*
X0024304Y0162433D02*
X0033703Y0162433D01*
X0032105Y0160835D02*
X0022706Y0160835D01*
X0019435Y0159236D02*
X0030506Y0159236D01*
X0028908Y0157638D02*
X0008944Y0157638D01*
X0008944Y0159236D02*
X0015854Y0159236D01*
X0012583Y0160835D02*
X0008944Y0160835D01*
X0008944Y0162433D02*
X0010985Y0162433D01*
X0010152Y0164032D02*
X0008944Y0164032D01*
X0008944Y0165630D02*
X0009490Y0165630D01*
X0009444Y0167229D02*
X0008944Y0167229D01*
X0008944Y0168827D02*
X0009444Y0168827D01*
X0008944Y0170426D02*
X0010035Y0170426D01*
X0010702Y0172024D02*
X0008944Y0172024D01*
X0024587Y0172024D02*
X0043294Y0172024D01*
X0027309Y0156039D02*
X0008944Y0156039D01*
X0008944Y0154441D02*
X0025711Y0154441D01*
X0024112Y0152842D02*
X0008944Y0152842D01*
X0008944Y0151244D02*
X0022514Y0151244D01*
X0020915Y0149645D02*
X0008944Y0149645D01*
X0008944Y0148047D02*
X0019317Y0148047D01*
X0017718Y0146448D02*
X0008944Y0146448D01*
X0008944Y0144849D02*
X0016120Y0144849D01*
X0014521Y0143251D02*
X0008944Y0143251D01*
X0008944Y0141652D02*
X0012923Y0141652D01*
X0011324Y0140054D02*
X0008944Y0140054D01*
X0008944Y0138455D02*
X0009726Y0138455D01*
X0011344Y0135258D02*
X0026095Y0135258D01*
X0026310Y0136857D02*
X0012935Y0136857D01*
X0014534Y0138455D02*
X0027233Y0138455D01*
X0027463Y0140054D02*
X0016133Y0140054D01*
X0017731Y0141652D02*
X0026405Y0141652D01*
X0026095Y0143251D02*
X0019330Y0143251D01*
X0020928Y0144849D02*
X0026359Y0144849D01*
X0027351Y0146448D02*
X0022527Y0146448D01*
X0024125Y0148047D02*
X0027345Y0148047D01*
X0026356Y0149645D02*
X0025724Y0149645D01*
X0026454Y0133660D02*
X0011344Y0133660D01*
X0011344Y0132061D02*
X0027582Y0132061D01*
X0026636Y0130463D02*
X0011344Y0130463D01*
X0030645Y0127559D02*
X0035594Y0127559D01*
X0030645Y0127559D01*
X0030645Y0127559D01*
X0035594Y0127559D02*
X0035594Y0127949D01*
X0035472Y0128718D01*
X0035231Y0129459D01*
X0034878Y0130153D01*
X0034420Y0130784D01*
X0033869Y0131334D01*
X0033354Y0131709D01*
X0034179Y0132533D01*
X0038837Y0132533D01*
X0038882Y0132488D01*
X0038882Y0130724D01*
X0038881Y0130717D01*
X0038882Y0130713D01*
X0038882Y0130672D01*
X0038895Y0130659D01*
X0038944Y0130459D01*
X0038944Y0127794D01*
X0039462Y0126544D01*
X0040419Y0125588D01*
X0041136Y0125291D01*
X0041132Y0125283D01*
X0041079Y0125203D01*
X0034999Y0125203D01*
X0035231Y0125659D01*
X0035472Y0126400D01*
X0035594Y0127170D01*
X0035594Y0127559D01*
X0035594Y0127266D02*
X0039163Y0127266D01*
X0038944Y0128864D02*
X0035425Y0128864D01*
X0034653Y0130463D02*
X0038944Y0130463D01*
X0038882Y0132061D02*
X0033707Y0132061D01*
X0035234Y0125667D02*
X0040339Y0125667D01*
X0036294Y0117675D02*
X0036131Y0117675D01*
X0036131Y0116076D02*
X0036749Y0116076D01*
X0036131Y0114478D02*
X0040733Y0114478D01*
X0042217Y0112879D02*
X0036131Y0112879D01*
X0036131Y0111281D02*
X0040991Y0111281D01*
X0040844Y0109682D02*
X0036131Y0109682D01*
X0035555Y0108084D02*
X0040844Y0108084D01*
X0045361Y0093697D02*
X0053767Y0093697D01*
X0052169Y0092099D02*
X0045219Y0092099D01*
X0043626Y0090500D02*
X0051444Y0090500D01*
X0051444Y0088902D02*
X0049521Y0088902D01*
X0051120Y0087303D02*
X0051444Y0087303D01*
X0058096Y0080909D02*
X0077916Y0080909D01*
X0081144Y0079311D02*
X0059694Y0079311D01*
X0061293Y0077712D02*
X0081144Y0077712D01*
X0080899Y0076114D02*
X0061294Y0076114D01*
X0061294Y0074515D02*
X0079835Y0074515D01*
X0079963Y0072916D02*
X0061181Y0072916D01*
X0059583Y0071318D02*
X0080784Y0071318D01*
X0087204Y0068121D02*
X0090894Y0068121D01*
X0090894Y0067623D02*
X0091313Y0066612D01*
X0091944Y0065981D01*
X0091944Y0064732D01*
X0091491Y0064920D01*
X0090397Y0064920D01*
X0089387Y0064501D01*
X0088613Y0063728D01*
X0088194Y0062717D01*
X0088194Y0061824D01*
X0088044Y0061674D01*
X0088044Y0060727D01*
X0086797Y0060727D01*
X0085977Y0059907D01*
X0085977Y0052170D01*
X0076140Y0052170D01*
X0075312Y0051341D01*
X0075276Y0051428D01*
X0074502Y0052201D01*
X0073491Y0052620D01*
X0072599Y0052620D01*
X0063149Y0062070D01*
X0060163Y0062070D01*
X0060163Y0062970D01*
X0081321Y0062970D01*
X0082570Y0063488D01*
X0083527Y0064444D01*
X0088053Y0068970D01*
X0090999Y0068970D01*
X0090894Y0068717D01*
X0090894Y0067623D01*
X0091403Y0066522D02*
X0085605Y0066522D01*
X0084007Y0064924D02*
X0091944Y0064924D01*
X0088446Y0063325D02*
X0082179Y0063325D01*
X0086198Y0060128D02*
X0065090Y0060128D01*
X0066689Y0058530D02*
X0085977Y0058530D01*
X0085977Y0056931D02*
X0068287Y0056931D01*
X0069886Y0055333D02*
X0085977Y0055333D01*
X0085977Y0053734D02*
X0071484Y0053734D01*
X0074568Y0052136D02*
X0076106Y0052136D01*
X0070194Y0050216D02*
X0070194Y0049323D01*
X0070613Y0048312D01*
X0071387Y0047539D01*
X0071473Y0047503D01*
X0064440Y0040470D01*
X0044534Y0040470D01*
X0043902Y0041101D01*
X0043809Y0041140D01*
X0049571Y0046902D01*
X0049649Y0046870D01*
X0050332Y0046870D01*
X0050113Y0046342D01*
X0050113Y0044949D01*
X0050646Y0043663D01*
X0051630Y0042679D01*
X0052917Y0042146D01*
X0054309Y0042146D01*
X0055596Y0042679D01*
X0056580Y0043663D01*
X0056704Y0043961D01*
X0056827Y0043663D01*
X0057812Y0042679D01*
X0059098Y0042146D01*
X0060490Y0042146D01*
X0061777Y0042679D01*
X0062761Y0043663D01*
X0063294Y0044949D01*
X0063294Y0046342D01*
X0063241Y0046470D01*
X0063328Y0046470D01*
X0064081Y0046620D01*
X0064791Y0046914D01*
X0065430Y0047341D01*
X0065973Y0047884D01*
X0066400Y0048523D01*
X0066694Y0049232D01*
X0066844Y0049986D01*
X0066844Y0050370D01*
X0062944Y0050370D01*
X0062944Y0050370D01*
X0066844Y0050370D01*
X0066844Y0050754D01*
X0066694Y0051508D01*
X0066400Y0052217D01*
X0065973Y0052856D01*
X0065430Y0053399D01*
X0064791Y0053826D01*
X0064081Y0054120D01*
X0063328Y0054270D01*
X0062944Y0054270D01*
X0062944Y0050370D01*
X0062944Y0050370D01*
X0062944Y0054270D01*
X0062560Y0054270D01*
X0061806Y0054120D01*
X0061096Y0053826D01*
X0060458Y0053399D01*
X0059914Y0052856D01*
X0059591Y0052373D01*
X0058627Y0053337D01*
X0057341Y0053870D01*
X0055948Y0053870D01*
X0054662Y0053337D01*
X0053697Y0052373D01*
X0053501Y0060411D01*
X0053501Y0062970D01*
X0054213Y0062970D01*
X0054213Y0057428D01*
X0055033Y0056608D01*
X0059342Y0056608D01*
X0060163Y0057428D01*
X0060163Y0058670D01*
X0061740Y0058670D01*
X0070194Y0050216D01*
X0069873Y0050537D02*
X0066844Y0050537D01*
X0066572Y0048939D02*
X0070354Y0048939D01*
X0071311Y0047340D02*
X0065429Y0047340D01*
X0063294Y0045742D02*
X0069712Y0045742D01*
X0068114Y0044143D02*
X0062960Y0044143D01*
X0061454Y0042545D02*
X0066515Y0042545D01*
X0064917Y0040946D02*
X0044057Y0040946D01*
X0045213Y0042545D02*
X0051953Y0042545D01*
X0050447Y0044143D02*
X0046812Y0044143D01*
X0048410Y0045742D02*
X0050113Y0045742D01*
X0055273Y0042545D02*
X0058134Y0042545D01*
X0065249Y0034670D02*
X0066244Y0035666D01*
X0074777Y0044199D01*
X0074813Y0044112D01*
X0075587Y0043339D01*
X0076597Y0042920D01*
X0077691Y0042920D01*
X0078702Y0043339D01*
X0079334Y0043970D01*
X0085977Y0043970D01*
X0085977Y0039685D01*
X0085936Y0039645D01*
X0085699Y0039234D01*
X0085577Y0038776D01*
X0085577Y0037732D01*
X0085577Y0036688D01*
X0085662Y0036370D01*
X0073644Y0036370D01*
X0073644Y0036028D01*
X0072233Y0036613D01*
X0069796Y0036613D01*
X0067545Y0035680D01*
X0065823Y0033957D01*
X0064890Y0031706D01*
X0064890Y0029270D01*
X0065823Y0027019D01*
X0067545Y0025296D01*
X0069796Y0024364D01*
X0072233Y0024364D01*
X0073644Y0024949D01*
X0073644Y0017670D01*
X0020541Y0017670D01*
X0022596Y0019725D01*
X0023844Y0022739D01*
X0023844Y0026001D01*
X0022596Y0029015D01*
X0020289Y0031322D01*
X0017276Y0032570D01*
X0014013Y0032570D01*
X0011000Y0031322D01*
X0008944Y0029267D01*
X0008944Y0033766D01*
X0010140Y0032570D01*
X0036508Y0032570D01*
X0036150Y0031706D01*
X0036150Y0029270D01*
X0036751Y0027820D01*
X0034150Y0030420D01*
X0032144Y0030420D01*
X0032144Y0024870D01*
X0031144Y0024870D01*
X0031144Y0023870D01*
X0025594Y0023870D01*
X0025594Y0021864D01*
X0029138Y0018320D01*
X0031144Y0018320D01*
X0031144Y0023870D01*
X0032144Y0023870D01*
X0032144Y0018320D01*
X0034150Y0018320D01*
X0037694Y0021864D01*
X0037694Y0023870D01*
X0032145Y0023870D01*
X0032145Y0024870D01*
X0037694Y0024870D01*
X0037694Y0026407D01*
X0038805Y0025296D01*
X0041056Y0024364D01*
X0043493Y0024364D01*
X0045744Y0025296D01*
X0047466Y0027019D01*
X0048399Y0029270D01*
X0048399Y0031706D01*
X0047466Y0033957D01*
X0046754Y0034670D01*
X0065249Y0034670D01*
X0066417Y0034552D02*
X0046872Y0034552D01*
X0047882Y0032954D02*
X0065407Y0032954D01*
X0064890Y0031355D02*
X0048399Y0031355D01*
X0048399Y0029757D02*
X0064890Y0029757D01*
X0065351Y0028158D02*
X0047938Y0028158D01*
X0047007Y0026560D02*
X0066282Y0026560D01*
X0068354Y0024961D02*
X0044935Y0024961D01*
X0039614Y0024961D02*
X0037694Y0024961D01*
X0037694Y0023363D02*
X0073644Y0023363D01*
X0073644Y0021764D02*
X0037595Y0021764D01*
X0035996Y0020166D02*
X0073644Y0020166D01*
X0073644Y0018567D02*
X0034397Y0018567D01*
X0032144Y0018567D02*
X0031144Y0018567D01*
X0031144Y0020166D02*
X0032144Y0020166D01*
X0032144Y0021764D02*
X0031144Y0021764D01*
X0031144Y0023363D02*
X0032144Y0023363D01*
X0032144Y0024961D02*
X0031144Y0024961D01*
X0031144Y0024870D02*
X0031144Y0030420D01*
X0029138Y0030420D01*
X0025594Y0026876D01*
X0025594Y0024870D01*
X0031144Y0024870D01*
X0031144Y0026560D02*
X0032144Y0026560D01*
X0032144Y0028158D02*
X0031144Y0028158D01*
X0031144Y0029757D02*
X0032144Y0029757D01*
X0034814Y0029757D02*
X0036150Y0029757D01*
X0036150Y0031355D02*
X0020209Y0031355D01*
X0021854Y0029757D02*
X0028475Y0029757D01*
X0026877Y0028158D02*
X0022951Y0028158D01*
X0023613Y0026560D02*
X0025594Y0026560D01*
X0025594Y0024961D02*
X0023844Y0024961D01*
X0023844Y0023363D02*
X0025594Y0023363D01*
X0025694Y0021764D02*
X0023441Y0021764D01*
X0022779Y0020166D02*
X0027293Y0020166D01*
X0028891Y0018567D02*
X0021438Y0018567D01*
X0009435Y0029757D02*
X0008944Y0029757D01*
X0008944Y0031355D02*
X0011080Y0031355D01*
X0009757Y0032954D02*
X0008944Y0032954D01*
X0014044Y0038770D02*
X0034650Y0038770D01*
X0034651Y0038771D01*
X0034487Y0038839D01*
X0033855Y0039470D01*
X0029640Y0039470D01*
X0027160Y0041950D01*
X0024687Y0041950D01*
X0024210Y0042427D01*
X0021161Y0042427D01*
X0020587Y0041852D01*
X0014702Y0041852D01*
X0014044Y0042510D01*
X0014044Y0038770D01*
X0014044Y0039348D02*
X0033978Y0039348D01*
X0028164Y0040946D02*
X0014044Y0040946D01*
X0012874Y0050537D02*
X0011344Y0050537D01*
X0011344Y0052136D02*
X0013882Y0052136D01*
X0013882Y0053734D02*
X0011344Y0053734D01*
X0011344Y0055333D02*
X0030244Y0055333D01*
X0030244Y0056931D02*
X0011344Y0056931D01*
X0011344Y0058530D02*
X0030244Y0058530D01*
X0030244Y0060128D02*
X0011344Y0060128D01*
X0037044Y0063325D02*
X0037610Y0063325D01*
X0037044Y0064924D02*
X0039208Y0064924D01*
X0037044Y0066522D02*
X0044844Y0066522D01*
X0044844Y0064924D02*
X0044081Y0064924D01*
X0044844Y0068121D02*
X0037044Y0068121D01*
X0037044Y0069719D02*
X0044844Y0069719D01*
X0044844Y0071318D02*
X0037044Y0071318D01*
X0037044Y0072916D02*
X0044844Y0072916D01*
X0045085Y0074515D02*
X0037044Y0074515D01*
X0039188Y0076208D02*
X0039188Y0080370D01*
X0039188Y0076208D01*
X0039188Y0077712D02*
X0039188Y0077712D01*
X0039188Y0079311D02*
X0039188Y0079311D01*
X0039188Y0080370D02*
X0039188Y0080370D01*
X0053501Y0061727D02*
X0054213Y0061727D01*
X0054213Y0060128D02*
X0053508Y0060128D01*
X0053547Y0058530D02*
X0054213Y0058530D01*
X0054710Y0056931D02*
X0053586Y0056931D01*
X0053625Y0055333D02*
X0065078Y0055333D01*
X0064929Y0053734D02*
X0066676Y0053734D01*
X0066434Y0052136D02*
X0068275Y0052136D01*
X0062944Y0052136D02*
X0062944Y0052136D01*
X0062944Y0053734D02*
X0062944Y0053734D01*
X0060959Y0053734D02*
X0057668Y0053734D01*
X0055621Y0053734D02*
X0053664Y0053734D01*
X0059666Y0056931D02*
X0063479Y0056931D01*
X0061881Y0058530D02*
X0060163Y0058530D01*
X0063492Y0061727D02*
X0088097Y0061727D01*
X0086715Y0079311D02*
X0113781Y0079311D01*
X0115379Y0080909D02*
X0093202Y0080909D01*
X0094979Y0082508D02*
X0116394Y0082508D01*
X0117091Y0084106D02*
X0095641Y0084106D01*
X0095005Y0088170D02*
X0094968Y0088259D01*
X0093533Y0089694D01*
X0091900Y0090370D01*
X0093533Y0091047D01*
X0094968Y0092481D01*
X0095744Y0094356D01*
X0095744Y0094970D01*
X0110721Y0094970D01*
X0110701Y0094894D01*
X0110701Y0093972D01*
X0110701Y0093050D01*
X0110797Y0092693D01*
X0110701Y0092335D01*
X0110701Y0091413D01*
X0110701Y0090491D01*
X0110823Y0090034D01*
X0111060Y0089623D01*
X0111101Y0089583D01*
X0111101Y0088170D01*
X0095005Y0088170D01*
X0094325Y0088902D02*
X0111101Y0088902D01*
X0110701Y0090500D02*
X0092214Y0090500D01*
X0094586Y0092099D02*
X0110701Y0092099D01*
X0110701Y0091413D02*
X0115251Y0091413D01*
X0110701Y0091413D01*
X0110701Y0093697D02*
X0095472Y0093697D01*
X0089075Y0090500D02*
X0084544Y0090500D01*
X0084544Y0088902D02*
X0086964Y0088902D01*
X0085925Y0087303D02*
X0084544Y0087303D01*
X0084544Y0085705D02*
X0085544Y0085705D01*
X0085648Y0084106D02*
X0084544Y0084106D01*
X0084544Y0082508D02*
X0086310Y0082508D01*
X0084544Y0080909D02*
X0088087Y0080909D01*
X0085574Y0079311D02*
X0084544Y0079311D01*
X0078444Y0088902D02*
X0069776Y0088902D01*
X0069807Y0090500D02*
X0078444Y0090500D01*
X0078444Y0092099D02*
X0069807Y0092099D01*
X0069257Y0093697D02*
X0078444Y0093697D01*
X0078444Y0095296D02*
X0068944Y0095296D01*
X0069407Y0096894D02*
X0078444Y0096894D01*
X0078444Y0098493D02*
X0069407Y0098493D01*
X0065645Y0093697D02*
X0065644Y0093697D01*
X0065644Y0092099D02*
X0065645Y0092099D01*
X0065644Y0090500D02*
X0065645Y0090500D01*
X0065644Y0088902D02*
X0065645Y0088902D01*
X0084544Y0092099D02*
X0086703Y0092099D01*
X0085817Y0093697D02*
X0084544Y0093697D01*
X0084544Y0095296D02*
X0085544Y0095296D01*
X0085756Y0096894D02*
X0084544Y0096894D01*
X0084544Y0098493D02*
X0086555Y0098493D01*
X0084544Y0100091D02*
X0088715Y0100091D01*
X0092574Y0100091D02*
X0111101Y0100091D01*
X0111101Y0098493D02*
X0094734Y0098493D01*
X0097222Y0103288D02*
X0084544Y0103288D01*
X0084544Y0101690D02*
X0111101Y0101690D01*
X0115251Y0108084D02*
X0115251Y0108084D01*
X0119715Y0108084D02*
X0120927Y0108084D01*
X0119801Y0106485D02*
X0122525Y0106485D01*
X0123294Y0104887D02*
X0119401Y0104887D01*
X0119401Y0103288D02*
X0123557Y0103288D01*
X0124160Y0101690D02*
X0119401Y0101690D01*
X0119401Y0100091D02*
X0122561Y0100091D01*
X0120963Y0098493D02*
X0119401Y0098493D01*
X0115251Y0093972D02*
X0115251Y0093972D01*
X0115251Y0091414D01*
X0115251Y0091414D01*
X0115251Y0093898D01*
X0115251Y0093972D01*
X0115251Y0093972D01*
X0110701Y0093972D01*
X0115251Y0093972D01*
X0115251Y0093697D02*
X0115251Y0093697D01*
X0115251Y0092099D02*
X0115251Y0092099D01*
X0115251Y0091413D02*
X0115251Y0091413D01*
X0131714Y0080435D02*
X0139888Y0088610D01*
X0139888Y0087589D01*
X0139903Y0087575D01*
X0139888Y0087560D01*
X0139888Y0085030D01*
X0140708Y0084210D01*
X0142800Y0084210D01*
X0143561Y0083895D01*
X0144516Y0083895D01*
X0145276Y0084210D01*
X0147368Y0084210D01*
X0148188Y0085030D01*
X0148188Y0087560D01*
X0148174Y0087575D01*
X0148188Y0087589D01*
X0148188Y0088746D01*
X0151244Y0088734D01*
X0151244Y0083778D01*
X0143236Y0075770D01*
X0128090Y0075770D01*
X0128194Y0076023D01*
X0128194Y0076470D01*
X0128797Y0076220D01*
X0129891Y0076220D01*
X0130902Y0076639D01*
X0131676Y0077412D01*
X0132094Y0078423D01*
X0132094Y0079517D01*
X0131714Y0080435D01*
X0132188Y0080909D02*
X0148375Y0080909D01*
X0146777Y0079311D02*
X0132094Y0079311D01*
X0131800Y0077712D02*
X0145178Y0077712D01*
X0143580Y0076114D02*
X0128194Y0076114D01*
X0133786Y0082508D02*
X0149974Y0082508D01*
X0151244Y0084106D02*
X0145024Y0084106D01*
X0143052Y0084106D02*
X0135385Y0084106D01*
X0136983Y0085705D02*
X0139888Y0085705D01*
X0139888Y0087303D02*
X0138582Y0087303D01*
X0148188Y0087303D02*
X0151244Y0087303D01*
X0151244Y0085705D02*
X0148188Y0085705D01*
X0148188Y0094046D02*
X0148188Y0095237D01*
X0148174Y0095252D01*
X0148188Y0095267D01*
X0148188Y0097260D01*
X0148229Y0097300D01*
X0148466Y0097711D01*
X0148588Y0098169D01*
X0148588Y0099090D01*
X0144038Y0099090D01*
X0144038Y0099091D01*
X0148588Y0099091D01*
X0148588Y0099129D01*
X0151244Y0099059D01*
X0151244Y0094034D01*
X0148188Y0094046D01*
X0148188Y0095296D02*
X0151244Y0095296D01*
X0151244Y0096894D02*
X0148188Y0096894D01*
X0148588Y0098493D02*
X0151244Y0098493D01*
X0158044Y0098493D02*
X0184044Y0098493D01*
X0184044Y0100091D02*
X0158044Y0100091D01*
X0158044Y0101690D02*
X0184044Y0101690D01*
X0184044Y0103288D02*
X0158044Y0103288D01*
X0158044Y0104887D02*
X0168517Y0104887D01*
X0168192Y0105123D02*
X0168867Y0104632D01*
X0169610Y0104254D01*
X0170403Y0103996D01*
X0171227Y0103865D01*
X0171559Y0103865D01*
X0171559Y0109079D01*
X0171730Y0109079D01*
X0171730Y0103865D01*
X0172062Y0103865D01*
X0172886Y0103996D01*
X0173679Y0104254D01*
X0174422Y0104632D01*
X0175097Y0105123D01*
X0175687Y0105713D01*
X0176177Y0106388D01*
X0176556Y0107131D01*
X0176814Y0107924D01*
X0176944Y0108748D01*
X0176944Y0109080D01*
X0171730Y0109080D01*
X0171730Y0109251D01*
X0171559Y0109251D01*
X0171559Y0114465D01*
X0171227Y0114465D01*
X0170403Y0114335D01*
X0169610Y0114077D01*
X0168867Y0113698D01*
X0168192Y0113208D01*
X0167602Y0112618D01*
X0167112Y0111943D01*
X0166733Y0111200D01*
X0166475Y0110406D01*
X0166344Y0109582D01*
X0166344Y0109251D01*
X0171559Y0109251D01*
X0171559Y0109080D01*
X0166344Y0109080D01*
X0166344Y0108748D01*
X0166475Y0107924D01*
X0166733Y0107131D01*
X0167112Y0106388D01*
X0167602Y0105713D01*
X0168192Y0105123D01*
X0167062Y0106485D02*
X0158044Y0106485D01*
X0158044Y0108084D02*
X0166450Y0108084D01*
X0166360Y0109682D02*
X0158044Y0109682D01*
X0158044Y0111281D02*
X0166774Y0111281D01*
X0167863Y0112879D02*
X0158044Y0112879D01*
X0158044Y0114478D02*
X0184044Y0114478D01*
X0184044Y0115374D02*
X0184044Y0069159D01*
X0183413Y0068528D01*
X0183379Y0068444D01*
X0176570Y0075252D01*
X0175321Y0075770D01*
X0166053Y0075770D01*
X0158044Y0083778D01*
X0158044Y0092046D01*
X0158044Y0115046D01*
X0157527Y0116296D01*
X0156653Y0117170D01*
X0166049Y0117170D01*
X0167486Y0118608D01*
X0170203Y0118608D01*
X0172365Y0120770D01*
X0174924Y0120770D01*
X0177086Y0118608D01*
X0180203Y0118608D01*
X0182365Y0120770D01*
X0184924Y0120770D01*
X0187086Y0118608D01*
X0187278Y0118608D01*
X0184044Y0115374D01*
X0184747Y0116076D02*
X0157618Y0116076D01*
X0162165Y0120570D02*
X0162407Y0120812D01*
X0162407Y0123928D01*
X0160203Y0126132D01*
X0157086Y0126132D01*
X0155124Y0124170D01*
X0152165Y0124170D01*
X0150203Y0126132D01*
X0147086Y0126132D01*
X0145124Y0124170D01*
X0142165Y0124170D01*
X0140203Y0126132D01*
X0139611Y0126132D01*
X0144882Y0131404D01*
X0144882Y0130812D01*
X0147086Y0128608D01*
X0150203Y0128608D01*
X0152407Y0130812D01*
X0152407Y0133528D01*
X0153244Y0134366D01*
X0153244Y0136202D01*
X0153858Y0136202D01*
X0154678Y0137022D01*
X0154678Y0140663D01*
X0153858Y0141483D01*
X0150544Y0141483D01*
X0150544Y0144266D01*
X0151536Y0145257D01*
X0151853Y0145257D01*
X0155640Y0141470D01*
X0157418Y0141470D01*
X0156611Y0140663D01*
X0156611Y0137022D01*
X0157431Y0136202D01*
X0157944Y0136202D01*
X0157944Y0136132D01*
X0157086Y0136132D01*
X0154882Y0133928D01*
X0154882Y0130812D01*
X0157086Y0128608D01*
X0160203Y0128608D01*
X0162407Y0130812D01*
X0162407Y0133928D01*
X0161344Y0134991D01*
X0161344Y0136202D01*
X0161858Y0136202D01*
X0162678Y0137022D01*
X0162678Y0140663D01*
X0161871Y0141470D01*
X0166418Y0141470D01*
X0165611Y0140663D01*
X0165611Y0137022D01*
X0166431Y0136202D01*
X0166944Y0136202D01*
X0166944Y0135991D01*
X0164882Y0133928D01*
X0164882Y0130812D01*
X0167086Y0128608D01*
X0170203Y0128608D01*
X0172407Y0130812D01*
X0172407Y0133928D01*
X0170344Y0135991D01*
X0170344Y0136202D01*
X0170858Y0136202D01*
X0171678Y0137022D01*
X0171678Y0140663D01*
X0170871Y0141470D01*
X0174418Y0141470D01*
X0173611Y0140663D01*
X0173611Y0137022D01*
X0174431Y0136202D01*
X0175044Y0136202D01*
X0175044Y0134091D01*
X0174882Y0133928D01*
X0174882Y0130812D01*
X0177086Y0128608D01*
X0180203Y0128608D01*
X0182407Y0130812D01*
X0182407Y0131504D01*
X0187778Y0126132D01*
X0187086Y0126132D01*
X0185124Y0124170D01*
X0182165Y0124170D01*
X0180203Y0126132D01*
X0177086Y0126132D01*
X0175124Y0124170D01*
X0172165Y0124170D01*
X0170203Y0126132D01*
X0167086Y0126132D01*
X0164882Y0123928D01*
X0164882Y0120812D01*
X0164640Y0120570D01*
X0162165Y0120570D01*
X0162407Y0120872D02*
X0164882Y0120872D01*
X0164882Y0122470D02*
X0162407Y0122470D01*
X0162266Y0124069D02*
X0165023Y0124069D01*
X0166621Y0125667D02*
X0160668Y0125667D01*
X0160459Y0128864D02*
X0166830Y0128864D01*
X0165231Y0130463D02*
X0162058Y0130463D01*
X0162407Y0132061D02*
X0164882Y0132061D01*
X0164882Y0133660D02*
X0162407Y0133660D01*
X0161344Y0135258D02*
X0166212Y0135258D01*
X0165776Y0136857D02*
X0162513Y0136857D01*
X0162678Y0138455D02*
X0165611Y0138455D01*
X0165611Y0140054D02*
X0162678Y0140054D01*
X0156611Y0140054D02*
X0154678Y0140054D01*
X0154678Y0138455D02*
X0156611Y0138455D01*
X0156776Y0136857D02*
X0154513Y0136857D01*
X0153244Y0135258D02*
X0156212Y0135258D01*
X0154882Y0133660D02*
X0152538Y0133660D01*
X0152407Y0132061D02*
X0154882Y0132061D01*
X0155231Y0130463D02*
X0152058Y0130463D01*
X0150459Y0128864D02*
X0156830Y0128864D01*
X0156621Y0125667D02*
X0150668Y0125667D01*
X0146621Y0125667D02*
X0140668Y0125667D01*
X0140744Y0127266D02*
X0186645Y0127266D01*
X0186621Y0125667D02*
X0180668Y0125667D01*
X0176621Y0125667D02*
X0170668Y0125667D01*
X0170459Y0128864D02*
X0176830Y0128864D01*
X0175231Y0130463D02*
X0172058Y0130463D01*
X0172407Y0132061D02*
X0174882Y0132061D01*
X0174882Y0133660D02*
X0172407Y0133660D01*
X0171077Y0135258D02*
X0175044Y0135258D01*
X0173776Y0136857D02*
X0171513Y0136857D01*
X0171678Y0138455D02*
X0173611Y0138455D01*
X0173611Y0140054D02*
X0171678Y0140054D01*
X0182058Y0130463D02*
X0183448Y0130463D01*
X0185046Y0128864D02*
X0180459Y0128864D01*
X0180868Y0119273D02*
X0186421Y0119273D01*
X0186345Y0117675D02*
X0166553Y0117675D01*
X0170868Y0119273D02*
X0176421Y0119273D01*
X0173679Y0114077D02*
X0172886Y0114335D01*
X0172062Y0114465D01*
X0171730Y0114465D01*
X0171730Y0109251D01*
X0176944Y0109251D01*
X0176944Y0109582D01*
X0176814Y0110406D01*
X0176556Y0111200D01*
X0176177Y0111943D01*
X0175687Y0112618D01*
X0175097Y0113208D01*
X0174422Y0113698D01*
X0173679Y0114077D01*
X0175426Y0112879D02*
X0184044Y0112879D01*
X0184044Y0111281D02*
X0176515Y0111281D01*
X0176929Y0109682D02*
X0184044Y0109682D01*
X0184044Y0108084D02*
X0176839Y0108084D01*
X0176227Y0106485D02*
X0184044Y0106485D01*
X0184044Y0104887D02*
X0174772Y0104887D01*
X0171730Y0104887D02*
X0171559Y0104887D01*
X0171559Y0106485D02*
X0171730Y0106485D01*
X0171730Y0108084D02*
X0171559Y0108084D01*
X0171559Y0109682D02*
X0171730Y0109682D01*
X0171730Y0111281D02*
X0171559Y0111281D01*
X0171559Y0112879D02*
X0171730Y0112879D01*
X0187444Y0112879D02*
X0191844Y0112879D01*
X0191844Y0111281D02*
X0187444Y0111281D01*
X0187444Y0109682D02*
X0191844Y0109682D01*
X0191844Y0108084D02*
X0187444Y0108084D01*
X0187444Y0106485D02*
X0191844Y0106485D01*
X0191844Y0104887D02*
X0187444Y0104887D01*
X0187444Y0103288D02*
X0191844Y0103288D01*
X0191844Y0101690D02*
X0187444Y0101690D01*
X0187444Y0100091D02*
X0191844Y0100091D01*
X0191844Y0098493D02*
X0187444Y0098493D01*
X0187444Y0096894D02*
X0191844Y0096894D01*
X0191844Y0095296D02*
X0187444Y0095296D01*
X0187444Y0093697D02*
X0191844Y0093697D01*
X0191844Y0092099D02*
X0187444Y0092099D01*
X0187444Y0090500D02*
X0191844Y0090500D01*
X0191844Y0088902D02*
X0187444Y0088902D01*
X0187444Y0087303D02*
X0191844Y0087303D01*
X0191844Y0085705D02*
X0187444Y0085705D01*
X0187444Y0084106D02*
X0191844Y0084106D01*
X0191844Y0082508D02*
X0187444Y0082508D01*
X0187444Y0080909D02*
X0191844Y0080909D01*
X0191844Y0079311D02*
X0187444Y0079311D01*
X0187444Y0077712D02*
X0191844Y0077712D01*
X0191844Y0076114D02*
X0187444Y0076114D01*
X0187444Y0074515D02*
X0191844Y0074515D01*
X0191844Y0072916D02*
X0187444Y0072916D01*
X0187444Y0071318D02*
X0191844Y0071318D01*
X0191844Y0069719D02*
X0187444Y0069719D01*
X0187444Y0069159D02*
X0187444Y0113966D01*
X0191844Y0118366D01*
X0191844Y0040359D01*
X0191213Y0039728D01*
X0191179Y0039644D01*
X0191044Y0039778D01*
X0191044Y0060046D01*
X0190527Y0061296D01*
X0189570Y0062252D01*
X0187219Y0064604D01*
X0187302Y0064639D01*
X0188076Y0065412D01*
X0188494Y0066423D01*
X0188494Y0067517D01*
X0188076Y0068528D01*
X0187444Y0069159D01*
X0188244Y0068121D02*
X0191844Y0068121D01*
X0191844Y0066522D02*
X0188494Y0066522D01*
X0187587Y0064924D02*
X0191844Y0064924D01*
X0191844Y0063325D02*
X0188497Y0063325D01*
X0190096Y0061727D02*
X0191844Y0061727D01*
X0191844Y0060128D02*
X0191011Y0060128D01*
X0191044Y0058530D02*
X0191844Y0058530D01*
X0191844Y0056931D02*
X0191044Y0056931D01*
X0191044Y0055333D02*
X0191844Y0055333D01*
X0191844Y0053734D02*
X0191044Y0053734D01*
X0191044Y0052136D02*
X0191844Y0052136D01*
X0191844Y0050537D02*
X0191044Y0050537D01*
X0191044Y0048939D02*
X0191844Y0048939D01*
X0191844Y0047340D02*
X0191044Y0047340D01*
X0191044Y0045742D02*
X0191844Y0045742D01*
X0191844Y0044143D02*
X0191044Y0044143D01*
X0191044Y0042545D02*
X0191844Y0042545D01*
X0191844Y0040946D02*
X0191044Y0040946D01*
X0195244Y0040946D02*
X0199519Y0040946D01*
X0199902Y0040312D02*
X0199891Y0040223D01*
X0200175Y0039861D01*
X0200413Y0039467D01*
X0200500Y0039446D01*
X0201883Y0037680D01*
X0201883Y0037590D01*
X0202208Y0037265D01*
X0202492Y0036903D01*
X0202581Y0036892D01*
X0204167Y0035307D01*
X0204178Y0035218D01*
X0204540Y0034934D01*
X0204865Y0034609D01*
X0204955Y0034609D01*
X0206720Y0033226D01*
X0206741Y0033139D01*
X0207135Y0032901D01*
X0207497Y0032617D01*
X0207586Y0032628D01*
X0209505Y0031468D01*
X0209537Y0031384D01*
X0209956Y0031195D01*
X0210350Y0030957D01*
X0210437Y0030979D01*
X0212482Y0030058D01*
X0212524Y0029979D01*
X0212963Y0029842D01*
X0213382Y0029653D01*
X0213466Y0029685D01*
X0215607Y0029018D01*
X0215658Y0028944D01*
X0216111Y0028861D01*
X0216550Y0028724D01*
X0216629Y0028766D01*
X0218835Y0028362D01*
X0218895Y0028295D01*
X0219354Y0028267D01*
X0219806Y0028184D01*
X0219880Y0028235D01*
X0222074Y0028102D01*
X0222106Y0028070D01*
X0222605Y0028070D01*
X0223103Y0028040D01*
X0223138Y0028070D01*
X0223183Y0028070D01*
X0223536Y0028423D01*
X0223644Y0028519D01*
X0223753Y0028423D01*
X0224106Y0028070D01*
X0224151Y0028070D01*
X0224185Y0028040D01*
X0224684Y0028070D01*
X0225183Y0028070D01*
X0225215Y0028102D01*
X0227409Y0028235D01*
X0227483Y0028184D01*
X0227935Y0028267D01*
X0228394Y0028295D01*
X0228454Y0028362D01*
X0230660Y0028766D01*
X0230739Y0028724D01*
X0231178Y0028861D01*
X0231631Y0028944D01*
X0231682Y0029018D01*
X0233823Y0029685D01*
X0233907Y0029653D01*
X0234326Y0029842D01*
X0234765Y0029979D01*
X0234807Y0030058D01*
X0236852Y0030979D01*
X0236939Y0030957D01*
X0237333Y0031195D01*
X0237752Y0031384D01*
X0237784Y0031468D01*
X0239703Y0032628D01*
X0239792Y0032617D01*
X0240154Y0032901D01*
X0240548Y0033139D01*
X0240569Y0033226D01*
X0242334Y0034609D01*
X0242424Y0034609D01*
X0242749Y0034934D01*
X0243111Y0035218D01*
X0243122Y0035307D01*
X0244708Y0036892D01*
X0244797Y0036903D01*
X0245081Y0037265D01*
X0245406Y0037590D01*
X0245406Y0037680D01*
X0246789Y0039446D01*
X0246876Y0039467D01*
X0247114Y0039861D01*
X0247397Y0040223D01*
X0247387Y0040312D01*
X0248547Y0042231D01*
X0248631Y0042263D01*
X0248820Y0042682D01*
X0249057Y0043076D01*
X0249036Y0043163D01*
X0249956Y0045208D01*
X0250036Y0045250D01*
X0250173Y0045689D01*
X0250361Y0046108D01*
X0250329Y0046192D01*
X0250997Y0048333D01*
X0251071Y0048384D01*
X0251153Y0048836D01*
X0251290Y0049275D01*
X0251249Y0049355D01*
X0251653Y0051561D01*
X0251720Y0051620D01*
X0251748Y0052079D01*
X0251831Y0052531D01*
X0251780Y0052605D01*
X0251912Y0054799D01*
X0251944Y0054832D01*
X0251944Y0055331D01*
X0251975Y0055829D01*
X0251944Y0055863D01*
X0251944Y0057877D01*
X0251975Y0057911D01*
X0251944Y0058409D01*
X0251944Y0058909D01*
X0251912Y0058941D01*
X0251787Y0061014D01*
X0251838Y0061088D01*
X0251755Y0061540D01*
X0251727Y0061999D01*
X0251660Y0062059D01*
X0251278Y0064146D01*
X0251319Y0064226D01*
X0251183Y0064665D01*
X0251100Y0065117D01*
X0251026Y0065168D01*
X0250394Y0067194D01*
X0250426Y0067278D01*
X0250238Y0067697D01*
X0250101Y0068136D01*
X0250021Y0068178D01*
X0249150Y0070113D01*
X0249172Y0070200D01*
X0248934Y0070593D01*
X0248745Y0071013D01*
X0248661Y0071045D01*
X0247564Y0072860D01*
X0247574Y0072950D01*
X0247291Y0073312D01*
X0247053Y0073705D01*
X0246966Y0073727D01*
X0245657Y0075397D01*
X0245657Y0075487D01*
X0245332Y0075812D01*
X0245048Y0076174D01*
X0244959Y0076185D01*
X0243459Y0077685D01*
X0243448Y0077774D01*
X0243086Y0078058D01*
X0242761Y0078383D01*
X0242671Y0078383D01*
X0241001Y0079691D01*
X0240979Y0079779D01*
X0240586Y0080016D01*
X0240224Y0080300D01*
X0240135Y0080289D01*
X0238319Y0081387D01*
X0238287Y0081471D01*
X0237868Y0081660D01*
X0237474Y0081898D01*
X0237387Y0081876D01*
X0235452Y0082747D01*
X0235410Y0082826D01*
X0234971Y0082963D01*
X0234552Y0083152D01*
X0234468Y0083120D01*
X0232442Y0083751D01*
X0232391Y0083825D01*
X0231939Y0083908D01*
X0231500Y0084045D01*
X0231420Y0084003D01*
X0229333Y0084386D01*
X0229274Y0084453D01*
X0228815Y0084481D01*
X0228363Y0084564D01*
X0228289Y0084513D01*
X0226215Y0084638D01*
X0226183Y0084670D01*
X0225684Y0084670D01*
X0225185Y0084700D01*
X0225151Y0084670D01*
X0223138Y0084670D01*
X0223103Y0084700D01*
X0222605Y0084670D01*
X0222106Y0084670D01*
X0222074Y0084638D01*
X0219880Y0084505D01*
X0219806Y0084556D01*
X0219354Y0084473D01*
X0218895Y0084446D01*
X0218835Y0084378D01*
X0216629Y0083974D01*
X0216550Y0084016D01*
X0216111Y0083879D01*
X0215658Y0083796D01*
X0215607Y0083722D01*
X0213466Y0083055D01*
X0213382Y0083087D01*
X0212963Y0082898D01*
X0212524Y0082761D01*
X0212482Y0082682D01*
X0210437Y0081762D01*
X0210350Y0081783D01*
X0209956Y0081545D01*
X0209537Y0081356D01*
X0209505Y0081272D01*
X0207586Y0080112D01*
X0207497Y0080123D01*
X0207135Y0079840D01*
X0206741Y0079602D01*
X0206720Y0079514D01*
X0204955Y0078131D01*
X0204865Y0078131D01*
X0204540Y0077806D01*
X0204178Y0077523D01*
X0204167Y0077433D01*
X0202581Y0075848D01*
X0202492Y0075837D01*
X0202208Y0075475D01*
X0201883Y0075150D01*
X0201883Y0075060D01*
X0200500Y0073295D01*
X0200413Y0073273D01*
X0200175Y0072880D01*
X0199891Y0072518D01*
X0199902Y0072428D01*
X0198742Y0070509D01*
X0198658Y0070477D01*
X0198469Y0070058D01*
X0198232Y0069665D01*
X0198253Y0069577D01*
X0197333Y0067532D01*
X0197253Y0067491D01*
X0197116Y0067052D01*
X0196928Y0066632D01*
X0196959Y0066548D01*
X0196292Y0064407D01*
X0196218Y0064356D01*
X0196135Y0063904D01*
X0195999Y0063465D01*
X0196040Y0063385D01*
X0195636Y0061180D01*
X0195569Y0061120D01*
X0195541Y0060661D01*
X0195458Y0060209D01*
X0195509Y0060135D01*
X0195377Y0057941D01*
X0195344Y0057909D01*
X0195344Y0057409D01*
X0195314Y0056911D01*
X0195344Y0056877D01*
X0195344Y0055863D01*
X0195314Y0055829D01*
X0195344Y0055331D01*
X0195344Y0054832D01*
X0195377Y0054799D01*
X0195509Y0052605D01*
X0195458Y0052531D01*
X0195541Y0052079D01*
X0195569Y0051620D01*
X0195636Y0051561D01*
X0196040Y0049355D01*
X0195999Y0049275D01*
X0196135Y0048836D01*
X0196218Y0048384D01*
X0196292Y0048333D01*
X0196959Y0046192D01*
X0196928Y0046108D01*
X0197116Y0045689D01*
X0197253Y0045250D01*
X0197333Y0045208D01*
X0198253Y0043163D01*
X0198232Y0043076D01*
X0198469Y0042682D01*
X0198658Y0042263D01*
X0198742Y0042231D01*
X0199902Y0040312D01*
X0200577Y0039348D02*
X0196033Y0039348D01*
X0195876Y0039728D02*
X0195244Y0040359D01*
X0195244Y0123266D01*
X0198359Y0126380D01*
X0198268Y0126178D01*
X0198188Y0126136D01*
X0198051Y0125697D01*
X0197863Y0125278D01*
X0197894Y0125194D01*
X0197263Y0123168D01*
X0197189Y0123117D01*
X0197106Y0122665D01*
X0196970Y0122226D01*
X0197011Y0122146D01*
X0196629Y0120059D01*
X0196562Y0119999D01*
X0196534Y0119540D01*
X0196451Y0119088D01*
X0196502Y0119014D01*
X0196377Y0116941D01*
X0196344Y0116909D01*
X0196344Y0116409D01*
X0196314Y0115911D01*
X0196344Y0115877D01*
X0196344Y0113863D01*
X0196314Y0113829D01*
X0196344Y0113331D01*
X0196344Y0112832D01*
X0196377Y0112799D01*
X0196509Y0110605D01*
X0196458Y0110531D01*
X0196541Y0110079D01*
X0196569Y0109620D01*
X0196636Y0109561D01*
X0197040Y0107355D01*
X0196999Y0107275D01*
X0197135Y0106836D01*
X0197218Y0106384D01*
X0197292Y0106333D01*
X0197959Y0104192D01*
X0197928Y0104108D01*
X0198116Y0103689D01*
X0198253Y0103250D01*
X0198333Y0103208D01*
X0199253Y0101163D01*
X0199232Y0101076D01*
X0199469Y0100682D01*
X0199658Y0100263D01*
X0199742Y0100231D01*
X0200902Y0098312D01*
X0200891Y0098223D01*
X0201175Y0097861D01*
X0201413Y0097467D01*
X0201500Y0097446D01*
X0202883Y0095680D01*
X0202883Y0095590D01*
X0203208Y0095265D01*
X0203492Y0094903D01*
X0203581Y0094892D01*
X0205167Y0093307D01*
X0205178Y0093218D01*
X0205540Y0092934D01*
X0205865Y0092609D01*
X0205955Y0092609D01*
X0207720Y0091226D01*
X0207741Y0091139D01*
X0208135Y0090901D01*
X0208497Y0090617D01*
X0208586Y0090628D01*
X0210505Y0089468D01*
X0210537Y0089384D01*
X0210956Y0089195D01*
X0211350Y0088957D01*
X0211437Y0088979D01*
X0213482Y0088058D01*
X0213524Y0087979D01*
X0213963Y0087842D01*
X0214382Y0087653D01*
X0214466Y0087685D01*
X0216607Y0087018D01*
X0216658Y0086944D01*
X0217111Y0086861D01*
X0217550Y0086724D01*
X0217629Y0086766D01*
X0219835Y0086362D01*
X0219895Y0086295D01*
X0220354Y0086267D01*
X0220806Y0086184D01*
X0220880Y0086235D01*
X0223074Y0086102D01*
X0223106Y0086070D01*
X0223605Y0086070D01*
X0224103Y0086040D01*
X0224138Y0086070D01*
X0225151Y0086070D01*
X0225185Y0086040D01*
X0225684Y0086070D01*
X0226183Y0086070D01*
X0226215Y0086102D01*
X0228409Y0086235D01*
X0228483Y0086184D01*
X0228935Y0086267D01*
X0229394Y0086295D01*
X0229454Y0086362D01*
X0231660Y0086766D01*
X0231739Y0086724D01*
X0232178Y0086861D01*
X0232631Y0086944D01*
X0232682Y0087018D01*
X0234823Y0087685D01*
X0234907Y0087653D01*
X0235326Y0087842D01*
X0235765Y0087979D01*
X0235807Y0088058D01*
X0237852Y0088979D01*
X0237939Y0088957D01*
X0238333Y0089195D01*
X0238752Y0089384D01*
X0238784Y0089468D01*
X0240703Y0090628D01*
X0240792Y0090617D01*
X0241154Y0090901D01*
X0241548Y0091139D01*
X0241569Y0091226D01*
X0243334Y0092609D01*
X0243424Y0092609D01*
X0243749Y0092934D01*
X0244111Y0093218D01*
X0244122Y0093307D01*
X0245708Y0094892D01*
X0245797Y0094903D01*
X0246081Y0095265D01*
X0246406Y0095590D01*
X0246406Y0095680D01*
X0247789Y0097446D01*
X0247876Y0097467D01*
X0248114Y0097861D01*
X0248397Y0098223D01*
X0248387Y0098312D01*
X0249547Y0100231D01*
X0249631Y0100263D01*
X0249820Y0100682D01*
X0250057Y0101076D01*
X0250036Y0101163D01*
X0250956Y0103208D01*
X0251036Y0103250D01*
X0251173Y0103689D01*
X0251361Y0104108D01*
X0251329Y0104192D01*
X0251997Y0106333D01*
X0252071Y0106384D01*
X0252153Y0106836D01*
X0252290Y0107275D01*
X0252249Y0107355D01*
X0252653Y0109561D01*
X0252720Y0109620D01*
X0252748Y0110079D01*
X0252831Y0110531D01*
X0252780Y0110605D01*
X0252912Y0112799D01*
X0252944Y0112832D01*
X0252944Y0113331D01*
X0252975Y0113829D01*
X0252944Y0113863D01*
X0252944Y0113909D01*
X0252592Y0114261D01*
X0252495Y0114370D01*
X0252592Y0114479D01*
X0252944Y0114832D01*
X0252944Y0114877D01*
X0252975Y0114911D01*
X0252944Y0115409D01*
X0252944Y0115909D01*
X0252912Y0115941D01*
X0252780Y0118135D01*
X0252831Y0118209D01*
X0252748Y0118661D01*
X0252720Y0119120D01*
X0252653Y0119180D01*
X0252249Y0121385D01*
X0252290Y0121465D01*
X0252153Y0121904D01*
X0252071Y0122356D01*
X0251997Y0122407D01*
X0251329Y0124548D01*
X0251361Y0124632D01*
X0251173Y0125052D01*
X0251036Y0125491D01*
X0250956Y0125532D01*
X0250036Y0127577D01*
X0250057Y0127665D01*
X0249820Y0128058D01*
X0249631Y0128477D01*
X0249547Y0128509D01*
X0248387Y0130428D01*
X0248397Y0130518D01*
X0248114Y0130880D01*
X0247876Y0131273D01*
X0247789Y0131295D01*
X0246406Y0133060D01*
X0246406Y0133150D01*
X0246081Y0133475D01*
X0245797Y0133837D01*
X0245708Y0133848D01*
X0244122Y0135433D01*
X0244111Y0135523D01*
X0243749Y0135806D01*
X0243424Y0136131D01*
X0243334Y0136131D01*
X0241569Y0137514D01*
X0241548Y0137602D01*
X0241154Y0137840D01*
X0240792Y0138123D01*
X0240703Y0138112D01*
X0238784Y0139272D01*
X0238752Y0139356D01*
X0238333Y0139545D01*
X0237939Y0139783D01*
X0237852Y0139762D01*
X0235807Y0140682D01*
X0235765Y0140761D01*
X0235326Y0140898D01*
X0234907Y0141087D01*
X0234823Y0141055D01*
X0232682Y0141722D01*
X0232631Y0141796D01*
X0232178Y0141879D01*
X0231739Y0142016D01*
X0231660Y0141974D01*
X0229454Y0142378D01*
X0229394Y0142446D01*
X0228935Y0142473D01*
X0228483Y0142556D01*
X0228409Y0142505D01*
X0226215Y0142638D01*
X0226183Y0142670D01*
X0225684Y0142670D01*
X0225185Y0142700D01*
X0225151Y0142670D01*
X0223137Y0142670D01*
X0223103Y0142700D01*
X0222605Y0142670D01*
X0222106Y0142670D01*
X0222074Y0142638D01*
X0220000Y0142513D01*
X0219926Y0142564D01*
X0219474Y0142481D01*
X0219015Y0142453D01*
X0218955Y0142386D01*
X0216869Y0142003D01*
X0216789Y0142045D01*
X0216350Y0141908D01*
X0215898Y0141825D01*
X0215847Y0141751D01*
X0213821Y0141120D01*
X0213737Y0141152D01*
X0213318Y0140963D01*
X0212879Y0140826D01*
X0212837Y0140747D01*
X0212634Y0140656D01*
X0218549Y0146570D01*
X0219244Y0146570D01*
X0219244Y0144790D01*
X0220065Y0143970D01*
X0224224Y0143970D01*
X0225044Y0144790D01*
X0225044Y0151950D01*
X0224224Y0152770D01*
X0220065Y0152770D01*
X0219244Y0151950D01*
X0219244Y0149970D01*
X0217140Y0149970D01*
X0200712Y0133541D01*
X0200676Y0133628D01*
X0200044Y0134259D01*
X0200044Y0134274D01*
X0187678Y0146640D01*
X0187678Y0149718D01*
X0186987Y0150409D01*
X0188190Y0151612D01*
X0188532Y0151270D01*
X0192757Y0151270D01*
X0194649Y0153162D01*
X0196944Y0150866D01*
X0197940Y0149870D01*
X0213149Y0149870D01*
X0216149Y0152870D01*
X0217144Y0153866D01*
X0217144Y0158874D01*
X0213753Y0162266D01*
X0215744Y0164258D01*
X0215744Y0168483D01*
X0212757Y0171470D01*
X0208532Y0171470D01*
X0206540Y0169478D01*
X0203044Y0172974D01*
X0202949Y0173070D01*
X0219244Y0173070D01*
X0219244Y0166790D01*
X0220065Y0165970D01*
X0224224Y0165970D01*
X0225044Y0166790D01*
X0225044Y0173070D01*
X0233844Y0173070D01*
X0233844Y0170370D01*
X0233844Y0167133D01*
X0233967Y0166675D01*
X0234204Y0166265D01*
X0234539Y0165930D01*
X0234950Y0165693D01*
X0235408Y0165570D01*
X0237144Y0165570D01*
X0237144Y0170370D01*
X0233844Y0170370D01*
X0237144Y0170370D01*
X0237144Y0170370D01*
X0237145Y0170370D01*
X0237145Y0165570D01*
X0238881Y0165570D01*
X0239339Y0165693D01*
X0239750Y0165930D01*
X0239771Y0165951D01*
X0240693Y0163725D01*
X0243000Y0161418D01*
X0246013Y0160170D01*
X0249276Y0160170D01*
X0252289Y0161418D01*
X0254339Y0163468D01*
X0254273Y0029338D01*
X0252289Y0031322D01*
X0249276Y0032570D01*
X0246013Y0032570D01*
X0243000Y0031322D01*
X0240693Y0029015D01*
X0239444Y0026001D01*
X0239444Y0022739D01*
X0240693Y0019725D01*
X0242748Y0017670D01*
X0201657Y0017670D01*
X0201968Y0017981D01*
X0202744Y0019856D01*
X0202744Y0021885D01*
X0201968Y0023759D01*
X0201044Y0024683D01*
X0201044Y0029046D01*
X0200527Y0030296D01*
X0199570Y0031252D01*
X0195019Y0035804D01*
X0195102Y0035839D01*
X0195876Y0036612D01*
X0196294Y0037623D01*
X0196294Y0038717D01*
X0195876Y0039728D01*
X0196294Y0037749D02*
X0201829Y0037749D01*
X0203323Y0036151D02*
X0195414Y0036151D01*
X0196271Y0034552D02*
X0205027Y0034552D01*
X0207047Y0032954D02*
X0197869Y0032954D01*
X0199468Y0031355D02*
X0209601Y0031355D01*
X0213152Y0029757D02*
X0200750Y0029757D01*
X0201044Y0028158D02*
X0221149Y0028158D01*
X0223271Y0028158D02*
X0224018Y0028158D01*
X0226140Y0028158D02*
X0240338Y0028158D01*
X0239676Y0026560D02*
X0201044Y0026560D01*
X0201044Y0024961D02*
X0239444Y0024961D01*
X0239444Y0023363D02*
X0202132Y0023363D01*
X0202744Y0021764D02*
X0239848Y0021764D01*
X0240510Y0020166D02*
X0202744Y0020166D01*
X0202211Y0018567D02*
X0241851Y0018567D01*
X0241435Y0029757D02*
X0234137Y0029757D01*
X0237688Y0031355D02*
X0243080Y0031355D01*
X0240242Y0032954D02*
X0254274Y0032954D01*
X0254275Y0034552D02*
X0242262Y0034552D01*
X0243966Y0036151D02*
X0254276Y0036151D01*
X0254277Y0037749D02*
X0245460Y0037749D01*
X0246712Y0039348D02*
X0254278Y0039348D01*
X0254278Y0040946D02*
X0247770Y0040946D01*
X0248758Y0042545D02*
X0254279Y0042545D01*
X0254280Y0044143D02*
X0249477Y0044143D01*
X0250197Y0045742D02*
X0254281Y0045742D01*
X0254281Y0047340D02*
X0250687Y0047340D01*
X0251185Y0048939D02*
X0254282Y0048939D01*
X0254283Y0050537D02*
X0251465Y0050537D01*
X0251758Y0052136D02*
X0254284Y0052136D01*
X0254285Y0053734D02*
X0251848Y0053734D01*
X0251945Y0055333D02*
X0254285Y0055333D01*
X0254286Y0056931D02*
X0251944Y0056931D01*
X0251944Y0058530D02*
X0254287Y0058530D01*
X0254288Y0060128D02*
X0251841Y0060128D01*
X0251744Y0061727D02*
X0254289Y0061727D01*
X0254289Y0063325D02*
X0251428Y0063325D01*
X0251135Y0064924D02*
X0254290Y0064924D01*
X0254291Y0066522D02*
X0250604Y0066522D01*
X0250106Y0068121D02*
X0254292Y0068121D01*
X0254293Y0069719D02*
X0249327Y0069719D01*
X0248496Y0071318D02*
X0254293Y0071318D01*
X0254294Y0072916D02*
X0247570Y0072916D01*
X0246348Y0074515D02*
X0254295Y0074515D01*
X0254296Y0076114D02*
X0245096Y0076114D01*
X0243456Y0077712D02*
X0254296Y0077712D01*
X0254297Y0079311D02*
X0241487Y0079311D01*
X0239109Y0080909D02*
X0254298Y0080909D01*
X0254299Y0082508D02*
X0235984Y0082508D01*
X0230859Y0084106D02*
X0254300Y0084106D01*
X0254300Y0085705D02*
X0195244Y0085705D01*
X0195244Y0087303D02*
X0215692Y0087303D01*
X0217349Y0084106D02*
X0195244Y0084106D01*
X0195244Y0082508D02*
X0212095Y0082508D01*
X0208904Y0080909D02*
X0195244Y0080909D01*
X0195244Y0079311D02*
X0206460Y0079311D01*
X0204419Y0077712D02*
X0195244Y0077712D01*
X0195244Y0076114D02*
X0202847Y0076114D01*
X0201456Y0074515D02*
X0195244Y0074515D01*
X0195244Y0072916D02*
X0200197Y0072916D01*
X0199231Y0071318D02*
X0195244Y0071318D01*
X0195244Y0069719D02*
X0198265Y0069719D01*
X0197598Y0068121D02*
X0195244Y0068121D01*
X0195244Y0066522D02*
X0196951Y0066522D01*
X0196453Y0064924D02*
X0195244Y0064924D01*
X0195244Y0063325D02*
X0196029Y0063325D01*
X0195737Y0061727D02*
X0195244Y0061727D01*
X0195244Y0060128D02*
X0195509Y0060128D01*
X0195412Y0058530D02*
X0195244Y0058530D01*
X0195244Y0056931D02*
X0195316Y0056931D01*
X0195344Y0055333D02*
X0195244Y0055333D01*
X0195244Y0053734D02*
X0195441Y0053734D01*
X0195531Y0052136D02*
X0195244Y0052136D01*
X0195244Y0050537D02*
X0195824Y0050537D01*
X0196103Y0048939D02*
X0195244Y0048939D01*
X0195244Y0047340D02*
X0196602Y0047340D01*
X0197092Y0045742D02*
X0195244Y0045742D01*
X0195244Y0044143D02*
X0197812Y0044143D01*
X0198531Y0042545D02*
X0195244Y0042545D01*
X0184244Y0042545D02*
X0164574Y0042545D01*
X0162975Y0044143D02*
X0184244Y0044143D01*
X0184244Y0045742D02*
X0162278Y0045742D01*
X0162394Y0046023D02*
X0162394Y0047117D01*
X0161976Y0048128D01*
X0161202Y0048901D01*
X0160191Y0049320D01*
X0159097Y0049320D01*
X0158087Y0048901D01*
X0157313Y0048128D01*
X0157277Y0048041D01*
X0148144Y0057174D01*
X0148144Y0057174D01*
X0148027Y0057292D01*
X0148663Y0057928D01*
X0148663Y0058970D01*
X0164940Y0058970D01*
X0166944Y0056966D01*
X0167940Y0055970D01*
X0181455Y0055970D01*
X0182087Y0055339D01*
X0183097Y0054920D01*
X0184191Y0054920D01*
X0184244Y0054942D01*
X0184244Y0039046D01*
X0184244Y0037694D01*
X0184762Y0036444D01*
X0194244Y0026962D01*
X0194244Y0024683D01*
X0193321Y0023759D01*
X0193026Y0023048D01*
X0193009Y0023158D01*
X0192742Y0023981D01*
X0192348Y0024753D01*
X0191840Y0025453D01*
X0191227Y0026065D01*
X0190527Y0026574D01*
X0189756Y0026967D01*
X0188932Y0027235D01*
X0188077Y0027370D01*
X0187844Y0027370D01*
X0187844Y0022070D01*
X0187444Y0022070D01*
X0187444Y0027370D01*
X0187212Y0027370D01*
X0186357Y0027235D01*
X0185533Y0026967D01*
X0184762Y0026574D01*
X0184061Y0026065D01*
X0183449Y0025453D01*
X0182940Y0024753D01*
X0182547Y0023981D01*
X0182280Y0023158D01*
X0182263Y0023048D01*
X0181968Y0023759D01*
X0180533Y0025194D01*
X0178659Y0025970D01*
X0176630Y0025970D01*
X0174756Y0025194D01*
X0173944Y0024383D01*
X0173944Y0032945D01*
X0174798Y0033799D01*
X0175544Y0035600D01*
X0175544Y0037549D01*
X0174798Y0039350D01*
X0173420Y0040729D01*
X0171619Y0041475D01*
X0169670Y0041475D01*
X0167869Y0040729D01*
X0167129Y0039989D01*
X0166949Y0040170D01*
X0162014Y0045105D01*
X0162394Y0046023D01*
X0162302Y0047340D02*
X0184244Y0047340D01*
X0184244Y0048939D02*
X0161112Y0048939D01*
X0158177Y0048939D02*
X0156380Y0048939D01*
X0154781Y0050537D02*
X0184244Y0050537D01*
X0184244Y0052136D02*
X0153183Y0052136D01*
X0151584Y0053734D02*
X0184244Y0053734D01*
X0182101Y0055333D02*
X0149986Y0055333D01*
X0148387Y0056931D02*
X0166979Y0056931D01*
X0165381Y0058530D02*
X0148663Y0058530D01*
X0148663Y0062370D02*
X0148663Y0063812D01*
X0147842Y0064632D01*
X0144694Y0064632D01*
X0144694Y0064817D01*
X0144276Y0065828D01*
X0143502Y0066601D01*
X0142504Y0067015D01*
X0141694Y0067824D01*
X0141694Y0068717D01*
X0141590Y0068970D01*
X0145321Y0068970D01*
X0146570Y0069488D01*
X0147527Y0070444D01*
X0154644Y0077562D01*
X0161762Y0070444D01*
X0162719Y0069488D01*
X0163968Y0068970D01*
X0173236Y0068970D01*
X0182170Y0060036D01*
X0182087Y0060001D01*
X0181455Y0059370D01*
X0175165Y0059370D01*
X0175177Y0059388D01*
X0175556Y0060131D01*
X0175814Y0060924D01*
X0175944Y0061748D01*
X0175944Y0062080D01*
X0170730Y0062080D01*
X0170730Y0062251D01*
X0170559Y0062251D01*
X0170559Y0067465D01*
X0170227Y0067465D01*
X0169403Y0067335D01*
X0168610Y0067077D01*
X0167867Y0066698D01*
X0167192Y0066208D01*
X0166602Y0065618D01*
X0166112Y0064943D01*
X0165733Y0064200D01*
X0165475Y0063406D01*
X0165344Y0062582D01*
X0165344Y0062370D01*
X0148663Y0062370D01*
X0148663Y0063325D02*
X0165462Y0063325D01*
X0166102Y0064924D02*
X0144650Y0064924D01*
X0143581Y0066522D02*
X0167625Y0066522D01*
X0170559Y0066522D02*
X0170730Y0066522D01*
X0170730Y0067465D02*
X0170730Y0062251D01*
X0175944Y0062251D01*
X0175944Y0062582D01*
X0175814Y0063406D01*
X0175556Y0064200D01*
X0175177Y0064943D01*
X0174687Y0065618D01*
X0174097Y0066208D01*
X0173422Y0066698D01*
X0172679Y0067077D01*
X0171886Y0067335D01*
X0171062Y0067465D01*
X0170730Y0067465D01*
X0173664Y0066522D02*
X0175684Y0066522D01*
X0175187Y0064924D02*
X0177282Y0064924D01*
X0175827Y0063325D02*
X0178881Y0063325D01*
X0180479Y0061727D02*
X0175941Y0061727D01*
X0175555Y0060128D02*
X0182078Y0060128D01*
X0174085Y0068121D02*
X0141694Y0068121D01*
X0146802Y0069719D02*
X0162487Y0069719D01*
X0160888Y0071318D02*
X0148401Y0071318D01*
X0149999Y0072916D02*
X0159290Y0072916D01*
X0157691Y0074515D02*
X0151598Y0074515D01*
X0153196Y0076114D02*
X0156093Y0076114D01*
X0160914Y0080909D02*
X0167445Y0080909D01*
X0167490Y0080799D02*
X0168869Y0079421D01*
X0170670Y0078675D01*
X0172619Y0078675D01*
X0174420Y0079421D01*
X0175798Y0080799D01*
X0176544Y0082600D01*
X0176544Y0084549D01*
X0175798Y0086350D01*
X0174420Y0087729D01*
X0172619Y0088475D01*
X0170670Y0088475D01*
X0168869Y0087729D01*
X0167490Y0086350D01*
X0166744Y0084549D01*
X0166744Y0082600D01*
X0167490Y0080799D01*
X0166783Y0082508D02*
X0159315Y0082508D01*
X0158044Y0084106D02*
X0166744Y0084106D01*
X0167223Y0085705D02*
X0158044Y0085705D01*
X0158044Y0087303D02*
X0168443Y0087303D01*
X0174846Y0087303D02*
X0184044Y0087303D01*
X0184044Y0085705D02*
X0176066Y0085705D01*
X0176544Y0084106D02*
X0184044Y0084106D01*
X0184044Y0082508D02*
X0176506Y0082508D01*
X0175844Y0080909D02*
X0184044Y0080909D01*
X0184044Y0079311D02*
X0174154Y0079311D01*
X0169135Y0079311D02*
X0162512Y0079311D01*
X0164111Y0077712D02*
X0184044Y0077712D01*
X0184044Y0076114D02*
X0165709Y0076114D01*
X0177308Y0074515D02*
X0184044Y0074515D01*
X0184044Y0072916D02*
X0178906Y0072916D01*
X0180505Y0071318D02*
X0184044Y0071318D01*
X0184044Y0069719D02*
X0182103Y0069719D01*
X0170730Y0064924D02*
X0170559Y0064924D01*
X0170559Y0063325D02*
X0170730Y0063325D01*
X0172895Y0040946D02*
X0184244Y0040946D01*
X0184244Y0039348D02*
X0174800Y0039348D01*
X0175462Y0037749D02*
X0184244Y0037749D01*
X0185056Y0036151D02*
X0175544Y0036151D01*
X0175110Y0034552D02*
X0186654Y0034552D01*
X0188253Y0032954D02*
X0173953Y0032954D01*
X0173944Y0031355D02*
X0189851Y0031355D01*
X0191450Y0029757D02*
X0173944Y0029757D01*
X0173944Y0028158D02*
X0193048Y0028158D01*
X0194244Y0026560D02*
X0190547Y0026560D01*
X0192197Y0024961D02*
X0194244Y0024961D01*
X0193157Y0023363D02*
X0192943Y0023363D01*
X0187844Y0023363D02*
X0187444Y0023363D01*
X0187444Y0024961D02*
X0187844Y0024961D01*
X0187844Y0026560D02*
X0187444Y0026560D01*
X0184742Y0026560D02*
X0173944Y0026560D01*
X0173944Y0024961D02*
X0174523Y0024961D01*
X0180766Y0024961D02*
X0183092Y0024961D01*
X0182346Y0023363D02*
X0182132Y0023363D01*
X0168394Y0040946D02*
X0166172Y0040946D01*
X0146440Y0036370D02*
X0135627Y0036370D01*
X0135712Y0036688D01*
X0135712Y0037732D01*
X0131550Y0037732D01*
X0131550Y0037732D01*
X0127388Y0037732D01*
X0127388Y0036688D01*
X0127473Y0036370D01*
X0127249Y0036370D01*
X0125199Y0038420D01*
X0125691Y0038420D01*
X0126702Y0038839D01*
X0127476Y0039612D01*
X0127512Y0039699D01*
X0127681Y0039529D01*
X0127510Y0039234D01*
X0127388Y0038776D01*
X0127388Y0037732D01*
X0131550Y0037732D01*
X0131550Y0037732D01*
X0135712Y0037732D01*
X0135712Y0038776D01*
X0135590Y0039234D01*
X0135353Y0039645D01*
X0135312Y0039685D01*
X0135312Y0042655D01*
X0135397Y0042620D01*
X0136491Y0042620D01*
X0137502Y0043039D01*
X0138276Y0043812D01*
X0138487Y0044323D01*
X0146440Y0036370D01*
X0145061Y0037749D02*
X0135712Y0037749D01*
X0135524Y0039348D02*
X0143463Y0039348D01*
X0141864Y0040946D02*
X0135312Y0040946D01*
X0135312Y0042545D02*
X0140266Y0042545D01*
X0138667Y0044143D02*
X0138413Y0044143D01*
X0127576Y0039348D02*
X0127211Y0039348D01*
X0127388Y0037749D02*
X0125869Y0037749D01*
X0120640Y0036370D02*
X0093816Y0036370D01*
X0093901Y0036688D01*
X0093901Y0037732D01*
X0089739Y0037732D01*
X0089739Y0037732D01*
X0085577Y0037732D01*
X0089739Y0037732D01*
X0089739Y0037732D01*
X0093901Y0037732D01*
X0093901Y0038570D01*
X0118440Y0038570D01*
X0120640Y0036370D01*
X0119261Y0037749D02*
X0093901Y0037749D01*
X0085765Y0039348D02*
X0069926Y0039348D01*
X0068328Y0037749D02*
X0085577Y0037749D01*
X0085977Y0040946D02*
X0071525Y0040946D01*
X0073123Y0042545D02*
X0085977Y0042545D01*
X0074800Y0044143D02*
X0074722Y0044143D01*
X0073644Y0036151D02*
X0073348Y0036151D01*
X0068681Y0036151D02*
X0066729Y0036151D01*
X0062944Y0050537D02*
X0062944Y0050537D01*
X0036611Y0028158D02*
X0036412Y0028158D01*
X0084544Y0104887D02*
X0095624Y0104887D01*
X0087718Y0108084D02*
X0084544Y0108084D01*
X0084544Y0109682D02*
X0086238Y0109682D01*
X0085575Y0111281D02*
X0084544Y0111281D01*
X0084544Y0112879D02*
X0085544Y0112879D01*
X0085997Y0114478D02*
X0084544Y0114478D01*
X0084544Y0116076D02*
X0087138Y0116076D01*
X0079944Y0120872D02*
X0070347Y0120872D01*
X0101400Y0168827D02*
X0101889Y0168827D01*
X0103488Y0170426D02*
X0099801Y0170426D01*
X0093595Y0172024D02*
X0135394Y0172024D01*
X0133796Y0170426D02*
X0129801Y0170426D01*
X0131400Y0168827D02*
X0132197Y0168827D01*
X0123488Y0170426D02*
X0119801Y0170426D01*
X0121400Y0168827D02*
X0121889Y0168827D01*
X0113488Y0170426D02*
X0109801Y0170426D01*
X0111400Y0168827D02*
X0111889Y0168827D01*
X0151128Y0144849D02*
X0152261Y0144849D01*
X0153859Y0143251D02*
X0150544Y0143251D01*
X0150544Y0141652D02*
X0155458Y0141652D01*
X0145231Y0130463D02*
X0143941Y0130463D01*
X0142343Y0128864D02*
X0146830Y0128864D01*
X0187956Y0114478D02*
X0191844Y0114478D01*
X0191844Y0116076D02*
X0189555Y0116076D01*
X0191153Y0117675D02*
X0191844Y0117675D01*
X0195244Y0117675D02*
X0196421Y0117675D01*
X0196485Y0119273D02*
X0195244Y0119273D01*
X0195244Y0120872D02*
X0196778Y0120872D01*
X0197046Y0122470D02*
X0195244Y0122470D01*
X0196047Y0124069D02*
X0197544Y0124069D01*
X0197646Y0125667D02*
X0198038Y0125667D01*
X0200644Y0133660D02*
X0200830Y0133660D01*
X0202429Y0135258D02*
X0199060Y0135258D01*
X0197462Y0136857D02*
X0204027Y0136857D01*
X0205626Y0138455D02*
X0195863Y0138455D01*
X0194265Y0140054D02*
X0207224Y0140054D01*
X0208823Y0141652D02*
X0192666Y0141652D01*
X0191068Y0143251D02*
X0210421Y0143251D01*
X0212020Y0144849D02*
X0189469Y0144849D01*
X0187871Y0146448D02*
X0213618Y0146448D01*
X0215217Y0148047D02*
X0187678Y0148047D01*
X0187678Y0149645D02*
X0216815Y0149645D01*
X0214522Y0151244D02*
X0219244Y0151244D01*
X0216121Y0152842D02*
X0234594Y0152842D01*
X0234539Y0152810D02*
X0234204Y0152475D01*
X0233967Y0152065D01*
X0233844Y0151607D01*
X0233844Y0148370D01*
X0233844Y0145133D01*
X0233967Y0144675D01*
X0234204Y0144265D01*
X0234539Y0143930D01*
X0234950Y0143693D01*
X0235408Y0143570D01*
X0237144Y0143570D01*
X0237144Y0148370D01*
X0233844Y0148370D01*
X0237144Y0148370D01*
X0237144Y0148370D01*
X0237145Y0148370D01*
X0237145Y0148370D01*
X0240444Y0148370D01*
X0240444Y0145133D01*
X0240322Y0144675D01*
X0240085Y0144265D01*
X0239750Y0143930D01*
X0239339Y0143693D01*
X0238881Y0143570D01*
X0237145Y0143570D01*
X0237145Y0148370D01*
X0240444Y0148370D01*
X0240444Y0151607D01*
X0240322Y0152065D01*
X0240085Y0152475D01*
X0239750Y0152810D01*
X0239339Y0153047D01*
X0238881Y0153170D01*
X0237145Y0153170D01*
X0237145Y0148370D01*
X0237144Y0148370D01*
X0237144Y0153170D01*
X0235408Y0153170D01*
X0234950Y0153047D01*
X0234539Y0152810D01*
X0233844Y0151244D02*
X0225044Y0151244D01*
X0225044Y0149645D02*
X0233844Y0149645D01*
X0233844Y0148047D02*
X0225044Y0148047D01*
X0225044Y0146448D02*
X0233844Y0146448D01*
X0233920Y0144849D02*
X0225044Y0144849D01*
X0219244Y0144849D02*
X0216828Y0144849D01*
X0215230Y0143251D02*
X0254329Y0143251D01*
X0254329Y0144849D02*
X0240368Y0144849D01*
X0240444Y0146448D02*
X0254330Y0146448D01*
X0254331Y0148047D02*
X0240444Y0148047D01*
X0240444Y0149645D02*
X0254332Y0149645D01*
X0254333Y0151244D02*
X0240444Y0151244D01*
X0239695Y0152842D02*
X0254333Y0152842D01*
X0254334Y0154441D02*
X0217144Y0154441D01*
X0217144Y0156039D02*
X0254335Y0156039D01*
X0254336Y0157638D02*
X0217144Y0157638D01*
X0216783Y0159236D02*
X0254337Y0159236D01*
X0254337Y0160835D02*
X0250880Y0160835D01*
X0253304Y0162433D02*
X0254338Y0162433D01*
X0244409Y0160835D02*
X0215184Y0160835D01*
X0213920Y0162433D02*
X0241985Y0162433D01*
X0240566Y0164032D02*
X0215519Y0164032D01*
X0215744Y0165630D02*
X0235183Y0165630D01*
X0237144Y0165630D02*
X0237145Y0165630D01*
X0237144Y0167229D02*
X0237145Y0167229D01*
X0237144Y0168827D02*
X0237145Y0168827D01*
X0233844Y0168827D02*
X0225044Y0168827D01*
X0225044Y0167229D02*
X0233844Y0167229D01*
X0233844Y0170426D02*
X0225044Y0170426D01*
X0225044Y0172024D02*
X0233844Y0172024D01*
X0239106Y0165630D02*
X0239904Y0165630D01*
X0237144Y0152842D02*
X0237145Y0152842D01*
X0237144Y0151244D02*
X0237145Y0151244D01*
X0237144Y0149645D02*
X0237145Y0149645D01*
X0237144Y0148047D02*
X0237145Y0148047D01*
X0237144Y0146448D02*
X0237145Y0146448D01*
X0237144Y0144849D02*
X0237145Y0144849D01*
X0232906Y0141652D02*
X0254328Y0141652D01*
X0254327Y0140054D02*
X0237202Y0140054D01*
X0240135Y0138455D02*
X0254326Y0138455D01*
X0254326Y0136857D02*
X0242408Y0136857D01*
X0244297Y0135258D02*
X0254325Y0135258D01*
X0254324Y0133660D02*
X0245936Y0133660D01*
X0247188Y0132061D02*
X0254323Y0132061D01*
X0254322Y0130463D02*
X0248391Y0130463D01*
X0249332Y0128864D02*
X0254322Y0128864D01*
X0254321Y0127266D02*
X0250176Y0127266D01*
X0250896Y0125667D02*
X0254320Y0125667D01*
X0254319Y0124069D02*
X0251479Y0124069D01*
X0251977Y0122470D02*
X0254318Y0122470D01*
X0254318Y0120872D02*
X0252343Y0120872D01*
X0252636Y0119273D02*
X0254317Y0119273D01*
X0254316Y0117675D02*
X0252807Y0117675D01*
X0252904Y0116076D02*
X0254315Y0116076D01*
X0254315Y0114478D02*
X0252591Y0114478D01*
X0252944Y0112879D02*
X0254314Y0112879D01*
X0254313Y0111281D02*
X0252820Y0111281D01*
X0252724Y0109682D02*
X0254312Y0109682D01*
X0254311Y0108084D02*
X0252382Y0108084D01*
X0252089Y0106485D02*
X0254311Y0106485D01*
X0254310Y0104887D02*
X0251546Y0104887D01*
X0251048Y0103288D02*
X0254309Y0103288D01*
X0254308Y0101690D02*
X0250273Y0101690D01*
X0249462Y0100091D02*
X0254307Y0100091D01*
X0254307Y0098493D02*
X0248496Y0098493D01*
X0247357Y0096894D02*
X0254306Y0096894D01*
X0254305Y0095296D02*
X0246111Y0095296D01*
X0244512Y0093697D02*
X0254304Y0093697D01*
X0254304Y0092099D02*
X0242683Y0092099D01*
X0240491Y0090500D02*
X0254303Y0090500D01*
X0254302Y0088902D02*
X0237681Y0088902D01*
X0233597Y0087303D02*
X0254301Y0087303D01*
X0211608Y0088902D02*
X0195244Y0088902D01*
X0195244Y0090500D02*
X0208798Y0090500D01*
X0206606Y0092099D02*
X0195244Y0092099D01*
X0195244Y0093697D02*
X0204776Y0093697D01*
X0203178Y0095296D02*
X0195244Y0095296D01*
X0195244Y0096894D02*
X0201932Y0096894D01*
X0200793Y0098493D02*
X0195244Y0098493D01*
X0195244Y0100091D02*
X0199827Y0100091D01*
X0199016Y0101690D02*
X0195244Y0101690D01*
X0195244Y0103288D02*
X0198241Y0103288D01*
X0197743Y0104887D02*
X0195244Y0104887D01*
X0195244Y0106485D02*
X0197200Y0106485D01*
X0196907Y0108084D02*
X0195244Y0108084D01*
X0195244Y0109682D02*
X0196565Y0109682D01*
X0196468Y0111281D02*
X0195244Y0111281D01*
X0195244Y0112879D02*
X0196344Y0112879D01*
X0196344Y0114478D02*
X0195244Y0114478D01*
X0195244Y0116076D02*
X0196324Y0116076D01*
X0184044Y0096894D02*
X0158044Y0096894D01*
X0158044Y0095296D02*
X0184044Y0095296D01*
X0184044Y0093697D02*
X0158044Y0093697D01*
X0158044Y0092099D02*
X0184044Y0092099D01*
X0184044Y0090500D02*
X0158044Y0090500D01*
X0158044Y0088902D02*
X0184044Y0088902D01*
X0213631Y0141652D02*
X0215529Y0141652D01*
X0218427Y0146448D02*
X0219244Y0146448D01*
X0196567Y0151244D02*
X0187822Y0151244D01*
X0194329Y0152842D02*
X0194968Y0152842D01*
X0215744Y0167229D02*
X0219244Y0167229D01*
X0219244Y0168827D02*
X0215400Y0168827D01*
X0213801Y0170426D02*
X0219244Y0170426D01*
X0219244Y0172024D02*
X0203995Y0172024D01*
X0205593Y0170426D02*
X0207488Y0170426D01*
X0252209Y0031355D02*
X0254274Y0031355D01*
X0254273Y0029757D02*
X0253854Y0029757D01*
D38*
X0077644Y0103350D02*
X0071581Y0103350D01*
X0072664Y0108370D02*
X0077644Y0108370D01*
X0069613Y0113390D02*
X0069344Y0113390D01*
X0069344Y0117370D01*
X0065644Y0117370D01*
X0065644Y0113390D01*
X0065676Y0113390D01*
X0045739Y0121803D02*
X0043770Y0121803D01*
X0043770Y0110976D02*
X0043244Y0110450D01*
D39*
X0043244Y0102070D01*
X0058544Y0103370D02*
X0063144Y0103370D01*
X0060669Y0112294D02*
X0057137Y0115827D01*
X0056644Y0115827D01*
X0027644Y0089170D02*
X0027644Y0082827D01*
X0025188Y0080370D01*
X0032101Y0080370D01*
X0034188Y0053370D02*
X0035644Y0051913D01*
X0029302Y0051913D01*
X0029204Y0052012D01*
X0026546Y0044827D02*
X0017644Y0044827D01*
X0011644Y0045913D02*
X0011644Y0036370D01*
X0035644Y0036370D01*
X0049644Y0050370D01*
X0050345Y0050370D01*
X0026644Y0044728D02*
X0026546Y0044827D01*
X0017644Y0051913D02*
X0011644Y0045913D01*
X0101550Y0061374D02*
X0101644Y0072370D01*
X0119644Y0072370D02*
X0119739Y0061374D01*
X0119644Y0053370D01*
X0131550Y0053323D01*
X0144038Y0086295D02*
X0144038Y0088854D01*
X0144038Y0091413D01*
X0144038Y0101650D02*
X0154644Y0101370D01*
X0154644Y0104370D02*
X0144038Y0104209D01*
X0144038Y0111886D02*
X0144038Y0114445D01*
X0144644Y0114370D01*
D40*
X0154644Y0114370D01*
X0154644Y0104370D01*
X0154644Y0101370D01*
X0154644Y0091370D01*
X0154644Y0082370D01*
X0164644Y0072370D01*
X0174644Y0072370D01*
X0187644Y0059370D01*
X0187644Y0038370D01*
X0197644Y0028370D01*
X0197644Y0020870D01*
X0144644Y0072370D02*
X0119644Y0072370D01*
X0101644Y0072370D01*
X0086644Y0072370D01*
X0080644Y0066370D01*
X0049644Y0066370D01*
X0050101Y0065913D01*
X0050101Y0060370D01*
X0050345Y0050370D01*
X0041644Y0059370D02*
X0041444Y0059470D01*
X0033644Y0059470D01*
X0033644Y0054070D01*
X0034188Y0053370D01*
X0033644Y0059470D02*
X0033644Y0078370D01*
X0032444Y0079570D01*
X0032101Y0080370D01*
X0039044Y0087970D02*
X0039944Y0087070D01*
X0045644Y0087070D01*
X0045644Y0086913D01*
X0047444Y0086170D01*
X0050144Y0083470D01*
X0039044Y0087970D02*
X0036744Y0089170D01*
X0036944Y0091270D01*
X0036944Y0095770D01*
X0043244Y0102070D01*
X0058244Y0105070D02*
X0058244Y0109870D01*
X0058244Y0105070D02*
X0058544Y0104770D01*
X0058544Y0103370D01*
X0058544Y0098170D01*
X0058644Y0097913D01*
X0037088Y0088827D02*
X0036744Y0089170D01*
X0027644Y0089170D02*
X0027644Y0101370D01*
X0026644Y0102370D01*
X0013644Y0102370D01*
X0013644Y0121370D01*
X0014078Y0121803D01*
X0043770Y0121803D01*
X0044144Y0123670D01*
X0045944Y0125470D01*
X0048044Y0125470D01*
X0042344Y0128470D02*
X0042344Y0130870D01*
X0042644Y0132827D01*
X0042644Y0132970D01*
X0051644Y0132970D01*
X0051644Y0132827D01*
X0051644Y0116170D02*
X0054644Y0116170D01*
X0056644Y0115827D01*
X0144644Y0072370D02*
X0154644Y0082370D01*
D41*
X0063707Y0103350D02*
X0063144Y0103370D01*
X0062625Y0110339D02*
X0060669Y0112294D01*
D42*
X0058244Y0109870D01*
X0042644Y0132827D02*
X0040038Y0135433D01*
X0030644Y0135433D01*
D43*
X0144038Y0091413D02*
X0154644Y0091370D01*
M02*
