G75*
%MOIN*%
%OFA0B0*%
%FSLAX25Y25*%
%IPPOS*%
%LPD*%
%AMOC8*
5,1,8,0,0,1.08239X$1,22.5*
%
%ADD10C,0.12300*%
%ADD11R,0.06000X0.01870*%
%ADD12OC8,0.05224*%
%ADD13R,0.05224X0.02114*%
%ADD14R,0.02114X0.05028*%
%ADD15C,0.09949*%
%ADD16C,0.04700*%
%ADD17OC8,0.07900*%
%ADD18R,0.05224X0.03650*%
%ADD19R,0.03768X0.02980*%
%ADD20C,0.07500*%
%ADD21C,0.06799*%
%ADD22R,0.03650X0.01681*%
%ADD23R,0.01681X0.03650*%
%ADD24R,0.01484X0.02469*%
%ADD25R,0.03650X0.05224*%
%ADD26R,0.05300X0.09300*%
%ADD27R,0.14673X0.09161*%
%ADD28R,0.03256X0.03256*%
%ADD29R,0.03500X0.06500*%
%ADD30C,0.07900*%
%ADD31OC8,0.09000*%
D10*
X0015644Y0024370D03*
X0017644Y0167370D03*
X0247644Y0168370D03*
X0247644Y0024370D03*
D11*
X0144038Y0086295D03*
X0144038Y0088854D03*
X0144038Y0091413D03*
X0144038Y0093972D03*
X0144038Y0096531D03*
X0144038Y0099091D03*
X0144038Y0101650D03*
X0144038Y0104209D03*
X0144038Y0106768D03*
X0144038Y0109327D03*
X0144038Y0111886D03*
X0144038Y0114445D03*
X0115251Y0114445D03*
X0115251Y0111886D03*
X0115251Y0109327D03*
X0115251Y0106768D03*
X0115251Y0104209D03*
X0115251Y0101650D03*
X0115251Y0099091D03*
X0115251Y0096531D03*
X0115251Y0093972D03*
X0115251Y0091413D03*
X0115251Y0088854D03*
X0115251Y0086295D03*
D12*
X0118644Y0122370D03*
X0108644Y0122370D03*
X0108644Y0132370D03*
X0118644Y0132370D03*
X0128644Y0132370D03*
X0138644Y0132370D03*
X0148644Y0132370D03*
X0158644Y0132370D03*
X0168644Y0132370D03*
X0178644Y0132370D03*
X0188644Y0132370D03*
X0188644Y0122370D03*
X0178644Y0122370D03*
X0168644Y0122370D03*
X0158644Y0122370D03*
X0148644Y0122370D03*
X0138644Y0122370D03*
X0128644Y0122370D03*
D13*
X0131550Y0058520D03*
X0131550Y0055921D03*
X0131550Y0053323D03*
X0131550Y0050724D03*
X0131550Y0048126D03*
X0131550Y0045528D03*
X0131550Y0042929D03*
X0131550Y0040331D03*
X0131550Y0037732D03*
X0089739Y0037732D03*
X0089739Y0040331D03*
X0089739Y0042929D03*
X0089739Y0045528D03*
X0089739Y0048126D03*
X0089739Y0050724D03*
X0089739Y0053323D03*
X0089739Y0055921D03*
X0089739Y0058520D03*
D14*
X0093755Y0061374D03*
X0096353Y0061374D03*
X0098952Y0061374D03*
X0101550Y0061374D03*
X0104148Y0061374D03*
X0106747Y0061374D03*
X0109345Y0061374D03*
X0111944Y0061374D03*
X0114542Y0061374D03*
X0117141Y0061374D03*
X0119739Y0061374D03*
X0122337Y0061374D03*
X0124936Y0061374D03*
X0127534Y0061374D03*
D15*
X0071015Y0030488D03*
X0042274Y0030488D03*
D16*
X0053613Y0045646D03*
X0056644Y0050370D03*
X0050345Y0050370D03*
X0059794Y0045646D03*
X0062944Y0050370D03*
D17*
X0066644Y0156370D03*
X0056644Y0156370D03*
X0056644Y0166370D03*
X0066644Y0166370D03*
X0076644Y0166370D03*
X0086644Y0166370D03*
X0096644Y0166370D03*
X0106644Y0166370D03*
X0116644Y0166370D03*
X0126644Y0166370D03*
X0126644Y0156370D03*
X0116644Y0156370D03*
X0106644Y0156370D03*
X0096644Y0156370D03*
X0086644Y0156370D03*
X0076644Y0156370D03*
X0140644Y0156370D03*
X0150644Y0156370D03*
X0160644Y0156370D03*
X0170644Y0156370D03*
X0180644Y0156370D03*
X0190644Y0156370D03*
X0200644Y0156370D03*
X0210644Y0156370D03*
X0210644Y0166370D03*
X0200644Y0166370D03*
X0190644Y0166370D03*
X0180644Y0166370D03*
X0170644Y0166370D03*
X0160644Y0166370D03*
X0150644Y0166370D03*
X0140644Y0166370D03*
D18*
X0093644Y0145913D03*
X0093644Y0138827D03*
X0082644Y0138827D03*
X0072644Y0138827D03*
X0072644Y0145913D03*
X0082644Y0145913D03*
X0063644Y0145913D03*
X0063644Y0138827D03*
X0051644Y0139913D03*
X0042644Y0139913D03*
X0042644Y0132827D03*
X0051644Y0132827D03*
X0056644Y0122913D03*
X0056644Y0115827D03*
X0058644Y0097913D03*
X0065644Y0097913D03*
X0065644Y0090827D03*
X0058644Y0090827D03*
X0045644Y0086913D03*
X0045644Y0079827D03*
X0017644Y0072913D03*
X0017644Y0065827D03*
X0017644Y0051913D03*
X0017644Y0044827D03*
X0035644Y0044827D03*
X0035644Y0051913D03*
X0143644Y0053913D03*
X0143644Y0046827D03*
D19*
X0142644Y0138843D03*
X0134644Y0138843D03*
X0127644Y0138843D03*
X0120644Y0138843D03*
X0120644Y0147898D03*
X0127644Y0147898D03*
X0134644Y0147898D03*
X0142644Y0147898D03*
X0151644Y0147898D03*
X0159644Y0147898D03*
X0168644Y0147898D03*
X0176644Y0147898D03*
X0184644Y0147898D03*
X0184644Y0138843D03*
X0176644Y0138843D03*
X0168644Y0138843D03*
X0159644Y0138843D03*
X0151644Y0138843D03*
D20*
X0171644Y0109165D03*
X0171644Y0083575D03*
X0170644Y0062165D03*
X0170644Y0036575D03*
D21*
X0030644Y0127559D03*
X0030644Y0135433D03*
X0030644Y0143307D03*
X0030644Y0151181D03*
D22*
X0062625Y0110339D03*
X0062625Y0108370D03*
X0062625Y0106402D03*
X0072664Y0106402D03*
X0072664Y0108370D03*
X0072664Y0110339D03*
D23*
X0071581Y0113390D03*
X0069613Y0113390D03*
X0067644Y0113390D03*
X0065676Y0113390D03*
X0063707Y0113390D03*
X0063707Y0103350D03*
X0065676Y0103350D03*
X0067644Y0103350D03*
X0069613Y0103350D03*
X0071581Y0103350D03*
D24*
X0049676Y0110976D03*
X0047707Y0110976D03*
X0045739Y0110976D03*
X0043770Y0110976D03*
X0043770Y0121803D03*
X0045739Y0121803D03*
X0047707Y0121803D03*
X0049676Y0121803D03*
D25*
X0039188Y0080370D03*
X0032101Y0080370D03*
X0025188Y0080370D03*
X0018101Y0080370D03*
X0050101Y0060370D03*
X0057188Y0060370D03*
X0138601Y0060870D03*
X0145688Y0060870D03*
D26*
X0036744Y0089170D03*
X0027644Y0089170D03*
X0018544Y0089170D03*
D27*
X0027644Y0113571D03*
D28*
X0029204Y0052012D03*
X0024085Y0052012D03*
X0026644Y0044728D03*
D29*
X0222144Y0148370D03*
X0237144Y0148370D03*
X0237144Y0170370D03*
X0222144Y0170370D03*
D30*
X0090644Y0122370D03*
X0090644Y0112370D03*
X0090644Y0095370D03*
X0090644Y0085370D03*
X0157644Y0020870D03*
X0167644Y0021870D03*
X0177644Y0020870D03*
X0187644Y0021870D03*
X0197644Y0020870D03*
D31*
X0055644Y0075370D03*
X0041644Y0059370D03*
X0031644Y0024370D03*
M02*
