%
M48
M72
T01C0.0130
T02C0.0140
T03C0.0150
T04C0.0236
T05C0.0276
T06C0.0315
T07C0.0354
T08C0.0400
T09C0.0520
T10C0.1180
%
T01
X3964Y4780
X1624Y5620
X6304Y5860
X7174Y6250
X8404Y5380
X8404Y5050
X8524Y4570
X9424Y5260
X9634Y5710
X10264Y5710
X10594Y5710
X10924Y5710
X11254Y5710
X11584Y5380
X11404Y4870
X11884Y4900
X12214Y4900
X12544Y5020
X12694Y4690
X12274Y5650
X13534Y6430
X14284Y6430
X14734Y6550
X15034Y6370
X15004Y7480
X13414Y7600
X12694Y7480
X11074Y9040
X10594Y9010
X10594Y8680
X10594Y9340
X10654Y10510
X11884Y11380
X12364Y11870
X10954Y11620
X10114Y11800
X9644Y11920
X9584Y12240
X9304Y12050
X8974Y11800
X8864Y12410
X9084Y12650
X8614Y13360
X8224Y12880
X7984Y13120
X7054Y13130
X6394Y13200
X5704Y13220
X5584Y13570
X4624Y12910
X5134Y11710
X4744Y10660
X5704Y10300
X6124Y9310
X6844Y11840
X7114Y12250
X9944Y13940
X10294Y13830
X10044Y13570
X10414Y13170
X11214Y13970
X11254Y14740
X12214Y15190
X12334Y14470
X12574Y14230
X14644Y14950
X15574Y14710
X15904Y14380
X16324Y14770
X18814Y15070
X19174Y15070
X14224Y12490
X9814Y14470
X15244Y9130
X10594Y5380
X10534Y4220
X10854Y3890
X11294Y4230
X11704Y3860
X10124Y3890
X9864Y4210
X9184Y6550
X8854Y6550
X14224Y4660
X15034Y4180
X14494Y4000
X15034Y3190
X15984Y3160
X16344Y2840
X15964Y2530
X16954Y2620
X16454Y3690
X16254Y3980
X15974Y4160
X16084Y4660
X16474Y4960
X16034Y5150
X16844Y4850
X17214Y4860
T02
X20464Y5640
X22464Y9540
T03
X19404Y8020
X18374Y9200
X18614Y10200
X17044Y10220
X16394Y9840
X16054Y9450
X16484Y8680
X16004Y8240
X14884Y8390
X14824Y8730
X14884Y9720
X14904Y10440
X14864Y10960
X15354Y11850
X16004Y11260
X16064Y10590
X14104Y11780
X13424Y11700
X13474Y10770
X12104Y10120
X11664Y10210
X11584Y10640
X11434Y11050
X11404Y11800
X10664Y9860
X13324Y9190
X7964Y8740
X7144Y8400
X6794Y8820
X7614Y8120
X5724Y6920
X4784Y6480
X3844Y6450
X2294Y6510
X2284Y6130
X1334Y6120
X1414Y6560
X1484Y10180
X2004Y10590
X2944Y10190
X3434Y10470
X3704Y10060
X5824Y11270
X4864Y12150
X4414Y12200
X4274Y12650
X5794Y14450
X5634Y14900
X4684Y14570
X4604Y15020
X4474Y15850
X4754Y16460
X1414Y15200
X1754Y13280
X7424Y10720
X7814Y10180
X18004Y3320
X18164Y2940
X18814Y2580
X19894Y3080
X19014Y3520
X18984Y4190
X19014Y4750
X18104Y4940
X18114Y4100
X21444Y2070
X22984Y2310
X23014Y15590
X23004Y16600
X23014Y17120
X24544Y15530
T04
X20914Y8790
X19084Y6370
X5044Y5540
T05
X3064Y12759
X3064Y13546
X3064Y14334
X3064Y15121
T06
X10864Y13240
X11864Y13240
X12864Y13240
X13864Y13240
X14864Y13240
X15864Y13240
X16864Y13240
X17864Y13240
X18864Y13240
X18864Y12240
X17864Y12240
X16864Y12240
X15864Y12240
X14864Y12240
X13864Y12240
X12864Y12240
X11864Y12240
X10864Y12240
X7311Y4517
X7311Y2430
X4437Y2430
X4437Y4517
T07
X5185Y3730
X6563Y3730
X17064Y3660
X17064Y6220
X17164Y8360
X17164Y10920
T08
X14094Y11160
X14094Y10160
X14094Y8960
X14094Y7960
X15494Y2160
X16494Y2060
X17494Y2160
X18494Y2060
X19494Y2160
X19064Y15640
X18064Y15640
X17064Y15640
X16064Y15640
X15064Y15640
X14064Y15640
X14064Y16640
X15064Y16640
X16064Y16640
X17064Y16640
X18064Y16640
X19064Y16640
X20064Y16640
X21064Y16640
X21064Y15640
X20064Y15640
X12664Y15640
X11664Y15640
X10664Y15640
X9664Y15640
X8664Y15640
X7664Y15640
X6664Y15640
X5664Y15640
X5664Y16640
X6664Y16640
X7664Y16640
X8664Y16640
X9664Y16640
X10664Y16640
X11664Y16640
X12664Y16640
T09
X3694Y11440
X3104Y6950
X3164Y2440
T10
X1564Y2440
X1764Y16740
X24764Y16840
X24764Y2440
M30
