G75*
%MOIN*%
%OFA0B0*%
%FSLAX25Y25*%
%IPPOS*%
%LPD*%
%AMOC8*
5,1,8,0,0,1.08239X$1,22.5*
%
%ADD10R,0.05500X0.01370*%
%ADD11R,0.04724X0.01614*%
%ADD12R,0.01614X0.04528*%
%ADD13R,0.04724X0.03150*%
%ADD14R,0.03268X0.02480*%
%ADD15R,0.03150X0.01181*%
%ADD16R,0.01181X0.03150*%
%ADD17R,0.01969X0.00984*%
%ADD18R,0.03150X0.04724*%
%ADD19R,0.04800X0.08800*%
%ADD20R,0.14173X0.08661*%
%ADD21R,0.02756X0.02756*%
%ADD22R,0.03000X0.06000*%
%ADD23R,0.01969X0.07874*%
D10*
X0099351Y0086725D03*
X0099351Y0089284D03*
X0099351Y0091843D03*
X0099351Y0094402D03*
X0099351Y0096961D03*
X0099351Y0099520D03*
X0099351Y0102080D03*
X0099351Y0104639D03*
X0099351Y0107198D03*
X0099351Y0109757D03*
X0099351Y0112316D03*
X0099351Y0114875D03*
X0128138Y0114875D03*
X0128138Y0112316D03*
X0128138Y0109757D03*
X0128138Y0107198D03*
X0128138Y0104639D03*
X0128138Y0102080D03*
X0128138Y0099520D03*
X0128138Y0096961D03*
X0128138Y0094402D03*
X0128138Y0091843D03*
X0128138Y0089284D03*
X0128138Y0086725D03*
D11*
X0131550Y0058550D03*
X0131550Y0055951D03*
X0131550Y0053353D03*
X0131550Y0050754D03*
X0131550Y0048156D03*
X0131550Y0045557D03*
X0131550Y0042959D03*
X0131550Y0040361D03*
X0131550Y0037762D03*
X0089739Y0037762D03*
X0089739Y0040361D03*
X0089739Y0042959D03*
X0089739Y0045557D03*
X0089739Y0048156D03*
X0089739Y0050754D03*
X0089739Y0053353D03*
X0089739Y0055951D03*
X0089739Y0058550D03*
D12*
X0093755Y0061404D03*
X0096353Y0061404D03*
X0098952Y0061404D03*
X0101550Y0061404D03*
X0104148Y0061404D03*
X0106747Y0061404D03*
X0109345Y0061404D03*
X0111944Y0061404D03*
X0114542Y0061404D03*
X0117141Y0061404D03*
X0119739Y0061404D03*
X0122337Y0061404D03*
X0124936Y0061404D03*
X0127534Y0061404D03*
D13*
X0017644Y0044857D03*
X0017644Y0051943D03*
X0035644Y0051943D03*
X0035644Y0044857D03*
X0043044Y0071657D03*
X0043044Y0078743D03*
X0051144Y0085257D03*
X0056744Y0085257D03*
X0056744Y0092343D03*
X0051144Y0092343D03*
X0051644Y0132857D03*
X0042644Y0132857D03*
X0042644Y0139943D03*
X0051644Y0139943D03*
X0063644Y0138857D03*
X0072644Y0138857D03*
X0072644Y0145943D03*
X0063644Y0145943D03*
X0082644Y0145943D03*
X0082644Y0138857D03*
X0093644Y0138857D03*
X0093644Y0145943D03*
X0190844Y0075943D03*
X0190844Y0068857D03*
D14*
X0184644Y0138872D03*
X0176644Y0138872D03*
X0168644Y0138872D03*
X0159644Y0138872D03*
X0151644Y0138872D03*
X0142644Y0138872D03*
X0134644Y0138872D03*
X0127644Y0138872D03*
X0120644Y0138872D03*
X0120644Y0147928D03*
X0127644Y0147928D03*
X0134644Y0147928D03*
X0142644Y0147928D03*
X0151644Y0147928D03*
X0159644Y0147928D03*
X0168644Y0147928D03*
X0176644Y0147928D03*
X0184644Y0147928D03*
D15*
X0063264Y0103669D03*
X0063264Y0101700D03*
X0063264Y0099731D03*
X0053225Y0099731D03*
X0053225Y0101700D03*
X0053225Y0103669D03*
D16*
X0054307Y0106720D03*
X0056276Y0106720D03*
X0058244Y0106720D03*
X0060213Y0106720D03*
X0062181Y0106720D03*
X0062181Y0096680D03*
X0060213Y0096680D03*
X0058244Y0096680D03*
X0056276Y0096680D03*
X0054307Y0096680D03*
D17*
X0054411Y0114326D03*
X0054411Y0116294D03*
X0054411Y0118263D03*
X0054411Y0120231D03*
X0065238Y0120231D03*
X0065238Y0118263D03*
X0065238Y0116294D03*
X0065238Y0114326D03*
D18*
X0047888Y0102000D03*
X0040801Y0102000D03*
X0035088Y0079500D03*
X0028001Y0079500D03*
X0021788Y0079500D03*
X0014701Y0079500D03*
X0014401Y0071400D03*
X0021488Y0071400D03*
X0068701Y0058800D03*
X0075788Y0058800D03*
X0197001Y0087900D03*
X0204088Y0087900D03*
D19*
X0031244Y0089700D03*
X0022144Y0089700D03*
X0013044Y0089700D03*
D20*
X0022144Y0114101D03*
D21*
X0024085Y0052042D03*
X0029204Y0052042D03*
X0026644Y0044758D03*
D22*
X0222144Y0148400D03*
X0237144Y0148400D03*
X0237144Y0170400D03*
X0222144Y0170400D03*
D23*
X0065044Y0046155D03*
X0061894Y0046155D03*
X0058744Y0046155D03*
X0055595Y0046155D03*
X0052445Y0046155D03*
M02*
