G75*
%MOIN*%
%OFA0B0*%
%FSLAX25Y25*%
%IPPOS*%
%LPD*%
%AMOC8*
5,1,8,0,0,1.08239X$1,22.5*
%
%ADD10C,0.12400*%
%ADD11R,0.06100X0.01970*%
%ADD12OC8,0.05324*%
%ADD13R,0.05324X0.02214*%
%ADD14R,0.02214X0.05128*%
%ADD15OC8,0.08000*%
%ADD16R,0.05324X0.03750*%
%ADD17R,0.03868X0.03080*%
%ADD18C,0.07600*%
%ADD19C,0.06899*%
%ADD20R,0.03750X0.01781*%
%ADD21R,0.01781X0.03750*%
%ADD22R,0.02569X0.01584*%
%ADD23R,0.03750X0.05324*%
%ADD24R,0.05400X0.09400*%
%ADD25R,0.14773X0.09261*%
%ADD26R,0.03356X0.03356*%
%ADD27R,0.03600X0.06600*%
%ADD28C,0.08000*%
%ADD29OC8,0.09100*%
%ADD30C,0.05324*%
%ADD31R,0.02569X0.08474*%
%ADD32C,0.04143*%
D10*
X0015644Y0024400D03*
X0017644Y0167400D03*
X0247644Y0168400D03*
X0247644Y0024400D03*
D11*
X0128138Y0086725D03*
X0128138Y0089284D03*
X0128138Y0091843D03*
X0128138Y0094402D03*
X0128138Y0096961D03*
X0128138Y0099520D03*
X0128138Y0102080D03*
X0128138Y0104639D03*
X0128138Y0107198D03*
X0128138Y0109757D03*
X0128138Y0112316D03*
X0128138Y0114875D03*
X0099351Y0114875D03*
X0099351Y0112316D03*
X0099351Y0109757D03*
X0099351Y0107198D03*
X0099351Y0104639D03*
X0099351Y0102080D03*
X0099351Y0099520D03*
X0099351Y0096961D03*
X0099351Y0094402D03*
X0099351Y0091843D03*
X0099351Y0089284D03*
X0099351Y0086725D03*
D12*
X0108644Y0122400D03*
X0118644Y0122400D03*
X0128644Y0122400D03*
X0138644Y0122400D03*
X0148644Y0122400D03*
X0158644Y0122400D03*
X0168644Y0122400D03*
X0178644Y0122400D03*
X0188644Y0122400D03*
X0188644Y0132400D03*
X0178644Y0132400D03*
X0168644Y0132400D03*
X0158644Y0132400D03*
X0148644Y0132400D03*
X0138644Y0132400D03*
X0128644Y0132400D03*
X0118644Y0132400D03*
X0108644Y0132400D03*
D13*
X0089739Y0058550D03*
X0089739Y0055951D03*
X0089739Y0053353D03*
X0089739Y0050754D03*
X0089739Y0048156D03*
X0089739Y0045557D03*
X0089739Y0042959D03*
X0089739Y0040361D03*
X0089739Y0037762D03*
X0131550Y0037762D03*
X0131550Y0040361D03*
X0131550Y0042959D03*
X0131550Y0045557D03*
X0131550Y0048156D03*
X0131550Y0050754D03*
X0131550Y0053353D03*
X0131550Y0055951D03*
X0131550Y0058550D03*
D14*
X0127534Y0061404D03*
X0124936Y0061404D03*
X0122337Y0061404D03*
X0119739Y0061404D03*
X0117141Y0061404D03*
X0114542Y0061404D03*
X0111944Y0061404D03*
X0109345Y0061404D03*
X0106747Y0061404D03*
X0104148Y0061404D03*
X0101550Y0061404D03*
X0098952Y0061404D03*
X0096353Y0061404D03*
X0093755Y0061404D03*
D15*
X0096644Y0156400D03*
X0086644Y0156400D03*
X0076644Y0156400D03*
X0066644Y0156400D03*
X0056644Y0156400D03*
X0056644Y0166400D03*
X0066644Y0166400D03*
X0076644Y0166400D03*
X0086644Y0166400D03*
X0096644Y0166400D03*
X0106644Y0166400D03*
X0116644Y0166400D03*
X0126644Y0166400D03*
X0126644Y0156400D03*
X0116644Y0156400D03*
X0106644Y0156400D03*
X0140644Y0156400D03*
X0150644Y0156400D03*
X0160644Y0156400D03*
X0170644Y0156400D03*
X0180644Y0156400D03*
X0190644Y0156400D03*
X0200644Y0156400D03*
X0210644Y0156400D03*
X0210644Y0166400D03*
X0200644Y0166400D03*
X0190644Y0166400D03*
X0180644Y0166400D03*
X0170644Y0166400D03*
X0160644Y0166400D03*
X0150644Y0166400D03*
X0140644Y0166400D03*
D16*
X0093644Y0145943D03*
X0093644Y0138857D03*
X0082644Y0138857D03*
X0082644Y0145943D03*
X0072644Y0145943D03*
X0063644Y0145943D03*
X0063644Y0138857D03*
X0072644Y0138857D03*
X0051644Y0139943D03*
X0042644Y0139943D03*
X0042644Y0132857D03*
X0051644Y0132857D03*
X0051144Y0092343D03*
X0056744Y0092343D03*
X0056744Y0085257D03*
X0051144Y0085257D03*
X0043044Y0078743D03*
X0043044Y0071657D03*
X0035644Y0051943D03*
X0035644Y0044857D03*
X0017644Y0044857D03*
X0017644Y0051943D03*
X0190844Y0068857D03*
X0190844Y0075943D03*
D17*
X0184644Y0138872D03*
X0176644Y0138872D03*
X0168644Y0138872D03*
X0159644Y0138872D03*
X0151644Y0138872D03*
X0142644Y0138872D03*
X0134644Y0138872D03*
X0127644Y0138872D03*
X0120644Y0138872D03*
X0120644Y0147928D03*
X0127644Y0147928D03*
X0134644Y0147928D03*
X0142644Y0147928D03*
X0151644Y0147928D03*
X0159644Y0147928D03*
X0168644Y0147928D03*
X0176644Y0147928D03*
X0184644Y0147928D03*
D18*
X0171644Y0109195D03*
X0171644Y0083605D03*
X0170644Y0062195D03*
X0170644Y0036605D03*
D19*
X0030644Y0127589D03*
X0030644Y0135463D03*
X0030644Y0143337D03*
X0030644Y0151211D03*
D20*
X0053225Y0103669D03*
X0053225Y0101700D03*
X0053225Y0099731D03*
X0063264Y0099731D03*
X0063264Y0101700D03*
X0063264Y0103669D03*
D21*
X0062181Y0106720D03*
X0060213Y0106720D03*
X0058244Y0106720D03*
X0056276Y0106720D03*
X0054307Y0106720D03*
X0054307Y0096680D03*
X0056276Y0096680D03*
X0058244Y0096680D03*
X0060213Y0096680D03*
X0062181Y0096680D03*
D22*
X0065238Y0114326D03*
X0065238Y0116294D03*
X0065238Y0118263D03*
X0065238Y0120231D03*
X0054411Y0120231D03*
X0054411Y0118263D03*
X0054411Y0116294D03*
X0054411Y0114326D03*
D23*
X0047888Y0102000D03*
X0040801Y0102000D03*
X0035088Y0079500D03*
X0028001Y0079500D03*
X0021788Y0079500D03*
X0014701Y0079500D03*
X0014401Y0071400D03*
X0021488Y0071400D03*
X0068701Y0058800D03*
X0075788Y0058800D03*
X0197001Y0087900D03*
X0204088Y0087900D03*
D24*
X0031244Y0089700D03*
X0022144Y0089700D03*
X0013044Y0089700D03*
D25*
X0022144Y0114101D03*
D26*
X0024085Y0052042D03*
X0029204Y0052042D03*
X0026644Y0044758D03*
D27*
X0222144Y0148400D03*
X0237144Y0148400D03*
X0237144Y0170400D03*
X0222144Y0170400D03*
D28*
X0140944Y0111600D03*
X0140944Y0101600D03*
X0140944Y0089600D03*
X0140944Y0079600D03*
X0154944Y0021600D03*
X0164944Y0020600D03*
X0174944Y0021600D03*
X0184944Y0020600D03*
X0194944Y0021600D03*
D29*
X0036944Y0114400D03*
X0031044Y0069500D03*
X0031644Y0024400D03*
D30*
X0044374Y0026667D02*
X0044374Y0021943D01*
X0073115Y0021943D02*
X0073115Y0026667D01*
X0073115Y0042809D02*
X0073115Y0047533D01*
X0044374Y0047533D02*
X0044374Y0042809D01*
D31*
X0052445Y0046155D03*
X0055595Y0046155D03*
X0058744Y0046155D03*
X0061894Y0046155D03*
X0065044Y0046155D03*
D32*
X0065634Y0037297D03*
X0051855Y0037297D03*
M02*
