G75*
%MOIN*%
%OFA0B0*%
%FSLAX25Y25*%
%IPPOS*%
%LPD*%
%AMOC8*
5,1,8,0,0,1.08239X$1,22.5*
%
%ADD10C,0.00000*%
%ADD11OC8,0.04724*%
%ADD12C,0.09449*%
%ADD13C,0.04200*%
%ADD14OC8,0.07400*%
%ADD15C,0.07000*%
%ADD16C,0.02800*%
%ADD17C,0.06299*%
%ADD18C,0.07400*%
%ADD19OC8,0.08500*%
%ADD20C,0.00600*%
%ADD21C,0.02700*%
%ADD22C,0.03369*%
%ADD23C,0.01600*%
%ADD24C,0.04000*%
D10*
X0006644Y0015370D02*
X0006644Y0175370D01*
X0256644Y0175370D01*
X0256566Y0015370D01*
X0006644Y0015370D01*
X0009744Y0024370D02*
X0009746Y0024523D01*
X0009752Y0024676D01*
X0009762Y0024829D01*
X0009776Y0024982D01*
X0009794Y0025134D01*
X0009815Y0025285D01*
X0009841Y0025436D01*
X0009871Y0025587D01*
X0009904Y0025736D01*
X0009942Y0025885D01*
X0009983Y0026032D01*
X0010028Y0026179D01*
X0010077Y0026324D01*
X0010129Y0026468D01*
X0010186Y0026610D01*
X0010246Y0026751D01*
X0010309Y0026890D01*
X0010377Y0027028D01*
X0010447Y0027164D01*
X0010522Y0027298D01*
X0010599Y0027430D01*
X0010681Y0027560D01*
X0010765Y0027688D01*
X0010853Y0027813D01*
X0010944Y0027936D01*
X0011038Y0028057D01*
X0011135Y0028175D01*
X0011236Y0028291D01*
X0011339Y0028404D01*
X0011445Y0028515D01*
X0011554Y0028622D01*
X0011666Y0028727D01*
X0011780Y0028829D01*
X0011897Y0028928D01*
X0012017Y0029023D01*
X0012139Y0029116D01*
X0012263Y0029205D01*
X0012390Y0029292D01*
X0012519Y0029374D01*
X0012650Y0029454D01*
X0012783Y0029530D01*
X0012918Y0029602D01*
X0013055Y0029671D01*
X0013193Y0029737D01*
X0013333Y0029799D01*
X0013475Y0029857D01*
X0013618Y0029911D01*
X0013763Y0029962D01*
X0013908Y0030009D01*
X0014055Y0030052D01*
X0014203Y0030091D01*
X0014352Y0030127D01*
X0014502Y0030158D01*
X0014653Y0030186D01*
X0014804Y0030210D01*
X0014956Y0030230D01*
X0015109Y0030246D01*
X0015261Y0030258D01*
X0015414Y0030266D01*
X0015567Y0030270D01*
X0015721Y0030270D01*
X0015874Y0030266D01*
X0016027Y0030258D01*
X0016179Y0030246D01*
X0016332Y0030230D01*
X0016484Y0030210D01*
X0016635Y0030186D01*
X0016786Y0030158D01*
X0016936Y0030127D01*
X0017085Y0030091D01*
X0017233Y0030052D01*
X0017380Y0030009D01*
X0017525Y0029962D01*
X0017670Y0029911D01*
X0017813Y0029857D01*
X0017955Y0029799D01*
X0018095Y0029737D01*
X0018233Y0029671D01*
X0018370Y0029602D01*
X0018505Y0029530D01*
X0018638Y0029454D01*
X0018769Y0029374D01*
X0018898Y0029292D01*
X0019025Y0029205D01*
X0019149Y0029116D01*
X0019271Y0029023D01*
X0019391Y0028928D01*
X0019508Y0028829D01*
X0019622Y0028727D01*
X0019734Y0028622D01*
X0019843Y0028515D01*
X0019949Y0028404D01*
X0020052Y0028291D01*
X0020153Y0028175D01*
X0020250Y0028057D01*
X0020344Y0027936D01*
X0020435Y0027813D01*
X0020523Y0027688D01*
X0020607Y0027560D01*
X0020689Y0027430D01*
X0020766Y0027298D01*
X0020841Y0027164D01*
X0020911Y0027028D01*
X0020979Y0026890D01*
X0021042Y0026751D01*
X0021102Y0026610D01*
X0021159Y0026468D01*
X0021211Y0026324D01*
X0021260Y0026179D01*
X0021305Y0026032D01*
X0021346Y0025885D01*
X0021384Y0025736D01*
X0021417Y0025587D01*
X0021447Y0025436D01*
X0021473Y0025285D01*
X0021494Y0025134D01*
X0021512Y0024982D01*
X0021526Y0024829D01*
X0021536Y0024676D01*
X0021542Y0024523D01*
X0021544Y0024370D01*
X0021542Y0024217D01*
X0021536Y0024064D01*
X0021526Y0023911D01*
X0021512Y0023758D01*
X0021494Y0023606D01*
X0021473Y0023455D01*
X0021447Y0023304D01*
X0021417Y0023153D01*
X0021384Y0023004D01*
X0021346Y0022855D01*
X0021305Y0022708D01*
X0021260Y0022561D01*
X0021211Y0022416D01*
X0021159Y0022272D01*
X0021102Y0022130D01*
X0021042Y0021989D01*
X0020979Y0021850D01*
X0020911Y0021712D01*
X0020841Y0021576D01*
X0020766Y0021442D01*
X0020689Y0021310D01*
X0020607Y0021180D01*
X0020523Y0021052D01*
X0020435Y0020927D01*
X0020344Y0020804D01*
X0020250Y0020683D01*
X0020153Y0020565D01*
X0020052Y0020449D01*
X0019949Y0020336D01*
X0019843Y0020225D01*
X0019734Y0020118D01*
X0019622Y0020013D01*
X0019508Y0019911D01*
X0019391Y0019812D01*
X0019271Y0019717D01*
X0019149Y0019624D01*
X0019025Y0019535D01*
X0018898Y0019448D01*
X0018769Y0019366D01*
X0018638Y0019286D01*
X0018505Y0019210D01*
X0018370Y0019138D01*
X0018233Y0019069D01*
X0018095Y0019003D01*
X0017955Y0018941D01*
X0017813Y0018883D01*
X0017670Y0018829D01*
X0017525Y0018778D01*
X0017380Y0018731D01*
X0017233Y0018688D01*
X0017085Y0018649D01*
X0016936Y0018613D01*
X0016786Y0018582D01*
X0016635Y0018554D01*
X0016484Y0018530D01*
X0016332Y0018510D01*
X0016179Y0018494D01*
X0016027Y0018482D01*
X0015874Y0018474D01*
X0015721Y0018470D01*
X0015567Y0018470D01*
X0015414Y0018474D01*
X0015261Y0018482D01*
X0015109Y0018494D01*
X0014956Y0018510D01*
X0014804Y0018530D01*
X0014653Y0018554D01*
X0014502Y0018582D01*
X0014352Y0018613D01*
X0014203Y0018649D01*
X0014055Y0018688D01*
X0013908Y0018731D01*
X0013763Y0018778D01*
X0013618Y0018829D01*
X0013475Y0018883D01*
X0013333Y0018941D01*
X0013193Y0019003D01*
X0013055Y0019069D01*
X0012918Y0019138D01*
X0012783Y0019210D01*
X0012650Y0019286D01*
X0012519Y0019366D01*
X0012390Y0019448D01*
X0012263Y0019535D01*
X0012139Y0019624D01*
X0012017Y0019717D01*
X0011897Y0019812D01*
X0011780Y0019911D01*
X0011666Y0020013D01*
X0011554Y0020118D01*
X0011445Y0020225D01*
X0011339Y0020336D01*
X0011236Y0020449D01*
X0011135Y0020565D01*
X0011038Y0020683D01*
X0010944Y0020804D01*
X0010853Y0020927D01*
X0010765Y0021052D01*
X0010681Y0021180D01*
X0010599Y0021310D01*
X0010522Y0021442D01*
X0010447Y0021576D01*
X0010377Y0021712D01*
X0010309Y0021850D01*
X0010246Y0021989D01*
X0010186Y0022130D01*
X0010129Y0022272D01*
X0010077Y0022416D01*
X0010028Y0022561D01*
X0009983Y0022708D01*
X0009942Y0022855D01*
X0009904Y0023004D01*
X0009871Y0023153D01*
X0009841Y0023304D01*
X0009815Y0023455D01*
X0009794Y0023606D01*
X0009776Y0023758D01*
X0009762Y0023911D01*
X0009752Y0024064D01*
X0009746Y0024217D01*
X0009744Y0024370D01*
X0011744Y0167370D02*
X0011746Y0167523D01*
X0011752Y0167676D01*
X0011762Y0167829D01*
X0011776Y0167982D01*
X0011794Y0168134D01*
X0011815Y0168285D01*
X0011841Y0168436D01*
X0011871Y0168587D01*
X0011904Y0168736D01*
X0011942Y0168885D01*
X0011983Y0169032D01*
X0012028Y0169179D01*
X0012077Y0169324D01*
X0012129Y0169468D01*
X0012186Y0169610D01*
X0012246Y0169751D01*
X0012309Y0169890D01*
X0012377Y0170028D01*
X0012447Y0170164D01*
X0012522Y0170298D01*
X0012599Y0170430D01*
X0012681Y0170560D01*
X0012765Y0170688D01*
X0012853Y0170813D01*
X0012944Y0170936D01*
X0013038Y0171057D01*
X0013135Y0171175D01*
X0013236Y0171291D01*
X0013339Y0171404D01*
X0013445Y0171515D01*
X0013554Y0171622D01*
X0013666Y0171727D01*
X0013780Y0171829D01*
X0013897Y0171928D01*
X0014017Y0172023D01*
X0014139Y0172116D01*
X0014263Y0172205D01*
X0014390Y0172292D01*
X0014519Y0172374D01*
X0014650Y0172454D01*
X0014783Y0172530D01*
X0014918Y0172602D01*
X0015055Y0172671D01*
X0015193Y0172737D01*
X0015333Y0172799D01*
X0015475Y0172857D01*
X0015618Y0172911D01*
X0015763Y0172962D01*
X0015908Y0173009D01*
X0016055Y0173052D01*
X0016203Y0173091D01*
X0016352Y0173127D01*
X0016502Y0173158D01*
X0016653Y0173186D01*
X0016804Y0173210D01*
X0016956Y0173230D01*
X0017109Y0173246D01*
X0017261Y0173258D01*
X0017414Y0173266D01*
X0017567Y0173270D01*
X0017721Y0173270D01*
X0017874Y0173266D01*
X0018027Y0173258D01*
X0018179Y0173246D01*
X0018332Y0173230D01*
X0018484Y0173210D01*
X0018635Y0173186D01*
X0018786Y0173158D01*
X0018936Y0173127D01*
X0019085Y0173091D01*
X0019233Y0173052D01*
X0019380Y0173009D01*
X0019525Y0172962D01*
X0019670Y0172911D01*
X0019813Y0172857D01*
X0019955Y0172799D01*
X0020095Y0172737D01*
X0020233Y0172671D01*
X0020370Y0172602D01*
X0020505Y0172530D01*
X0020638Y0172454D01*
X0020769Y0172374D01*
X0020898Y0172292D01*
X0021025Y0172205D01*
X0021149Y0172116D01*
X0021271Y0172023D01*
X0021391Y0171928D01*
X0021508Y0171829D01*
X0021622Y0171727D01*
X0021734Y0171622D01*
X0021843Y0171515D01*
X0021949Y0171404D01*
X0022052Y0171291D01*
X0022153Y0171175D01*
X0022250Y0171057D01*
X0022344Y0170936D01*
X0022435Y0170813D01*
X0022523Y0170688D01*
X0022607Y0170560D01*
X0022689Y0170430D01*
X0022766Y0170298D01*
X0022841Y0170164D01*
X0022911Y0170028D01*
X0022979Y0169890D01*
X0023042Y0169751D01*
X0023102Y0169610D01*
X0023159Y0169468D01*
X0023211Y0169324D01*
X0023260Y0169179D01*
X0023305Y0169032D01*
X0023346Y0168885D01*
X0023384Y0168736D01*
X0023417Y0168587D01*
X0023447Y0168436D01*
X0023473Y0168285D01*
X0023494Y0168134D01*
X0023512Y0167982D01*
X0023526Y0167829D01*
X0023536Y0167676D01*
X0023542Y0167523D01*
X0023544Y0167370D01*
X0023542Y0167217D01*
X0023536Y0167064D01*
X0023526Y0166911D01*
X0023512Y0166758D01*
X0023494Y0166606D01*
X0023473Y0166455D01*
X0023447Y0166304D01*
X0023417Y0166153D01*
X0023384Y0166004D01*
X0023346Y0165855D01*
X0023305Y0165708D01*
X0023260Y0165561D01*
X0023211Y0165416D01*
X0023159Y0165272D01*
X0023102Y0165130D01*
X0023042Y0164989D01*
X0022979Y0164850D01*
X0022911Y0164712D01*
X0022841Y0164576D01*
X0022766Y0164442D01*
X0022689Y0164310D01*
X0022607Y0164180D01*
X0022523Y0164052D01*
X0022435Y0163927D01*
X0022344Y0163804D01*
X0022250Y0163683D01*
X0022153Y0163565D01*
X0022052Y0163449D01*
X0021949Y0163336D01*
X0021843Y0163225D01*
X0021734Y0163118D01*
X0021622Y0163013D01*
X0021508Y0162911D01*
X0021391Y0162812D01*
X0021271Y0162717D01*
X0021149Y0162624D01*
X0021025Y0162535D01*
X0020898Y0162448D01*
X0020769Y0162366D01*
X0020638Y0162286D01*
X0020505Y0162210D01*
X0020370Y0162138D01*
X0020233Y0162069D01*
X0020095Y0162003D01*
X0019955Y0161941D01*
X0019813Y0161883D01*
X0019670Y0161829D01*
X0019525Y0161778D01*
X0019380Y0161731D01*
X0019233Y0161688D01*
X0019085Y0161649D01*
X0018936Y0161613D01*
X0018786Y0161582D01*
X0018635Y0161554D01*
X0018484Y0161530D01*
X0018332Y0161510D01*
X0018179Y0161494D01*
X0018027Y0161482D01*
X0017874Y0161474D01*
X0017721Y0161470D01*
X0017567Y0161470D01*
X0017414Y0161474D01*
X0017261Y0161482D01*
X0017109Y0161494D01*
X0016956Y0161510D01*
X0016804Y0161530D01*
X0016653Y0161554D01*
X0016502Y0161582D01*
X0016352Y0161613D01*
X0016203Y0161649D01*
X0016055Y0161688D01*
X0015908Y0161731D01*
X0015763Y0161778D01*
X0015618Y0161829D01*
X0015475Y0161883D01*
X0015333Y0161941D01*
X0015193Y0162003D01*
X0015055Y0162069D01*
X0014918Y0162138D01*
X0014783Y0162210D01*
X0014650Y0162286D01*
X0014519Y0162366D01*
X0014390Y0162448D01*
X0014263Y0162535D01*
X0014139Y0162624D01*
X0014017Y0162717D01*
X0013897Y0162812D01*
X0013780Y0162911D01*
X0013666Y0163013D01*
X0013554Y0163118D01*
X0013445Y0163225D01*
X0013339Y0163336D01*
X0013236Y0163449D01*
X0013135Y0163565D01*
X0013038Y0163683D01*
X0012944Y0163804D01*
X0012853Y0163927D01*
X0012765Y0164052D01*
X0012681Y0164180D01*
X0012599Y0164310D01*
X0012522Y0164442D01*
X0012447Y0164576D01*
X0012377Y0164712D01*
X0012309Y0164850D01*
X0012246Y0164989D01*
X0012186Y0165130D01*
X0012129Y0165272D01*
X0012077Y0165416D01*
X0012028Y0165561D01*
X0011983Y0165708D01*
X0011942Y0165855D01*
X0011904Y0166004D01*
X0011871Y0166153D01*
X0011841Y0166304D01*
X0011815Y0166455D01*
X0011794Y0166606D01*
X0011776Y0166758D01*
X0011762Y0166911D01*
X0011752Y0167064D01*
X0011746Y0167217D01*
X0011744Y0167370D01*
X0241744Y0168370D02*
X0241746Y0168523D01*
X0241752Y0168676D01*
X0241762Y0168829D01*
X0241776Y0168982D01*
X0241794Y0169134D01*
X0241815Y0169285D01*
X0241841Y0169436D01*
X0241871Y0169587D01*
X0241904Y0169736D01*
X0241942Y0169885D01*
X0241983Y0170032D01*
X0242028Y0170179D01*
X0242077Y0170324D01*
X0242129Y0170468D01*
X0242186Y0170610D01*
X0242246Y0170751D01*
X0242309Y0170890D01*
X0242377Y0171028D01*
X0242447Y0171164D01*
X0242522Y0171298D01*
X0242599Y0171430D01*
X0242681Y0171560D01*
X0242765Y0171688D01*
X0242853Y0171813D01*
X0242944Y0171936D01*
X0243038Y0172057D01*
X0243135Y0172175D01*
X0243236Y0172291D01*
X0243339Y0172404D01*
X0243445Y0172515D01*
X0243554Y0172622D01*
X0243666Y0172727D01*
X0243780Y0172829D01*
X0243897Y0172928D01*
X0244017Y0173023D01*
X0244139Y0173116D01*
X0244263Y0173205D01*
X0244390Y0173292D01*
X0244519Y0173374D01*
X0244650Y0173454D01*
X0244783Y0173530D01*
X0244918Y0173602D01*
X0245055Y0173671D01*
X0245193Y0173737D01*
X0245333Y0173799D01*
X0245475Y0173857D01*
X0245618Y0173911D01*
X0245763Y0173962D01*
X0245908Y0174009D01*
X0246055Y0174052D01*
X0246203Y0174091D01*
X0246352Y0174127D01*
X0246502Y0174158D01*
X0246653Y0174186D01*
X0246804Y0174210D01*
X0246956Y0174230D01*
X0247109Y0174246D01*
X0247261Y0174258D01*
X0247414Y0174266D01*
X0247567Y0174270D01*
X0247721Y0174270D01*
X0247874Y0174266D01*
X0248027Y0174258D01*
X0248179Y0174246D01*
X0248332Y0174230D01*
X0248484Y0174210D01*
X0248635Y0174186D01*
X0248786Y0174158D01*
X0248936Y0174127D01*
X0249085Y0174091D01*
X0249233Y0174052D01*
X0249380Y0174009D01*
X0249525Y0173962D01*
X0249670Y0173911D01*
X0249813Y0173857D01*
X0249955Y0173799D01*
X0250095Y0173737D01*
X0250233Y0173671D01*
X0250370Y0173602D01*
X0250505Y0173530D01*
X0250638Y0173454D01*
X0250769Y0173374D01*
X0250898Y0173292D01*
X0251025Y0173205D01*
X0251149Y0173116D01*
X0251271Y0173023D01*
X0251391Y0172928D01*
X0251508Y0172829D01*
X0251622Y0172727D01*
X0251734Y0172622D01*
X0251843Y0172515D01*
X0251949Y0172404D01*
X0252052Y0172291D01*
X0252153Y0172175D01*
X0252250Y0172057D01*
X0252344Y0171936D01*
X0252435Y0171813D01*
X0252523Y0171688D01*
X0252607Y0171560D01*
X0252689Y0171430D01*
X0252766Y0171298D01*
X0252841Y0171164D01*
X0252911Y0171028D01*
X0252979Y0170890D01*
X0253042Y0170751D01*
X0253102Y0170610D01*
X0253159Y0170468D01*
X0253211Y0170324D01*
X0253260Y0170179D01*
X0253305Y0170032D01*
X0253346Y0169885D01*
X0253384Y0169736D01*
X0253417Y0169587D01*
X0253447Y0169436D01*
X0253473Y0169285D01*
X0253494Y0169134D01*
X0253512Y0168982D01*
X0253526Y0168829D01*
X0253536Y0168676D01*
X0253542Y0168523D01*
X0253544Y0168370D01*
X0253542Y0168217D01*
X0253536Y0168064D01*
X0253526Y0167911D01*
X0253512Y0167758D01*
X0253494Y0167606D01*
X0253473Y0167455D01*
X0253447Y0167304D01*
X0253417Y0167153D01*
X0253384Y0167004D01*
X0253346Y0166855D01*
X0253305Y0166708D01*
X0253260Y0166561D01*
X0253211Y0166416D01*
X0253159Y0166272D01*
X0253102Y0166130D01*
X0253042Y0165989D01*
X0252979Y0165850D01*
X0252911Y0165712D01*
X0252841Y0165576D01*
X0252766Y0165442D01*
X0252689Y0165310D01*
X0252607Y0165180D01*
X0252523Y0165052D01*
X0252435Y0164927D01*
X0252344Y0164804D01*
X0252250Y0164683D01*
X0252153Y0164565D01*
X0252052Y0164449D01*
X0251949Y0164336D01*
X0251843Y0164225D01*
X0251734Y0164118D01*
X0251622Y0164013D01*
X0251508Y0163911D01*
X0251391Y0163812D01*
X0251271Y0163717D01*
X0251149Y0163624D01*
X0251025Y0163535D01*
X0250898Y0163448D01*
X0250769Y0163366D01*
X0250638Y0163286D01*
X0250505Y0163210D01*
X0250370Y0163138D01*
X0250233Y0163069D01*
X0250095Y0163003D01*
X0249955Y0162941D01*
X0249813Y0162883D01*
X0249670Y0162829D01*
X0249525Y0162778D01*
X0249380Y0162731D01*
X0249233Y0162688D01*
X0249085Y0162649D01*
X0248936Y0162613D01*
X0248786Y0162582D01*
X0248635Y0162554D01*
X0248484Y0162530D01*
X0248332Y0162510D01*
X0248179Y0162494D01*
X0248027Y0162482D01*
X0247874Y0162474D01*
X0247721Y0162470D01*
X0247567Y0162470D01*
X0247414Y0162474D01*
X0247261Y0162482D01*
X0247109Y0162494D01*
X0246956Y0162510D01*
X0246804Y0162530D01*
X0246653Y0162554D01*
X0246502Y0162582D01*
X0246352Y0162613D01*
X0246203Y0162649D01*
X0246055Y0162688D01*
X0245908Y0162731D01*
X0245763Y0162778D01*
X0245618Y0162829D01*
X0245475Y0162883D01*
X0245333Y0162941D01*
X0245193Y0163003D01*
X0245055Y0163069D01*
X0244918Y0163138D01*
X0244783Y0163210D01*
X0244650Y0163286D01*
X0244519Y0163366D01*
X0244390Y0163448D01*
X0244263Y0163535D01*
X0244139Y0163624D01*
X0244017Y0163717D01*
X0243897Y0163812D01*
X0243780Y0163911D01*
X0243666Y0164013D01*
X0243554Y0164118D01*
X0243445Y0164225D01*
X0243339Y0164336D01*
X0243236Y0164449D01*
X0243135Y0164565D01*
X0243038Y0164683D01*
X0242944Y0164804D01*
X0242853Y0164927D01*
X0242765Y0165052D01*
X0242681Y0165180D01*
X0242599Y0165310D01*
X0242522Y0165442D01*
X0242447Y0165576D01*
X0242377Y0165712D01*
X0242309Y0165850D01*
X0242246Y0165989D01*
X0242186Y0166130D01*
X0242129Y0166272D01*
X0242077Y0166416D01*
X0242028Y0166561D01*
X0241983Y0166708D01*
X0241942Y0166855D01*
X0241904Y0167004D01*
X0241871Y0167153D01*
X0241841Y0167304D01*
X0241815Y0167455D01*
X0241794Y0167606D01*
X0241776Y0167758D01*
X0241762Y0167911D01*
X0241752Y0168064D01*
X0241746Y0168217D01*
X0241744Y0168370D01*
X0241744Y0024370D02*
X0241746Y0024523D01*
X0241752Y0024676D01*
X0241762Y0024829D01*
X0241776Y0024982D01*
X0241794Y0025134D01*
X0241815Y0025285D01*
X0241841Y0025436D01*
X0241871Y0025587D01*
X0241904Y0025736D01*
X0241942Y0025885D01*
X0241983Y0026032D01*
X0242028Y0026179D01*
X0242077Y0026324D01*
X0242129Y0026468D01*
X0242186Y0026610D01*
X0242246Y0026751D01*
X0242309Y0026890D01*
X0242377Y0027028D01*
X0242447Y0027164D01*
X0242522Y0027298D01*
X0242599Y0027430D01*
X0242681Y0027560D01*
X0242765Y0027688D01*
X0242853Y0027813D01*
X0242944Y0027936D01*
X0243038Y0028057D01*
X0243135Y0028175D01*
X0243236Y0028291D01*
X0243339Y0028404D01*
X0243445Y0028515D01*
X0243554Y0028622D01*
X0243666Y0028727D01*
X0243780Y0028829D01*
X0243897Y0028928D01*
X0244017Y0029023D01*
X0244139Y0029116D01*
X0244263Y0029205D01*
X0244390Y0029292D01*
X0244519Y0029374D01*
X0244650Y0029454D01*
X0244783Y0029530D01*
X0244918Y0029602D01*
X0245055Y0029671D01*
X0245193Y0029737D01*
X0245333Y0029799D01*
X0245475Y0029857D01*
X0245618Y0029911D01*
X0245763Y0029962D01*
X0245908Y0030009D01*
X0246055Y0030052D01*
X0246203Y0030091D01*
X0246352Y0030127D01*
X0246502Y0030158D01*
X0246653Y0030186D01*
X0246804Y0030210D01*
X0246956Y0030230D01*
X0247109Y0030246D01*
X0247261Y0030258D01*
X0247414Y0030266D01*
X0247567Y0030270D01*
X0247721Y0030270D01*
X0247874Y0030266D01*
X0248027Y0030258D01*
X0248179Y0030246D01*
X0248332Y0030230D01*
X0248484Y0030210D01*
X0248635Y0030186D01*
X0248786Y0030158D01*
X0248936Y0030127D01*
X0249085Y0030091D01*
X0249233Y0030052D01*
X0249380Y0030009D01*
X0249525Y0029962D01*
X0249670Y0029911D01*
X0249813Y0029857D01*
X0249955Y0029799D01*
X0250095Y0029737D01*
X0250233Y0029671D01*
X0250370Y0029602D01*
X0250505Y0029530D01*
X0250638Y0029454D01*
X0250769Y0029374D01*
X0250898Y0029292D01*
X0251025Y0029205D01*
X0251149Y0029116D01*
X0251271Y0029023D01*
X0251391Y0028928D01*
X0251508Y0028829D01*
X0251622Y0028727D01*
X0251734Y0028622D01*
X0251843Y0028515D01*
X0251949Y0028404D01*
X0252052Y0028291D01*
X0252153Y0028175D01*
X0252250Y0028057D01*
X0252344Y0027936D01*
X0252435Y0027813D01*
X0252523Y0027688D01*
X0252607Y0027560D01*
X0252689Y0027430D01*
X0252766Y0027298D01*
X0252841Y0027164D01*
X0252911Y0027028D01*
X0252979Y0026890D01*
X0253042Y0026751D01*
X0253102Y0026610D01*
X0253159Y0026468D01*
X0253211Y0026324D01*
X0253260Y0026179D01*
X0253305Y0026032D01*
X0253346Y0025885D01*
X0253384Y0025736D01*
X0253417Y0025587D01*
X0253447Y0025436D01*
X0253473Y0025285D01*
X0253494Y0025134D01*
X0253512Y0024982D01*
X0253526Y0024829D01*
X0253536Y0024676D01*
X0253542Y0024523D01*
X0253544Y0024370D01*
X0253542Y0024217D01*
X0253536Y0024064D01*
X0253526Y0023911D01*
X0253512Y0023758D01*
X0253494Y0023606D01*
X0253473Y0023455D01*
X0253447Y0023304D01*
X0253417Y0023153D01*
X0253384Y0023004D01*
X0253346Y0022855D01*
X0253305Y0022708D01*
X0253260Y0022561D01*
X0253211Y0022416D01*
X0253159Y0022272D01*
X0253102Y0022130D01*
X0253042Y0021989D01*
X0252979Y0021850D01*
X0252911Y0021712D01*
X0252841Y0021576D01*
X0252766Y0021442D01*
X0252689Y0021310D01*
X0252607Y0021180D01*
X0252523Y0021052D01*
X0252435Y0020927D01*
X0252344Y0020804D01*
X0252250Y0020683D01*
X0252153Y0020565D01*
X0252052Y0020449D01*
X0251949Y0020336D01*
X0251843Y0020225D01*
X0251734Y0020118D01*
X0251622Y0020013D01*
X0251508Y0019911D01*
X0251391Y0019812D01*
X0251271Y0019717D01*
X0251149Y0019624D01*
X0251025Y0019535D01*
X0250898Y0019448D01*
X0250769Y0019366D01*
X0250638Y0019286D01*
X0250505Y0019210D01*
X0250370Y0019138D01*
X0250233Y0019069D01*
X0250095Y0019003D01*
X0249955Y0018941D01*
X0249813Y0018883D01*
X0249670Y0018829D01*
X0249525Y0018778D01*
X0249380Y0018731D01*
X0249233Y0018688D01*
X0249085Y0018649D01*
X0248936Y0018613D01*
X0248786Y0018582D01*
X0248635Y0018554D01*
X0248484Y0018530D01*
X0248332Y0018510D01*
X0248179Y0018494D01*
X0248027Y0018482D01*
X0247874Y0018474D01*
X0247721Y0018470D01*
X0247567Y0018470D01*
X0247414Y0018474D01*
X0247261Y0018482D01*
X0247109Y0018494D01*
X0246956Y0018510D01*
X0246804Y0018530D01*
X0246653Y0018554D01*
X0246502Y0018582D01*
X0246352Y0018613D01*
X0246203Y0018649D01*
X0246055Y0018688D01*
X0245908Y0018731D01*
X0245763Y0018778D01*
X0245618Y0018829D01*
X0245475Y0018883D01*
X0245333Y0018941D01*
X0245193Y0019003D01*
X0245055Y0019069D01*
X0244918Y0019138D01*
X0244783Y0019210D01*
X0244650Y0019286D01*
X0244519Y0019366D01*
X0244390Y0019448D01*
X0244263Y0019535D01*
X0244139Y0019624D01*
X0244017Y0019717D01*
X0243897Y0019812D01*
X0243780Y0019911D01*
X0243666Y0020013D01*
X0243554Y0020118D01*
X0243445Y0020225D01*
X0243339Y0020336D01*
X0243236Y0020449D01*
X0243135Y0020565D01*
X0243038Y0020683D01*
X0242944Y0020804D01*
X0242853Y0020927D01*
X0242765Y0021052D01*
X0242681Y0021180D01*
X0242599Y0021310D01*
X0242522Y0021442D01*
X0242447Y0021576D01*
X0242377Y0021712D01*
X0242309Y0021850D01*
X0242246Y0021989D01*
X0242186Y0022130D01*
X0242129Y0022272D01*
X0242077Y0022416D01*
X0242028Y0022561D01*
X0241983Y0022708D01*
X0241942Y0022855D01*
X0241904Y0023004D01*
X0241871Y0023153D01*
X0241841Y0023304D01*
X0241815Y0023455D01*
X0241794Y0023606D01*
X0241776Y0023758D01*
X0241762Y0023911D01*
X0241752Y0024064D01*
X0241746Y0024217D01*
X0241744Y0024370D01*
D11*
X0188644Y0122370D03*
X0178644Y0122370D03*
X0168644Y0122370D03*
X0158644Y0122370D03*
X0148644Y0122370D03*
X0138644Y0122370D03*
X0128644Y0122370D03*
X0118644Y0122370D03*
X0108644Y0122370D03*
X0108644Y0132370D03*
X0118644Y0132370D03*
X0128644Y0132370D03*
X0138644Y0132370D03*
X0148644Y0132370D03*
X0158644Y0132370D03*
X0168644Y0132370D03*
X0178644Y0132370D03*
X0188644Y0132370D03*
D12*
X0071015Y0030488D03*
X0042274Y0030488D03*
D13*
X0053613Y0045646D03*
X0056644Y0050370D03*
X0050345Y0050370D03*
X0059794Y0045646D03*
X0062944Y0050370D03*
D14*
X0066644Y0156370D03*
X0056644Y0156370D03*
X0056644Y0166370D03*
X0066644Y0166370D03*
X0076644Y0166370D03*
X0086644Y0166370D03*
X0096644Y0166370D03*
X0106644Y0166370D03*
X0116644Y0166370D03*
X0126644Y0166370D03*
X0126644Y0156370D03*
X0116644Y0156370D03*
X0106644Y0156370D03*
X0096644Y0156370D03*
X0086644Y0156370D03*
X0076644Y0156370D03*
X0140644Y0156370D03*
X0150644Y0156370D03*
X0160644Y0156370D03*
X0170644Y0156370D03*
X0180644Y0156370D03*
X0190644Y0156370D03*
X0200644Y0156370D03*
X0210644Y0156370D03*
X0210644Y0166370D03*
X0200644Y0166370D03*
X0190644Y0166370D03*
X0180644Y0166370D03*
X0170644Y0166370D03*
X0160644Y0166370D03*
X0150644Y0166370D03*
X0140644Y0166370D03*
D15*
X0171644Y0109165D03*
X0171644Y0083575D03*
X0170644Y0062165D03*
X0170644Y0036575D03*
D16*
X0204644Y0056370D03*
X0224644Y0095370D03*
D17*
X0030644Y0127559D03*
X0030644Y0135433D03*
X0030644Y0143307D03*
X0030644Y0151181D03*
D18*
X0090644Y0122370D03*
X0090644Y0112370D03*
X0090644Y0095370D03*
X0090644Y0085370D03*
X0157644Y0020870D03*
X0167644Y0021870D03*
X0177644Y0020870D03*
X0187644Y0021870D03*
X0197644Y0020870D03*
D19*
X0055644Y0075370D03*
X0041644Y0059370D03*
X0031644Y0024370D03*
D20*
X0042344Y0038770D02*
X0039944Y0041170D01*
X0036044Y0041170D01*
X0072944Y0049870D02*
X0077144Y0045670D01*
X0082544Y0065470D02*
X0100244Y0047770D01*
X0105044Y0047770D01*
X0109244Y0051970D01*
X0109244Y0052270D01*
X0110744Y0053770D01*
X0106844Y0052870D02*
X0102944Y0048970D01*
X0100844Y0048970D01*
X0086144Y0063670D01*
X0086144Y0076570D01*
X0082544Y0073870D02*
X0082544Y0065470D01*
X0080144Y0066070D02*
X0080144Y0082570D01*
X0074444Y0089770D02*
X0071144Y0093070D01*
X0071144Y0131170D01*
X0066944Y0135370D01*
X0072644Y0140470D02*
X0060344Y0152770D01*
X0060344Y0153370D01*
X0061244Y0154270D01*
X0061244Y0161770D01*
X0061094Y0161920D01*
X0065444Y0166270D01*
X0066644Y0166270D01*
X0066644Y0166370D01*
X0061094Y0161920D02*
X0056644Y0166370D01*
X0066644Y0156370D02*
X0071444Y0161170D01*
X0098444Y0161170D01*
X0103244Y0156370D01*
X0106644Y0156370D01*
X0109544Y0149470D02*
X0083444Y0149470D01*
X0076544Y0156370D01*
X0076644Y0156370D01*
X0072644Y0140470D02*
X0072644Y0093370D01*
X0093644Y0072370D01*
X0093644Y0068170D01*
X0090944Y0062170D02*
X0122444Y0093670D01*
X0122444Y0107470D01*
X0133544Y0118570D01*
X0133544Y0119470D01*
X0135044Y0120970D01*
X0135044Y0124270D01*
X0133844Y0125470D01*
X0133844Y0129670D01*
X0135044Y0130870D01*
X0135044Y0134170D01*
X0133844Y0135370D01*
X0133844Y0159370D01*
X0140744Y0166270D01*
X0140644Y0166370D01*
X0135044Y0163870D02*
X0133544Y0162370D01*
X0130844Y0162370D01*
X0130244Y0162970D01*
X0129944Y0162970D01*
X0128744Y0161770D01*
X0122144Y0161770D01*
X0116744Y0156370D01*
X0116644Y0156370D01*
X0116444Y0156370D01*
X0109544Y0149470D01*
X0123344Y0149770D02*
X0123344Y0135670D01*
X0125144Y0133870D01*
X0125144Y0130870D01*
X0124544Y0130270D01*
X0131144Y0129670D02*
X0131144Y0129370D01*
X0131444Y0129070D01*
X0132344Y0128170D01*
X0132344Y0126670D01*
X0132044Y0126370D01*
X0132044Y0120970D01*
X0128144Y0117070D01*
X0128144Y0116470D01*
X0132044Y0110470D02*
X0135344Y0107170D01*
X0135344Y0100270D01*
X0134144Y0099070D01*
X0134144Y0098170D01*
X0137744Y0094570D01*
X0137744Y0081970D01*
X0132944Y0077170D01*
X0132944Y0066970D01*
X0138944Y0068170D02*
X0138944Y0096970D01*
X0139244Y0097270D01*
X0135644Y0094870D02*
X0126044Y0104470D01*
X0123644Y0106870D02*
X0138644Y0121870D01*
X0138644Y0122370D01*
X0131144Y0129670D02*
X0132344Y0130870D01*
X0132344Y0133870D01*
X0132644Y0134170D01*
X0132644Y0136270D01*
X0126644Y0142270D01*
X0123344Y0149770D02*
X0123944Y0150370D01*
X0140644Y0156370D02*
X0144044Y0156370D01*
X0148844Y0161170D01*
X0175844Y0161170D01*
X0180644Y0156370D01*
X0172244Y0146770D02*
X0168644Y0143170D01*
X0167744Y0149470D02*
X0193844Y0149470D01*
X0200744Y0156370D01*
X0200644Y0156370D01*
X0205844Y0154570D02*
X0206744Y0153670D01*
X0206744Y0152770D01*
X0195944Y0141970D01*
X0195944Y0121870D01*
X0124244Y0050170D01*
X0126944Y0049270D02*
X0141944Y0064270D01*
X0135944Y0053770D02*
X0127544Y0045370D01*
X0100844Y0045370D01*
X0080144Y0066070D01*
X0074444Y0069970D02*
X0074444Y0089770D01*
X0062144Y0094570D02*
X0062144Y0097270D01*
X0068744Y0103870D01*
X0068744Y0109570D01*
X0066344Y0107470D02*
X0066344Y0107170D01*
X0066344Y0107470D02*
X0052244Y0121570D01*
X0039044Y0117670D02*
X0039044Y0142570D01*
X0030644Y0150970D01*
X0030644Y0151181D01*
X0026444Y0152770D02*
X0026444Y0147670D01*
X0030644Y0143470D01*
X0030644Y0143307D01*
X0030644Y0141370D01*
X0034844Y0137170D01*
X0034844Y0105970D01*
X0040244Y0100570D01*
X0040244Y0095470D01*
X0042644Y0093070D01*
X0049544Y0093070D01*
X0105044Y0037570D01*
X0131444Y0037570D01*
X0144344Y0050470D01*
X0147044Y0050470D01*
X0151244Y0046570D02*
X0159644Y0046570D01*
X0162044Y0037570D02*
X0177644Y0053170D01*
X0201644Y0053170D01*
X0204644Y0056170D01*
X0204644Y0056370D01*
X0186644Y0057670D02*
X0224444Y0095470D01*
X0224644Y0095370D01*
X0198344Y0122470D02*
X0198344Y0132070D01*
X0198344Y0122470D02*
X0164744Y0088870D01*
X0164744Y0079270D01*
X0129644Y0044170D01*
X0124844Y0044170D01*
X0123344Y0042670D01*
X0115244Y0042670D01*
X0121844Y0047770D02*
X0121844Y0066970D01*
X0121544Y0067270D01*
X0121544Y0069370D01*
X0125444Y0073270D01*
X0125444Y0076570D01*
X0124544Y0078970D02*
X0123044Y0077470D01*
X0123044Y0072670D01*
X0101744Y0051370D01*
X0104144Y0057070D02*
X0104144Y0059170D01*
X0112844Y0067870D01*
X0112844Y0069370D01*
X0119144Y0075670D01*
X0119144Y0082270D01*
X0121844Y0078070D02*
X0133244Y0089470D01*
X0135644Y0094870D02*
X0135644Y0081670D01*
X0123944Y0069970D01*
X0123944Y0068170D01*
X0121844Y0076570D02*
X0115244Y0069970D01*
X0115244Y0068170D01*
X0109844Y0068170D02*
X0109844Y0069670D01*
X0116744Y0076570D01*
X0121844Y0076570D02*
X0121844Y0078070D01*
X0124544Y0078970D02*
X0129344Y0078970D01*
X0123644Y0093070D02*
X0123644Y0106870D01*
X0120044Y0111370D02*
X0114044Y0117370D01*
X0117044Y0118870D02*
X0110144Y0125770D01*
X0093944Y0125770D01*
X0090944Y0128770D01*
X0080144Y0128770D01*
X0076844Y0132070D01*
X0075044Y0132070D01*
X0047744Y0142870D02*
X0044744Y0142870D01*
X0032144Y0155470D01*
X0029144Y0155470D01*
X0026444Y0152770D01*
X0117044Y0118870D02*
X0121244Y0118870D01*
X0123644Y0093070D02*
X0106544Y0075970D01*
X0106544Y0068170D01*
X0126944Y0049270D02*
X0126944Y0048070D01*
X0128444Y0041170D02*
X0125144Y0041170D01*
X0128444Y0041170D02*
X0167144Y0079870D01*
X0167144Y0080170D01*
X0170444Y0083470D01*
X0171644Y0083470D01*
X0171644Y0083575D01*
X0185744Y0066970D02*
X0148544Y0029770D01*
X0159044Y0029170D02*
X0161444Y0029170D01*
X0162944Y0030670D01*
X0167444Y0030670D01*
X0169544Y0028570D01*
X0171044Y0028570D01*
X0177644Y0021970D01*
X0177644Y0022270D01*
X0193544Y0038170D01*
X0177644Y0021970D02*
X0177644Y0020870D01*
X0177644Y0021070D01*
X0163844Y0028270D02*
X0157844Y0022270D01*
X0157844Y0021070D01*
X0157644Y0020870D01*
X0134444Y0045370D02*
X0127844Y0038770D01*
X0105644Y0038770D01*
X0074444Y0069970D01*
X0134444Y0045370D02*
X0135944Y0045370D01*
X0183644Y0057670D02*
X0186644Y0057670D01*
X0155444Y0147670D02*
X0149444Y0147670D01*
X0145244Y0151870D01*
X0160644Y0156370D02*
X0160844Y0156370D01*
X0167744Y0149470D01*
X0200644Y0166370D02*
X0200744Y0166270D01*
X0201344Y0166270D01*
X0205994Y0161620D01*
X0205844Y0161470D01*
X0205844Y0154570D01*
X0205994Y0161620D02*
X0210644Y0166270D01*
X0210644Y0166370D01*
D21*
X0172244Y0146770D03*
X0168644Y0143170D03*
X0155444Y0147670D03*
X0145244Y0151870D03*
X0135044Y0163870D03*
X0123944Y0150370D03*
X0126644Y0142270D03*
X0124544Y0130270D03*
X0131444Y0129070D03*
X0121244Y0118870D03*
X0114044Y0117370D03*
X0120044Y0111370D03*
X0128144Y0116470D03*
X0132044Y0110470D03*
X0126044Y0104470D03*
X0139244Y0097270D03*
X0133244Y0089470D03*
X0119144Y0082270D03*
X0116744Y0076570D03*
X0125444Y0076570D03*
X0129344Y0078970D03*
X0123944Y0068170D03*
X0115244Y0068170D03*
X0109844Y0068170D03*
X0106544Y0068170D03*
X0093644Y0068170D03*
X0090944Y0062170D03*
X0104144Y0057070D03*
X0106844Y0052870D03*
X0110744Y0053770D03*
X0101744Y0051370D03*
X0115244Y0042670D03*
X0121844Y0047770D03*
X0124244Y0050170D03*
X0126944Y0048070D03*
X0125144Y0041170D03*
X0135944Y0045370D03*
X0135944Y0053770D03*
X0147044Y0050470D03*
X0151244Y0046570D03*
X0159644Y0046570D03*
X0162044Y0037570D03*
X0159044Y0029170D03*
X0163844Y0028270D03*
X0148544Y0029770D03*
X0183644Y0057670D03*
X0185744Y0066970D03*
X0193544Y0038170D03*
X0141944Y0064270D03*
X0138944Y0068170D03*
X0132944Y0066970D03*
X0086144Y0076570D03*
X0082544Y0073870D03*
X0080144Y0082570D03*
X0062144Y0094570D03*
X0050144Y0083470D03*
X0042644Y0093070D03*
X0043244Y0102070D03*
X0051644Y0116170D03*
X0052244Y0121570D03*
X0048044Y0125470D03*
X0042344Y0128470D03*
X0039044Y0117670D03*
X0066344Y0107170D03*
X0068744Y0109570D03*
X0075044Y0132070D03*
X0066944Y0135370D03*
X0047744Y0142870D03*
X0072944Y0049870D03*
X0077144Y0045670D03*
X0042344Y0038770D03*
X0036044Y0041170D03*
X0198344Y0132070D03*
D22*
X0183644Y0127370D03*
X0173644Y0127370D03*
X0163644Y0127370D03*
X0153644Y0127370D03*
X0143644Y0127370D03*
X0162644Y0110370D03*
X0162644Y0104370D03*
X0161644Y0097370D03*
X0149644Y0096370D03*
X0143644Y0079370D03*
X0153644Y0055370D03*
X0159644Y0055370D03*
X0164644Y0055370D03*
X0181644Y0073370D03*
X0179644Y0079370D03*
X0188644Y0080370D03*
X0179644Y0086370D03*
X0180644Y0094370D03*
X0189644Y0097370D03*
X0189644Y0090370D03*
X0199644Y0092370D03*
X0205644Y0086370D03*
X0199644Y0082370D03*
X0189644Y0073370D03*
X0189644Y0105370D03*
X0178644Y0114370D03*
X0244644Y0141370D03*
X0251644Y0140370D03*
X0250644Y0148370D03*
X0249644Y0156370D03*
X0250644Y0092370D03*
X0248644Y0083370D03*
X0251644Y0076370D03*
X0231644Y0022370D03*
X0221644Y0022370D03*
X0212644Y0023370D03*
X0141644Y0036370D03*
X0081644Y0039370D03*
X0081644Y0055370D03*
X0076644Y0058370D03*
X0069644Y0060370D03*
X0070644Y0079370D03*
X0065644Y0083370D03*
X0070644Y0086370D03*
X0076644Y0096370D03*
X0077644Y0107370D03*
X0090644Y0104370D03*
X0100644Y0101370D03*
X0106644Y0100370D03*
X0106644Y0109370D03*
X0100644Y0110370D03*
X0102644Y0118370D03*
X0098644Y0121370D03*
X0102644Y0128370D03*
X0098644Y0132370D03*
X0087644Y0131370D03*
X0087644Y0135370D03*
X0077644Y0137370D03*
X0076644Y0128370D03*
X0068144Y0123870D03*
X0064644Y0128370D03*
X0059644Y0131370D03*
X0065644Y0117370D03*
X0077644Y0118370D03*
X0077644Y0122370D03*
X0053644Y0110370D03*
X0052644Y0105370D03*
X0037644Y0113370D03*
X0032644Y0104370D03*
X0032644Y0098370D03*
X0038644Y0073370D03*
X0042644Y0072370D03*
X0028644Y0059370D03*
X0021644Y0059370D03*
X0013644Y0059370D03*
X0018644Y0040370D03*
X0023644Y0040370D03*
X0102644Y0082370D03*
X0101644Y0092370D03*
X0107644Y0091370D03*
X0111644Y0143370D03*
X0104644Y0144370D03*
X0046644Y0156370D03*
X0039644Y0156370D03*
X0045644Y0164370D03*
X0035644Y0170370D03*
X0029644Y0164370D03*
X0017644Y0154370D03*
X0013644Y0146370D03*
X0019644Y0139370D03*
X0018644Y0131370D03*
D23*
X0025817Y0128718D02*
X0025695Y0127949D01*
X0025695Y0127559D01*
X0025695Y0127170D01*
X0025817Y0126400D01*
X0026058Y0125659D01*
X0026411Y0124965D01*
X0026869Y0124335D01*
X0027420Y0123784D01*
X0028050Y0123326D01*
X0028744Y0122972D01*
X0029485Y0122731D01*
X0030255Y0122609D01*
X0030644Y0122609D01*
X0030644Y0127559D01*
X0025695Y0127559D01*
X0030644Y0127559D01*
X0030644Y0127559D01*
X0030645Y0127559D01*
X0030645Y0122609D01*
X0031034Y0122609D01*
X0031804Y0122731D01*
X0032544Y0122972D01*
X0033144Y0123278D01*
X0033144Y0105266D01*
X0038544Y0099866D01*
X0038544Y0094766D01*
X0039894Y0093416D01*
X0039894Y0092523D01*
X0040313Y0091512D01*
X0041087Y0090739D01*
X0042097Y0090320D01*
X0043191Y0090320D01*
X0044202Y0090739D01*
X0044834Y0091370D01*
X0048840Y0091370D01*
X0103840Y0036370D01*
X0073644Y0036370D01*
X0073644Y0036028D01*
X0072233Y0036613D01*
X0069796Y0036613D01*
X0067545Y0035680D01*
X0065823Y0033957D01*
X0064890Y0031706D01*
X0064890Y0029270D01*
X0065823Y0027019D01*
X0067545Y0025296D01*
X0069796Y0024364D01*
X0072233Y0024364D01*
X0073644Y0024949D01*
X0073644Y0017670D01*
X0020541Y0017670D01*
X0022596Y0019725D01*
X0023844Y0022739D01*
X0023844Y0026001D01*
X0022596Y0029015D01*
X0020289Y0031322D01*
X0017276Y0032570D01*
X0014013Y0032570D01*
X0011000Y0031322D01*
X0008944Y0029267D01*
X0008944Y0173070D01*
X0011748Y0173070D01*
X0010693Y0172015D01*
X0009444Y0169001D01*
X0009444Y0165739D01*
X0010693Y0162725D01*
X0013000Y0160418D01*
X0016013Y0159170D01*
X0019276Y0159170D01*
X0022289Y0160418D01*
X0024596Y0162725D01*
X0025844Y0165739D01*
X0025844Y0169001D01*
X0024596Y0172015D01*
X0023541Y0173070D01*
X0240748Y0173070D01*
X0240693Y0173015D01*
X0239444Y0170001D01*
X0239444Y0166739D01*
X0240693Y0163725D01*
X0243000Y0161418D01*
X0246013Y0160170D01*
X0249276Y0160170D01*
X0252289Y0161418D01*
X0254339Y0163468D01*
X0254273Y0029338D01*
X0252289Y0031322D01*
X0249276Y0032570D01*
X0246013Y0032570D01*
X0243000Y0031322D01*
X0240693Y0029015D01*
X0239444Y0026001D01*
X0239444Y0022739D01*
X0240693Y0019725D01*
X0242748Y0017670D01*
X0201657Y0017670D01*
X0201968Y0017981D01*
X0202744Y0019856D01*
X0202744Y0021885D01*
X0201968Y0023759D01*
X0200533Y0025194D01*
X0198659Y0025970D01*
X0196630Y0025970D01*
X0194756Y0025194D01*
X0193321Y0023759D01*
X0193026Y0023048D01*
X0193009Y0023158D01*
X0192742Y0023981D01*
X0192348Y0024753D01*
X0191840Y0025453D01*
X0191227Y0026065D01*
X0190527Y0026574D01*
X0189756Y0026967D01*
X0188932Y0027235D01*
X0188077Y0027370D01*
X0187844Y0027370D01*
X0187844Y0022070D01*
X0187444Y0022070D01*
X0187444Y0027370D01*
X0187212Y0027370D01*
X0186357Y0027235D01*
X0185533Y0026967D01*
X0184762Y0026574D01*
X0184061Y0026065D01*
X0183449Y0025453D01*
X0182940Y0024753D01*
X0182547Y0023981D01*
X0182280Y0023158D01*
X0182263Y0023048D01*
X0181968Y0023759D01*
X0181753Y0023974D01*
X0193199Y0035420D01*
X0194091Y0035420D01*
X0195102Y0035839D01*
X0195876Y0036612D01*
X0196294Y0037623D01*
X0196294Y0038717D01*
X0195876Y0039728D01*
X0195102Y0040501D01*
X0194091Y0040920D01*
X0192997Y0040920D01*
X0191987Y0040501D01*
X0191213Y0039728D01*
X0190794Y0038717D01*
X0190794Y0037824D01*
X0178858Y0025888D01*
X0178659Y0025970D01*
X0176630Y0025970D01*
X0176219Y0025800D01*
X0171749Y0030270D01*
X0170249Y0030270D01*
X0168260Y0032259D01*
X0169670Y0031675D01*
X0171619Y0031675D01*
X0173420Y0032421D01*
X0174798Y0033799D01*
X0175544Y0035600D01*
X0175544Y0037549D01*
X0174798Y0039350D01*
X0173420Y0040729D01*
X0171619Y0041475D01*
X0169670Y0041475D01*
X0167869Y0040729D01*
X0166490Y0039350D01*
X0165744Y0037549D01*
X0165744Y0035600D01*
X0166490Y0033799D01*
X0167869Y0032421D01*
X0167991Y0032370D01*
X0162240Y0032370D01*
X0161244Y0031374D01*
X0160987Y0031117D01*
X0160602Y0031501D01*
X0159591Y0031920D01*
X0158497Y0031920D01*
X0157487Y0031501D01*
X0156713Y0030728D01*
X0156294Y0029717D01*
X0156294Y0028623D01*
X0156713Y0027612D01*
X0157487Y0026839D01*
X0158497Y0026420D01*
X0159590Y0026420D01*
X0158999Y0025829D01*
X0158659Y0025970D01*
X0156630Y0025970D01*
X0154756Y0025194D01*
X0153321Y0023759D01*
X0152544Y0021885D01*
X0152544Y0019856D01*
X0153321Y0017981D01*
X0153632Y0017670D01*
X0148644Y0017670D01*
X0148644Y0027020D01*
X0149091Y0027020D01*
X0150102Y0027439D01*
X0150876Y0028212D01*
X0151294Y0029223D01*
X0151294Y0030116D01*
X0159294Y0038116D01*
X0159294Y0037023D01*
X0159713Y0036012D01*
X0160487Y0035239D01*
X0161497Y0034820D01*
X0162591Y0034820D01*
X0163602Y0035239D01*
X0164376Y0036012D01*
X0164794Y0037023D01*
X0164794Y0037916D01*
X0178349Y0051470D01*
X0202349Y0051470D01*
X0204449Y0053570D01*
X0205201Y0053570D01*
X0206231Y0053996D01*
X0207018Y0054784D01*
X0207444Y0055813D01*
X0207444Y0056927D01*
X0207018Y0057956D01*
X0206231Y0058744D01*
X0205201Y0059170D01*
X0204088Y0059170D01*
X0203058Y0058744D01*
X0202271Y0057956D01*
X0201844Y0056927D01*
X0201844Y0055813D01*
X0201856Y0055786D01*
X0200940Y0054870D01*
X0176940Y0054870D01*
X0175944Y0053874D01*
X0162390Y0040320D01*
X0161499Y0040320D01*
X0185399Y0064220D01*
X0186291Y0064220D01*
X0187302Y0064639D01*
X0188076Y0065412D01*
X0188494Y0066423D01*
X0188494Y0067517D01*
X0188076Y0068528D01*
X0187302Y0069301D01*
X0186291Y0069720D01*
X0185197Y0069720D01*
X0184187Y0069301D01*
X0183413Y0068528D01*
X0182994Y0067517D01*
X0182994Y0066624D01*
X0162394Y0046024D01*
X0162394Y0047117D01*
X0161976Y0048128D01*
X0161202Y0048901D01*
X0160191Y0049320D01*
X0159097Y0049320D01*
X0158087Y0048901D01*
X0157455Y0048270D01*
X0153434Y0048270D01*
X0152802Y0048901D01*
X0151791Y0049320D01*
X0150697Y0049320D01*
X0149687Y0048901D01*
X0148913Y0048128D01*
X0148494Y0047117D01*
X0148494Y0046023D01*
X0148913Y0045012D01*
X0149687Y0044239D01*
X0150697Y0043820D01*
X0151791Y0043820D01*
X0152802Y0044239D01*
X0153434Y0044870D01*
X0157455Y0044870D01*
X0158087Y0044239D01*
X0159097Y0043820D01*
X0160190Y0043820D01*
X0148890Y0032520D01*
X0148644Y0032520D01*
X0148644Y0036370D01*
X0132649Y0036370D01*
X0133144Y0036866D01*
X0144952Y0048673D01*
X0145487Y0048139D01*
X0146497Y0047720D01*
X0147591Y0047720D01*
X0148602Y0048139D01*
X0149376Y0048912D01*
X0149794Y0049923D01*
X0149794Y0051017D01*
X0149376Y0052028D01*
X0148602Y0052801D01*
X0147591Y0053220D01*
X0146497Y0053220D01*
X0145487Y0052801D01*
X0144855Y0052170D01*
X0143640Y0052170D01*
X0138312Y0046841D01*
X0138276Y0046928D01*
X0137502Y0047701D01*
X0137416Y0047737D01*
X0167849Y0078170D01*
X0168844Y0079166D01*
X0168844Y0079445D01*
X0168869Y0079421D01*
X0170670Y0078675D01*
X0172619Y0078675D01*
X0174420Y0079421D01*
X0175798Y0080799D01*
X0176544Y0082600D01*
X0176544Y0084549D01*
X0175798Y0086350D01*
X0174420Y0087729D01*
X0172619Y0088475D01*
X0170670Y0088475D01*
X0168869Y0087729D01*
X0167490Y0086350D01*
X0166744Y0084549D01*
X0166744Y0082600D01*
X0166869Y0082299D01*
X0166444Y0081874D01*
X0166444Y0088166D01*
X0199049Y0120770D01*
X0200044Y0121766D01*
X0200044Y0129881D01*
X0200676Y0130512D01*
X0201094Y0131523D01*
X0201094Y0132617D01*
X0200676Y0133628D01*
X0199902Y0134401D01*
X0198891Y0134820D01*
X0197797Y0134820D01*
X0197644Y0134757D01*
X0197644Y0141266D01*
X0207449Y0151070D01*
X0208090Y0151712D01*
X0208532Y0151270D01*
X0212757Y0151270D01*
X0215744Y0154258D01*
X0215744Y0158483D01*
X0212857Y0161370D01*
X0215744Y0164258D01*
X0215744Y0168483D01*
X0212757Y0171470D01*
X0208532Y0171470D01*
X0205644Y0168583D01*
X0202757Y0171470D01*
X0198532Y0171470D01*
X0195644Y0168583D01*
X0192757Y0171470D01*
X0188532Y0171470D01*
X0185644Y0168583D01*
X0182757Y0171470D01*
X0178532Y0171470D01*
X0175644Y0168583D01*
X0172757Y0171470D01*
X0168532Y0171470D01*
X0165644Y0168583D01*
X0162757Y0171470D01*
X0158532Y0171470D01*
X0155644Y0168583D01*
X0152757Y0171470D01*
X0148532Y0171470D01*
X0145644Y0168583D01*
X0142757Y0171470D01*
X0138532Y0171470D01*
X0135544Y0168483D01*
X0135544Y0166620D01*
X0134497Y0166620D01*
X0133487Y0166201D01*
X0132713Y0165428D01*
X0132294Y0164417D01*
X0132294Y0164070D01*
X0131557Y0164070D01*
X0131744Y0164258D01*
X0131744Y0168483D01*
X0128757Y0171470D01*
X0124532Y0171470D01*
X0121644Y0168583D01*
X0118757Y0171470D01*
X0114532Y0171470D01*
X0111644Y0168583D01*
X0108757Y0171470D01*
X0104532Y0171470D01*
X0101644Y0168583D01*
X0098757Y0171470D01*
X0094532Y0171470D01*
X0091644Y0168583D01*
X0088757Y0171470D01*
X0084532Y0171470D01*
X0081644Y0168583D01*
X0078757Y0171470D01*
X0074532Y0171470D01*
X0071644Y0168583D01*
X0068757Y0171470D01*
X0064532Y0171470D01*
X0061644Y0168583D01*
X0058757Y0171470D01*
X0054532Y0171470D01*
X0051544Y0168483D01*
X0051544Y0164258D01*
X0054432Y0161370D01*
X0051544Y0158483D01*
X0051544Y0154258D01*
X0054532Y0151270D01*
X0058757Y0151270D01*
X0059099Y0151612D01*
X0059640Y0151070D01*
X0070944Y0139766D01*
X0070944Y0133774D01*
X0069694Y0135024D01*
X0069694Y0135917D01*
X0069276Y0136928D01*
X0068502Y0137701D01*
X0067491Y0138120D01*
X0066397Y0138120D01*
X0065387Y0137701D01*
X0064613Y0136928D01*
X0064194Y0135917D01*
X0064194Y0134823D01*
X0064613Y0133812D01*
X0065387Y0133039D01*
X0066397Y0132620D01*
X0067290Y0132620D01*
X0069444Y0130466D01*
X0069444Y0112257D01*
X0069291Y0112320D01*
X0068197Y0112320D01*
X0067187Y0111901D01*
X0066413Y0111128D01*
X0066026Y0110193D01*
X0054994Y0121224D01*
X0054994Y0122117D01*
X0054576Y0123128D01*
X0053802Y0123901D01*
X0052791Y0124320D01*
X0051697Y0124320D01*
X0051444Y0124215D01*
X0051444Y0126146D01*
X0050927Y0127396D01*
X0049970Y0128352D01*
X0048721Y0128870D01*
X0047368Y0128870D01*
X0046119Y0128352D01*
X0045744Y0127978D01*
X0045744Y0129146D01*
X0045227Y0130396D01*
X0044270Y0131352D01*
X0043021Y0131870D01*
X0041668Y0131870D01*
X0040744Y0131487D01*
X0040744Y0143274D01*
X0039749Y0144270D01*
X0039749Y0144270D01*
X0034769Y0149250D01*
X0035118Y0150092D01*
X0044040Y0141170D01*
X0045555Y0141170D01*
X0046187Y0140539D01*
X0047197Y0140120D01*
X0048291Y0140120D01*
X0049302Y0140539D01*
X0050076Y0141312D01*
X0050494Y0142323D01*
X0050494Y0143417D01*
X0050076Y0144428D01*
X0049302Y0145201D01*
X0048291Y0145620D01*
X0047197Y0145620D01*
X0046187Y0145201D01*
X0045555Y0144570D01*
X0045449Y0144570D01*
X0033844Y0156174D01*
X0032849Y0157170D01*
X0028440Y0157170D01*
X0025740Y0154470D01*
X0024744Y0153474D01*
X0024744Y0146966D01*
X0026506Y0145204D01*
X0026095Y0144212D01*
X0026095Y0142402D01*
X0026788Y0140730D01*
X0028067Y0139450D01*
X0028261Y0139370D01*
X0028067Y0139290D01*
X0026788Y0138010D01*
X0026095Y0136338D01*
X0026095Y0134528D01*
X0026788Y0132856D01*
X0027935Y0131708D01*
X0027420Y0131334D01*
X0026869Y0130784D01*
X0026411Y0130153D01*
X0026058Y0129459D01*
X0025817Y0128718D01*
X0025864Y0128864D02*
X0008944Y0128864D01*
X0008944Y0127266D02*
X0025695Y0127266D01*
X0026055Y0125667D02*
X0008944Y0125667D01*
X0008944Y0124069D02*
X0027135Y0124069D01*
X0030644Y0124069D02*
X0030645Y0124069D01*
X0030644Y0125667D02*
X0030645Y0125667D01*
X0030644Y0127266D02*
X0030645Y0127266D01*
X0026636Y0130463D02*
X0008944Y0130463D01*
X0008944Y0132061D02*
X0027582Y0132061D01*
X0026454Y0133660D02*
X0008944Y0133660D01*
X0008944Y0135258D02*
X0026095Y0135258D01*
X0026310Y0136857D02*
X0008944Y0136857D01*
X0008944Y0138455D02*
X0027233Y0138455D01*
X0027463Y0140054D02*
X0008944Y0140054D01*
X0008944Y0141652D02*
X0026405Y0141652D01*
X0026095Y0143251D02*
X0008944Y0143251D01*
X0008944Y0144849D02*
X0026359Y0144849D01*
X0025262Y0146448D02*
X0008944Y0146448D01*
X0008944Y0148047D02*
X0024744Y0148047D01*
X0024744Y0149645D02*
X0008944Y0149645D01*
X0008944Y0151244D02*
X0024744Y0151244D01*
X0024744Y0152842D02*
X0008944Y0152842D01*
X0008944Y0154441D02*
X0025711Y0154441D01*
X0027309Y0156039D02*
X0008944Y0156039D01*
X0008944Y0157638D02*
X0051544Y0157638D01*
X0051544Y0156039D02*
X0033980Y0156039D01*
X0035578Y0154441D02*
X0051544Y0154441D01*
X0052960Y0152842D02*
X0037177Y0152842D01*
X0038775Y0151244D02*
X0059467Y0151244D01*
X0061065Y0149645D02*
X0040374Y0149645D01*
X0041972Y0148047D02*
X0062664Y0148047D01*
X0064262Y0146448D02*
X0043571Y0146448D01*
X0045169Y0144849D02*
X0045835Y0144849D01*
X0041959Y0143251D02*
X0040744Y0143251D01*
X0040744Y0141652D02*
X0043558Y0141652D01*
X0040744Y0140054D02*
X0070656Y0140054D01*
X0070944Y0138455D02*
X0040744Y0138455D01*
X0040744Y0136857D02*
X0064584Y0136857D01*
X0064194Y0135258D02*
X0040744Y0135258D01*
X0040744Y0133660D02*
X0064766Y0133660D01*
X0067849Y0132061D02*
X0040744Y0132061D01*
X0045160Y0130463D02*
X0069444Y0130463D01*
X0069444Y0128864D02*
X0048735Y0128864D01*
X0047354Y0128864D02*
X0045744Y0128864D01*
X0050981Y0127266D02*
X0069444Y0127266D01*
X0069444Y0125667D02*
X0051444Y0125667D01*
X0053398Y0124069D02*
X0069444Y0124069D01*
X0069444Y0122470D02*
X0054848Y0122470D01*
X0055347Y0120872D02*
X0069444Y0120872D01*
X0069444Y0119273D02*
X0056945Y0119273D01*
X0058544Y0117675D02*
X0069444Y0117675D01*
X0069444Y0116076D02*
X0060142Y0116076D01*
X0061741Y0114478D02*
X0069444Y0114478D01*
X0069444Y0112879D02*
X0063339Y0112879D01*
X0064938Y0111281D02*
X0066566Y0111281D01*
X0063327Y0108084D02*
X0046644Y0108084D01*
X0046644Y0109682D02*
X0061728Y0109682D01*
X0060130Y0111281D02*
X0046644Y0111281D01*
X0046644Y0112879D02*
X0050705Y0112879D01*
X0050968Y0112770D02*
X0052321Y0112770D01*
X0053570Y0113288D01*
X0054527Y0114244D01*
X0055044Y0115494D01*
X0055044Y0116366D01*
X0063623Y0107787D01*
X0063594Y0107717D01*
X0063594Y0106623D01*
X0064013Y0105612D01*
X0064787Y0104839D01*
X0065797Y0104420D01*
X0066890Y0104420D01*
X0061440Y0098970D01*
X0060444Y0097974D01*
X0060444Y0096759D01*
X0059813Y0096128D01*
X0059394Y0095117D01*
X0059394Y0094023D01*
X0059813Y0093012D01*
X0060587Y0092239D01*
X0061597Y0091820D01*
X0062691Y0091820D01*
X0063702Y0092239D01*
X0064476Y0093012D01*
X0064894Y0094023D01*
X0064894Y0095117D01*
X0064476Y0096128D01*
X0063941Y0096663D01*
X0069444Y0102166D01*
X0069444Y0092366D01*
X0070440Y0091370D01*
X0072744Y0089066D01*
X0072744Y0072274D01*
X0050249Y0094770D01*
X0044834Y0094770D01*
X0044202Y0095401D01*
X0043191Y0095820D01*
X0042299Y0095820D01*
X0041944Y0096174D01*
X0041944Y0098928D01*
X0042568Y0098670D01*
X0043921Y0098670D01*
X0045170Y0099188D01*
X0046127Y0100144D01*
X0046644Y0101394D01*
X0046644Y0116362D01*
X0049719Y0113288D01*
X0050968Y0112770D01*
X0052584Y0112879D02*
X0058531Y0112879D01*
X0056933Y0114478D02*
X0054624Y0114478D01*
X0055044Y0116076D02*
X0055334Y0116076D01*
X0048528Y0114478D02*
X0046644Y0114478D01*
X0046644Y0116076D02*
X0046930Y0116076D01*
X0039844Y0115025D02*
X0039844Y0103374D01*
X0036544Y0106674D01*
X0036544Y0116520D01*
X0036713Y0116112D01*
X0037487Y0115339D01*
X0038497Y0114920D01*
X0039591Y0114920D01*
X0039844Y0115025D01*
X0039844Y0114478D02*
X0036544Y0114478D01*
X0036544Y0116076D02*
X0036749Y0116076D01*
X0036544Y0112879D02*
X0039844Y0112879D01*
X0039844Y0111281D02*
X0036544Y0111281D01*
X0036544Y0109682D02*
X0039844Y0109682D01*
X0039844Y0108084D02*
X0036544Y0108084D01*
X0036733Y0106485D02*
X0039844Y0106485D01*
X0039844Y0104887D02*
X0038332Y0104887D01*
X0035122Y0103288D02*
X0008944Y0103288D01*
X0008944Y0101690D02*
X0036721Y0101690D01*
X0038319Y0100091D02*
X0008944Y0100091D01*
X0008944Y0098493D02*
X0038544Y0098493D01*
X0038544Y0096894D02*
X0008944Y0096894D01*
X0008944Y0095296D02*
X0038544Y0095296D01*
X0039613Y0093697D02*
X0008944Y0093697D01*
X0008944Y0092099D02*
X0040070Y0092099D01*
X0041663Y0090500D02*
X0008944Y0090500D01*
X0008944Y0088902D02*
X0051309Y0088902D01*
X0050821Y0086870D02*
X0049468Y0086870D01*
X0048219Y0086352D01*
X0047262Y0085396D01*
X0046744Y0084146D01*
X0046744Y0080094D01*
X0047262Y0078844D01*
X0049994Y0076112D01*
X0049994Y0073030D01*
X0051244Y0071780D01*
X0051244Y0056678D01*
X0048519Y0053952D01*
X0047562Y0052996D01*
X0047044Y0051746D01*
X0047044Y0051547D01*
X0046845Y0051066D01*
X0046845Y0049674D01*
X0047378Y0048387D01*
X0048363Y0047403D01*
X0049649Y0046870D01*
X0050332Y0046870D01*
X0050113Y0046342D01*
X0050113Y0044949D01*
X0050646Y0043663D01*
X0051630Y0042679D01*
X0052917Y0042146D01*
X0054309Y0042146D01*
X0055596Y0042679D01*
X0056580Y0043663D01*
X0056704Y0043961D01*
X0056827Y0043663D01*
X0057812Y0042679D01*
X0059098Y0042146D01*
X0060490Y0042146D01*
X0061777Y0042679D01*
X0062761Y0043663D01*
X0063294Y0044949D01*
X0063294Y0046342D01*
X0063241Y0046470D01*
X0063328Y0046470D01*
X0064081Y0046620D01*
X0064791Y0046914D01*
X0065430Y0047341D01*
X0065973Y0047884D01*
X0066400Y0048523D01*
X0066694Y0049232D01*
X0066844Y0049986D01*
X0066844Y0050370D01*
X0062944Y0050370D01*
X0062944Y0050370D01*
X0066844Y0050370D01*
X0066844Y0050754D01*
X0066694Y0051508D01*
X0066400Y0052217D01*
X0065973Y0052856D01*
X0065430Y0053399D01*
X0064791Y0053826D01*
X0064081Y0054120D01*
X0063328Y0054270D01*
X0062944Y0054270D01*
X0062944Y0050370D01*
X0062944Y0050370D01*
X0062944Y0054270D01*
X0062560Y0054270D01*
X0061806Y0054120D01*
X0061096Y0053826D01*
X0060458Y0053399D01*
X0059914Y0052856D01*
X0059591Y0052373D01*
X0058627Y0053337D01*
X0057686Y0053727D01*
X0058044Y0054594D01*
X0058044Y0069780D01*
X0061294Y0073030D01*
X0061294Y0077710D01*
X0057985Y0081020D01*
X0054703Y0081020D01*
X0053544Y0082178D01*
X0053544Y0084146D01*
X0053027Y0085396D01*
X0052070Y0086352D01*
X0050821Y0086870D01*
X0052907Y0087303D02*
X0008944Y0087303D01*
X0008944Y0085705D02*
X0047571Y0085705D01*
X0046744Y0084106D02*
X0008944Y0084106D01*
X0008944Y0082508D02*
X0046744Y0082508D01*
X0046744Y0080909D02*
X0008944Y0080909D01*
X0008944Y0079311D02*
X0047069Y0079311D01*
X0048394Y0077712D02*
X0008944Y0077712D01*
X0008944Y0076114D02*
X0049993Y0076114D01*
X0049994Y0074515D02*
X0008944Y0074515D01*
X0008944Y0072916D02*
X0050108Y0072916D01*
X0051244Y0071318D02*
X0008944Y0071318D01*
X0008944Y0069719D02*
X0051244Y0069719D01*
X0051244Y0068121D02*
X0008944Y0068121D01*
X0008944Y0066522D02*
X0051244Y0066522D01*
X0051244Y0064924D02*
X0044081Y0064924D01*
X0043985Y0065020D02*
X0039304Y0065020D01*
X0035994Y0061710D01*
X0035994Y0057030D01*
X0039304Y0053720D01*
X0043985Y0053720D01*
X0047294Y0057030D01*
X0047294Y0061710D01*
X0043985Y0065020D01*
X0045679Y0063325D02*
X0051244Y0063325D01*
X0051244Y0061727D02*
X0047278Y0061727D01*
X0047294Y0060128D02*
X0051244Y0060128D01*
X0051244Y0058530D02*
X0047294Y0058530D01*
X0047196Y0056931D02*
X0051244Y0056931D01*
X0049899Y0055333D02*
X0045598Y0055333D01*
X0043999Y0053734D02*
X0048300Y0053734D01*
X0047206Y0052136D02*
X0008944Y0052136D01*
X0008944Y0053734D02*
X0039290Y0053734D01*
X0037691Y0055333D02*
X0008944Y0055333D01*
X0008944Y0056931D02*
X0036093Y0056931D01*
X0035994Y0058530D02*
X0008944Y0058530D01*
X0008944Y0060128D02*
X0035994Y0060128D01*
X0036011Y0061727D02*
X0008944Y0061727D01*
X0008944Y0063325D02*
X0037610Y0063325D01*
X0039208Y0064924D02*
X0008944Y0064924D01*
X0008944Y0050537D02*
X0046845Y0050537D01*
X0047150Y0048939D02*
X0008944Y0048939D01*
X0008944Y0047340D02*
X0048514Y0047340D01*
X0050113Y0045742D02*
X0008944Y0045742D01*
X0008944Y0044143D02*
X0050447Y0044143D01*
X0051953Y0042545D02*
X0040974Y0042545D01*
X0040649Y0042870D02*
X0038234Y0042870D01*
X0037602Y0043501D01*
X0036591Y0043920D01*
X0035497Y0043920D01*
X0034487Y0043501D01*
X0033713Y0042728D01*
X0033294Y0041717D01*
X0033294Y0040623D01*
X0033713Y0039612D01*
X0034487Y0038839D01*
X0035497Y0038420D01*
X0036591Y0038420D01*
X0037602Y0038839D01*
X0038234Y0039470D01*
X0039240Y0039470D01*
X0039594Y0039116D01*
X0039594Y0038223D01*
X0040013Y0037212D01*
X0040743Y0036483D01*
X0038805Y0035680D01*
X0037082Y0033957D01*
X0036150Y0031706D01*
X0036150Y0029270D01*
X0036751Y0027820D01*
X0034150Y0030420D01*
X0032144Y0030420D01*
X0032144Y0024870D01*
X0031144Y0024870D01*
X0031144Y0023870D01*
X0025594Y0023870D01*
X0025594Y0021864D01*
X0029138Y0018320D01*
X0031144Y0018320D01*
X0031144Y0023870D01*
X0032144Y0023870D01*
X0032144Y0018320D01*
X0034150Y0018320D01*
X0037694Y0021864D01*
X0037694Y0023870D01*
X0032145Y0023870D01*
X0032145Y0024870D01*
X0037694Y0024870D01*
X0037694Y0026407D01*
X0038805Y0025296D01*
X0041056Y0024364D01*
X0043493Y0024364D01*
X0045744Y0025296D01*
X0047466Y0027019D01*
X0048399Y0029270D01*
X0048399Y0031706D01*
X0047466Y0033957D01*
X0045744Y0035680D01*
X0043905Y0036442D01*
X0044676Y0037212D01*
X0045094Y0038223D01*
X0045094Y0039317D01*
X0044676Y0040328D01*
X0043902Y0041101D01*
X0042891Y0041520D01*
X0041999Y0041520D01*
X0041644Y0041874D01*
X0040649Y0042870D01*
X0039363Y0039348D02*
X0038111Y0039348D01*
X0039791Y0037749D02*
X0008944Y0037749D01*
X0008944Y0036151D02*
X0039941Y0036151D01*
X0037677Y0034552D02*
X0008944Y0034552D01*
X0008944Y0032954D02*
X0036667Y0032954D01*
X0036150Y0031355D02*
X0020209Y0031355D01*
X0021854Y0029757D02*
X0028475Y0029757D01*
X0029138Y0030420D02*
X0025594Y0026876D01*
X0025594Y0024870D01*
X0031144Y0024870D01*
X0031144Y0030420D01*
X0029138Y0030420D01*
X0031144Y0029757D02*
X0032144Y0029757D01*
X0032144Y0028158D02*
X0031144Y0028158D01*
X0031144Y0026560D02*
X0032144Y0026560D01*
X0032144Y0024961D02*
X0031144Y0024961D01*
X0031144Y0023363D02*
X0032144Y0023363D01*
X0032144Y0021764D02*
X0031144Y0021764D01*
X0031144Y0020166D02*
X0032144Y0020166D01*
X0032144Y0018567D02*
X0031144Y0018567D01*
X0028891Y0018567D02*
X0021438Y0018567D01*
X0022779Y0020166D02*
X0027293Y0020166D01*
X0025694Y0021764D02*
X0023441Y0021764D01*
X0023844Y0023363D02*
X0025594Y0023363D01*
X0025594Y0024961D02*
X0023844Y0024961D01*
X0023613Y0026560D02*
X0025594Y0026560D01*
X0026877Y0028158D02*
X0022951Y0028158D01*
X0011080Y0031355D02*
X0008944Y0031355D01*
X0008944Y0029757D02*
X0009435Y0029757D01*
X0008944Y0039348D02*
X0033978Y0039348D01*
X0033294Y0040946D02*
X0008944Y0040946D01*
X0008944Y0042545D02*
X0033637Y0042545D01*
X0044057Y0040946D02*
X0099264Y0040946D01*
X0100863Y0039348D02*
X0045082Y0039348D01*
X0044898Y0037749D02*
X0102461Y0037749D01*
X0097666Y0042545D02*
X0061454Y0042545D01*
X0062960Y0044143D02*
X0074800Y0044143D01*
X0074813Y0044112D02*
X0075587Y0043339D01*
X0076597Y0042920D01*
X0077691Y0042920D01*
X0078702Y0043339D01*
X0079476Y0044112D01*
X0079894Y0045123D01*
X0079894Y0046217D01*
X0079476Y0047228D01*
X0078702Y0048001D01*
X0077691Y0048420D01*
X0076799Y0048420D01*
X0075694Y0049524D01*
X0075694Y0050417D01*
X0075276Y0051428D01*
X0074502Y0052201D01*
X0073491Y0052620D01*
X0072397Y0052620D01*
X0071387Y0052201D01*
X0070613Y0051428D01*
X0070194Y0050417D01*
X0070194Y0049323D01*
X0070613Y0048312D01*
X0071387Y0047539D01*
X0072397Y0047120D01*
X0073290Y0047120D01*
X0074394Y0046016D01*
X0074394Y0045123D01*
X0074813Y0044112D01*
X0074394Y0045742D02*
X0063294Y0045742D01*
X0065429Y0047340D02*
X0071866Y0047340D01*
X0070354Y0048939D02*
X0066572Y0048939D01*
X0066844Y0050537D02*
X0070244Y0050537D01*
X0071321Y0052136D02*
X0066434Y0052136D01*
X0064929Y0053734D02*
X0086476Y0053734D01*
X0088075Y0052136D02*
X0074568Y0052136D01*
X0075645Y0050537D02*
X0089673Y0050537D01*
X0091272Y0048939D02*
X0076280Y0048939D01*
X0079363Y0047340D02*
X0092870Y0047340D01*
X0094469Y0045742D02*
X0079894Y0045742D01*
X0079489Y0044143D02*
X0096067Y0044143D01*
X0084878Y0055333D02*
X0058044Y0055333D01*
X0058044Y0056931D02*
X0083279Y0056931D01*
X0081681Y0058530D02*
X0058044Y0058530D01*
X0058044Y0060128D02*
X0080082Y0060128D01*
X0078483Y0061727D02*
X0058044Y0061727D01*
X0058044Y0063325D02*
X0076885Y0063325D01*
X0075286Y0064924D02*
X0058044Y0064924D01*
X0058044Y0066522D02*
X0073688Y0066522D01*
X0072089Y0068121D02*
X0058044Y0068121D01*
X0058044Y0069719D02*
X0070491Y0069719D01*
X0068892Y0071318D02*
X0059583Y0071318D01*
X0061181Y0072916D02*
X0067294Y0072916D01*
X0065695Y0074515D02*
X0061294Y0074515D01*
X0061294Y0076114D02*
X0064097Y0076114D01*
X0062498Y0077712D02*
X0061293Y0077712D01*
X0060900Y0079311D02*
X0059694Y0079311D01*
X0059301Y0080909D02*
X0058096Y0080909D01*
X0057703Y0082508D02*
X0053544Y0082508D01*
X0053544Y0084106D02*
X0056104Y0084106D01*
X0054506Y0085705D02*
X0052718Y0085705D01*
X0056117Y0088902D02*
X0072744Y0088902D01*
X0072744Y0087303D02*
X0057716Y0087303D01*
X0059314Y0085705D02*
X0072744Y0085705D01*
X0072744Y0084106D02*
X0060913Y0084106D01*
X0062511Y0082508D02*
X0072744Y0082508D01*
X0072744Y0080909D02*
X0064110Y0080909D01*
X0065708Y0079311D02*
X0072744Y0079311D01*
X0072744Y0077712D02*
X0067307Y0077712D01*
X0068905Y0076114D02*
X0072744Y0076114D01*
X0072744Y0074515D02*
X0070504Y0074515D01*
X0072102Y0072916D02*
X0072744Y0072916D01*
X0085911Y0082508D02*
X0086310Y0082508D01*
X0086321Y0082481D02*
X0087756Y0081047D01*
X0089630Y0080270D01*
X0091659Y0080270D01*
X0093533Y0081047D01*
X0094968Y0082481D01*
X0095744Y0084356D01*
X0095744Y0086385D01*
X0094968Y0088259D01*
X0093533Y0089694D01*
X0091900Y0090370D01*
X0093533Y0091047D01*
X0094968Y0092481D01*
X0095744Y0094356D01*
X0095744Y0096385D01*
X0094968Y0098259D01*
X0093533Y0099694D01*
X0091659Y0100470D01*
X0089630Y0100470D01*
X0087756Y0099694D01*
X0086321Y0098259D01*
X0085544Y0096385D01*
X0085544Y0094356D01*
X0086321Y0092481D01*
X0087756Y0091047D01*
X0089389Y0090370D01*
X0087756Y0089694D01*
X0086321Y0088259D01*
X0085544Y0086385D01*
X0085544Y0084356D01*
X0086321Y0082481D01*
X0085648Y0084106D02*
X0084313Y0084106D01*
X0085544Y0085705D02*
X0082714Y0085705D01*
X0081116Y0087303D02*
X0085925Y0087303D01*
X0086964Y0088902D02*
X0079517Y0088902D01*
X0077919Y0090500D02*
X0089075Y0090500D01*
X0086703Y0092099D02*
X0076320Y0092099D01*
X0074722Y0093697D02*
X0085817Y0093697D01*
X0085544Y0095296D02*
X0074344Y0095296D01*
X0074344Y0094074D02*
X0074344Y0129383D01*
X0074497Y0129320D01*
X0075591Y0129320D01*
X0076602Y0129739D01*
X0076687Y0129823D01*
X0079440Y0127070D01*
X0088664Y0127070D01*
X0087756Y0126694D01*
X0086321Y0125259D01*
X0085544Y0123385D01*
X0085544Y0121356D01*
X0086321Y0119481D01*
X0087756Y0118047D01*
X0089389Y0117370D01*
X0087756Y0116694D01*
X0086321Y0115259D01*
X0085544Y0113385D01*
X0085544Y0111356D01*
X0086321Y0109481D01*
X0087756Y0108047D01*
X0089630Y0107270D01*
X0091659Y0107270D01*
X0093533Y0108047D01*
X0094968Y0109481D01*
X0095744Y0111356D01*
X0095744Y0113385D01*
X0094968Y0115259D01*
X0093533Y0116694D01*
X0091900Y0117370D01*
X0093533Y0118047D01*
X0094968Y0119481D01*
X0095744Y0121356D01*
X0095744Y0123385D01*
X0095461Y0124070D01*
X0105024Y0124070D01*
X0104882Y0123928D01*
X0104882Y0120812D01*
X0107086Y0118608D01*
X0110203Y0118608D01*
X0112407Y0120812D01*
X0112407Y0121104D01*
X0113422Y0120089D01*
X0112487Y0119701D01*
X0111713Y0118928D01*
X0111294Y0117917D01*
X0111294Y0116823D01*
X0111713Y0115812D01*
X0112487Y0115039D01*
X0113497Y0114620D01*
X0114390Y0114620D01*
X0117294Y0111716D01*
X0117294Y0110823D01*
X0117713Y0109812D01*
X0118487Y0109039D01*
X0119497Y0108620D01*
X0120591Y0108620D01*
X0121602Y0109039D01*
X0122376Y0109812D01*
X0122794Y0110823D01*
X0122794Y0111917D01*
X0122376Y0112928D01*
X0121602Y0113701D01*
X0120591Y0114120D01*
X0119699Y0114120D01*
X0116794Y0117024D01*
X0116794Y0117170D01*
X0119055Y0117170D01*
X0119687Y0116539D01*
X0120697Y0116120D01*
X0121791Y0116120D01*
X0122802Y0116539D01*
X0123576Y0117312D01*
X0123994Y0118323D01*
X0123994Y0119417D01*
X0123576Y0120428D01*
X0122802Y0121201D01*
X0122407Y0121365D01*
X0122407Y0123928D01*
X0120203Y0126132D01*
X0117086Y0126132D01*
X0114882Y0123928D01*
X0114882Y0123436D01*
X0111844Y0126474D01*
X0110849Y0127470D01*
X0094649Y0127470D01*
X0092644Y0129474D01*
X0091649Y0130470D01*
X0080849Y0130470D01*
X0078544Y0132774D01*
X0077549Y0133770D01*
X0077234Y0133770D01*
X0076602Y0134401D01*
X0075591Y0134820D01*
X0074497Y0134820D01*
X0074344Y0134757D01*
X0074344Y0141174D01*
X0062449Y0153070D01*
X0062590Y0153212D01*
X0064532Y0151270D01*
X0068757Y0151270D01*
X0071644Y0154158D01*
X0074532Y0151270D01*
X0078757Y0151270D01*
X0078999Y0151512D01*
X0082740Y0147770D01*
X0110249Y0147770D01*
X0111244Y0148766D01*
X0114140Y0151662D01*
X0114532Y0151270D01*
X0118757Y0151270D01*
X0121644Y0154158D01*
X0122892Y0152911D01*
X0122387Y0152701D01*
X0121613Y0151928D01*
X0121194Y0150917D01*
X0121194Y0149823D01*
X0121613Y0148812D01*
X0121644Y0148781D01*
X0121644Y0134966D01*
X0123444Y0133166D01*
X0123444Y0132791D01*
X0122987Y0132601D01*
X0122407Y0132021D01*
X0122407Y0133928D01*
X0120203Y0136132D01*
X0117086Y0136132D01*
X0114882Y0133928D01*
X0114882Y0130812D01*
X0117086Y0128608D01*
X0120203Y0128608D01*
X0121794Y0130200D01*
X0121794Y0129723D01*
X0122213Y0128712D01*
X0122987Y0127939D01*
X0123997Y0127520D01*
X0125091Y0127520D01*
X0126102Y0127939D01*
X0126876Y0128712D01*
X0126907Y0128787D01*
X0127086Y0128608D01*
X0128694Y0128608D01*
X0128694Y0128523D01*
X0129113Y0127512D01*
X0129887Y0126739D01*
X0130344Y0126549D01*
X0130344Y0125991D01*
X0130203Y0126132D01*
X0127086Y0126132D01*
X0124882Y0123928D01*
X0124882Y0120812D01*
X0126803Y0118891D01*
X0126587Y0118801D01*
X0125813Y0118028D01*
X0125394Y0117017D01*
X0125394Y0115923D01*
X0125813Y0114912D01*
X0126587Y0114139D01*
X0126673Y0114103D01*
X0120744Y0108174D01*
X0120744Y0094374D01*
X0096012Y0069641D01*
X0095976Y0069728D01*
X0095344Y0070359D01*
X0095344Y0073074D01*
X0074344Y0094074D01*
X0074344Y0096894D02*
X0085756Y0096894D01*
X0086555Y0098493D02*
X0074344Y0098493D01*
X0074344Y0100091D02*
X0088715Y0100091D01*
X0092574Y0100091D02*
X0120744Y0100091D01*
X0120744Y0098493D02*
X0094734Y0098493D01*
X0095533Y0096894D02*
X0120744Y0096894D01*
X0120744Y0095296D02*
X0095744Y0095296D01*
X0095472Y0093697D02*
X0120067Y0093697D01*
X0118469Y0092099D02*
X0094586Y0092099D01*
X0092214Y0090500D02*
X0116870Y0090500D01*
X0115272Y0088902D02*
X0094325Y0088902D01*
X0095364Y0087303D02*
X0113673Y0087303D01*
X0112075Y0085705D02*
X0095744Y0085705D01*
X0095641Y0084106D02*
X0110476Y0084106D01*
X0108878Y0082508D02*
X0094979Y0082508D01*
X0093202Y0080909D02*
X0107279Y0080909D01*
X0105681Y0079311D02*
X0089108Y0079311D01*
X0088087Y0080909D02*
X0087510Y0080909D01*
X0090707Y0077712D02*
X0104082Y0077712D01*
X0102484Y0076114D02*
X0092305Y0076114D01*
X0093904Y0074515D02*
X0100885Y0074515D01*
X0099287Y0072916D02*
X0095344Y0072916D01*
X0095344Y0071318D02*
X0097688Y0071318D01*
X0096090Y0069719D02*
X0095979Y0069719D01*
X0071310Y0090500D02*
X0054519Y0090500D01*
X0052920Y0092099D02*
X0060925Y0092099D01*
X0059529Y0093697D02*
X0051322Y0093697D01*
X0049710Y0090500D02*
X0043626Y0090500D01*
X0044308Y0095296D02*
X0059468Y0095296D01*
X0060444Y0096894D02*
X0041944Y0096894D01*
X0041944Y0098493D02*
X0060963Y0098493D01*
X0062561Y0100091D02*
X0046074Y0100091D01*
X0046644Y0101690D02*
X0064160Y0101690D01*
X0065758Y0103288D02*
X0046644Y0103288D01*
X0046644Y0104887D02*
X0064739Y0104887D01*
X0063652Y0106485D02*
X0046644Y0106485D01*
X0033524Y0104887D02*
X0008944Y0104887D01*
X0008944Y0106485D02*
X0033144Y0106485D01*
X0033144Y0108084D02*
X0008944Y0108084D01*
X0008944Y0109682D02*
X0033144Y0109682D01*
X0033144Y0111281D02*
X0008944Y0111281D01*
X0008944Y0112879D02*
X0033144Y0112879D01*
X0033144Y0114478D02*
X0008944Y0114478D01*
X0008944Y0116076D02*
X0033144Y0116076D01*
X0033144Y0117675D02*
X0008944Y0117675D01*
X0008944Y0119273D02*
X0033144Y0119273D01*
X0033144Y0120872D02*
X0008944Y0120872D01*
X0008944Y0122470D02*
X0033144Y0122470D01*
X0050217Y0141652D02*
X0069058Y0141652D01*
X0067459Y0143251D02*
X0050494Y0143251D01*
X0049654Y0144849D02*
X0065861Y0144849D01*
X0067472Y0148047D02*
X0082464Y0148047D01*
X0080865Y0149645D02*
X0065874Y0149645D01*
X0064275Y0151244D02*
X0079267Y0151244D01*
X0072960Y0152842D02*
X0070329Y0152842D01*
X0062960Y0152842D02*
X0062677Y0152842D01*
X0069071Y0146448D02*
X0121644Y0146448D01*
X0121644Y0144849D02*
X0070669Y0144849D01*
X0072268Y0143251D02*
X0121644Y0143251D01*
X0121644Y0141652D02*
X0073866Y0141652D01*
X0074344Y0140054D02*
X0121644Y0140054D01*
X0121644Y0138455D02*
X0074344Y0138455D01*
X0074344Y0136857D02*
X0121644Y0136857D01*
X0121644Y0135258D02*
X0121077Y0135258D01*
X0122407Y0133660D02*
X0122950Y0133660D01*
X0122447Y0132061D02*
X0122407Y0132061D01*
X0122150Y0128864D02*
X0120459Y0128864D01*
X0116830Y0128864D02*
X0110459Y0128864D01*
X0110203Y0128608D02*
X0112407Y0130812D01*
X0112407Y0133928D01*
X0110203Y0136132D01*
X0107086Y0136132D01*
X0104882Y0133928D01*
X0104882Y0130812D01*
X0107086Y0128608D01*
X0110203Y0128608D01*
X0111053Y0127266D02*
X0129360Y0127266D01*
X0126621Y0125667D02*
X0120668Y0125667D01*
X0122266Y0124069D02*
X0125023Y0124069D01*
X0124882Y0122470D02*
X0122407Y0122470D01*
X0123132Y0120872D02*
X0124882Y0120872D01*
X0123994Y0119273D02*
X0126421Y0119273D01*
X0125667Y0117675D02*
X0123726Y0117675D01*
X0125394Y0116076D02*
X0117742Y0116076D01*
X0119341Y0114478D02*
X0126248Y0114478D01*
X0125450Y0112879D02*
X0122396Y0112879D01*
X0122794Y0111281D02*
X0123851Y0111281D01*
X0122252Y0109682D02*
X0122246Y0109682D01*
X0120744Y0108084D02*
X0093571Y0108084D01*
X0095051Y0109682D02*
X0117843Y0109682D01*
X0117294Y0111281D02*
X0095713Y0111281D01*
X0095744Y0112879D02*
X0116131Y0112879D01*
X0114533Y0114478D02*
X0095292Y0114478D01*
X0094151Y0116076D02*
X0111604Y0116076D01*
X0111294Y0117675D02*
X0092636Y0117675D01*
X0094760Y0119273D02*
X0106421Y0119273D01*
X0104882Y0120872D02*
X0095544Y0120872D01*
X0095744Y0122470D02*
X0104882Y0122470D01*
X0105023Y0124069D02*
X0095461Y0124069D01*
X0093254Y0128864D02*
X0106830Y0128864D01*
X0105231Y0130463D02*
X0091656Y0130463D01*
X0086729Y0125667D02*
X0074344Y0125667D01*
X0074344Y0124069D02*
X0085828Y0124069D01*
X0085544Y0122470D02*
X0074344Y0122470D01*
X0074344Y0120872D02*
X0085745Y0120872D01*
X0086529Y0119273D02*
X0074344Y0119273D01*
X0074344Y0117675D02*
X0088653Y0117675D01*
X0087138Y0116076D02*
X0074344Y0116076D01*
X0074344Y0114478D02*
X0085997Y0114478D01*
X0085544Y0112879D02*
X0074344Y0112879D01*
X0074344Y0111281D02*
X0085575Y0111281D01*
X0086238Y0109682D02*
X0074344Y0109682D01*
X0074344Y0108084D02*
X0087718Y0108084D01*
X0074344Y0106485D02*
X0120744Y0106485D01*
X0120744Y0104887D02*
X0074344Y0104887D01*
X0074344Y0103288D02*
X0120744Y0103288D01*
X0120744Y0101690D02*
X0074344Y0101690D01*
X0069444Y0101690D02*
X0068968Y0101690D01*
X0069444Y0100091D02*
X0067370Y0100091D01*
X0065771Y0098493D02*
X0069444Y0098493D01*
X0069444Y0096894D02*
X0064173Y0096894D01*
X0064821Y0095296D02*
X0069444Y0095296D01*
X0069444Y0093697D02*
X0064759Y0093697D01*
X0063364Y0092099D02*
X0069712Y0092099D01*
X0110868Y0119273D02*
X0112059Y0119273D01*
X0112407Y0120872D02*
X0112639Y0120872D01*
X0114250Y0124069D02*
X0115023Y0124069D01*
X0116621Y0125667D02*
X0112651Y0125667D01*
X0112058Y0130463D02*
X0115231Y0130463D01*
X0114882Y0132061D02*
X0112407Y0132061D01*
X0112407Y0133660D02*
X0114882Y0133660D01*
X0116212Y0135258D02*
X0111077Y0135258D01*
X0106212Y0135258D02*
X0074344Y0135258D01*
X0070944Y0135258D02*
X0069694Y0135258D01*
X0069305Y0136857D02*
X0070944Y0136857D01*
X0077659Y0133660D02*
X0104882Y0133660D01*
X0104882Y0132061D02*
X0079257Y0132061D01*
X0077646Y0128864D02*
X0074344Y0128864D01*
X0074344Y0127266D02*
X0079245Y0127266D01*
X0110525Y0148047D02*
X0121644Y0148047D01*
X0121268Y0149645D02*
X0112124Y0149645D01*
X0113722Y0151244D02*
X0121330Y0151244D01*
X0120329Y0152842D02*
X0122726Y0152842D01*
X0135544Y0152842D02*
X0136960Y0152842D01*
X0135544Y0154258D02*
X0138532Y0151270D01*
X0142516Y0151270D01*
X0142913Y0150312D01*
X0143687Y0149539D01*
X0144697Y0149120D01*
X0145590Y0149120D01*
X0147744Y0146966D01*
X0148740Y0145970D01*
X0153255Y0145970D01*
X0153887Y0145339D01*
X0154897Y0144920D01*
X0155991Y0144920D01*
X0157002Y0145339D01*
X0157776Y0146112D01*
X0158194Y0147123D01*
X0158194Y0148217D01*
X0157776Y0149228D01*
X0157002Y0150001D01*
X0155991Y0150420D01*
X0154897Y0150420D01*
X0153887Y0150001D01*
X0153255Y0149370D01*
X0150149Y0149370D01*
X0147994Y0151524D01*
X0147994Y0151808D01*
X0148532Y0151270D01*
X0152757Y0151270D01*
X0155644Y0154158D01*
X0158532Y0151270D01*
X0162757Y0151270D01*
X0163149Y0151662D01*
X0166044Y0148766D01*
X0167040Y0147770D01*
X0169682Y0147770D01*
X0169494Y0147317D01*
X0169494Y0146424D01*
X0168990Y0145920D01*
X0168097Y0145920D01*
X0167087Y0145501D01*
X0166313Y0144728D01*
X0165894Y0143717D01*
X0165894Y0142623D01*
X0166313Y0141612D01*
X0167087Y0140839D01*
X0168097Y0140420D01*
X0169191Y0140420D01*
X0170202Y0140839D01*
X0170976Y0141612D01*
X0171394Y0142623D01*
X0171394Y0143516D01*
X0171899Y0144020D01*
X0172791Y0144020D01*
X0173802Y0144439D01*
X0174576Y0145212D01*
X0174994Y0146223D01*
X0174994Y0147317D01*
X0174807Y0147770D01*
X0194549Y0147770D01*
X0198290Y0151512D01*
X0198532Y0151270D01*
X0202757Y0151270D01*
X0204749Y0153262D01*
X0204790Y0153220D01*
X0194244Y0142674D01*
X0194244Y0122574D01*
X0141312Y0069641D01*
X0141276Y0069728D01*
X0140644Y0070359D01*
X0140644Y0094873D01*
X0140802Y0094939D01*
X0141576Y0095712D01*
X0141994Y0096723D01*
X0141994Y0097817D01*
X0141576Y0098828D01*
X0140802Y0099601D01*
X0139791Y0100020D01*
X0138697Y0100020D01*
X0137687Y0099601D01*
X0136913Y0098828D01*
X0136614Y0098105D01*
X0136099Y0098620D01*
X0137044Y0099566D01*
X0137044Y0107874D01*
X0134794Y0110124D01*
X0134794Y0111017D01*
X0134376Y0112028D01*
X0133602Y0112801D01*
X0132591Y0113220D01*
X0132399Y0113220D01*
X0137786Y0118608D01*
X0140203Y0118608D01*
X0142407Y0120812D01*
X0142407Y0123928D01*
X0140203Y0126132D01*
X0137086Y0126132D01*
X0136336Y0125382D01*
X0135544Y0126174D01*
X0135544Y0128966D01*
X0135749Y0129170D01*
X0136136Y0129558D01*
X0137086Y0128608D01*
X0140203Y0128608D01*
X0142407Y0130812D01*
X0142407Y0133928D01*
X0140203Y0136132D01*
X0137086Y0136132D01*
X0136286Y0135332D01*
X0135544Y0136074D01*
X0135544Y0158666D01*
X0138340Y0161462D01*
X0138432Y0161370D01*
X0135544Y0158483D01*
X0135544Y0154258D01*
X0135544Y0154441D02*
X0135544Y0154441D01*
X0135544Y0156039D02*
X0135544Y0156039D01*
X0135544Y0157638D02*
X0135544Y0157638D01*
X0136115Y0159236D02*
X0136298Y0159236D01*
X0137713Y0160835D02*
X0137897Y0160835D01*
X0132915Y0165630D02*
X0131744Y0165630D01*
X0131744Y0167229D02*
X0135544Y0167229D01*
X0135889Y0168827D02*
X0131400Y0168827D01*
X0129801Y0170426D02*
X0137488Y0170426D01*
X0143801Y0170426D02*
X0147488Y0170426D01*
X0145889Y0168827D02*
X0145400Y0168827D01*
X0153801Y0170426D02*
X0157488Y0170426D01*
X0155889Y0168827D02*
X0155400Y0168827D01*
X0163801Y0170426D02*
X0167488Y0170426D01*
X0165889Y0168827D02*
X0165400Y0168827D01*
X0173801Y0170426D02*
X0177488Y0170426D01*
X0175889Y0168827D02*
X0175400Y0168827D01*
X0183801Y0170426D02*
X0187488Y0170426D01*
X0185889Y0168827D02*
X0185400Y0168827D01*
X0193801Y0170426D02*
X0197488Y0170426D01*
X0195889Y0168827D02*
X0195400Y0168827D01*
X0203801Y0170426D02*
X0207488Y0170426D01*
X0205889Y0168827D02*
X0205400Y0168827D01*
X0213801Y0170426D02*
X0239620Y0170426D01*
X0239444Y0168827D02*
X0215400Y0168827D01*
X0215744Y0167229D02*
X0239444Y0167229D01*
X0239904Y0165630D02*
X0215744Y0165630D01*
X0215519Y0164032D02*
X0240566Y0164032D01*
X0241985Y0162433D02*
X0213920Y0162433D01*
X0213392Y0160835D02*
X0244409Y0160835D01*
X0250880Y0160835D02*
X0254337Y0160835D01*
X0254338Y0162433D02*
X0253304Y0162433D01*
X0254337Y0159236D02*
X0214991Y0159236D01*
X0215744Y0157638D02*
X0254336Y0157638D01*
X0254335Y0156039D02*
X0215744Y0156039D01*
X0215744Y0154441D02*
X0254334Y0154441D01*
X0254333Y0152842D02*
X0214329Y0152842D01*
X0207622Y0151244D02*
X0254333Y0151244D01*
X0254332Y0149645D02*
X0206024Y0149645D01*
X0204425Y0148047D02*
X0254331Y0148047D01*
X0254330Y0146448D02*
X0202827Y0146448D01*
X0201228Y0144849D02*
X0254329Y0144849D01*
X0254329Y0143251D02*
X0199630Y0143251D01*
X0198031Y0141652D02*
X0254328Y0141652D01*
X0254327Y0140054D02*
X0197644Y0140054D01*
X0197644Y0138455D02*
X0254326Y0138455D01*
X0254326Y0136857D02*
X0197644Y0136857D01*
X0197644Y0135258D02*
X0254325Y0135258D01*
X0254324Y0133660D02*
X0200644Y0133660D01*
X0201094Y0132061D02*
X0254323Y0132061D01*
X0254322Y0130463D02*
X0200626Y0130463D01*
X0200044Y0128864D02*
X0254322Y0128864D01*
X0254321Y0127266D02*
X0200044Y0127266D01*
X0200044Y0125667D02*
X0254320Y0125667D01*
X0254319Y0124069D02*
X0200044Y0124069D01*
X0200044Y0122470D02*
X0254318Y0122470D01*
X0254318Y0120872D02*
X0199150Y0120872D01*
X0197552Y0119273D02*
X0254317Y0119273D01*
X0254316Y0117675D02*
X0195953Y0117675D01*
X0194355Y0116076D02*
X0254315Y0116076D01*
X0254315Y0114478D02*
X0192756Y0114478D01*
X0191158Y0112879D02*
X0254314Y0112879D01*
X0254313Y0111281D02*
X0189559Y0111281D01*
X0187961Y0109682D02*
X0254312Y0109682D01*
X0254311Y0108084D02*
X0186362Y0108084D01*
X0184764Y0106485D02*
X0254311Y0106485D01*
X0254310Y0104887D02*
X0183165Y0104887D01*
X0181567Y0103288D02*
X0254309Y0103288D01*
X0254308Y0101690D02*
X0179968Y0101690D01*
X0178370Y0100091D02*
X0254307Y0100091D01*
X0254307Y0098493D02*
X0176771Y0098493D01*
X0175173Y0096894D02*
X0222245Y0096894D01*
X0222271Y0096956D02*
X0221844Y0095927D01*
X0221844Y0095274D01*
X0185940Y0059370D01*
X0185834Y0059370D01*
X0185202Y0060001D01*
X0184191Y0060420D01*
X0183097Y0060420D01*
X0182087Y0060001D01*
X0181313Y0059228D01*
X0180894Y0058217D01*
X0180894Y0057123D01*
X0181313Y0056112D01*
X0182087Y0055339D01*
X0183097Y0054920D01*
X0184191Y0054920D01*
X0185202Y0055339D01*
X0185834Y0055970D01*
X0185940Y0055970D01*
X0187349Y0055970D01*
X0223989Y0092611D01*
X0224088Y0092570D01*
X0225201Y0092570D01*
X0226231Y0092996D01*
X0227018Y0093784D01*
X0227444Y0094813D01*
X0227444Y0095927D01*
X0227018Y0096956D01*
X0226231Y0097744D01*
X0225201Y0098170D01*
X0224088Y0098170D01*
X0223058Y0097744D01*
X0222271Y0096956D01*
X0221844Y0095296D02*
X0173574Y0095296D01*
X0171976Y0093697D02*
X0220267Y0093697D01*
X0218669Y0092099D02*
X0170377Y0092099D01*
X0168779Y0090500D02*
X0217070Y0090500D01*
X0215472Y0088902D02*
X0167180Y0088902D01*
X0166444Y0087303D02*
X0168443Y0087303D01*
X0167223Y0085705D02*
X0166444Y0085705D01*
X0166444Y0084106D02*
X0166744Y0084106D01*
X0166783Y0082508D02*
X0166444Y0082508D01*
X0168844Y0079311D02*
X0169135Y0079311D01*
X0167391Y0077712D02*
X0204282Y0077712D01*
X0202684Y0076114D02*
X0165792Y0076114D01*
X0164194Y0074515D02*
X0201085Y0074515D01*
X0199487Y0072916D02*
X0162595Y0072916D01*
X0160997Y0071318D02*
X0197888Y0071318D01*
X0196290Y0069719D02*
X0186293Y0069719D01*
X0185196Y0069719D02*
X0159398Y0069719D01*
X0157800Y0068121D02*
X0183245Y0068121D01*
X0182893Y0066522D02*
X0173664Y0066522D01*
X0173422Y0066698D02*
X0172679Y0067077D01*
X0171886Y0067335D01*
X0171062Y0067465D01*
X0170730Y0067465D01*
X0170730Y0062251D01*
X0170559Y0062251D01*
X0170559Y0067465D01*
X0170227Y0067465D01*
X0169403Y0067335D01*
X0168610Y0067077D01*
X0167867Y0066698D01*
X0167192Y0066208D01*
X0166602Y0065618D01*
X0166112Y0064943D01*
X0165733Y0064200D01*
X0165475Y0063406D01*
X0165344Y0062582D01*
X0165344Y0062251D01*
X0170559Y0062251D01*
X0170559Y0062080D01*
X0165344Y0062080D01*
X0165344Y0061748D01*
X0165475Y0060924D01*
X0165733Y0060131D01*
X0166112Y0059388D01*
X0166602Y0058713D01*
X0167192Y0058123D01*
X0167867Y0057632D01*
X0168610Y0057254D01*
X0169403Y0056996D01*
X0170227Y0056865D01*
X0170559Y0056865D01*
X0170559Y0062079D01*
X0170730Y0062079D01*
X0170730Y0056865D01*
X0171062Y0056865D01*
X0171886Y0056996D01*
X0172679Y0057254D01*
X0173422Y0057632D01*
X0174097Y0058123D01*
X0174687Y0058713D01*
X0175177Y0059388D01*
X0175556Y0060131D01*
X0175814Y0060924D01*
X0175944Y0061748D01*
X0175944Y0062080D01*
X0170730Y0062080D01*
X0170730Y0062251D01*
X0175944Y0062251D01*
X0175944Y0062582D01*
X0175814Y0063406D01*
X0175556Y0064200D01*
X0175177Y0064943D01*
X0174687Y0065618D01*
X0174097Y0066208D01*
X0173422Y0066698D01*
X0175187Y0064924D02*
X0181294Y0064924D01*
X0179696Y0063325D02*
X0175827Y0063325D01*
X0175941Y0061727D02*
X0178097Y0061727D01*
X0176499Y0060128D02*
X0175555Y0060128D01*
X0174900Y0058530D02*
X0174504Y0058530D01*
X0173302Y0056931D02*
X0171478Y0056931D01*
X0170730Y0056931D02*
X0170559Y0056931D01*
X0169811Y0056931D02*
X0146610Y0056931D01*
X0145011Y0055333D02*
X0171703Y0055333D01*
X0170105Y0053734D02*
X0143413Y0053734D01*
X0143606Y0052136D02*
X0141814Y0052136D01*
X0142008Y0050537D02*
X0140216Y0050537D01*
X0140409Y0048939D02*
X0138617Y0048939D01*
X0138811Y0047340D02*
X0137863Y0047340D01*
X0142020Y0045742D02*
X0148611Y0045742D01*
X0148587Y0047340D02*
X0143619Y0047340D01*
X0140422Y0044143D02*
X0149917Y0044143D01*
X0152572Y0044143D02*
X0158317Y0044143D01*
X0158915Y0042545D02*
X0138823Y0042545D01*
X0137225Y0040946D02*
X0157317Y0040946D01*
X0155718Y0039348D02*
X0135626Y0039348D01*
X0134028Y0037749D02*
X0154120Y0037749D01*
X0152521Y0036151D02*
X0148644Y0036151D01*
X0148644Y0034552D02*
X0150922Y0034552D01*
X0149324Y0032954D02*
X0148644Y0032954D01*
X0151294Y0029757D02*
X0156311Y0029757D01*
X0156487Y0028158D02*
X0150822Y0028158D01*
X0148644Y0026560D02*
X0158160Y0026560D01*
X0154523Y0024961D02*
X0148644Y0024961D01*
X0148644Y0023363D02*
X0153157Y0023363D01*
X0152544Y0021764D02*
X0148644Y0021764D01*
X0148644Y0020166D02*
X0152544Y0020166D01*
X0153078Y0018567D02*
X0148644Y0018567D01*
X0152534Y0031355D02*
X0157341Y0031355D01*
X0154132Y0032954D02*
X0167336Y0032954D01*
X0166179Y0034552D02*
X0155731Y0034552D01*
X0157329Y0036151D02*
X0159656Y0036151D01*
X0159294Y0037749D02*
X0158928Y0037749D01*
X0162125Y0040946D02*
X0163017Y0040946D01*
X0163723Y0042545D02*
X0164615Y0042545D01*
X0165322Y0044143D02*
X0166214Y0044143D01*
X0166920Y0045742D02*
X0167812Y0045742D01*
X0168519Y0047340D02*
X0169411Y0047340D01*
X0170117Y0048939D02*
X0171009Y0048939D01*
X0171716Y0050537D02*
X0172608Y0050537D01*
X0173314Y0052136D02*
X0174206Y0052136D01*
X0174913Y0053734D02*
X0175805Y0053734D01*
X0176511Y0055333D02*
X0182101Y0055333D01*
X0180974Y0056931D02*
X0178110Y0056931D01*
X0179708Y0058530D02*
X0181024Y0058530D01*
X0181307Y0060128D02*
X0182393Y0060128D01*
X0182905Y0061727D02*
X0188297Y0061727D01*
X0186699Y0060128D02*
X0184896Y0060128D01*
X0184504Y0063325D02*
X0189896Y0063325D01*
X0191494Y0064924D02*
X0187587Y0064924D01*
X0188494Y0066522D02*
X0193093Y0066522D01*
X0194691Y0068121D02*
X0188244Y0068121D01*
X0193105Y0061727D02*
X0254289Y0061727D01*
X0254289Y0063325D02*
X0194704Y0063325D01*
X0196302Y0064924D02*
X0254290Y0064924D01*
X0254291Y0066522D02*
X0197901Y0066522D01*
X0199500Y0068121D02*
X0254292Y0068121D01*
X0254293Y0069719D02*
X0201098Y0069719D01*
X0202697Y0071318D02*
X0254293Y0071318D01*
X0254294Y0072916D02*
X0204295Y0072916D01*
X0205894Y0074515D02*
X0254295Y0074515D01*
X0254296Y0076114D02*
X0207492Y0076114D01*
X0209091Y0077712D02*
X0254296Y0077712D01*
X0254297Y0079311D02*
X0210689Y0079311D01*
X0212288Y0080909D02*
X0254298Y0080909D01*
X0254299Y0082508D02*
X0213886Y0082508D01*
X0215485Y0084106D02*
X0254300Y0084106D01*
X0254300Y0085705D02*
X0217083Y0085705D01*
X0218682Y0087303D02*
X0254301Y0087303D01*
X0254302Y0088902D02*
X0220280Y0088902D01*
X0221879Y0090500D02*
X0254303Y0090500D01*
X0254304Y0092099D02*
X0223477Y0092099D01*
X0226931Y0093697D02*
X0254304Y0093697D01*
X0254305Y0095296D02*
X0227444Y0095296D01*
X0227044Y0096894D02*
X0254306Y0096894D01*
X0213873Y0087303D02*
X0174846Y0087303D01*
X0176066Y0085705D02*
X0212275Y0085705D01*
X0210676Y0084106D02*
X0176544Y0084106D01*
X0176506Y0082508D02*
X0209078Y0082508D01*
X0207479Y0080909D02*
X0175844Y0080909D01*
X0174154Y0079311D02*
X0205881Y0079311D01*
X0191507Y0060128D02*
X0254288Y0060128D01*
X0254287Y0058530D02*
X0206444Y0058530D01*
X0207443Y0056931D02*
X0254286Y0056931D01*
X0254285Y0055333D02*
X0207246Y0055333D01*
X0205598Y0053734D02*
X0254285Y0053734D01*
X0254284Y0052136D02*
X0203014Y0052136D01*
X0201403Y0055333D02*
X0185188Y0055333D01*
X0188310Y0056931D02*
X0201846Y0056931D01*
X0202845Y0058530D02*
X0189908Y0058530D01*
X0177416Y0050537D02*
X0254283Y0050537D01*
X0254282Y0048939D02*
X0175817Y0048939D01*
X0174219Y0047340D02*
X0254281Y0047340D01*
X0254281Y0045742D02*
X0172620Y0045742D01*
X0171022Y0044143D02*
X0254280Y0044143D01*
X0254279Y0042545D02*
X0169423Y0042545D01*
X0168394Y0040946D02*
X0167825Y0040946D01*
X0166489Y0039348D02*
X0166226Y0039348D01*
X0165827Y0037749D02*
X0164794Y0037749D01*
X0164433Y0036151D02*
X0165744Y0036151D01*
X0169164Y0031355D02*
X0184325Y0031355D01*
X0182727Y0029757D02*
X0172262Y0029757D01*
X0173861Y0028158D02*
X0181128Y0028158D01*
X0179530Y0026560D02*
X0175459Y0026560D01*
X0173953Y0032954D02*
X0185924Y0032954D01*
X0187522Y0034552D02*
X0175110Y0034552D01*
X0175544Y0036151D02*
X0189121Y0036151D01*
X0190720Y0037749D02*
X0175462Y0037749D01*
X0174800Y0039348D02*
X0191056Y0039348D01*
X0196033Y0039348D02*
X0254278Y0039348D01*
X0254278Y0040946D02*
X0172895Y0040946D01*
X0163711Y0047340D02*
X0162302Y0047340D01*
X0161112Y0048939D02*
X0165309Y0048939D01*
X0166908Y0050537D02*
X0149794Y0050537D01*
X0149777Y0048939D02*
X0149387Y0048939D01*
X0149268Y0052136D02*
X0168506Y0052136D01*
X0166785Y0058530D02*
X0148208Y0058530D01*
X0149807Y0060128D02*
X0165734Y0060128D01*
X0165348Y0061727D02*
X0151405Y0061727D01*
X0153004Y0063325D02*
X0165462Y0063325D01*
X0166102Y0064924D02*
X0154602Y0064924D01*
X0156201Y0066522D02*
X0167625Y0066522D01*
X0170559Y0066522D02*
X0170730Y0066522D01*
X0170730Y0064924D02*
X0170559Y0064924D01*
X0170559Y0063325D02*
X0170730Y0063325D01*
X0170730Y0061727D02*
X0170559Y0061727D01*
X0170559Y0060128D02*
X0170730Y0060128D01*
X0170730Y0058530D02*
X0170559Y0058530D01*
X0158177Y0048939D02*
X0152712Y0048939D01*
X0160748Y0031355D02*
X0161225Y0031355D01*
X0182132Y0023363D02*
X0182346Y0023363D01*
X0182740Y0024961D02*
X0183092Y0024961D01*
X0184338Y0026560D02*
X0184742Y0026560D01*
X0185937Y0028158D02*
X0240338Y0028158D01*
X0239676Y0026560D02*
X0190547Y0026560D01*
X0192197Y0024961D02*
X0194523Y0024961D01*
X0193157Y0023363D02*
X0192943Y0023363D01*
X0187844Y0023363D02*
X0187444Y0023363D01*
X0187444Y0024961D02*
X0187844Y0024961D01*
X0187844Y0026560D02*
X0187444Y0026560D01*
X0187535Y0029757D02*
X0241435Y0029757D01*
X0243080Y0031355D02*
X0189134Y0031355D01*
X0190732Y0032954D02*
X0254274Y0032954D01*
X0254275Y0034552D02*
X0192331Y0034552D01*
X0195414Y0036151D02*
X0254276Y0036151D01*
X0254277Y0037749D02*
X0196294Y0037749D01*
X0200766Y0024961D02*
X0239444Y0024961D01*
X0239444Y0023363D02*
X0202132Y0023363D01*
X0202744Y0021764D02*
X0239848Y0021764D01*
X0240510Y0020166D02*
X0202744Y0020166D01*
X0202211Y0018567D02*
X0241851Y0018567D01*
X0253854Y0029757D02*
X0254273Y0029757D01*
X0254274Y0031355D02*
X0252209Y0031355D01*
X0165367Y0093697D02*
X0140644Y0093697D01*
X0140644Y0092099D02*
X0163769Y0092099D01*
X0162170Y0090500D02*
X0140644Y0090500D01*
X0140644Y0088902D02*
X0160572Y0088902D01*
X0158973Y0087303D02*
X0140644Y0087303D01*
X0140644Y0085705D02*
X0157375Y0085705D01*
X0155776Y0084106D02*
X0140644Y0084106D01*
X0140644Y0082508D02*
X0154178Y0082508D01*
X0152579Y0080909D02*
X0140644Y0080909D01*
X0140644Y0079311D02*
X0150981Y0079311D01*
X0149382Y0077712D02*
X0140644Y0077712D01*
X0140644Y0076114D02*
X0147784Y0076114D01*
X0146185Y0074515D02*
X0140644Y0074515D01*
X0140644Y0072916D02*
X0144587Y0072916D01*
X0142988Y0071318D02*
X0140644Y0071318D01*
X0141279Y0069719D02*
X0141390Y0069719D01*
X0141159Y0095296D02*
X0166966Y0095296D01*
X0168564Y0096894D02*
X0141994Y0096894D01*
X0141715Y0098493D02*
X0170163Y0098493D01*
X0171761Y0100091D02*
X0137044Y0100091D01*
X0137044Y0101690D02*
X0173360Y0101690D01*
X0174958Y0103288D02*
X0137044Y0103288D01*
X0137044Y0104887D02*
X0168517Y0104887D01*
X0168192Y0105123D02*
X0168867Y0104632D01*
X0169610Y0104254D01*
X0170403Y0103996D01*
X0171227Y0103865D01*
X0171559Y0103865D01*
X0171559Y0109079D01*
X0171730Y0109079D01*
X0171730Y0103865D01*
X0172062Y0103865D01*
X0172886Y0103996D01*
X0173679Y0104254D01*
X0174422Y0104632D01*
X0175097Y0105123D01*
X0175687Y0105713D01*
X0176177Y0106388D01*
X0176556Y0107131D01*
X0176814Y0107924D01*
X0176944Y0108748D01*
X0176944Y0109080D01*
X0171730Y0109080D01*
X0171730Y0109251D01*
X0171559Y0109251D01*
X0171559Y0114465D01*
X0171227Y0114465D01*
X0170403Y0114335D01*
X0169610Y0114077D01*
X0168867Y0113698D01*
X0168192Y0113208D01*
X0167602Y0112618D01*
X0167112Y0111943D01*
X0166733Y0111200D01*
X0166475Y0110406D01*
X0166344Y0109582D01*
X0166344Y0109251D01*
X0171559Y0109251D01*
X0171559Y0109080D01*
X0166344Y0109080D01*
X0166344Y0108748D01*
X0166475Y0107924D01*
X0166733Y0107131D01*
X0167112Y0106388D01*
X0167602Y0105713D01*
X0168192Y0105123D01*
X0167062Y0106485D02*
X0137044Y0106485D01*
X0136835Y0108084D02*
X0166450Y0108084D01*
X0166360Y0109682D02*
X0135236Y0109682D01*
X0134685Y0111281D02*
X0166774Y0111281D01*
X0167863Y0112879D02*
X0133414Y0112879D01*
X0133656Y0114478D02*
X0186148Y0114478D01*
X0187747Y0116076D02*
X0135255Y0116076D01*
X0136853Y0117675D02*
X0189345Y0117675D01*
X0190203Y0118608D02*
X0192407Y0120812D01*
X0192407Y0123928D01*
X0190203Y0126132D01*
X0187086Y0126132D01*
X0184882Y0123928D01*
X0184882Y0120812D01*
X0187086Y0118608D01*
X0190203Y0118608D01*
X0190868Y0119273D02*
X0190944Y0119273D01*
X0192407Y0120872D02*
X0192542Y0120872D01*
X0192407Y0122470D02*
X0194141Y0122470D01*
X0194244Y0124069D02*
X0192266Y0124069D01*
X0190668Y0125667D02*
X0194244Y0125667D01*
X0194244Y0127266D02*
X0135544Y0127266D01*
X0135544Y0128864D02*
X0136830Y0128864D01*
X0136621Y0125667D02*
X0136051Y0125667D01*
X0140668Y0125667D02*
X0146621Y0125667D01*
X0147086Y0126132D02*
X0144882Y0123928D01*
X0144882Y0120812D01*
X0147086Y0118608D01*
X0150203Y0118608D01*
X0152407Y0120812D01*
X0152407Y0123928D01*
X0150203Y0126132D01*
X0147086Y0126132D01*
X0145023Y0124069D02*
X0142266Y0124069D01*
X0142407Y0122470D02*
X0144882Y0122470D01*
X0144882Y0120872D02*
X0142407Y0120872D01*
X0140868Y0119273D02*
X0146421Y0119273D01*
X0150868Y0119273D02*
X0156421Y0119273D01*
X0157086Y0118608D02*
X0154882Y0120812D01*
X0154882Y0123928D01*
X0157086Y0126132D01*
X0160203Y0126132D01*
X0162407Y0123928D01*
X0162407Y0120812D01*
X0160203Y0118608D01*
X0157086Y0118608D01*
X0154882Y0120872D02*
X0152407Y0120872D01*
X0152407Y0122470D02*
X0154882Y0122470D01*
X0155023Y0124069D02*
X0152266Y0124069D01*
X0150668Y0125667D02*
X0156621Y0125667D01*
X0157086Y0128608D02*
X0160203Y0128608D01*
X0162407Y0130812D01*
X0162407Y0133928D01*
X0160203Y0136132D01*
X0157086Y0136132D01*
X0154882Y0133928D01*
X0154882Y0130812D01*
X0157086Y0128608D01*
X0156830Y0128864D02*
X0150459Y0128864D01*
X0150203Y0128608D02*
X0152407Y0130812D01*
X0152407Y0133928D01*
X0150203Y0136132D01*
X0147086Y0136132D01*
X0144882Y0133928D01*
X0144882Y0130812D01*
X0147086Y0128608D01*
X0150203Y0128608D01*
X0152058Y0130463D02*
X0155231Y0130463D01*
X0154882Y0132061D02*
X0152407Y0132061D01*
X0152407Y0133660D02*
X0154882Y0133660D01*
X0156212Y0135258D02*
X0151077Y0135258D01*
X0146212Y0135258D02*
X0141077Y0135258D01*
X0142407Y0133660D02*
X0144882Y0133660D01*
X0144882Y0132061D02*
X0142407Y0132061D01*
X0142058Y0130463D02*
X0145231Y0130463D01*
X0146830Y0128864D02*
X0140459Y0128864D01*
X0135544Y0136857D02*
X0194244Y0136857D01*
X0194244Y0138455D02*
X0135544Y0138455D01*
X0135544Y0140054D02*
X0194244Y0140054D01*
X0194244Y0141652D02*
X0170992Y0141652D01*
X0171394Y0143251D02*
X0194821Y0143251D01*
X0196420Y0144849D02*
X0174213Y0144849D01*
X0174994Y0146448D02*
X0198018Y0146448D01*
X0199617Y0148047D02*
X0194825Y0148047D01*
X0196424Y0149645D02*
X0201215Y0149645D01*
X0202814Y0151244D02*
X0198022Y0151244D01*
X0204329Y0152842D02*
X0204412Y0152842D01*
X0190203Y0136132D02*
X0187086Y0136132D01*
X0184882Y0133928D01*
X0184882Y0130812D01*
X0187086Y0128608D01*
X0190203Y0128608D01*
X0192407Y0130812D01*
X0192407Y0133928D01*
X0190203Y0136132D01*
X0191077Y0135258D02*
X0194244Y0135258D01*
X0194244Y0133660D02*
X0192407Y0133660D01*
X0192407Y0132061D02*
X0194244Y0132061D01*
X0194244Y0130463D02*
X0192058Y0130463D01*
X0190459Y0128864D02*
X0194244Y0128864D01*
X0186830Y0128864D02*
X0180459Y0128864D01*
X0180203Y0128608D02*
X0182407Y0130812D01*
X0182407Y0133928D01*
X0180203Y0136132D01*
X0177086Y0136132D01*
X0174882Y0133928D01*
X0174882Y0130812D01*
X0177086Y0128608D01*
X0180203Y0128608D01*
X0182058Y0130463D02*
X0185231Y0130463D01*
X0184882Y0132061D02*
X0182407Y0132061D01*
X0182407Y0133660D02*
X0184882Y0133660D01*
X0186212Y0135258D02*
X0181077Y0135258D01*
X0176212Y0135258D02*
X0171077Y0135258D01*
X0170203Y0136132D02*
X0172407Y0133928D01*
X0172407Y0130812D01*
X0170203Y0128608D01*
X0167086Y0128608D01*
X0164882Y0130812D01*
X0164882Y0133928D01*
X0167086Y0136132D01*
X0170203Y0136132D01*
X0172407Y0133660D02*
X0174882Y0133660D01*
X0174882Y0132061D02*
X0172407Y0132061D01*
X0172058Y0130463D02*
X0175231Y0130463D01*
X0176830Y0128864D02*
X0170459Y0128864D01*
X0166830Y0128864D02*
X0160459Y0128864D01*
X0162058Y0130463D02*
X0165231Y0130463D01*
X0164882Y0132061D02*
X0162407Y0132061D01*
X0162407Y0133660D02*
X0164882Y0133660D01*
X0166212Y0135258D02*
X0161077Y0135258D01*
X0166297Y0141652D02*
X0135544Y0141652D01*
X0135544Y0143251D02*
X0165894Y0143251D01*
X0166435Y0144849D02*
X0135544Y0144849D01*
X0135544Y0146448D02*
X0148262Y0146448D01*
X0146664Y0148047D02*
X0135544Y0148047D01*
X0135544Y0149645D02*
X0143580Y0149645D01*
X0142527Y0151244D02*
X0135544Y0151244D01*
X0148275Y0151244D02*
X0163567Y0151244D01*
X0165165Y0149645D02*
X0157359Y0149645D01*
X0158194Y0148047D02*
X0166764Y0148047D01*
X0169494Y0146448D02*
X0157915Y0146448D01*
X0153530Y0149645D02*
X0149874Y0149645D01*
X0154329Y0152842D02*
X0156960Y0152842D01*
X0123488Y0170426D02*
X0119801Y0170426D01*
X0121400Y0168827D02*
X0121889Y0168827D01*
X0113488Y0170426D02*
X0109801Y0170426D01*
X0111400Y0168827D02*
X0111889Y0168827D01*
X0103488Y0170426D02*
X0099801Y0170426D01*
X0101400Y0168827D02*
X0101889Y0168827D01*
X0093488Y0170426D02*
X0089801Y0170426D01*
X0091400Y0168827D02*
X0091889Y0168827D01*
X0083488Y0170426D02*
X0079801Y0170426D01*
X0081400Y0168827D02*
X0081889Y0168827D01*
X0073488Y0170426D02*
X0069801Y0170426D01*
X0071400Y0168827D02*
X0071889Y0168827D01*
X0063488Y0170426D02*
X0059801Y0170426D01*
X0061400Y0168827D02*
X0061889Y0168827D01*
X0053488Y0170426D02*
X0025254Y0170426D01*
X0025844Y0168827D02*
X0051889Y0168827D01*
X0051544Y0167229D02*
X0025844Y0167229D01*
X0025799Y0165630D02*
X0051544Y0165630D01*
X0051770Y0164032D02*
X0025137Y0164032D01*
X0024304Y0162433D02*
X0053369Y0162433D01*
X0053897Y0160835D02*
X0022706Y0160835D01*
X0019435Y0159236D02*
X0052298Y0159236D01*
X0037164Y0148047D02*
X0035972Y0148047D01*
X0035565Y0149645D02*
X0034933Y0149645D01*
X0037571Y0146448D02*
X0038762Y0146448D01*
X0039169Y0144849D02*
X0040361Y0144849D01*
X0015854Y0159236D02*
X0008944Y0159236D01*
X0008944Y0160835D02*
X0012583Y0160835D01*
X0010985Y0162433D02*
X0008944Y0162433D01*
X0008944Y0164032D02*
X0010152Y0164032D01*
X0009490Y0165630D02*
X0008944Y0165630D01*
X0008944Y0167229D02*
X0009444Y0167229D01*
X0009444Y0168827D02*
X0008944Y0168827D01*
X0008944Y0170426D02*
X0010035Y0170426D01*
X0010702Y0172024D02*
X0008944Y0172024D01*
X0024587Y0172024D02*
X0240282Y0172024D01*
X0186621Y0125667D02*
X0180668Y0125667D01*
X0180203Y0126132D02*
X0177086Y0126132D01*
X0174882Y0123928D01*
X0174882Y0120812D01*
X0177086Y0118608D01*
X0180203Y0118608D01*
X0182407Y0120812D01*
X0182407Y0123928D01*
X0180203Y0126132D01*
X0182266Y0124069D02*
X0185023Y0124069D01*
X0184882Y0122470D02*
X0182407Y0122470D01*
X0182407Y0120872D02*
X0184882Y0120872D01*
X0186421Y0119273D02*
X0180868Y0119273D01*
X0176421Y0119273D02*
X0170868Y0119273D01*
X0170203Y0118608D02*
X0172407Y0120812D01*
X0172407Y0123928D01*
X0170203Y0126132D01*
X0167086Y0126132D01*
X0164882Y0123928D01*
X0164882Y0120812D01*
X0167086Y0118608D01*
X0170203Y0118608D01*
X0166421Y0119273D02*
X0160868Y0119273D01*
X0162407Y0120872D02*
X0164882Y0120872D01*
X0164882Y0122470D02*
X0162407Y0122470D01*
X0162266Y0124069D02*
X0165023Y0124069D01*
X0166621Y0125667D02*
X0160668Y0125667D01*
X0170668Y0125667D02*
X0176621Y0125667D01*
X0175023Y0124069D02*
X0172266Y0124069D01*
X0172407Y0122470D02*
X0174882Y0122470D01*
X0174882Y0120872D02*
X0172407Y0120872D01*
X0172062Y0114465D02*
X0171730Y0114465D01*
X0171730Y0109251D01*
X0176944Y0109251D01*
X0176944Y0109582D01*
X0176814Y0110406D01*
X0176556Y0111200D01*
X0176177Y0111943D01*
X0175687Y0112618D01*
X0175097Y0113208D01*
X0174422Y0113698D01*
X0173679Y0114077D01*
X0172886Y0114335D01*
X0172062Y0114465D01*
X0171730Y0112879D02*
X0171559Y0112879D01*
X0171559Y0111281D02*
X0171730Y0111281D01*
X0171730Y0109682D02*
X0171559Y0109682D01*
X0171559Y0108084D02*
X0171730Y0108084D01*
X0171730Y0106485D02*
X0171559Y0106485D01*
X0171559Y0104887D02*
X0171730Y0104887D01*
X0174772Y0104887D02*
X0176557Y0104887D01*
X0176227Y0106485D02*
X0178155Y0106485D01*
X0176839Y0108084D02*
X0179754Y0108084D01*
X0181352Y0109682D02*
X0176929Y0109682D01*
X0176515Y0111281D02*
X0182951Y0111281D01*
X0184550Y0112879D02*
X0175426Y0112879D01*
X0136774Y0098493D02*
X0136226Y0098493D01*
X0062944Y0053734D02*
X0062944Y0053734D01*
X0062944Y0052136D02*
X0062944Y0052136D01*
X0062944Y0050537D02*
X0062944Y0050537D01*
X0060959Y0053734D02*
X0057688Y0053734D01*
X0058134Y0042545D02*
X0055273Y0042545D01*
X0046872Y0034552D02*
X0066417Y0034552D01*
X0065407Y0032954D02*
X0047882Y0032954D01*
X0048399Y0031355D02*
X0064890Y0031355D01*
X0064890Y0029757D02*
X0048399Y0029757D01*
X0047938Y0028158D02*
X0065351Y0028158D01*
X0066282Y0026560D02*
X0047007Y0026560D01*
X0044935Y0024961D02*
X0068354Y0024961D01*
X0073644Y0023363D02*
X0037694Y0023363D01*
X0037694Y0024961D02*
X0039614Y0024961D01*
X0037595Y0021764D02*
X0073644Y0021764D01*
X0073644Y0020166D02*
X0035996Y0020166D01*
X0034397Y0018567D02*
X0073644Y0018567D01*
X0073644Y0036151D02*
X0073348Y0036151D01*
X0068681Y0036151D02*
X0044608Y0036151D01*
X0036150Y0029757D02*
X0034814Y0029757D01*
X0036412Y0028158D02*
X0036611Y0028158D01*
D24*
X0050345Y0050370D02*
X0050444Y0050470D01*
X0050444Y0051070D01*
X0054644Y0055270D01*
X0054644Y0073570D01*
X0055644Y0075370D01*
X0055544Y0075370D01*
X0050144Y0080770D01*
X0050144Y0083470D01*
X0043244Y0102070D02*
X0043244Y0119170D01*
X0042344Y0120070D01*
X0042344Y0128470D01*
X0048044Y0125470D02*
X0048044Y0119770D01*
X0051644Y0116170D01*
M02*
