G75*
%MOIN*%
%OFA0B0*%
%FSLAX25Y25*%
%IPPOS*%
%LPD*%
%AMOC8*
5,1,8,0,0,1.08239X$1,22.5*
%
%ADD10C,0.00000*%
%ADD11OC8,0.04724*%
%ADD12OC8,0.07400*%
%ADD13C,0.07000*%
%ADD14C,0.02800*%
%ADD15C,0.07400*%
%ADD16OC8,0.08500*%
%ADD17C,0.07972*%
%ADD18C,0.04724*%
%ADD19C,0.00600*%
%ADD20C,0.02700*%
%ADD21C,0.01600*%
%ADD22C,0.03369*%
%ADD23C,0.04000*%
%ADD24C,0.03000*%
%ADD25C,0.00700*%
%ADD26R,0.03762X0.03762*%
D10*
X0004200Y0016270D02*
X0004200Y0182270D01*
X0297200Y0182270D01*
X0297200Y0016270D01*
X0004200Y0016270D01*
X0007200Y0024970D02*
X0007202Y0025110D01*
X0007208Y0025250D01*
X0007218Y0025389D01*
X0007232Y0025529D01*
X0007250Y0025667D01*
X0007272Y0025806D01*
X0007298Y0025943D01*
X0007327Y0026080D01*
X0007361Y0026216D01*
X0007398Y0026350D01*
X0007440Y0026484D01*
X0007485Y0026617D01*
X0007534Y0026748D01*
X0007586Y0026877D01*
X0007643Y0027006D01*
X0007703Y0027132D01*
X0007766Y0027257D01*
X0007833Y0027379D01*
X0007904Y0027500D01*
X0007978Y0027619D01*
X0008055Y0027736D01*
X0008136Y0027850D01*
X0008220Y0027962D01*
X0008307Y0028072D01*
X0008397Y0028179D01*
X0008490Y0028283D01*
X0008586Y0028385D01*
X0008685Y0028484D01*
X0008787Y0028580D01*
X0008891Y0028673D01*
X0008998Y0028763D01*
X0009108Y0028850D01*
X0009220Y0028934D01*
X0009334Y0029015D01*
X0009451Y0029092D01*
X0009570Y0029166D01*
X0009691Y0029237D01*
X0009813Y0029304D01*
X0009938Y0029367D01*
X0010064Y0029427D01*
X0010193Y0029484D01*
X0010322Y0029536D01*
X0010453Y0029585D01*
X0010586Y0029630D01*
X0010720Y0029672D01*
X0010854Y0029709D01*
X0010990Y0029743D01*
X0011127Y0029772D01*
X0011264Y0029798D01*
X0011403Y0029820D01*
X0011541Y0029838D01*
X0011681Y0029852D01*
X0011820Y0029862D01*
X0011960Y0029868D01*
X0012100Y0029870D01*
X0012240Y0029868D01*
X0012380Y0029862D01*
X0012519Y0029852D01*
X0012659Y0029838D01*
X0012797Y0029820D01*
X0012936Y0029798D01*
X0013073Y0029772D01*
X0013210Y0029743D01*
X0013346Y0029709D01*
X0013480Y0029672D01*
X0013614Y0029630D01*
X0013747Y0029585D01*
X0013878Y0029536D01*
X0014007Y0029484D01*
X0014136Y0029427D01*
X0014262Y0029367D01*
X0014387Y0029304D01*
X0014509Y0029237D01*
X0014630Y0029166D01*
X0014749Y0029092D01*
X0014866Y0029015D01*
X0014980Y0028934D01*
X0015092Y0028850D01*
X0015202Y0028763D01*
X0015309Y0028673D01*
X0015413Y0028580D01*
X0015515Y0028484D01*
X0015614Y0028385D01*
X0015710Y0028283D01*
X0015803Y0028179D01*
X0015893Y0028072D01*
X0015980Y0027962D01*
X0016064Y0027850D01*
X0016145Y0027736D01*
X0016222Y0027619D01*
X0016296Y0027500D01*
X0016367Y0027379D01*
X0016434Y0027257D01*
X0016497Y0027132D01*
X0016557Y0027006D01*
X0016614Y0026877D01*
X0016666Y0026748D01*
X0016715Y0026617D01*
X0016760Y0026484D01*
X0016802Y0026350D01*
X0016839Y0026216D01*
X0016873Y0026080D01*
X0016902Y0025943D01*
X0016928Y0025806D01*
X0016950Y0025667D01*
X0016968Y0025529D01*
X0016982Y0025389D01*
X0016992Y0025250D01*
X0016998Y0025110D01*
X0017000Y0024970D01*
X0016998Y0024830D01*
X0016992Y0024690D01*
X0016982Y0024551D01*
X0016968Y0024411D01*
X0016950Y0024273D01*
X0016928Y0024134D01*
X0016902Y0023997D01*
X0016873Y0023860D01*
X0016839Y0023724D01*
X0016802Y0023590D01*
X0016760Y0023456D01*
X0016715Y0023323D01*
X0016666Y0023192D01*
X0016614Y0023063D01*
X0016557Y0022934D01*
X0016497Y0022808D01*
X0016434Y0022683D01*
X0016367Y0022561D01*
X0016296Y0022440D01*
X0016222Y0022321D01*
X0016145Y0022204D01*
X0016064Y0022090D01*
X0015980Y0021978D01*
X0015893Y0021868D01*
X0015803Y0021761D01*
X0015710Y0021657D01*
X0015614Y0021555D01*
X0015515Y0021456D01*
X0015413Y0021360D01*
X0015309Y0021267D01*
X0015202Y0021177D01*
X0015092Y0021090D01*
X0014980Y0021006D01*
X0014866Y0020925D01*
X0014749Y0020848D01*
X0014630Y0020774D01*
X0014509Y0020703D01*
X0014387Y0020636D01*
X0014262Y0020573D01*
X0014136Y0020513D01*
X0014007Y0020456D01*
X0013878Y0020404D01*
X0013747Y0020355D01*
X0013614Y0020310D01*
X0013480Y0020268D01*
X0013346Y0020231D01*
X0013210Y0020197D01*
X0013073Y0020168D01*
X0012936Y0020142D01*
X0012797Y0020120D01*
X0012659Y0020102D01*
X0012519Y0020088D01*
X0012380Y0020078D01*
X0012240Y0020072D01*
X0012100Y0020070D01*
X0011960Y0020072D01*
X0011820Y0020078D01*
X0011681Y0020088D01*
X0011541Y0020102D01*
X0011403Y0020120D01*
X0011264Y0020142D01*
X0011127Y0020168D01*
X0010990Y0020197D01*
X0010854Y0020231D01*
X0010720Y0020268D01*
X0010586Y0020310D01*
X0010453Y0020355D01*
X0010322Y0020404D01*
X0010193Y0020456D01*
X0010064Y0020513D01*
X0009938Y0020573D01*
X0009813Y0020636D01*
X0009691Y0020703D01*
X0009570Y0020774D01*
X0009451Y0020848D01*
X0009334Y0020925D01*
X0009220Y0021006D01*
X0009108Y0021090D01*
X0008998Y0021177D01*
X0008891Y0021267D01*
X0008787Y0021360D01*
X0008685Y0021456D01*
X0008586Y0021555D01*
X0008490Y0021657D01*
X0008397Y0021761D01*
X0008307Y0021868D01*
X0008220Y0021978D01*
X0008136Y0022090D01*
X0008055Y0022204D01*
X0007978Y0022321D01*
X0007904Y0022440D01*
X0007833Y0022561D01*
X0007766Y0022683D01*
X0007703Y0022808D01*
X0007643Y0022934D01*
X0007586Y0023063D01*
X0007534Y0023192D01*
X0007485Y0023323D01*
X0007440Y0023456D01*
X0007398Y0023590D01*
X0007361Y0023724D01*
X0007327Y0023860D01*
X0007298Y0023997D01*
X0007272Y0024134D01*
X0007250Y0024273D01*
X0007232Y0024411D01*
X0007218Y0024551D01*
X0007208Y0024690D01*
X0007202Y0024830D01*
X0007200Y0024970D01*
X0029038Y0041467D02*
X0029040Y0041551D01*
X0029046Y0041634D01*
X0029056Y0041717D01*
X0029070Y0041800D01*
X0029087Y0041882D01*
X0029109Y0041963D01*
X0029134Y0042042D01*
X0029163Y0042121D01*
X0029196Y0042198D01*
X0029232Y0042273D01*
X0029272Y0042347D01*
X0029315Y0042419D01*
X0029362Y0042488D01*
X0029412Y0042555D01*
X0029465Y0042620D01*
X0029521Y0042682D01*
X0029579Y0042742D01*
X0029641Y0042799D01*
X0029705Y0042852D01*
X0029772Y0042903D01*
X0029841Y0042950D01*
X0029912Y0042995D01*
X0029985Y0043035D01*
X0030060Y0043072D01*
X0030137Y0043106D01*
X0030215Y0043136D01*
X0030294Y0043162D01*
X0030375Y0043185D01*
X0030457Y0043203D01*
X0030539Y0043218D01*
X0030622Y0043229D01*
X0030705Y0043236D01*
X0030789Y0043239D01*
X0030873Y0043238D01*
X0030956Y0043233D01*
X0031040Y0043224D01*
X0031122Y0043211D01*
X0031204Y0043195D01*
X0031285Y0043174D01*
X0031366Y0043150D01*
X0031444Y0043122D01*
X0031522Y0043090D01*
X0031598Y0043054D01*
X0031672Y0043015D01*
X0031744Y0042973D01*
X0031814Y0042927D01*
X0031882Y0042878D01*
X0031947Y0042826D01*
X0032010Y0042771D01*
X0032070Y0042713D01*
X0032128Y0042652D01*
X0032182Y0042588D01*
X0032234Y0042522D01*
X0032282Y0042454D01*
X0032327Y0042383D01*
X0032368Y0042310D01*
X0032407Y0042236D01*
X0032441Y0042160D01*
X0032472Y0042082D01*
X0032499Y0042003D01*
X0032523Y0041922D01*
X0032542Y0041841D01*
X0032558Y0041759D01*
X0032570Y0041676D01*
X0032578Y0041592D01*
X0032582Y0041509D01*
X0032582Y0041425D01*
X0032578Y0041342D01*
X0032570Y0041258D01*
X0032558Y0041175D01*
X0032542Y0041093D01*
X0032523Y0041012D01*
X0032499Y0040931D01*
X0032472Y0040852D01*
X0032441Y0040774D01*
X0032407Y0040698D01*
X0032368Y0040624D01*
X0032327Y0040551D01*
X0032282Y0040480D01*
X0032234Y0040412D01*
X0032182Y0040346D01*
X0032128Y0040282D01*
X0032070Y0040221D01*
X0032010Y0040163D01*
X0031947Y0040108D01*
X0031882Y0040056D01*
X0031814Y0040007D01*
X0031744Y0039961D01*
X0031672Y0039919D01*
X0031598Y0039880D01*
X0031522Y0039844D01*
X0031444Y0039812D01*
X0031366Y0039784D01*
X0031285Y0039760D01*
X0031204Y0039739D01*
X0031122Y0039723D01*
X0031040Y0039710D01*
X0030956Y0039701D01*
X0030873Y0039696D01*
X0030789Y0039695D01*
X0030705Y0039698D01*
X0030622Y0039705D01*
X0030539Y0039716D01*
X0030457Y0039731D01*
X0030375Y0039749D01*
X0030294Y0039772D01*
X0030215Y0039798D01*
X0030137Y0039828D01*
X0030060Y0039862D01*
X0029985Y0039899D01*
X0029912Y0039939D01*
X0029841Y0039984D01*
X0029772Y0040031D01*
X0029705Y0040082D01*
X0029641Y0040135D01*
X0029579Y0040192D01*
X0029521Y0040252D01*
X0029465Y0040314D01*
X0029412Y0040379D01*
X0029362Y0040446D01*
X0029315Y0040515D01*
X0029272Y0040587D01*
X0029232Y0040661D01*
X0029196Y0040736D01*
X0029163Y0040813D01*
X0029134Y0040892D01*
X0029109Y0040971D01*
X0029087Y0041052D01*
X0029070Y0041134D01*
X0029056Y0041217D01*
X0029046Y0041300D01*
X0029040Y0041383D01*
X0029038Y0041467D01*
X0042818Y0041467D02*
X0042820Y0041551D01*
X0042826Y0041634D01*
X0042836Y0041717D01*
X0042850Y0041800D01*
X0042867Y0041882D01*
X0042889Y0041963D01*
X0042914Y0042042D01*
X0042943Y0042121D01*
X0042976Y0042198D01*
X0043012Y0042273D01*
X0043052Y0042347D01*
X0043095Y0042419D01*
X0043142Y0042488D01*
X0043192Y0042555D01*
X0043245Y0042620D01*
X0043301Y0042682D01*
X0043359Y0042742D01*
X0043421Y0042799D01*
X0043485Y0042852D01*
X0043552Y0042903D01*
X0043621Y0042950D01*
X0043692Y0042995D01*
X0043765Y0043035D01*
X0043840Y0043072D01*
X0043917Y0043106D01*
X0043995Y0043136D01*
X0044074Y0043162D01*
X0044155Y0043185D01*
X0044237Y0043203D01*
X0044319Y0043218D01*
X0044402Y0043229D01*
X0044485Y0043236D01*
X0044569Y0043239D01*
X0044653Y0043238D01*
X0044736Y0043233D01*
X0044820Y0043224D01*
X0044902Y0043211D01*
X0044984Y0043195D01*
X0045065Y0043174D01*
X0045146Y0043150D01*
X0045224Y0043122D01*
X0045302Y0043090D01*
X0045378Y0043054D01*
X0045452Y0043015D01*
X0045524Y0042973D01*
X0045594Y0042927D01*
X0045662Y0042878D01*
X0045727Y0042826D01*
X0045790Y0042771D01*
X0045850Y0042713D01*
X0045908Y0042652D01*
X0045962Y0042588D01*
X0046014Y0042522D01*
X0046062Y0042454D01*
X0046107Y0042383D01*
X0046148Y0042310D01*
X0046187Y0042236D01*
X0046221Y0042160D01*
X0046252Y0042082D01*
X0046279Y0042003D01*
X0046303Y0041922D01*
X0046322Y0041841D01*
X0046338Y0041759D01*
X0046350Y0041676D01*
X0046358Y0041592D01*
X0046362Y0041509D01*
X0046362Y0041425D01*
X0046358Y0041342D01*
X0046350Y0041258D01*
X0046338Y0041175D01*
X0046322Y0041093D01*
X0046303Y0041012D01*
X0046279Y0040931D01*
X0046252Y0040852D01*
X0046221Y0040774D01*
X0046187Y0040698D01*
X0046148Y0040624D01*
X0046107Y0040551D01*
X0046062Y0040480D01*
X0046014Y0040412D01*
X0045962Y0040346D01*
X0045908Y0040282D01*
X0045850Y0040221D01*
X0045790Y0040163D01*
X0045727Y0040108D01*
X0045662Y0040056D01*
X0045594Y0040007D01*
X0045524Y0039961D01*
X0045452Y0039919D01*
X0045378Y0039880D01*
X0045302Y0039844D01*
X0045224Y0039812D01*
X0045146Y0039784D01*
X0045065Y0039760D01*
X0044984Y0039739D01*
X0044902Y0039723D01*
X0044820Y0039710D01*
X0044736Y0039701D01*
X0044653Y0039696D01*
X0044569Y0039695D01*
X0044485Y0039698D01*
X0044402Y0039705D01*
X0044319Y0039716D01*
X0044237Y0039731D01*
X0044155Y0039749D01*
X0044074Y0039772D01*
X0043995Y0039798D01*
X0043917Y0039828D01*
X0043840Y0039862D01*
X0043765Y0039899D01*
X0043692Y0039939D01*
X0043621Y0039984D01*
X0043552Y0040031D01*
X0043485Y0040082D01*
X0043421Y0040135D01*
X0043359Y0040192D01*
X0043301Y0040252D01*
X0043245Y0040314D01*
X0043192Y0040379D01*
X0043142Y0040446D01*
X0043095Y0040515D01*
X0043052Y0040587D01*
X0043012Y0040661D01*
X0042976Y0040736D01*
X0042943Y0040813D01*
X0042914Y0040892D01*
X0042889Y0040971D01*
X0042867Y0041052D01*
X0042850Y0041134D01*
X0042836Y0041217D01*
X0042826Y0041300D01*
X0042820Y0041383D01*
X0042818Y0041467D01*
X0193323Y0082841D02*
X0193325Y0082991D01*
X0193331Y0083141D01*
X0193341Y0083291D01*
X0193355Y0083441D01*
X0193373Y0083590D01*
X0193395Y0083739D01*
X0193420Y0083887D01*
X0193450Y0084034D01*
X0193484Y0084181D01*
X0193521Y0084326D01*
X0193562Y0084471D01*
X0193607Y0084614D01*
X0193656Y0084756D01*
X0193709Y0084897D01*
X0193765Y0085036D01*
X0193825Y0085174D01*
X0193889Y0085310D01*
X0193956Y0085445D01*
X0194027Y0085577D01*
X0194101Y0085708D01*
X0194179Y0085837D01*
X0194260Y0085963D01*
X0194345Y0086087D01*
X0194432Y0086210D01*
X0194523Y0086329D01*
X0194617Y0086446D01*
X0194714Y0086561D01*
X0194814Y0086673D01*
X0194918Y0086783D01*
X0195023Y0086889D01*
X0195132Y0086993D01*
X0195244Y0087094D01*
X0195358Y0087192D01*
X0195474Y0087287D01*
X0195593Y0087378D01*
X0195715Y0087467D01*
X0195839Y0087552D01*
X0195965Y0087634D01*
X0196093Y0087712D01*
X0196223Y0087788D01*
X0196355Y0087859D01*
X0196489Y0087927D01*
X0196625Y0087992D01*
X0196762Y0088053D01*
X0196901Y0088110D01*
X0197041Y0088164D01*
X0197183Y0088214D01*
X0197326Y0088260D01*
X0197470Y0088302D01*
X0197616Y0088340D01*
X0197762Y0088375D01*
X0197909Y0088406D01*
X0198057Y0088432D01*
X0198206Y0088455D01*
X0198355Y0088474D01*
X0198504Y0088489D01*
X0198654Y0088500D01*
X0198804Y0088507D01*
X0198954Y0088510D01*
X0199105Y0088509D01*
X0199255Y0088504D01*
X0199405Y0088495D01*
X0199555Y0088482D01*
X0199704Y0088465D01*
X0199853Y0088444D01*
X0200001Y0088419D01*
X0200149Y0088391D01*
X0200295Y0088358D01*
X0200441Y0088322D01*
X0200586Y0088281D01*
X0200730Y0088237D01*
X0200872Y0088189D01*
X0201013Y0088137D01*
X0201153Y0088082D01*
X0201291Y0088023D01*
X0201427Y0087960D01*
X0201562Y0087894D01*
X0201695Y0087824D01*
X0201826Y0087750D01*
X0201956Y0087674D01*
X0202083Y0087593D01*
X0202208Y0087510D01*
X0202330Y0087423D01*
X0202451Y0087333D01*
X0202568Y0087240D01*
X0202684Y0087143D01*
X0202796Y0087044D01*
X0202907Y0086941D01*
X0203014Y0086836D01*
X0203118Y0086728D01*
X0203220Y0086618D01*
X0203319Y0086504D01*
X0203414Y0086388D01*
X0203507Y0086270D01*
X0203596Y0086149D01*
X0203682Y0086026D01*
X0203765Y0085900D01*
X0203844Y0085773D01*
X0203920Y0085643D01*
X0203993Y0085511D01*
X0204062Y0085378D01*
X0204127Y0085242D01*
X0204189Y0085106D01*
X0204247Y0084967D01*
X0204302Y0084827D01*
X0204353Y0084685D01*
X0204400Y0084543D01*
X0204443Y0084399D01*
X0204482Y0084254D01*
X0204518Y0084108D01*
X0204549Y0083961D01*
X0204577Y0083813D01*
X0204601Y0083665D01*
X0204621Y0083516D01*
X0204637Y0083366D01*
X0204649Y0083216D01*
X0204657Y0083066D01*
X0204661Y0082916D01*
X0204661Y0082766D01*
X0204657Y0082616D01*
X0204649Y0082466D01*
X0204637Y0082316D01*
X0204621Y0082166D01*
X0204601Y0082017D01*
X0204577Y0081869D01*
X0204549Y0081721D01*
X0204518Y0081574D01*
X0204482Y0081428D01*
X0204443Y0081283D01*
X0204400Y0081139D01*
X0204353Y0080997D01*
X0204302Y0080855D01*
X0204247Y0080715D01*
X0204189Y0080576D01*
X0204127Y0080440D01*
X0204062Y0080304D01*
X0203993Y0080171D01*
X0203920Y0080039D01*
X0203844Y0079909D01*
X0203765Y0079782D01*
X0203682Y0079656D01*
X0203596Y0079533D01*
X0203507Y0079412D01*
X0203414Y0079294D01*
X0203319Y0079178D01*
X0203220Y0079064D01*
X0203118Y0078954D01*
X0203014Y0078846D01*
X0202907Y0078741D01*
X0202796Y0078638D01*
X0202684Y0078539D01*
X0202568Y0078442D01*
X0202451Y0078349D01*
X0202330Y0078259D01*
X0202208Y0078172D01*
X0202083Y0078089D01*
X0201956Y0078008D01*
X0201827Y0077932D01*
X0201695Y0077858D01*
X0201562Y0077788D01*
X0201427Y0077722D01*
X0201291Y0077659D01*
X0201153Y0077600D01*
X0201013Y0077545D01*
X0200872Y0077493D01*
X0200730Y0077445D01*
X0200586Y0077401D01*
X0200441Y0077360D01*
X0200295Y0077324D01*
X0200149Y0077291D01*
X0200001Y0077263D01*
X0199853Y0077238D01*
X0199704Y0077217D01*
X0199555Y0077200D01*
X0199405Y0077187D01*
X0199255Y0077178D01*
X0199105Y0077173D01*
X0198954Y0077172D01*
X0198804Y0077175D01*
X0198654Y0077182D01*
X0198504Y0077193D01*
X0198355Y0077208D01*
X0198206Y0077227D01*
X0198057Y0077250D01*
X0197909Y0077276D01*
X0197762Y0077307D01*
X0197616Y0077342D01*
X0197470Y0077380D01*
X0197326Y0077422D01*
X0197183Y0077468D01*
X0197041Y0077518D01*
X0196901Y0077572D01*
X0196762Y0077629D01*
X0196625Y0077690D01*
X0196489Y0077755D01*
X0196355Y0077823D01*
X0196223Y0077894D01*
X0196093Y0077970D01*
X0195965Y0078048D01*
X0195839Y0078130D01*
X0195715Y0078215D01*
X0195593Y0078304D01*
X0195474Y0078395D01*
X0195358Y0078490D01*
X0195244Y0078588D01*
X0195132Y0078689D01*
X0195023Y0078793D01*
X0194918Y0078899D01*
X0194814Y0079009D01*
X0194714Y0079121D01*
X0194617Y0079236D01*
X0194523Y0079353D01*
X0194432Y0079472D01*
X0194345Y0079595D01*
X0194260Y0079719D01*
X0194179Y0079845D01*
X0194101Y0079974D01*
X0194027Y0080105D01*
X0193956Y0080237D01*
X0193889Y0080372D01*
X0193825Y0080508D01*
X0193765Y0080646D01*
X0193709Y0080785D01*
X0193656Y0080926D01*
X0193607Y0081068D01*
X0193562Y0081211D01*
X0193521Y0081356D01*
X0193484Y0081501D01*
X0193450Y0081648D01*
X0193420Y0081795D01*
X0193395Y0081943D01*
X0193373Y0082092D01*
X0193355Y0082241D01*
X0193341Y0082391D01*
X0193331Y0082541D01*
X0193325Y0082691D01*
X0193323Y0082841D01*
X0274819Y0082841D02*
X0274821Y0082991D01*
X0274827Y0083141D01*
X0274837Y0083291D01*
X0274851Y0083441D01*
X0274869Y0083590D01*
X0274891Y0083739D01*
X0274916Y0083887D01*
X0274946Y0084034D01*
X0274980Y0084181D01*
X0275017Y0084326D01*
X0275058Y0084471D01*
X0275103Y0084614D01*
X0275152Y0084756D01*
X0275205Y0084897D01*
X0275261Y0085036D01*
X0275321Y0085174D01*
X0275385Y0085310D01*
X0275452Y0085445D01*
X0275523Y0085577D01*
X0275597Y0085708D01*
X0275675Y0085837D01*
X0275756Y0085963D01*
X0275841Y0086087D01*
X0275928Y0086210D01*
X0276019Y0086329D01*
X0276113Y0086446D01*
X0276210Y0086561D01*
X0276310Y0086673D01*
X0276414Y0086783D01*
X0276519Y0086889D01*
X0276628Y0086993D01*
X0276740Y0087094D01*
X0276854Y0087192D01*
X0276970Y0087287D01*
X0277089Y0087378D01*
X0277211Y0087467D01*
X0277335Y0087552D01*
X0277461Y0087634D01*
X0277589Y0087712D01*
X0277719Y0087788D01*
X0277851Y0087859D01*
X0277985Y0087927D01*
X0278121Y0087992D01*
X0278258Y0088053D01*
X0278397Y0088110D01*
X0278537Y0088164D01*
X0278679Y0088214D01*
X0278822Y0088260D01*
X0278966Y0088302D01*
X0279112Y0088340D01*
X0279258Y0088375D01*
X0279405Y0088406D01*
X0279553Y0088432D01*
X0279702Y0088455D01*
X0279851Y0088474D01*
X0280000Y0088489D01*
X0280150Y0088500D01*
X0280300Y0088507D01*
X0280450Y0088510D01*
X0280601Y0088509D01*
X0280751Y0088504D01*
X0280901Y0088495D01*
X0281051Y0088482D01*
X0281200Y0088465D01*
X0281349Y0088444D01*
X0281497Y0088419D01*
X0281645Y0088391D01*
X0281791Y0088358D01*
X0281937Y0088322D01*
X0282082Y0088281D01*
X0282226Y0088237D01*
X0282368Y0088189D01*
X0282509Y0088137D01*
X0282649Y0088082D01*
X0282787Y0088023D01*
X0282923Y0087960D01*
X0283058Y0087894D01*
X0283191Y0087824D01*
X0283322Y0087750D01*
X0283452Y0087674D01*
X0283579Y0087593D01*
X0283704Y0087510D01*
X0283826Y0087423D01*
X0283947Y0087333D01*
X0284064Y0087240D01*
X0284180Y0087143D01*
X0284292Y0087044D01*
X0284403Y0086941D01*
X0284510Y0086836D01*
X0284614Y0086728D01*
X0284716Y0086618D01*
X0284815Y0086504D01*
X0284910Y0086388D01*
X0285003Y0086270D01*
X0285092Y0086149D01*
X0285178Y0086026D01*
X0285261Y0085900D01*
X0285340Y0085773D01*
X0285416Y0085643D01*
X0285489Y0085511D01*
X0285558Y0085378D01*
X0285623Y0085242D01*
X0285685Y0085106D01*
X0285743Y0084967D01*
X0285798Y0084827D01*
X0285849Y0084685D01*
X0285896Y0084543D01*
X0285939Y0084399D01*
X0285978Y0084254D01*
X0286014Y0084108D01*
X0286045Y0083961D01*
X0286073Y0083813D01*
X0286097Y0083665D01*
X0286117Y0083516D01*
X0286133Y0083366D01*
X0286145Y0083216D01*
X0286153Y0083066D01*
X0286157Y0082916D01*
X0286157Y0082766D01*
X0286153Y0082616D01*
X0286145Y0082466D01*
X0286133Y0082316D01*
X0286117Y0082166D01*
X0286097Y0082017D01*
X0286073Y0081869D01*
X0286045Y0081721D01*
X0286014Y0081574D01*
X0285978Y0081428D01*
X0285939Y0081283D01*
X0285896Y0081139D01*
X0285849Y0080997D01*
X0285798Y0080855D01*
X0285743Y0080715D01*
X0285685Y0080576D01*
X0285623Y0080440D01*
X0285558Y0080304D01*
X0285489Y0080171D01*
X0285416Y0080039D01*
X0285340Y0079909D01*
X0285261Y0079782D01*
X0285178Y0079656D01*
X0285092Y0079533D01*
X0285003Y0079412D01*
X0284910Y0079294D01*
X0284815Y0079178D01*
X0284716Y0079064D01*
X0284614Y0078954D01*
X0284510Y0078846D01*
X0284403Y0078741D01*
X0284292Y0078638D01*
X0284180Y0078539D01*
X0284064Y0078442D01*
X0283947Y0078349D01*
X0283826Y0078259D01*
X0283704Y0078172D01*
X0283579Y0078089D01*
X0283452Y0078008D01*
X0283323Y0077932D01*
X0283191Y0077858D01*
X0283058Y0077788D01*
X0282923Y0077722D01*
X0282787Y0077659D01*
X0282649Y0077600D01*
X0282509Y0077545D01*
X0282368Y0077493D01*
X0282226Y0077445D01*
X0282082Y0077401D01*
X0281937Y0077360D01*
X0281791Y0077324D01*
X0281645Y0077291D01*
X0281497Y0077263D01*
X0281349Y0077238D01*
X0281200Y0077217D01*
X0281051Y0077200D01*
X0280901Y0077187D01*
X0280751Y0077178D01*
X0280601Y0077173D01*
X0280450Y0077172D01*
X0280300Y0077175D01*
X0280150Y0077182D01*
X0280000Y0077193D01*
X0279851Y0077208D01*
X0279702Y0077227D01*
X0279553Y0077250D01*
X0279405Y0077276D01*
X0279258Y0077307D01*
X0279112Y0077342D01*
X0278966Y0077380D01*
X0278822Y0077422D01*
X0278679Y0077468D01*
X0278537Y0077518D01*
X0278397Y0077572D01*
X0278258Y0077629D01*
X0278121Y0077690D01*
X0277985Y0077755D01*
X0277851Y0077823D01*
X0277719Y0077894D01*
X0277589Y0077970D01*
X0277461Y0078048D01*
X0277335Y0078130D01*
X0277211Y0078215D01*
X0277089Y0078304D01*
X0276970Y0078395D01*
X0276854Y0078490D01*
X0276740Y0078588D01*
X0276628Y0078689D01*
X0276519Y0078793D01*
X0276414Y0078899D01*
X0276310Y0079009D01*
X0276210Y0079121D01*
X0276113Y0079236D01*
X0276019Y0079353D01*
X0275928Y0079472D01*
X0275841Y0079595D01*
X0275756Y0079719D01*
X0275675Y0079845D01*
X0275597Y0079974D01*
X0275523Y0080105D01*
X0275452Y0080237D01*
X0275385Y0080372D01*
X0275321Y0080508D01*
X0275261Y0080646D01*
X0275205Y0080785D01*
X0275152Y0080926D01*
X0275103Y0081068D01*
X0275058Y0081211D01*
X0275017Y0081356D01*
X0274980Y0081501D01*
X0274946Y0081648D01*
X0274916Y0081795D01*
X0274891Y0081943D01*
X0274869Y0082092D01*
X0274851Y0082241D01*
X0274837Y0082391D01*
X0274827Y0082541D01*
X0274821Y0082691D01*
X0274819Y0082841D01*
X0284100Y0023670D02*
X0284102Y0023823D01*
X0284108Y0023976D01*
X0284118Y0024129D01*
X0284132Y0024282D01*
X0284150Y0024434D01*
X0284171Y0024585D01*
X0284197Y0024736D01*
X0284227Y0024887D01*
X0284260Y0025036D01*
X0284298Y0025185D01*
X0284339Y0025332D01*
X0284384Y0025479D01*
X0284433Y0025624D01*
X0284485Y0025768D01*
X0284542Y0025910D01*
X0284602Y0026051D01*
X0284665Y0026190D01*
X0284733Y0026328D01*
X0284803Y0026464D01*
X0284878Y0026598D01*
X0284955Y0026730D01*
X0285037Y0026860D01*
X0285121Y0026988D01*
X0285209Y0027113D01*
X0285300Y0027236D01*
X0285394Y0027357D01*
X0285491Y0027475D01*
X0285592Y0027591D01*
X0285695Y0027704D01*
X0285801Y0027815D01*
X0285910Y0027922D01*
X0286022Y0028027D01*
X0286136Y0028129D01*
X0286253Y0028228D01*
X0286373Y0028323D01*
X0286495Y0028416D01*
X0286619Y0028505D01*
X0286746Y0028592D01*
X0286875Y0028674D01*
X0287006Y0028754D01*
X0287139Y0028830D01*
X0287274Y0028902D01*
X0287411Y0028971D01*
X0287549Y0029037D01*
X0287689Y0029099D01*
X0287831Y0029157D01*
X0287974Y0029211D01*
X0288119Y0029262D01*
X0288264Y0029309D01*
X0288411Y0029352D01*
X0288559Y0029391D01*
X0288708Y0029427D01*
X0288858Y0029458D01*
X0289009Y0029486D01*
X0289160Y0029510D01*
X0289312Y0029530D01*
X0289465Y0029546D01*
X0289617Y0029558D01*
X0289770Y0029566D01*
X0289923Y0029570D01*
X0290077Y0029570D01*
X0290230Y0029566D01*
X0290383Y0029558D01*
X0290535Y0029546D01*
X0290688Y0029530D01*
X0290840Y0029510D01*
X0290991Y0029486D01*
X0291142Y0029458D01*
X0291292Y0029427D01*
X0291441Y0029391D01*
X0291589Y0029352D01*
X0291736Y0029309D01*
X0291881Y0029262D01*
X0292026Y0029211D01*
X0292169Y0029157D01*
X0292311Y0029099D01*
X0292451Y0029037D01*
X0292589Y0028971D01*
X0292726Y0028902D01*
X0292861Y0028830D01*
X0292994Y0028754D01*
X0293125Y0028674D01*
X0293254Y0028592D01*
X0293381Y0028505D01*
X0293505Y0028416D01*
X0293627Y0028323D01*
X0293747Y0028228D01*
X0293864Y0028129D01*
X0293978Y0028027D01*
X0294090Y0027922D01*
X0294199Y0027815D01*
X0294305Y0027704D01*
X0294408Y0027591D01*
X0294509Y0027475D01*
X0294606Y0027357D01*
X0294700Y0027236D01*
X0294791Y0027113D01*
X0294879Y0026988D01*
X0294963Y0026860D01*
X0295045Y0026730D01*
X0295122Y0026598D01*
X0295197Y0026464D01*
X0295267Y0026328D01*
X0295335Y0026190D01*
X0295398Y0026051D01*
X0295458Y0025910D01*
X0295515Y0025768D01*
X0295567Y0025624D01*
X0295616Y0025479D01*
X0295661Y0025332D01*
X0295702Y0025185D01*
X0295740Y0025036D01*
X0295773Y0024887D01*
X0295803Y0024736D01*
X0295829Y0024585D01*
X0295850Y0024434D01*
X0295868Y0024282D01*
X0295882Y0024129D01*
X0295892Y0023976D01*
X0295898Y0023823D01*
X0295900Y0023670D01*
X0295898Y0023517D01*
X0295892Y0023364D01*
X0295882Y0023211D01*
X0295868Y0023058D01*
X0295850Y0022906D01*
X0295829Y0022755D01*
X0295803Y0022604D01*
X0295773Y0022453D01*
X0295740Y0022304D01*
X0295702Y0022155D01*
X0295661Y0022008D01*
X0295616Y0021861D01*
X0295567Y0021716D01*
X0295515Y0021572D01*
X0295458Y0021430D01*
X0295398Y0021289D01*
X0295335Y0021150D01*
X0295267Y0021012D01*
X0295197Y0020876D01*
X0295122Y0020742D01*
X0295045Y0020610D01*
X0294963Y0020480D01*
X0294879Y0020352D01*
X0294791Y0020227D01*
X0294700Y0020104D01*
X0294606Y0019983D01*
X0294509Y0019865D01*
X0294408Y0019749D01*
X0294305Y0019636D01*
X0294199Y0019525D01*
X0294090Y0019418D01*
X0293978Y0019313D01*
X0293864Y0019211D01*
X0293747Y0019112D01*
X0293627Y0019017D01*
X0293505Y0018924D01*
X0293381Y0018835D01*
X0293254Y0018748D01*
X0293125Y0018666D01*
X0292994Y0018586D01*
X0292861Y0018510D01*
X0292726Y0018438D01*
X0292589Y0018369D01*
X0292451Y0018303D01*
X0292311Y0018241D01*
X0292169Y0018183D01*
X0292026Y0018129D01*
X0291881Y0018078D01*
X0291736Y0018031D01*
X0291589Y0017988D01*
X0291441Y0017949D01*
X0291292Y0017913D01*
X0291142Y0017882D01*
X0290991Y0017854D01*
X0290840Y0017830D01*
X0290688Y0017810D01*
X0290535Y0017794D01*
X0290383Y0017782D01*
X0290230Y0017774D01*
X0290077Y0017770D01*
X0289923Y0017770D01*
X0289770Y0017774D01*
X0289617Y0017782D01*
X0289465Y0017794D01*
X0289312Y0017810D01*
X0289160Y0017830D01*
X0289009Y0017854D01*
X0288858Y0017882D01*
X0288708Y0017913D01*
X0288559Y0017949D01*
X0288411Y0017988D01*
X0288264Y0018031D01*
X0288119Y0018078D01*
X0287974Y0018129D01*
X0287831Y0018183D01*
X0287689Y0018241D01*
X0287549Y0018303D01*
X0287411Y0018369D01*
X0287274Y0018438D01*
X0287139Y0018510D01*
X0287006Y0018586D01*
X0286875Y0018666D01*
X0286746Y0018748D01*
X0286619Y0018835D01*
X0286495Y0018924D01*
X0286373Y0019017D01*
X0286253Y0019112D01*
X0286136Y0019211D01*
X0286022Y0019313D01*
X0285910Y0019418D01*
X0285801Y0019525D01*
X0285695Y0019636D01*
X0285592Y0019749D01*
X0285491Y0019865D01*
X0285394Y0019983D01*
X0285300Y0020104D01*
X0285209Y0020227D01*
X0285121Y0020352D01*
X0285037Y0020480D01*
X0284955Y0020610D01*
X0284878Y0020742D01*
X0284803Y0020876D01*
X0284733Y0021012D01*
X0284665Y0021150D01*
X0284602Y0021289D01*
X0284542Y0021430D01*
X0284485Y0021572D01*
X0284433Y0021716D01*
X0284384Y0021861D01*
X0284339Y0022008D01*
X0284298Y0022155D01*
X0284260Y0022304D01*
X0284227Y0022453D01*
X0284197Y0022604D01*
X0284171Y0022755D01*
X0284150Y0022906D01*
X0284132Y0023058D01*
X0284118Y0023211D01*
X0284108Y0023364D01*
X0284102Y0023517D01*
X0284100Y0023670D01*
X0275100Y0156170D02*
X0275102Y0156323D01*
X0275108Y0156476D01*
X0275118Y0156629D01*
X0275132Y0156782D01*
X0275150Y0156934D01*
X0275171Y0157085D01*
X0275197Y0157236D01*
X0275227Y0157387D01*
X0275260Y0157536D01*
X0275298Y0157685D01*
X0275339Y0157832D01*
X0275384Y0157979D01*
X0275433Y0158124D01*
X0275485Y0158268D01*
X0275542Y0158410D01*
X0275602Y0158551D01*
X0275665Y0158690D01*
X0275733Y0158828D01*
X0275803Y0158964D01*
X0275878Y0159098D01*
X0275955Y0159230D01*
X0276037Y0159360D01*
X0276121Y0159488D01*
X0276209Y0159613D01*
X0276300Y0159736D01*
X0276394Y0159857D01*
X0276491Y0159975D01*
X0276592Y0160091D01*
X0276695Y0160204D01*
X0276801Y0160315D01*
X0276910Y0160422D01*
X0277022Y0160527D01*
X0277136Y0160629D01*
X0277253Y0160728D01*
X0277373Y0160823D01*
X0277495Y0160916D01*
X0277619Y0161005D01*
X0277746Y0161092D01*
X0277875Y0161174D01*
X0278006Y0161254D01*
X0278139Y0161330D01*
X0278274Y0161402D01*
X0278411Y0161471D01*
X0278549Y0161537D01*
X0278689Y0161599D01*
X0278831Y0161657D01*
X0278974Y0161711D01*
X0279119Y0161762D01*
X0279264Y0161809D01*
X0279411Y0161852D01*
X0279559Y0161891D01*
X0279708Y0161927D01*
X0279858Y0161958D01*
X0280009Y0161986D01*
X0280160Y0162010D01*
X0280312Y0162030D01*
X0280465Y0162046D01*
X0280617Y0162058D01*
X0280770Y0162066D01*
X0280923Y0162070D01*
X0281077Y0162070D01*
X0281230Y0162066D01*
X0281383Y0162058D01*
X0281535Y0162046D01*
X0281688Y0162030D01*
X0281840Y0162010D01*
X0281991Y0161986D01*
X0282142Y0161958D01*
X0282292Y0161927D01*
X0282441Y0161891D01*
X0282589Y0161852D01*
X0282736Y0161809D01*
X0282881Y0161762D01*
X0283026Y0161711D01*
X0283169Y0161657D01*
X0283311Y0161599D01*
X0283451Y0161537D01*
X0283589Y0161471D01*
X0283726Y0161402D01*
X0283861Y0161330D01*
X0283994Y0161254D01*
X0284125Y0161174D01*
X0284254Y0161092D01*
X0284381Y0161005D01*
X0284505Y0160916D01*
X0284627Y0160823D01*
X0284747Y0160728D01*
X0284864Y0160629D01*
X0284978Y0160527D01*
X0285090Y0160422D01*
X0285199Y0160315D01*
X0285305Y0160204D01*
X0285408Y0160091D01*
X0285509Y0159975D01*
X0285606Y0159857D01*
X0285700Y0159736D01*
X0285791Y0159613D01*
X0285879Y0159488D01*
X0285963Y0159360D01*
X0286045Y0159230D01*
X0286122Y0159098D01*
X0286197Y0158964D01*
X0286267Y0158828D01*
X0286335Y0158690D01*
X0286398Y0158551D01*
X0286458Y0158410D01*
X0286515Y0158268D01*
X0286567Y0158124D01*
X0286616Y0157979D01*
X0286661Y0157832D01*
X0286702Y0157685D01*
X0286740Y0157536D01*
X0286773Y0157387D01*
X0286803Y0157236D01*
X0286829Y0157085D01*
X0286850Y0156934D01*
X0286868Y0156782D01*
X0286882Y0156629D01*
X0286892Y0156476D01*
X0286898Y0156323D01*
X0286900Y0156170D01*
X0286898Y0156017D01*
X0286892Y0155864D01*
X0286882Y0155711D01*
X0286868Y0155558D01*
X0286850Y0155406D01*
X0286829Y0155255D01*
X0286803Y0155104D01*
X0286773Y0154953D01*
X0286740Y0154804D01*
X0286702Y0154655D01*
X0286661Y0154508D01*
X0286616Y0154361D01*
X0286567Y0154216D01*
X0286515Y0154072D01*
X0286458Y0153930D01*
X0286398Y0153789D01*
X0286335Y0153650D01*
X0286267Y0153512D01*
X0286197Y0153376D01*
X0286122Y0153242D01*
X0286045Y0153110D01*
X0285963Y0152980D01*
X0285879Y0152852D01*
X0285791Y0152727D01*
X0285700Y0152604D01*
X0285606Y0152483D01*
X0285509Y0152365D01*
X0285408Y0152249D01*
X0285305Y0152136D01*
X0285199Y0152025D01*
X0285090Y0151918D01*
X0284978Y0151813D01*
X0284864Y0151711D01*
X0284747Y0151612D01*
X0284627Y0151517D01*
X0284505Y0151424D01*
X0284381Y0151335D01*
X0284254Y0151248D01*
X0284125Y0151166D01*
X0283994Y0151086D01*
X0283861Y0151010D01*
X0283726Y0150938D01*
X0283589Y0150869D01*
X0283451Y0150803D01*
X0283311Y0150741D01*
X0283169Y0150683D01*
X0283026Y0150629D01*
X0282881Y0150578D01*
X0282736Y0150531D01*
X0282589Y0150488D01*
X0282441Y0150449D01*
X0282292Y0150413D01*
X0282142Y0150382D01*
X0281991Y0150354D01*
X0281840Y0150330D01*
X0281688Y0150310D01*
X0281535Y0150294D01*
X0281383Y0150282D01*
X0281230Y0150274D01*
X0281077Y0150270D01*
X0280923Y0150270D01*
X0280770Y0150274D01*
X0280617Y0150282D01*
X0280465Y0150294D01*
X0280312Y0150310D01*
X0280160Y0150330D01*
X0280009Y0150354D01*
X0279858Y0150382D01*
X0279708Y0150413D01*
X0279559Y0150449D01*
X0279411Y0150488D01*
X0279264Y0150531D01*
X0279119Y0150578D01*
X0278974Y0150629D01*
X0278831Y0150683D01*
X0278689Y0150741D01*
X0278549Y0150803D01*
X0278411Y0150869D01*
X0278274Y0150938D01*
X0278139Y0151010D01*
X0278006Y0151086D01*
X0277875Y0151166D01*
X0277746Y0151248D01*
X0277619Y0151335D01*
X0277495Y0151424D01*
X0277373Y0151517D01*
X0277253Y0151612D01*
X0277136Y0151711D01*
X0277022Y0151813D01*
X0276910Y0151918D01*
X0276801Y0152025D01*
X0276695Y0152136D01*
X0276592Y0152249D01*
X0276491Y0152365D01*
X0276394Y0152483D01*
X0276300Y0152604D01*
X0276209Y0152727D01*
X0276121Y0152852D01*
X0276037Y0152980D01*
X0275955Y0153110D01*
X0275878Y0153242D01*
X0275803Y0153376D01*
X0275733Y0153512D01*
X0275665Y0153650D01*
X0275602Y0153789D01*
X0275542Y0153930D01*
X0275485Y0154072D01*
X0275433Y0154216D01*
X0275384Y0154361D01*
X0275339Y0154508D01*
X0275298Y0154655D01*
X0275260Y0154804D01*
X0275227Y0154953D01*
X0275197Y0155104D01*
X0275171Y0155255D01*
X0275150Y0155406D01*
X0275132Y0155558D01*
X0275118Y0155711D01*
X0275108Y0155864D01*
X0275102Y0156017D01*
X0275100Y0156170D01*
X0274819Y0174180D02*
X0274821Y0174330D01*
X0274827Y0174480D01*
X0274837Y0174630D01*
X0274851Y0174780D01*
X0274869Y0174929D01*
X0274891Y0175078D01*
X0274916Y0175226D01*
X0274946Y0175373D01*
X0274980Y0175520D01*
X0275017Y0175665D01*
X0275058Y0175810D01*
X0275103Y0175953D01*
X0275152Y0176095D01*
X0275205Y0176236D01*
X0275261Y0176375D01*
X0275321Y0176513D01*
X0275385Y0176649D01*
X0275452Y0176784D01*
X0275523Y0176916D01*
X0275597Y0177047D01*
X0275675Y0177176D01*
X0275756Y0177302D01*
X0275841Y0177426D01*
X0275928Y0177549D01*
X0276019Y0177668D01*
X0276113Y0177785D01*
X0276210Y0177900D01*
X0276310Y0178012D01*
X0276414Y0178122D01*
X0276519Y0178228D01*
X0276628Y0178332D01*
X0276740Y0178433D01*
X0276854Y0178531D01*
X0276970Y0178626D01*
X0277089Y0178717D01*
X0277211Y0178806D01*
X0277335Y0178891D01*
X0277461Y0178973D01*
X0277589Y0179051D01*
X0277719Y0179127D01*
X0277851Y0179198D01*
X0277985Y0179266D01*
X0278121Y0179331D01*
X0278258Y0179392D01*
X0278397Y0179449D01*
X0278537Y0179503D01*
X0278679Y0179553D01*
X0278822Y0179599D01*
X0278966Y0179641D01*
X0279112Y0179679D01*
X0279258Y0179714D01*
X0279405Y0179745D01*
X0279553Y0179771D01*
X0279702Y0179794D01*
X0279851Y0179813D01*
X0280000Y0179828D01*
X0280150Y0179839D01*
X0280300Y0179846D01*
X0280450Y0179849D01*
X0280601Y0179848D01*
X0280751Y0179843D01*
X0280901Y0179834D01*
X0281051Y0179821D01*
X0281200Y0179804D01*
X0281349Y0179783D01*
X0281497Y0179758D01*
X0281645Y0179730D01*
X0281791Y0179697D01*
X0281937Y0179661D01*
X0282082Y0179620D01*
X0282226Y0179576D01*
X0282368Y0179528D01*
X0282509Y0179476D01*
X0282649Y0179421D01*
X0282787Y0179362D01*
X0282923Y0179299D01*
X0283058Y0179233D01*
X0283191Y0179163D01*
X0283322Y0179089D01*
X0283452Y0179013D01*
X0283579Y0178932D01*
X0283704Y0178849D01*
X0283826Y0178762D01*
X0283947Y0178672D01*
X0284064Y0178579D01*
X0284180Y0178482D01*
X0284292Y0178383D01*
X0284403Y0178280D01*
X0284510Y0178175D01*
X0284614Y0178067D01*
X0284716Y0177957D01*
X0284815Y0177843D01*
X0284910Y0177727D01*
X0285003Y0177609D01*
X0285092Y0177488D01*
X0285178Y0177365D01*
X0285261Y0177239D01*
X0285340Y0177112D01*
X0285416Y0176982D01*
X0285489Y0176850D01*
X0285558Y0176717D01*
X0285623Y0176581D01*
X0285685Y0176445D01*
X0285743Y0176306D01*
X0285798Y0176166D01*
X0285849Y0176024D01*
X0285896Y0175882D01*
X0285939Y0175738D01*
X0285978Y0175593D01*
X0286014Y0175447D01*
X0286045Y0175300D01*
X0286073Y0175152D01*
X0286097Y0175004D01*
X0286117Y0174855D01*
X0286133Y0174705D01*
X0286145Y0174555D01*
X0286153Y0174405D01*
X0286157Y0174255D01*
X0286157Y0174105D01*
X0286153Y0173955D01*
X0286145Y0173805D01*
X0286133Y0173655D01*
X0286117Y0173505D01*
X0286097Y0173356D01*
X0286073Y0173208D01*
X0286045Y0173060D01*
X0286014Y0172913D01*
X0285978Y0172767D01*
X0285939Y0172622D01*
X0285896Y0172478D01*
X0285849Y0172336D01*
X0285798Y0172194D01*
X0285743Y0172054D01*
X0285685Y0171915D01*
X0285623Y0171779D01*
X0285558Y0171643D01*
X0285489Y0171510D01*
X0285416Y0171378D01*
X0285340Y0171248D01*
X0285261Y0171121D01*
X0285178Y0170995D01*
X0285092Y0170872D01*
X0285003Y0170751D01*
X0284910Y0170633D01*
X0284815Y0170517D01*
X0284716Y0170403D01*
X0284614Y0170293D01*
X0284510Y0170185D01*
X0284403Y0170080D01*
X0284292Y0169977D01*
X0284180Y0169878D01*
X0284064Y0169781D01*
X0283947Y0169688D01*
X0283826Y0169598D01*
X0283704Y0169511D01*
X0283579Y0169428D01*
X0283452Y0169347D01*
X0283323Y0169271D01*
X0283191Y0169197D01*
X0283058Y0169127D01*
X0282923Y0169061D01*
X0282787Y0168998D01*
X0282649Y0168939D01*
X0282509Y0168884D01*
X0282368Y0168832D01*
X0282226Y0168784D01*
X0282082Y0168740D01*
X0281937Y0168699D01*
X0281791Y0168663D01*
X0281645Y0168630D01*
X0281497Y0168602D01*
X0281349Y0168577D01*
X0281200Y0168556D01*
X0281051Y0168539D01*
X0280901Y0168526D01*
X0280751Y0168517D01*
X0280601Y0168512D01*
X0280450Y0168511D01*
X0280300Y0168514D01*
X0280150Y0168521D01*
X0280000Y0168532D01*
X0279851Y0168547D01*
X0279702Y0168566D01*
X0279553Y0168589D01*
X0279405Y0168615D01*
X0279258Y0168646D01*
X0279112Y0168681D01*
X0278966Y0168719D01*
X0278822Y0168761D01*
X0278679Y0168807D01*
X0278537Y0168857D01*
X0278397Y0168911D01*
X0278258Y0168968D01*
X0278121Y0169029D01*
X0277985Y0169094D01*
X0277851Y0169162D01*
X0277719Y0169233D01*
X0277589Y0169309D01*
X0277461Y0169387D01*
X0277335Y0169469D01*
X0277211Y0169554D01*
X0277089Y0169643D01*
X0276970Y0169734D01*
X0276854Y0169829D01*
X0276740Y0169927D01*
X0276628Y0170028D01*
X0276519Y0170132D01*
X0276414Y0170238D01*
X0276310Y0170348D01*
X0276210Y0170460D01*
X0276113Y0170575D01*
X0276019Y0170692D01*
X0275928Y0170811D01*
X0275841Y0170934D01*
X0275756Y0171058D01*
X0275675Y0171184D01*
X0275597Y0171313D01*
X0275523Y0171444D01*
X0275452Y0171576D01*
X0275385Y0171711D01*
X0275321Y0171847D01*
X0275261Y0171985D01*
X0275205Y0172124D01*
X0275152Y0172265D01*
X0275103Y0172407D01*
X0275058Y0172550D01*
X0275017Y0172695D01*
X0274980Y0172840D01*
X0274946Y0172987D01*
X0274916Y0173134D01*
X0274891Y0173282D01*
X0274869Y0173431D01*
X0274851Y0173580D01*
X0274837Y0173730D01*
X0274827Y0173880D01*
X0274821Y0174030D01*
X0274819Y0174180D01*
X0193323Y0174180D02*
X0193325Y0174330D01*
X0193331Y0174480D01*
X0193341Y0174630D01*
X0193355Y0174780D01*
X0193373Y0174929D01*
X0193395Y0175078D01*
X0193420Y0175226D01*
X0193450Y0175373D01*
X0193484Y0175520D01*
X0193521Y0175665D01*
X0193562Y0175810D01*
X0193607Y0175953D01*
X0193656Y0176095D01*
X0193709Y0176236D01*
X0193765Y0176375D01*
X0193825Y0176513D01*
X0193889Y0176649D01*
X0193956Y0176784D01*
X0194027Y0176916D01*
X0194101Y0177047D01*
X0194179Y0177176D01*
X0194260Y0177302D01*
X0194345Y0177426D01*
X0194432Y0177549D01*
X0194523Y0177668D01*
X0194617Y0177785D01*
X0194714Y0177900D01*
X0194814Y0178012D01*
X0194918Y0178122D01*
X0195023Y0178228D01*
X0195132Y0178332D01*
X0195244Y0178433D01*
X0195358Y0178531D01*
X0195474Y0178626D01*
X0195593Y0178717D01*
X0195715Y0178806D01*
X0195839Y0178891D01*
X0195965Y0178973D01*
X0196093Y0179051D01*
X0196223Y0179127D01*
X0196355Y0179198D01*
X0196489Y0179266D01*
X0196625Y0179331D01*
X0196762Y0179392D01*
X0196901Y0179449D01*
X0197041Y0179503D01*
X0197183Y0179553D01*
X0197326Y0179599D01*
X0197470Y0179641D01*
X0197616Y0179679D01*
X0197762Y0179714D01*
X0197909Y0179745D01*
X0198057Y0179771D01*
X0198206Y0179794D01*
X0198355Y0179813D01*
X0198504Y0179828D01*
X0198654Y0179839D01*
X0198804Y0179846D01*
X0198954Y0179849D01*
X0199105Y0179848D01*
X0199255Y0179843D01*
X0199405Y0179834D01*
X0199555Y0179821D01*
X0199704Y0179804D01*
X0199853Y0179783D01*
X0200001Y0179758D01*
X0200149Y0179730D01*
X0200295Y0179697D01*
X0200441Y0179661D01*
X0200586Y0179620D01*
X0200730Y0179576D01*
X0200872Y0179528D01*
X0201013Y0179476D01*
X0201153Y0179421D01*
X0201291Y0179362D01*
X0201427Y0179299D01*
X0201562Y0179233D01*
X0201695Y0179163D01*
X0201826Y0179089D01*
X0201956Y0179013D01*
X0202083Y0178932D01*
X0202208Y0178849D01*
X0202330Y0178762D01*
X0202451Y0178672D01*
X0202568Y0178579D01*
X0202684Y0178482D01*
X0202796Y0178383D01*
X0202907Y0178280D01*
X0203014Y0178175D01*
X0203118Y0178067D01*
X0203220Y0177957D01*
X0203319Y0177843D01*
X0203414Y0177727D01*
X0203507Y0177609D01*
X0203596Y0177488D01*
X0203682Y0177365D01*
X0203765Y0177239D01*
X0203844Y0177112D01*
X0203920Y0176982D01*
X0203993Y0176850D01*
X0204062Y0176717D01*
X0204127Y0176581D01*
X0204189Y0176445D01*
X0204247Y0176306D01*
X0204302Y0176166D01*
X0204353Y0176024D01*
X0204400Y0175882D01*
X0204443Y0175738D01*
X0204482Y0175593D01*
X0204518Y0175447D01*
X0204549Y0175300D01*
X0204577Y0175152D01*
X0204601Y0175004D01*
X0204621Y0174855D01*
X0204637Y0174705D01*
X0204649Y0174555D01*
X0204657Y0174405D01*
X0204661Y0174255D01*
X0204661Y0174105D01*
X0204657Y0173955D01*
X0204649Y0173805D01*
X0204637Y0173655D01*
X0204621Y0173505D01*
X0204601Y0173356D01*
X0204577Y0173208D01*
X0204549Y0173060D01*
X0204518Y0172913D01*
X0204482Y0172767D01*
X0204443Y0172622D01*
X0204400Y0172478D01*
X0204353Y0172336D01*
X0204302Y0172194D01*
X0204247Y0172054D01*
X0204189Y0171915D01*
X0204127Y0171779D01*
X0204062Y0171643D01*
X0203993Y0171510D01*
X0203920Y0171378D01*
X0203844Y0171248D01*
X0203765Y0171121D01*
X0203682Y0170995D01*
X0203596Y0170872D01*
X0203507Y0170751D01*
X0203414Y0170633D01*
X0203319Y0170517D01*
X0203220Y0170403D01*
X0203118Y0170293D01*
X0203014Y0170185D01*
X0202907Y0170080D01*
X0202796Y0169977D01*
X0202684Y0169878D01*
X0202568Y0169781D01*
X0202451Y0169688D01*
X0202330Y0169598D01*
X0202208Y0169511D01*
X0202083Y0169428D01*
X0201956Y0169347D01*
X0201827Y0169271D01*
X0201695Y0169197D01*
X0201562Y0169127D01*
X0201427Y0169061D01*
X0201291Y0168998D01*
X0201153Y0168939D01*
X0201013Y0168884D01*
X0200872Y0168832D01*
X0200730Y0168784D01*
X0200586Y0168740D01*
X0200441Y0168699D01*
X0200295Y0168663D01*
X0200149Y0168630D01*
X0200001Y0168602D01*
X0199853Y0168577D01*
X0199704Y0168556D01*
X0199555Y0168539D01*
X0199405Y0168526D01*
X0199255Y0168517D01*
X0199105Y0168512D01*
X0198954Y0168511D01*
X0198804Y0168514D01*
X0198654Y0168521D01*
X0198504Y0168532D01*
X0198355Y0168547D01*
X0198206Y0168566D01*
X0198057Y0168589D01*
X0197909Y0168615D01*
X0197762Y0168646D01*
X0197616Y0168681D01*
X0197470Y0168719D01*
X0197326Y0168761D01*
X0197183Y0168807D01*
X0197041Y0168857D01*
X0196901Y0168911D01*
X0196762Y0168968D01*
X0196625Y0169029D01*
X0196489Y0169094D01*
X0196355Y0169162D01*
X0196223Y0169233D01*
X0196093Y0169309D01*
X0195965Y0169387D01*
X0195839Y0169469D01*
X0195715Y0169554D01*
X0195593Y0169643D01*
X0195474Y0169734D01*
X0195358Y0169829D01*
X0195244Y0169927D01*
X0195132Y0170028D01*
X0195023Y0170132D01*
X0194918Y0170238D01*
X0194814Y0170348D01*
X0194714Y0170460D01*
X0194617Y0170575D01*
X0194523Y0170692D01*
X0194432Y0170811D01*
X0194345Y0170934D01*
X0194260Y0171058D01*
X0194179Y0171184D01*
X0194101Y0171313D01*
X0194027Y0171444D01*
X0193956Y0171576D01*
X0193889Y0171711D01*
X0193825Y0171847D01*
X0193765Y0171985D01*
X0193709Y0172124D01*
X0193656Y0172265D01*
X0193607Y0172407D01*
X0193562Y0172550D01*
X0193521Y0172695D01*
X0193484Y0172840D01*
X0193450Y0172987D01*
X0193420Y0173134D01*
X0193395Y0173282D01*
X0193373Y0173431D01*
X0193355Y0173580D01*
X0193341Y0173730D01*
X0193331Y0173880D01*
X0193325Y0174030D01*
X0193323Y0174180D01*
X0006400Y0174170D02*
X0006402Y0174323D01*
X0006408Y0174476D01*
X0006418Y0174629D01*
X0006432Y0174782D01*
X0006450Y0174934D01*
X0006471Y0175085D01*
X0006497Y0175236D01*
X0006527Y0175387D01*
X0006560Y0175536D01*
X0006598Y0175685D01*
X0006639Y0175832D01*
X0006684Y0175979D01*
X0006733Y0176124D01*
X0006785Y0176268D01*
X0006842Y0176410D01*
X0006902Y0176551D01*
X0006965Y0176690D01*
X0007033Y0176828D01*
X0007103Y0176964D01*
X0007178Y0177098D01*
X0007255Y0177230D01*
X0007337Y0177360D01*
X0007421Y0177488D01*
X0007509Y0177613D01*
X0007600Y0177736D01*
X0007694Y0177857D01*
X0007791Y0177975D01*
X0007892Y0178091D01*
X0007995Y0178204D01*
X0008101Y0178315D01*
X0008210Y0178422D01*
X0008322Y0178527D01*
X0008436Y0178629D01*
X0008553Y0178728D01*
X0008673Y0178823D01*
X0008795Y0178916D01*
X0008919Y0179005D01*
X0009046Y0179092D01*
X0009175Y0179174D01*
X0009306Y0179254D01*
X0009439Y0179330D01*
X0009574Y0179402D01*
X0009711Y0179471D01*
X0009849Y0179537D01*
X0009989Y0179599D01*
X0010131Y0179657D01*
X0010274Y0179711D01*
X0010419Y0179762D01*
X0010564Y0179809D01*
X0010711Y0179852D01*
X0010859Y0179891D01*
X0011008Y0179927D01*
X0011158Y0179958D01*
X0011309Y0179986D01*
X0011460Y0180010D01*
X0011612Y0180030D01*
X0011765Y0180046D01*
X0011917Y0180058D01*
X0012070Y0180066D01*
X0012223Y0180070D01*
X0012377Y0180070D01*
X0012530Y0180066D01*
X0012683Y0180058D01*
X0012835Y0180046D01*
X0012988Y0180030D01*
X0013140Y0180010D01*
X0013291Y0179986D01*
X0013442Y0179958D01*
X0013592Y0179927D01*
X0013741Y0179891D01*
X0013889Y0179852D01*
X0014036Y0179809D01*
X0014181Y0179762D01*
X0014326Y0179711D01*
X0014469Y0179657D01*
X0014611Y0179599D01*
X0014751Y0179537D01*
X0014889Y0179471D01*
X0015026Y0179402D01*
X0015161Y0179330D01*
X0015294Y0179254D01*
X0015425Y0179174D01*
X0015554Y0179092D01*
X0015681Y0179005D01*
X0015805Y0178916D01*
X0015927Y0178823D01*
X0016047Y0178728D01*
X0016164Y0178629D01*
X0016278Y0178527D01*
X0016390Y0178422D01*
X0016499Y0178315D01*
X0016605Y0178204D01*
X0016708Y0178091D01*
X0016809Y0177975D01*
X0016906Y0177857D01*
X0017000Y0177736D01*
X0017091Y0177613D01*
X0017179Y0177488D01*
X0017263Y0177360D01*
X0017345Y0177230D01*
X0017422Y0177098D01*
X0017497Y0176964D01*
X0017567Y0176828D01*
X0017635Y0176690D01*
X0017698Y0176551D01*
X0017758Y0176410D01*
X0017815Y0176268D01*
X0017867Y0176124D01*
X0017916Y0175979D01*
X0017961Y0175832D01*
X0018002Y0175685D01*
X0018040Y0175536D01*
X0018073Y0175387D01*
X0018103Y0175236D01*
X0018129Y0175085D01*
X0018150Y0174934D01*
X0018168Y0174782D01*
X0018182Y0174629D01*
X0018192Y0174476D01*
X0018198Y0174323D01*
X0018200Y0174170D01*
X0018198Y0174017D01*
X0018192Y0173864D01*
X0018182Y0173711D01*
X0018168Y0173558D01*
X0018150Y0173406D01*
X0018129Y0173255D01*
X0018103Y0173104D01*
X0018073Y0172953D01*
X0018040Y0172804D01*
X0018002Y0172655D01*
X0017961Y0172508D01*
X0017916Y0172361D01*
X0017867Y0172216D01*
X0017815Y0172072D01*
X0017758Y0171930D01*
X0017698Y0171789D01*
X0017635Y0171650D01*
X0017567Y0171512D01*
X0017497Y0171376D01*
X0017422Y0171242D01*
X0017345Y0171110D01*
X0017263Y0170980D01*
X0017179Y0170852D01*
X0017091Y0170727D01*
X0017000Y0170604D01*
X0016906Y0170483D01*
X0016809Y0170365D01*
X0016708Y0170249D01*
X0016605Y0170136D01*
X0016499Y0170025D01*
X0016390Y0169918D01*
X0016278Y0169813D01*
X0016164Y0169711D01*
X0016047Y0169612D01*
X0015927Y0169517D01*
X0015805Y0169424D01*
X0015681Y0169335D01*
X0015554Y0169248D01*
X0015425Y0169166D01*
X0015294Y0169086D01*
X0015161Y0169010D01*
X0015026Y0168938D01*
X0014889Y0168869D01*
X0014751Y0168803D01*
X0014611Y0168741D01*
X0014469Y0168683D01*
X0014326Y0168629D01*
X0014181Y0168578D01*
X0014036Y0168531D01*
X0013889Y0168488D01*
X0013741Y0168449D01*
X0013592Y0168413D01*
X0013442Y0168382D01*
X0013291Y0168354D01*
X0013140Y0168330D01*
X0012988Y0168310D01*
X0012835Y0168294D01*
X0012683Y0168282D01*
X0012530Y0168274D01*
X0012377Y0168270D01*
X0012223Y0168270D01*
X0012070Y0168274D01*
X0011917Y0168282D01*
X0011765Y0168294D01*
X0011612Y0168310D01*
X0011460Y0168330D01*
X0011309Y0168354D01*
X0011158Y0168382D01*
X0011008Y0168413D01*
X0010859Y0168449D01*
X0010711Y0168488D01*
X0010564Y0168531D01*
X0010419Y0168578D01*
X0010274Y0168629D01*
X0010131Y0168683D01*
X0009989Y0168741D01*
X0009849Y0168803D01*
X0009711Y0168869D01*
X0009574Y0168938D01*
X0009439Y0169010D01*
X0009306Y0169086D01*
X0009175Y0169166D01*
X0009046Y0169248D01*
X0008919Y0169335D01*
X0008795Y0169424D01*
X0008673Y0169517D01*
X0008553Y0169612D01*
X0008436Y0169711D01*
X0008322Y0169813D01*
X0008210Y0169918D01*
X0008101Y0170025D01*
X0007995Y0170136D01*
X0007892Y0170249D01*
X0007791Y0170365D01*
X0007694Y0170483D01*
X0007600Y0170604D01*
X0007509Y0170727D01*
X0007421Y0170852D01*
X0007337Y0170980D01*
X0007255Y0171110D01*
X0007178Y0171242D01*
X0007103Y0171376D01*
X0007033Y0171512D01*
X0006965Y0171650D01*
X0006902Y0171789D01*
X0006842Y0171930D01*
X0006785Y0172072D01*
X0006733Y0172216D01*
X0006684Y0172361D01*
X0006639Y0172508D01*
X0006598Y0172655D01*
X0006560Y0172804D01*
X0006527Y0172953D01*
X0006497Y0173104D01*
X0006471Y0173255D01*
X0006450Y0173406D01*
X0006432Y0173558D01*
X0006418Y0173711D01*
X0006408Y0173864D01*
X0006402Y0174017D01*
X0006400Y0174170D01*
D11*
X0057700Y0131070D03*
X0067700Y0131070D03*
X0077700Y0131070D03*
X0087700Y0131070D03*
X0097700Y0131070D03*
X0107700Y0131070D03*
X0117700Y0131070D03*
X0127700Y0131070D03*
X0137700Y0131070D03*
X0137700Y0121070D03*
X0127700Y0121070D03*
X0117700Y0121070D03*
X0107700Y0121070D03*
X0097700Y0121070D03*
X0087700Y0121070D03*
X0077700Y0121070D03*
X0067700Y0121070D03*
X0057700Y0121070D03*
D12*
X0057800Y0163870D03*
X0067800Y0163870D03*
X0077800Y0163870D03*
X0087800Y0163870D03*
X0097800Y0163870D03*
X0109400Y0164070D03*
X0119400Y0164070D03*
X0129400Y0164070D03*
X0139400Y0164070D03*
X0149400Y0164070D03*
X0159400Y0164070D03*
X0169400Y0164070D03*
X0179400Y0164070D03*
X0179400Y0174070D03*
X0169400Y0174070D03*
X0159400Y0174070D03*
X0149400Y0174070D03*
X0139400Y0174070D03*
X0129400Y0174070D03*
X0119400Y0174070D03*
X0109400Y0174070D03*
X0097800Y0173870D03*
X0087800Y0173870D03*
X0077800Y0173870D03*
X0067800Y0173870D03*
X0057800Y0173870D03*
X0047800Y0173870D03*
X0037800Y0173870D03*
X0027800Y0173870D03*
X0027800Y0163870D03*
X0037800Y0163870D03*
X0047800Y0163870D03*
D13*
X0157900Y0115365D03*
X0157900Y0089775D03*
X0157000Y0063365D03*
X0157000Y0037775D03*
D14*
X0190100Y0045770D03*
X0266500Y0064770D03*
D15*
X0136400Y0077970D03*
X0126400Y0077970D03*
X0127900Y0095970D03*
X0127900Y0105970D03*
X0064600Y0104970D03*
X0054600Y0104970D03*
X0044600Y0104970D03*
X0062900Y0086970D03*
X0061900Y0076970D03*
X0062900Y0066970D03*
X0061900Y0056970D03*
X0062900Y0046970D03*
D16*
X0048800Y0075470D03*
X0044300Y0093370D03*
X0014400Y0040070D03*
D17*
X0023330Y0045355D02*
X0023330Y0053327D01*
X0052070Y0053327D02*
X0052070Y0045355D01*
X0052070Y0032461D02*
X0052070Y0024489D01*
X0023330Y0024489D02*
X0023330Y0032461D01*
D18*
X0224583Y0175557D03*
X0234583Y0175557D03*
X0244583Y0175557D03*
X0254583Y0175557D03*
D19*
X0244583Y0175557D02*
X0244500Y0175270D01*
X0234600Y0175570D02*
X0234583Y0175557D01*
X0214500Y0148870D02*
X0214500Y0147370D01*
X0207300Y0140170D01*
X0206300Y0138370D01*
X0195900Y0136870D02*
X0195900Y0147070D01*
X0194700Y0148270D01*
X0192300Y0145870D02*
X0189000Y0149170D01*
X0184500Y0149170D01*
X0177600Y0142270D01*
X0174300Y0142270D01*
X0131100Y0142270D01*
X0122100Y0151270D01*
X0054900Y0151270D01*
X0031500Y0127870D01*
X0031500Y0125770D01*
X0033900Y0123370D01*
X0033900Y0081070D01*
X0052200Y0062770D01*
X0052200Y0061270D01*
X0057000Y0059770D02*
X0037500Y0079270D01*
X0037500Y0125470D01*
X0042300Y0130270D01*
X0041400Y0126070D02*
X0049800Y0134470D01*
X0049800Y0127870D02*
X0048600Y0127870D01*
X0042600Y0121870D01*
X0042600Y0120070D01*
X0044100Y0118570D01*
X0047700Y0118570D01*
X0059400Y0106870D01*
X0059400Y0106270D01*
X0060000Y0105670D01*
X0060000Y0102970D01*
X0064500Y0098470D01*
X0071100Y0098470D01*
X0076800Y0092770D01*
X0076800Y0077770D01*
X0075600Y0076570D01*
X0078000Y0075670D02*
X0078000Y0094870D01*
X0072900Y0099970D01*
X0082500Y0100570D02*
X0090300Y0092770D01*
X0084900Y0091570D02*
X0083400Y0093070D01*
X0081600Y0093070D01*
X0081450Y0092920D01*
X0081300Y0093070D01*
X0081300Y0094870D01*
X0064200Y0111970D01*
X0057000Y0111970D01*
X0048000Y0120970D01*
X0045000Y0120970D01*
X0047400Y0123370D02*
X0055200Y0115570D01*
X0063900Y0115570D01*
X0100800Y0078670D01*
X0100800Y0065170D01*
X0107700Y0058270D01*
X0107700Y0057070D01*
X0111000Y0057070D02*
X0104400Y0063670D01*
X0104100Y0063670D01*
X0102000Y0065770D01*
X0102000Y0096370D01*
X0077700Y0120670D01*
X0077700Y0121070D01*
X0087700Y0121070D02*
X0087900Y0121270D01*
X0097500Y0121270D01*
X0097700Y0121070D01*
X0103200Y0116170D02*
X0107700Y0120670D01*
X0107700Y0121070D01*
X0103200Y0116170D02*
X0103200Y0066370D01*
X0104700Y0064870D01*
X0108000Y0064870D01*
X0108900Y0065770D01*
X0105600Y0067270D02*
X0105600Y0108670D01*
X0117900Y0120970D01*
X0117700Y0121070D01*
X0121200Y0119770D02*
X0122700Y0118270D01*
X0114600Y0110170D01*
X0114600Y0057370D01*
X0111000Y0053770D01*
X0107700Y0053770D01*
X0118500Y0051370D02*
X0119700Y0051370D01*
X0125100Y0056770D01*
X0125100Y0069370D01*
X0119400Y0075070D01*
X0119400Y0113170D01*
X0124800Y0118570D01*
X0124800Y0119170D01*
X0124200Y0119770D01*
X0124200Y0122470D01*
X0122700Y0123970D01*
X0122700Y0128170D01*
X0121200Y0129670D01*
X0121200Y0132370D01*
X0122700Y0133870D01*
X0122700Y0138970D01*
X0119400Y0142270D01*
X0114000Y0147670D01*
X0112200Y0147670D01*
X0110400Y0142870D02*
X0104400Y0148870D01*
X0102900Y0148870D01*
X0103200Y0142870D02*
X0104100Y0142870D01*
X0114300Y0132670D01*
X0114300Y0129370D01*
X0121200Y0122470D01*
X0121200Y0119770D01*
X0147900Y0124570D02*
X0147900Y0064870D01*
X0150000Y0062770D01*
X0150000Y0062170D01*
X0160200Y0072370D02*
X0160200Y0077770D01*
X0150300Y0087670D01*
X0150300Y0128770D01*
X0129600Y0147070D02*
X0121500Y0155170D01*
X0126000Y0157270D02*
X0152400Y0157270D01*
X0159300Y0164170D01*
X0159400Y0164070D01*
X0149400Y0164170D02*
X0149400Y0164070D01*
X0149400Y0164170D02*
X0146100Y0164170D01*
X0141600Y0168670D01*
X0114000Y0168670D01*
X0109400Y0164070D01*
X0102300Y0156970D01*
X0074700Y0156970D01*
X0067800Y0163870D01*
X0056400Y0152470D01*
X0039300Y0152470D01*
X0027900Y0163870D01*
X0027800Y0163870D01*
X0037800Y0163870D02*
X0039600Y0162370D01*
X0045900Y0168670D01*
X0069600Y0168670D01*
X0074400Y0163870D01*
X0077800Y0163870D01*
X0078000Y0163870D01*
X0082800Y0168670D01*
X0089700Y0168670D01*
X0093000Y0165370D01*
X0093000Y0162070D01*
X0093900Y0161170D01*
X0093900Y0159670D01*
X0119400Y0163870D02*
X0119400Y0164070D01*
X0119400Y0163870D02*
X0126000Y0157270D01*
X0186300Y0141670D02*
X0191700Y0141670D01*
X0192300Y0142270D01*
X0195900Y0136870D02*
X0195300Y0136270D01*
X0195300Y0134470D01*
X0122100Y0068770D02*
X0119400Y0071470D01*
X0117000Y0068770D02*
X0120900Y0064870D01*
X0120900Y0055870D01*
X0118500Y0048070D02*
X0132600Y0048070D01*
X0129900Y0045670D02*
X0128400Y0044170D01*
X0090300Y0044170D01*
X0089100Y0045370D01*
X0078000Y0045370D01*
X0075600Y0044470D02*
X0077100Y0042970D01*
X0116400Y0042970D01*
X0121500Y0037870D01*
X0134700Y0037870D01*
X0135600Y0038770D01*
X0120900Y0041770D02*
X0151800Y0041770D01*
X0155700Y0037870D01*
X0156900Y0037870D01*
X0157000Y0037775D01*
X0180900Y0035770D02*
X0189900Y0044770D01*
X0189900Y0045670D01*
X0190100Y0045770D01*
X0122100Y0067270D02*
X0122100Y0068770D01*
X0098400Y0067270D02*
X0098400Y0071770D01*
X0082800Y0087370D01*
X0080400Y0086470D02*
X0080400Y0088570D01*
X0082500Y0090670D01*
X0084900Y0091270D02*
X0084900Y0091570D01*
X0084900Y0091270D02*
X0090300Y0085870D01*
X0080400Y0086470D02*
X0092400Y0074470D01*
X0092400Y0050170D01*
X0091200Y0048970D01*
X0091200Y0046570D01*
X0088200Y0047770D02*
X0090300Y0049870D01*
X0090300Y0051670D01*
X0090000Y0051970D01*
X0090000Y0055870D01*
X0086100Y0052570D02*
X0067500Y0052570D01*
X0063300Y0056770D01*
X0062100Y0056770D01*
X0061900Y0056970D01*
X0060000Y0052270D02*
X0057000Y0055270D01*
X0057000Y0059770D01*
X0060900Y0062170D02*
X0054000Y0069070D01*
X0054000Y0091870D01*
X0049200Y0096670D01*
X0049200Y0111670D01*
X0041400Y0119470D01*
X0041400Y0126070D01*
X0046800Y0154870D02*
X0037800Y0163870D01*
X0081450Y0092920D02*
X0079200Y0090670D01*
X0079200Y0070570D01*
X0072600Y0063970D01*
X0069900Y0063970D01*
X0067800Y0066070D01*
X0066600Y0066070D01*
X0065700Y0066970D01*
X0062900Y0066970D01*
X0063300Y0062170D02*
X0060900Y0062170D01*
X0063300Y0062170D02*
X0069600Y0055870D01*
X0078900Y0055870D01*
X0086100Y0052570D02*
X0087900Y0050770D01*
X0088200Y0047770D02*
X0075600Y0047770D01*
X0075600Y0044470D01*
X0075600Y0047770D02*
X0066600Y0047770D01*
X0066000Y0047170D01*
X0063000Y0047170D01*
X0062900Y0046970D01*
X0066300Y0050170D02*
X0064200Y0052270D01*
X0060000Y0052270D01*
X0066300Y0050170D02*
X0078900Y0050170D01*
X0070500Y0066670D02*
X0070500Y0068170D01*
X0078000Y0075670D01*
X0081600Y0076270D02*
X0090000Y0067870D01*
X0090000Y0065770D01*
D20*
X0090000Y0065770D03*
X0098400Y0067270D03*
X0105600Y0067270D03*
X0108900Y0065770D03*
X0117000Y0068770D03*
X0119400Y0071470D03*
X0122100Y0067270D03*
X0111000Y0057070D03*
X0107700Y0057070D03*
X0107700Y0053770D03*
X0118500Y0051370D03*
X0118500Y0048070D03*
X0120900Y0041770D03*
X0129900Y0045670D03*
X0132600Y0048070D03*
X0135600Y0038770D03*
X0120900Y0055870D03*
X0150000Y0062170D03*
X0160200Y0072370D03*
X0180900Y0035770D03*
X0091200Y0046570D03*
X0087900Y0050770D03*
X0090000Y0055870D03*
X0078900Y0055870D03*
X0078900Y0050170D03*
X0078000Y0045370D03*
X0052200Y0061270D03*
X0070500Y0066670D03*
X0072600Y0063970D03*
X0075600Y0076570D03*
X0081600Y0076270D03*
X0090300Y0085870D03*
X0082800Y0087370D03*
X0082500Y0090670D03*
X0090300Y0092770D03*
X0082500Y0100570D03*
X0072900Y0099970D03*
X0045000Y0120970D03*
X0047400Y0123370D03*
X0049800Y0127870D03*
X0042300Y0130270D03*
X0049800Y0134470D03*
X0046800Y0154870D03*
X0093900Y0159670D03*
X0102900Y0148870D03*
X0112200Y0147670D03*
X0110400Y0142870D03*
X0103200Y0142870D03*
X0119400Y0142270D03*
X0129600Y0147070D03*
X0121500Y0155170D03*
X0150300Y0128770D03*
X0147900Y0124570D03*
X0167100Y0138370D03*
X0174300Y0142270D03*
X0181600Y0139170D03*
X0186300Y0141670D03*
X0192300Y0142270D03*
X0192300Y0145870D03*
X0194700Y0148270D03*
X0204100Y0145470D03*
X0208200Y0145370D03*
X0214500Y0148870D03*
X0192900Y0138070D03*
X0195300Y0134470D03*
X0239300Y0170870D03*
X0239600Y0178770D03*
D21*
X0241393Y0177689D02*
X0240820Y0176306D01*
X0240820Y0174809D01*
X0241393Y0173426D01*
X0242452Y0172368D01*
X0243834Y0171795D01*
X0245331Y0171795D01*
X0246714Y0172368D01*
X0247772Y0173426D01*
X0248345Y0174809D01*
X0248345Y0176306D01*
X0247772Y0177689D01*
X0246714Y0178747D01*
X0245331Y0179320D01*
X0243834Y0179320D01*
X0242452Y0178747D01*
X0241393Y0177689D01*
X0241424Y0177720D02*
X0237741Y0177720D01*
X0237772Y0177689D02*
X0236714Y0178747D01*
X0235331Y0179320D01*
X0233834Y0179320D01*
X0232452Y0178747D01*
X0231393Y0177689D01*
X0230820Y0176306D01*
X0230820Y0174809D01*
X0231393Y0173426D01*
X0232452Y0172368D01*
X0233834Y0171795D01*
X0235331Y0171795D01*
X0236714Y0172368D01*
X0237772Y0173426D01*
X0238345Y0174809D01*
X0238345Y0176306D01*
X0237772Y0177689D01*
X0238345Y0176121D02*
X0240820Y0176121D01*
X0240939Y0174523D02*
X0238226Y0174523D01*
X0237270Y0172924D02*
X0241895Y0172924D01*
X0247270Y0172924D02*
X0251895Y0172924D01*
X0251393Y0173426D02*
X0252452Y0172368D01*
X0253834Y0171795D01*
X0255331Y0171795D01*
X0256714Y0172368D01*
X0257772Y0173426D01*
X0258345Y0174809D01*
X0258345Y0176306D01*
X0257772Y0177689D01*
X0256714Y0178747D01*
X0255331Y0179320D01*
X0253834Y0179320D01*
X0252452Y0178747D01*
X0251393Y0177689D01*
X0250820Y0176306D01*
X0250820Y0174809D01*
X0251393Y0173426D01*
X0250939Y0174523D02*
X0248226Y0174523D01*
X0248345Y0176121D02*
X0250820Y0176121D01*
X0251424Y0177720D02*
X0247741Y0177720D01*
X0245335Y0179318D02*
X0253831Y0179318D01*
X0255335Y0179318D02*
X0274357Y0179318D01*
X0273732Y0178694D02*
X0272519Y0175765D01*
X0272519Y0172594D01*
X0273732Y0169665D01*
X0275974Y0167423D01*
X0278903Y0166210D01*
X0282073Y0166210D01*
X0285002Y0167423D01*
X0287244Y0169665D01*
X0288457Y0172594D01*
X0288457Y0175765D01*
X0287244Y0178694D01*
X0285968Y0179970D01*
X0294900Y0179970D01*
X0294900Y0074660D01*
X0268300Y0074593D01*
X0268300Y0076281D01*
X0267011Y0077570D01*
X0204992Y0077570D01*
X0205748Y0078327D01*
X0206961Y0081256D01*
X0206961Y0084426D01*
X0205748Y0087355D01*
X0203506Y0089597D01*
X0200577Y0090810D01*
X0197407Y0090810D01*
X0194478Y0089597D01*
X0192236Y0087355D01*
X0191023Y0084426D01*
X0191023Y0081256D01*
X0192236Y0078327D01*
X0193993Y0076570D01*
X0188762Y0076570D01*
X0188347Y0076985D01*
X0187213Y0077454D01*
X0185986Y0077454D01*
X0184853Y0076985D01*
X0183985Y0076117D01*
X0183516Y0074984D01*
X0183516Y0074379D01*
X0179900Y0074370D01*
X0179400Y0074870D01*
X0179400Y0038125D01*
X0179342Y0038101D01*
X0178569Y0037328D01*
X0178150Y0036317D01*
X0178150Y0035223D01*
X0178569Y0034212D01*
X0179342Y0033439D01*
X0180177Y0033093D01*
X0188300Y0024970D01*
X0188300Y0020970D01*
X0185900Y0018570D01*
X0146300Y0018570D01*
X0146300Y0037601D01*
X0145831Y0038070D01*
X0138287Y0038070D01*
X0138350Y0038223D01*
X0138350Y0039317D01*
X0138038Y0040070D01*
X0151096Y0040070D01*
X0152193Y0038973D01*
X0152100Y0038749D01*
X0152100Y0036800D01*
X0152846Y0034999D01*
X0154224Y0033621D01*
X0156025Y0032875D01*
X0157975Y0032875D01*
X0159776Y0033621D01*
X0161154Y0034999D01*
X0161900Y0036800D01*
X0161900Y0038749D01*
X0161154Y0040550D01*
X0159776Y0041929D01*
X0157975Y0042675D01*
X0156025Y0042675D01*
X0154224Y0041929D01*
X0154135Y0041839D01*
X0152504Y0043470D01*
X0131589Y0043470D01*
X0132231Y0044112D01*
X0132650Y0045123D01*
X0132650Y0045320D01*
X0133147Y0045320D01*
X0134158Y0045739D01*
X0134931Y0046512D01*
X0135350Y0047523D01*
X0135350Y0048617D01*
X0134931Y0049628D01*
X0134158Y0050401D01*
X0133147Y0050820D01*
X0132053Y0050820D01*
X0131042Y0050401D01*
X0130411Y0049770D01*
X0120789Y0049770D01*
X0120831Y0049812D01*
X0121033Y0050299D01*
X0125804Y0055070D01*
X0126800Y0056066D01*
X0126800Y0070074D01*
X0121100Y0075774D01*
X0121100Y0112466D01*
X0125504Y0116870D01*
X0126042Y0117408D01*
X0126142Y0117308D01*
X0129258Y0117308D01*
X0131462Y0119512D01*
X0131462Y0122628D01*
X0129258Y0124832D01*
X0126142Y0124832D01*
X0125192Y0123882D01*
X0124400Y0124674D01*
X0124400Y0128874D01*
X0122900Y0130374D01*
X0122900Y0131666D01*
X0123404Y0132170D01*
X0124400Y0133166D01*
X0124400Y0139674D01*
X0122150Y0141924D01*
X0122150Y0142817D01*
X0121731Y0143828D01*
X0120958Y0144601D01*
X0119947Y0145020D01*
X0119054Y0145020D01*
X0115700Y0148374D01*
X0114704Y0149370D01*
X0114389Y0149370D01*
X0114189Y0149570D01*
X0121396Y0149570D01*
X0129400Y0141566D01*
X0130396Y0140570D01*
X0164492Y0140570D01*
X0164218Y0140296D01*
X0163700Y0139046D01*
X0163700Y0137694D01*
X0164218Y0136444D01*
X0168474Y0132188D01*
X0169724Y0131670D01*
X0190576Y0131670D01*
X0191826Y0132188D01*
X0192782Y0133144D01*
X0192846Y0133208D01*
X0192969Y0132912D01*
X0193742Y0132139D01*
X0194753Y0131720D01*
X0195847Y0131720D01*
X0196858Y0132139D01*
X0197631Y0132912D01*
X0198050Y0133923D01*
X0198050Y0135017D01*
X0197631Y0136028D01*
X0197547Y0136113D01*
X0197600Y0136166D01*
X0197600Y0147774D01*
X0197450Y0147924D01*
X0197450Y0148817D01*
X0197031Y0149828D01*
X0196258Y0150601D01*
X0195247Y0151020D01*
X0194153Y0151020D01*
X0193142Y0150601D01*
X0192369Y0149828D01*
X0191950Y0148817D01*
X0191950Y0148624D01*
X0189704Y0150870D01*
X0183796Y0150870D01*
X0182800Y0149874D01*
X0176896Y0143970D01*
X0176489Y0143970D01*
X0175858Y0144601D01*
X0174847Y0145020D01*
X0173753Y0145020D01*
X0172742Y0144601D01*
X0172111Y0143970D01*
X0131804Y0143970D01*
X0131071Y0144703D01*
X0131158Y0144739D01*
X0131931Y0145512D01*
X0132350Y0146523D01*
X0132350Y0147617D01*
X0131931Y0148628D01*
X0131158Y0149401D01*
X0130147Y0149820D01*
X0129254Y0149820D01*
X0124250Y0154824D01*
X0124250Y0155717D01*
X0123831Y0156728D01*
X0123058Y0157501D01*
X0122047Y0157920D01*
X0120953Y0157920D01*
X0119942Y0157501D01*
X0119169Y0156728D01*
X0118750Y0155717D01*
X0118750Y0154623D01*
X0119169Y0153612D01*
X0119811Y0152970D01*
X0059304Y0152970D01*
X0065396Y0159062D01*
X0065688Y0158770D01*
X0069912Y0158770D01*
X0070204Y0159062D01*
X0073000Y0156266D01*
X0073996Y0155270D01*
X0103004Y0155270D01*
X0106996Y0159262D01*
X0107288Y0158970D01*
X0111512Y0158970D01*
X0114400Y0161858D01*
X0117288Y0158970D01*
X0121512Y0158970D01*
X0121704Y0159162D01*
X0124300Y0156566D01*
X0125296Y0155570D01*
X0153104Y0155570D01*
X0156896Y0159362D01*
X0157288Y0158970D01*
X0161512Y0158970D01*
X0164400Y0161858D01*
X0167288Y0158970D01*
X0171512Y0158970D01*
X0174400Y0161858D01*
X0177288Y0158970D01*
X0181512Y0158970D01*
X0184500Y0161958D01*
X0184500Y0166183D01*
X0181612Y0169070D01*
X0184500Y0171958D01*
X0184500Y0176183D01*
X0181512Y0179170D01*
X0177288Y0179170D01*
X0174400Y0176283D01*
X0171512Y0179170D01*
X0167288Y0179170D01*
X0164400Y0176283D01*
X0161512Y0179170D01*
X0157288Y0179170D01*
X0154400Y0176283D01*
X0151512Y0179170D01*
X0147288Y0179170D01*
X0144400Y0176283D01*
X0141512Y0179170D01*
X0137288Y0179170D01*
X0134400Y0176283D01*
X0131512Y0179170D01*
X0127288Y0179170D01*
X0124400Y0176283D01*
X0121512Y0179170D01*
X0117288Y0179170D01*
X0114400Y0176283D01*
X0111512Y0179170D01*
X0107288Y0179170D01*
X0104300Y0176183D01*
X0104300Y0171958D01*
X0107188Y0169070D01*
X0104300Y0166183D01*
X0104300Y0161958D01*
X0104592Y0161666D01*
X0101596Y0158670D01*
X0096462Y0158670D01*
X0096504Y0158770D01*
X0099912Y0158770D01*
X0102900Y0161758D01*
X0102900Y0165983D01*
X0100012Y0168870D01*
X0102900Y0171758D01*
X0102900Y0175983D01*
X0099912Y0178970D01*
X0095688Y0178970D01*
X0092800Y0176083D01*
X0089912Y0178970D01*
X0085688Y0178970D01*
X0082800Y0176083D01*
X0079912Y0178970D01*
X0075688Y0178970D01*
X0072800Y0176083D01*
X0069912Y0178970D01*
X0065688Y0178970D01*
X0062800Y0176083D01*
X0059912Y0178970D01*
X0055688Y0178970D01*
X0052800Y0176083D01*
X0049912Y0178970D01*
X0045688Y0178970D01*
X0042800Y0176083D01*
X0039912Y0178970D01*
X0035688Y0178970D01*
X0032800Y0176083D01*
X0029912Y0178970D01*
X0025688Y0178970D01*
X0022700Y0175983D01*
X0022700Y0171758D01*
X0025588Y0168870D01*
X0022700Y0165983D01*
X0022700Y0161758D01*
X0025688Y0158770D01*
X0029912Y0158770D01*
X0030254Y0159112D01*
X0037600Y0151766D01*
X0038596Y0150770D01*
X0051996Y0150770D01*
X0029800Y0128574D01*
X0029800Y0125066D01*
X0030796Y0124070D01*
X0032200Y0122666D01*
X0032200Y0080366D01*
X0033196Y0079370D01*
X0049830Y0062735D01*
X0049450Y0061817D01*
X0049450Y0060723D01*
X0049869Y0059712D01*
X0050642Y0058939D01*
X0051186Y0058713D01*
X0050999Y0058713D01*
X0049019Y0057893D01*
X0047504Y0056378D01*
X0046684Y0054399D01*
X0046684Y0045007D01*
X0045400Y0045539D01*
X0043780Y0045539D01*
X0042283Y0044919D01*
X0041138Y0043773D01*
X0040518Y0042277D01*
X0040518Y0040657D01*
X0041138Y0039161D01*
X0042283Y0038015D01*
X0043780Y0037395D01*
X0045400Y0037395D01*
X0046896Y0038015D01*
X0048042Y0039161D01*
X0048661Y0040657D01*
X0048661Y0041146D01*
X0049019Y0040789D01*
X0050999Y0039969D01*
X0053141Y0039969D01*
X0055121Y0040789D01*
X0056636Y0042304D01*
X0057456Y0044283D01*
X0057456Y0052410D01*
X0059292Y0050574D01*
X0058576Y0049859D01*
X0057800Y0047985D01*
X0057800Y0045956D01*
X0058576Y0044081D01*
X0060011Y0042647D01*
X0061886Y0041870D01*
X0063914Y0041870D01*
X0065789Y0042647D01*
X0067224Y0044081D01*
X0068000Y0045956D01*
X0068000Y0046070D01*
X0073900Y0046070D01*
X0073900Y0043766D01*
X0074896Y0042770D01*
X0076396Y0041270D01*
X0115696Y0041270D01*
X0118896Y0038070D01*
X0070269Y0038070D01*
X0069800Y0037601D01*
X0069800Y0036470D01*
X0065900Y0036470D01*
X0065900Y0018570D01*
X0015463Y0018570D01*
X0016178Y0018866D01*
X0018204Y0020892D01*
X0018597Y0021840D01*
X0018764Y0021438D01*
X0020279Y0019922D01*
X0022259Y0019102D01*
X0024401Y0019102D01*
X0026381Y0019922D01*
X0027896Y0021438D01*
X0028716Y0023417D01*
X0028716Y0033532D01*
X0027896Y0035512D01*
X0026381Y0037027D01*
X0024401Y0037847D01*
X0022259Y0037847D01*
X0020279Y0037027D01*
X0018764Y0035512D01*
X0017944Y0033532D01*
X0017944Y0029309D01*
X0016178Y0031074D01*
X0013532Y0032170D01*
X0010668Y0032170D01*
X0008022Y0031074D01*
X0006500Y0029552D01*
X0006500Y0168374D01*
X0007655Y0167218D01*
X0010669Y0165970D01*
X0013931Y0165970D01*
X0016945Y0167218D01*
X0019252Y0169525D01*
X0020500Y0172539D01*
X0020500Y0175801D01*
X0019252Y0178815D01*
X0018097Y0179970D01*
X0193512Y0179970D01*
X0192236Y0178694D01*
X0191023Y0175765D01*
X0191023Y0172594D01*
X0192236Y0169665D01*
X0194478Y0167423D01*
X0197407Y0166210D01*
X0200577Y0166210D01*
X0203506Y0167423D01*
X0205748Y0169665D01*
X0206961Y0172594D01*
X0206961Y0175765D01*
X0205748Y0178694D01*
X0204472Y0179970D01*
X0275008Y0179970D01*
X0273732Y0178694D01*
X0273329Y0177720D02*
X0257741Y0177720D01*
X0258345Y0176121D02*
X0272667Y0176121D01*
X0272519Y0174523D02*
X0258226Y0174523D01*
X0257270Y0172924D02*
X0272519Y0172924D01*
X0273044Y0171326D02*
X0206436Y0171326D01*
X0206961Y0172924D02*
X0221895Y0172924D01*
X0221393Y0173426D02*
X0222452Y0172368D01*
X0223834Y0171795D01*
X0225331Y0171795D01*
X0226714Y0172368D01*
X0227772Y0173426D01*
X0228345Y0174809D01*
X0228345Y0176306D01*
X0227772Y0177689D01*
X0226714Y0178747D01*
X0225331Y0179320D01*
X0223834Y0179320D01*
X0222452Y0178747D01*
X0221393Y0177689D01*
X0220820Y0176306D01*
X0220820Y0174809D01*
X0221393Y0173426D01*
X0220939Y0174523D02*
X0206961Y0174523D01*
X0206814Y0176121D02*
X0220820Y0176121D01*
X0221424Y0177720D02*
X0206152Y0177720D01*
X0205124Y0179318D02*
X0223831Y0179318D01*
X0225335Y0179318D02*
X0233831Y0179318D01*
X0235335Y0179318D02*
X0243831Y0179318D01*
X0231895Y0172924D02*
X0227270Y0172924D01*
X0228226Y0174523D02*
X0230939Y0174523D01*
X0230820Y0176121D02*
X0228345Y0176121D01*
X0227741Y0177720D02*
X0231424Y0177720D01*
X0205774Y0169727D02*
X0273707Y0169727D01*
X0275269Y0168129D02*
X0204212Y0168129D01*
X0201350Y0166530D02*
X0278131Y0166530D01*
X0279369Y0164370D02*
X0276355Y0163122D01*
X0274048Y0160815D01*
X0272800Y0157801D01*
X0272800Y0154539D01*
X0274048Y0151525D01*
X0276355Y0149218D01*
X0279369Y0147970D01*
X0282631Y0147970D01*
X0285645Y0149218D01*
X0287952Y0151525D01*
X0289200Y0154539D01*
X0289200Y0157801D01*
X0287952Y0160815D01*
X0285645Y0163122D01*
X0282631Y0164370D01*
X0279369Y0164370D01*
X0276866Y0163333D02*
X0184500Y0163333D01*
X0184500Y0164932D02*
X0294900Y0164932D01*
X0294900Y0166530D02*
X0282846Y0166530D01*
X0285708Y0168129D02*
X0294900Y0168129D01*
X0294900Y0169727D02*
X0287270Y0169727D01*
X0287932Y0171326D02*
X0294900Y0171326D01*
X0294900Y0172924D02*
X0288457Y0172924D01*
X0288457Y0174523D02*
X0294900Y0174523D01*
X0294900Y0176121D02*
X0288310Y0176121D01*
X0287648Y0177720D02*
X0294900Y0177720D01*
X0294900Y0179318D02*
X0286620Y0179318D01*
X0285134Y0163333D02*
X0294900Y0163333D01*
X0294900Y0161735D02*
X0287032Y0161735D01*
X0288233Y0160136D02*
X0294900Y0160136D01*
X0294900Y0158538D02*
X0288895Y0158538D01*
X0289200Y0156939D02*
X0294900Y0156939D01*
X0294900Y0155341D02*
X0289200Y0155341D01*
X0288870Y0153742D02*
X0294900Y0153742D01*
X0294900Y0152144D02*
X0288208Y0152144D01*
X0286971Y0150545D02*
X0294900Y0150545D01*
X0294900Y0148947D02*
X0284988Y0148947D01*
X0277012Y0148947D02*
X0217250Y0148947D01*
X0217250Y0149417D02*
X0216831Y0150428D01*
X0216058Y0151201D01*
X0215047Y0151620D01*
X0213953Y0151620D01*
X0212942Y0151201D01*
X0212169Y0150428D01*
X0211750Y0149417D01*
X0211750Y0148323D01*
X0212130Y0147405D01*
X0206496Y0141770D01*
X0205524Y0141770D01*
X0204274Y0141252D01*
X0203318Y0140296D01*
X0202800Y0139046D01*
X0202800Y0137694D01*
X0203318Y0136444D01*
X0204274Y0135488D01*
X0205524Y0134970D01*
X0206976Y0134970D01*
X0208226Y0135488D01*
X0209182Y0136444D01*
X0209700Y0137694D01*
X0209700Y0139046D01*
X0209372Y0139838D01*
X0216200Y0146666D01*
X0216200Y0146681D01*
X0216831Y0147312D01*
X0217250Y0148323D01*
X0217250Y0149417D01*
X0216714Y0150545D02*
X0275028Y0150545D01*
X0273792Y0152144D02*
X0126931Y0152144D01*
X0125332Y0153742D02*
X0273130Y0153742D01*
X0272800Y0155341D02*
X0124250Y0155341D01*
X0123927Y0156939D02*
X0123620Y0156939D01*
X0122328Y0158538D02*
X0106272Y0158538D01*
X0104673Y0156939D02*
X0119380Y0156939D01*
X0118750Y0155341D02*
X0103075Y0155341D01*
X0103062Y0160136D02*
X0101278Y0160136D01*
X0102877Y0161735D02*
X0104523Y0161735D01*
X0104300Y0163333D02*
X0102900Y0163333D01*
X0102900Y0164932D02*
X0104300Y0164932D01*
X0104648Y0166530D02*
X0102352Y0166530D01*
X0100754Y0168129D02*
X0106246Y0168129D01*
X0106530Y0169727D02*
X0100870Y0169727D01*
X0102468Y0171326D02*
X0104932Y0171326D01*
X0104300Y0172924D02*
X0102900Y0172924D01*
X0102900Y0174523D02*
X0104300Y0174523D01*
X0104300Y0176121D02*
X0102761Y0176121D01*
X0101163Y0177720D02*
X0105837Y0177720D01*
X0112963Y0177720D02*
X0115837Y0177720D01*
X0122963Y0177720D02*
X0125837Y0177720D01*
X0132963Y0177720D02*
X0135837Y0177720D01*
X0142963Y0177720D02*
X0145837Y0177720D01*
X0152963Y0177720D02*
X0155837Y0177720D01*
X0162963Y0177720D02*
X0165837Y0177720D01*
X0172963Y0177720D02*
X0175837Y0177720D01*
X0182963Y0177720D02*
X0191833Y0177720D01*
X0191171Y0176121D02*
X0184500Y0176121D01*
X0184500Y0174523D02*
X0191023Y0174523D01*
X0191023Y0172924D02*
X0184500Y0172924D01*
X0183868Y0171326D02*
X0191548Y0171326D01*
X0192210Y0169727D02*
X0182270Y0169727D01*
X0182554Y0168129D02*
X0193773Y0168129D01*
X0196635Y0166530D02*
X0184152Y0166530D01*
X0184277Y0161735D02*
X0274968Y0161735D01*
X0273767Y0160136D02*
X0182678Y0160136D01*
X0176121Y0160136D02*
X0172678Y0160136D01*
X0174277Y0161735D02*
X0174523Y0161735D01*
X0166121Y0160136D02*
X0162678Y0160136D01*
X0164277Y0161735D02*
X0164523Y0161735D01*
X0156072Y0158538D02*
X0273105Y0158538D01*
X0272800Y0156939D02*
X0154473Y0156939D01*
X0172292Y0144151D02*
X0131623Y0144151D01*
X0132030Y0145749D02*
X0178675Y0145749D01*
X0177077Y0144151D02*
X0176308Y0144151D01*
X0178688Y0140954D02*
X0183620Y0140954D01*
X0183550Y0141123D02*
X0183969Y0140112D01*
X0184742Y0139339D01*
X0185753Y0138920D01*
X0186847Y0138920D01*
X0187858Y0139339D01*
X0188489Y0139970D01*
X0189992Y0139970D01*
X0188492Y0138470D01*
X0171808Y0138470D01*
X0169708Y0140570D01*
X0172111Y0140570D01*
X0172742Y0139939D01*
X0173753Y0139520D01*
X0174847Y0139520D01*
X0175858Y0139939D01*
X0176489Y0140570D01*
X0176896Y0140570D01*
X0178304Y0140570D01*
X0185204Y0147470D01*
X0188296Y0147470D01*
X0189550Y0146216D01*
X0189550Y0145323D01*
X0189969Y0144312D01*
X0190211Y0144070D01*
X0189969Y0143828D01*
X0189779Y0143370D01*
X0188489Y0143370D01*
X0187858Y0144001D01*
X0186847Y0144420D01*
X0185753Y0144420D01*
X0184742Y0144001D01*
X0183969Y0143228D01*
X0183550Y0142217D01*
X0183550Y0141123D01*
X0183689Y0142552D02*
X0180287Y0142552D01*
X0181885Y0144151D02*
X0185103Y0144151D01*
X0183484Y0145749D02*
X0189550Y0145749D01*
X0190130Y0144151D02*
X0187497Y0144151D01*
X0188418Y0147348D02*
X0185082Y0147348D01*
X0183471Y0150545D02*
X0128529Y0150545D01*
X0131613Y0148947D02*
X0181872Y0148947D01*
X0180274Y0147348D02*
X0132350Y0147348D01*
X0126815Y0144151D02*
X0121408Y0144151D01*
X0122150Y0142552D02*
X0128413Y0142552D01*
X0130012Y0140954D02*
X0123120Y0140954D01*
X0124400Y0139355D02*
X0163828Y0139355D01*
X0163700Y0137757D02*
X0124400Y0137757D01*
X0124400Y0136158D02*
X0164503Y0136158D01*
X0166102Y0134560D02*
X0139531Y0134560D01*
X0139258Y0134832D02*
X0136142Y0134832D01*
X0133938Y0132628D01*
X0133938Y0129512D01*
X0136142Y0127308D01*
X0139258Y0127308D01*
X0141462Y0129512D01*
X0141462Y0132628D01*
X0139258Y0134832D01*
X0141129Y0132961D02*
X0167700Y0132961D01*
X0170923Y0139355D02*
X0184726Y0139355D01*
X0187874Y0139355D02*
X0189377Y0139355D01*
X0197600Y0139355D02*
X0202928Y0139355D01*
X0202800Y0137757D02*
X0197600Y0137757D01*
X0197592Y0136158D02*
X0203603Y0136158D01*
X0208897Y0136158D02*
X0294900Y0136158D01*
X0294900Y0134560D02*
X0198050Y0134560D01*
X0197652Y0132961D02*
X0294900Y0132961D01*
X0294900Y0131363D02*
X0151226Y0131363D01*
X0150847Y0131520D02*
X0149753Y0131520D01*
X0148742Y0131101D01*
X0147969Y0130328D01*
X0147550Y0129317D01*
X0147550Y0128223D01*
X0147924Y0127320D01*
X0147353Y0127320D01*
X0146342Y0126901D01*
X0145569Y0126128D01*
X0145150Y0125117D01*
X0145150Y0124023D01*
X0145569Y0123012D01*
X0146200Y0122381D01*
X0146200Y0064166D01*
X0147196Y0063170D01*
X0147367Y0062999D01*
X0147250Y0062717D01*
X0147250Y0061623D01*
X0147669Y0060612D01*
X0148442Y0059839D01*
X0149453Y0059420D01*
X0150547Y0059420D01*
X0151558Y0059839D01*
X0152331Y0060612D01*
X0152387Y0060746D01*
X0152467Y0060588D01*
X0152957Y0059913D01*
X0153547Y0059323D01*
X0154222Y0058832D01*
X0154966Y0058454D01*
X0155759Y0058196D01*
X0156583Y0058065D01*
X0156914Y0058065D01*
X0156914Y0063279D01*
X0157086Y0063279D01*
X0157086Y0058065D01*
X0157417Y0058065D01*
X0158241Y0058196D01*
X0159034Y0058454D01*
X0159778Y0058832D01*
X0160453Y0059323D01*
X0161043Y0059913D01*
X0161533Y0060588D01*
X0161912Y0061331D01*
X0162169Y0062124D01*
X0162300Y0062948D01*
X0162300Y0063280D01*
X0157086Y0063280D01*
X0157086Y0063451D01*
X0162300Y0063451D01*
X0162300Y0063782D01*
X0162169Y0064606D01*
X0161912Y0065400D01*
X0161533Y0066143D01*
X0161043Y0066818D01*
X0160453Y0067408D01*
X0159778Y0067898D01*
X0159034Y0068277D01*
X0158241Y0068535D01*
X0157417Y0068665D01*
X0157086Y0068665D01*
X0157086Y0063451D01*
X0156914Y0063451D01*
X0156914Y0068665D01*
X0156583Y0068665D01*
X0155759Y0068535D01*
X0154966Y0068277D01*
X0154222Y0067898D01*
X0153547Y0067408D01*
X0152957Y0066818D01*
X0152467Y0066143D01*
X0152088Y0065400D01*
X0151830Y0064606D01*
X0151779Y0064280D01*
X0151558Y0064501D01*
X0150547Y0064920D01*
X0150254Y0064920D01*
X0149600Y0065574D01*
X0149600Y0085966D01*
X0158500Y0077066D01*
X0158500Y0074559D01*
X0157869Y0073928D01*
X0157450Y0072917D01*
X0157450Y0071823D01*
X0157869Y0070812D01*
X0158642Y0070039D01*
X0159653Y0069620D01*
X0160747Y0069620D01*
X0161758Y0070039D01*
X0162531Y0070812D01*
X0162950Y0071823D01*
X0162950Y0072917D01*
X0162531Y0073928D01*
X0161900Y0074559D01*
X0161900Y0077066D01*
X0161900Y0078474D01*
X0152000Y0088374D01*
X0152000Y0126581D01*
X0152631Y0127212D01*
X0153050Y0128223D01*
X0153050Y0129317D01*
X0152631Y0130328D01*
X0151858Y0131101D01*
X0150847Y0131520D01*
X0149374Y0131363D02*
X0141462Y0131363D01*
X0141462Y0129764D02*
X0147735Y0129764D01*
X0147574Y0128166D02*
X0140116Y0128166D01*
X0135284Y0128166D02*
X0130116Y0128166D01*
X0129258Y0127308D02*
X0131462Y0129512D01*
X0131462Y0132628D01*
X0129258Y0134832D01*
X0126142Y0134832D01*
X0123938Y0132628D01*
X0123938Y0129512D01*
X0126142Y0127308D01*
X0129258Y0127308D01*
X0131462Y0129764D02*
X0133938Y0129764D01*
X0133938Y0131363D02*
X0131462Y0131363D01*
X0131129Y0132961D02*
X0134271Y0132961D01*
X0135869Y0134560D02*
X0129531Y0134560D01*
X0125869Y0134560D02*
X0124400Y0134560D01*
X0124271Y0132961D02*
X0124195Y0132961D01*
X0123938Y0131363D02*
X0122900Y0131363D01*
X0123510Y0129764D02*
X0123938Y0129764D01*
X0124400Y0128166D02*
X0125284Y0128166D01*
X0124400Y0126567D02*
X0146008Y0126567D01*
X0145150Y0124969D02*
X0124400Y0124969D01*
X0130720Y0123370D02*
X0134680Y0123370D01*
X0133938Y0122628D02*
X0133938Y0119512D01*
X0136142Y0117308D01*
X0139258Y0117308D01*
X0141462Y0119512D01*
X0141462Y0122628D01*
X0139258Y0124832D01*
X0136142Y0124832D01*
X0133938Y0122628D01*
X0133938Y0121772D02*
X0131462Y0121772D01*
X0131462Y0120173D02*
X0133938Y0120173D01*
X0134875Y0118575D02*
X0130525Y0118575D01*
X0125610Y0116976D02*
X0146200Y0116976D01*
X0146200Y0115378D02*
X0124012Y0115378D01*
X0122413Y0113779D02*
X0146200Y0113779D01*
X0146200Y0112181D02*
X0121100Y0112181D01*
X0121100Y0110582D02*
X0125708Y0110582D01*
X0125011Y0110294D02*
X0123576Y0108859D01*
X0122800Y0106985D01*
X0122800Y0104956D01*
X0123576Y0103081D01*
X0125011Y0101647D01*
X0126644Y0100970D01*
X0125011Y0100294D01*
X0123576Y0098859D01*
X0122800Y0096985D01*
X0122800Y0094956D01*
X0123576Y0093081D01*
X0125011Y0091647D01*
X0126886Y0090870D01*
X0128914Y0090870D01*
X0130789Y0091647D01*
X0132224Y0093081D01*
X0133000Y0094956D01*
X0133000Y0096985D01*
X0132224Y0098859D01*
X0130789Y0100294D01*
X0129156Y0100970D01*
X0130789Y0101647D01*
X0132224Y0103081D01*
X0133000Y0104956D01*
X0133000Y0106985D01*
X0132224Y0108859D01*
X0130789Y0110294D01*
X0128914Y0111070D01*
X0126886Y0111070D01*
X0125011Y0110294D01*
X0123701Y0108984D02*
X0121100Y0108984D01*
X0121100Y0107385D02*
X0122966Y0107385D01*
X0122800Y0105787D02*
X0121100Y0105787D01*
X0121100Y0104188D02*
X0123118Y0104188D01*
X0124068Y0102590D02*
X0121100Y0102590D01*
X0121100Y0100991D02*
X0126593Y0100991D01*
X0129207Y0100991D02*
X0146200Y0100991D01*
X0146200Y0099393D02*
X0131690Y0099393D01*
X0132665Y0097794D02*
X0146200Y0097794D01*
X0146200Y0096196D02*
X0133000Y0096196D01*
X0132852Y0094597D02*
X0146200Y0094597D01*
X0146200Y0092999D02*
X0132141Y0092999D01*
X0130194Y0091400D02*
X0146200Y0091400D01*
X0146200Y0089802D02*
X0121100Y0089802D01*
X0121100Y0091400D02*
X0125606Y0091400D01*
X0123659Y0092999D02*
X0121100Y0092999D01*
X0121100Y0094597D02*
X0122948Y0094597D01*
X0122800Y0096196D02*
X0121100Y0096196D01*
X0121100Y0097794D02*
X0123135Y0097794D01*
X0124110Y0099393D02*
X0121100Y0099393D01*
X0112900Y0099393D02*
X0107300Y0099393D01*
X0107300Y0100991D02*
X0112900Y0100991D01*
X0112900Y0102590D02*
X0107300Y0102590D01*
X0107300Y0104188D02*
X0112900Y0104188D01*
X0112900Y0105787D02*
X0107300Y0105787D01*
X0107300Y0107385D02*
X0112900Y0107385D01*
X0112900Y0108984D02*
X0108318Y0108984D01*
X0107300Y0107966D02*
X0116642Y0117308D01*
X0119258Y0117308D01*
X0120258Y0118308D01*
X0120296Y0118270D01*
X0112900Y0110874D01*
X0112900Y0059059D01*
X0112558Y0059401D01*
X0111547Y0059820D01*
X0110654Y0059820D01*
X0107304Y0063170D01*
X0107991Y0063170D01*
X0108353Y0063020D01*
X0109447Y0063020D01*
X0110458Y0063439D01*
X0111231Y0064212D01*
X0111650Y0065223D01*
X0111650Y0066317D01*
X0111231Y0067328D01*
X0110458Y0068101D01*
X0109447Y0068520D01*
X0108353Y0068520D01*
X0108102Y0068416D01*
X0107931Y0068828D01*
X0107300Y0069459D01*
X0107300Y0107966D01*
X0104900Y0110374D02*
X0104900Y0115466D01*
X0106742Y0117308D01*
X0109258Y0117308D01*
X0111462Y0119512D01*
X0111462Y0122628D01*
X0109258Y0124832D01*
X0106142Y0124832D01*
X0103938Y0122628D01*
X0103938Y0119512D01*
X0104038Y0119412D01*
X0101500Y0116874D01*
X0101500Y0099274D01*
X0081362Y0119412D01*
X0081462Y0119512D01*
X0081462Y0122628D01*
X0079258Y0124832D01*
X0076142Y0124832D01*
X0073938Y0122628D01*
X0073938Y0119512D01*
X0076142Y0117308D01*
X0078658Y0117308D01*
X0100300Y0095666D01*
X0100300Y0081574D01*
X0091559Y0090315D01*
X0091858Y0090439D01*
X0092631Y0091212D01*
X0093050Y0092223D01*
X0093050Y0093317D01*
X0092631Y0094328D01*
X0091858Y0095101D01*
X0090847Y0095520D01*
X0089954Y0095520D01*
X0085250Y0100224D01*
X0085250Y0101117D01*
X0084831Y0102128D01*
X0084058Y0102901D01*
X0083047Y0103320D01*
X0081953Y0103320D01*
X0080942Y0102901D01*
X0080169Y0102128D01*
X0080045Y0101829D01*
X0065600Y0116274D01*
X0064604Y0117270D01*
X0055904Y0117270D01*
X0050150Y0123024D01*
X0050150Y0123917D01*
X0049731Y0124928D01*
X0049539Y0125120D01*
X0050347Y0125120D01*
X0051358Y0125539D01*
X0052131Y0126312D01*
X0052550Y0127323D01*
X0052550Y0128417D01*
X0052131Y0129428D01*
X0051358Y0130201D01*
X0050347Y0130620D01*
X0049253Y0130620D01*
X0048242Y0130201D01*
X0047469Y0129428D01*
X0047267Y0128941D01*
X0046900Y0128574D01*
X0043100Y0124774D01*
X0043100Y0125366D01*
X0049454Y0131720D01*
X0050347Y0131720D01*
X0051358Y0132139D01*
X0052131Y0132912D01*
X0052550Y0133923D01*
X0052550Y0135017D01*
X0052131Y0136028D01*
X0051358Y0136801D01*
X0050347Y0137220D01*
X0049253Y0137220D01*
X0048242Y0136801D01*
X0047469Y0136028D01*
X0047050Y0135017D01*
X0047050Y0134124D01*
X0044667Y0131741D01*
X0044631Y0131828D01*
X0043858Y0132601D01*
X0042847Y0133020D01*
X0041753Y0133020D01*
X0040742Y0132601D01*
X0039969Y0131828D01*
X0039550Y0130817D01*
X0039550Y0129924D01*
X0035800Y0126174D01*
X0035800Y0081574D01*
X0035600Y0081774D01*
X0035600Y0124074D01*
X0033200Y0126474D01*
X0033200Y0127166D01*
X0055604Y0149570D01*
X0100213Y0149570D01*
X0100150Y0149417D01*
X0100150Y0148323D01*
X0100569Y0147312D01*
X0101342Y0146539D01*
X0102353Y0146120D01*
X0103447Y0146120D01*
X0104365Y0146501D01*
X0107650Y0143216D01*
X0107650Y0142323D01*
X0108069Y0141312D01*
X0108842Y0140539D01*
X0109853Y0140120D01*
X0110947Y0140120D01*
X0111958Y0140539D01*
X0112731Y0141312D01*
X0113150Y0142323D01*
X0113150Y0143417D01*
X0112731Y0144428D01*
X0112239Y0144920D01*
X0112747Y0144920D01*
X0113758Y0145339D01*
X0113842Y0145423D01*
X0116650Y0142616D01*
X0116650Y0141723D01*
X0117069Y0140712D01*
X0117842Y0139939D01*
X0118853Y0139520D01*
X0119746Y0139520D01*
X0121000Y0138266D01*
X0121000Y0134574D01*
X0120258Y0133832D01*
X0119258Y0134832D01*
X0116142Y0134832D01*
X0115342Y0134032D01*
X0105945Y0143429D01*
X0105531Y0144428D01*
X0104758Y0145201D01*
X0103747Y0145620D01*
X0102653Y0145620D01*
X0101642Y0145201D01*
X0100869Y0144428D01*
X0100450Y0143417D01*
X0100450Y0142323D01*
X0100869Y0141312D01*
X0101642Y0140539D01*
X0102653Y0140120D01*
X0103747Y0140120D01*
X0104241Y0140325D01*
X0112600Y0131966D01*
X0112600Y0128666D01*
X0113596Y0127670D01*
X0116434Y0124832D01*
X0116142Y0124832D01*
X0113938Y0122628D01*
X0113938Y0119512D01*
X0113988Y0119462D01*
X0104900Y0110374D01*
X0104900Y0110582D02*
X0105108Y0110582D01*
X0104900Y0112181D02*
X0106707Y0112181D01*
X0108305Y0113779D02*
X0104900Y0113779D01*
X0104900Y0115378D02*
X0109904Y0115378D01*
X0111502Y0116976D02*
X0106410Y0116976D01*
X0103201Y0118575D02*
X0100525Y0118575D01*
X0101462Y0119512D02*
X0099258Y0117308D01*
X0096142Y0117308D01*
X0093938Y0119512D01*
X0093938Y0119570D01*
X0091462Y0119570D01*
X0091462Y0119512D01*
X0089258Y0117308D01*
X0086142Y0117308D01*
X0083938Y0119512D01*
X0083938Y0122628D01*
X0086142Y0124832D01*
X0089258Y0124832D01*
X0091121Y0122970D01*
X0094279Y0122970D01*
X0096142Y0124832D01*
X0099258Y0124832D01*
X0101462Y0122628D01*
X0101462Y0119512D01*
X0101462Y0120173D02*
X0103938Y0120173D01*
X0103938Y0121772D02*
X0101462Y0121772D01*
X0100720Y0123370D02*
X0104680Y0123370D01*
X0106142Y0127308D02*
X0109258Y0127308D01*
X0111462Y0129512D01*
X0111462Y0132628D01*
X0109258Y0134832D01*
X0106142Y0134832D01*
X0103938Y0132628D01*
X0103938Y0129512D01*
X0106142Y0127308D01*
X0105284Y0128166D02*
X0100116Y0128166D01*
X0099258Y0127308D02*
X0101462Y0129512D01*
X0101462Y0132628D01*
X0099258Y0134832D01*
X0096142Y0134832D01*
X0093938Y0132628D01*
X0093938Y0129512D01*
X0096142Y0127308D01*
X0099258Y0127308D01*
X0101462Y0129764D02*
X0103938Y0129764D01*
X0103938Y0131363D02*
X0101462Y0131363D01*
X0101129Y0132961D02*
X0104271Y0132961D01*
X0105869Y0134560D02*
X0099531Y0134560D01*
X0095869Y0134560D02*
X0089531Y0134560D01*
X0089258Y0134832D02*
X0086142Y0134832D01*
X0083938Y0132628D01*
X0083938Y0129512D01*
X0086142Y0127308D01*
X0089258Y0127308D01*
X0091462Y0129512D01*
X0091462Y0132628D01*
X0089258Y0134832D01*
X0091129Y0132961D02*
X0094271Y0132961D01*
X0093938Y0131363D02*
X0091462Y0131363D01*
X0091462Y0129764D02*
X0093938Y0129764D01*
X0095284Y0128166D02*
X0090116Y0128166D01*
X0085284Y0128166D02*
X0080116Y0128166D01*
X0079258Y0127308D02*
X0076142Y0127308D01*
X0073938Y0129512D01*
X0073938Y0132628D01*
X0076142Y0134832D01*
X0079258Y0134832D01*
X0081462Y0132628D01*
X0081462Y0129512D01*
X0079258Y0127308D01*
X0075284Y0128166D02*
X0070116Y0128166D01*
X0069258Y0127308D02*
X0066142Y0127308D01*
X0063938Y0129512D01*
X0063938Y0132628D01*
X0066142Y0134832D01*
X0069258Y0134832D01*
X0071462Y0132628D01*
X0071462Y0129512D01*
X0069258Y0127308D01*
X0069258Y0124832D02*
X0066142Y0124832D01*
X0063938Y0122628D01*
X0063938Y0119512D01*
X0066142Y0117308D01*
X0069258Y0117308D01*
X0071462Y0119512D01*
X0071462Y0122628D01*
X0069258Y0124832D01*
X0070720Y0123370D02*
X0074680Y0123370D01*
X0073938Y0121772D02*
X0071462Y0121772D01*
X0071462Y0120173D02*
X0073938Y0120173D01*
X0074875Y0118575D02*
X0070525Y0118575D01*
X0066496Y0115378D02*
X0080588Y0115378D01*
X0078990Y0116976D02*
X0064898Y0116976D01*
X0064875Y0118575D02*
X0060525Y0118575D01*
X0061462Y0119512D02*
X0059258Y0117308D01*
X0056142Y0117308D01*
X0053938Y0119512D01*
X0053938Y0122628D01*
X0056142Y0124832D01*
X0059258Y0124832D01*
X0061462Y0122628D01*
X0061462Y0119512D01*
X0061462Y0120173D02*
X0063938Y0120173D01*
X0063938Y0121772D02*
X0061462Y0121772D01*
X0060720Y0123370D02*
X0064680Y0123370D01*
X0059258Y0127308D02*
X0061462Y0129512D01*
X0061462Y0132628D01*
X0059258Y0134832D01*
X0056142Y0134832D01*
X0053938Y0132628D01*
X0053938Y0129512D01*
X0056142Y0127308D01*
X0059258Y0127308D01*
X0060116Y0128166D02*
X0065284Y0128166D01*
X0063938Y0129764D02*
X0061462Y0129764D01*
X0061462Y0131363D02*
X0063938Y0131363D01*
X0064271Y0132961D02*
X0061129Y0132961D01*
X0059531Y0134560D02*
X0065869Y0134560D01*
X0069531Y0134560D02*
X0075869Y0134560D01*
X0074271Y0132961D02*
X0071129Y0132961D01*
X0071462Y0131363D02*
X0073938Y0131363D01*
X0073938Y0129764D02*
X0071462Y0129764D01*
X0079531Y0134560D02*
X0085869Y0134560D01*
X0084271Y0132961D02*
X0081129Y0132961D01*
X0081462Y0131363D02*
X0083938Y0131363D01*
X0083938Y0129764D02*
X0081462Y0129764D01*
X0080720Y0123370D02*
X0084680Y0123370D01*
X0083938Y0121772D02*
X0081462Y0121772D01*
X0081462Y0120173D02*
X0083938Y0120173D01*
X0084875Y0118575D02*
X0082199Y0118575D01*
X0083798Y0116976D02*
X0101602Y0116976D01*
X0101500Y0115378D02*
X0085396Y0115378D01*
X0086995Y0113779D02*
X0101500Y0113779D01*
X0101500Y0112181D02*
X0088593Y0112181D01*
X0090192Y0110582D02*
X0101500Y0110582D01*
X0101500Y0108984D02*
X0091790Y0108984D01*
X0093389Y0107385D02*
X0101500Y0107385D01*
X0101500Y0105787D02*
X0094988Y0105787D01*
X0096586Y0104188D02*
X0101500Y0104188D01*
X0101500Y0102590D02*
X0098185Y0102590D01*
X0099783Y0100991D02*
X0101500Y0100991D01*
X0101500Y0099393D02*
X0101382Y0099393D01*
X0098172Y0097794D02*
X0087680Y0097794D01*
X0089279Y0096196D02*
X0099770Y0096196D01*
X0100300Y0094597D02*
X0092362Y0094597D01*
X0093050Y0092999D02*
X0100300Y0092999D01*
X0100300Y0091400D02*
X0092709Y0091400D01*
X0092073Y0089802D02*
X0100300Y0089802D01*
X0100300Y0088203D02*
X0093671Y0088203D01*
X0095270Y0086605D02*
X0100300Y0086605D01*
X0100300Y0085006D02*
X0096868Y0085006D01*
X0098467Y0083408D02*
X0100300Y0083408D01*
X0100300Y0081809D02*
X0100065Y0081809D01*
X0096855Y0080211D02*
X0092364Y0080211D01*
X0090765Y0081809D02*
X0095257Y0081809D01*
X0093658Y0083408D02*
X0091541Y0083408D01*
X0091858Y0083539D02*
X0092631Y0084312D01*
X0092667Y0084399D01*
X0099100Y0077966D01*
X0099100Y0073474D01*
X0089243Y0083331D01*
X0089753Y0083120D01*
X0090847Y0083120D01*
X0091858Y0083539D01*
X0093962Y0078612D02*
X0098454Y0078612D01*
X0099100Y0077014D02*
X0095561Y0077014D01*
X0097159Y0075415D02*
X0099100Y0075415D01*
X0099100Y0073816D02*
X0098758Y0073816D01*
X0107300Y0073816D02*
X0112900Y0073816D01*
X0112900Y0072218D02*
X0107300Y0072218D01*
X0107300Y0070619D02*
X0112900Y0070619D01*
X0112900Y0069021D02*
X0107738Y0069021D01*
X0111137Y0067422D02*
X0112900Y0067422D01*
X0112900Y0065824D02*
X0111650Y0065824D01*
X0111237Y0064225D02*
X0112900Y0064225D01*
X0112900Y0062627D02*
X0107847Y0062627D01*
X0109446Y0061028D02*
X0112900Y0061028D01*
X0112900Y0059430D02*
X0112489Y0059430D01*
X0122171Y0051437D02*
X0179400Y0051437D01*
X0179400Y0049839D02*
X0134720Y0049839D01*
X0135350Y0048240D02*
X0179400Y0048240D01*
X0179400Y0046642D02*
X0134985Y0046642D01*
X0132617Y0045043D02*
X0179400Y0045043D01*
X0179400Y0043445D02*
X0152529Y0043445D01*
X0154128Y0041846D02*
X0154142Y0041846D01*
X0152100Y0038649D02*
X0138350Y0038649D01*
X0146300Y0037051D02*
X0152100Y0037051D01*
X0152658Y0035452D02*
X0146300Y0035452D01*
X0146300Y0033854D02*
X0153991Y0033854D01*
X0160009Y0033854D02*
X0178927Y0033854D01*
X0178150Y0035452D02*
X0161342Y0035452D01*
X0161900Y0037051D02*
X0178454Y0037051D01*
X0179400Y0038649D02*
X0161900Y0038649D01*
X0161279Y0040248D02*
X0179400Y0040248D01*
X0179400Y0041846D02*
X0159858Y0041846D01*
X0146300Y0032255D02*
X0181015Y0032255D01*
X0182613Y0030657D02*
X0146300Y0030657D01*
X0146300Y0029058D02*
X0184212Y0029058D01*
X0185810Y0027460D02*
X0146300Y0027460D01*
X0146300Y0025861D02*
X0187409Y0025861D01*
X0188300Y0024263D02*
X0146300Y0024263D01*
X0146300Y0022664D02*
X0188300Y0022664D01*
X0188300Y0021066D02*
X0146300Y0021066D01*
X0146300Y0019467D02*
X0186797Y0019467D01*
X0179400Y0053036D02*
X0123770Y0053036D01*
X0125368Y0054634D02*
X0179400Y0054634D01*
X0179400Y0056233D02*
X0126800Y0056233D01*
X0126800Y0057831D02*
X0179400Y0057831D01*
X0179400Y0059430D02*
X0160560Y0059430D01*
X0161758Y0061028D02*
X0179400Y0061028D01*
X0179400Y0062627D02*
X0162249Y0062627D01*
X0162230Y0064225D02*
X0179400Y0064225D01*
X0179400Y0065824D02*
X0161696Y0065824D01*
X0160433Y0067422D02*
X0179400Y0067422D01*
X0179400Y0069021D02*
X0149600Y0069021D01*
X0149600Y0070619D02*
X0158062Y0070619D01*
X0157450Y0072218D02*
X0149600Y0072218D01*
X0149600Y0073816D02*
X0157823Y0073816D01*
X0158500Y0075415D02*
X0149600Y0075415D01*
X0149600Y0077014D02*
X0158500Y0077014D01*
X0156954Y0078612D02*
X0149600Y0078612D01*
X0149600Y0080211D02*
X0155355Y0080211D01*
X0153757Y0081809D02*
X0149600Y0081809D01*
X0149600Y0083408D02*
X0152158Y0083408D01*
X0150560Y0085006D02*
X0149600Y0085006D01*
X0146200Y0085006D02*
X0121100Y0085006D01*
X0121100Y0083408D02*
X0146200Y0083408D01*
X0146200Y0081809D02*
X0139774Y0081809D01*
X0139289Y0082294D02*
X0137414Y0083070D01*
X0135386Y0083070D01*
X0133511Y0082294D01*
X0132076Y0080859D01*
X0131400Y0079226D01*
X0130724Y0080859D01*
X0129289Y0082294D01*
X0127414Y0083070D01*
X0125386Y0083070D01*
X0123511Y0082294D01*
X0122076Y0080859D01*
X0121300Y0078985D01*
X0121300Y0076956D01*
X0122076Y0075081D01*
X0123511Y0073647D01*
X0125386Y0072870D01*
X0127414Y0072870D01*
X0129289Y0073647D01*
X0130724Y0075081D01*
X0131400Y0076714D01*
X0132076Y0075081D01*
X0133511Y0073647D01*
X0135386Y0072870D01*
X0137414Y0072870D01*
X0139289Y0073647D01*
X0140724Y0075081D01*
X0141500Y0076956D01*
X0141500Y0078985D01*
X0140724Y0080859D01*
X0139289Y0082294D01*
X0140992Y0080211D02*
X0146200Y0080211D01*
X0146200Y0078612D02*
X0141500Y0078612D01*
X0141500Y0077014D02*
X0146200Y0077014D01*
X0146200Y0075415D02*
X0140862Y0075415D01*
X0139459Y0073816D02*
X0146200Y0073816D01*
X0146200Y0072218D02*
X0124656Y0072218D01*
X0123341Y0073816D02*
X0123058Y0073816D01*
X0121938Y0075415D02*
X0121459Y0075415D01*
X0121300Y0077014D02*
X0121100Y0077014D01*
X0121100Y0078612D02*
X0121300Y0078612D01*
X0121100Y0080211D02*
X0121808Y0080211D01*
X0121100Y0081809D02*
X0123026Y0081809D01*
X0121100Y0086605D02*
X0146200Y0086605D01*
X0146200Y0088203D02*
X0121100Y0088203D01*
X0112900Y0088203D02*
X0107300Y0088203D01*
X0107300Y0086605D02*
X0112900Y0086605D01*
X0112900Y0085006D02*
X0107300Y0085006D01*
X0107300Y0083408D02*
X0112900Y0083408D01*
X0112900Y0081809D02*
X0107300Y0081809D01*
X0107300Y0080211D02*
X0112900Y0080211D01*
X0112900Y0078612D02*
X0107300Y0078612D01*
X0107300Y0077014D02*
X0112900Y0077014D01*
X0112900Y0075415D02*
X0107300Y0075415D01*
X0107300Y0089802D02*
X0112900Y0089802D01*
X0112900Y0091400D02*
X0107300Y0091400D01*
X0107300Y0092999D02*
X0112900Y0092999D01*
X0112900Y0094597D02*
X0107300Y0094597D01*
X0107300Y0096196D02*
X0112900Y0096196D01*
X0112900Y0097794D02*
X0107300Y0097794D01*
X0096573Y0099393D02*
X0086082Y0099393D01*
X0085250Y0100991D02*
X0094975Y0100991D01*
X0093376Y0102590D02*
X0084369Y0102590D01*
X0090179Y0105787D02*
X0076088Y0105787D01*
X0077686Y0104188D02*
X0091778Y0104188D01*
X0088581Y0107385D02*
X0074489Y0107385D01*
X0072890Y0108984D02*
X0086982Y0108984D01*
X0085384Y0110582D02*
X0071292Y0110582D01*
X0069693Y0112181D02*
X0083785Y0112181D01*
X0082187Y0113779D02*
X0068095Y0113779D01*
X0054875Y0118575D02*
X0054599Y0118575D01*
X0053938Y0120173D02*
X0053001Y0120173D01*
X0053938Y0121772D02*
X0051402Y0121772D01*
X0050150Y0123370D02*
X0054680Y0123370D01*
X0052237Y0126567D02*
X0114699Y0126567D01*
X0116297Y0124969D02*
X0049690Y0124969D01*
X0052550Y0128166D02*
X0055284Y0128166D01*
X0053938Y0129764D02*
X0051795Y0129764D01*
X0053938Y0131363D02*
X0049097Y0131363D01*
X0047805Y0129764D02*
X0047498Y0129764D01*
X0046492Y0128166D02*
X0045900Y0128166D01*
X0044893Y0126567D02*
X0044301Y0126567D01*
X0043295Y0124969D02*
X0043100Y0124969D01*
X0039700Y0124969D02*
X0039403Y0124969D01*
X0039200Y0124766D02*
X0039700Y0125266D01*
X0039700Y0118766D01*
X0040696Y0117770D01*
X0047500Y0110966D01*
X0047500Y0109283D01*
X0047489Y0109294D01*
X0045614Y0110070D01*
X0043586Y0110070D01*
X0041711Y0109294D01*
X0040276Y0107859D01*
X0039500Y0105985D01*
X0039500Y0103956D01*
X0040276Y0102081D01*
X0041711Y0100647D01*
X0043586Y0099870D01*
X0045614Y0099870D01*
X0047489Y0100647D01*
X0047500Y0100658D01*
X0047500Y0098160D01*
X0046640Y0099020D01*
X0041960Y0099020D01*
X0039200Y0096260D01*
X0039200Y0124766D01*
X0039200Y0123370D02*
X0039700Y0123370D01*
X0039700Y0121772D02*
X0039200Y0121772D01*
X0039200Y0120173D02*
X0039700Y0120173D01*
X0039891Y0118575D02*
X0039200Y0118575D01*
X0039200Y0116976D02*
X0041490Y0116976D01*
X0043088Y0115378D02*
X0039200Y0115378D01*
X0039200Y0113779D02*
X0044687Y0113779D01*
X0046285Y0112181D02*
X0039200Y0112181D01*
X0039200Y0110582D02*
X0047500Y0110582D01*
X0041401Y0108984D02*
X0039200Y0108984D01*
X0039200Y0107385D02*
X0040080Y0107385D01*
X0039500Y0105787D02*
X0039200Y0105787D01*
X0039200Y0104188D02*
X0039500Y0104188D01*
X0039200Y0102590D02*
X0040066Y0102590D01*
X0039200Y0100991D02*
X0041366Y0100991D01*
X0039200Y0099393D02*
X0047500Y0099393D01*
X0040734Y0097794D02*
X0039200Y0097794D01*
X0035800Y0097794D02*
X0035600Y0097794D01*
X0035600Y0096196D02*
X0035800Y0096196D01*
X0035800Y0094597D02*
X0035600Y0094597D01*
X0035600Y0092999D02*
X0035800Y0092999D01*
X0035800Y0091400D02*
X0035600Y0091400D01*
X0035600Y0089802D02*
X0035800Y0089802D01*
X0035800Y0088203D02*
X0035600Y0088203D01*
X0035600Y0086605D02*
X0035800Y0086605D01*
X0035800Y0085006D02*
X0035600Y0085006D01*
X0035600Y0083408D02*
X0035800Y0083408D01*
X0035800Y0081809D02*
X0035600Y0081809D01*
X0032200Y0081809D02*
X0006500Y0081809D01*
X0006500Y0080211D02*
X0032355Y0080211D01*
X0033954Y0078612D02*
X0006500Y0078612D01*
X0006500Y0077014D02*
X0035552Y0077014D01*
X0037151Y0075415D02*
X0006500Y0075415D01*
X0006500Y0073816D02*
X0038749Y0073816D01*
X0040348Y0072218D02*
X0006500Y0072218D01*
X0006500Y0070619D02*
X0041946Y0070619D01*
X0043545Y0069021D02*
X0006500Y0069021D01*
X0006500Y0067422D02*
X0045143Y0067422D01*
X0046742Y0065824D02*
X0006500Y0065824D01*
X0006500Y0064225D02*
X0048340Y0064225D01*
X0049785Y0062627D02*
X0006500Y0062627D01*
X0006500Y0061028D02*
X0049450Y0061028D01*
X0050151Y0059430D02*
X0006500Y0059430D01*
X0006500Y0057831D02*
X0020217Y0057831D01*
X0020279Y0057893D02*
X0018764Y0056378D01*
X0017944Y0054399D01*
X0017944Y0045082D01*
X0016906Y0046120D01*
X0014900Y0046120D01*
X0014900Y0040570D01*
X0020450Y0040570D01*
X0020450Y0040718D01*
X0022259Y0039969D01*
X0024401Y0039969D01*
X0026381Y0040789D01*
X0026739Y0041146D01*
X0026739Y0040657D01*
X0027358Y0039161D01*
X0028504Y0038015D01*
X0030000Y0037395D01*
X0031620Y0037395D01*
X0033117Y0038015D01*
X0034262Y0039161D01*
X0034882Y0040657D01*
X0034882Y0042277D01*
X0034262Y0043773D01*
X0033117Y0044919D01*
X0031620Y0045539D01*
X0030000Y0045539D01*
X0028716Y0045007D01*
X0028716Y0054399D01*
X0027896Y0056378D01*
X0026381Y0057893D01*
X0024401Y0058713D01*
X0022259Y0058713D01*
X0020279Y0057893D01*
X0018704Y0056233D02*
X0006500Y0056233D01*
X0006500Y0054634D02*
X0018041Y0054634D01*
X0017944Y0053036D02*
X0006500Y0053036D01*
X0006500Y0051437D02*
X0017944Y0051437D01*
X0017944Y0049839D02*
X0006500Y0049839D01*
X0006500Y0048240D02*
X0017944Y0048240D01*
X0017944Y0046642D02*
X0006500Y0046642D01*
X0006500Y0045043D02*
X0010817Y0045043D01*
X0011894Y0046120D02*
X0008350Y0042576D01*
X0008350Y0040570D01*
X0013900Y0040570D01*
X0013900Y0039570D01*
X0014900Y0039570D01*
X0014900Y0034020D01*
X0016906Y0034020D01*
X0020450Y0037564D01*
X0020450Y0039570D01*
X0014900Y0039570D01*
X0014900Y0040570D01*
X0013900Y0040570D01*
X0013900Y0046120D01*
X0011894Y0046120D01*
X0013900Y0045043D02*
X0014900Y0045043D01*
X0014900Y0043445D02*
X0013900Y0043445D01*
X0013900Y0041846D02*
X0014900Y0041846D01*
X0014900Y0040248D02*
X0021584Y0040248D01*
X0020450Y0038649D02*
X0027870Y0038649D01*
X0026908Y0040248D02*
X0025075Y0040248D01*
X0026324Y0037051D02*
X0049076Y0037051D01*
X0049019Y0037027D02*
X0047504Y0035512D01*
X0046684Y0033532D01*
X0046684Y0023417D01*
X0047504Y0021438D01*
X0049019Y0019922D01*
X0050999Y0019102D01*
X0053141Y0019102D01*
X0055121Y0019922D01*
X0056636Y0021438D01*
X0057456Y0023417D01*
X0057456Y0033532D01*
X0056636Y0035512D01*
X0055121Y0037027D01*
X0053141Y0037847D01*
X0050999Y0037847D01*
X0049019Y0037027D01*
X0047530Y0038649D02*
X0118317Y0038649D01*
X0116718Y0040248D02*
X0053816Y0040248D01*
X0056179Y0041846D02*
X0075820Y0041846D01*
X0074221Y0043445D02*
X0066587Y0043445D01*
X0067622Y0045043D02*
X0073900Y0045043D01*
X0069800Y0037051D02*
X0055064Y0037051D01*
X0056661Y0035452D02*
X0065900Y0035452D01*
X0065900Y0033854D02*
X0057323Y0033854D01*
X0057456Y0032255D02*
X0065900Y0032255D01*
X0065900Y0030657D02*
X0057456Y0030657D01*
X0057456Y0029058D02*
X0065900Y0029058D01*
X0065900Y0027460D02*
X0057456Y0027460D01*
X0057456Y0025861D02*
X0065900Y0025861D01*
X0065900Y0024263D02*
X0057456Y0024263D01*
X0057144Y0022664D02*
X0065900Y0022664D01*
X0065900Y0021066D02*
X0056264Y0021066D01*
X0054022Y0019467D02*
X0065900Y0019467D01*
X0050118Y0019467D02*
X0025282Y0019467D01*
X0027524Y0021066D02*
X0047876Y0021066D01*
X0046996Y0022664D02*
X0028404Y0022664D01*
X0028716Y0024263D02*
X0046684Y0024263D01*
X0046684Y0025861D02*
X0028716Y0025861D01*
X0028716Y0027460D02*
X0046684Y0027460D01*
X0046684Y0029058D02*
X0028716Y0029058D01*
X0028716Y0030657D02*
X0046684Y0030657D01*
X0046684Y0032255D02*
X0028716Y0032255D01*
X0028583Y0033854D02*
X0046817Y0033854D01*
X0047479Y0035452D02*
X0027921Y0035452D01*
X0033751Y0038649D02*
X0041649Y0038649D01*
X0040688Y0040248D02*
X0034712Y0040248D01*
X0034882Y0041846D02*
X0040518Y0041846D01*
X0041002Y0043445D02*
X0034398Y0043445D01*
X0032816Y0045043D02*
X0042584Y0045043D01*
X0046595Y0045043D02*
X0046684Y0045043D01*
X0046684Y0046642D02*
X0028716Y0046642D01*
X0028716Y0048240D02*
X0046684Y0048240D01*
X0046684Y0049839D02*
X0028716Y0049839D01*
X0028716Y0051437D02*
X0046684Y0051437D01*
X0046684Y0053036D02*
X0028716Y0053036D01*
X0028618Y0054634D02*
X0046782Y0054634D01*
X0047444Y0056233D02*
X0027956Y0056233D01*
X0026443Y0057831D02*
X0048957Y0057831D01*
X0057456Y0051437D02*
X0058429Y0051437D01*
X0058568Y0049839D02*
X0057456Y0049839D01*
X0057456Y0048240D02*
X0057906Y0048240D01*
X0057800Y0046642D02*
X0057456Y0046642D01*
X0057456Y0045043D02*
X0058178Y0045043D01*
X0059213Y0043445D02*
X0057109Y0043445D01*
X0050325Y0040248D02*
X0048492Y0040248D01*
X0028805Y0045043D02*
X0028716Y0045043D01*
X0020336Y0037051D02*
X0019937Y0037051D01*
X0018739Y0035452D02*
X0018338Y0035452D01*
X0018077Y0033854D02*
X0006500Y0033854D01*
X0006500Y0035452D02*
X0010462Y0035452D01*
X0011894Y0034020D02*
X0008350Y0037564D01*
X0008350Y0039570D01*
X0013900Y0039570D01*
X0013900Y0034020D01*
X0011894Y0034020D01*
X0013900Y0035452D02*
X0014900Y0035452D01*
X0014900Y0037051D02*
X0013900Y0037051D01*
X0013900Y0038649D02*
X0014900Y0038649D01*
X0013900Y0040248D02*
X0006500Y0040248D01*
X0006500Y0041846D02*
X0008350Y0041846D01*
X0009219Y0043445D02*
X0006500Y0043445D01*
X0006500Y0038649D02*
X0008350Y0038649D01*
X0008863Y0037051D02*
X0006500Y0037051D01*
X0006500Y0032255D02*
X0017944Y0032255D01*
X0017944Y0030657D02*
X0016596Y0030657D01*
X0007604Y0030657D02*
X0006500Y0030657D01*
X0018276Y0021066D02*
X0019136Y0021066D01*
X0021378Y0019467D02*
X0016779Y0019467D01*
X0057800Y0067674D02*
X0055700Y0069774D01*
X0055700Y0092070D01*
X0066400Y0092070D01*
X0066400Y0090683D01*
X0065789Y0091294D01*
X0063914Y0092070D01*
X0061886Y0092070D01*
X0060011Y0091294D01*
X0058576Y0089859D01*
X0057800Y0087985D01*
X0057800Y0085956D01*
X0058576Y0084081D01*
X0060011Y0082647D01*
X0060722Y0082352D01*
X0060612Y0082335D01*
X0059789Y0082067D01*
X0059017Y0081674D01*
X0058317Y0081165D01*
X0057705Y0080553D01*
X0057196Y0079853D01*
X0056803Y0079081D01*
X0056535Y0078258D01*
X0056400Y0077403D01*
X0056400Y0077170D01*
X0061700Y0077170D01*
X0061700Y0076770D01*
X0056400Y0076770D01*
X0056400Y0076537D01*
X0056535Y0075682D01*
X0056803Y0074859D01*
X0057196Y0074087D01*
X0057705Y0073387D01*
X0058317Y0072775D01*
X0059017Y0072266D01*
X0059789Y0071873D01*
X0060612Y0071606D01*
X0060722Y0071588D01*
X0060011Y0071294D01*
X0058576Y0069859D01*
X0057800Y0067985D01*
X0057800Y0067674D01*
X0058229Y0069021D02*
X0056453Y0069021D01*
X0055700Y0070619D02*
X0059337Y0070619D01*
X0059112Y0072218D02*
X0055700Y0072218D01*
X0055700Y0073816D02*
X0057393Y0073816D01*
X0056622Y0075415D02*
X0055700Y0075415D01*
X0055700Y0077014D02*
X0061700Y0077014D01*
X0062100Y0077014D02*
X0072850Y0077014D01*
X0072850Y0077117D02*
X0072850Y0076023D01*
X0073269Y0075012D01*
X0074042Y0074239D01*
X0074129Y0074203D01*
X0068800Y0068874D01*
X0068800Y0068859D01*
X0068169Y0068228D01*
X0068000Y0067821D01*
X0068000Y0067985D01*
X0067224Y0069859D01*
X0065789Y0071294D01*
X0064181Y0071960D01*
X0064783Y0072266D01*
X0065483Y0072775D01*
X0066095Y0073387D01*
X0066604Y0074087D01*
X0066997Y0074859D01*
X0067265Y0075682D01*
X0067400Y0076537D01*
X0067400Y0076770D01*
X0062100Y0076770D01*
X0062100Y0077170D01*
X0067400Y0077170D01*
X0067400Y0077403D01*
X0067265Y0078258D01*
X0067053Y0078909D01*
X0067874Y0078088D01*
X0069124Y0077570D01*
X0072276Y0077570D01*
X0072563Y0077689D01*
X0073087Y0077689D01*
X0072850Y0077117D01*
X0073102Y0075415D02*
X0067178Y0075415D01*
X0066407Y0073816D02*
X0073742Y0073816D01*
X0072144Y0072218D02*
X0064688Y0072218D01*
X0066463Y0070619D02*
X0070545Y0070619D01*
X0068947Y0069021D02*
X0067571Y0069021D01*
X0067350Y0078612D02*
X0067150Y0078612D01*
X0059282Y0081809D02*
X0055700Y0081809D01*
X0055700Y0080211D02*
X0057456Y0080211D01*
X0056650Y0078612D02*
X0055700Y0078612D01*
X0055700Y0083408D02*
X0059250Y0083408D01*
X0058193Y0085006D02*
X0055700Y0085006D01*
X0055700Y0086605D02*
X0057800Y0086605D01*
X0057891Y0088203D02*
X0055700Y0088203D01*
X0055700Y0089802D02*
X0058553Y0089802D01*
X0060268Y0091400D02*
X0055700Y0091400D01*
X0065532Y0091400D02*
X0066400Y0091400D01*
X0079285Y0102590D02*
X0080631Y0102590D01*
X0090525Y0118575D02*
X0094875Y0118575D01*
X0094680Y0123370D02*
X0090720Y0123370D01*
X0110116Y0128166D02*
X0113100Y0128166D01*
X0112600Y0129764D02*
X0111462Y0129764D01*
X0111462Y0131363D02*
X0112600Y0131363D01*
X0111605Y0132961D02*
X0111129Y0132961D01*
X0110006Y0134560D02*
X0109531Y0134560D01*
X0108407Y0136158D02*
X0052001Y0136158D01*
X0052550Y0134560D02*
X0055869Y0134560D01*
X0054271Y0132961D02*
X0052152Y0132961D01*
X0047050Y0134560D02*
X0040594Y0134560D01*
X0041611Y0132961D02*
X0038995Y0132961D01*
X0039776Y0131363D02*
X0037397Y0131363D01*
X0035798Y0129764D02*
X0039390Y0129764D01*
X0037792Y0128166D02*
X0034200Y0128166D01*
X0033200Y0126567D02*
X0036193Y0126567D01*
X0035800Y0124969D02*
X0034705Y0124969D01*
X0035600Y0123370D02*
X0035800Y0123370D01*
X0035800Y0121772D02*
X0035600Y0121772D01*
X0035600Y0120173D02*
X0035800Y0120173D01*
X0035800Y0118575D02*
X0035600Y0118575D01*
X0035600Y0116976D02*
X0035800Y0116976D01*
X0035800Y0115378D02*
X0035600Y0115378D01*
X0035600Y0113779D02*
X0035800Y0113779D01*
X0035800Y0112181D02*
X0035600Y0112181D01*
X0035600Y0110582D02*
X0035800Y0110582D01*
X0035800Y0108984D02*
X0035600Y0108984D01*
X0035600Y0107385D02*
X0035800Y0107385D01*
X0035800Y0105787D02*
X0035600Y0105787D01*
X0035600Y0104188D02*
X0035800Y0104188D01*
X0035800Y0102590D02*
X0035600Y0102590D01*
X0035600Y0100991D02*
X0035800Y0100991D01*
X0035800Y0099393D02*
X0035600Y0099393D01*
X0032200Y0099393D02*
X0006500Y0099393D01*
X0006500Y0100991D02*
X0032200Y0100991D01*
X0032200Y0102590D02*
X0006500Y0102590D01*
X0006500Y0104188D02*
X0032200Y0104188D01*
X0032200Y0105787D02*
X0006500Y0105787D01*
X0006500Y0107385D02*
X0032200Y0107385D01*
X0032200Y0108984D02*
X0006500Y0108984D01*
X0006500Y0110582D02*
X0032200Y0110582D01*
X0032200Y0112181D02*
X0006500Y0112181D01*
X0006500Y0113779D02*
X0032200Y0113779D01*
X0032200Y0115378D02*
X0006500Y0115378D01*
X0006500Y0116976D02*
X0032200Y0116976D01*
X0032200Y0118575D02*
X0006500Y0118575D01*
X0006500Y0120173D02*
X0032200Y0120173D01*
X0032200Y0121772D02*
X0006500Y0121772D01*
X0006500Y0123370D02*
X0031496Y0123370D01*
X0029897Y0124969D02*
X0006500Y0124969D01*
X0006500Y0126567D02*
X0029800Y0126567D01*
X0029800Y0128166D02*
X0006500Y0128166D01*
X0006500Y0129764D02*
X0030990Y0129764D01*
X0032589Y0131363D02*
X0006500Y0131363D01*
X0006500Y0132961D02*
X0034187Y0132961D01*
X0035786Y0134560D02*
X0006500Y0134560D01*
X0006500Y0136158D02*
X0037384Y0136158D01*
X0038983Y0137757D02*
X0006500Y0137757D01*
X0006500Y0139355D02*
X0040581Y0139355D01*
X0042180Y0140954D02*
X0006500Y0140954D01*
X0006500Y0142552D02*
X0043778Y0142552D01*
X0045377Y0144151D02*
X0006500Y0144151D01*
X0006500Y0145749D02*
X0046975Y0145749D01*
X0048574Y0147348D02*
X0006500Y0147348D01*
X0006500Y0148947D02*
X0050172Y0148947D01*
X0051771Y0150545D02*
X0006500Y0150545D01*
X0006500Y0152144D02*
X0037222Y0152144D01*
X0035624Y0153742D02*
X0006500Y0153742D01*
X0006500Y0155341D02*
X0034025Y0155341D01*
X0032427Y0156939D02*
X0006500Y0156939D01*
X0006500Y0158538D02*
X0030828Y0158538D01*
X0024321Y0160136D02*
X0006500Y0160136D01*
X0006500Y0161735D02*
X0022723Y0161735D01*
X0022700Y0163333D02*
X0006500Y0163333D01*
X0006500Y0164932D02*
X0022700Y0164932D01*
X0023248Y0166530D02*
X0015283Y0166530D01*
X0017855Y0168129D02*
X0024846Y0168129D01*
X0024730Y0169727D02*
X0019335Y0169727D01*
X0019997Y0171326D02*
X0023132Y0171326D01*
X0022700Y0172924D02*
X0020500Y0172924D01*
X0020500Y0174523D02*
X0022700Y0174523D01*
X0022839Y0176121D02*
X0020367Y0176121D01*
X0019705Y0177720D02*
X0024437Y0177720D01*
X0018748Y0179318D02*
X0192861Y0179318D01*
X0193086Y0150545D02*
X0190029Y0150545D01*
X0191628Y0148947D02*
X0192004Y0148947D01*
X0196314Y0150545D02*
X0212286Y0150545D01*
X0211750Y0148947D02*
X0197396Y0148947D01*
X0197600Y0147348D02*
X0212074Y0147348D01*
X0210475Y0145749D02*
X0197600Y0145749D01*
X0197600Y0144151D02*
X0208877Y0144151D01*
X0207278Y0142552D02*
X0197600Y0142552D01*
X0197600Y0140954D02*
X0203976Y0140954D01*
X0209572Y0139355D02*
X0294900Y0139355D01*
X0294900Y0137757D02*
X0209700Y0137757D01*
X0210488Y0140954D02*
X0294900Y0140954D01*
X0294900Y0142552D02*
X0212087Y0142552D01*
X0213685Y0144151D02*
X0294900Y0144151D01*
X0294900Y0145749D02*
X0215284Y0145749D01*
X0216846Y0147348D02*
X0294900Y0147348D01*
X0294900Y0129764D02*
X0152865Y0129764D01*
X0153026Y0128166D02*
X0294900Y0128166D01*
X0294900Y0126567D02*
X0152000Y0126567D01*
X0152000Y0124969D02*
X0294900Y0124969D01*
X0294900Y0123370D02*
X0152000Y0123370D01*
X0152000Y0121772D02*
X0294900Y0121772D01*
X0294900Y0120173D02*
X0160138Y0120173D01*
X0159934Y0120277D02*
X0159141Y0120535D01*
X0158317Y0120665D01*
X0157986Y0120665D01*
X0157986Y0115451D01*
X0163200Y0115451D01*
X0163200Y0115782D01*
X0163069Y0116606D01*
X0162812Y0117400D01*
X0162433Y0118143D01*
X0161943Y0118818D01*
X0161353Y0119408D01*
X0160678Y0119898D01*
X0159934Y0120277D01*
X0157986Y0120173D02*
X0157814Y0120173D01*
X0157814Y0120665D02*
X0157483Y0120665D01*
X0156659Y0120535D01*
X0155866Y0120277D01*
X0155122Y0119898D01*
X0154447Y0119408D01*
X0153857Y0118818D01*
X0153367Y0118143D01*
X0152988Y0117400D01*
X0152730Y0116606D01*
X0152600Y0115782D01*
X0152600Y0115451D01*
X0157814Y0115451D01*
X0157814Y0115280D01*
X0152600Y0115280D01*
X0152600Y0114948D01*
X0152730Y0114124D01*
X0152988Y0113331D01*
X0153367Y0112588D01*
X0153857Y0111913D01*
X0154447Y0111323D01*
X0155122Y0110832D01*
X0155866Y0110454D01*
X0156659Y0110196D01*
X0157483Y0110065D01*
X0157814Y0110065D01*
X0157814Y0115279D01*
X0157986Y0115279D01*
X0157986Y0110065D01*
X0158317Y0110065D01*
X0159141Y0110196D01*
X0159934Y0110454D01*
X0160678Y0110832D01*
X0161353Y0111323D01*
X0161943Y0111913D01*
X0162433Y0112588D01*
X0162812Y0113331D01*
X0163069Y0114124D01*
X0163200Y0114948D01*
X0163200Y0115280D01*
X0157986Y0115280D01*
X0157986Y0115451D01*
X0157814Y0115451D01*
X0157814Y0120665D01*
X0157814Y0118575D02*
X0157986Y0118575D01*
X0157986Y0116976D02*
X0157814Y0116976D01*
X0157814Y0115378D02*
X0152000Y0115378D01*
X0152000Y0116976D02*
X0152851Y0116976D01*
X0153681Y0118575D02*
X0152000Y0118575D01*
X0152000Y0120173D02*
X0155662Y0120173D01*
X0162119Y0118575D02*
X0294900Y0118575D01*
X0294900Y0116976D02*
X0162949Y0116976D01*
X0162957Y0113779D02*
X0294900Y0113779D01*
X0294900Y0112181D02*
X0162137Y0112181D01*
X0160187Y0110582D02*
X0294900Y0110582D01*
X0294900Y0108984D02*
X0152000Y0108984D01*
X0152000Y0110582D02*
X0155613Y0110582D01*
X0157814Y0110582D02*
X0157986Y0110582D01*
X0157986Y0112181D02*
X0157814Y0112181D01*
X0157814Y0113779D02*
X0157986Y0113779D01*
X0157986Y0115378D02*
X0294900Y0115378D01*
X0294900Y0107385D02*
X0152000Y0107385D01*
X0152000Y0105787D02*
X0294900Y0105787D01*
X0294900Y0104188D02*
X0152000Y0104188D01*
X0152000Y0102590D02*
X0294900Y0102590D01*
X0294900Y0100991D02*
X0152000Y0100991D01*
X0152000Y0099393D02*
X0294900Y0099393D01*
X0294900Y0097794D02*
X0152000Y0097794D01*
X0152000Y0096196D02*
X0294900Y0096196D01*
X0294900Y0094597D02*
X0159062Y0094597D01*
X0158875Y0094675D02*
X0156925Y0094675D01*
X0155124Y0093929D01*
X0153746Y0092550D01*
X0153000Y0090749D01*
X0153000Y0088800D01*
X0153746Y0086999D01*
X0155124Y0085621D01*
X0156925Y0084875D01*
X0158875Y0084875D01*
X0160676Y0085621D01*
X0162054Y0086999D01*
X0162800Y0088800D01*
X0162800Y0090749D01*
X0162054Y0092550D01*
X0160676Y0093929D01*
X0158875Y0094675D01*
X0156738Y0094597D02*
X0152000Y0094597D01*
X0152000Y0092999D02*
X0154194Y0092999D01*
X0153270Y0091400D02*
X0152000Y0091400D01*
X0152000Y0089802D02*
X0153000Y0089802D01*
X0153247Y0088203D02*
X0152171Y0088203D01*
X0153770Y0086605D02*
X0154141Y0086605D01*
X0155368Y0085006D02*
X0156608Y0085006D01*
X0156967Y0083408D02*
X0191023Y0083408D01*
X0191023Y0081809D02*
X0158565Y0081809D01*
X0160164Y0080211D02*
X0191456Y0080211D01*
X0192118Y0078612D02*
X0161762Y0078612D01*
X0161900Y0077014D02*
X0184922Y0077014D01*
X0183694Y0075415D02*
X0161900Y0075415D01*
X0162577Y0073816D02*
X0179400Y0073816D01*
X0179400Y0072218D02*
X0162950Y0072218D01*
X0162338Y0070619D02*
X0179400Y0070619D01*
X0186600Y0074370D02*
X0202700Y0074370D01*
X0203700Y0075370D01*
X0266100Y0075370D01*
X0266100Y0064770D01*
X0266500Y0064770D01*
X0275974Y0076085D02*
X0278903Y0074872D01*
X0282073Y0074872D01*
X0285002Y0076085D01*
X0287244Y0078327D01*
X0288457Y0081256D01*
X0288457Y0084426D01*
X0287244Y0087355D01*
X0285002Y0089597D01*
X0282073Y0090810D01*
X0278903Y0090810D01*
X0275974Y0089597D01*
X0273732Y0087355D01*
X0272519Y0084426D01*
X0272519Y0081256D01*
X0273732Y0078327D01*
X0275974Y0076085D01*
X0275045Y0077014D02*
X0267568Y0077014D01*
X0268300Y0075415D02*
X0277591Y0075415D01*
X0273614Y0078612D02*
X0205866Y0078612D01*
X0206528Y0080211D02*
X0272952Y0080211D01*
X0272519Y0081809D02*
X0206961Y0081809D01*
X0206961Y0083408D02*
X0272519Y0083408D01*
X0272759Y0085006D02*
X0206721Y0085006D01*
X0206059Y0086605D02*
X0273421Y0086605D01*
X0274580Y0088203D02*
X0204900Y0088203D01*
X0203012Y0089802D02*
X0276468Y0089802D01*
X0284508Y0089802D02*
X0294900Y0089802D01*
X0294900Y0091400D02*
X0162530Y0091400D01*
X0162800Y0089802D02*
X0194972Y0089802D01*
X0193084Y0088203D02*
X0162553Y0088203D01*
X0161659Y0086605D02*
X0191925Y0086605D01*
X0191263Y0085006D02*
X0159192Y0085006D01*
X0161606Y0092999D02*
X0294900Y0092999D01*
X0294900Y0088203D02*
X0286396Y0088203D01*
X0287555Y0086605D02*
X0294900Y0086605D01*
X0294900Y0085006D02*
X0288217Y0085006D01*
X0288457Y0083408D02*
X0294900Y0083408D01*
X0294900Y0081809D02*
X0288457Y0081809D01*
X0288025Y0080211D02*
X0294900Y0080211D01*
X0294900Y0078612D02*
X0287362Y0078612D01*
X0285931Y0077014D02*
X0294900Y0077014D01*
X0294900Y0075415D02*
X0283385Y0075415D01*
X0193549Y0077014D02*
X0188278Y0077014D01*
X0157086Y0067422D02*
X0156914Y0067422D01*
X0156914Y0065824D02*
X0157086Y0065824D01*
X0157086Y0064225D02*
X0156914Y0064225D01*
X0156914Y0062627D02*
X0157086Y0062627D01*
X0157086Y0061028D02*
X0156914Y0061028D01*
X0156914Y0059430D02*
X0157086Y0059430D01*
X0153440Y0059430D02*
X0150571Y0059430D01*
X0149429Y0059430D02*
X0126800Y0059430D01*
X0126800Y0061028D02*
X0147496Y0061028D01*
X0147250Y0062627D02*
X0126800Y0062627D01*
X0126800Y0064225D02*
X0146200Y0064225D01*
X0147196Y0063170D02*
X0147196Y0063170D01*
X0146200Y0065824D02*
X0126800Y0065824D01*
X0126800Y0067422D02*
X0146200Y0067422D01*
X0146200Y0069021D02*
X0126800Y0069021D01*
X0126255Y0070619D02*
X0146200Y0070619D01*
X0149600Y0067422D02*
X0153567Y0067422D01*
X0152304Y0065824D02*
X0149600Y0065824D01*
X0133341Y0073816D02*
X0129459Y0073816D01*
X0130862Y0075415D02*
X0131938Y0075415D01*
X0131808Y0080211D02*
X0130992Y0080211D01*
X0129774Y0081809D02*
X0133026Y0081809D01*
X0131732Y0102590D02*
X0146200Y0102590D01*
X0146200Y0104188D02*
X0132682Y0104188D01*
X0133000Y0105787D02*
X0146200Y0105787D01*
X0146200Y0107385D02*
X0132834Y0107385D01*
X0132099Y0108984D02*
X0146200Y0108984D01*
X0146200Y0110582D02*
X0130092Y0110582D01*
X0119002Y0116976D02*
X0116310Y0116976D01*
X0117404Y0115378D02*
X0114712Y0115378D01*
X0115805Y0113779D02*
X0113113Y0113779D01*
X0114207Y0112181D02*
X0111515Y0112181D01*
X0112900Y0110582D02*
X0109916Y0110582D01*
X0110525Y0118575D02*
X0113101Y0118575D01*
X0113938Y0120173D02*
X0111462Y0120173D01*
X0111462Y0121772D02*
X0113938Y0121772D01*
X0114680Y0123370D02*
X0110720Y0123370D01*
X0114814Y0134560D02*
X0115869Y0134560D01*
X0113216Y0136158D02*
X0121000Y0136158D01*
X0120986Y0134560D02*
X0119531Y0134560D01*
X0121000Y0137757D02*
X0111617Y0137757D01*
X0110019Y0139355D02*
X0119910Y0139355D01*
X0116969Y0140954D02*
X0112373Y0140954D01*
X0113150Y0142552D02*
X0116650Y0142552D01*
X0115115Y0144151D02*
X0112846Y0144151D01*
X0108427Y0140954D02*
X0108420Y0140954D01*
X0107650Y0142552D02*
X0106822Y0142552D01*
X0106715Y0144151D02*
X0105646Y0144151D01*
X0105116Y0145749D02*
X0051784Y0145749D01*
X0050185Y0144151D02*
X0100754Y0144151D01*
X0100450Y0142552D02*
X0048587Y0142552D01*
X0046988Y0140954D02*
X0101227Y0140954D01*
X0105210Y0139355D02*
X0045390Y0139355D01*
X0043791Y0137757D02*
X0106809Y0137757D01*
X0118325Y0145749D02*
X0125216Y0145749D01*
X0123618Y0147348D02*
X0116726Y0147348D01*
X0115128Y0148947D02*
X0122019Y0148947D01*
X0119115Y0153742D02*
X0060076Y0153742D01*
X0061675Y0155341D02*
X0073925Y0155341D01*
X0072327Y0156939D02*
X0063273Y0156939D01*
X0064872Y0158538D02*
X0070728Y0158538D01*
X0054981Y0148947D02*
X0100150Y0148947D01*
X0100554Y0147348D02*
X0053382Y0147348D01*
X0047599Y0136158D02*
X0042193Y0136158D01*
X0042989Y0132961D02*
X0045887Y0132961D01*
X0032200Y0097794D02*
X0006500Y0097794D01*
X0006500Y0096196D02*
X0032200Y0096196D01*
X0032200Y0094597D02*
X0006500Y0094597D01*
X0006500Y0092999D02*
X0032200Y0092999D01*
X0032200Y0091400D02*
X0006500Y0091400D01*
X0006500Y0089802D02*
X0032200Y0089802D01*
X0032200Y0088203D02*
X0006500Y0088203D01*
X0006500Y0086605D02*
X0032200Y0086605D01*
X0032200Y0085006D02*
X0006500Y0085006D01*
X0006500Y0083408D02*
X0032200Y0083408D01*
X0120842Y0049839D02*
X0130480Y0049839D01*
X0152000Y0112181D02*
X0153663Y0112181D01*
X0152843Y0113779D02*
X0152000Y0113779D01*
X0146200Y0118575D02*
X0140525Y0118575D01*
X0141462Y0120173D02*
X0146200Y0120173D01*
X0146200Y0121772D02*
X0141462Y0121772D01*
X0140720Y0123370D02*
X0145420Y0123370D01*
X0192600Y0132961D02*
X0192948Y0132961D01*
X0116121Y0160136D02*
X0112678Y0160136D01*
X0114277Y0161735D02*
X0114523Y0161735D01*
X0092839Y0176121D02*
X0092761Y0176121D01*
X0091163Y0177720D02*
X0094437Y0177720D01*
X0084437Y0177720D02*
X0081163Y0177720D01*
X0082761Y0176121D02*
X0082839Y0176121D01*
X0074437Y0177720D02*
X0071163Y0177720D01*
X0072761Y0176121D02*
X0072839Y0176121D01*
X0064437Y0177720D02*
X0061163Y0177720D01*
X0062761Y0176121D02*
X0062839Y0176121D01*
X0054437Y0177720D02*
X0051163Y0177720D01*
X0052761Y0176121D02*
X0052839Y0176121D01*
X0044437Y0177720D02*
X0041163Y0177720D01*
X0042761Y0176121D02*
X0042839Y0176121D01*
X0034437Y0177720D02*
X0031163Y0177720D01*
X0032761Y0176121D02*
X0032839Y0176121D01*
X0009317Y0166530D02*
X0006500Y0166530D01*
X0006500Y0168129D02*
X0006745Y0168129D01*
D22*
X0019000Y0156070D03*
X0033400Y0149570D03*
X0033400Y0144770D03*
X0033500Y0134270D03*
X0038300Y0129970D03*
X0034200Y0126870D03*
X0041500Y0134070D03*
X0031100Y0117170D03*
X0030800Y0112570D03*
X0040200Y0112270D03*
X0093100Y0099470D03*
X0096900Y0094770D03*
X0111800Y0096770D03*
X0111800Y0104270D03*
X0097800Y0107470D03*
X0095200Y0110570D03*
X0111600Y0088870D03*
X0123100Y0088970D03*
X0127800Y0087370D03*
X0135300Y0087070D03*
X0143600Y0101970D03*
X0142800Y0109170D03*
X0155300Y0107370D03*
X0165500Y0115570D03*
X0165900Y0120470D03*
X0162100Y0123070D03*
X0143900Y0130170D03*
X0146800Y0135170D03*
X0155600Y0138370D03*
X0159800Y0137270D03*
X0182100Y0130570D03*
X0192000Y0129370D03*
X0201200Y0129170D03*
X0199200Y0123270D03*
X0190700Y0123470D03*
X0190500Y0117670D03*
X0182600Y0120170D03*
X0182500Y0114270D03*
X0176500Y0106570D03*
X0193800Y0104370D03*
X0202700Y0099670D03*
X0191300Y0095770D03*
X0190600Y0088170D03*
X0182400Y0085370D03*
X0179200Y0082170D03*
X0174600Y0081670D03*
X0186600Y0074370D03*
X0186200Y0068470D03*
X0176400Y0067270D03*
X0174800Y0062370D03*
X0168600Y0061970D03*
X0170500Y0066970D03*
X0175200Y0057270D03*
X0171000Y0056070D03*
X0153900Y0054170D03*
X0148700Y0051970D03*
X0144700Y0046370D03*
X0163900Y0034270D03*
X0168800Y0035170D03*
X0173600Y0034770D03*
X0171800Y0027970D03*
X0167200Y0026970D03*
X0162100Y0029270D03*
X0153000Y0025670D03*
X0148800Y0028170D03*
X0148600Y0023170D03*
X0153800Y0021170D03*
X0160800Y0019970D03*
X0167500Y0020070D03*
X0185700Y0027370D03*
X0232700Y0021770D03*
X0238400Y0021370D03*
X0243500Y0021370D03*
X0238100Y0026770D03*
X0238100Y0031970D03*
X0238100Y0063170D03*
X0238200Y0068170D03*
X0243400Y0068070D03*
X0290400Y0067970D03*
X0202500Y0110770D03*
X0206200Y0138370D03*
X0185600Y0146570D03*
X0172800Y0155570D03*
X0167300Y0154270D03*
X0162700Y0154670D03*
X0156300Y0153370D03*
X0115200Y0156370D03*
X0109700Y0154970D03*
X0109000Y0076070D03*
X0098200Y0076470D03*
X0047200Y0059270D03*
X0042700Y0059870D03*
X0045500Y0064170D03*
X0037900Y0057370D03*
X0024500Y0065070D03*
X0017700Y0063470D03*
X0010600Y0059770D03*
X0011500Y0053970D03*
X0037800Y0041870D03*
X0037400Y0035270D03*
X0043800Y0032570D03*
X0039100Y0026470D03*
X0032500Y0027370D03*
X0061900Y0026470D03*
X0061400Y0034270D03*
X0073600Y0042370D03*
X0098800Y0039570D03*
X0113100Y0039270D03*
X0032500Y0073870D03*
X0028000Y0074770D03*
D23*
X0054600Y0095470D02*
X0054600Y0104970D01*
X0054600Y0095470D02*
X0069800Y0095470D01*
X0069800Y0080970D01*
X0071600Y0080970D01*
X0113300Y0039170D02*
X0115800Y0039170D01*
X0170400Y0135070D02*
X0167100Y0138370D01*
X0170400Y0135070D02*
X0189900Y0135070D01*
X0192900Y0138070D01*
X0206200Y0138370D02*
X0206300Y0138370D01*
D24*
X0115800Y0039170D02*
X0119800Y0035170D01*
X0138800Y0035170D01*
X0151700Y0022270D01*
D25*
X0177400Y0036470D02*
X0177400Y0071770D01*
X0180300Y0074670D01*
X0180300Y0074770D01*
X0183966Y0074770D01*
X0183966Y0073846D01*
X0184367Y0072878D01*
X0185108Y0072137D01*
X0186076Y0071736D01*
X0187124Y0071736D01*
X0188092Y0072137D01*
X0188575Y0072620D01*
X0203425Y0072620D01*
X0204425Y0073620D01*
X0264350Y0073620D01*
X0264350Y0065943D01*
X0264150Y0065743D01*
X0264150Y0063797D01*
X0265527Y0062420D01*
X0267473Y0062420D01*
X0268850Y0063797D01*
X0268850Y0065743D01*
X0267850Y0066743D01*
X0267850Y0074770D01*
X0295350Y0074770D01*
X0295350Y0029280D01*
X0294390Y0030240D01*
X0291542Y0031420D01*
X0288458Y0031420D01*
X0285610Y0030240D01*
X0283430Y0028060D01*
X0282250Y0025212D01*
X0282250Y0022128D01*
X0283430Y0019280D01*
X0284590Y0018120D01*
X0195750Y0018120D01*
X0180400Y0033470D01*
X0181853Y0033470D01*
X0183200Y0034817D01*
X0183200Y0036302D01*
X0190318Y0043420D01*
X0191073Y0043420D01*
X0192450Y0044797D01*
X0192450Y0046743D01*
X0191073Y0048120D01*
X0189127Y0048120D01*
X0187750Y0046743D01*
X0187750Y0044797D01*
X0187954Y0044592D01*
X0181432Y0038070D01*
X0179947Y0038070D01*
X0178600Y0036723D01*
X0178600Y0035270D01*
X0177400Y0036470D01*
X0177400Y0037070D02*
X0178947Y0037070D01*
X0181000Y0038070D02*
X0181000Y0074770D01*
X0179100Y0073470D02*
X0184121Y0073470D01*
X0186200Y0071736D02*
X0186200Y0042838D01*
X0185632Y0042270D02*
X0177400Y0042270D01*
X0183968Y0037070D02*
X0295350Y0037070D01*
X0295350Y0042270D02*
X0189168Y0042270D01*
X0191400Y0043747D02*
X0191400Y0022470D01*
X0192400Y0021470D02*
X0282523Y0021470D01*
X0279800Y0018120D02*
X0279800Y0074770D01*
X0285000Y0074770D02*
X0285000Y0029630D01*
X0282854Y0026670D02*
X0187200Y0026670D01*
X0186200Y0027670D02*
X0186200Y0039302D01*
X0181000Y0033470D02*
X0181000Y0032870D01*
X0182000Y0031870D02*
X0295350Y0031870D01*
X0290200Y0031420D02*
X0290200Y0074770D01*
X0295350Y0073470D02*
X0267850Y0073470D01*
X0269400Y0074770D02*
X0269400Y0018120D01*
X0264200Y0018120D02*
X0264200Y0063747D01*
X0264877Y0063070D02*
X0177400Y0063070D01*
X0177400Y0057870D02*
X0295350Y0057870D01*
X0295350Y0052670D02*
X0177400Y0052670D01*
X0177400Y0047470D02*
X0188477Y0047470D01*
X0191400Y0047793D02*
X0191400Y0072620D01*
X0196600Y0072620D02*
X0196600Y0018120D01*
X0201800Y0018120D02*
X0201800Y0072620D01*
X0204275Y0073470D02*
X0264350Y0073470D01*
X0264200Y0073620D02*
X0264200Y0065793D01*
X0264350Y0068270D02*
X0177400Y0068270D01*
X0207000Y0073620D02*
X0207000Y0018120D01*
X0212200Y0018120D02*
X0212200Y0073620D01*
X0217400Y0073620D02*
X0217400Y0018120D01*
X0222600Y0018120D02*
X0222600Y0073620D01*
X0227800Y0073620D02*
X0227800Y0018120D01*
X0233000Y0018120D02*
X0233000Y0073620D01*
X0238200Y0073620D02*
X0238200Y0018120D01*
X0243400Y0018120D02*
X0243400Y0073620D01*
X0248600Y0073620D02*
X0248600Y0018120D01*
X0253800Y0018120D02*
X0253800Y0073620D01*
X0259000Y0073620D02*
X0259000Y0018120D01*
X0274600Y0018120D02*
X0274600Y0074770D01*
X0267850Y0068270D02*
X0295350Y0068270D01*
X0295350Y0063070D02*
X0268123Y0063070D01*
X0295350Y0047470D02*
X0191723Y0047470D01*
D26*
X0071600Y0080970D03*
M02*
