G75*
%MOIN*%
%OFA0B0*%
%FSLAX25Y25*%
%IPPOS*%
%LPD*%
%AMOC8*
5,1,8,0,0,1.08239X$1,22.5*
%
%ADD10R,0.05500X0.01370*%
%ADD11R,0.04724X0.01614*%
%ADD12R,0.01614X0.04528*%
%ADD13R,0.04724X0.03150*%
%ADD14R,0.03268X0.02480*%
%ADD15R,0.03150X0.01181*%
%ADD16R,0.01181X0.03150*%
%ADD17R,0.03150X0.04724*%
%ADD18R,0.04800X0.08800*%
%ADD19R,0.14173X0.08661*%
%ADD20R,0.03000X0.06000*%
%ADD21R,0.01969X0.07874*%
%ADD22R,0.05906X0.05118*%
D10*
X0077706Y0082495D03*
X0077706Y0085054D03*
X0077706Y0087613D03*
X0077706Y0090172D03*
X0077706Y0092731D03*
X0077706Y0095291D03*
X0077706Y0097850D03*
X0077706Y0100409D03*
X0077706Y0102968D03*
X0077706Y0105527D03*
X0077706Y0108086D03*
X0077706Y0110645D03*
X0106494Y0110645D03*
X0106494Y0108086D03*
X0106494Y0105527D03*
X0106494Y0102968D03*
X0106494Y0100409D03*
X0106494Y0097850D03*
X0106494Y0095291D03*
X0106494Y0092731D03*
X0106494Y0090172D03*
X0106494Y0087613D03*
X0106494Y0085054D03*
X0106494Y0082495D03*
D11*
X0125306Y0058520D03*
X0125306Y0055921D03*
X0125306Y0053323D03*
X0125306Y0050724D03*
X0125306Y0048126D03*
X0125306Y0045528D03*
X0125306Y0042929D03*
X0125306Y0040331D03*
X0125306Y0037732D03*
X0083494Y0037732D03*
X0083494Y0040331D03*
X0083494Y0042929D03*
X0083494Y0045528D03*
X0083494Y0048126D03*
X0083494Y0050724D03*
X0083494Y0053323D03*
X0083494Y0055921D03*
X0083494Y0058520D03*
D12*
X0087510Y0061374D03*
X0090109Y0061374D03*
X0092707Y0061374D03*
X0095306Y0061374D03*
X0097904Y0061374D03*
X0100502Y0061374D03*
X0103101Y0061374D03*
X0105699Y0061374D03*
X0108298Y0061374D03*
X0110896Y0061374D03*
X0113494Y0061374D03*
X0116093Y0061374D03*
X0118691Y0061374D03*
X0121290Y0061374D03*
D13*
X0077100Y0064027D03*
X0077100Y0071113D03*
X0039700Y0075927D03*
X0039700Y0083013D03*
X0041000Y0138927D03*
X0050000Y0138927D03*
X0060000Y0138927D03*
X0060000Y0146013D03*
X0050000Y0146013D03*
X0041000Y0146013D03*
X0071000Y0146013D03*
X0071000Y0138927D03*
X0170000Y0133213D03*
X0176600Y0133113D03*
X0176600Y0126027D03*
X0170000Y0126127D03*
X0198900Y0138527D03*
X0198900Y0145613D03*
X0214000Y0145313D03*
X0214000Y0138227D03*
X0178600Y0030213D03*
X0178600Y0023127D03*
D14*
X0148800Y0140643D03*
X0140800Y0140643D03*
X0132800Y0140643D03*
X0123800Y0140643D03*
X0115800Y0140643D03*
X0106800Y0140643D03*
X0098800Y0140643D03*
X0091800Y0140643D03*
X0084800Y0140643D03*
X0084800Y0149698D03*
X0091800Y0149698D03*
X0098800Y0149698D03*
X0106800Y0149698D03*
X0115800Y0149698D03*
X0123800Y0149698D03*
X0132800Y0149698D03*
X0140800Y0149698D03*
X0148800Y0149698D03*
D15*
X0169280Y0145639D03*
X0169280Y0143670D03*
X0169280Y0141702D03*
X0179320Y0141702D03*
X0179320Y0143670D03*
X0179320Y0145639D03*
D16*
X0178237Y0148690D03*
X0176269Y0148690D03*
X0174300Y0148690D03*
X0172331Y0148690D03*
X0170363Y0148690D03*
X0170363Y0138650D03*
X0172331Y0138650D03*
X0174300Y0138650D03*
X0176269Y0138650D03*
X0178237Y0138650D03*
D17*
X0163043Y0145070D03*
X0155957Y0145070D03*
X0173257Y0074770D03*
X0180343Y0074770D03*
X0032643Y0080370D03*
X0025557Y0080370D03*
X0019343Y0080370D03*
X0012257Y0080370D03*
X0012257Y0072470D03*
X0019343Y0072470D03*
D18*
X0019700Y0090570D03*
X0010600Y0090570D03*
X0028800Y0090570D03*
D19*
X0019700Y0114971D03*
D20*
X0026400Y0124670D03*
X0011400Y0124670D03*
X0011400Y0146670D03*
X0026400Y0146670D03*
D21*
X0031401Y0050325D03*
X0034550Y0050325D03*
X0037700Y0050325D03*
X0040850Y0050325D03*
X0043999Y0050325D03*
D22*
X0219500Y0152377D03*
X0219500Y0159070D03*
X0219500Y0165763D03*
X0241500Y0165863D03*
X0241500Y0159170D03*
X0241500Y0152477D03*
X0252600Y0152577D03*
X0252600Y0159270D03*
X0252600Y0165963D03*
X0264900Y0166063D03*
X0264900Y0159370D03*
X0264900Y0152677D03*
M02*
